<svg xmlns="http://www.w3.org/2000/svg" width="100.256" height="100" viewBox="0 0 100.256 100">
  <g id="CF6_mod_copia_5" data-name="CF6_mod copia 5" transform="translate(0.256)">
    <circle id="Elipse_4196" data-name="Elipse 4196" cx="50" cy="50" r="50" fill="#b5abdb"/>
    <g id="Grupo_61447" data-name="Grupo 61447">
      <path id="Trazado_128610" data-name="Trazado 128610" d="M97.92,42.73,93.4,58.37h-.14L77.83,56.48S85,55,85.72,54.14,93.84,43.74,96,42.72a.62.62,0,0,1,.34-.09Z" fill="#6b98f6"/>
      <path id="Trazado_128611" data-name="Trazado 128611" d="M93.26,58.36,77.83,56.48S85,55,85.72,54.14,93.84,43.74,96,42.72c-1.92,2.79-6.37,9.49-6.19,11.44S92.18,57.65,93.26,58.36Z" fill="#fff"/>
      <path id="Trazado_128612" data-name="Trazado 128612" d="M94.93,63.07c-.53.18-2.1.67-4.26,1.3-6.21,1.81-17.26,4.71-22.13,4.35-4.37-.32-27.5-2.09-43.49-3.49A29.41,29.41,0,0,1,38.16,52.62c18.64,1.53,43,3.59,46.11,4.19,5.1,1,11.87,1.79,11.87,1.79a2.5,2.5,0,0,0,.08.53C96.37,60.2,96.49,62.53,94.93,63.07Z" fill="#f28018"/>
      <path id="Trazado_128613" data-name="Trazado 128613" d="M96.3,60.26v.12a3.22,3.22,0,0,1-.78,2.34l-.07.05-.13.1h0l-.07.05h-.16L95,63h-.48l-.39.12h-.08l-1.35.41-.17.05-.27.08h-.07L92,64h-.81l-.49.15-.3.09-.25.07-.2.06-.79.22H89l-.29.08-.26.07-.29.08a76.733,76.733,0,0,1-10.79,2.9L77,67.8h-.19l-.38.08-1.11.2-.37.06h-.18l-.36.06-.35.06-.35.05H72.52l-.65.07h-5.4l-.82-.06H63.44l-1.24-.09H60.39l-4-.3h-.22l-.86-.07H54l-1.13-.09h-.38l-1-.07H50.15l-.9-.07h-.46l-1.13-.09H46.35L46,67l-1.32-.1h0l-2.19-.18h-.31l-1-.08h-.29l-.84-.07-1.69-.14-1.07-.08-.68-.06-1.59-.13H35L34,66l-1.42-.12L32,65.82h-.17l-1.13-.1h-.17l-.77-.07-3.19-.27H25.06c-3.88-.34-7.34-.66-10-.93l-.79-.08L12.51,64c-1.47-.17-2.48-.31-2.88-.41a29.77,29.77,0,0,1-8-3.47C.32,59.26-.5,58.34-.19,57.58a4,4,0,0,1,2.1-2c.75-.37,1.52-.63,2-.92H4l.24-.18h0a11.871,11.871,0,0,1,1-.83,13,13,0,0,1,1.13-.75h0a17,17,0,0,1,10.08-2s9.64.76,21.66,1.75h0l3.66.3h0l1.24.1,1.89.16h0l3.17.26.63.05,1.3.08,2.55.22,1.27.1,4.5.39h0c4.29.36,8.4.72,12,1h.58l5.84.55,2.33.23c2.6.27,4.41.48,5.12.62,1.84.35,3.89.68,5.76,1l.46.07h0l.68.1h0l.76.1,1,.15h.42l2.69.35a.329.329,0,0,1,0,.08h0a.09.09,0,0,1,0,.05.43.43,0,0,1,0,.12v.21h0v.52a.41.41,0,0,1,0,.11v.56Z" fill="#472ea6"/>
      <path id="Trazado_128614" data-name="Trazado 128614" d="M96.3,60.26v.12a3.22,3.22,0,0,1-.78,2.34l-.07.05-.13.1h0l-.07.05h-.16L95,63h-.48l-.39.12h-.08l-1.35.41-.17.05-.27.08h-.07L92,64h-.81l-.49.15-.3.09-.25.07-.2.06-.79.22H89l-.29.08-.26.07-.29.08a76.733,76.733,0,0,1-10.79,2.9L77,67.8h-.19l-.38.08-1.11.2-.37.06h-.18l-.36.06-.35.06-.35.05H72.52l-.65.07h-5.4l-.82-.06H63.44l-1.24-.09H60.39l-4-.3h-.22l-.86-.07H54l-1.13-.09h-.38l-1-.07H50.15l-.9-.07h-.46l-1.13-.09h-.14A24,24,0,0,0,58.35,54.31h0c4.29.36,8.4.72,12,1h.58l5.84.55,2.33.23c2.6.27,4.41.48,5.12.62,1.84.35,3.89.68,5.76,1l.46.07h0l.68.1h0l.76.1,1,.15h.42l2.69.35a.33.33,0,0,1,0,.08h0a.09.09,0,0,1,0,.05.43.43,0,0,1,0,.12v.21h0v.52a.41.41,0,0,1,0,.11v.56Z" fill="#ff912b"/>
      <path id="Trazado_128615" data-name="Trazado 128615" d="M94.93,63.07c-.53.18-2.1.67-4.26,1.3a6.87,6.87,0,0,0-3-4.28l8.6-1C96.37,60.2,96.49,62.53,94.93,63.07Z" fill="#f07100" opacity="0.5"/>
      <g id="Grupo_61445" data-name="Grupo 61445">
        <path id="Trazado_128616" data-name="Trazado 128616" d="M48.94,59.08h0a.54.54,0,0,1-.46-.61l.05-.61a.57.57,0,0,1,.57-.53h0a.56.56,0,0,1,.46.62l-.06.6a.54.54,0,0,1-.56.53Z" fill="#fff"/>
        <path id="Trazado_128617" data-name="Trazado 128617" d="M46.3,58.85h0a.55.55,0,0,1-.46-.61l.06-.61a.56.56,0,0,1,.56-.53h0a.56.56,0,0,1,.46.62l-.05.61A.55.55,0,0,1,46.3,58.85Z" fill="#fff"/>
        <path id="Trazado_128618" data-name="Trazado 128618" d="M43.67,58.63h0a.55.55,0,0,1-.46-.62V57.4a.55.55,0,0,1,.57-.52h0a.55.55,0,0,1,.46.61l-.06.61a.56.56,0,0,1-.51.53Z" fill="#fff"/>
        <path id="Trazado_128619" data-name="Trazado 128619" d="M41,58.4h0a.55.55,0,0,1-.46-.62l.06-.6a.54.54,0,0,1,.56-.53h0a.54.54,0,0,1,.46.62v.6a.56.56,0,0,1-.62.53Z" fill="#fff"/>
        <path id="Trazado_128620" data-name="Trazado 128620" d="M38.4,58.17h0a.54.54,0,0,1-.46-.61L38,57a.55.55,0,0,1,.56-.53h0A.55.55,0,0,1,39,57l-.06.6a.54.54,0,0,1-.54.57Z" fill="#fff"/>
        <path id="Trazado_128621" data-name="Trazado 128621" d="M35.76,57.94h0a.53.53,0,0,1-.45-.61v-.61a.56.56,0,0,1,.56-.53h0a.56.56,0,0,1,.46.62l-.05.61a.54.54,0,0,1-.52.52Z" fill="#fff"/>
        <path id="Trazado_128622" data-name="Trazado 128622" d="M33.13,57.72h0a.55.55,0,0,1-.46-.62l.06-.61a.54.54,0,0,1,.56-.52h0a.54.54,0,0,1,.46.61l-.06.61a.56.56,0,0,1-.56.53Z" fill="#fff"/>
        <path id="Trazado_128623" data-name="Trazado 128623" d="M30.5,57.49h0a.54.54,0,0,1-.46-.62l.05-.6a.54.54,0,0,1,.56-.53h0a.54.54,0,0,1,.46.62l-.05.6A.55.55,0,0,1,30.5,57.49Z" fill="#fff"/>
        <path id="Trazado_128624" data-name="Trazado 128624" d="M27.86,57.26h0a.54.54,0,0,1-.46-.61l.06-.61a.56.56,0,0,1,.56-.53h0a.55.55,0,0,1,.46.62l-.06.6a.54.54,0,0,1-.56.53Z" fill="#fff"/>
        <path id="Trazado_128625" data-name="Trazado 128625" d="M25.28,57h0a.54.54,0,0,1-.46-.62l.05-.6a.55.55,0,0,1,.57-.53h0a.55.55,0,0,1,.46.62l-.06.6a.55.55,0,0,1-.56.53Z" fill="#fff"/>
        <path id="Trazado_128626" data-name="Trazado 128626" d="M22.64,56.81h0a.53.53,0,0,1-.45-.61v-.61a.55.55,0,0,1,.56-.53h0a.55.55,0,0,1,.46.62l-.05.6A.55.55,0,0,1,22.64,56.81Z" fill="#fff"/>
        <path id="Trazado_128627" data-name="Trazado 128627" d="M20,56.58h0a.54.54,0,0,1-.46-.61l.06-.61a.55.55,0,0,1,.56-.53h0a.56.56,0,0,1,.46.62l-.06.61a.54.54,0,0,1-.56.52Z" fill="#fff"/>
        <path id="Trazado_128628" data-name="Trazado 128628" d="M16.75,56.27h0a.53.53,0,0,1-.46-.61l.05-.61a.55.55,0,0,1,.56-.53h0a.54.54,0,0,1,.46.62l-.05.6a.54.54,0,0,1-.56.53Z" fill="#fff"/>
      </g>
      <g id="Grupo_61446" data-name="Grupo 61446">
        <path id="Trazado_128629" data-name="Trazado 128629" d="M77.68,61.87h0a.55.55,0,0,1-.46-.61l.06-.61a.55.55,0,0,1,.56-.53h0a.55.55,0,0,1,.46.62v.6a.55.55,0,0,1-.62.53Z" fill="#fff"/>
        <path id="Trazado_128630" data-name="Trazado 128630" d="M75.05,61.64h0a.54.54,0,0,1-.46-.61v-.61a.57.57,0,0,1,.57-.53h0a.56.56,0,0,1,.46.62l-.06.61a.54.54,0,0,1-.51.52Z" fill="#fff"/>
        <path id="Trazado_128631" data-name="Trazado 128631" d="M72.41,61.42h0A.54.54,0,0,1,72,60.8l.05-.61a.54.54,0,0,1,.56-.52h0a.54.54,0,0,1,.46.61v.61a.57.57,0,0,1-.66.53Z" fill="#fff"/>
      </g>
      <path id="Trazado_128632" data-name="Trazado 128632" d="M6.88,52.88,5.09,54.57,4,54.64l.24-.18h0a11.87,11.87,0,0,1,1-.83,13,13,0,0,1,1.13-.75h.51Z" fill="#fff"/>
      <path id="Trazado_128633" data-name="Trazado 128633" d="M7.28,52.94,5.52,54.65l1.99.42.63-1.95Z" fill="#fff"/>
      <path id="Trazado_128634" data-name="Trazado 128634" d="M8.33,53.18l-.46,1.83,1.47-.42.1-1.27Z" fill="#fff"/>
      <path id="Trazado_128635" data-name="Trazado 128635" d="M44.26,67.24A1.45,1.45,0,0,0,44.6,65a4.37,4.37,0,0,0-2.51-1.23c-2-.14-1.2,4-.53,4.07a8.25,8.25,0,0,0,2.7-.6Z" fill="#fff"/>
      <path id="Trazado_128636" data-name="Trazado 128636" d="M87.45,59.27c.08-.11,7.62-2.59,12.55-1.51l-4.75,3-7.63-.66a.51.51,0,0,1-.17-.83Z" fill="#2c5cb4"/>
      <path id="Trazado_128637" data-name="Trazado 128637" d="M83.81,41.87s-5,11.16-6,12.85a8.42,8.42,0,0,1-3.06,2.77h0L61.36,62.93s-16.69-1.32-20.31-1.71h0l-.64-.08c-1.1-.24-1.62-.75-1.41-1.15s25.86-3.48,28.7-3.79h.08c2.77-.33,3-1.27,3-1.27L81.37,42.78a1.52,1.52,0,0,1,.62-.52,5.13,5.13,0,0,1,1.82-.39Z" fill="#472ea6"/>
      <path id="Trazado_128638" data-name="Trazado 128638" d="M82,42.26c-2.85,3.46-10.73,13-11.47,13.64S46.7,60.3,41.05,61.22h0l-.64-.08c-1.1-.24-1.62-.75-1.41-1.15s25.86-3.48,28.7-3.79,3.1-1.28,3.1-1.28L81.37,42.78a1.52,1.52,0,0,1,.63-.52Z" fill="#6b98f6"/>
      <path id="Trazado_128639" data-name="Trazado 128639" d="M83.81,41.87s-5,11.16-6,12.85a8.42,8.42,0,0,1-3.06,2.77h0a22.3,22.3,0,0,1-7-1.32c2.77-.33,3-1.27,3-1.27L81.37,42.78a1.52,1.52,0,0,1,.62-.52,5.13,5.13,0,0,1,1.82-.39Z" fill="#8c80b8"/>
      <path id="Trazado_128640" data-name="Trazado 128640" d="M42.55,62.81l-.5,5.62a15.3,15.3,0,0,1-5.52.6,11.77,11.77,0,0,1-4.18-.9,4.57,4.57,0,0,1-.71-.37l.53-5.9A2,2,0,0,1,33,61.5c2.66-.68,9.19,1.08,9.19,1.08Z" fill="#e7efff"/>
      <path id="Trazado_128641" data-name="Trazado 128641" d="M33,61.5l-.6,6.63a4.57,4.57,0,0,1-.71-.37l.53-5.9A2,2,0,0,1,33,61.5Z" fill="#ff9223"/>
    </g>
  </g>
</svg>
