<svg id="CF6_mod_copia" data-name="CF6_mod copia" xmlns="http://www.w3.org/2000/svg" width="100" height="100" viewBox="0 0 100 100">
  <circle id="Elipse_4214" data-name="Elipse 4214" cx="50" cy="50" r="50" fill="#b5abdb"/>
  <g id="Grupo_61482" data-name="Grupo 61482">
    <path id="Trazado_128729" data-name="Trazado 128729" d="M63.1,73.93H14.34l-3.17-.54V62.64a1.11,1.11,0,0,1,1-1h51Z" fill="#6e6f71" fill-rule="evenodd"/>
    <path id="Trazado_128730" data-name="Trazado 128730" d="M99.25,62.18l-2.99-2.7-.65,14.45,1.45.33,1.11-.33L99.21,71Z" fill="#59595b" fill-rule="evenodd"/>
    <path id="Trazado_128731" data-name="Trazado 128731" d="M63.09,33.67l15.29-1.46a6.43,6.43,0,0,1,5.16,1.7c6,5,15.53,15.78,14.6,32.05l-.29,5.81H84.5l-21.4-.64Z" fill="#dc662b" fill-rule="evenodd"/>
    <path id="Trazado_128732" data-name="Trazado 128732" d="M97.07,54.68a36.17,36.17,0,0,1,1.11,7.88h0L71.36,52l-2.09-5.49L94.9,55.54l2.16-.87Z" fill="#e67c25" fill-rule="evenodd"/>
    <path id="Trazado_128733" data-name="Trazado 128733" d="M94.9,55.54A35.81,35.81,0,0,0,81.73,35a4.34,4.34,0,0,0-3.34-1.11L65,35.14l.12,9.9h0l3.09-.7,1,2.11Z" fill="#a4c3d1" fill-rule="evenodd"/>
    <path id="Trazado_128734" data-name="Trazado 128734" d="M87.48,40.46A32.42,32.42,0,0,0,81.73,35a4.34,4.34,0,0,0-3.34-1.11L65,35.14l.09,7.37C67.16,37.59,77.75,38.05,87.48,40.46Z" fill="#678498" fill-rule="evenodd"/>
    <path id="Trazado_128735" data-name="Trazado 128735" d="M27.39,61.65H23.48a38.68,38.68,0,0,0-6,.67A5.23,5.23,0,0,0,15,63.87a12.92,12.92,0,0,0-3.78,9.26c0,.09,0,.17,0,.26,0,.25,1.26.42,3.24.52H97.12l.73-2.16H87.23L84.9,65.19A3.61,3.61,0,0,0,83,63L64.1,56.18c-.55-.18-1,0-1,.72V68.14L42.43,66.73C38.05,63.5,34.58,61.65,27.39,61.65Z" fill="#939597" fill-rule="evenodd"/>
    <path id="Trazado_128736" data-name="Trazado 128736" d="M28.86,64.2a24,24,0,0,0-10.27,0,4.33,4.33,0,0,0-2.12,1.23c-2.33,2.3-3.1,5.16-3.14,8.38a3.93,3.93,0,0,0,1,.1H34.61a12.2,12.2,0,0,0-3-8.26A5.13,5.13,0,0,0,28.86,64.2Z" fill="#414243" fill-rule="evenodd"/>
    <path id="Trazado_128737" data-name="Trazado 128737" d="M23.81,84.26a9.5,9.5,0,1,1,9.5-9.49,9.5,9.5,0,0,1-9.5,9.49Z" fill="#6e6f71" fill-rule="evenodd"/>
    <path id="Trazado_128738" data-name="Trazado 128738" d="M23.81,80.22a5.46,5.46,0,1,1,5.46-5.45,5.46,5.46,0,0,1-5.46,5.45Z" fill="#d1d3d2" fill-rule="evenodd"/>
    <path id="Trazado_128739" data-name="Trazado 128739" d="M56.39,58.28H6.7L6.67,25.66H56.39Z" fill="#edcc88" fill-rule="evenodd"/>
    <path id="Trazado_128740" data-name="Trazado 128740" d="M63.1,50.3h-.01V28.76H61.05V50.3H.76V61.64H63.1Z" fill="#9182ca" fill-rule="evenodd"/>
    <path id="Trazado_128741" data-name="Trazado 128741" d="M85.72,73.93H63.12a20.24,20.24,0,0,1,3.29-11.58,3.76,3.76,0,0,1,3.5-2l11.75,4.21a3,3,0,0,1,1.54,1.88Z" fill="#414243" fill-rule="evenodd"/>
    <path id="Trazado_128742" data-name="Trazado 128742" d="M73.83,83.8a9.5,9.5,0,1,1,9.5-9.5A9.5,9.5,0,0,1,73.83,83.8Z" fill="#6e6f71" fill-rule="evenodd"/>
    <path id="Trazado_128743" data-name="Trazado 128743" d="M73.83,79.76a5.46,5.46,0,1,1,5.46-5.46,5.46,5.46,0,0,1-5.46,5.46Z" fill="#d1d3d2" fill-rule="evenodd"/>
  </g>
</svg>
