<svg id="CF6_mod_copia_9" data-name="CF6_mod copia 9" xmlns="http://www.w3.org/2000/svg" width="100" height="100" viewBox="0 0 100 100">
  <circle id="Elipse_4205" data-name="Elipse 4205" cx="50" cy="50" r="50" fill="#b5abdb"/>
  <g id="Grupo_61481" data-name="Grupo 61481">
    <g id="Grupo_61474" data-name="Grupo 61474">
      <circle id="Elipse_4206" data-name="Elipse 4206" cx="10.31" cy="10.31" r="10.31" transform="translate(10.96 73.76)" fill="#7e7e84"/>
      <circle id="Elipse_4207" data-name="Elipse 4207" cx="5.04" cy="5.04" r="5.04" transform="translate(16.23 79.03)" fill="#ccccdb"/>
      <circle id="Elipse_4208" data-name="Elipse 4208" cx="1.68" cy="1.68" r="1.68" transform="translate(19.59 82.39)" fill="#35237d"/>
      <circle id="Elipse_4209" data-name="Elipse 4209" cx="10.31" cy="10.31" r="10.31" transform="translate(10.96 73.76)" fill="#35237d" opacity="0.35"/>
      <path id="Trazado_128696" data-name="Trazado 128696" d="M21.27,94.82A10.76,10.76,0,1,1,32,84.07,10.76,10.76,0,0,1,21.27,94.82Zm0-20.62a9.87,9.87,0,1,0,9.86,9.87,9.87,9.87,0,0,0-9.86-9.87Z" fill="#35237d"/>
      <path id="Trazado_128697" data-name="Trazado 128697" d="M21.27,94.37H18.1a10.31,10.31,0,0,1,0-20.61h3.17a10.31,10.31,0,0,0,0,20.61Z" fill="#7e7e84"/>
      <path id="Trazado_128698" data-name="Trazado 128698" d="M21.27,94.82H18.1a10.76,10.76,0,0,1,0-21.51h3.17a.45.45,0,0,1,.45.45.44.44,0,0,1-.45.44,9.87,9.87,0,0,0,0,19.73.45.45,0,1,1,0,.89ZM16.79,74.29a9.86,9.86,0,0,0,0,19.55,10.75,10.75,0,0,1,0-19.55Z" fill="#35237d"/>
    </g>
    <g id="Grupo_61475" data-name="Grupo 61475">
      <path id="Trazado_128699" data-name="Trazado 128699" d="M53.94,80.51H49.48V25a8.17,8.17,0,0,1,8.18-8.17H75a2.22,2.22,0,0,1,2.23,2.22h0A2.23,2.23,0,0,1,75,21.29H57.66A3.72,3.72,0,0,0,53.94,25Z" fill="#3eadff"/>
      <path id="Trazado_128700" data-name="Trazado 128700" d="M53.94,81H49.48a.44.44,0,0,1-.44-.45V25a8.63,8.63,0,0,1,8.62-8.62H75a2.68,2.68,0,0,1,0,5.35H57.66A3.28,3.28,0,0,0,54.38,25V80.5a.45.45,0,0,1-.44.5Zm-4-.9H53.5V25a4.17,4.17,0,0,1,4.17-4.16H75a1.79,1.79,0,0,0,0-3.57H57.66A7.74,7.74,0,0,0,49.93,25Z" fill="#35237d"/>
      <path id="Trazado_128701" data-name="Trazado 128701" d="M57.66,16.84A8.18,8.18,0,0,0,49.48,25V80.5H46.79V25A8.17,8.17,0,0,1,55,16.84Z" fill="#3eadff"/>
      <path id="Trazado_128702" data-name="Trazado 128702" d="M49.48,81H46.79a.45.45,0,0,1-.45-.45V25A8.63,8.63,0,0,1,55,16.39h2.7a.45.45,0,0,1,0,.89A7.74,7.74,0,0,0,49.93,25V80.5a.45.45,0,0,1-.45.5Zm-2.25-.9H49V25a8.63,8.63,0,0,1,4.58-7.61A7.74,7.74,0,0,0,47.23,25Z" fill="#35237d"/>
      <rect id="Rectángulo_7092" data-name="Rectángulo 7092" width="15.14" height="6.07" transform="translate(51.83 31.22)" fill="#9182ca"/>
      <rect id="Rectángulo_7093" data-name="Rectángulo 7093" width="15.14" height="1.38" transform="translate(51.83 35.9)" fill="#35237d" opacity="0.35"/>
      <path id="Trazado_128703" data-name="Trazado 128703" d="M67,37.73H51.83a.45.45,0,0,1-.45-.45V31.22a.45.45,0,0,1,.45-.45H67a.45.45,0,0,1,.44.45v6.06a.45.45,0,0,1-.44.45Zm-14.7-.89H66.52V31.66H52.27Z" fill="#35237d"/>
      <rect id="Rectángulo_7094" data-name="Rectángulo 7094" width="15.14" height="6.07" transform="translate(51.83 47.05)" fill="#9182ca"/>
      <rect id="Rectángulo_7095" data-name="Rectángulo 7095" width="15.14" height="1.38" transform="translate(51.83 51.74)" fill="#35237d" opacity="0.35"/>
      <path id="Trazado_128704" data-name="Trazado 128704" d="M67,53.56H51.83a.45.45,0,0,1-.45-.44V47.05a.45.45,0,0,1,.45-.44H67a.44.44,0,0,1,.44.44v6.07a.44.44,0,0,1-.44.44Zm-14.7-.89H66.52V47.5H52.27Z" fill="#35237d"/>
      <rect id="Rectángulo_7096" data-name="Rectángulo 7096" width="15.14" height="6.07" transform="translate(51.83 62.89)" fill="#9182ca"/>
      <rect id="Rectángulo_7097" data-name="Rectángulo 7097" width="15.14" height="1.38" transform="translate(51.83 67.57)" fill="#35237d" opacity="0.35"/>
      <path id="Trazado_128705" data-name="Trazado 128705" d="M67,69.4H51.83a.45.45,0,0,1-.45-.45V62.89a.45.45,0,0,1,.45-.45H67a.45.45,0,0,1,.44.45V69a.45.45,0,0,1-.44.4Zm-14.7-.89H66.52V63.33H52.27Z" fill="#35237d"/>
      <path id="Trazado_128706" data-name="Trazado 128706" d="M74.11,80.51H69.66V25a8.17,8.17,0,0,1,8.17-8.17H95.19a2.21,2.21,0,0,1,2.22,2.22h0a2.22,2.22,0,0,1-2.22,2.23H77.83A3.73,3.73,0,0,0,74.11,25Z" fill="#472ea6"/>
      <path id="Trazado_128707" data-name="Trazado 128707" d="M74.11,81H69.66a.45.45,0,0,1-.45-.45V25a8.63,8.63,0,0,1,8.62-8.62H95.19a2.68,2.68,0,0,1,0,5.35H77.83A3.28,3.28,0,0,0,74.56,25V80.5a.45.45,0,0,1-.45.5Zm-4-.9h3.57V25a4.16,4.16,0,0,1,4.16-4.16H95.19a1.79,1.79,0,0,0,0-3.57H77.83A7.74,7.74,0,0,0,70.1,25Z" fill="#35237d"/>
      <path id="Trazado_128708" data-name="Trazado 128708" d="M77.83,16.84A8.18,8.18,0,0,0,69.66,25V80.5H67V25a8.17,8.17,0,0,1,8.17-8.17Z" fill="#9182ca"/>
      <path id="Trazado_128709" data-name="Trazado 128709" d="M69.66,81H67a.45.45,0,0,1-.45-.45V25a8.63,8.63,0,0,1,8.62-8.62h2.69a.45.45,0,1,1,0,.89A7.74,7.74,0,0,0,70.1,25V80.5a.45.45,0,0,1-.44.5Zm-2.25-.9h1.8V25a8.63,8.63,0,0,1,4.58-7.61A7.74,7.74,0,0,0,67.41,25Z" fill="#35237d"/>
    </g>
    <g id="Grupo_61476" data-name="Grupo 61476">
      <rect id="Rectángulo_7098" data-name="Rectángulo 7098" width="16.3" height="36.57" transform="translate(43.02 7.37)" fill="#f7af41"/>
      <rect id="Rectángulo_7099" data-name="Rectángulo 7099" width="3.92" height="12.84" transform="translate(53.13 20.22) rotate(180)" fill="#7f4813"/>
      <rect id="Rectángulo_7100" data-name="Rectángulo 7100" width="16.3" height="36.57" transform="translate(43.02 7.37)" fill="#35237d" opacity="0.35"/>
      <path id="Trazado_128710" data-name="Trazado 128710" d="M53.13,20.66H49.21a.45.45,0,0,1-.45-.45V7.37a.45.45,0,0,1,.45-.44h3.92a.45.45,0,0,1,.45.44V20.21A.45.45,0,0,1,53.13,20.66Zm-3.48-.89h3V7.82h-3Z" fill="#35237d"/>
      <path id="Trazado_128711" data-name="Trazado 128711" d="M59.32,44.39H43a.45.45,0,0,1-.45-.45V7.37A.45.45,0,0,1,43,6.93H59.3a.45.45,0,0,1,.45.44V43.94a.45.45,0,0,1-.43.45ZM43.46,43.5H58.88V7.82H43.46Z" fill="#35237d"/>
      <rect id="Rectángulo_7101" data-name="Rectángulo 7101" width="36.57" height="36.57" transform="translate(6.45 7.37)" fill="#f7af41"/>
      <path id="Trazado_128712" data-name="Trazado 128712" d="M7.43,8.35v15.9a1.71,1.71,0,0,1,1,1.72,1.71,1.71,0,0,1-1,1.72V43.94h-1V7.37H43v1Z" fill="#fff" opacity="0.7"/>
      <rect id="Rectángulo_7102" data-name="Rectángulo 7102" width="8.43" height="5.66" rx="2.33" transform="translate(9.64 10.56)" fill="#f4db95"/>
      <rect id="Rectángulo_7103" data-name="Rectángulo 7103" width="6.69" height="12.84" transform="translate(21.39 7.37)" fill="#7f4813"/>
      <path id="Trazado_128713" data-name="Trazado 128713" d="M28.08,7.37v1H24.39a.92.92,0,0,1-1,.69.94.94,0,0,1-1-.69h-1v-1Z" fill="#fff" opacity="0.7"/>
      <path id="Trazado_128714" data-name="Trazado 128714" d="M28.08,20.66H21.39a.45.45,0,0,1-.45-.45V7.37a.45.45,0,0,1,.45-.44h6.69a.45.45,0,0,1,.45.44V20.21A.45.45,0,0,1,28.08,20.66Zm-6.25-.89h5.8V7.82h-5.8Z" fill="#35237d"/>
      <path id="Trazado_128715" data-name="Trazado 128715" d="M43,44.39H6.45A.45.45,0,0,1,6,43.94V7.37a.45.45,0,0,1,.45-.44H43a.44.44,0,0,1,.44.44V43.94A.45.45,0,0,1,43,44.39ZM6.9,43.5H42.57V7.82H6.9Z" fill="#35237d"/>
    </g>
    <g id="Grupo_61477" data-name="Grupo 61477">
      <rect id="Rectángulo_7104" data-name="Rectángulo 7104" width="16.3" height="36.57" transform="translate(43.02 43.94)" fill="#f7af41"/>
      <rect id="Rectángulo_7105" data-name="Rectángulo 7105" width="3.92" height="12.84" transform="translate(53.13 56.78) rotate(180)" fill="#7f4813"/>
      <rect id="Rectángulo_7106" data-name="Rectángulo 7106" width="16.3" height="36.57" transform="translate(43.02 43.94)" fill="#35237d" opacity="0.35"/>
      <path id="Trazado_128716" data-name="Trazado 128716" d="M53.13,57.23H49.21a.45.45,0,0,1-.45-.45V43.94a.44.44,0,0,1,.45-.44h3.92a.44.44,0,0,1,.45.44V56.78A.45.45,0,0,1,53.13,57.23Zm-3.48-.89h3v-12h-3Z" fill="#35237d"/>
      <path id="Trazado_128717" data-name="Trazado 128717" d="M59.32,81H43a.45.45,0,0,1-.45-.45V43.94A.44.44,0,0,1,43,43.5H59.3a.44.44,0,0,1,.45.44V80.51a.45.45,0,0,1-.43.49Zm-15.86-.9H58.88V44.39H43.46Z" fill="#35237d"/>
      <rect id="Rectángulo_7107" data-name="Rectángulo 7107" width="36.57" height="36.57" transform="translate(6.45 43.94)" fill="#f7af41"/>
      <path id="Trazado_128718" data-name="Trazado 128718" d="M7.43,44.92v15.9a1.94,1.94,0,0,1,0,3.44V80.51h-1V43.94H43v1Z" fill="#fff" opacity="0.7"/>
      <rect id="Rectángulo_7108" data-name="Rectángulo 7108" width="8.43" height="5.66" rx="2.33" transform="translate(9.64 47.13)" fill="#f4db95"/>
      <rect id="Rectángulo_7109" data-name="Rectángulo 7109" width="6.69" height="12.84" transform="translate(21.39 43.94)" fill="#7f4813"/>
      <path id="Trazado_128719" data-name="Trazado 128719" d="M28.08,43.94v1H24.39a.92.92,0,0,1-1,.7.94.94,0,0,1-1-.7h-1v-1Z" fill="#fff" opacity="0.7"/>
      <path id="Trazado_128720" data-name="Trazado 128720" d="M28.08,57.23H21.39a.45.45,0,0,1-.45-.45V43.94a.44.44,0,0,1,.45-.44h6.69a.44.44,0,0,1,.45.44V56.78A.45.45,0,0,1,28.08,57.23Zm-6.25-.89h5.8v-12h-5.8Z" fill="#35237d"/>
      <path id="Trazado_128721" data-name="Trazado 128721" d="M43,81H6.45A.45.45,0,0,1,6,80.51V43.94a.44.44,0,0,1,.45-.44H43a.44.44,0,0,1,.44.44V80.51A.45.45,0,0,1,43,81ZM6.9,80.06H42.57V44.39H6.9Z" fill="#35237d"/>
    </g>
    <g id="Grupo_61478" data-name="Grupo 61478">
      <path id="Trazado_128722" data-name="Trazado 128722" d="M5.61,80.51H46.79v7.11H5.61a2.93,2.93,0,0,1-2.93-2.93V83.44a2.93,2.93,0,0,1,2.93-2.93Z" fill="#9182ca"/>
      <path id="Trazado_128723" data-name="Trazado 128723" d="M46.79,88.07H3.94a1.71,1.71,0,0,1-1.7-1.71V81.77a1.71,1.71,0,0,1,1.7-1.71H46.79a.45.45,0,0,1,.44.45v7.11a.45.45,0,0,1-.44.45ZM3.94,81a.81.81,0,0,0-.81.81V86.4a.82.82,0,0,0,.81.82h42.4V81Z" fill="#35237d"/>
    </g>
    <g id="Grupo_61479" data-name="Grupo 61479">
      <path id="Trazado_128724" data-name="Trazado 128724" d="M46.79,80.51H75.24a2.93,2.93,0,0,1,2.93,2.93V84.7a2.93,2.93,0,0,1-2.93,2.93H46.79Z" fill="#35237d"/>
      <path id="Trazado_128725" data-name="Trazado 128725" d="M76.91,88.07H46.79a.45.45,0,0,1-.45-.45V80.51a.45.45,0,0,1,.45-.45H76.91a1.72,1.72,0,0,1,1.71,1.71v4.59A1.72,1.72,0,0,1,76.91,88.07Zm-29.68-.89H76.91a.82.82,0,0,0,.82-.82V81.77a.82.82,0,0,0-.82-.81H47.23Z" fill="#35237d"/>
    </g>
    <g id="Grupo_61480" data-name="Grupo 61480">
      <circle id="Elipse_4210" data-name="Elipse 4210" cx="10.31" cy="10.31" r="10.31" transform="translate(53.75 73.76)" fill="#7e7e84"/>
      <circle id="Elipse_4211" data-name="Elipse 4211" cx="5.04" cy="5.04" r="5.04" transform="translate(59.02 79.03)" fill="#ccccdb"/>
      <circle id="Elipse_4212" data-name="Elipse 4212" cx="1.68" cy="1.68" r="1.68" transform="translate(62.38 82.39)" fill="#35237d"/>
      <circle id="Elipse_4213" data-name="Elipse 4213" cx="10.31" cy="10.31" r="10.31" transform="translate(53.75 73.76)" fill="#35237d" opacity="0.35"/>
      <path id="Trazado_128726" data-name="Trazado 128726" d="M64.06,94.82A10.76,10.76,0,1,1,74.82,84.07,10.76,10.76,0,0,1,64.06,94.82Zm0-20.62a9.87,9.87,0,1,0,9.87,9.87A9.87,9.87,0,0,0,64.06,74.2Z" fill="#35237d"/>
      <path id="Trazado_128727" data-name="Trazado 128727" d="M64.06,94.37H60.89a10.31,10.31,0,0,1,0-20.61h3.17a10.31,10.31,0,0,0,0,20.61Z" fill="#7e7e84"/>
      <path id="Trazado_128728" data-name="Trazado 128728" d="M64.06,94.82H60.89a10.76,10.76,0,0,1,0-21.51h3.17a.45.45,0,0,1,.45.45.44.44,0,0,1-.45.44,9.87,9.87,0,0,0,0,19.73.45.45,0,1,1,0,.89ZM59.59,74.29a9.86,9.86,0,0,0,0,19.55,10.75,10.75,0,0,1,0-19.55Z" fill="#35237d"/>
    </g>
  </g>
</svg>
