<svg id="CF6_mod_copia_4" data-name="CF6_mod copia 4" xmlns="http://www.w3.org/2000/svg" width="100" height="100" viewBox="0 0 100 100">
  <circle id="Elipse_4195" data-name="Elipse 4195" cx="50" cy="50" r="50" fill="#b5abdb"/>
  <g id="Grupo_61444" data-name="Grupo 61444">
    <g id="Grupo_61443" data-name="Grupo 61443">
      <path id="Trazado_128589" data-name="Trazado 128589" d="M98.49,47.11H68l-.01,25.92h30.5Z" fill="#edcc88" fill-rule="evenodd"/>
      <rect id="Rectángulo_7062" data-name="Rectángulo 7062" width="7.16" height="25.92" transform="translate(91.32 47.11)" fill="#d8b05c"/>
      <path id="Trazado_128590" data-name="Trazado 128590" d="M80,64.07a3.42,3.42,0,0,1,3.06,2.4,1.65,1.65,0,0,0-1.08-.4,1.61,1.61,0,0,0-1.06.39,1.71,1.71,0,0,0-.92-.38v3.75h0a.43.43,0,0,0,.12.31.42.42,0,0,0,.3.13h0a.43.43,0,0,0,.3-.13.48.48,0,0,0,.12-.31h.3a.77.77,0,0,1-.21.53.69.69,0,0,1-.51.22h0a.69.69,0,0,1-.51-.22.77.77,0,0,1-.21-.53h0V66.08a1.65,1.65,0,0,0-.91.38,1.66,1.66,0,0,0-2.15,0,3.42,3.42,0,0,1,3.06-2.4v-.52H80Z" fill="#59595b" fill-rule="evenodd"/>
      <path id="Trazado_128591" data-name="Trazado 128591" d="M84.4,69.82h5.11v.76H84.4Zm4.29-.28V65.33h.38L88.35,64l-.7,1.38H88v4.21Zm-2.8,0V65.33h.38L85.56,64l-.71,1.38h.37v4.21Z" fill="#59595b" fill-rule="evenodd"/>
      <path id="Trazado_128592" data-name="Trazado 128592" d="M75.14,64c-.26,2-1.25,3.49-2.46,3.64v2.37h1.18v.53H71.12v-.53H72.3V67.68C71.09,67.53,70.1,66,69.83,64h3.83l.31.72h-.34L74,66.06l-.12-1.13h.27v-.9Z" fill="#59595b" fill-rule="evenodd"/>
      <path id="Trazado_128593" data-name="Trazado 128593" d="M77.78,47.11h3.31v4.97l-.53.12-.58-.42-.84.51-.64-.49-.72.42Z" fill="#a5896b" fill-rule="evenodd"/>
      <path id="Trazado_128594" data-name="Trazado 128594" d="M94.06,47.11h1.69v4.97l-.27.12-.29-.42-.44.51-.32-.49-.37.42Z" fill="#a5896b" fill-rule="evenodd"/>
    </g>
    <path id="Trazado_128595" data-name="Trazado 128595" d="M48.62,51.87l-2.3,2.5.86,8.42a12.11,12.11,0,0,1,3.88-1.67c-.48-2-1-4.14-1.66-6.48C49.16,53.75,48.9,52.84,48.62,51.87Z" fill="#6e6f71" fill-rule="evenodd"/>
    <path id="Trazado_128596" data-name="Trazado 128596" d="M23.58,58H35.84a2.34,2.34,0,0,1,2.34,2.33v3h-6.8Z" fill="#6e6f71" fill-rule="evenodd"/>
    <path id="Trazado_128597" data-name="Trazado 128597" d="M16.05,53.84H6.37v1.27l9.5-.01.09-.61Z" fill="#dc662b" fill-rule="evenodd"/>
    <path id="Trazado_128598" data-name="Trazado 128598" d="M58.61,57.89h-.72A1.15,1.15,0,0,0,56.74,59V72.17a1.16,1.16,0,0,0,1.15,1.15h.72v3.83H63.9V30.06h.47v-1.3h-4.7v.56H58.61Z" fill="#6c58b8" fill-rule="evenodd"/>
    <path id="Trazado_128599" data-name="Trazado 128599" d="M53.06,60.82c-.49-2.1-1-4.27-1.72-6.72-1.08-3.91-2.47-8.48-4.46-14.54l-.18-.51a7.59,7.59,0,0,0-.53-1.12,8.82,8.82,0,0,0-.86-1.23,9.66,9.66,0,0,0-7.44-3.58l-19.14.16v2L16,54.49l-.09.61H16l14.11,9.58,3.44,5.47,8.17,2a12,12,0,0,1,1.12-4.35H38.18V63.33h-6.8L18,54.16l2.74-18.89,17.1-.14A7.67,7.67,0,0,1,43.76,38a7.16,7.16,0,0,1,.67,1c.09.16.18.33.25.49s.24.63.35.95c1.95,6,3.32,10.46,4.37,14.27.65,2.34,1.18,4.44,1.66,6.48a12.06,12.06,0,0,1,2-.37Z" fill="#808184" fill-rule="evenodd"/>
    <path id="Trazado_128600" data-name="Trazado 128600" d="M16,55.1H1.56v2.35c.45.19.68.27,1.13.45a1,1,0,0,1,.56,1v1.49a1,1,0,0,1-.61.93l-1.08.53v3.86H9.74l10,1,13.78,3.45-3.44-5.47Z" fill="#e67c25" fill-rule="evenodd"/>
    <path id="Trazado_128601" data-name="Trazado 128601" d="M25.57,77.15H1.51V65.71H9.74l10,1,22,5.49A12.2,12.2,0,0,1,60.87,63l-7,10-11,4.14H25.57Z" fill="#dc662b" fill-rule="evenodd"/>
    <path id="Trazado_128602" data-name="Trazado 128602" d="M18.13,66a19.65,19.65,0,0,0-10,0,4,4,0,0,0-2,1.42c-2.27,2.64-3,5.92-3.06,9.63a3.46,3.46,0,0,0,1,.11H23.71c0-3.18-.95-7.17-2.92-9.5A4.77,4.77,0,0,0,18.13,66Z" fill="#414243" fill-rule="evenodd"/>
    <path id="Trazado_128603" data-name="Trazado 128603" d="M13.39,83a8,8,0,1,1,8-8A8,8,0,0,1,13.39,83Z" fill="#6e6f71" fill-rule="evenodd"/>
    <path id="Trazado_128604" data-name="Trazado 128604" d="M13.39,79.59A4.59,4.59,0,1,1,18,75a4.59,4.59,0,0,1-4.61,4.59Z" fill="#d1d3d2" fill-rule="evenodd"/>
    <path id="Trazado_128605" data-name="Trazado 128605" d="M66.19,49H64.31V74a1.36,1.36,0,0,0,1.32.92H83.34l5.55-.8L89,73H66.19Z" fill="#e67c25" fill-rule="evenodd"/>
    <path id="Trazado_128606" data-name="Trazado 128606" d="M27.44,55.83c1.21-.87-1.4-4.3-.46-8.48.33-1.46.07-2.12-1-2.26a1.7,1.7,0,0,0-1.09.07c-2.92,1.18.49,8.15.18,12.79H36c1.93-2.26,1.22-2.82-.72-2.77C33.77,55.21,29.36,55.7,27.44,55.83Z" fill="#dc662b" fill-rule="evenodd"/>
    <path id="Trazado_128607" data-name="Trazado 128607" d="M53.88,73l7.76-7.65a10.89,10.89,0,0,0-18,11.48Z" fill="#414243" fill-rule="evenodd"/>
    <path id="Trazado_128608" data-name="Trazado 128608" d="M53.88,82.55A9.55,9.55,0,1,1,63.42,73a9.55,9.55,0,0,1-9.54,9.55Z" fill="#6e6f71" fill-rule="evenodd"/>
    <path id="Trazado_128609" data-name="Trazado 128609" d="M53.88,78.49A5.49,5.49,0,1,1,59.36,73a5.49,5.49,0,0,1-5.48,5.49Z" fill="#d1d3d2" fill-rule="evenodd"/>
  </g>
</svg>
