<svg xmlns="http://www.w3.org/2000/svg" width="100.41" height="100" viewBox="0 0 100.41 100">
  <g id="Grupo_124090" data-name="Grupo 124090" transform="translate(-749.795 -601.913)">
    <g id="CF6_mod" transform="translate(750.205 601.913)">
      <circle id="Elipse_4215" data-name="Elipse 4215" cx="50" cy="50" r="50" fill="#b5abdb"/>
      <g id="Grupo_61483" data-name="Grupo 61483">
        <path id="Trazado_128744" data-name="Trazado 128744" d="M29.97,19.59H23.62L18.07,30.27h7.72V26.4h4.18Z" fill="#e67c25" fill-rule="evenodd"/>
        <path id="Trazado_128745" data-name="Trazado 128745" d="M22.69,21.38l-1.45,2.79h8.73V21.38Z" fill="#414243" fill-rule="evenodd"/>
        <path id="Trazado_128746" data-name="Trazado 128746" d="M38.63,35.65H75.16V53.06H64.37v-.54H61.95v.54H58.1v-.54H55.69v.54H51.84v-.54H49.42v.54H38.63Z" fill="#e67c25" fill-rule="evenodd"/>
        <rect id="Rectángulo_7110" data-name="Rectángulo 7110" width="0.85" height="15.93" transform="translate(39.91 36.15)" fill="#dc662b"/>
        <rect id="Rectángulo_7111" data-name="Rectángulo 7111" width="0.85" height="15.93" transform="translate(41.56 36.15)" fill="#dc662b"/>
        <rect id="Rectángulo_7112" data-name="Rectángulo 7112" width="0.86" height="15.93" transform="translate(43.22 36.15)" fill="#dc662b"/>
        <rect id="Rectángulo_7113" data-name="Rectángulo 7113" width="0.85" height="15.93" transform="translate(44.87 36.15)" fill="#dc662b"/>
        <rect id="Rectángulo_7114" data-name="Rectángulo 7114" width="0.85" height="15.93" transform="translate(46.53 36.15)" fill="#dc662b"/>
        <rect id="Rectángulo_7115" data-name="Rectángulo 7115" width="0.86" height="15.93" transform="translate(48.19 36.15)" fill="#dc662b"/>
        <rect id="Rectángulo_7116" data-name="Rectángulo 7116" width="0.85" height="15.93" transform="translate(49.84 36.15)" fill="#dc662b"/>
        <rect id="Rectángulo_7117" data-name="Rectángulo 7117" width="0.86" height="15.93" transform="translate(51.5 36.15)" fill="#dc662b"/>
        <rect id="Rectángulo_7118" data-name="Rectángulo 7118" width="0.86" height="15.93" transform="translate(53.16 36.15)" fill="#dc662b"/>
        <rect id="Rectángulo_7119" data-name="Rectángulo 7119" width="0.86" height="15.93" transform="translate(54.81 36.15)" fill="#dc662b"/>
        <rect id="Rectángulo_7120" data-name="Rectángulo 7120" width="0.86" height="15.93" transform="translate(56.47 36.15)" fill="#dc662b"/>
        <rect id="Rectángulo_7121" data-name="Rectángulo 7121" width="0.86" height="15.93" transform="translate(58.12 36.15)" fill="#dc662b"/>
        <rect id="Rectángulo_7122" data-name="Rectángulo 7122" width="0.85" height="15.93" transform="translate(59.78 36.15)" fill="#dc662b"/>
        <rect id="Rectángulo_7123" data-name="Rectángulo 7123" width="0.86" height="15.93" transform="translate(61.44 36.15)" fill="#dc662b"/>
        <rect id="Rectángulo_7124" data-name="Rectángulo 7124" width="0.85" height="15.93" transform="translate(63.09 36.15)" fill="#dc662b"/>
        <rect id="Rectángulo_7125" data-name="Rectángulo 7125" width="0.85" height="15.93" transform="translate(64.75 36.15)" fill="#dc662b"/>
        <rect id="Rectángulo_7126" data-name="Rectángulo 7126" width="0.86" height="15.93" transform="translate(66.41 36.15)" fill="#dc662b"/>
        <rect id="Rectángulo_7127" data-name="Rectángulo 7127" width="0.86" height="15.93" transform="translate(68.06 36.15)" fill="#dc662b"/>
        <rect id="Rectángulo_7128" data-name="Rectángulo 7128" width="0.86" height="15.93" transform="translate(69.72 36.15)" fill="#dc662b"/>
        <rect id="Rectángulo_7129" data-name="Rectángulo 7129" width="0.85" height="15.93" transform="translate(71.38 36.15)" fill="#dc662b"/>
        <rect id="Rectángulo_7130" data-name="Rectángulo 7130" width="0.85" height="15.93" transform="translate(73.03 36.15)" fill="#dc662b"/>
        <path id="Trazado_128747" data-name="Trazado 128747" d="M61.86,50.22H100l-1.63,3.29C91.26,56.06,80.76,64.4,75.55,72.87H10.1l-10.51-17v-2.8H59.85a2,2,0,0,0,2-2Z" fill="#6c58b8" fill-rule="evenodd"/>
        <path id="Trazado_128748" data-name="Trazado 128748" d="M79.88,67.11a42.5,42.5,0,0,0-4.33,5.76H10.1L6.54,67.11Z" fill="#e67c25" fill-rule="evenodd"/>
        <path id="Trazado_128749" data-name="Trazado 128749" d="M83.64,53.94c.59,0,.92.6.74,1.34A1.66,1.66,0,0,1,83,56.63c-.59,0-.92-.6-.74-1.35a1.66,1.66,0,0,1,1.38-1.34Z" fill="#e67c25" fill-rule="evenodd"/>
        <rect id="Rectángulo_7131" data-name="Rectángulo 7131" width="16.88" height="22.82" transform="translate(8.91 30.27)" fill="#d8b05c"/>
        <path id="Trazado_128750" data-name="Trazado 128750" d="M36.47,53.09H18.2V35.38h7.59V26.4H36.47Z" fill="#d1d3d2" fill-rule="evenodd"/>
        <rect id="Rectángulo_7132" data-name="Rectángulo 7132" width="8.52" height="2.87" transform="translate(27.95 29.34)" fill="#a4c3d1"/>
        <rect id="Rectángulo_7133" data-name="Rectángulo 7133" width="1.14" height="1.6" transform="translate(21.31 37.74)" fill="#939597"/>
        <rect id="Rectángulo_7134" data-name="Rectángulo 7134" width="1.14" height="1.6" transform="translate(21.31 41.24)" fill="#939597"/>
        <rect id="Rectángulo_7135" data-name="Rectángulo 7135" width="1.14" height="1.6" transform="translate(21.31 44.74)" fill="#939597"/>
        <rect id="Rectángulo_7136" data-name="Rectángulo 7136" width="1.14" height="1.6" transform="translate(24.51 37.74)" fill="#939597"/>
        <rect id="Rectángulo_7137" data-name="Rectángulo 7137" width="1.14" height="1.6" transform="translate(24.51 41.24)" fill="#939597"/>
        <rect id="Rectángulo_7138" data-name="Rectángulo 7138" width="1.14" height="1.6" transform="translate(24.51 44.74)" fill="#939597"/>
        <rect id="Rectángulo_7139" data-name="Rectángulo 7139" width="1.14" height="1.6" transform="translate(27.7 37.74)" fill="#939597"/>
        <rect id="Rectángulo_7140" data-name="Rectángulo 7140" width="1.14" height="1.6" transform="translate(27.7 41.24)" fill="#939597"/>
        <rect id="Rectángulo_7141" data-name="Rectángulo 7141" width="1.14" height="1.6" transform="translate(27.7 44.74)" fill="#939597"/>
        <rect id="Rectángulo_7142" data-name="Rectángulo 7142" width="1.14" height="1.6" transform="translate(30.9 37.74)" fill="#939597"/>
        <rect id="Rectángulo_7143" data-name="Rectángulo 7143" width="1.14" height="1.6" transform="translate(30.9 41.24)" fill="#939597"/>
        <rect id="Rectángulo_7144" data-name="Rectángulo 7144" width="1.14" height="1.6" transform="translate(30.9 44.74)" fill="#939597"/>
        <path id="Trazado_128751" data-name="Trazado 128751" d="M20.41,60.74a1.84,1.84,0,1,0-1.84-1.84,1.84,1.84,0,0,0,1.84,1.84Z" fill="#a4c3d1" fill-rule="evenodd"/>
        <path id="Trazado_128752" data-name="Trazado 128752" d="M28.07,60.74a1.84,1.84,0,1,0-1.84-1.84,1.84,1.84,0,0,0,1.84,1.84Z" fill="#a4c3d1" fill-rule="evenodd"/>
        <path id="Trazado_128753" data-name="Trazado 128753" d="M35.73,60.74a1.84,1.84,0,1,0-1.84-1.84,1.84,1.84,0,0,0,1.84,1.84Z" fill="#a4c3d1" fill-rule="evenodd"/>
        <path id="Trazado_128754" data-name="Trazado 128754" d="M43.39,60.74a1.84,1.84,0,1,0-1.84-1.84,1.84,1.84,0,0,0,1.84,1.84Z" fill="#a4c3d1" fill-rule="evenodd"/>
        <path id="Trazado_128755" data-name="Trazado 128755" d="M51.05,60.74a1.84,1.84,0,1,0-1.84-1.84,1.84,1.84,0,0,0,1.84,1.84Z" fill="#a4c3d1" fill-rule="evenodd"/>
        <path id="Trazado_128756" data-name="Trazado 128756" d="M58.71,60.74a1.84,1.84,0,1,0-1.84-1.84,1.84,1.84,0,0,0,1.84,1.84Z" fill="#a4c3d1" fill-rule="evenodd"/>
        <path id="Trazado_128757" data-name="Trazado 128757" d="M66.38,60.74a1.84,1.84,0,1,0-1.308-.535A1.84,1.84,0,0,0,66.38,60.74Z" fill="#a4c3d1" fill-rule="evenodd"/>
      </g>
    </g>
  </g>
</svg>
