<svg id="CF6_mod_copia_6" data-name="CF6_mod copia 6" xmlns="http://www.w3.org/2000/svg" width="100" height="100" viewBox="0 0 100 100">
  <circle id="Elipse_4197" data-name="Elipse 4197" cx="50" cy="50" r="50" fill="#b5abdb"/>
  <g id="Grupo_61448" data-name="Grupo 61448">
    <path id="Trazado_128642" data-name="Trazado 128642" d="M45.79,19.15c-.25-1,.34-1,.88-.6.7.53,1.18,1.32,1.85,1.9,2,1.76,4.14-.81,2.56-2.28-1.12-1-2.17-1.9-2.18-3.31V13.69h2v.17a1.36,1.36,0,0,0,.15.75,6.16,6.16,0,0,0,2.27,2c3.28,2.25,1.67,6.8-2,7.45a4.34,4.34,0,0,1-4.43-1.72,4.94,4.94,0,0,1-.67-2C46.13,19.84,45.92,19.65,45.79,19.15Z" fill="#808184" fill-rule="evenodd"/>
    <path id="Trazado_128643" data-name="Trazado 128643" d="M51.67,11.26v2.43H48.02V11.26h3.65Z" fill="#6e6f71" fill-rule="evenodd"/>
    <path id="Trazado_128644" data-name="Trazado 128644" d="M55.52,3.15,49.87,0h0L44.23,3.15l3.06,8.11h5.17Z" fill="#e67c25" fill-rule="evenodd"/>
    <path id="Trazado_128645" data-name="Trazado 128645" d="M44.71,4.44,48.23.91,49.87,0h0l1.18.66L45.41,6.29Z" fill="#6e6f71" fill-rule="evenodd"/>
    <path id="Trazado_128646" data-name="Trazado 128646" d="M46.1,8.11l6.55-6.56,1.64.91-7.5,7.5Z" fill="#6e6f71" fill-rule="evenodd"/>
    <path id="Trazado_128647" data-name="Trazado 128647" d="M47.99,11.26l7.18-7.18-1.55,4.1-3.08,3.08H47.99Z" fill="#6e6f71" fill-rule="evenodd"/>
    <path id="Trazado_128648" data-name="Trazado 128648" d="M48,19.88a6.39,6.39,0,0,1,1-.32,3.25,3.25,0,0,1,1.92.1h0L93.3,37.74H89.36L50.28,21.09a1.76,1.76,0,0,0-.65-.08,2.29,2.29,0,0,1-1.11-.56,5.11,5.11,0,0,1-.52-.57Z" fill="#472ea6" fill-rule="evenodd"/>
    <path id="Trazado_128649" data-name="Trazado 128649" d="M6.24,37.74l40-17.06a4.87,4.87,0,0,0,.49,1.47L10.19,37.74Z" fill="#472ea6" fill-rule="evenodd"/>
    <path id="Trazado_128650" data-name="Trazado 128650" d="M4.49,37.74H95.94V81.33H68.92V79.97H62.87v1.36H53.24V79.97H47.19v1.36H37.56V79.97H31.51v1.36H4.49Z" fill="#e67c25" fill-rule="evenodd"/>
    <rect id="Rectángulo_7063" data-name="Rectángulo 7063" width="2.14" height="39.88" transform="translate(7.69 38.98)" fill="#dc662b"/>
    <rect id="Rectángulo_7064" data-name="Rectángulo 7064" width="2.14" height="39.88" transform="translate(11.83 38.98)" fill="#dc662b"/>
    <rect id="Rectángulo_7065" data-name="Rectángulo 7065" width="2.14" height="39.88" transform="translate(15.98 38.98)" fill="#dc662b"/>
    <rect id="Rectángulo_7066" data-name="Rectángulo 7066" width="2.14" height="39.88" transform="translate(20.12 38.98)" fill="#dc662b"/>
    <rect id="Rectángulo_7067" data-name="Rectángulo 7067" width="2.14" height="39.88" transform="translate(24.27 38.98)" fill="#dc662b"/>
    <rect id="Rectángulo_7068" data-name="Rectángulo 7068" width="2.14" height="39.88" transform="translate(28.41 38.98)" fill="#dc662b"/>
    <rect id="Rectángulo_7069" data-name="Rectángulo 7069" width="2.14" height="39.88" transform="translate(32.56 38.98)" fill="#dc662b"/>
    <rect id="Rectángulo_7070" data-name="Rectángulo 7070" width="2.14" height="39.88" transform="translate(36.71 38.98)" fill="#dc662b"/>
    <rect id="Rectángulo_7071" data-name="Rectángulo 7071" width="2.14" height="39.88" transform="translate(40.85 38.98)" fill="#dc662b"/>
    <rect id="Rectángulo_7072" data-name="Rectángulo 7072" width="2.14" height="39.88" transform="translate(45 38.98)" fill="#dc662b"/>
    <rect id="Rectángulo_7073" data-name="Rectángulo 7073" width="2.14" height="39.88" transform="translate(49.15 38.98)" fill="#dc662b"/>
    <rect id="Rectángulo_7074" data-name="Rectángulo 7074" width="2.14" height="39.88" transform="translate(53.29 38.98)" fill="#dc662b"/>
    <rect id="Rectángulo_7075" data-name="Rectángulo 7075" width="2.14" height="39.88" transform="translate(57.44 38.98)" fill="#dc662b"/>
    <rect id="Rectángulo_7076" data-name="Rectángulo 7076" width="2.14" height="39.88" transform="translate(61.58 38.98)" fill="#dc662b"/>
    <rect id="Rectángulo_7077" data-name="Rectángulo 7077" width="2.14" height="39.88" transform="translate(65.73 38.98)" fill="#dc662b"/>
    <rect id="Rectángulo_7078" data-name="Rectángulo 7078" width="2.14" height="39.88" transform="translate(69.88 38.98)" fill="#dc662b"/>
    <rect id="Rectángulo_7079" data-name="Rectángulo 7079" width="2.14" height="39.88" transform="translate(74.02 38.98)" fill="#dc662b"/>
    <rect id="Rectángulo_7080" data-name="Rectángulo 7080" width="2.14" height="39.88" transform="translate(78.17 38.98)" fill="#dc662b"/>
    <rect id="Rectángulo_7081" data-name="Rectángulo 7081" width="2.14" height="39.88" transform="translate(82.31 38.98)" fill="#dc662b"/>
    <rect id="Rectángulo_7082" data-name="Rectángulo 7082" width="2.14" height="39.88" transform="translate(86.46 38.98)" fill="#dc662b"/>
    <rect id="Rectángulo_7083" data-name="Rectángulo 7083" width="2.14" height="39.88" transform="translate(90.61 38.98)" fill="#dc662b"/>
  </g>
</svg>
