<svg id="CF6_mod_copia_2" data-name="CF6_mod copia 2" xmlns="http://www.w3.org/2000/svg" width="100" height="100" viewBox="0 0 100 100">
  <circle id="Elipse_4193" data-name="Elipse 4193" cx="50" cy="50" r="50" fill="#b5abdb"/>
  <g id="Grupo_61441" data-name="Grupo 61441">
    <path id="Trazado_128563" data-name="Trazado 128563" d="M41.06.15H90.99V100H88.11V3.03H43.94V100H41.06Z" fill="#bbbdbf" fill-rule="evenodd"/>
    <rect id="Rect치ngulo_7055" data-name="Rect치ngulo 7055" width="44.17" height="96.97" transform="translate(43.94 3.03)" fill="#58595b"/>
    <path id="Trazado_128564" data-name="Trazado 128564" d="M43.94,3,64.47,4.9,84.21,6.76V100H43.94Z" fill="#e6e7e8" fill-rule="evenodd"/>
    <path id="Trazado_128565" data-name="Trazado 128565" d="M77.86,69.17l.01,20.32-27.13-.28V68.34Z" fill="#d0d2d3" fill-rule="evenodd"/>
    <path id="Trazado_128566" data-name="Trazado 128566" d="M77.86,69.17l.01,20.32-1.36-.01V70.43Z" fill="#a6a8ab" fill-rule="evenodd"/>
    <path id="Trazado_128567" data-name="Trazado 128567" d="M77.85,41.43V61.6l-13.38-.5-13.74-.52V39.86l13.73.8Z" fill="#d0d2d3" fill-rule="evenodd"/>
    <path id="Trazado_128568" data-name="Trazado 128568" d="M77.85,41.43l.01,20.17-1.35-.05V42.92Z" fill="#a6a8ab" fill-rule="evenodd"/>
    <path id="Trazado_128569" data-name="Trazado 128569" d="M50.74,11.56l13.73,1.17,13.37,1.13v20L64.47,33l-13.73-.89Z" fill="#d0d2d3" fill-rule="evenodd"/>
    <path id="Trazado_128570" data-name="Trazado 128570" d="M77.84,13.86l.01,20.02-1.35-.09V15.07Z" fill="#a6a8ab" fill-rule="evenodd"/>
    <g id="Grupo_61440" data-name="Grupo 61440">
      <path id="Trazado_128571" data-name="Trazado 128571" d="M16.23,100h54.3l.03-46.17H16.23Z" fill="#edcc88" fill-rule="evenodd"/>
      <rect id="Rect치ngulo_7056" data-name="Rect치ngulo 7056" width="12.76" height="46.17" transform="translate(57.79 53.83)" fill="#d8b05c"/>
      <path id="Trazado_128572" data-name="Trazado 128572" d="M37.66,84a6.08,6.08,0,0,1,5.45,4.28,2.93,2.93,0,0,0-3.81,0,3,3,0,0,0-1.64-.68v6.68h0a.79.79,0,0,0,.22.56.72.72,0,0,0,.53.23h0a.74.74,0,0,0,.53-.23.84.84,0,0,0,.21-.56h.54a1.32,1.32,0,0,1-.38.95,1.22,1.22,0,0,1-.9.4h0a1.22,1.22,0,0,1-.91-.4,1.37,1.37,0,0,1-.37-.95h0V87.61a3.06,3.06,0,0,0-1.63.68,2.94,2.94,0,0,0-3.82,0A6.11,6.11,0,0,1,37.13,84v-.93h.53Z" fill="#59595b" fill-rule="evenodd"/>
      <path id="Trazado_128573" data-name="Trazado 128573" d="M45.46,94.28h9.11v1.36H45.46Zm7.65-.51V86.28h.66l-1.26-2.45-1.27,2.45h.67v7.49Zm-5,0V86.28h.66l-1.26-2.45-1.27,2.45h.66v7.49Z" fill="#59595b" fill-rule="evenodd"/>
      <path id="Trazado_128574" data-name="Trazado 128574" d="M29,84c-.48,3.54-2.24,6.23-4.39,6.49v4.22h2.1v1H21.8v-1h2.1V90.47c-2.15-.26-3.91-3-4.38-6.49h6.82l.55,1.29-.61-.07.62,2.38-.21-2h.49L27.07,84Z" fill="#59595b" fill-rule="evenodd"/>
      <path id="Trazado_128575" data-name="Trazado 128575" d="M33.66,53.83h5.9v8.85l-.93.21-1.03-.73-1.51.9-1.14-.88-1.29.76Z" fill="#a5896b" fill-rule="evenodd"/>
      <path id="Trazado_128576" data-name="Trazado 128576" d="M62.68,53.83h2.99v8.85l-.47.21-.53-.73-.76.9-.58-.88-.65.76Z" fill="#a5896b" fill-rule="evenodd"/>
    </g>
    <path id="Trazado_128577" data-name="Trazado 128577" d="M81.46,53.1a1.74,1.74,0,1,0-1.34-1.7,1.56,1.56,0,0,0,1.34,1.7Z" fill="#788084" fill-rule="evenodd"/>
    <path id="Trazado_128578" data-name="Trazado 128578" d="M83,53.82a2.56,2.56,0,1,0-2-2.5A2.29,2.29,0,0,0,83,53.82Z" fill="#fff" fill-rule="evenodd"/>
  </g>
</svg>
