<svg id="CF6_mod_copia_8" data-name="CF6_mod copia 8" xmlns="http://www.w3.org/2000/svg" width="100" height="100" viewBox="0 0 100 100">
  <circle id="Elipse_4203" data-name="Elipse 4203" cx="50" cy="50" r="50" fill="#b5abdb"/>
  <path id="Trazado_128678" data-name="Trazado 128678" d="M23.09,65.23,13.7,59.9,27.8,34.27l9.16,3.66Z" fill="#febc7c"/>
  <g id="Grupo_61472" data-name="Grupo 61472">
    <path id="Trazado_128679" data-name="Trazado 128679" d="M46.14,20.43l7.5-.08.48,9.81-8.11.06Z" fill="#fda551"/>
    <ellipse id="Elipse_4204" data-name="Elipse 4204" cx="6.61" cy="8.59" rx="6.61" ry="8.59" transform="translate(41.52 6.198) rotate(-8.049)" fill="#febc7c"/>
    <path id="Trazado_128680" data-name="Trazado 128680" d="M56.59,14.61c-.13.76-.55,1.32-.93,1.26s-.6-.74-.47-1.5.55-1.32.93-1.26S56.72,13.85,56.59,14.61Z" fill="#ffa55b"/>
    <path id="Trazado_128681" data-name="Trazado 128681" d="M43.45,14c0,.77-.25,1.41-.64,1.43s-.74-.59-.78-1.36.25-1.41.64-1.43S43.41,13.22,43.45,14Z" fill="#ffa55b"/>
    <path id="Trazado_128682" data-name="Trazado 128682" d="M56.28,13.27c-.25,1-.4,1.71-.65,2.71a16.23,16.23,0,0,0-1-3.88c-.55-1.42-.55-1.82-1.72-2.8-.56,1.15-2.61,1.13-3.87,1.35-1.51.26-3.18-.32-4.53.42-1.2.66-1.25,3.25-1.6,4.58a13.81,13.81,0,0,1,.29-7,5.23,5.23,0,0,1,1.33-2.43A6.16,6.16,0,0,1,48.26,5c1.48-.14,3.09-.26,4.35.55a8.68,8.68,0,0,0,1.62,1.09c.64.23,1.4.12,2,.5a2.44,2.44,0,0,1,.73,2.13,15.79,15.79,0,0,1-.87,4.86Z" fill="#105767"/>
    <g id="Grupo_61471" data-name="Grupo 61471">
      <path id="Trazado_128683" data-name="Trazado 128683" d="M42.32,11.56s.85,2.24,6.08,2.37c1.05,0,8.73-.08,8.48-3.13S42.32,11.56,42.32,11.56Z" fill="#6fb4dc"/>
      <path id="Trazado_128684" data-name="Trazado 128684" d="M57.05,9.25l-.13,1.87c-.59,1.05-10.15,1.67-14.6.44a10.14,10.14,0,0,1,.68-2Z" fill="#003d8c"/>
      <path id="Trazado_128685" data-name="Trazado 128685" d="M57.63,7.38a5.76,5.76,0,0,1,0,1.1c0,.36-.06,1.12-.54,1.14-2.18.09-13.52.62-14.89,0-.91-.4-1-1.71-1-2.59a3,3,0,0,1,.33-1.33A2.67,2.67,0,0,1,43,4.59a8.87,8.87,0,0,1,2.23-.41A20.487,20.487,0,0,1,47.61,4a41.23,41.23,0,0,1,5.88.09,7.26,7.26,0,0,1,2,.36,3.43,3.43,0,0,1,2,2.37A5.43,5.43,0,0,1,57.63,7.38Z" fill="#35237d"/>
      <path id="Trazado_128686" data-name="Trazado 128686" d="M50.88,7.81c0,.83-.41,1.51-1,1.54s-1.1-.61-1.14-1.43.41-1.51,1-1.54S50.84,7,50.88,7.81Z" fill="#fac651"/>
    </g>
  </g>
  <path id="Trazado_128687" data-name="Trazado 128687" d="M76.33,64.28l9.4-5.32L71.62,33.32l-9.16,3.66Z" fill="#febc7c"/>
  <path id="Trazado_128688" data-name="Trazado 128688" d="M18.36,48.05l12,7.58,1.36-2.74c.16,1.21-.08,26,.78,30.37-.45,2,38.8,4.36,39.58,1.08.15-.67-1.85-28-1.79-28.81l.5,1L82.2,50.49C82,50.48,76,38,75.39,36.93a21.85,21.85,0,0,0-8.46-8.49c-3.76-2-7.85-1.7-11.87-2.67-.26-.06-1.1.16-1.2-.17.16.53-.14.68-.38,1.15a3.47,3.47,0,0,1-.34.54,4.93,4.93,0,0,1-3,1.87,4,4,0,0,1-4.09-3.47c-1.68.21-14.15,2.95-17.09,6.94C27.74,33.54,17.62,47.53,18.36,48.05Z" fill="#9182ca"/>
  <g id="Grupo_61473" data-name="Grupo 61473">
    <rect id="Rectángulo_7086" data-name="Rectángulo 7086" width="48.63" height="36.47" transform="translate(27.03 61.53)" fill="#fda551"/>
    <rect id="Rectángulo_7087" data-name="Rectángulo 7087" width="48.63" height="4.6" transform="translate(27.03 78.34)" fill="#f6eae5"/>
    <rect id="Rectángulo_7088" data-name="Rectángulo 7088" width="4.4" height="36.47" transform="translate(49.25 61.53)" fill="#f6eae5"/>
    <rect id="Rectángulo_7089" data-name="Rectángulo 7089" width="10.01" height="5" transform="translate(62.45 91.04)" fill="#f6eae5" opacity="0.5"/>
  </g>
  <path id="Trazado_128689" data-name="Trazado 128689" d="M85.65,58.79l-8.38.27s-.35.84-.71,2L76.28,60c-9.33,1.4-14.64,2.43-22.67,3.24l-1.93-.19s-1.67-.42-3.5-.72-3.44-.74-3.72,0,3.23,1.28,3.23,1.28A35.679,35.679,0,0,0,41.41,65a.41.41,0,0,0,.1.77,24.641,24.641,0,0,0,4.9.15,33.841,33.841,0,0,0-5.54.68.39.39,0,0,0,0,.76,44.77,44.77,0,0,0,5.92.3l-4.9.65c-.54.07-.65.47-.13.66,1.85.69,4.75.25,5.84.05-.83.17-2.63.56-3.87.93-.48.15-.47.57,0,.67,2.1.45,6.19-.57,8.74-2.22h.31c9.62,1.29,16.81.5,24.86,1a3.77,3.77,0,0,0,1.09.07C89.42,68.64,85.65,58.79,85.65,58.79Z" fill="#febc7c"/>
  <path id="Trazado_128690" data-name="Trazado 128690" d="M15.2,57.67l7.74,3.24s0,.9-.07,2.15l.65-.88c8.22,4.62,12.81,7.48,20,11.09l1.87.51s1.71.2,3.53.57,3.47.53,3.46,1.35-3.48,0-3.48,0a36,36,0,0,1,5.4,3.49.41.41,0,0,1-.37.68,24.57,24.57,0,0,1-4.63-1.61,33.47,33.47,0,0,1,4.94,2.61.39.39,0,0,1-.31.7,45.391,45.391,0,0,1-5.64-1.83l4.35,2.35c.48.26.43.67-.11.67-2,0-4.53-1.46-5.48-2,.71.46,2.26,1.46,3.28,2.25.41.31.24.7-.26.62-2.12-.33-5.58-2.74-7.38-5.19l-.28-.14C33,76.09,26.55,72.8,18.86,70.37a4.07,4.07,0,0,1-1-.32C8.17,65.54,15.2,57.67,15.2,57.67Z" fill="#febc7c"/>
  <path id="Trazado_128691" data-name="Trazado 128691" d="M46.09,25.69s-5.78,0-6.51,1.57.76,10,.76,10l9.84-8.1A7.34,7.34,0,0,1,46.09,25.69Z" fill="#f6eae5"/>
  <path id="Trazado_128692" data-name="Trazado 128692" d="M53.89,25.55s6.16.11,6.9,1.71-.76,10-.76,10l-9.85-8.1A8,8,0,0,0,53.89,25.55Z" fill="#f6eae5"/>
  <path id="Trazado_128693" data-name="Trazado 128693" d="M51.12,32.91a.94.94,0,1,1-.94-.93.94.94,0,0,1,.94.93Z" fill="#f6eae5"/>
  <path id="Trazado_128694" data-name="Trazado 128694" d="M51.12,42.51a.94.94,0,1,1-.94-.93.94.94,0,0,1,.94.93Z" fill="#f6eae5"/>
  <path id="Trazado_128695" data-name="Trazado 128695" d="M51.12,52.12a.94.94,0,1,1-.94-.93.94.94,0,0,1,.94.93Z" fill="#f6eae5"/>
  <rect id="Rectángulo_7090" data-name="Rectángulo 7090" width="8.41" height="4.2" transform="translate(55.81 41.11)" fill="#f6eae5"/>
  <rect id="Rectángulo_7091" data-name="Rectángulo 7091" width="4.88" height="0.8" transform="translate(57.57 40.68)" fill="#6fb4dc"/>
</svg>
