<svg xmlns="http://www.w3.org/2000/svg" width="99.979" height="100.007" viewBox="0 0 99.979 100.007">
  <g id="Grupo_124108" data-name="Grupo 124108" transform="translate(-216.404 -1207)">
    <g id="CF6-41" transform="translate(216.383 1207.007)">
      <g id="Grupo_61808" data-name="Grupo 61808">
        <path id="Trazado_130165" data-name="Trazado 130165" d="M100,50A49.84,49.84,0,0,1,85.42,85.29l-9,3.13a80.52,80.52,0,0,1-52.76,0l-9-3.12A50,50,0,0,1,6.55,25.25V25.2a50,50,0,0,1,86.84,0v.05A49.74,49.74,0,0,1,100,50Z" fill="#f57fa3"/>
        <path id="Trazado_130166" data-name="Trazado 130166" d="M100,50A49.84,49.84,0,0,1,85.42,85.29l-9,3.13a80.52,80.52,0,0,1-52.76,0l-9-3.12A50,50,0,0,1,6.55,25.25V25.2A50.15,50.15,0,0,0,28,45.32a33.869,33.869,0,0,0,3.13,1.4c.87.35,1.74.68,2.63,1h0A49.52,49.52,0,0,0,49.5,50.39h1a49.72,49.72,0,0,0,12.4-1.68,49.28,49.28,0,0,0,5.94-2c1.06-.43,2.11-.9,3.13-1.4a49.79,49.79,0,0,0,9.57-6.13,50.1,50.1,0,0,0,11.88-14v.05A49.74,49.74,0,0,1,100,50Z" fill="#f25585"/>
      </g>
      <g id="Grupo_61810" data-name="Grupo 61810">
        <path id="Trazado_130167" data-name="Trazado 130167" d="M61.8,83.79a62.651,62.651,0,0,1-3.19,8,20.861,20.861,0,0,0-3.72,1.47L42.75,99.48h0a49.7,49.7,0,0,1-18.08-6.36c-.87-.52-1.73-1.06-2.56-1.62a15.17,15.17,0,0,0-5.56-11.4l-6.32-5.17h0a41.51,41.51,0,0,1,.59-23.25l23-4L61.17,43c.67,1.89,1.25,3.81,1.73,5.74.19.72.35,1.45.51,2.18a64.16,64.16,0,0,1-1.61,32.9Z" fill="#9182ca"/>
        <path id="Trazado_130168" data-name="Trazado 130168" d="M58.61,91.84a20.86,20.86,0,0,0-3.72,1.47L42.75,99.48A49.752,49.752,0,0,1,37,98.28c-6.06-7.41-10-19.86-10-34a69.6,69.6,0,0,1,1.75-15.73l5.11-.89L61.17,43c.67,1.89,1.25,3.81,1.73,5.74a64,64,0,0,1-4.29,43.13Z" fill="#6c58b8"/>
        <path id="Trazado_130169" data-name="Trazado 130169" d="M91.15,64.31a40.89,40.89,0,0,1-2.87,15.13,35.906,35.906,0,0,1-1.61,3.58c-.39.77-.81,1.53-1.25,2.27A50.779,50.779,0,0,1,78.62,91H64.53a21.263,21.263,0,0,0-9.642,2.311L50,95.8V44.9L61.41,40a20,20,0,0,1,9.09-1.55l11,.7,1.1.07h0a41,41,0,0,1,8.51,25.06Z" fill="#472ea6"/>
        <path id="Trazado_130170" data-name="Trazado 130170" d="M50,23.16l-2.54,8.41a65.18,65.18,0,0,1-16.2,27.12L26.94,63h0a4.78,4.78,0,0,1-1.05-.84c-2-2-2.35-5.31-4.87-7.12-2.15-1.57-6.74-2.7-9.43-3.25a7.208,7.208,0,0,1-.77-.12A41.18,41.18,0,0,1,50,23.16Z" fill="#ffe9d3"/>
        <path id="Trazado_130171" data-name="Trazado 130171" d="M51.77,52.29,50,71.14l-.22-.35c-1.32-2.2-1-4.74-2.47-6.73A10,10,0,0,0,40,60.53c-2.12,0-4.06,1.09-6,1.95-2.24,1-4.92,1.78-7,.55.38-22.11,10.54-39.83,23-39.87h0l1.8,20a50.51,50.51,0,0,1,0,9.12Z" fill="#fed2a8"/>
        <path id="Trazado_130172" data-name="Trazado 130172" d="M51.74,95.47a1.62,1.62,0,0,1,.11,2.1L50,100h0a50.75,50.75,0,0,1-7.232-.519,11.18,11.18,0,0,1,4.322-4A29.2,29.2,0,0,0,50,93.72l1.74,1.77Z" fill="#9182ca"/>
        <path id="Trazado_130173" data-name="Trazado 130173" d="M44.44,95.47l-1.72-3.93,1.43-.63,1.72,3.94ZM42,89.93,40.3,86l1.43-.63,1.72,3.94Zm-2.4-5.55-1.72-3.94,1.43-.63L41,83.75Zm-2.43-5.55-1.72-3.94,1.44-.63,1.72,3.94Zm-2.42-5.55L33,69.34l1.43-.62,1.72,3.93Zm-2.42-5.55-1.72-3.94L32,63.17l1.72,3.93Zm-2.42-5.55-1.72-3.94,1.43-.62,1.72,3.94Z" fill="#12263f"/>
        <path id="Trazado_130174" data-name="Trazado 130174" d="M81.56,66.34l3.77,6c.77,1.24,1.58,2.64,1.28,4.06a3.91,3.91,0,0,1-3.13,2.75A11.58,11.58,0,0,1,79.1,79c-2.59-.5-18.1-5.28-10.89-8.74,2.6-1.25,5.58,1.07,8.12-.36,2.06-1.16,2.51-7.91,5.23-3.56Z" fill="#febc7c"/>
        <path id="Trazado_130175" data-name="Trazado 130175" d="M30.69,86.63v.13c-.23.25-.48.48-.73.71-1.86,1.73-3.14,4-5.15,5.57l-.11.08a50.24,50.24,0,0,1-10.06-7.81,41.14,41.14,0,0,1-4.38-10.38,9.61,9.61,0,0,1,2.6-1.69c2-.81,4.53-.57,5.79,1.13,1.14,1.54.93,3.75,2,5.33s3,2,4.77,2.29a31.729,31.729,0,0,1,3.9.5,4.32,4.32,0,0,1,1.39,4.14Z" fill="#ffe9d3"/>
        <g id="Grupo_61809" data-name="Grupo 61809">
          <path id="Trazado_130176" data-name="Trazado 130176" d="M78.62,91a49.81,49.81,0,0,1-24.55,8.84c-1.34.11-2.7.16-4.07.16h0V93.69a8.38,8.38,0,0,0,2.74-2.88,14.48,14.48,0,0,0,1.15-5A8.24,8.24,0,0,1,55.66,81c1.19-1.26,3.42-1.66,4.61-.4,1,1,.94,2.85,2,3.78s3,.46,4.57.27a8.94,8.94,0,0,1,7.41,2.77c.8.85,1.23,1.9,2.19,2.54a12.7,12.7,0,0,0,2.13,1Z" fill="#febc7c"/>
          <path id="Trazado_130177" data-name="Trazado 130177" d="M82.27,38.77A41.1,41.1,0,0,0,50,23.16v48a4.79,4.79,0,0,0,4.58,2.23c3-.56,4-4.57,2.93-7.42S54.23,60.86,53,58.11s-1.13-6.69,1.58-8c3.23-1.6,7.17,1.73,10.59.57,3.75-1.28,4.1-6.77,7.37-9,2.82-1.94,6.83-.78,9.92-2.27l.23-.11c-.13-.16-.25-.32-.37-.49Z" fill="#febc7c"/>
        </g>
      </g>
      <path id="Trazado_130178" data-name="Trazado 130178" d="M31.29,85.94a5.349,5.349,0,0,1-.44.62l-.19.2a40.165,40.165,0,0,1-1.36-4.27A3,3,0,0,1,31.56,84a2.37,2.37,0,0,1-.27,2Z" fill="#9182ca"/>
      <g id="Grupo_61811" data-name="Grupo 61811">
        <path id="Trazado_130179" data-name="Trazado 130179" d="M27.61,54.43l-.1.2-5.24-5.25a7.42,7.42,0,0,1,5.24-12.66,19.91,19.91,0,0,1,.1,17.71Z" fill="#ff3ea8"/>
        <path id="Trazado_130180" data-name="Trazado 130180" d="M32.75,49.38l-5.24,5.24V36.72a7.42,7.42,0,0,1,5.24,12.66Z" fill="#ff0074"/>
        <path id="Trazado_130181" data-name="Trazado 130181" d="M27.51,48.27a4.13,4.13,0,0,1,0-8.26l.19.29a7.22,7.22,0,0,1-.19,7.97Z" fill="#fff"/>
        <path id="Trazado_130182" data-name="Trazado 130182" d="M30.43,47.06a4.09,4.09,0,0,1-2.92,1.21V40a4.14,4.14,0,0,1,2.92,7.06Z" fill="#d1f6ff"/>
      </g>
      <g id="Grupo_61813" data-name="Grupo 61813">
        <g id="Grupo_61812" data-name="Grupo 61812">
          <path id="Trazado_130183" data-name="Trazado 130183" d="M30.21,52.63l2-.86.62,1.44-2,.85Z" fill="#12263f"/>
          <path id="Trazado_130184" data-name="Trazado 130184" d="M34.22,52.57l-.63-1.43,3.56-1.54.62,1.4Zm5-2.17L38.6,49l3.55-1.54.63,1.43Zm5-2.17L43.6,46.8l3.55-1.54.62,1.43Zm5-2.17-.62-1.43,3.55-1.54.62,1.43Zm5-2.17-.62-1.43,3.56-1.54.62,1.44Z" fill="#12263f"/>
          <path id="Trazado_130185" data-name="Trazado 130185" d="M58.67,40.28l2-.86.62,1.43-2,.86Z" fill="#12263f"/>
        </g>
        <path id="Trazado_130186" data-name="Trazado 130186" d="M77.74,74.31l-1.33-.5L77,72.35l1.33.5Zm-3-1.11-4-1.51.55-1.47,4,1.51ZM69.1,71.07l-4-1.51.54-1.46,4,1.51Zm-5.67-2.13-4-1.51L60,66l4,1.51Zm-5.67-2.13-4-1.51.55-1.46,4,1.51Zm-5.67-2.12-4-1.51.55-1.47,4,1.51Zm-5.67-2.13-4-1.51L43,59.58l4,1.51Zm-5.66-2.13-4-1.51.55-1.46,4,1.51ZM35.09,58.3l-4-1.51.55-1.46,4,1.51Z" fill="#12263f"/>
      </g>
      <g id="Grupo_61814" data-name="Grupo 61814">
        <path id="Trazado_130187" data-name="Trazado 130187" d="M62.14,23.16V33.8l-.33.46.33.56v4.46H70.2l2.16-11.55-3.81-4.57Z" fill="#fd8f25"/>
        <path id="Trazado_130188" data-name="Trazado 130188" d="M78.27,23.16H71.86L70.2,27.85V39.28h8.07Z" fill="#be6b1c"/>
        <path id="Trazado_130189" data-name="Trazado 130189" d="M68.55,23.16v5.75l1.65-1.06.71-2.47-.71-2.22Z" fill="#f7e46f"/>
        <path id="Trazado_130190" data-name="Trazado 130190" d="M71.86,23.16H70.2v4.69l1.66,1.06Z" fill="#f5db48"/>
        <path id="Trazado_130191" data-name="Trazado 130191" d="M66.72,38.71v-.58H70.2l.85-1.76-.85-1.55H62.14L61,38.4,62.14,42H70.2l.85-1.59-.85-1.69Z" fill="#ffbda9"/>
        <path id="Trazado_130192" data-name="Trazado 130192" d="M77.06,42l4.72-6.2a2,2,0,0,0,0-2.32,1,1,0,0,0-1.76,0l-4,5.25H70.2V42Z" fill="#f9a58d"/>
        <path id="Trazado_130193" data-name="Trazado 130193" d="M73.25,38.13a1.26,1.26,0,0,0,1.26-1.26v-.79a1.27,1.27,0,0,0-1.26-1.26h-3v3.31Z" fill="#f9a58d"/>
        <path id="Trazado_130194" data-name="Trazado 130194" d="M57.15,33.8h5V43h-5Z" fill="#12263f"/>
      </g>
      <g id="Grupo_61815" data-name="Grupo 61815">
        <path id="Trazado_130195" data-name="Trazado 130195" d="M79.17,59.66V70.3l-.34.46.34.56v4.46h8.06l2.15-11.55-3.81-4.57Z" fill="#fd8f25"/>
        <path id="Trazado_130196" data-name="Trazado 130196" d="M95.29,59.66H88.88l-1.65,4.69V75.78h8.06Z" fill="#be6b1c"/>
        <path id="Trazado_130197" data-name="Trazado 130197" d="M85.57,59.66v5.75l1.66-1.06.71-2.47-.71-2.22Z" fill="#f7e46f"/>
        <path id="Trazado_130198" data-name="Trazado 130198" d="M88.88,59.66H87.23v4.69l1.65,1.06Z" fill="#f5db48"/>
        <path id="Trazado_130199" data-name="Trazado 130199" d="M83.74,75.21v-.58h3.49l.85-1.76-.85-1.55H79.17L78,74.9l1.18,3.59h8.06l.85-1.59-.85-1.69Z" fill="#ffbda9"/>
        <path id="Trazado_130200" data-name="Trazado 130200" d="M94.08,78.48l4.72-6.2a2,2,0,0,0,0-2.32A1,1,0,0,0,97,70l-4,5.25H87.23v3.28h6.85Z" fill="#f9a58d"/>
        <path id="Trazado_130201" data-name="Trazado 130201" d="M90.28,74.63a1.25,1.25,0,0,0,1.25-1.26v-.79a1.26,1.26,0,0,0-1.25-1.26h-3v3.31Z" fill="#f9a58d"/>
        <path id="Trazado_130202" data-name="Trazado 130202" d="M74.18,70.3h5v9.2h-5Z" fill="#12263f"/>
      </g>
      <g id="Grupo_61816" data-name="Grupo 61816">
        <path id="Trazado_130203" data-name="Trazado 130203" d="M48.2,80V90.65l-.33.45.33.57v4.46h8.07l2.15-11.55L54.61,80Z" fill="#fd8f25"/>
        <path id="Trazado_130204" data-name="Trazado 130204" d="M64.33,80H57.92l-1.65,4.7V96.13h8.06Z" fill="#be6b1c"/>
        <path id="Trazado_130205" data-name="Trazado 130205" d="M54.61,80v5.76l1.66-1.06L57,82.22,56.27,80Z" fill="#f7e46f"/>
        <path id="Trazado_130206" data-name="Trazado 130206" d="M57.92,80H56.27v4.7l1.65,1.06Z" fill="#f5db48"/>
        <path id="Trazado_130207" data-name="Trazado 130207" d="M52.78,95.56V95h3.49l.85-1.76-.85-1.54H48.2L47,95.25l1.18,3.58h8.07l.85-1.59-.85-1.68Z" fill="#ffbda9"/>
        <path id="Trazado_130208" data-name="Trazado 130208" d="M63.12,98.83l4.72-6.21a2,2,0,0,0,0-2.31,1,1,0,0,0-1.76,0l-4,5.25H56.27v3.27Z" fill="#f9a58d"/>
        <path id="Trazado_130209" data-name="Trazado 130209" d="M59.31,95a1.25,1.25,0,0,0,1.26-1.25v-.8a1.25,1.25,0,0,0-1.26-1.25h-3V95Z" fill="#f9a58d"/>
        <path id="Trazado_130210" data-name="Trazado 130210" d="M43.21,90.65h5v9.2h-5Z" fill="#12263f"/>
      </g>
    </g>
  </g>
</svg>
