<svg xmlns="http://www.w3.org/2000/svg" width="491" height="73" viewBox="0 0 491 73">
  <g id="Grupo_124045" data-name="Grupo 124045" transform="translate(-824 -1084)">
    <rect id="Rectángulo_6610" data-name="Rectángulo 6610" width="491" height="52" rx="26" transform="translate(824 1097)" fill="#7f43bb"/>
    <path id="Trazado_227821" data-name="Trazado 227821" d="M3.359,12.992V17H1.016V5.625H5.453a5.134,5.134,0,0,1,2.254.469A3.454,3.454,0,0,1,9.2,7.426a3.714,3.714,0,0,1,.523,1.965,3.266,3.266,0,0,1-1.145,2.637,4.767,4.767,0,0,1-3.168.965Zm0-1.9H5.453a2.059,2.059,0,0,0,1.418-.437,1.591,1.591,0,0,0,.488-1.25,1.876,1.876,0,0,0-.492-1.352,1.839,1.839,0,0,0-1.359-.531H3.359Zm12.578-.43a6.134,6.134,0,0,0-.812-.062,1.654,1.654,0,0,0-1.68.867V17H11.188V8.547H13.32l.063,1.008a2.092,2.092,0,0,1,1.883-1.164,2.366,2.366,0,0,1,.7.1Zm.453,2.031a5.013,5.013,0,0,1,.484-2.242A3.546,3.546,0,0,1,18.27,8.93a4.069,4.069,0,0,1,2.113-.539,3.849,3.849,0,0,1,2.793,1.047,4.2,4.2,0,0,1,1.207,2.844l.016.578a4.418,4.418,0,0,1-1.086,3.121A3.775,3.775,0,0,1,20.4,17.156a3.793,3.793,0,0,1-2.918-1.172,4.5,4.5,0,0,1-1.09-3.187Zm2.258.16A3.16,3.16,0,0,0,19.1,14.7a1.628,1.628,0,0,0,2.578.008,3.457,3.457,0,0,0,.461-2.015,3.128,3.128,0,0,0-.461-1.831,1.5,1.5,0,0,0-1.3-.649,1.474,1.474,0,0,0-1.281.646A3.516,3.516,0,0,0,18.648,12.856Zm6.789-.145a5.094,5.094,0,0,1,.887-3.148A2.877,2.877,0,0,1,28.75,8.391a2.589,2.589,0,0,1,2.039.922V5h2.266V17H31.016l-.109-.9a2.657,2.657,0,0,1-2.172,1.055A2.869,2.869,0,0,1,26.34,15.98,5.258,5.258,0,0,1,25.438,12.711Zm2.258.168a3.337,3.337,0,0,0,.414,1.823,1.349,1.349,0,0,0,1.2.634,1.511,1.511,0,0,0,1.477-.884V11.111a1.489,1.489,0,0,0-1.461-.884Q27.7,10.227,27.7,12.879Zm12.172,3.262a2.831,2.831,0,0,1-2.312,1.016,2.67,2.67,0,0,1-2.074-.781,3.335,3.335,0,0,1-.73-2.289V8.547h2.258v5.467q0,1.322,1.2,1.322a1.63,1.63,0,0,0,1.578-.8V8.547h2.266V17H39.93Zm7.406-.8a1.481,1.481,0,0,0,1.016-.344,1.2,1.2,0,0,0,.406-.914h2.117a2.9,2.9,0,0,1-.469,1.574,3.093,3.093,0,0,1-1.262,1.109,3.949,3.949,0,0,1-1.77.395A3.67,3.67,0,0,1,44.453,16a4.56,4.56,0,0,1-1.047-3.184v-.148a4.508,4.508,0,0,1,1.039-3.117A3.627,3.627,0,0,1,47.3,8.391a3.555,3.555,0,0,1,2.543.9,3.2,3.2,0,0,1,.973,2.4H48.7a1.551,1.551,0,0,0-.406-1.072,1.51,1.51,0,0,0-2.223.163,3.333,3.333,0,0,0-.4,1.866v.235a3.375,3.375,0,0,0,.4,1.878A1.377,1.377,0,0,0,47.273,15.336ZM54.8,6.469V8.547H56.25V10.2H54.8v4.219a1.007,1.007,0,0,0,.18.672.9.9,0,0,0,.688.2,3.6,3.6,0,0,0,.664-.055v1.711a4.648,4.648,0,0,1-1.367.2,2.156,2.156,0,0,1-2.422-2.4V10.2H51.313V8.547h1.234V6.469ZM56.922,12.7a5.013,5.013,0,0,1,.484-2.242A3.546,3.546,0,0,1,58.8,8.93a4.069,4.069,0,0,1,2.113-.539,3.849,3.849,0,0,1,2.793,1.047,4.2,4.2,0,0,1,1.207,2.844l.016.578a4.418,4.418,0,0,1-1.086,3.121,4.209,4.209,0,0,1-5.832,0,4.5,4.5,0,0,1-1.09-3.187Zm2.258.16a3.16,3.16,0,0,0,.453,1.843,1.628,1.628,0,0,0,2.578.008,3.457,3.457,0,0,0,.461-2.015,3.128,3.128,0,0,0-.461-1.831,1.5,1.5,0,0,0-1.3-.649,1.474,1.474,0,0,0-1.281.646A3.516,3.516,0,0,0,59.18,12.856ZM70.9,14.664a.727.727,0,0,0-.41-.652,4.659,4.659,0,0,0-1.316-.426q-3.016-.633-3.016-2.562a2.323,2.323,0,0,1,.934-1.879,3.766,3.766,0,0,1,2.441-.754,4.053,4.053,0,0,1,2.574.758,2.388,2.388,0,0,1,.965,1.969H70.813a1.092,1.092,0,0,0-.312-.8A1.322,1.322,0,0,0,69.523,10a1.351,1.351,0,0,0-.883.258.814.814,0,0,0-.312.656.7.7,0,0,0,.355.605,3.657,3.657,0,0,0,1.2.4A9.8,9.8,0,0,1,71.3,12.3a2.336,2.336,0,0,1,1.789,2.273,2.2,2.2,0,0,1-.992,1.871,4.28,4.28,0,0,1-2.562.715,4.47,4.47,0,0,1-1.887-.379,3.166,3.166,0,0,1-1.293-1.039,2.414,2.414,0,0,1-.469-1.426h2.141a1.179,1.179,0,0,0,.445.922,1.766,1.766,0,0,0,1.109.32,1.635,1.635,0,0,0,.98-.246A.766.766,0,0,0,70.9,14.664ZM78.18,12.7a5.053,5.053,0,0,1,.887-3.148A2.9,2.9,0,0,1,81.5,8.391,2.6,2.6,0,0,1,83.664,9.43l.148-.883H85.8v11.7H83.531V16.273a2.6,2.6,0,0,1-2.047.883,2.878,2.878,0,0,1-2.406-1.172A5.3,5.3,0,0,1,78.18,12.7Zm2.258.16a3.315,3.315,0,0,0,.426,1.847,1.363,1.363,0,0,0,1.2.634,1.518,1.518,0,0,0,1.469-.829v-3.5a1.506,1.506,0,0,0-1.453-.8,1.38,1.38,0,0,0-1.211.634A3.661,3.661,0,0,0,80.438,12.856Zm12.2,3.285a2.831,2.831,0,0,1-2.312,1.016,2.67,2.67,0,0,1-2.074-.781,3.335,3.335,0,0,1-.73-2.289V8.547h2.258v5.467q0,1.322,1.2,1.322a1.63,1.63,0,0,0,1.578-.8V8.547H94.82V17H92.7ZM98.961,17H96.7V8.547h2.258ZM98.3,5.117h2.461L98.594,7.539H96.758Zm4.727,3.43.07.945a2.971,2.971,0,0,1,2.43-1.1,2.255,2.255,0,0,1,2.242,1.289A2.9,2.9,0,0,1,110.3,8.391a2.521,2.521,0,0,1,2.047.8,3.681,3.681,0,0,1,.672,2.41V17h-2.266V11.609a1.61,1.61,0,0,0-.281-1.051,1.246,1.246,0,0,0-.992-.332,1.409,1.409,0,0,0-1.406.969l.008,5.8h-2.258V11.617a1.59,1.59,0,0,0-.289-1.062,1.259,1.259,0,0,0-.984-.328,1.463,1.463,0,0,0-1.391.8V17h-2.258V8.547ZM117.141,17h-2.266V8.547h2.266Zm-2.4-10.641a1.112,1.112,0,0,1,.34-.836,1.465,1.465,0,0,1,1.848,0,1.105,1.105,0,0,1,.344.836,1.108,1.108,0,0,1-.348.844,1.448,1.448,0,0,1-1.836,0A1.108,1.108,0,0,1,114.742,6.359Zm7.773,8.977a1.481,1.481,0,0,0,1.016-.344,1.2,1.2,0,0,0,.406-.914h2.117a2.9,2.9,0,0,1-.469,1.574,3.093,3.093,0,0,1-1.262,1.109,3.949,3.949,0,0,1-1.77.395A3.67,3.67,0,0,1,119.7,16a4.56,4.56,0,0,1-1.047-3.184v-.148a4.508,4.508,0,0,1,1.039-3.117,3.627,3.627,0,0,1,2.852-1.164,3.555,3.555,0,0,1,2.543.9,3.2,3.2,0,0,1,.973,2.4h-2.117a1.551,1.551,0,0,0-.406-1.072,1.51,1.51,0,0,0-2.223.163,3.333,3.333,0,0,0-.4,1.866v.235a3.375,3.375,0,0,0,.4,1.878A1.377,1.377,0,0,0,122.516,15.336Zm4.477-2.641a5.013,5.013,0,0,1,.484-2.242,3.546,3.546,0,0,1,1.395-1.523,4.069,4.069,0,0,1,2.113-.539,3.849,3.849,0,0,1,2.793,1.047,4.2,4.2,0,0,1,1.207,2.844l.016.578a4.418,4.418,0,0,1-1.086,3.121,4.209,4.209,0,0,1-5.832,0,4.5,4.5,0,0,1-1.09-3.187Zm2.258.16A3.16,3.16,0,0,0,129.7,14.7a1.628,1.628,0,0,0,2.578.008,3.457,3.457,0,0,0,.461-2.015,3.128,3.128,0,0,0-.461-1.831,1.5,1.5,0,0,0-1.3-.649,1.474,1.474,0,0,0-1.281.646A3.516,3.516,0,0,0,129.25,12.856Zm11.719,1.808a.727.727,0,0,0-.41-.652,4.659,4.659,0,0,0-1.316-.426q-3.016-.633-3.016-2.562a2.323,2.323,0,0,1,.934-1.879,3.766,3.766,0,0,1,2.441-.754,4.053,4.053,0,0,1,2.574.758,2.388,2.388,0,0,1,.965,1.969h-2.258a1.092,1.092,0,0,0-.312-.8,1.322,1.322,0,0,0-.977-.316,1.351,1.351,0,0,0-.883.258.814.814,0,0,0-.312.656.7.7,0,0,0,.355.605,3.657,3.657,0,0,0,1.2.4,9.8,9.8,0,0,1,1.422.379,2.336,2.336,0,0,1,1.789,2.273,2.205,2.205,0,0,1-.992,1.871,4.28,4.28,0,0,1-2.562.715,4.47,4.47,0,0,1-1.887-.379,3.166,3.166,0,0,1-1.293-1.039,2.414,2.414,0,0,1-.469-1.426H138.1a1.179,1.179,0,0,0,.445.922,1.766,1.766,0,0,0,1.109.32,1.635,1.635,0,0,0,.98-.246A.766.766,0,0,0,140.969,14.664Zm3.766,1.227a1.137,1.137,0,0,1,.363-.875,1.412,1.412,0,0,1,1.828,0,1.137,1.137,0,0,1,.363.875,1.121,1.121,0,0,1-.359.863,1.435,1.435,0,0,1-1.836,0A1.121,1.121,0,0,1,144.734,15.891Z" transform="translate(859 1114)" fill="#fff"/>
    <g id="Elipse_4054" data-name="Elipse 4054" transform="translate(1244 1084)" fill="#bbabf5" stroke="#fff" stroke-width="3">
      <ellipse cx="35.5" cy="36.5" rx="35.5" ry="36.5" stroke="none"/>
      <ellipse cx="35.5" cy="36.5" rx="34" ry="35" fill="none"/>
    </g>
    <path id="Icon_awesome-check" data-name="Icon awesome-check" d="M12.227,30.9.527,19.2a1.8,1.8,0,0,1,0-2.546L3.073,14.1a1.8,1.8,0,0,1,2.546,0L13.5,21.986,30.382,5.1a1.8,1.8,0,0,1,2.546,0L35.473,7.65a1.8,1.8,0,0,1,0,2.546l-20.7,20.7A1.8,1.8,0,0,1,12.227,30.9Z" transform="translate(1261.5 1103.5)" fill="#fff"/>
  </g>
</svg>
