<svg xmlns="http://www.w3.org/2000/svg" xmlns:xlink="http://www.w3.org/1999/xlink" width="451.769" height="189.677" viewBox="0 0 451.769 189.677">
  <defs>
    <radialGradient id="radial-gradient" cx="0.081" cy="0.09" r="2.654" gradientTransform="translate(0.355) scale(0.289 1)" gradientUnits="objectBoundingBox">
      <stop offset="0" stop-color="#472ea6"/>
      <stop offset="1" stop-color="#35237d"/>
    </radialGradient>
    <linearGradient id="linear-gradient" x1="0.648" y1="0.922" x2="0.104" y2="-0.79" gradientUnits="objectBoundingBox">
      <stop offset="0"/>
      <stop offset="1" stop-color="#fce16b"/>
    </linearGradient>
  </defs>
  <g id="Grupo_124044" data-name="Grupo 124044" transform="translate(-883.231 -448.701)">
    <g id="Grupo_60565" data-name="Grupo 60565" transform="translate(206.03 321.006)">
      <path id="Trazado_124938" data-name="Trazado 124938" d="M797.753,272.121l-11.9-2.167L769.9,272.92l-24.056,1.931-8.322,1.548,9.836-2.351,22.549-1.732,16.384-3.08,12.125,2.028Z" transform="translate(-13.882 -32.574)" fill="#ffe9d3"/>
      <path id="Trazado_124939" data-name="Trazado 124939" d="M772.267,292.139l-.574-17.875,22.023-4.1v18.866Z" transform="translate(-21.746 -32.788)" fill="#ef2a66"/>
      <path id="Trazado_124940" data-name="Trazado 124940" d="M800.3,289.878l42.843,2.666.5-14.483L800.3,270.168Z" transform="translate(-28.329 -32.788)" fill="#7f0048"/>
      <path id="Trazado_124941" data-name="Trazado 124941" d="M732.774,312.264l-.469-14.6,17.991-3.346v15.413Z" transform="translate(-12.681 -38.345)" fill="#ef2a66"/>
      <path id="Trazado_124942" data-name="Trazado 124942" d="M735.52,292.6l-.469-14.6,17.991-3.346v15.413Z" transform="translate(-13.313 -33.82)" fill="#fd8f25"/>
      <path id="Trazado_124943" data-name="Trazado 124943" d="M755.674,310.417l35,2.178.412-11.832-35.412-6.449Z" transform="translate(-18.059 -38.345)" fill="#7f0048"/>
      <path id="Trazado_124944" data-name="Trazado 124944" d="M1012.15,137.5l.928,26.636,30.426-5.628-.788-28.126Z" transform="translate(-77.083 -0.618)" fill="#fed2a8"/>
      <path id="Trazado_124945" data-name="Trazado 124945" d="M1051.853,130.381l54.671,12.342-2.082,25.929-51.8-10.145Z" transform="translate(-86.22 -0.618)" fill="#d46d59"/>
      <path id="Trazado_124946" data-name="Trazado 124946" d="M946.9,231.232l4.584.3-4.624,26.274Z" transform="translate(-62.057 -23.827)" fill="#d46d59"/>
      <g id="Grupo_60563" data-name="Grupo 60563" transform="translate(696.056 145.697)">
        <g id="Grupo_60558" data-name="Grupo 60558" transform="translate(0 30.493)">
          <path id="Trazado_124947" data-name="Trazado 124947" d="M704.448,208.733l1.244-3.23h20.782l1.409,3.23Z" transform="translate(-702.327 -194.097)" fill="#791f48"/>
          <rect id="Rectángulo_6711" data-name="Rectángulo 6711" width="0.822" height="5.871" transform="translate(9.178 6.69)" fill="#791f48"/>
          <rect id="Rectángulo_6712" data-name="Rectángulo 6712" width="0.264" height="13.38" transform="translate(5.479)" fill="#791f48"/>
          <rect id="Rectángulo_6713" data-name="Rectángulo 6713" width="0.264" height="0.58" transform="translate(5.479 2.538)" fill="#d5ffb8"/>
          <rect id="Rectángulo_6714" data-name="Rectángulo 6714" width="0.264" height="13.38" transform="translate(16.927)" fill="#791f48"/>
          <rect id="Rectángulo_6715" data-name="Rectángulo 6715" width="0.264" height="0.58" transform="translate(16.927 2.538)" fill="#d5ffb8"/>
          <path id="Trazado_124948" data-name="Trazado 124948" d="M730.073,293.689l-26.221.628-2.16-84.592h28.38Z" transform="translate(-701.692 -195.068)" fill="#ffe9d3"/>
          <path id="Trazado_124949" data-name="Trazado 124949" d="M701.692,226.523h28.38V242.6l-27.6,1.712Z" transform="translate(-701.692 -198.934)" fill="#791f48"/>
          <path id="Trazado_124950" data-name="Trazado 124950" d="M702.767,251.434l27.553-1.322.1,3.229-27.587.471Z" transform="translate(-701.94 -204.363)" fill="#791f48"/>
          <path id="Trazado_124951" data-name="Trazado 124951" d="M705.485,287.834,703.548,212.5h5.988v74.569Z" transform="translate(-702.119 -195.708)" fill="#fff" style="mix-blend-mode: soft-light;isolation: isolate"/>
          <path id="Trazado_124952" data-name="Trazado 124952" d="M722.6,209.725l.76,79.764-18.911,3.347.038,1.482,26.221-.628V209.725Z" transform="translate(-702.327 -195.068)" fill="#c05c66" opacity="0.32" style="mix-blend-mode: multiply;isolation: isolate"/>
        </g>
        <g id="Grupo_60559" data-name="Grupo 60559" transform="translate(113.221 12.673)">
          <rect id="Rectángulo_6716" data-name="Rectángulo 6716" width="0.264" height="13.38" fill="#791f48"/>
          <rect id="Rectángulo_6717" data-name="Rectángulo 6717" width="0.264" height="0.58" transform="translate(0 2.538)" fill="#d5ffb8"/>
        </g>
        <g id="Grupo_60560" data-name="Grupo 60560" transform="translate(114.805 3.916)">
          <rect id="Rectángulo_6718" data-name="Rectángulo 6718" width="0.603" height="20.766" fill="#791f48"/>
          <rect id="Rectángulo_6719" data-name="Rectángulo 6719" width="0.603" height="0.9" transform="translate(0 3.939)" fill="#d5ffb8"/>
        </g>
        <g id="Grupo_60561" data-name="Grupo 60561" transform="translate(90.283 5.406)">
          <rect id="Rectángulo_6720" data-name="Rectángulo 6720" width="0.387" height="13.324" fill="#791f48"/>
          <rect id="Rectángulo_6721" data-name="Rectángulo 6721" width="0.387" height="0.577" transform="translate(0 2.527)" fill="#d5ffb8"/>
        </g>
        <g id="Grupo_60562" data-name="Grupo 60562" transform="translate(143.733 23.485)">
          <rect id="Rectángulo_6722" data-name="Rectángulo 6722" width="0.454" height="15.647" fill="#791f48"/>
          <rect id="Rectángulo_6723" data-name="Rectángulo 6723" width="0.454" height="0.678" transform="translate(0 2.968)" fill="#d5ffb8"/>
        </g>
        <path id="Trazado_124953" data-name="Trazado 124953" d="M823.973,151.1l.216,75.673-.826.1-.612-75.794Z" transform="translate(-729.552 -151.079)" fill="#952e48"/>
        <path id="Trazado_124954" data-name="Trazado 124954" d="M821.046,151.613l1.312,75.332.613-.072-.612-75.794Z" transform="translate(-729.16 -151.079)" fill="#ffa679"/>
        <path id="Trazado_124955" data-name="Trazado 124955" d="M917.536,168.291l-.259,100.75-.827.135-.137-100.908Z" transform="translate(-751.084 -155.034)" fill="#952e48"/>
        <path id="Trazado_124956" data-name="Trazado 124956" d="M914.6,168.988l.839,100.288.613-.1-.137-100.908Z" transform="translate(-750.691 -155.034)" fill="#ffa679"/>
        <path id="Trazado_124957" data-name="Trazado 124957" d="M750.3,242.318l2.985-2.768H768.64l2.73,2.2Z" transform="translate(-712.878 -171.439)" fill="#791f48"/>
        <path id="Trazado_124958" data-name="Trazado 124958" d="M913.036,221.15l-10.614,10.144v3.17l14.207-13.314Z" transform="translate(-747.887 -167.204)" fill="#791f48"/>
        <path id="Trazado_124959" data-name="Trazado 124959" d="M771.624,177.129v-4.042l11.575-4.554L904.545,194.07,904.413,197Z" transform="translate(-717.786 -155.095)" fill="#952e48"/>
        <path id="Trazado_124960" data-name="Trazado 124960" d="M914.1,221.288,899.83,235.083v2.466l18.14-16.26Z" transform="translate(-747.29 -167.236)" fill="#952e48"/>
        <path id="Trazado_124961" data-name="Trazado 124961" d="M841.391,204.3l47.594,7.732L887.063,281.8l-49.611-1.558Z" transform="translate(-732.935 -163.327)" fill="#d46d59"/>
        <path id="Trazado_124962" data-name="Trazado 124962" d="M816.067,282.74l-1.918-72.125,21.88-6.313v75.323Z" transform="translate(-727.572 -163.327)" fill="#fed2a8"/>
        <path id="Trazado_124963" data-name="Trazado 124963" d="M913.765,210.936l1.311-11.508-126.413-24.98v24.98Z" transform="translate(-721.707 -156.457)" fill="#d46d59"/>
        <path id="Trazado_124964" data-name="Trazado 124964" d="M782.6,174.448l-20.264,6.245,1.736,21.106,18.528-2.371Z" transform="translate(-715.65 -156.457)" fill="#fed2a8"/>
        <path id="Trazado_124965" data-name="Trazado 124965" d="M764.6,209.266l38.149,1.946,21.88-.5-41.5-3.818Z" transform="translate(-716.169 -163.924)" fill="#952e48"/>
        <path id="Trazado_124966" data-name="Trazado 124966" d="M940.359,220.851l-10.921.489-25.215-1.613.06-2.2Z" transform="translate(-748.302 -166.372)" fill="#952e48"/>
        <path id="Trazado_124967" data-name="Trazado 124967" d="M931.261,221.187l-.644,75.671-.827.088.249-75.8Z" transform="translate(-754.185 -167.204)" fill="#952e48"/>
        <path id="Trazado_124968" data-name="Trazado 124968" d="M928.4,221.67l.455,75.342.614-.065.249-75.8Z" transform="translate(-753.866 -167.204)" fill="#ffa679"/>
        <path id="Trazado_124969" data-name="Trazado 124969" d="M771.624,173.087l11.575-4.554v4.554l-11.575,3.565Z" transform="translate(-717.786 -155.095)" fill="#ffa679"/>
        <path id="Trazado_124970" data-name="Trazado 124970" d="M854.534,215.415v9.334h3.346v-8.718Z" transform="translate(-736.866 -165.885)" fill="#791f48"/>
        <path id="Trazado_124971" data-name="Trazado 124971" d="M795.055,183.388v9.334H798.4V184Z" transform="translate(-723.178 -158.514)" fill="#791f48"/>
        <path id="Trazado_124972" data-name="Trazado 124972" d="M789.885,209.248l1.648,75.656-.824.113-2.047-75.769Z" transform="translate(-721.707 -164.465)" fill="#952e48"/>
        <path id="Trazado_124973" data-name="Trazado 124973" d="M786.972,209.808l2.737,75.294.611-.084-2.047-75.769Z" transform="translate(-721.318 -164.465)" fill="#ffa679"/>
        <path id="Trazado_124974" data-name="Trazado 124974" d="M754.176,194.977l.734,9.366,24.274-3.293-.64-10.877Z" transform="translate(-713.771 -160.076)" fill="#ffe9d3"/>
        <path id="Trazado_124975" data-name="Trazado 124975" d="M755.129,207.6h7.112l18.7-2.368L779.4,204.3Z" transform="translate(-713.99 -163.327)" fill="#952e48"/>
        <path id="Trazado_124976" data-name="Trazado 124976" d="M785.828,189.995l2.353-.6-.17,12.4-1.542-.925Z" transform="translate(-721.055 -159.896)" fill="#d46d59"/>
        <path id="Trazado_124977" data-name="Trazado 124977" d="M755.982,194.687l.361-4.512h1.013l.44,4.109Z" transform="translate(-714.186 -160.076)" fill="#791f48"/>
        <path id="Trazado_124978" data-name="Trazado 124978" d="M760.15,193.667l2.861-3.25,11.037-2,2.56,2Z" transform="translate(-715.145 -159.672)" fill="#791f48"/>
        <rect id="Rectángulo_6724" data-name="Rectángulo 6724" width="0.377" height="15.774" transform="translate(48.427 15.598)" fill="#791f48"/>
        <rect id="Rectángulo_6725" data-name="Rectángulo 6725" width="0.235" height="10.391" transform="translate(49.744 20.529)" fill="#791f48"/>
        <rect id="Rectángulo_6726" data-name="Rectángulo 6726" width="0.132" height="7.558" transform="translate(54.793 23.362)" fill="#791f48"/>
        <rect id="Rectángulo_6727" data-name="Rectángulo 6727" width="0.264" height="13.38" transform="translate(42.57 17.992)" fill="#791f48"/>
        <path id="Trazado_124979" data-name="Trazado 124979" d="M893.653,273.293v9.334H897v-8.718Z" transform="translate(-745.869 -179.204)" fill="#791f48"/>
        <path id="Trazado_124980" data-name="Trazado 124980" d="M814.68,232.325l21.349,16.262V211.854l-21.88.5Z" transform="translate(-727.572 -165.065)" fill="#c05c66" opacity="0.5" style="mix-blend-mode: multiply;isolation: isolate"/>
        <path id="Trazado_124981" data-name="Trazado 124981" d="M828.693,235.847v-4.2L810.312,209.6l-3.422-.347Z" transform="translate(-725.902 -164.465)" fill="#952e48"/>
        <path id="Trazado_124982" data-name="Trazado 124982" d="M827.617,235.847h-3.335L802.212,209.6l3.6-.347Z" transform="translate(-724.825 -164.465)" fill="#ffa679"/>
        <path id="Trazado_124983" data-name="Trazado 124983" d="M842.011,280.251l.43-68.4v68.4Z" transform="translate(-733.984 -165.065)" fill="#ffe9d3"/>
        <path id="Trazado_124984" data-name="Trazado 124984" d="M785.828,186.555,788.01,186V174.448l126.413,24.98L788.383,174.873l-.207,11.323Z" transform="translate(-721.055 -156.457)" fill="#ffe9d3"/>
        <path id="Trazado_124985" data-name="Trazado 124985" d="M757.8,296.14l-1.813-53.731h18.457l-.627,52.66Z" transform="translate(-714.186 -172.097)" fill="#d46d59"/>
        <path id="Trazado_124986" data-name="Trazado 124986" d="M753.854,242.41l-7.119.922,2.6,53.678,6.328-.87Z" transform="translate(-712.058 -172.097)" fill="#ffe9d3"/>
        <rect id="Rectángulo_6728" data-name="Rectángulo 6728" width="0.357" height="16.707" transform="translate(38.003 54.051)" fill="#791f48"/>
        <rect id="Rectángulo_6729" data-name="Rectángulo 6729" width="0.822" height="5.871" transform="translate(45.459 62.916)" fill="#791f48"/>
        <rect id="Rectángulo_6730" data-name="Rectángulo 6730" width="0.716" height="14.527" transform="translate(51.024 54.969)" fill="#791f48"/>
        <path id="Trazado_124987" data-name="Trazado 124987" d="M761.562,296.786l-.822-50.793h11.213v50.1Z" transform="translate(-715.281 -172.922)" fill="#791f48"/>
        <path id="Trazado_124988" data-name="Trazado 124988" d="M773.093,245.994v50.212l1.7-.114v-50.1Z" transform="translate(-718.124 -172.922)" fill="#952e48"/>
        <path id="Trazado_124989" data-name="Trazado 124989" d="M765.544,248.586l.009,4.364,2.216.039v-4.4Z" transform="translate(-716.387 -173.518)" fill="#d46d59"/>
        <path id="Trazado_124990" data-name="Trazado 124990" d="M765.544,264.257l.009,4.364,2.216.039v-4.4Z" transform="translate(-716.387 -177.125)" fill="#d46d59"/>
        <path id="Trazado_124991" data-name="Trazado 124991" d="M765.544,278.982l.009,4.364,2.216.039v-4.4Z" transform="translate(-716.387 -180.513)" fill="#d46d59"/>
        <path id="Trazado_124992" data-name="Trazado 124992" d="M765.544,293.707l.009,4.364,2.216.039v-4.4Z" transform="translate(-716.387 -183.902)" fill="#d46d59"/>
        <path id="Trazado_124993" data-name="Trazado 124993" d="M771.953,247.99l-1.7,2.2-8.887,34.317-.623-38.515h11.213Z" transform="translate(-715.281 -172.922)" fill="#c05c66" opacity="0.5" style="mix-blend-mode: multiply;isolation: isolate"/>
        <path id="Trazado_124994" data-name="Trazado 124994" d="M775.008,296.107l.228-50.113v50.1Z" transform="translate(-718.565 -172.922)" fill="#ffa679"/>
        <rect id="Rectángulo_6731" data-name="Rectángulo 6731" width="0.264" height="0.58" transform="translate(42.57 20.529)" fill="#d5ffb8"/>
        <rect id="Rectángulo_6732" data-name="Rectángulo 6732" width="0.377" height="0.377" transform="translate(48.427 20.251)" fill="#d5ffb8"/>
        <rect id="Rectángulo_6733" data-name="Rectángulo 6733" width="0.675" height="1.331" transform="translate(51.065 56.751)" fill="#d5ffb8"/>
        <rect id="Rectángulo_6734" data-name="Rectángulo 6734" width="0.716" height="1.299" transform="translate(51.024 59.789)" fill="#d5ffb8"/>
        <rect id="Rectángulo_6735" data-name="Rectángulo 6735" width="0.357" height="0.66" transform="translate(38.003 57.148)" fill="#d5ffb8"/>
        <rect id="Rectángulo_6736" data-name="Rectángulo 6736" width="0.357" height="0.616" transform="translate(38.003 58.843)" fill="#d5ffb8"/>
        <path id="Trazado_124995" data-name="Trazado 124995" d="M842.29,179.639l2.792-2.011,38.864,9.1,2.137,2.126Z" transform="translate(-734.049 -157.188)" fill="#791f48"/>
        <path id="Trazado_124996" data-name="Trazado 124996" d="M843.177,177.628l-9.166.67,6.374,1.341Z" transform="translate(-732.143 -157.188)" fill="#952e48"/>
      </g>
      <path id="Trazado_124997" data-name="Trazado 124997" d="M856.451,276.185l42.843,2.666.5-14.483-43.348-7.894Z" transform="translate(-41.252 -29.637)" fill="#d42931"/>
      <path id="Trazado_124998" data-name="Trazado 124998" d="M906.873,263.532l7.4.391-2.9,22.507-4.326-1.18Z" transform="translate(-52.855 -31.261)" fill="#104a7f"/>
      <path id="Trazado_124999" data-name="Trazado 124999" d="M828.427,278.446l-.548-17.075,22-4.9v18.866Z" transform="translate(-34.676 -29.637)" fill="#fd8f25"/>
      <path id="Trazado_125000" data-name="Trazado 125000" d="M822.535,300.711l-.574-17.875,22.023-4.1v18.866Z" transform="translate(-33.314 -34.761)" fill="#ef2a66"/>
      <path id="Trazado_125001" data-name="Trazado 125001" d="M850.567,298.451l42.843,2.666.5-14.483-43.348-7.894Z" transform="translate(-39.897 -34.761)" fill="#7f0048"/>
      <path id="Trazado_125002" data-name="Trazado 125002" d="M728.314,313.674l-.574-17.875,22.022-4.1v18.866Z" transform="translate(-11.631 -37.744)" fill="#ef2a66"/>
      <path id="Trazado_125003" data-name="Trazado 125003" d="M756.346,311.413l44.288,1.279,1.677-14.239L756.346,291.7Z" transform="translate(-18.214 -37.744)" fill="#7f0048"/>
      <path id="Trazado_125004" data-name="Trazado 125004" d="M765.009,306.909l-.574-17.875,22.023-4.1V303.8Z" transform="translate(-20.075 -36.187)" fill="#1088b8"/>
      <path id="Trazado_125005" data-name="Trazado 125005" d="M793.041,304.648l44.288,1.279,1.677-14.239-45.965-6.751Z" transform="translate(-26.659 -36.187)" fill="#104a7f"/>
      <path id="Trazado_125006" data-name="Trazado 125006" d="M796.867,302.017l-.574-17.875,22.023-4.1v18.866Z" transform="translate(-27.407 -35.061)" fill="#1088b8"/>
      <path id="Trazado_125007" data-name="Trazado 125007" d="M824.9,299.756l44.288,1.279,1.677-14.239L824.9,280.046Z" transform="translate(-33.99 -35.061)" fill="#104a7f"/>
      <path id="Trazado_125008" data-name="Trazado 125008" d="M920.775,229.649l-.574-17.875,22.023-4.1v18.866Z" transform="translate(-55.923 -18.407)" fill="#1088b8"/>
      <path id="Trazado_125009" data-name="Trazado 125009" d="M948.807,227.388l44.894,3.059,1.071-16.018-45.965-6.751Z" transform="translate(-62.506 -18.407)" fill="#104a7f"/>
      <path id="Trazado_125010" data-name="Trazado 125010" d="M851.41,304.106l-7.255-.859-21.449,3.1,3.158.063,18.291-2.324Z" transform="translate(-33.486 -40.4)" fill="#4c1f48"/>
      <path id="Trazado_125011" data-name="Trazado 125011" d="M898.456,263.532,870.3,268.258V292.92l28.329-3.885Z" transform="translate(-44.439 -31.261)" fill="#1088b8"/>
      <path id="Trazado_125012" data-name="Trazado 125012" d="M940.267,257.187l-29.3,4.919v26.928l29.483-5.306Z" transform="translate(-53.797 -29.801)" fill="#ef2a66"/>
      <path id="Trazado_125013" data-name="Trazado 125013" d="M1014.565,209.3h4.663l-.5-5.522-4.552,2.368Z" transform="translate(-77.55 -17.51)" fill="#d46d59"/>
      <path id="Trazado_125014" data-name="Trazado 125014" d="M971.55,234.088l-24.641-2.856v27.583l26.864-9.568Z" transform="translate(-62.069 -23.827)" fill="#fd8f25"/>
      <path id="Trazado_125015" data-name="Trazado 125015" d="M1007.081,181.69,981.657,186.9v21.965l25.423-4.643Z" transform="translate(-70.066 -12.426)" fill="#fed2a8"/>
      <path id="Trazado_125016" data-name="Trazado 125016" d="M1180.689,204.883l-8.414.688.9-2.1Z" transform="translate(-113.933 -17.438)" fill="#7f0048"/>
      <path id="Trazado_125017" data-name="Trazado 125017" d="M1016.819,210.6h8.861l-1.6,20.549-7.108,1.68Z" transform="translate(-78.158 -19.078)" fill="#104a7f"/>
      <path id="Trazado_125018" data-name="Trazado 125018" d="M1008.06,210.6l-29.3,4.919v26.928l29.478-6.019Z" transform="translate(-69.399 -19.078)" fill="#1088b8"/>
      <path id="Trazado_125019" data-name="Trazado 125019" d="M1059.2,201.17l78.146,7.989-3.789,12.29-75.206,4.073Z" transform="translate(-87.716 -16.909)" fill="#7f0048"/>
      <path id="Trazado_125020" data-name="Trazado 125020" d="M1019.161,232.607V206.779l30.972-4.581.049,26.763Z" transform="translate(-78.697 -17.146)" fill="#ef2a66"/>
      <path id="Trazado_125021" data-name="Trazado 125021" d="M1012.98,198.531l-.83-25.853L1044,166.755v27.286Z" transform="translate(-77.083 -8.989)" fill="#ef2a66"/>
      <path id="Trazado_125022" data-name="Trazado 125022" d="M938.085,231.232l-29.522,4.956v25.666l29.483-4.044Z" transform="translate(-53.244 -23.827)" fill="#fed2a8"/>
      <path id="Trazado_125023" data-name="Trazado 125023" d="M1053.522,195.261l61.963,3.856.73-20.946-62.693-11.416Z" transform="translate(-86.604 -8.989)" fill="#7f0048"/>
      <path id="Trazado_125024" data-name="Trazado 125024" d="M1019.161,207.149l26.759-3.342,4.262.354v9.792l-31.021-4.187Z" transform="translate(-78.697 -17.516)" fill="#c03966" opacity="0.5" style="mix-blend-mode: multiply;isolation: isolate"/>
      <path id="Trazado_125025" data-name="Trazado 125025" d="M1054.741,203.44l-10.492-1.243-31.021,4.49,4.567.091,26.453-3.361Z" transform="translate(-77.331 -17.146)" fill="#4c1f48"/>
      <path id="Trazado_125026" data-name="Trazado 125026" d="M1054.346,203.3l61.329,4.142-60.52-4.508Z" transform="translate(-86.794 -17.316)" fill="#4c1f48"/>
      <path id="Trazado_125027" data-name="Trazado 125027" d="M1070.746,160.592l-.83-25.853,31.851-5.923V156.1Z" transform="translate(-90.377 -0.258)" fill="#ef2a66"/>
      <path id="Trazado_125028" data-name="Trazado 125028" d="M1111.288,157.323l60.774,11.022L1173.815,145l-62.527-16.181Z" transform="translate(-99.898 -0.258)" fill="#820048"/>
      <path id="Trazado_125029" data-name="Trazado 125029" d="M1114.459,167.454l-12.444-3.194-31.021,4.49,4.567.091,26.453-3.361Z" transform="translate(-90.625 -8.415)" fill="#4c1f48"/>
      <path id="Trazado_125030" data-name="Trazado 125030" d="M1112.112,165.363l58.427,12.485L1112.921,165Z" transform="translate(-100.088 -8.585)" fill="#4c1f48"/>
      <path id="Trazado_125031" data-name="Trazado 125031" d="M1071.925,193.671v-24.9l27.462-4.455-.052,25.242Z" transform="translate(-90.839 -8.429)" fill="#fd8f25"/>
      <path id="Trazado_125032" data-name="Trazado 125032" d="M1107.581,164.319l58.208,13.169V195.9l-58.26-6.336Z" transform="translate(-99.033 -8.429)" fill="#d42931"/>
      <path id="Trazado_125033" data-name="Trazado 125033" d="M1096.452,196.857l-29.3,4.919V228.7l29.478-6.019Z" transform="translate(-89.741 -15.917)" fill="#1088b8"/>
      <path id="Trazado_125034" data-name="Trazado 125034" d="M1105.211,196.857l53.313,5.732v9.765l-53.127,3.424Z" transform="translate(-98.5 -15.917)" fill="#104a7f"/>
      <path id="Trazado_125035" data-name="Trazado 125035" d="M1090.276,166.007l-11.727,26.755-4.619.775-6.779,20.24v-19.1l3.675-.617v-24.9Z" transform="translate(-89.741 -8.817)" fill="#c03966" opacity="0.5" style="mix-blend-mode: multiply;isolation: isolate"/>
      <path id="Trazado_125036" data-name="Trazado 125036" d="M1128.645,196.8v14.889l26.381-3.9v-13.83Z" transform="translate(-103.893 -15.249)" fill="#fed2a8"/>
      <path id="Trazado_125037" data-name="Trazado 125037" d="M1161.562,207.062l50.133-2.29.593-5.563-49.687-5.255Z" transform="translate(-111.468 -15.249)" fill="#d46d59"/>
      <path id="Trazado_125038" data-name="Trazado 125038" d="M1121.833,161.275v26.241l30.719-3.433.907-27.915Z" transform="translate(-102.325 -6.552)" fill="#1088b8"/>
      <path id="Trazado_125039" data-name="Trazado 125039" d="M1162.473,156.163l52.126,15.249-1.381,21.7-51.656-8.9Z" transform="translate(-111.468 -6.552)" fill="#104a7f"/>
      <g id="Grupo_60564" data-name="Grupo 60564" transform="translate(678.29 187.081)">
        <path id="Trazado_125040" data-name="Trazado 125040" d="M1073.932,328.785l2.048,6.339H689.354l-1.94-7.1-8.8-32.1L875.178,268.9l15.872-25.681s.044-.014.137-.035c76.632-19,91.826-21.606,110.9-25.371,3.267-.642,6.642-1.327,10.464-2.128,108.882-22.839,116.743-2.531,116.743-2.531Z" transform="translate(-678.616 -204.833)" fill="url(#radial-gradient)"/>
        <path id="Trazado_125041" data-name="Trazado 125041" d="M1076.927,365.833l-385.3,4.179.719,2.161h386.627Z" transform="translate(-681.611 -241.885)" fill="#ef2a66"/>
        <path id="Trazado_125042" data-name="Trazado 125042" d="M691.631,348.388s217.876-10.375,229.148-10.375S1142.689,209.8,1093.118,310.4l-16.191,33.814-385.3,4.179Z" transform="translate(-681.611 -220.261)" fill="#090327" opacity="0.36"/>
        <path id="Trazado_125043" data-name="Trazado 125043" d="M691.431,351.427l-9.158-34.786L875.3,289.459,692.605,317.051l5.793,33.921Z" transform="translate(-679.458 -224.308)" fill="#fff" opacity="0.57" style="mix-blend-mode: soft-light;isolation: isolate"/>
        <path id="Trazado_125044" data-name="Trazado 125044" d="M1243.174,214.222l-54.245,113.421h-3.523l49.712-116.137S1241.16,212.208,1243.174,214.222Z" transform="translate(-795.246 -206.369)" fill="#fff" opacity="0.57" style="mix-blend-mode: soft-light;isolation: isolate"/>
        <path id="Trazado_125045" data-name="Trazado 125045" d="M1115.839,219.761l-.173.34-8.685,17.069c-37.932,5.746-138.332,25.163-153.27,28.065l-1.873.362,7.606-10.8C1023.657,234.688,1115.839,219.761,1115.839,219.761Z" transform="translate(-741.494 -208.269)" fill="#4c1f29"/>
        <path id="Trazado_125046" data-name="Trazado 125046" d="M1116.226,220.2l-8.685,17.069c-37.932,5.746-138.332,25.163-153.27,28.065l7.317-10.39C1020.6,236.476,1103.214,222.371,1116.226,220.2Z" transform="translate(-742.054 -208.37)" fill="#f25585"/>
        <path id="Trazado_125047" data-name="Trazado 125047" d="M1002.089,221.692c-119.815,84.16-276.258,105.983-314.675,110.216l-8.8-32.1L875.178,272.78,891.051,247.1s.044-.014.137-.035C967.819,228.06,983.014,225.457,1002.089,221.692Z" transform="translate(-678.616 -208.713)" fill="url(#linear-gradient)" style="mix-blend-mode: color-dodge;isolation: isolate"/>
        <path id="Trazado_125048" data-name="Trazado 125048" d="M1183.2,371.781v-5.168h5.769l2.051,5.022Z" transform="translate(-794.739 -242.064)" fill="#fff" opacity="0.57" style="mix-blend-mode: soft-light;isolation: isolate"/>
      </g>
      <path id="Trazado_125049" data-name="Trazado 125049" d="M1121.833,195.86l5.244,1,25.342-2.655,49.461,6.874-49.328-8.655Z" transform="translate(-102.325 -14.897)" fill="#4c1f48"/>
      <path id="Trazado_125050" data-name="Trazado 125050" d="M1130.463,201.391l7.182-13.93-2.323-1.4,17.1-29.673-30.586,4.94v26.241l5.244,1v13.44Z" transform="translate(-102.325 -6.603)" fill="#c03966" opacity="0.5" style="mix-blend-mode: multiply;isolation: isolate"/>
      <path id="Trazado_125051" data-name="Trazado 125051" d="M888.259,265.755l-16.2,23.66-1.754.241V268.77Z" transform="translate(-44.439 -31.772)" fill="#c03966" opacity="0.5" style="mix-blend-mode: multiply;isolation: isolate"/>
      <path id="Trazado_125052" data-name="Trazado 125052" d="M1101.767,128.816,1094.18,157l-23.433,3.593-.83-25.853Z" transform="translate(-90.377 -0.258)" fill="#c03966" opacity="0.5" style="mix-blend-mode: multiply;isolation: isolate"/>
      <path id="Trazado_125053" data-name="Trazado 125053" d="M981.505,196.494V174.9l23.666-4.848-.19-5.935.928-.173-.928-26.636,30.566-7.118,17.742,4.006-17.742-4.63-31.166,7.442,1.3,26.673-1.2.263.241,5.748L981,174.847Z" transform="translate(-69.913 -0.432)" fill="#ffe9d3"/>
      <path id="Trazado_125054" data-name="Trazado 125054" d="M1082.17,132.727l22.417-4.169,61.393,15.888-61.393-16.752Z" transform="translate(-93.197 0)" fill="#ffe9d3"/>
      <path id="Trazado_125055" data-name="Trazado 125055" d="M1191.4,164.546l30.064,8.795-1.381,21.7,2.139-22.492Z" transform="translate(-118.335 -8.481)" fill="#ffe9d3"/>
      <path id="Trazado_125056" data-name="Trazado 125056" d="M705.223,208.753l.962-2.528,20.29-.722H705.693l-1.244,3.23Z" transform="translate(-6.27 -17.906)" fill="#ffe9d3"/>
      <path id="Trazado_125057" data-name="Trazado 125057" d="M688.31,341.364l-10.019-37.031L874.852,277.3l16.01-25.717,41.895-10.238-44.122,9.976-14.5,25.128L677.2,303.685Z" transform="translate(0 -26.155)" fill="#ffe9d3"/>
      <path id="Trazado_125058" data-name="Trazado 125058" d="M908.563,261.854V236.188l29.522-4.956-28.708,5.553-.1,25.069Z" transform="translate(-53.244 -23.827)" fill="#ffe9d3"/>
      <path id="Trazado_125059" data-name="Trazado 125059" d="M966.814,211.137l-24.781-3.64-22.023,4.1.52,16.187-1.159-16.388,22.662-4.5Z" transform="translate(-55.731 -18.227)" fill="#ffe9d3"/>
    </g>
  </g>
</svg>
