<svg id="Layer_1" data-name="Layer 1" xmlns="http://www.w3.org/2000/svg" viewBox="0 0 1240 936.4"><defs><style>.cls-1{fill:#12263f;}.cls-2{font-size:20px;font-family:Roboto-Bold, Roboto;font-weight:700;}.cls-2,.cls-5{fill:#fff;}.cls-3{letter-spacing:0.02em;}.cls-4{fill:#472ea6;}.cls-5{font-size:16px;font-family:Roboto-Regular, Roboto;}.cls-6{fill:#712fa5;}.cls-7{letter-spacing:-0.01em;}.cls-8{letter-spacing:-0.02em;}.cls-9{fill:#f25585;}.cls-10{letter-spacing:-0.01em;}.cls-11{letter-spacing:-0.01em;}.cls-12{letter-spacing:-0.01em;}.cls-13{letter-spacing:0.01em;}.cls-14{letter-spacing:-0.02em;}.cls-15,.cls-16{fill:none;stroke:#bbabf5;stroke-miterlimit:10;}.cls-15{stroke-width:2px;}</style></defs><rect class="cls-1" x="133.07" y="456.36" width="215.92" height="79.04" rx="12.21"/><text class="cls-2" transform="translate(186.42 500.75)">Impo<tspan class="cls-3" x="45.71" y="0">r</tspan><tspan x="53.5" y="0">tación</tspan></text><rect class="cls-4" x="391.2" y="279.99" width="186.43" height="70.08" rx="12.21"/><text class="cls-5" transform="translate(428.44 312.45)">Impo<tspan class="cls-3" x="36.48" y="0">r</tspan><tspan x="42.28" y="0">tación de </tspan><tspan x="30.5" y="19.2">bienes</tspan></text><rect class="cls-6" x="652.57" y="38.33" width="186.43" height="70.08" rx="12.21"/><text class="cls-5" transform="translate(671.29 70.71)"><tspan class="cls-7">P</tspan><tspan x="10.01" y="0">asos pa</tspan><tspan class="cls-8" x="65.98" y="0">r</tspan><tspan x="71.08" y="0">a impo</tspan><tspan class="cls-3" x="119.75" y="0">r</tspan><tspan x="125.55" y="0">tar</tspan><tspan x="25.77" y="19.2" xml:space="preserve"> en Colombia</tspan></text><rect class="cls-6" x="652.57" y="118.89" width="186.43" height="70.08" rx="12.21"/><text class="cls-5" transform="translate(704.09 159.51)">Regímenes</text><rect class="cls-6" x="652.57" y="199.44" width="186.43" height="70.08" rx="12.21"/><text class="cls-5" transform="translate(697.71 240.06)">Modalidades</text><rect class="cls-9" x="908.38" y="199.44" width="186.43" height="70.08" rx="12.21"/><text class="cls-5" transform="translate(922.26 230.46)">Régimen de p<tspan class="cls-10" x="96.91" y="0">r</tspan><tspan x="102.17" y="0">ohibida </tspan><tspan x="34.31" y="19.2">impo</tspan><tspan class="cls-3" x="70.32" y="19.2">r</tspan><tspan x="76.13" y="19.2">tación</tspan></text><rect class="cls-9" x="908.38" y="120.64" width="186.43" height="70.08" rx="12.21"/><text class="cls-5" transform="translate(940.27 151.66)">Régimen de libre<tspan x="16.31" y="19.2">impo</tspan><tspan class="cls-3" x="52.32" y="19.2">r</tspan><tspan x="58.12" y="19.2">tación</tspan></text><rect class="cls-9" x="908.38" y="41.52" width="186.43" height="70.08" rx="12.21"/><text class="cls-5" transform="translate(957.56 72.47)">Régimen de<tspan x="-8.75" y="19.2">licencia pr</tspan><tspan class="cls-11" x="64.01" y="19.2">e</tspan><tspan x="72.39" y="19.2">via</tspan></text><rect class="cls-9" x="908.38" y="623.11" width="186.43" height="70.08" rx="12.21"/><text class="cls-5" transform="translate(953.52 663.73)">Modalidades</text><rect class="cls-9" x="908.38" y="703.66" width="186.43" height="70.08" rx="12.21"/><text class="cls-5" transform="translate(936.5 723.33)">Normati<tspan class="cls-12" x="57.78" y="0">v</tspan><tspan x="65.41" y="0">a pa</tspan><tspan class="cls-8" x="95.76" y="0">r</tspan><tspan x="100.86" y="0">a la </tspan><tspan x="9.35" y="19.2">impo</tspan><tspan class="cls-3" x="45.36" y="19.2">r</tspan><tspan x="51.16" y="19.2">tación de </tspan><tspan x="31.28" y="38.4">se</tspan><tspan class="cls-13" x="48.01" y="38.4">r</tspan><tspan x="53.56" y="38.4">vicios</tspan></text><rect class="cls-6" x="652.57" y="279.99" width="186.43" height="70.08" rx="12.21"/><text class="cls-5" transform="translate(687.6 320.61)">Documentación</text><rect class="cls-6" x="652.57" y="360.54" width="186.43" height="70.08" rx="12.21"/><text class="cls-5" transform="translate(706.69 401.17)">Normati<tspan class="cls-12" x="57.78" y="0">v</tspan><tspan x="65.41" y="0">a</tspan></text><rect class="cls-6" x="652.57" y="441.1" width="186.43" height="70.08" rx="12.21"/><text class="cls-5" transform="translate(706.76 481.72)">Sanciones</text><rect class="cls-6" x="652.57" y="521.65" width="186.43" height="70.08" rx="12.21"/><text class="cls-5" transform="translate(676.16 550.92)">Plan <tspan class="cls-14" x="35.47" y="0">V</tspan><tspan x="45.29" y="0">allejo pa</tspan><tspan class="cls-8" x="104.82" y="0">r</tspan><tspan x="109.92" y="0">a la </tspan><tspan x="24.61" y="19.2">impo</tspan><tspan class="cls-3" x="60.62" y="19.2">r</tspan><tspan x="66.42" y="19.2">tación</tspan></text><rect class="cls-6" x="652.57" y="651.73" width="186.43" height="70.08" rx="12.21"/><text class="cls-5" transform="translate(692.88 692.35)">Gene<tspan class="cls-8" x="36.68" y="0">r</tspan><tspan x="41.78" y="0">alidades</tspan></text><rect class="cls-4" x="391.2" y="659.7" width="186.43" height="70.08" rx="12.21"/><text class="cls-5" transform="translate(428.44 691.98)">Impo<tspan class="cls-3" x="36.48" y="0">r</tspan><tspan x="42.28" y="0">tación de </tspan><tspan x="22.17" y="19.2">se</tspan><tspan class="cls-13" x="38.89" y="19.2">r</tspan><tspan x="44.45" y="19.2">vicios</tspan></text><polyline class="cls-15" points="391.2 310.66 243.92 310.66 243.92 456.36"/><polyline class="cls-15" points="391.2 694.73 243.92 694.73 243.92 535.4"/><polyline class="cls-15" points="839 155.68 873.89 155.68 873.89 73.37 908.77 73.37"/><polyline class="cls-15" points="839 692.88 873.89 692.88 873.89 657.8 908.77 657.8"/><polyline class="cls-15" points="907.95 747.53 873.89 747.53 873.89 692.88 908.77 692.88"/><polyline class="cls-15" points="907.95 234.48 873.89 234.48 873.89 153.93"/><line class="cls-15" x1="873.89" y1="155.68" x2="908.77" y2="155.68"/><line class="cls-15" x1="577.63" y1="315.03" x2="652.57" y2="315.03"/><line class="cls-15" x1="616.67" y1="236.23" x2="652.57" y2="236.23"/><line class="cls-15" x1="616.67" y1="155.68" x2="652.57" y2="155.68"/><line class="cls-15" x1="616.67" y1="393.83" x2="652.57" y2="393.83"/><line class="cls-15" x1="616.67" y1="476.13" x2="652.57" y2="476.13"/><line class="cls-16" x1="579.68" y1="692.84" x2="652.57" y2="692.84"/><polyline class="cls-15" points="652.57 73.37 616.67 73.37 616.67 562.27 652.57 562.27"/></svg>