<svg xmlns="http://www.w3.org/2000/svg" xmlns:xlink="http://www.w3.org/1999/xlink" width="104.229" height="104.229" viewBox="0 0 104.229 104.229">
  <defs>
    <radialGradient id="radial-gradient" cx="0.5" cy="0.5" r="0.5" gradientTransform="matrix(0.926, 0.377, -0.377, 0.926, 0.226, -0.152)" gradientUnits="objectBoundingBox">
      <stop offset="0.804" stop-color="#b2b2b1"/>
      <stop offset="0.9" stop-color="#fff"/>
    </radialGradient>
    <linearGradient id="linear-gradient" x1="0.923" y1="0.896" x2="0.054" y2="0.083" gradientUnits="objectBoundingBox">
      <stop offset="0" stop-color="#472ea6"/>
      <stop offset="1" stop-color="#bb43b0"/>
    </linearGradient>
  </defs>
  <g id="Grupo_124067" data-name="Grupo 124067" transform="translate(-243.287 -760.999)">
    <g id="Grupo_124025" data-name="Grupo 124025" transform="translate(243.287 760.999)">
      <circle id="Elipse_4292" data-name="Elipse 4292" cx="39.981" cy="39.981" r="39.981" transform="translate(0 30.182) rotate(-22.176)" fill="url(#radial-gradient)"/>
      <circle id="Elipse_4293" data-name="Elipse 4293" cx="34.105" cy="34.105" r="34.105" transform="matrix(0.926, -0.378, 0.378, 0.926, 7.643, 33.442)" fill="#fff"/>
      <circle id="Elipse_4294" data-name="Elipse 4294" cx="29.665" cy="29.665" r="29.665" transform="translate(22.449 22.449)" fill="url(#linear-gradient)"/>
    </g>
    <path id="Trazado_227877" data-name="Trazado 227877" d="M5.815,18.271H8.145q2.769,0,2.769-2.71a2.343,2.343,0,0,0-.659-1.721,2.5,2.5,0,0,0-1.86-.667,2.676,2.676,0,0,0-1.707.571,1.743,1.743,0,0,0-.725,1.421H1.025a5.053,5.053,0,0,1,.938-3,6.191,6.191,0,0,1,2.6-2.058,8.89,8.89,0,0,1,3.655-.74,8.735,8.735,0,0,1,5.6,1.626,5.405,5.405,0,0,1,2.036,4.468,4.505,4.505,0,0,1-.842,2.6,6,6,0,0,1-2.454,1.985,5.734,5.734,0,0,1,2.666,1.868,4.919,4.919,0,0,1,.967,3.1,5.5,5.5,0,0,1-2.2,4.57,9.12,9.12,0,0,1-5.771,1.714,9.458,9.458,0,0,1-3.889-.8,6.093,6.093,0,0,1-2.717-2.212,5.751,5.751,0,0,1-.923-3.215H5.654a2.223,2.223,0,0,0,.791,1.7,2.793,2.793,0,0,0,1.948.718,2.925,2.925,0,0,0,2.08-.725,2.424,2.424,0,0,0,.776-1.853,2.833,2.833,0,0,0-.806-2.285,3.368,3.368,0,0,0-2.227-.674h-2.4Z" transform="translate(287 791.771)" fill="#fff"/>
  </g>
</svg>
