<svg xmlns="http://www.w3.org/2000/svg" xmlns:xlink="http://www.w3.org/1999/xlink" width="476.713" height="350.158" viewBox="0 0 476.713 350.158">
  <defs>
    <linearGradient id="linear-gradient" x1="0.265" y1="0.012" x2="0.748" y2="0.994" gradientUnits="objectBoundingBox">
      <stop offset="0" stop-color="#fff6ee"/>
      <stop offset="1" stop-color="#fed2a8"/>
    </linearGradient>
    <linearGradient id="linear-gradient-2" y1="0.501" x2="1" y2="0.501" gradientUnits="objectBoundingBox">
      <stop offset="0" stop-color="#4e7bf4"/>
      <stop offset="1" stop-color="#3556ab"/>
    </linearGradient>
    <linearGradient id="linear-gradient-3" x1="0" y1="0.498" y2="0.498" xlink:href="#linear-gradient-2"/>
    <linearGradient id="linear-gradient-4" x1="0.356" y1="-0.473" x2="1.332" y2="-0.473" gradientUnits="objectBoundingBox">
      <stop offset="0" stop-color="#9182ca"/>
      <stop offset="1" stop-color="#6c58b8"/>
    </linearGradient>
  </defs>
  <g id="Grupo_124073" data-name="Grupo 124073" transform="translate(-838.287 -1628.122)">
    <g id="CF6_paso_copia_4" data-name="CF6_paso copia 4" transform="translate(856.277 1627.982)">
      <rect id="Rectángulo_6650" data-name="Rectángulo 6650" width="350.158" height="350.158" transform="translate(-17.99 0.14)" fill="none"/>
      <g id="Grupo_60301" data-name="Grupo 60301" transform="translate(79.459 18.057)">
        <g id="Grupo_60290" data-name="Grupo 60290" transform="translate(124.528)">
          <path id="Trazado_123989" data-name="Trazado 123989" d="M383.711,76.085c2.008-17.345-15.675-21.535-15.675-21.535-10.143,3.245-15.687,19.2-15.909,29.1,0,2.229-.374,8.859-.887,18.267l18.115,5.4C379.358,98.612,382.031,90.6,383.711,76.085Z" transform="translate(-142.254 -8.96)" fill="#9182ca"/>
          <g id="Grupo_60289" data-name="Grupo 60289" transform="translate(13.703 19.048)">
            <path id="Trazado_123990" data-name="Trazado 123990" d="M238.753,31.81c-8.31,5.019-12.839,18.815-13,27.768-.257,12.571-9.559,165.2-9.559,165.2S214.5,271.47,183.93,274l172.826,51.508c26.04-6.676,27.557-48.439,27.557-48.439s5.673-93.014,8.275-139.807c.735-13.143,1.226-22.644,1.284-25.4.2-9.944,5.743-25.853,15.885-29.1l-145.9-43.478Z" transform="translate(-183.93 -31.81)" fill="#b5abdb"/>
            <path id="Trazado_123991" data-name="Trazado 123991" d="M394.948,92.3c2.008-17.356-15.675-21.546-15.675-21.546-10.143,3.245-15.687,19.154-15.885,29.1,0,2.229-.374,8.871-.887,18.278l18.092,5.439C390.594,114.823,393.267,106.8,394.948,92.3Z" transform="translate(-154.074 -25.299)" fill="#9182ca"/>
          </g>
          <path id="Trazado_123992" data-name="Trazado 123992" d="M252.084,17.6l-3.735-1.167h0s-10.575-3.175-20.1,2.113h0c-6.408,3.56-12.676,10.5-14.462,24.138-1.366,29.086-9.338,160.361-9.338,160.361s-1.692,46.688-32.261,49.221l172.8,51.508c26.04-6.676,27.557-48.439,27.557-48.439s5.673-93.025,8.275-139.807c.712-13.073,1.237-22.6,1.237-25.351.2-9.944,5.743-25.853,15.885-29.1Z" transform="translate(-172.19 -15.49)" fill="url(#linear-gradient)"/>
        </g>
        <path id="Trazado_123993" data-name="Trazado 123993" d="M256.68,57.75Z" transform="translate(-33.536 -8.425)" fill="#3071ff"/>
        <g id="Grupo_60291" data-name="Grupo 60291" transform="translate(180.553 33.031)">
          <path id="Trazado_123994" data-name="Trazado 123994" d="M225.24,47.443,289.739,68l.187-3.653-64.5-20.554Z" transform="translate(-219.346 -43.79)" fill="#717d8c" fill-rule="evenodd"/>
          <path id="Trazado_123995" data-name="Trazado 123995" d="M224.85,55.183l13.061,4.155.187-3.653L225.037,51.53Z" transform="translate(-219.411 -42.496)" fill="#717d8c" fill-rule="evenodd"/>
          <path id="Trazado_123996" data-name="Trazado 123996" d="M224.46,62.9,252.379,71.8l.187-3.653L224.647,59.25Z" transform="translate(-219.476 -41.205)" fill="#717d8c" fill-rule="evenodd"/>
          <path id="Trazado_123997" data-name="Trazado 123997" d="M230.08,72.553,252.9,79.825l.187-3.653L230.267,68.9Z" transform="translate(-218.536 -39.592)" fill="#717d8c" fill-rule="evenodd"/>
          <path id="Trazado_123998" data-name="Trazado 123998" d="M229.69,80.273l22.83,7.272.175-3.653L229.877,76.62Z" transform="translate(-218.602 -38.301)" fill="#717d8c" fill-rule="evenodd"/>
          <path id="Trazado_123999" data-name="Trazado 123999" d="M242.87,92.333l22.212,7.073.175-3.653-22.2-7.073Z" transform="translate(-216.398 -36.285)" fill="#717d8c" fill-rule="evenodd"/>
          <path id="Trazado_124000" data-name="Trazado 124000" d="M243.03,60.972l41.377,13.178.187-3.653L243.217,57.33Z" transform="translate(-216.371 -41.526)" fill="#717d8c" fill-rule="evenodd"/>
          <path id="Trazado_124001" data-name="Trazado 124001" d="M283.53,73.873l19.749,6.291.187-3.653L283.717,70.22Z" transform="translate(-209.6 -39.371)" fill="#717d8c" fill-rule="evenodd"/>
          <path id="Trazado_124002" data-name="Trazado 124002" d="M306.88,81.313l26.67,8.5.187-3.653-26.67-8.5Z" transform="translate(-205.696 -38.127)" fill="#717d8c" fill-rule="evenodd"/>
          <path id="Trazado_124003" data-name="Trazado 124003" d="M253.99,72.3l23.274,7.412.187-3.653-23.286-7.4Z" transform="translate(-214.539 -39.632)" fill="#717d8c" fill-rule="evenodd"/>
          <path id="Trazado_124004" data-name="Trazado 124004" d="M255.6,80.683l13.329,4.249.187-3.665L255.787,77.03Z" transform="translate(-214.27 -38.232)" fill="#717d8c" fill-rule="evenodd"/>
          <path id="Trazado_124005" data-name="Trazado 124005" d="M255.22,88.4l22.819,7.272.187-3.653L255.407,84.75Z" transform="translate(-214.333 -36.942)" fill="#717d8c" fill-rule="evenodd"/>
          <path id="Trazado_124006" data-name="Trazado 124006" d="M272.45,86.053l25.363,8.077L298,90.477,272.637,82.4Z" transform="translate(-211.452 -37.335)" fill="#717d8c" fill-rule="evenodd"/>
          <path id="Trazado_124007" data-name="Trazado 124007" d="M298.53,94.353,311.836,98.6l.187-3.653L298.717,90.7Z" transform="translate(-207.092 -35.947)" fill="#717d8c" fill-rule="evenodd"/>
          <path id="Trazado_124008" data-name="Trazado 124008" d="M314.83,99.555l16.481,5.241.187-3.653L315.017,95.89Z" transform="translate(-204.367 -35.079)" fill="#717d8c" fill-rule="evenodd"/>
          <path id="Trazado_124009" data-name="Trazado 124009" d="M279.12,96.013l28.83,9.186.187-3.653-28.83-9.186Z" transform="translate(-210.337 -35.669)" fill="#717d8c" fill-rule="evenodd"/>
          <path id="Trazado_124010" data-name="Trazado 124010" d="M307.51,105.063l8.6,2.743.187-3.665-8.6-2.731Z" transform="translate(-205.591 -34.156)" fill="#717d8c" fill-rule="evenodd"/>
          <path id="Trazado_124011" data-name="Trazado 124011" d="M267.33,100.123l16.5,5.264.187-3.653-16.5-5.264Z" transform="translate(-212.308 -34.982)" fill="#717d8c" fill-rule="evenodd"/>
          <path id="Trazado_124012" data-name="Trazado 124012" d="M228.52,103.463l22.83,7.272.187-3.653-22.83-7.272Z" transform="translate(-218.797 -34.424)" fill="#717d8c" fill-rule="evenodd"/>
          <path id="Trazado_124013" data-name="Trazado 124013" d="M228.13,111.2l22.83,7.272.187-3.653-22.83-7.272Z" transform="translate(-218.862 -33.13)" fill="#717d8c" fill-rule="evenodd"/>
          <path id="Trazado_124014" data-name="Trazado 124014" d="M254.05,111.593l13.318,4.249.187-3.653-13.318-4.249Z" transform="translate(-214.529 -33.064)" fill="#717d8c" fill-rule="evenodd"/>
          <path id="Trazado_124015" data-name="Trazado 124015" d="M253.66,119.333l20.554,6.548.187-3.642-20.554-6.56Z" transform="translate(-214.594 -31.77)" fill="#717d8c" fill-rule="evenodd"/>
          <path id="Trazado_124016" data-name="Trazado 124016" d="M270.9,116.963l19.5,6.209.187-3.653-19.5-6.209Z" transform="translate(-211.712 -32.167)" fill="#717d8c" fill-rule="evenodd"/>
          <path id="Trazado_124017" data-name="Trazado 124017" d="M290.94,123.353l10.26,3.268.187-3.653-10.26-3.268Z" transform="translate(-208.361 -31.098)" fill="#717d8c" fill-rule="evenodd"/>
          <path id="Trazado_124018" data-name="Trazado 124018" d="M303.49,127.343l12.687,4.038.187-3.642-12.687-4.05Z" transform="translate(-206.263 -30.431)" fill="#717d8c" fill-rule="evenodd"/>
          <path id="Trazado_124019" data-name="Trazado 124019" d="M288.42,130.4l22.842,7.283.187-3.653L288.6,126.75Z" transform="translate(-208.782 -29.92)" fill="#717d8c" fill-rule="evenodd"/>
          <path id="Trazado_124020" data-name="Trazado 124020" d="M227.75,118.923l22.83,7.272.175-3.653-22.83-7.272Z" transform="translate(-218.926 -31.839)" fill="#717d8c" fill-rule="evenodd"/>
          <path id="Trazado_124021" data-name="Trazado 124021" d="M227.36,126.665l22.83,7.272.175-3.653L227.547,123Z" transform="translate(-218.991 -30.547)" fill="#717d8c" fill-rule="evenodd"/>
          <path id="Trazado_124022" data-name="Trazado 124022" d="M253.28,127.053,266.6,131.3l.175-3.653L253.455,123.4Z" transform="translate(-214.658 -30.48)" fill="#717d8c" fill-rule="evenodd"/>
          <path id="Trazado_124023" data-name="Trazado 124023" d="M252.89,134.793l41.844,13.329.187-3.653L253.065,131.14Z" transform="translate(-214.723 -29.186)" fill="#717d8c" fill-rule="evenodd"/>
          <path id="Trazado_124024" data-name="Trazado 124024" d="M270.12,132.423l25.363,8.089.187-3.653-25.363-8.089Z" transform="translate(-211.842 -29.582)" fill="#717d8c" fill-rule="evenodd"/>
          <path id="Trazado_124025" data-name="Trazado 124025" d="M296.2,140.733l13.306,4.237.187-3.653-13.306-4.237Z" transform="translate(-207.482 -28.192)" fill="#717d8c" fill-rule="evenodd"/>
          <path id="Trazado_124026" data-name="Trazado 124026" d="M312.5,145.923l16.481,5.252.187-3.653-16.492-5.252Z" transform="translate(-204.756 -27.325)" fill="#717d8c" fill-rule="evenodd"/>
          <path id="Trazado_124027" data-name="Trazado 124027" d="M293.09,147.605l23.472,7.482.175-3.653-23.461-7.493Z" transform="translate(-208.002 -27.045)" fill="#717d8c" fill-rule="evenodd"/>
          <path id="Trazado_124028" data-name="Trazado 124028" d="M275.19,126.192l9.723,3.1.187-3.653-9.723-3.093Z" transform="translate(-210.994 -30.622)" fill="#717d8c" fill-rule="evenodd"/>
          <path id="Trazado_124029" data-name="Trazado 124029" d="M220.58,140.2l13.061,4.167.187-3.653-13.061-4.155Z" transform="translate(-220.125 -28.279)" fill="#717d8c" fill-rule="evenodd"/>
          <path id="Trazado_124030" data-name="Trazado 124030" d="M220.19,147.923l27.919,8.894.187-3.653-27.919-8.894Z" transform="translate(-220.19 -26.99)" fill="#717d8c" fill-rule="evenodd"/>
          <path id="Trazado_124031" data-name="Trazado 124031" d="M225.81,157.573l22.819,7.272.187-3.642-22.83-7.283Z" transform="translate(-219.25 -25.377)" fill="#717d8c" fill-rule="evenodd"/>
          <path id="Trazado_124032" data-name="Trazado 124032" d="M225.42,165.317l22.819,7.272.187-3.677L225.6,161.64Z" transform="translate(-219.316 -24.086)" fill="#717d8c" fill-rule="evenodd"/>
          <path id="Trazado_124033" data-name="Trazado 124033" d="M238.6,177.363l22.2,7.062.187-3.653-22.2-7.061Z" transform="translate(-217.112 -22.068)" fill="#717d8c" fill-rule="evenodd"/>
          <path id="Trazado_124034" data-name="Trazado 124034" d="M238.76,146l22.959,7.307.175-3.653-22.947-7.307Z" transform="translate(-217.085 -27.311)" fill="#717d8c" fill-rule="evenodd"/>
          <path id="Trazado_124035" data-name="Trazado 124035" d="M263.46,153.873l11.59,3.688.187-3.653-11.59-3.688Z" transform="translate(-212.956 -25.996)" fill="#717d8c" fill-rule="evenodd"/>
          <path id="Trazado_124036" data-name="Trazado 124036" d="M279.82,159.085l36.872,11.742.187-3.653L280.007,155.42Z" transform="translate(-210.22 -25.126)" fill="#717d8c" fill-rule="evenodd"/>
          <path id="Trazado_124037" data-name="Trazado 124037" d="M249.71,157.333,273,164.745l.175-3.653L249.9,153.68Z" transform="translate(-215.254 -25.417)" fill="#717d8c" fill-rule="evenodd"/>
          <path id="Trazado_124038" data-name="Trazado 124038" d="M251.33,165.7l26.005,8.287.187-3.642-26.005-8.3Z" transform="translate(-214.984 -24.018)" fill="#717d8c" fill-rule="evenodd"/>
          <path id="Trazado_124039" data-name="Trazado 124039" d="M250.94,173.457l17.753,5.649.187-3.677-17.753-5.649Z" transform="translate(-215.049 -22.725)" fill="#717d8c" fill-rule="evenodd"/>
          <path id="Trazado_124040" data-name="Trazado 124040" d="M279.04,174.543l19.329,6.151.187-3.653-19.329-6.151Z" transform="translate(-210.351 -22.54)" fill="#717d8c" fill-rule="evenodd"/>
          <path id="Trazado_124041" data-name="Trazado 124041" d="M270.5,179.675l33.907,10.808.175-3.677-33.907-10.8Z" transform="translate(-211.778 -21.684)" fill="#717d8c" fill-rule="evenodd"/>
          <path id="Trazado_124042" data-name="Trazado 124042" d="M303.23,190.118l8.614,2.743.187-3.677-8.614-2.755Z" transform="translate(-206.306 -19.941)" fill="#717d8c" fill-rule="evenodd"/>
          <path id="Trazado_124043" data-name="Trazado 124043" d="M263.06,185.143l16.5,5.264.175-3.653-16.5-5.264Z" transform="translate(-213.022 -20.767)" fill="#717d8c" fill-rule="evenodd"/>
          <path id="Trazado_124044" data-name="Trazado 124044" d="M280.33,190.653l30.732,9.781.175-3.642L280.517,187Z" transform="translate(-210.135 -19.846)" fill="#717d8c" fill-rule="evenodd"/>
          <path id="Trazado_124045" data-name="Trazado 124045" d="M310.57,200.283l9.186,2.93.187-3.653-9.186-2.93Z" transform="translate(-205.079 -18.236)" fill="#717d8c" fill-rule="evenodd"/>
          <path id="Trazado_124046" data-name="Trazado 124046" d="M224.25,184.493l22.83,7.272.187-3.653-22.83-7.272Z" transform="translate(-219.511 -20.876)" fill="#717d8c" fill-rule="evenodd"/>
          <path id="Trazado_124047" data-name="Trazado 124047" d="M249.78,192.622,287.352,204.6l.187-3.653L249.967,188.98Z" transform="translate(-215.243 -19.515)" fill="#717d8c" fill-rule="evenodd"/>
        </g>
        <g id="Grupo_60292" data-name="Grupo 60292" transform="translate(132.714 52.488)">
          <path id="Trazado_124048" data-name="Trazado 124048" d="M220.92,143.4q12.431-2.171,20.3-9.571c5.532-5.229,9.338-12.407,11.415-21.593A61.312,61.312,0,0,0,253.8,101.1c.187-5.124.058-10.353.07-15.535L220.92,60.46l-13.785,1.272c-1,17.893-2.334,40.922-3.665,62.807A100.462,100.462,0,0,0,220.92,143.4Z" transform="translate(-175.146 -60.46)" fill="#184eae" opacity="0.56"/>
          <path id="Trazado_124049" data-name="Trazado 124049" d="M243.862,121.137A60.283,60.283,0,0,0,245.029,110c.187-5.124,0-10.353.07-15.535L212.161,69.36l-25.3,2.334-7.622.7c0,5.194-.105,10.341.07,15.582a74.7,74.7,0,0,0,1.167,11.905c4,20.578,14.683,38.039,31.7,52.419q12.431-2.171,20.3-9.571C237.991,137.5,241.808,130.323,243.862,121.137Z" transform="translate(-179.203 -58.972)" fill="#fff"/>
          <path id="Trazado_124050" data-name="Trazado 124050" d="M185.466,79.568c0,4.05-.093,8.054,0,12.139a59.139,59.139,0,0,0,.9,9.338c3.128,16.037,11.45,29.647,24.71,40.852V77.21Z" transform="translate(-178.163 -57.659)" fill="#72bbf2"/>
          <path id="Trazado_124051" data-name="Trazado 124051" d="M232.16,117.548a48.419,48.419,0,0,0,.9-8.684c.14-3.98,0-8.065,0-12.092L207.38,77.21v64.628C220.709,139.515,229.031,131.485,232.16,117.548Z" transform="translate(-174.492 -57.659)" fill="#4ca4e6"/>
          <path id="Trazado_124052" data-name="Trazado 124052" d="M252.717,89.826l-32.9-25.106L187.2,67.731l-7.972,5.486,32.927-3.035,32.927,25.106c0,5.182.117,10.411-.07,15.535a60.28,60.28,0,0,1-1.167,11.135c-2.054,9.186-5.836,16.341-11.4,21.593,9.758-5.1,16.154-14.076,19.049-27.009a62.491,62.491,0,0,0,1.167-11.147C252.833,100.238,252.7,95.009,252.717,89.826Z" transform="translate(-179.199 -59.748)" fill="#173d7a"/>
          <path id="Trazado_124053" data-name="Trazado 124053" d="M197.3,112.252v-.093l.525-2.486a2.428,2.428,0,0,1,2.334-2.171l4.19-.268a1.3,1.3,0,0,0,.969-.514,4.19,4.19,0,0,0,.77-2.008.537.537,0,0,0-.117-.338,6.77,6.77,0,0,1-1.517-3.432.794.794,0,0,0-.28-.572.828.828,0,0,1-.222-.362c-.2-.642-.385-1.284-.549-1.938s-.105-1.074.315-1.354V95.234a17.056,17.056,0,0,1,0-2.183,3.56,3.56,0,0,1,3.583-3.5,9.6,9.6,0,0,1,1.167.082l.537.152.3.152a14.774,14.774,0,0,1,1.587.84,4.272,4.272,0,0,1,1.809,2.334,2.685,2.685,0,0,0,.432.805,4.19,4.19,0,0,1,.805,2.334c.07,1.085.105,2.159.152,3.233a.794.794,0,0,0,.175.49,1.471,1.471,0,0,1,.385,1,7.073,7.073,0,0,1-.432,2.1.408.408,0,0,1-.222.222c-.175,0-.222.21-.233.4a3.163,3.163,0,0,1-1.237,2.615c-.128.093-.163.2-.105.4.163.5.292,1,.49,1.494a4.412,4.412,0,0,0,1.844,2.264c1.342.794,2.65,1.681,3.98,2.533a5.836,5.836,0,0,1,2.544,3.408c.268.98.514,1.961.759,2.93a.806.806,0,0,1,0,.233c-.058.3-.245.373-.677.245l-23.344-6.8a1.062,1.062,0,0,1-.724-.759Z" transform="translate(-176.178 -55.596)" fill="#fff"/>
        </g>
        <path id="Trazado_124054" data-name="Trazado 124054" d="M306.981,244.9a7.937,7.937,0,0,1-3.5-2.334,10.609,10.609,0,0,1-3.07-5.964c-.2-4.073,4.914-4.984,9.419-5.836,2.895-.514,6.174-1.1,5.988-2.4-.14-.992-2.264-3.081-6.058-5.136-4.435-2.4-9.874-3.992-11.228-2.183-.607.817-.21,2.136.5,4.237s1.611,4.774.805,7.12c-1.167,3.5-5.649,4.809-13.2,3.922a1.167,1.167,0,0,1-.934-.922c-.093-.467.175-.794.6-.747q10.5,1.208,12.034-3.245c.642-1.856-.07-3.992-.77-6.058s-1.412-4.2-.374-5.591c.864-1.167,2.731-1.471,5.427-.9a28.806,28.806,0,0,1,7.447,2.895c1.611.875,6.886,3.957,7.307,6.886.362,2.509-2.976,3.1-6.828,3.793-4.085.724-8.707,1.552-8.556,4.575a8.171,8.171,0,0,0,2.393,4.517,5.205,5.205,0,0,0,2.731,1.774c1.167,0,1.7-2.194,2.124-3.992.514-2.124.992-4.144,2.626-3.817,1.354.268,2.276,1.926,3.257,3.677s2.019,3.63,3.42,4.19c1.039.42,2.206.07,3.443-1.039.268-.245.77-.117,1.1.268a.875.875,0,0,1,.117,1.167,4.377,4.377,0,0,1-4.75,1.167c-2.159-.864-3.5-3.315-4.669-5.276-.56-1.015-1.342-2.416-1.751-2.5s-1,1.786-1.3,3.035c-.549,2.334-1.167,4.867-3.21,4.8A2.332,2.332,0,0,1,306.981,244.9Z" transform="translate(-28.686 18.465)" fill="#fff"/>
        <g id="Grupo_60295" data-name="Grupo 60295" transform="translate(161.959 202.665)">
          <path id="Trazado_124055" data-name="Trazado 124055" d="M231.352,222.571a11.858,11.858,0,0,0,1.424-1.027h0l.128-.105.058-.058.128-.105h0c.14-.128.28-.268.409-.409h.058l.105-.117.07-.07.105-.117.058-.07.117-.117v-.058l.21-.245V220l.093-.117.07-.093.093-.117.07-.093a.42.42,0,0,0,.082-.117l.082-.093a.421.421,0,0,1,.082-.117l.14-.2.07-.105.082-.128.07-.105.07-.128.07-.105.082-.14a.655.655,0,0,0,.058-.093l.105-.187v-.093l.105-.2v-.093l.082-.163v-.105l.07-.152.058-.105a.206.206,0,0,1,.082-.187v-.07c0-.093.082-.175.117-.268v-.07s.058-.128.082-.2v-.093a1.286,1.286,0,0,1,.082-.187v-.093l.07-.2V215.7l.105-.28c2.953-8.556-.782-19.469-8.334-24.371l-.233-.152h0l-.245-.152h0l-.222-.128h0l-.233-.128h0l-.187-.105h-.07l-.222-.117h-.07l-.175-.082h-.082l-.21-.105h-.093l-.163-.07-.128-.058-.152-.058h-.245l-.187-.07h-.105l-.128-.058h-.082l-.245-.082h-.07l-.479-.14h0l-.5-.117h0a12.267,12.267,0,0,0-3.945-.233,13.383,13.383,0,0,0-1.949.385,12.839,12.839,0,0,0-8.322,8.532c-2.953,8.556.77,19.469,8.322,24.371a12.652,12.652,0,0,0,11.473,1.646,10.761,10.761,0,0,0,2.241-1.552Z" transform="translate(-203.583 -189.125)" fill="#184eae" opacity="0.56"/>
          <g id="Grupo_60294" data-name="Grupo 60294" transform="translate(0 1.264)">
            <g id="Grupo_60293" data-name="Grupo 60293">
              <path id="Trazado_124056" data-name="Trazado 124056" d="M226.58,212.41l-.07.175Z" transform="translate(-200.539 -186.495)" fill="none"/>
              <path id="Trazado_124057" data-name="Trazado 124057" d="M226.412,212.85l-.082.175Z" transform="translate(-200.569 -186.421)" fill="none"/>
              <path id="Trazado_124058" data-name="Trazado 124058" d="M226.682,212.12a.337.337,0,0,1-.082.257C226.623,212.283,226.658,212.2,226.682,212.12Z" transform="translate(-200.524 -186.543)" fill="none"/>
              <path id="Trazado_124059" data-name="Trazado 124059" d="M226.325,213.06l-.105.233Z" transform="translate(-200.587 -186.386)" fill="none"/>
              <path id="Trazado_124060" data-name="Trazado 124060" d="M226.48,212.63a.678.678,0,0,1,0,.163.677.677,0,0,0,0-.163Z" transform="translate(-200.544 -186.458)" fill="none"/>
              <path id="Trazado_124061" data-name="Trazado 124061" d="M226.2,213.32a.711.711,0,0,1-.082.163.711.711,0,0,0,.082-.163Z" transform="translate(-200.604 -186.343)" fill="none"/>
              <path id="Trazado_124062" data-name="Trazado 124062" d="M224.15,216.33Z" transform="translate(-200.933 -185.839)" fill="none"/>
              <path id="Trazado_124063" data-name="Trazado 124063" d="M224.28,216.19v.058Z" transform="translate(-200.912 -185.863)" fill="none"/>
              <path id="Trazado_124064" data-name="Trazado 124064" d="M224.42,216v.07Z" transform="translate(-200.888 -185.895)" fill="none"/>
              <path id="Trazado_124065" data-name="Trazado 124065" d="M224.54,215.91Z" transform="translate(-200.868 -185.91)" fill="none"/>
              <path id="Trazado_124066" data-name="Trazado 124066" d="M224.74,215.66v.07Z" transform="translate(-200.835 -185.952)" fill="none"/>
              <path id="Trazado_124067" data-name="Trazado 124067" d="M223.79,216.68Z" transform="translate(-200.993 -185.781)" fill="none"/>
              <path id="Trazado_124068" data-name="Trazado 124068" d="M226.1,213.54l-.07.14Z" transform="translate(-200.619 -186.306)" fill="none"/>
              <path id="Trazado_124069" data-name="Trazado 124069" d="M224.88,215.51l-.07.07Z" transform="translate(-200.823 -185.977)" fill="none"/>
              <path id="Trazado_124070" data-name="Trazado 124070" d="M226.012,213.74a.879.879,0,0,0-.082.14.876.876,0,0,1,.082-.14Z" transform="translate(-200.636 -186.273)" fill="none"/>
              <path id="Trazado_124071" data-name="Trazado 124071" d="M225.008,215.34l-.058.093Z" transform="translate(-200.8 -186.005)" fill="none"/>
              <path id="Trazado_124072" data-name="Trazado 124072" d="M225.773,214.17a.747.747,0,0,0-.093.163A.747.747,0,0,1,225.773,214.17Z" transform="translate(-200.677 -186.201)" fill="none"/>
              <path id="Trazado_124073" data-name="Trazado 124073" d="M225.893,213.94a1.27,1.27,0,0,1-.093.175,1.269,1.269,0,0,0,.093-.175Z" transform="translate(-200.657 -186.239)" fill="none"/>
              <path id="Trazado_124074" data-name="Trazado 124074" d="M225.64,214.39l-.07.117Z" transform="translate(-200.696 -186.164)" fill="none"/>
              <path id="Trazado_124075" data-name="Trazado 124075" d="M225.308,214.93a1.064,1.064,0,0,0-.128.187A1.064,1.064,0,0,1,225.308,214.93Z" transform="translate(-200.761 -186.074)" fill="none"/>
              <path id="Trazado_124076" data-name="Trazado 124076" d="M225.53,214.57l-.07.117Z" transform="translate(-200.714 -186.134)" fill="none"/>
              <path id="Trazado_124077" data-name="Trazado 124077" d="M225.13,215.17l-.07.093Z" transform="translate(-200.781 -186.033)" fill="none"/>
              <path id="Trazado_124078" data-name="Trazado 124078" d="M225.41,214.75l-.07.117Z" transform="translate(-200.734 -186.104)" fill="none"/>
              <path id="Trazado_124079" data-name="Trazado 124079" d="M233.376,214.325c2.673-7.727-.689-17.578-7.505-22a11.485,11.485,0,0,0-10.05-1.6h0l-3.852,1.331a10.808,10.808,0,0,1,1.751-.35,10.938,10.938,0,0,1,3.572.21h0l.455.105h0l.432.128h.07l.222.07h.28l.175.058h.479l.14.07h.082l.2.082h0l.163.082h.07l.2.093h.058l.175.093h0l.21.117h0l.2.117h0l.222.128h0l.222.14c6.816,4.424,10.178,14.275,7.505,22a.337.337,0,0,1-.082.257v.082l-.07.175v.082a.677.677,0,0,1,0,.163v.093l-.082.175v.07l-.105.233v.07a.712.712,0,0,1-.082.163v.093l-.07.14v.093a.878.878,0,0,0-.082.14v.093a1.272,1.272,0,0,1-.093.175v.093a.748.748,0,0,0-.093.163l-.058.093-.07.117v.093l-.07.117-.07.093-.07.117a.41.41,0,0,0-.058.093,1.064,1.064,0,0,0-.128.187l-.07.093-.07.093-.082.105-.058.093-.082.105-.07.07-.082.105v.07a1.7,1.7,0,0,0-.187.222h0l-.093.105v.07l-.105.105v.058l-.105.105h0l-.374.362h0l-.117.093h0l-.117.105h0a9.709,9.709,0,0,1-1.284.934,10.5,10.5,0,0,1-1.786.875l3.653-1.261h0A11.532,11.532,0,0,0,233.376,214.325Z" transform="translate(-202.97 -190.207)" fill="#26bad3"/>
              <path id="Trazado_124080" data-name="Trazado 124080" d="M225.4,222.046a9.71,9.71,0,0,0,1.284-.934h0l.117-.105h0l.117-.093h0l.374-.362h0l.105-.105v-.058l.105-.105v-.07l.093-.105h0a1.7,1.7,0,0,1,.187-.222v-.07l.082-.105.07-.07.082-.105.058-.093.082-.105.07-.093.07-.093a1.062,1.062,0,0,1,.128-.187.409.409,0,0,1,.058-.093l.07-.117.07-.093.07-.117v-.093l.07-.117.058-.093a.747.747,0,0,1,.093-.163v-.093a1.269,1.269,0,0,0,.093-.175v-.093a.879.879,0,0,1,.082-.14v-.093l.07-.14v-.093a.711.711,0,0,0,.082-.163v-.07l.105-.233v-.07l.082-.175v-.093a.676.676,0,0,0,0-.163V216.2l.07-.175v-.082a.944.944,0,0,1,.082-.257c2.673-7.727-.689-17.578-7.505-22l-.222-.14h0l-.222-.128h0l-.2-.117h0l-.21-.117h0l-.175-.093h-.058l-.2-.093h-.07l-.163-.082h0l-.2-.082h-.082l-.14-.07h-.479l-.175-.058h-.28l-.222-.07h-.07l-.432-.128h0l-.455-.105h0a10.937,10.937,0,0,0-3.572-.21,10.806,10.806,0,0,0-1.751.35,11.579,11.579,0,0,0-7.528,7.7c-2.661,7.727.7,17.578,7.517,22a11.473,11.473,0,0,0,10.365,1.482A10.5,10.5,0,0,0,225.4,222.046Z" transform="translate(-204.259 -189.886)" fill="#173d7a"/>
            </g>
            <path id="Trazado_124081" data-name="Trazado 124081" d="M213.923,211.472a.84.84,0,0,1-.514-.409l-3.992-7.12a.992.992,0,0,1,.28-1.272.794.794,0,0,1,1.167.292l3.56,6.338,9.629-6.606a.794.794,0,0,1,1.167.28.98.98,0,0,1-.28,1.272l-10.353,7.1A.806.806,0,0,1,213.923,211.472Z" transform="translate(-203.417 -188.148)" fill="#fff"/>
          </g>
        </g>
        <g id="Grupo_60297" data-name="Grupo 60297" transform="translate(0 282.939)">
          <path id="Trazado_124082" data-name="Trazado 124082" d="M120.5,276.907c0-.56-.922-1.05-2.113-1.109l-4.6-.21a2.827,2.827,0,0,1-.549-.07,1.879,1.879,0,0,1-1.167-.572c-.152-.21-.315-.42-.49-.619a.629.629,0,0,1,.374-.945l3.326-1.389c.42-.175.642-.42.654-.677s-.175-.537-.6-.759l-5.182-2.731a4.05,4.05,0,0,0-3.046-.14l-3.338,1.389a3.4,3.4,0,0,1-1.973.093l-1.4-.338c-.677-.152-1.1-.479-1.085-.829l.105-2.183c0-.56-.922-1.062-2.113-1.109l-7.493-.35c-1.167,0-2.171.362-2.194.922l-.035,2.159c0,.362-.525.642-1.249.735-.455.058-.9.128-1.342.21a3.432,3.432,0,0,1-2.031-.257l-3.2-1.669a3.968,3.968,0,0,0-3.035-.14l-5.4,2.288c-.455.187-.677.467-.654.747a.981.981,0,0,0,.6.677l3.221,1.692c.5.268.642.642.338.945s-.42.432-.6.63a1.891,1.891,0,0,1-1.167.444,2.505,2.505,0,0,1-.514,0l-4.669-.2c-1.167-.058-2.171.35-2.194.91l-.128,3.128v.362c0,.56.922,1.05,2.113,1.167l4.6.2a2.334,2.334,0,0,1,1.657.642c.152.21.327.42.5.63a.629.629,0,0,1-.373.945l-3.315,1.354c-.864.362-.887,1-.058,1.436l5.194,2.731a3.968,3.968,0,0,0,3.035.14l3.35-1.4a3.5,3.5,0,0,1,1.961-.082l1.4.327c.677.163,1.109.49,1.085.829l-.093,2.194c0,.56.922,1.05,2.113,1.167l7.493.339c1.167,0,2.171-.362,2.194-.922l.093-2.159c0-.362.514-.642,1.237-.747a7.921,7.921,0,0,0,1.284-.187,3.5,3.5,0,0,1,2.031.257l3.186,1.669a3.992,3.992,0,0,0,3.046.14l5.4-2.253c.852-.362.887-1,0-1.436l-3.1-1.751c-.5-.268-.63-.63-.338-.934.5-.514,1.027-1.167,1.05-1.167l5.836.268c1.167.058,2.113-.327,2.194-.864Zm-17.076,1.9a4.179,4.179,0,0,1-1.249,1.471c-2.615,2-8.17,2.766-13.189,1.611a11.672,11.672,0,0,1-5.311-2.486,2.883,2.883,0,0,1-1.039-3.373,3.736,3.736,0,0,1,.945-1.237c2.451-2.183,8.275-3.07,13.493-1.868a11.287,11.287,0,0,1,5.568,2.72,2.778,2.778,0,0,1,.782,3.163Z" transform="translate(-65.49 -256.82)" fill="#bddffa"/>
          <g id="Grupo_60296" data-name="Grupo 60296">
            <path id="Trazado_124083" data-name="Trazado 124083" d="M118.257,273.068l-5.836-.257s-.549.642-1.05,1.167c-.292.3-.163.677.338.934l3.21,1.692c.829.432.794,1.074,0,1.436l-5.4,2.253a4.05,4.05,0,0,1-3.046-.128l-3.186-1.681a3.431,3.431,0,0,0-2.031-.257l-1.284.2c-.712.093-1.167.374-1.237.735l-.093,2.159c0,.56-1,.98-2.194.922l-7.493-.339c-1.167,0-2.136-.549-2.113-1.109l.093-2.183c0-.35-.409-.677-1.085-.84l-1.4-.327a3.35,3.35,0,0,0-1.961.093l-3.338,1.389A4.05,4.05,0,0,1,76.1,278.8L70.9,276.068c-.829-.444-.805-1.086,0-1.436l3.315-1.389c.549-.233.677-.607.374-.945l-.5-.619a2.264,2.264,0,0,0-1.657-.654l-4.6-.2c-1.167,0-2.136-.549-2.113-1.109v-.409a.5.5,0,0,0,0,.128l-.222,5.147c0,.56.922,1.062,2.113,1.109l2.7.128-.257,4.249a.467.467,0,0,0,0,.222h0a.969.969,0,0,0,.584.642l5.194,2.731a3.852,3.852,0,0,0,1.868.35h0a3.618,3.618,0,0,0,1.167-.21l3.35-1.4a3.35,3.35,0,0,1,1.961-.093l1.4.339c.677.152,1.167.479,1.085.829l-.093,2.183c0,.56.922,1.062,2.113,1.109l7.493.339c1.167,0,2.171-.35,2.194-.91l.093-2.171c0-.35.514-.642,1.237-.735l1.284-.187a3.5,3.5,0,0,1,2.031.245l3.186,1.681a3.162,3.162,0,0,0,1.167.3h0a4.015,4.015,0,0,0,1.891-.175l5.4-2.264a1,1,0,0,0,.63-.549h0V282.2l.128-4.354,2.65.128c1.167,0,2.171-.362,2.206-.922l.21-4.821C120.37,272.742,119.413,273.127,118.257,273.068Z" transform="translate(-65.5 -255.992)" fill="#173d7a"/>
            <path id="Trazado_124084" data-name="Trazado 124084" d="M108.853,264.607,105.526,266c-.549.233-.677.607-.374.945l.5.619a1.762,1.762,0,0,0,1.1.584l1.973-.829c.4-.163.607-.385.642-.619h0l.105-2.766C109.495,264.187,109.273,264.432,108.853,264.607Z" transform="translate(-58.897 -256.892)" fill="#173d7a"/>
            <path id="Trazado_124085" data-name="Trazado 124085" d="M100.291,268.1h0a7.573,7.573,0,0,0-1.576-1.167h0l-.268-.163h-.07l-.257-.128h-.105l-.245-.128h-.117l-.245-.105-.175-.245-.245-.093-.14-.058-.245-.093h-.152l-.257-.082-.163-.058-.257-.082H95.61l-.292-.082h-.14l-.455-.105-.444-.093h-.07l-.432-.082H93.7l-.444-.07h0L92.8,265H86.961a4.329,4.329,0,0,0-.852.14h0l-.42.093h0a11.934,11.934,0,0,0-1.167.315h0l-.385.117h0a11.176,11.176,0,0,0-1.062.432h0a8.615,8.615,0,0,0-.922.514h0a6.588,6.588,0,0,0-.77.572h0a3.851,3.851,0,0,0-.945,1.237,2.9,2.9,0,0,0,1.039,3.385c2.6-2.008,8.17-2.766,13.178-1.622a11.847,11.847,0,0,1,5.147,2.556,3.992,3.992,0,0,0,1.261-1.494,2.755,2.755,0,0,0-.77-3.14Z" transform="translate(-63.034 -256.713)" fill="#173d7a"/>
            <path id="Trazado_124086" data-name="Trazado 124086" d="M73.607,266.175c.175-.187.385-.42.6-.63s.163-.677-.338-.945l-3.21-1.681c-.385-.21-.584-.455-.607-.689l-.117,2.615c0,.268.163.549.6.77l1.914,1.015A1.868,1.868,0,0,0,73.607,266.175Z" transform="translate(-64.759 -257.176)" fill="#173d7a"/>
            <path id="Trazado_124087" data-name="Trazado 124087" d="M120.588,270.541c0-.56-.922-1.062-2.113-1.167l-4.587-.21a2.845,2.845,0,0,1-.56,0,1.763,1.763,0,0,1-1.1-.584l-.5-.619c-.3-.338-.175-.712.374-.945l3.326-1.389c.42-.175.642-.42.654-.677s-.175-.537-.6-.747l-5.182-2.743a4.109,4.109,0,0,0-3.046-.14l-3.338,1.366a3.5,3.5,0,0,1-1.973.082l-1.389-.327c-.677-.163-1.167-.49-1.1-.84l.105-2.183c0-.56-.922-1.062-2.113-1.167l-7.482-.35c-1.167,0-2.183.362-2.206.922l-.093,2.159c0,.362-.525.642-1.249.747-.444.058-.9.117-1.342.2a3.5,3.5,0,0,1-2.031-.257L79.865,260a4.05,4.05,0,0,0-3.046-.14l-5.4,2.264c-.455.187-.677.467-.654.747s.222.479.607.689l3.21,1.681c.5.268.642.642.338.945s-.42.444-.6.63a1.867,1.867,0,0,1-1.167.455H72.64l-4.669-.21c-1.167-.058-2.171.362-2.194.922L65.66,271.1v.409c0,.56.922,1.05,2.113,1.109l4.6.2a2.264,2.264,0,0,1,1.657.654l.5.619c.3.339.175.712-.374.945l-3.315,1.389c-.864.35-.887.992,0,1.436l5.194,2.731a4.05,4.05,0,0,0,3.046.128l3.315-1.3a3.349,3.349,0,0,1,1.961-.093l1.4.327c.677.163,1.167.49,1.085.84l-.093,2.183c0,.56.922,1.062,2.113,1.109l7.493.339c1.167.058,2.171-.362,2.194-.922l.093-2.159c0-.362.525-.642,1.237-.735l1.284-.2a3.431,3.431,0,0,1,2.031.257l3.186,1.681a4.05,4.05,0,0,0,3.046.128l5.4-2.253c.852-.362.887-1,0-1.436l-3.21-1.692c-.5-.257-.63-.63-.338-.934.5-.5,1.027-1.167,1.05-1.167l5.836.257c1.167.058,2.113-.327,2.194-.864h0Zm-17.064,1.891a3.992,3.992,0,0,1-1.284,1.494c-2.615,2-8.17,2.766-13.189,1.622a11.858,11.858,0,0,1-5.311-2.486,2.9,2.9,0,0,1-1.039-3.385,3.851,3.851,0,0,1,.945-1.237c2.451-2.183,8.275-3.07,13.493-1.867a11.286,11.286,0,0,1,5.568,2.72A2.755,2.755,0,0,1,103.524,272.432Z" transform="translate(-65.473 -257.9)" fill="url(#linear-gradient-2)"/>
          </g>
        </g>
        <g id="Grupo_60299" data-name="Grupo 60299" transform="translate(58.92 280.687)">
          <path id="Trazado_124088" data-name="Trazado 124088" d="M156.855,270.006c0-.42-.689-.794-1.576-.829l-3.408-.152a2.341,2.341,0,0,1-.409-.058,1.354,1.354,0,0,1-.829-.42,3.5,3.5,0,0,0-.374-.467c-.222-.257-.117-.537.292-.7l2.463-1.027c.315-.128.479-.315.49-.514s-.14-.4-.444-.549l-3.852-2.043a3.035,3.035,0,0,0-2.264-.093l-2.486,1.027a2.544,2.544,0,0,1-1.459.07c-.338-.093-.712-.175-1.039-.245-.5-.117-.817-.362-.805-.619l.07-1.622c0-.42-.677-.794-1.564-.829l-5.556-.257c-.887,0-1.622.268-1.634.677l-.082,1.611c0,.268-.385.479-.922.549l-.992.152a2.6,2.6,0,0,1-1.517-.187l-2.334-1.249a3.035,3.035,0,0,0-2.264-.093l-4,1.669c-.338.152-.5.35-.49.56s.163.362.444.514l2.334,1.249c.374.2.479.479.257.7s-.315.327-.455.479a1.342,1.342,0,0,1-.864.327h-.373l-3.5-.163c-.875,0-1.611.268-1.622.689l-.105,2.334v.292c0,.42.689.794,1.576.829l3.42.152a1.669,1.669,0,0,1,1.226.479l.374.467c.222.245.128.525-.28.7l-2.463,1.027c-.63.268-.654.747,0,1.062l3.863,2.031a2.988,2.988,0,0,0,2.264.105l2.474-1.039a2.58,2.58,0,0,1,1.471-.07l1.027.257c.5.117.829.362.817.607l-.07,1.634c0,.409.689.782,1.564.817l5.568.257c.887,0,1.611-.268,1.634-.689l.07-1.6c0-.268.385-.479.91-.549l.957-.152a2.661,2.661,0,0,1,1.506.187l2.334,1.249a2.988,2.988,0,0,0,2.264.105l4.015-1.681c.642-.257.654-.735,0-1.062l-2.334-1.249c-.374-.2-.479-.479-.257-.7s.759-.829.782-.852l4.365.2c.852,0,1.564-.245,1.622-.642h0Zm-12.687,1.412a2.953,2.953,0,0,1-.934,1.109c-1.938,1.482-6.069,2.043-9.793,1.167a8.871,8.871,0,0,1-3.957-1.844,2.171,2.171,0,0,1-.77-2.509,2.731,2.731,0,0,1,.712-.91c1.821-1.634,6.139-2.334,10.026-1.4a8.451,8.451,0,0,1,4.132,2.031,2.043,2.043,0,0,1,.6,2.358Z" transform="translate(-115.98 -255.183)" fill="#bddffa"/>
          <g id="Grupo_60298" data-name="Grupo 60298" transform="translate(0.023)">
            <path id="Trazado_124089" data-name="Trazado 124089" d="M155.194,267.151l-4.365-.2s-.409.479-.782.852-.128.5.245.7l2.393,1.261c.607.315.584.794,0,1.062l-4,1.669a3.035,3.035,0,0,1-2.264-.093l-2.334-1.249a2.475,2.475,0,0,0-1.506-.187l-.957.14c-.525.07-.91.28-.922.549l-.187,1.622c0,.409-.747.724-1.622.677l-5.568-.245c-.887,0-1.587-.409-1.564-.829l.07-1.622c0-.257-.315-.5-.817-.619l-1.039-.245a2.451,2.451,0,0,0-1.459.07l-2.486,1.027a3.012,3.012,0,0,1-2.253-.093l-3.863-2.031c-.607-.327-.6-.805,0-1.062l2.463-1.039c.409-.163.5-.444.28-.7a4.669,4.669,0,0,1-.374-.467,1.669,1.669,0,0,0-1.237-.467l-3.408-.152c-.887,0-1.587-.409-1.576-.829v-.21L116,268.26c0,.42.689.782,1.564.829l2.008.082-.187,3.163a.257.257,0,0,0,0,.163h0a.724.724,0,0,0,.432.479l3.852,2.031a2.871,2.871,0,0,0,1.4.257h0a2.333,2.333,0,0,0,.84-.163l2.486-1.027a2.451,2.451,0,0,1,1.459-.07l1.039.245c.5.117.817.362.805.619l-.058,1.622c0,.42.677.782,1.564.829l5.568.245c.875,0,1.611-.257,1.622-.677l.07-1.611c0-.268.385-.479.922-.549l.945-.14a2.509,2.509,0,0,1,1.517.187l2.334,1.249a2.394,2.394,0,0,0,.817.222h0a2.906,2.906,0,0,0,1.4-.14l4.015-1.669a.805.805,0,0,0,.467-.42h0v-.105l.105-3.245,1.961.093c.887,0,1.622-.268,1.634-.677l.163-3.583C156.758,266.906,156.046,267.186,155.194,267.151Z" transform="translate(-116 -254.569)" fill="#173d7a"/>
            <path id="Trazado_124090" data-name="Trazado 124090" d="M148.2,260.862l-2.474,1.027c-.409.175-.5.455-.28.712s.257.3.374.455a1.366,1.366,0,0,0,.817.432l1.471-.619c.292-.117.444-.28.479-.455h0l.082-2.054C148.68,260.547,148.516,260.734,148.2,260.862Z" transform="translate(-111.096 -255.236)" fill="#173d7a"/>
            <path id="Trazado_124091" data-name="Trazado 124091" d="M141.795,263.381h0a5.684,5.684,0,0,0-1.167-.9h0l-.21-.117h0l-.2-.093h-.07l-.187-.093h-.082l-.187-.082H139.6l-.187-.07h-.105l-.175-.07h-.42l-.2-.058H138.4l-.222-.058h-.105l-.327-.082-.338-.07h0l-.315-.058H132.2a3.875,3.875,0,0,0-.642.105h0l-.3.07h0c-.315.07-.607.152-.9.233h0l-.28.093h0l-.794.327h0a7.593,7.593,0,0,0-.689.374h0a4.722,4.722,0,0,0-.584.432h0a2.9,2.9,0,0,0-.7.922,2.148,2.148,0,0,0,.77,2.509c1.938-1.494,6.069-2.054,9.793-1.167a8.743,8.743,0,0,1,3.957,1.844,2.953,2.953,0,0,0,.934-1.109,2.043,2.043,0,0,0-.969-2.883Z" transform="translate(-114.132 -255.024)" fill="#173d7a"/>
            <path id="Trazado_124092" data-name="Trazado 124092" d="M122.011,262.031l.444-.479c.222-.222.128-.49-.245-.689l-2.393-1.261c-.28-.152-.432-.327-.444-.514l-.093,1.949a.68.68,0,0,0,.444.572l1.424.747A1.342,1.342,0,0,0,122.011,262.031Z" transform="translate(-115.452 -255.448)" fill="#173d7a"/>
            <path id="Trazado_124093" data-name="Trazado 124093" d="M156.915,265.249c0-.42-.677-.782-1.564-.829l-3.408-.152a2.34,2.34,0,0,1-.42,0,1.366,1.366,0,0,1-.817-.432c-.117-.152-.233-.3-.374-.455s-.128-.537.28-.712l2.474-1.027c.315-.128.479-.315.49-.5s-.14-.4-.444-.56l-3.852-2.031a2.988,2.988,0,0,0-2.264-.105l-2.486,1.039a2.451,2.451,0,0,1-1.459.058l-1.039-.245c-.5-.117-.817-.362-.805-.619l.07-1.622c0-.42-.677-.782-1.564-.829l-5.568-.257c-.875,0-1.611.268-1.634.689l-.07,1.6c0,.268-.385.479-.922.549l-.992.152a2.51,2.51,0,0,1-1.517-.187l-2.334-1.237a2.988,2.988,0,0,0-2.264-.105l-4,1.681c-.35.14-.5.35-.49.549s.163.362.444.514l2.393,1.261c.374.2.467.467.245.689l-.444.479a1.342,1.342,0,0,1-.864.327,1.973,1.973,0,0,1-.374,0l-3.5-.152c-.887,0-1.611.268-1.634.677l-.093,2.334v.3c0,.42.689.782,1.576.829l3.408.152a1.669,1.669,0,0,1,1.237.467,4.664,4.664,0,0,0,.374.467c.222.257.128.537-.28.7l-2.463,1.039c-.642.257-.654.735,0,1.062l3.863,2.031a3.011,3.011,0,0,0,2.253.093l2.486-1.027a2.451,2.451,0,0,1,1.459-.07l1.039.245c.5.117.829.362.817.619l-.07,1.622c0,.42.677.782,1.564.829l5.568.245c.875,0,1.611-.268,1.622-.677l.07-1.611c0-.268.4-.479.922-.549l.957-.14a2.475,2.475,0,0,1,1.506.187l2.334,1.249a3.035,3.035,0,0,0,2.264.093l4.015-1.669c.63-.268.654-.747,0-1.062l-2.393-1.261c-.374-.2-.467-.479-.245-.7s.759-.829.782-.852l4.365.2c.852,0,1.564-.245,1.622-.642h0Zm-12.676,1.412a2.954,2.954,0,0,1-.934,1.109c-1.938,1.482-6.069,2.054-9.793,1.167a8.742,8.742,0,0,1-3.957-1.844,2.148,2.148,0,0,1-.77-2.509,2.9,2.9,0,0,1,.7-.922c1.832-1.622,6.151-2.276,10.038-1.389a8.345,8.345,0,0,1,4.12,2.019,2.043,2.043,0,0,1,.6,2.369Z" transform="translate(-115.982 -255.97)" fill="url(#linear-gradient-3)"/>
          </g>
        </g>
        <g id="Grupo_60300" data-name="Grupo 60300" transform="translate(119.712 259.455)">
          <path id="Trazado_124094" data-name="Trazado 124094" d="M168.69,245.061a6.7,6.7,0,0,1,7.633-3.42l115.389,35.144a4.459,4.459,0,0,1,2.906,2.579h.117l8.964,5.626a1.319,1.319,0,0,1,.432,1.751,1.973,1.973,0,0,1-1.891,1.062l-11.205-1h-.105l-.5-.07a6.163,6.163,0,0,1-3.7.093L171.362,251.667a4.482,4.482,0,0,1-2.673-6.606Z" transform="translate(-168.064 -237.17)" fill="#bddffa"/>
          <path id="Trazado_124095" data-name="Trazado 124095" d="M168.777,241.422a6.711,6.711,0,0,1,7.633-3.432l115.365,35.156a4.436,4.436,0,0,1,2.906,2.58h.117l8.964,5.626a1.319,1.319,0,0,1,.432,1.751,2,2,0,0,1-1.891,1.062l-11.205-1-.105-.058a3.713,3.713,0,0,1-.5-.07,6.081,6.081,0,0,1-3.7.1L171.473,247.993a4.482,4.482,0,0,1-2.7-6.571Z" transform="translate(-168.046 -237.78)" fill="url(#linear-gradient-4)"/>
          <path id="Trazado_124096" data-name="Trazado 124096" d="M203.5,253.379a2.485,2.485,0,0,0,.572-.175,2.533,2.533,0,0,0,1.226-1.167l.14-.257a1.844,1.844,0,0,0,.093-1.506,1.693,1.693,0,0,0-1.1-.969l-28.678-8.742a2.335,2.335,0,0,0-1.646.14,2.568,2.568,0,0,0-1.167,1.167l-.128.268a1.681,1.681,0,0,0,.992,2.463l28.678,8.742A2.217,2.217,0,0,0,203.5,253.379Z" transform="translate(-167.309 -237.329)" fill="#173d7a"/>
        </g>
      </g>
      <g id="Grupo_60305" data-name="Grupo 60305" transform="translate(46.136 60.94)">
        <ellipse id="Elipse_4082" data-name="Elipse 4082" cx="30.195" cy="17.438" rx="30.195" ry="17.438" transform="translate(21.612 169.169) rotate(-0.36)" fill="#d0e8fc"/>
        <g id="Grupo_60304" data-name="Grupo 60304" transform="translate(0)">
          <g id="Grupo_60302" data-name="Grupo 60302" transform="translate(26.559 75.194)">
            <path id="Trazado_124097" data-name="Trazado 124097" d="M77.9,177.39c5.626-.409,11.193-2.451,13.4-4.669a3.292,3.292,0,0,0,.98-1.692c.77-4.914,4.669-33.72,4.6-33.055a28.157,28.157,0,0,0,.409-3.688h0A23.928,23.928,0,0,0,96,124.318a18.533,18.533,0,0,0-1.622-2.439c-5.836-.945-16.843-5.031-16.843-5.031a33.755,33.755,0,0,0-7.237,0c-6.233,2.253-10.271,10.131-10.271,10.131s-.724,3.5,0,11.275,4.062,29.577,4.867,35.179a8.718,8.718,0,0,0,2.008,1.809C69.772,177.122,73.846,177.682,77.9,177.39Z" transform="translate(-59.704 -116.653)" fill="#17346d"/>
            <path id="Trazado_124098" data-name="Trazado 124098" d="M75.235,205.706l.14.245a43.957,43.957,0,0,1,.817-5.684A189.647,189.647,0,0,0,73.66,180.81C73.473,188.245,73.589,201.353,75.235,205.706Z" transform="translate(-57.382 -105.927)" fill="none"/>
            <path id="Trazado_124099" data-name="Trazado 124099" d="M91.614,205.58c7.143,7.622-13.7-.479-15.617-7.4v-.7a43.956,43.956,0,0,0-.817,5.684,32.681,32.681,0,0,0,3.408,4.669,29.336,29.336,0,0,0,3.595.992,37.957,37.957,0,0,0,7,5.054c3.618,1.949,5.743,1.716,7.505,1.167,2.334-.747,2.334-3.186.91-4.669C95.839,208.755,93.832,207.284,91.614,205.58Z" transform="translate(-57.117 -103.14)" fill="#0d2449"/>
            <path id="Trazado_124100" data-name="Trazado 124100" d="M75.568,169.364a3.5,3.5,0,0,1,0,.572c.187,4.669-1.249,5.626-1.657,8.649-.105.747-.21,2.544-.28,4.926a189.642,189.642,0,0,1,2.533,19.457v.7c1.914,6.921,22.76,15.022,15.617,7.4a51.149,51.149,0,0,0-6.244-5.3c-2.486-25.293.957-33.919.957-33.919a16.341,16.341,0,0,0,2.334-7.19C86.761,166.913,81.193,168.955,75.568,169.364Z" transform="translate(-57.376 -108.627)" fill="#f7c39f"/>
            <path id="Trazado_124101" data-name="Trazado 124101" d="M68.338,203.05s-1.167,5.066-.28,6.945,5.311,7.879,10.668,10.108c4.669,1.949,7.7,1.167,9.2.175A2.5,2.5,0,0,0,89.055,217c-.572-.922-5.4-5.836-9.268-10.026l.794.969C87.643,216.4,73.66,213.9,68.338,203.05Z" transform="translate(-58.363 -102.208)" fill="#0d2449"/>
            <path id="Trazado_124102" data-name="Trazado 124102" d="M76.954,208.045c-1.681-4.354-1.8-17.508-1.576-24.9.07-2.334.175-4.179.28-4.926.409-3.023,1.844-3.968,1.657-8.649a3.5,3.5,0,0,0,0-.572c-4.05.292-8.17-.268-11.007-2.183-.163,6.8-2.533,6.291-2.965,11.765-.467,5.836,4.669,15.769,5.754,30.522,5.322,10.855,19.305,13.353,12.267,4.844l-.794-.969h0a32.681,32.681,0,0,1-3.408-4.669Z" transform="translate(-59.101 -108.266)" fill="#ffcda8"/>
          </g>
          <path id="Trazado_124103" data-name="Trazado 124103" d="M102.825,119.994s-3.852,6.676-3.163,7.692c.922,1.389,4.4-3.28,4.4-3.28.549.187,1.354,3.9,1.354,3.9s-3.175,4.225-2.334,5.533,6.583-1.366,7.272-5.754c.957-6.093-4.015-12.232-4.015-12.232h-4.564l-.84,1.342Z" transform="translate(-26.479 -41.594)" fill="#f0c6b4"/>
          <path id="Trazado_124104" data-name="Trazado 124104" d="M83.451,74.413s6.023-.689,6.233,6.595c.14,4.412,4.669,23.344,6.093,29.18,4.05,3.653,7.738,8.077,13.808,12.641-3.875,1.412-3.5,4.144-3.5,4.144s-13.925-7.365-18.162-11.917c-.712-1.424-7.622-14.333-7.622-14.333Z" transform="translate(-29.702 -48.525)" fill="#fda551"/>
          <path id="Trazado_124105" data-name="Trazado 124105" d="M82.132,77.654l.5,9.011L79.2,90.949l-7.96-2.486L66.13,84.3l3.723-10.365L75.012,71.9Z" transform="translate(-32.071 -48.942)" fill="#daa782"/>
          <path id="Trazado_124106" data-name="Trazado 124106" d="M98.182,101.47c.362-3.992-2.6-9.629-6.361-15.384-.514-.794-.374-4.074-1.984-6.385-2.825-4.05-4.564-3.385-4.564-3.385-2.241-.677-3.7-1.167-3.7-1.167s1.611,9.338-1.4,10.68S70.3,76.247,68.605,76.492C63.411,82.328,56.77,88.328,56.77,88.328s8.964,23.881,4.926,43.688c1.692,1.564,17.835,14.625,34.747-.817-3.677-10.19-3.221-23.659-3.221-23.659S97.8,105.322,98.182,101.47Z" transform="translate(-33.636 -48.398)" fill="#fed2a8"/>
          <path id="Trazado_124107" data-name="Trazado 124107" d="M86.169,58.93c3.817,10.948-.759,17.636-.759,17.636L81.29,63.9S85.025,57.226,86.169,58.93Z" transform="translate(-29.537 -51.157)" fill="#17346d"/>
          <path id="Trazado_124108" data-name="Trazado 124108" d="M88.032,62.29a19.656,19.656,0,0,1-.14,7.237S87.367,84.42,81.87,84.7c-3.863.245-10.33-6.245-10.33-6.245l3.151-12.139,6.244-7.447S87.5,60.189,88.032,62.29Z" transform="translate(-31.167 -51.12)" fill="#ffcda8"/>
          <g id="Grupo_60303" data-name="Grupo 60303" transform="translate(0 38.37)">
            <path id="Trazado_124109" data-name="Trazado 124109" d="M60.107,124.5s6.373-.373,7.844.175.887,2.253.887,2.253a29.743,29.743,0,0,1,4.482,2.334c1.05.829,2.183,3.595,1.4,4.821s-6.291,2.218-9.478,1.471c-4.739-1.167-7.809-5.462-7.809-5.462s-2.416-2.72-1.249-4.669S60.107,124.5,60.107,124.5Z" transform="translate(-33.787 -78.563)" fill="#f0c6b4"/>
            <path id="Trazado_124110" data-name="Trazado 124110" d="M67.869,87.025c6.011,6.478-4.225,14.3-4.225,14.3s-8.649,8.719-14.006,14.006c2.276,2.334,13.691,15.722,13.691,15.722-3.7,1.307-2.673,5.591-2.673,5.591s-23.729-13.458-23.706-21.01c0-4.8,17.881-23.145,17.881-23.145S61.846,80.559,67.869,87.025Z" transform="translate(-36.95 -85.104)" fill="#fda551"/>
          </g>
          <path id="Trazado_124111" data-name="Trazado 124111" d="M66.25,107.173c2,9.233,22.177-3.723,22.177-3.723S69.868,113.1,66.25,107.173Z" transform="translate(-32.051 -43.667)" fill="#fda551"/>
          <path id="Trazado_124112" data-name="Trazado 124112" d="M74.234,53.432c-10.481,2.124-13.656,16.037-12.186,24.3v.07a25.551,25.551,0,0,0,1.506,6.933c12.664,2.965,17.3-5.264,17.3-5.264,3.9-6.093-.152-9.781,6.758-14.765.525-.117,1.692.2,1.926-.677C92.057,54.821,75.763,49.767,74.234,53.432Z" transform="translate(-32.81 -52.23)" fill="#17346d"/>
        </g>
      </g>
      <g id="Grupo_60309" data-name="Grupo 60309" transform="translate(181.519 135.78)">
        <ellipse id="Elipse_4083" data-name="Elipse 4083" cx="38.949" cy="22.492" rx="38.949" ry="22.492" transform="translate(3.111 167.149) rotate(-0.36)" fill="#d0e8fc"/>
        <g id="Grupo_60308" data-name="Grupo 60308">
          <path id="Trazado_124113" data-name="Trazado 124113" d="M176.2,258.137l-10.33,11.217s-1.284,5.836-1.027,7.8c.374,2.755,2.79,4.459,6.186,2.848,1.879-.852,3.163-6.8,5-8.45s7.19-8.789,6.49-11.38S176.2,258.137,176.2,258.137Z" transform="translate(-150.955 -92.653)" fill="#0d2449"/>
          <path id="Trazado_124114" data-name="Trazado 124114" d="M167.914,238.7c-7.925,15.29-4.214,37.724-4.027,39.311.187,3.677,11.824,5.6,13.434-2.743.619-12.022-.268-17.31,1.879-29.5,2.7-3.3,12.477-40.257,12.477-40.257L169.245,200.6S167.961,237.051,167.914,238.7Z" transform="translate(-151.282 -102.265)" fill="#17346d"/>
          <path id="Trazado_124115" data-name="Trazado 124115" d="M220.009,282.327c-3.081-2.626-10.575.654-14.146-2.86-3.023-1.342-15.617,3-15.617,3s-1.167,7.307,1.564,9.629c.875.712,5.3.479,10.33.385,8-.163,17.683-.852,19.072-2.825C222.437,287.836,221.841,283.47,220.009,282.327Z" transform="translate(-146.744 -89.122)" fill="#0d2449"/>
          <path id="Trazado_124116" data-name="Trazado 124116" d="M207.889,255.526a17.018,17.018,0,0,0-1.412-6.781s5.976-26.565-.829-60.087c-.957-3.5-15.921-4.447-15.921-4.447l-17.2.84s-5.1,9.851-4.167,18.29c.782,4.377,14.94,11.45,18.057,13.038.689,19.107,6.921,36.311,6.5,39.685-3.992,18.325,0,44.085,0,44.085s10.96,3.607,16.633-5.252C206.629,274.154,208.134,259.926,207.889,255.526Z" transform="translate(-150.382 -105.005)" fill="#2c4481"/>
          <path id="Trazado_124117" data-name="Trazado 124117" d="M160.405,194.21l-.455-.77C160.09,193.708,160.253,193.965,160.405,194.21Z" transform="translate(-151.768 -103.462)" fill="none"/>
          <g id="Grupo_60307" data-name="Grupo 60307">
            <path id="Trazado_124118" data-name="Trazado 124118" d="M171.428,144.5l3.245-2.941c-2.486-1.167-5.929-.105-5.929-.105a9.688,9.688,0,0,0-5.836,6.641l-1.1,4.949-8.24,15.174c2.264,2.334,7.622,5.322,12.547,7.085l4.179-9.057,3.828-13.481-3.863-8.077Z" transform="translate(-152.835 -112.228)" fill="#499cdb"/>
            <path id="Trazado_124119" data-name="Trazado 124119" d="M163.655,215.795c.735-.724,3.175-4.984,3.443-4.774s1.564,3.432,2.078,3.21,1.354-.969,1.284-1.331a62.816,62.816,0,0,0-3.093-7.645c-.455-.42-4.669-4.669-4.669-4.669l.875-25.678,1.739-4a39.229,39.229,0,0,1-11.287-6.385l-.84,2.463a7.96,7.96,0,0,0-.245,1.984v.315h0l2.556,26.332a30.848,30.848,0,0,0,2.229,6.711l.444.817s-1.237,10.073.222,11.147C158.473,214.371,162.908,216.507,163.655,215.795Z" transform="translate(-152.94 -108.297)" fill="#ffcda8"/>
            <g id="Grupo_60306" data-name="Grupo 60306" transform="translate(19.883)">
              <path id="Trazado_124120" data-name="Trazado 124120" d="M171.725,142.183s2.066.21,2.556-2.965c10.878-5.217,18.22,2.1,18.22,2.1a4.517,4.517,0,0,0-3.011,1.226c-1.167,1.261.268,6.816.268,6.816s-.514,5.836-7.167,4.937a6.882,6.882,0,0,1-.689-.245c-4.494-1.844-7.937-3.583-10.05-7a5.322,5.322,0,0,1-.128-4.867Z" transform="translate(-169.77 -112.841)" fill="#daa782"/>
              <path id="Trazado_124121" data-name="Trazado 124121" d="M185,137v0Z" transform="translate(-167.462 -112.898)" fill="none"/>
              <path id="Trazado_124122" data-name="Trazado 124122" d="M194.338,124.37a.992.992,0,0,1,.35.443c.9,6.735-.77,17.765-2.486,18.4-2.673.957-7.2-.77-7.2-.77v-3.326C185.572,127.148,193.1,124.7,194.338,124.37Z" transform="translate(-167.462 -115.01)" fill="#ffcda8"/>
              <path id="Trazado_124123" data-name="Trazado 124123" d="M190.82,131.31Z" transform="translate(-166.489 -113.85)" fill="none"/>
              <path id="Trazado_124124" data-name="Trazado 124124" d="M190.831,131.205a1.727,1.727,0,0,1,0-.245S190.831,131.088,190.831,131.205Z" transform="translate(-166.488 -113.908)" fill="none"/>
              <path id="Trazado_124125" data-name="Trazado 124125" d="M192.81,124.854c.082-.175.152-.35.21-.514a3.949,3.949,0,0,1-.21.514Z" transform="translate(-166.157 -115.015)" fill="none"/>
              <path id="Trazado_124126" data-name="Trazado 124126" d="M171.463,124.042c3.642-7.307,13.411-8.252,18.15-7.458,5.217,1.015,7,6.338,7,6.35a13.448,13.448,0,0,1,.455,3.175,11.381,11.381,0,0,1-.537,2.626l-.21.514h0s-.175,4.109-1.459,4.785c-.56.3-.77,1.342-.84,2.416h0v.245h0v.152h0a5.614,5.614,0,0,0,0,.77h0v.969l-1.3.84a11.869,11.869,0,0,0-.607-2.965,1.377,1.377,0,0,0-1.716-.14c-1.879,2.194-1.167,5.568-1.809,6.91s-4.832,3.747-11.8,1.506C173.914,143.335,166.935,133.181,171.463,124.042Z" transform="translate(-169.975 -116.351)" fill="#17346d"/>
            </g>
            <path id="Trazado_124127" data-name="Trazado 124127" d="M153.541,169a2.728,2.728,0,0,0,0,.3Z" transform="translate(-152.84 -107.548)" fill="none"/>
            <path id="Trazado_124128" data-name="Trazado 124128" d="M170.27,141.475h1.611A9.339,9.339,0,0,0,170.27,141.475Z" transform="translate(-150.042 -112.156)" fill="none"/>
            <path id="Trazado_124129" data-name="Trazado 124129" d="M208.458,199.856s.49-34.946-3.21-41.681c-2.708-3.595-12.15-8.17-14.158-11.672-6.221-1.762-10.5.514-16-2.544-2.148-1.1-1.6-2.509-1.6-2.509h-1.611a14.007,14.007,0,0,0-4.774,1.167h0a9.43,9.43,0,0,0-3.023,2.579,22.106,22.106,0,0,0-3.163,7.879c-2.65,17.368,15.407,24.861,11.042,42.077l-1.879,4.307s13.084,11.765,27.149,9.91c9.454-1.167,11.975-5.3,11.975-5.3Z" transform="translate(-151.651 -112.154)" fill="#aecfee"/>
            <path id="Trazado_124130" data-name="Trazado 124130" d="M246.485,119.445c-.117-1.167-2.136-1.6-3.793.233s-8.019,6.711-8.17,7.248-3.14,4.786-3.443,7c.455,2.229-14.6,17.508-14.6,17.508l-4.027,1.657a35.016,35.016,0,0,1,7.493,10.038,32.559,32.559,0,0,0,3.688-1.447,5.194,5.194,0,0,0,1.786-1.856h0l10.1-19.469s6.536-4.937,7.248-5.357a5.836,5.836,0,0,0,1.739-4.669c-.117-2.253-3.28-5.684-3.28-5.684S246.6,120.565,246.485,119.445Z" transform="translate(-142.99 -116.002)" fill="#ffcda8"/>
            <path id="Trazado_124131" data-name="Trazado 124131" d="M216.109,148.1l-21.453,8.847s-5.591,4.027-3.35,9.839,10.05,6.49,14.076,2.906c2.93-2.6,13.073-8.357,18.547-10.855A22.76,22.76,0,0,0,216.109,148.1Z" transform="translate(-146.614 -111.042)" fill="#499cdb"/>
          </g>
        </g>
      </g>
    </g>
  </g>
</svg>
