<svg xmlns="http://www.w3.org/2000/svg" width="476.713" height="410.429" viewBox="0 0 476.713 410.429">
  <g id="Grupo_124060" data-name="Grupo 124060" transform="translate(-228.287 -1061.288)">
    <g id="CF6_paso_copia" data-name="CF6_paso copia" transform="translate(228.287 1061.148)">
      <rect id="Rect치ngulo_6651" data-name="Rect치ngulo 6651" width="414.939" height="410.429" transform="translate(0 0.14)" fill="none"/>
      <g id="Grupo_60342" data-name="Grupo 60342" transform="translate(57.788 12.848)">
        <g id="Grupo_60315" data-name="Grupo 60315" transform="translate(376.577 239.327)">
          <path id="Trazado_124132" data-name="Trazado 124132" d="M351.566,206.8c-8.071-4.858-21.433-4.985-29.835-.293s-8.7,12.419-.625,17.276,21.433,5,29.835.306S359.636,211.688,351.566,206.8Z" transform="translate(-315.236 -168.44)" fill="#6279dd"/>
          <path id="Trazado_124133" data-name="Trazado 124133" d="M348.721,240.153c-6.923-4.845-18.385-4.985-25.589-.293s-7.459,12.431-.536,17.289,18.385,4.985,25.589.293S355.682,245.011,348.721,240.153Z" transform="translate(-314.597 -159.267)" fill="#c0ccff"/>
          <g id="Grupo_60311" data-name="Grupo 60311" transform="translate(16.044)">
            <g id="Grupo_60310" data-name="Grupo 60310" transform="translate(10.687)">
              <path id="Trazado_124134" data-name="Trazado 124134" d="M338.93,175.91a1.109,1.109,0,0,1-.14.408l-.166.484c-.089.293-.229.676-.319.969l-.331.969-.166.485-.178.51,1.7-.1c0-1.275-.115-2.448-.178-3.672Z" transform="translate(-335.809 -175.91)" fill="#4c4dc3"/>
              <path id="Trazado_124135" data-name="Trazado 124135" d="M338.012,178.978c0,.166-1.734,4.768-1.772,4.985a1.171,1.171,0,0,0,.612-.14,2.894,2.894,0,0,1,2.665.229,2.423,2.423,0,0,1,.752,1.109c-.089-1.963-.472-4.322-.561-6.286C339.491,178.506,338.191,178.672,338.012,178.978Z" transform="translate(-336.191 -175.153)" fill="#d1ddff"/>
              <path id="Trazado_124136" data-name="Trazado 124136" d="M339.527,183a2.945,2.945,0,0,0-2.677-.357c-.79.332-.867,1.02-.179,1.556a2.983,2.983,0,0,0,2.677.357C340.139,184.228,340.216,183.527,339.527,183Z" transform="translate(-336.202 -174.105)" fill="#9899ef"/>
            </g>
            <path id="Trazado_124137" data-name="Trazado 124137" d="M342.227,182.885l-2.014-.625-1.645.663L327.82,259.257l.37,1.275,2.015.612,1.645-.663L342.6,184.147Z" transform="translate(-327.82 -174.164)" fill="#3e4fb6"/>
          </g>
          <g id="Grupo_60314" data-name="Grupo 60314" transform="translate(18.454 11.271)">
            <g id="Grupo_60312" data-name="Grupo 60312" transform="translate(19.485)">
              <path id="Trazado_124138" data-name="Trazado 124138" d="M346.92,188.4l1.7.089c.089-1.275.255-3.659.255-3.659l-.217-.076S347.022,188.231,346.92,188.4Z" transform="translate(-344.462 -184.75)" fill="#ffbd59"/>
              <path id="Trazado_124139" data-name="Trazado 124139" d="M347.426,187.655c-.064.153-2.282,4.526-2.346,4.756a1.888,1.888,0,0,0,.625-.089,2.945,2.945,0,0,1,2.627.548,2.55,2.55,0,0,1,.612,1.2c.14-1.976,0-4.348.179-6.375C348.956,187.362,347.643,187.375,347.426,187.655Z" transform="translate(-344.968 -184.009)" fill="#d1ddff"/>
              <path id="Trazado_124140" data-name="Trazado 124140" d="M345.729,191.183c-.816.242-.982.918-.357,1.53a2.958,2.958,0,0,0,2.55.663c.829-.23.995-.918.37-1.517a3,3,0,0,0-2.563-.676Z" transform="translate(-344.992 -182.997)" fill="#9899ef"/>
            </g>
            <g id="Grupo_60313" data-name="Grupo 60313" transform="translate(0 7.879)">
              <path id="Trazado_124141" data-name="Trazado 124141" d="M352.953,191.771l-1.913-.841-1.708.459L329.71,265.938l1.708-.459,1.925.842.217,1.313,19.622-74.549Z" transform="translate(-329.71 -190.93)" fill="#ffbd59"/>
              <path id="Trazado_124142" data-name="Trazado 124142" d="M331.418,249.4l-1.708.459.217,1.313,1.925.842,1.708-.459-.217-1.313Z" transform="translate(-329.71 -174.851)" fill="#9899ef"/>
            </g>
          </g>
          <path id="Trazado_124143" data-name="Trazado 124143" d="M350.923,221.255c-8.4,4.692-21.764,4.552-29.835-.306-3.442-2.078-5.368-4.679-5.789-7.344l6.541,41.871a7.65,7.65,0,0,0,4.016,5.1c5.61,3.379,14.892,3.468,20.731.217,2.665-1.492,4.156-3.417,4.462-5.393l6.3-41.909C356.916,216.333,354.774,219.113,350.923,221.255Z" transform="translate(-315.219 -165.576)" fill="#899bff"/>
        </g>
        <g id="Grupo_60325" data-name="Grupo 60325" transform="translate(110.887)">
          <g id="Grupo_60320" data-name="Grupo 60320">
            <g id="Grupo_60317" data-name="Grupo 60317">
              <g id="Grupo_60316" data-name="Grupo 60316">
                <path id="Trazado_124144" data-name="Trazado 124144" d="M281.992,102.973,135.584,11.555a9.289,9.289,0,0,0-8.461-.769,10.513,10.513,0,0,0-5.959,6.586l-.064.194V246.633a13.133,13.133,0,0,0,6.5,10.967l148.7,94.056,3.2.6a6.867,6.867,0,0,0,5.926-1.776A8.237,8.237,0,0,0,288,344.4V114.441a13.457,13.457,0,0,0-6.005-11.467Z" transform="translate(-121.1 -10.107)" fill="#3e4fb6"/>
                <path id="Trazado_124145" data-name="Trazado 124145" d="M275.949,106.478,127.258,13.371a3.8,3.8,0,0,0-4.118-.008,4.553,4.553,0,0,0-2.04,3.9V245.041a13.449,13.449,0,0,0,6.031,11.409l148.69,94.191a3.8,3.8,0,0,0,4.107.015,4.549,4.549,0,0,0,2.051-3.878V117.887a13.449,13.449,0,0,0-6.031-11.409Z" transform="translate(-121.1 -9.378)" fill="#173d7a"/>
              </g>
              <path id="Trazado_124146" data-name="Trazado 124146" d="M281.979,109.213a12.1,12.1,0,0,0-6.031-10.468L127.258,13.321a4.093,4.093,0,0,0-6.158,3.57V36.436l160.879,92.425Z" transform="translate(-121.1 -9.378)" fill="#173d7a"/>
            </g>
            <g id="Grupo_60319" data-name="Grupo 60319" transform="translate(8.629 17.539)">
              <g id="Grupo_60318" data-name="Grupo 60318" transform="translate(0 0)">
                <ellipse id="Elipse_4084" data-name="Elipse 4084" cx="1.619" cy="2.805" rx="1.619" ry="2.805" transform="matrix(0.863, -0.505, 0.505, 0.863, 0, 1.637)" fill="#fff"/>
                <ellipse id="Elipse_4085" data-name="Elipse 4085" cx="1.619" cy="2.805" rx="1.619" ry="2.805" transform="matrix(0.863, -0.505, 0.505, 0.863, 8.053, 6.582)" fill="#fff"/>
                <ellipse id="Elipse_4086" data-name="Elipse 4086" cx="1.619" cy="2.805" rx="1.619" ry="2.805" transform="matrix(0.863, -0.505, 0.505, 0.863, 15.755, 11.076)" fill="#fff"/>
              </g>
              <path id="Trazado_124147" data-name="Trazado 124147" d="M236.2,82.455l.4.229h.077a7.089,7.089,0,0,1,1.9,1.887,8.338,8.338,0,0,1,1.632,3.965,3.825,3.825,0,0,1-.382,2.41c-.077.127-.166.229-.255.357a2.345,2.345,0,0,1,.485.625c.65,1.135,1.275,2.257,1.964,3.379a2.767,2.767,0,0,1,.382.931v.242h0a.421.421,0,0,1-.574.357,1.377,1.377,0,0,1-.829-.752l-1.925-3.3a3.15,3.15,0,0,1-.446-.969,5.994,5.994,0,0,1-.829,0,4.5,4.5,0,0,1-2.422-1.275,8.53,8.53,0,0,1-2.78-5.393,3.251,3.251,0,0,1,.523-2.41,2.142,2.142,0,0,1,2.8-.5Zm3.073,6.2a6.375,6.375,0,0,0-2.882-4.96c-1.581-.918-2.869-.179-2.869,1.645a6.375,6.375,0,0,0,2.869,4.947C237.984,91.2,239.272,90.462,239.272,88.652Z" transform="translate(-99.083 -7.898)" fill="#fff"/>
            </g>
          </g>
          <g id="Grupo_60324" data-name="Grupo 60324" transform="translate(19.342 38.177)">
            <path id="Trazado_124148" data-name="Trazado 124148" d="M255.533,321.627,136.27,245.2V40.05l119.263,76.431Z" transform="translate(-136.27 -40.05)" fill="#fff"/>
            <g id="Grupo_60323" data-name="Grupo 60323" transform="translate(10.952 32.117)">
              <g id="Grupo_60322" data-name="Grupo 60322">
                <g id="Grupo_60321" data-name="Grupo 60321">
                  <path id="Trazado_124149" data-name="Trazado 124149" d="M148.9,120.118a1.807,1.807,0,0,0-.089-.178A.974.974,0,0,1,148.9,120.118Z" transform="translate(-143.774 -32.225)" fill="#daebff"/>
                  <path id="Trazado_124150" data-name="Trazado 124150" d="M239.286,122.934,144.86,68.415V65.24l94.426,54.519Z" transform="translate(-144.86 -65.24)" fill="#daebff"/>
                  <path id="Trazado_124151" data-name="Trazado 124151" d="M239.286,130.524,144.86,76V72.83l94.426,54.519Z" transform="translate(-144.86 -63.153)" fill="#daebff"/>
                  <path id="Trazado_124152" data-name="Trazado 124152" d="M239.286,170.434,144.86,115.915V112.74l94.426,54.519Z" transform="translate(-144.86 -21.749)" fill="#daebff"/>
                  <path id="Trazado_124153" data-name="Trazado 124153" d="M188.835,120.844l-43.975-25.4V88.14l43.975,25.385Z" transform="translate(-144.86 -48.558)" fill="#daebff"/>
                  <path id="Trazado_124154" data-name="Trazado 124154" d="M179.3,129.37,144.86,109.48v-8.81L179.3,120.547Z" transform="translate(-144.86 -40.148)" fill="#daebff"/>
                  <path id="Trazado_124155" data-name="Trazado 124155" d="M209.665,146.9,175.61,127.23v-8.81l34.055,19.673Z" transform="translate(-136.404 -27.633)" fill="#daebff"/>
                  <path id="Trazado_124156" data-name="Trazado 124156" d="M222.456,154.284l-16.4-9.461V136l16.4,9.473Z" transform="translate(-128.03 -15.352)" fill="#daebff"/>
                  <path id="Trazado_124157" data-name="Trazado 124157" d="M144.86,80.46v3.175L210.8,121.719v-3.175Z" transform="translate(-144.86 -53.386)" fill="#daebff"/>
                </g>
                <path id="Trazado_124158" data-name="Trazado 124158" d="M239.286,180.764,144.86,126.245V123.07l94.426,54.519Z" transform="translate(-144.86 -18.908)" fill="#daebff"/>
                <path id="Trazado_124159" data-name="Trazado 124159" d="M239.286,188.354,144.86,133.835V130.66l94.426,54.519Z" transform="translate(-144.86 -16.821)" fill="#daebff"/>
                <path id="Trazado_124160" data-name="Trazado 124160" d="M239.286,196,144.86,141.465V138.29l94.426,54.532Z" transform="translate(-144.86 -14.723)" fill="#daebff"/>
                <path id="Trazado_124161" data-name="Trazado 124161" d="M188.835,178.674l-43.975-25.4V145.97l43.975,25.385Z" transform="translate(-144.86 -12.611)" fill="#daebff"/>
              </g>
              <path id="Trazado_124162" data-name="Trazado 124162" d="M179.3,187.15,144.86,167.273V158.45L179.3,178.34Z" transform="translate(-144.86 -16.046)" fill="#daebff"/>
              <path id="Trazado_124163" data-name="Trazado 124163" d="M209.665,204.681,175.61,185.02v-8.81l34.055,19.66Z" transform="translate(-136.404 -4.295)" fill="#a79bd4"/>
              <path id="Trazado_124164" data-name="Trazado 124164" d="M222.456,212.073l-16.4-9.473v-8.81l16.4,9.473Z" transform="translate(-128.03 0.54)" fill="#daebff"/>
              <path id="Trazado_124165" data-name="Trazado 124165" d="M182.96,171.23V174.4l45.849,26.469V197.7Z" transform="translate(-134.383 -5.664)" fill="#daebff"/>
            </g>
          </g>
        </g>
        <path id="Trazado_124166" data-name="Trazado 124166" d="M213.279,141.516,212,140.764a.816.816,0,0,0-.166-.128,20.846,20.846,0,0,1-4.819-4.539,24.913,24.913,0,0,1-5.253-11.73c-.077-.523-.115-1.033-.166-1.543V121.1a7.375,7.375,0,0,1,.2-1.517c.587-2.716,1.951-4.424,4.105-5.1,2.69-.778,5.725.191,9.027,2.894a24.225,24.225,0,0,1,6.439,8.389,19.8,19.8,0,0,1,2.244,10.264,7.2,7.2,0,0,1-2.7,5.533,6.528,6.528,0,0,1-6.375.421A8.457,8.457,0,0,1,213.279,141.516Zm-2.372-11.947-1.275-1.976c-.612-.995-1.211-2-1.849-2.971s-1.5-1.071-1.683-.332a2.129,2.129,0,0,0,.4,1.594l3.583,5.789c.561.918,1.148,1.275,1.7.931l6.86-3.825a.536.536,0,0,0,.178-.115c.446-.357.306-1.275-.306-2.091s-.982-.778-1.428-.523l-6.056,3.442Z" transform="translate(15.388 29.535)" fill="#ffbd59"/>
        <ellipse id="Elipse_4087" data-name="Elipse 4087" cx="26.584" cy="15.351" rx="26.584" ry="15.351" transform="translate(240.056 362.38) rotate(-0.36)" fill="#c0ccff"/>
        <g id="Grupo_60333" data-name="Grupo 60333" transform="translate(0 107.778)">
          <ellipse id="Elipse_4088" data-name="Elipse 4088" cx="26.584" cy="15.351" rx="26.584" ry="15.351" transform="translate(0 143.974) rotate(-0.36)" fill="#c0ccff"/>
          <g id="Grupo_60332" data-name="Grupo 60332" transform="translate(5.279)">
            <path id="Trazado_124167" data-name="Trazado 124167" d="M75.937,104.622a1.594,1.594,0,0,1-.115-.548h0a2.461,2.461,0,0,0-.191-.663c-.7-1.479-2.958-2.142-3.442-2.27H72.1c-.892-.229-1.9-.535-2.856-.854A18.665,18.665,0,0,0,65.7,99.93s-1.428,3.914-4.029,4.692a5.342,5.342,0,0,0,3.736,3.047l1.951.536s7.089,2.55,8.147.982a7.561,7.561,0,0,0,.434-4.565Z" transform="translate(-46.108 -79.402)" fill="#daa782"/>
            <g id="Grupo_60326" data-name="Grupo 60326" transform="translate(2.942 153.893)">
              <path id="Trazado_124168" data-name="Trazado 124168" d="M59.4,206.774a31.561,31.561,0,0,0-3.519-2.244l-3.3,1.708-.127,4.475,1.734,3.71,3.914.625,2.3-2.244-.485-2.346a8.147,8.147,0,0,1-.51-3.685Z" transform="translate(-51.586 -204.53)" fill="#ffcda8"/>
              <path id="Trazado_124169" data-name="Trazado 124169" d="M60.1,210.09c0,1.874-1.607,2.55-3.035,2.435-2.818-.115-4.4-5.368-4.3-6.656a9.818,9.818,0,0,0-.982,4.743c.076,1.4,1.2,3.238,2.155,5.189a23.548,23.548,0,0,0,2.55,4.641c1.67,1.67,6.069,3.825,8.16.523C65.68,219.347,59.713,209.313,60.1,210.09Z" transform="translate(-51.772 -204.162)" fill="#2d4196"/>
            </g>
            <g id="Grupo_60327" data-name="Grupo 60327" transform="translate(22.454 142.074)">
              <path id="Trazado_124170" data-name="Trazado 124170" d="M77.356,196.688c-.956-.459-3.71-1.428-3.71-1.428L68.265,197.1v1.543s-.331,3.1,1.415,4.45,1.415,1.275,3.455,1.4,4.768-.089,5.776-.8,1.122-2.792,1.122-2.792A6.375,6.375,0,0,1,77.356,196.688Z" transform="translate(-66.756 -195.26)" fill="#ffcda8"/>
              <path id="Trazado_124171" data-name="Trazado 124171" d="M80.354,200.167c-1.683,3.442-12.1,1.058-11.768-2.257-1.135,1.607-1.925,5.1-1.275,6.541s8.925,2.078,8.925,2.078,13.821,5.725,15.555,2.843C94.8,204.4,87.239,204.31,80.354,200.167Z" transform="translate(-67.076 -194.531)" fill="#2d4196"/>
            </g>
            <g id="Grupo_60328" data-name="Grupo 60328" transform="translate(3.005 69.373)">
              <path id="Trazado_124172" data-name="Trazado 124172" d="M66.726,150.722,67.44,183.2a34.731,34.731,0,0,0-2.014,8.415c-.268,3.825,1.606,10.8,3.34,21.675,4.526,2.066,9.346-1.275,9.346-1.275s-2.55-13.9-.535-25.5a12.89,12.89,0,0,0,1.5-5.967c1.594-5.623,5.98-18.972,6.375-27.808s-.586-13.056-.586-13.056Z" transform="translate(-48.087 -137.844)" fill="#203b72"/>
              <path id="Trazado_124173" data-name="Trazado 124173" d="M55.874,148.313c-.28,4.373.268,39.423.268,39.423s-3.468,5.6-4.144,9.473.8,27.259.8,27.259a4.463,4.463,0,0,0,4.973,2.129,2.958,2.958,0,0,0,2.32-2.129s2.7-28.993,5.457-31.875c7.956-14.7,9.435-35.7,9.435-35.7s13.285-9.078,13.719-16.792c-1.785-.79-29.427-1.861-29.427-1.861S56.422,139.464,55.874,148.313Z" transform="translate(-51.821 -138.24)" fill="#2a5087"/>
            </g>
            <g id="Grupo_60329" data-name="Grupo 60329" transform="translate(30.263 21.025)">
              <path id="Trazado_124174" data-name="Trazado 124174" d="M115.019,138.52c.166-.752,4.909,1.862,5.546.6.446-.931-7.956-5.992-10.608-5.1-3.557-.115-20.489-8.313-22.81-8.53-2.843-.574-5.941,4.437-5.457,5.278,4.016,5.1,21.088,6.056,26.125,7.408,1.275.535,2.346,3.914,4.934,6.375s7.51,2.805,7.816,2.078C121.458,142.843,114.752,142.129,115.019,138.52Z" transform="translate(-70.879 -93.411)" fill="#ffcda8"/>
              <path id="Trazado_124175" data-name="Trazado 124175" d="M84.7,112.662s-1.632-11.73-6.987-12.342H77.2c-1.186,0-4,.076-4,.076l8.071,30.383s.829,4.692,2.83,6.962c.8.6,5.1-3.328,5.47-5.393C87.034,123.665,84.7,112.662,84.7,112.662Z" transform="translate(-73.2 -100.32)" fill="#f25585"/>
            </g>
            <path id="Trazado_124176" data-name="Trazado 124176" d="M63.68,102.2a9.232,9.232,0,0,0,.268-.943A2.792,2.792,0,0,0,63.68,102.2Z" transform="translate(-45.555 -79.036)" fill="none"/>
            <path id="Trazado_124177" data-name="Trazado 124177" d="M55.33,108.94h0Z" transform="translate(-47.852 -76.924)" fill="#512c20"/>
            <path id="Trazado_124178" data-name="Trazado 124178" d="M57.58,89.21v0Z" transform="translate(-47.233 -82.35)" fill="none"/>
            <path id="Trazado_124179" data-name="Trazado 124179" d="M86.755,133.39c.561-1.275,4.475-4.067,4.271-7.765-.4-7.459-8.211-16.409-12.75-25.245,0,.956-1.148,6.643-4.322,7.5s-9.524-3.825-9.524-3.825c-4.309,1.53-9.32,7.548-9.32,7.548l1.428,24.722s1.4,5.393,1.7,7.969-1.874,7.255-1.874,7.255,1.67,2.55,8.925,6.095,21.484-4.667,22.491-7.076C88.12,149.62,86.182,134.652,86.755,133.39Z" transform="translate(-47.912 -79.278)" fill="#f57fa3"/>
            <path id="Trazado_124180" data-name="Trazado 124180" d="M81.011,91.067c0-2.333-2.69-3.519-2.69-3.519-2.728-.51-6.668-.676-9.116,1.721a16.575,16.575,0,0,0-4.692,7.293,20.184,20.184,0,0,0-.089,4.883,10.99,10.99,0,0,0,1.606,4.233c1.632,1.976,7.752,4.6,8.925,4.6a5.763,5.763,0,0,0,3.749-1.9,73.313,73.313,0,0,0,1.734-11.029,5.227,5.227,0,0,0-.523-1.4s.127-.281.459-1.084a27.721,27.721,0,0,0,.638-3.8Z" transform="translate(-45.38 -82.894)" fill="#ffcda8"/>
            <path id="Trazado_124181" data-name="Trazado 124181" d="M64.38,129.432c1.734,8.236,19.826-3.162,19.826-3.162S67.568,134.736,64.38,129.432Z" transform="translate(-45.363 -72.159)" fill="#3e4fb6"/>
            <g id="Grupo_60330" data-name="Grupo 60330" transform="translate(11.224 53.978)">
              <rect id="Rect치ngulo_6652" data-name="Rect치ngulo 6652" width="27.106" height="20.476" transform="translate(0 26.52) rotate(-78.06)" fill="#1c4b94"/>
              <path id="Trazado_124182" data-name="Trazado 124182" d="M73.386,136.256l-6.808-1.441a.982.982,0,0,1-.752-1.173l.676-3.226a.994.994,0,0,1,1.173-.752l6.8,1.441a.969.969,0,0,1,.765,1.16l-.676,3.226a.994.994,0,0,1-1.173.765Z" transform="translate(-56.196 -125.209)" fill="#fff"/>
            </g>
            <g id="Grupo_60331" data-name="Grupo 60331" transform="translate(0 31.264)">
              <path id="Trazado_124183" data-name="Trazado 124183" d="M59.7,141.717h0s3.532.51,6.987,1.109h.268c2.295.408,5.1,1.211,5.1,1.211,2.818,1.339,6.745,3.1,7.854,3.4,3.1.867,4.3-.242,5.215-2.741.689-1.9.714-4.093-.229-4.679a14.025,14.025,0,0,0-3.876-1.377,61.7,61.7,0,0,0-6.923-.332,11.755,11.755,0,0,1-4.552-1.071h0c-2.831-1.415-6.707-3.825-6.707-3.825h0c-2.435-1.275-4.182-2.4-4.182-2.4a12.138,12.138,0,0,0-9.091,5.852l.179.293C50.771,138.5,55.374,140.277,59.7,141.717Z" transform="translate(-49.438 -102.117)" fill="#ffcda8"/>
              <path id="Trazado_124184" data-name="Trazado 124184" d="M60.6,108.4c-5.1-.6-6.872,4.31-7.446,8.236h0s-1.568,10.85-1.989,13.107c-1.046,5.534-2.078,11.972-1.568,13.375a12.138,12.138,0,0,1,9.091-5.89l5.482-21.484S66.378,109.077,60.6,108.4Z" transform="translate(-49.465 -108.351)" fill="#f25585"/>
            </g>
            <path id="Trazado_124185" data-name="Trazado 124185" d="M63.152,84.16c-2.41.1-7.892,5.572-7.65,11.857a19.354,19.354,0,0,0,5.24,11.755,29.848,29.848,0,0,0,3.162-2.665C66.492,96.591,63.445,85.231,63.152,84.16Z" transform="translate(-47.807 -83.739)" fill="#3e4fb6"/>
            <path id="Trazado_124186" data-name="Trazado 124186" d="M67.126,87.387a3.608,3.608,0,1,1-3.608-3.557,3.557,3.557,0,0,1,3.608,3.557Z" transform="translate(-46.592 -83.83)" fill="#899bff"/>
            <path id="Trazado_124187" data-name="Trazado 124187" d="M66.137,104.155s-1.39-3.825,0-3.965c2.55,0,3.94,3.7,4.96,2.639a6.987,6.987,0,0,0,2.078-3.175c.574-1.479.191-3.493,1.275-3.583,8.823-.217,7.777-5.189,7.777-5.189S74.883,78.77,64.186,87.848a10.468,10.468,0,0,0-2.678,13.591C63.8,104.793,66.137,104.155,66.137,104.155Z" transform="translate(-46.546 -83.653)" fill="#2d4196"/>
          </g>
        </g>
        <g id="Grupo_60335" data-name="Grupo 60335" transform="translate(289.599 208.74)">
          <path id="Trazado_124188" data-name="Trazado 124188" d="M311.76,189c-3.251,2.818-10.2,3.506-10.2,3.506-.408,4.883-3.57,10.787-3.57,10.787a43.007,43.007,0,0,0,8.326.51c3.187-.306,7-1.084,8.287-4.552C315.113,197.989,311.76,189,311.76,189Z" transform="translate(-233 -141.723)" fill="#ffcda8"/>
          <path id="Trazado_124189" data-name="Trazado 124189" d="M265.69,285.819s9.206-.242,11.373.076a27.782,27.782,0,0,0,13.91,5.355v5.329s-3.621,3.289-9.868.956v-.727s-7.14.408-10.837-.88c0,0-7.14-1.2-7.777-5.929C262.516,290,262.834,286.38,265.69,285.819Z" transform="translate(-242.763 -115.122)" fill="#2d4196"/>
          <path id="Trazado_124190" data-name="Trazado 124190" d="M288.08,274.322c.434-1.275,1.785-3.4,5.916-2.55,0,0,.5,4.973,4.462,5.776l4.82.944,2.41,2.486,2.091,1.785s-.242,3.506-1.211,4.144-4.654,1.606-5.929,0-2.41-3.073-2.41-3.073v-.854a48.866,48.866,0,0,1-4.73-2.333,19.373,19.373,0,0,1-3.073-2.231h0C288.067,276.031,288.08,274.322,288.08,274.322Z" transform="translate(-235.726 -119.015)" fill="#2d4196"/>
          <path id="Trazado_124191" data-name="Trazado 124191" d="M274.44,218.91a34.427,34.427,0,0,0,7.65,2.333,17.276,17.276,0,0,1-7.65-2.333Z" transform="translate(-239.477 -133.498)" fill="none"/>
          <path id="Trazado_124192" data-name="Trazado 124192" d="M294.079,285.6c.23,2.359,4.488,5.572,7.268,8.772s5.776,2.142,6.375,1.071S309,273.763,309,273.763c.421-7.918-4.067-18.4-3.736-21.6s-2.474-16.906-.765-23.97c.1-.421.2-.867.281-1.275-4.985,7.522-13.859,8.619-13.859,8.619-.727,3.506-3.047,10.876-3.047,10.876a95.072,95.072,0,0,1,5.291,18.615C294.5,273.827,293.85,283.249,294.079,285.6Z" transform="translate(-235.783 -131.295)" fill="#203b72"/>
          <path id="Trazado_124193" data-name="Trazado 124193" d="M308.945,213.37h0c-2.014,1.543-10.7,7.063-10.7,7.063-4.921,3.264-10.863,3.188-15.491,2.333a17.277,17.277,0,0,1-7.65-2.333h0s-3,17.123-3,24.824,4.7,31.658,4.7,36.975-2.346,23.536-2.346,23.536c5.406,5.355,13.91,5.355,13.91,5.355,1.058-1.708,3.634-23.753,4.488-27.17s-3.047-17.735-3.047-17.735-1.543-5.814,2.41-16.052c0,0,1.415-4.5,2.384-8.134,10.761-3.71,14.522-11.36,14.522-11.36C310.4,223.583,308.945,213.37,308.945,213.37Z" transform="translate(-240.117 -135.021)" fill="#2a5087"/>
          <path id="Trazado_124194" data-name="Trazado 124194" d="M298.73,174.977s-1.938.242-2.371-2.55a14.344,14.344,0,0,0-16.269,1.887,3.952,3.952,0,0,1,2.69,1.1c1.007,1.122-.242,6.069-.242,6.069s.459,5.1,6.375,4.412l.625-.217c4-1.645,7.076-3.187,8.925-6.273a5.023,5.023,0,0,0,.268-4.424Z" transform="translate(-237.923 -146.749)" fill="#daa782"/>
          <path id="Trazado_124195" data-name="Trazado 124195" d="M301.276,173.216a38.862,38.862,0,0,1-6.566,1.16c5.1,3.825,3.825,14.828,3.825,14.828a55.043,55.043,0,0,0,3.583,9.754c5,3.022,11.309,1.186,12.317-4-.867-2.958-3.086-10.1-3.086-10.1S309.334,170.678,301.276,173.216Z" transform="translate(-233.902 -146.147)" fill="#3e4fb6"/>
          <path id="Trazado_124196" data-name="Trazado 124196" d="M300.928,174.06c.434,4.4-7.65,8.173-10.9,8.058-5.61-.179-5.291-1.606-5.291-1.606S275.81,186.249,272.1,191.9c2.55,12.317,2.55,37.23,2.359,40.609.905,14.624,30.957-.587,34.9-4.794,1.823-20.4.8-28.381,2.856-36.082S312.071,174.111,300.928,174.06Z" transform="translate(-240.12 -145.832)" fill="#899bff"/>
          <path id="Trazado_124197" data-name="Trazado 124197" d="M283.74,170.46v2.933C283.778,172.424,283.778,171.378,283.74,170.46Z" transform="translate(-236.919 -146.822)" fill="none"/>
          <path id="Trazado_124198" data-name="Trazado 124198" d="M277.3,160.11a.816.816,0,0,0-.306.408c-.8,6.005.689,15.848,2.218,16.409,2.384.854,6.375-.688,6.375-.688v-2.933C285.133,162.6,278.414,160.4,277.3,160.11Z" transform="translate(-238.835 -149.668)" fill="#ffcda8"/>
          <path id="Trazado_124199" data-name="Trazado 124199" d="M278.97,165.78h0v0Z" transform="translate(-238.231 -148.109)" fill="none"/>
          <path id="Trazado_124200" data-name="Trazado 124200" d="M279,165.717V165.5A1.772,1.772,0,0,0,279,165.717Z" transform="translate(-238.223 -148.186)" fill="none"/>
          <path id="Trazado_124201" data-name="Trazado 124201" d="M277.391,160.552l-.191-.472a3.046,3.046,0,0,0,.191.472Z" transform="translate(-238.718 -149.676)" fill="none"/>
          <path id="Trazado_124202" data-name="Trazado 124202" d="M280.346,152.239a2.041,2.041,0,0,1,.535-.319l-.7.331Z" transform="translate(-237.898 -151.92)" fill="none"/>
          <path id="Trazado_124203" data-name="Trazado 124203" d="M299.92,160.483c-3.239-6.528-11.96-7.382-16.193-6.668-4.654.905-6.209,5.661-6.209,5.674a12.05,12.05,0,0,0-.408,2.83,10.926,10.926,0,0,0,.472,2.346c.064.153.128.306.2.459h0s.153,3.672,1.275,4.271c.5.268.7,1.186.765,2.155h0a1.272,1.272,0,0,0,0,.217h0v.14h0a6.154,6.154,0,0,1,0,.688h0v.867l1.147.752a11,11,0,0,1,.548-2.652,1.275,1.275,0,0,1,1.517-.128c1.7,1.963,1.046,4.972,1.619,6.171s4.322,3.353,10.544,1.352C297.689,177.632,303.923,168.567,299.92,160.483Z" transform="translate(-238.742 -151.456)" fill="#2d4196"/>
          <g id="Grupo_60334" data-name="Grupo 60334" transform="translate(0 24.315)">
            <path id="Trazado_124204" data-name="Trazado 124204" d="M270.778,201.54s-2.678-.472-3.073-1.619c-.727-3.328-9.231-12.457-10.9-15.491l-5.674,2.078s8.632,21.6,11.182,24.225c1.811,1.861,4.233,4.539,6.8,3.391a41.617,41.617,0,0,0,7.051-5.023Z" transform="translate(-245.887 -167.295)" fill="#ffcda8"/>
            <path id="Trazado_124205" data-name="Trazado 124205" d="M258.2,180.017a12.354,12.354,0,0,1-.459-3.251c0-1.275-2.983-2.065-2.218.217s1.122,3.659-.612,4-3.825-7.752-4.373-8.989-2.907-1.8-1.734,1.109.765,3.825.765,3.825c-3.251,2.014-3.328,8.594-.625,10.2a14.127,14.127,0,0,1,4.437,4.781l4.769-3.392s-1.173-1.658-.484-2.843a9.459,9.459,0,0,0,.842-2.894,8.671,8.671,0,0,0-.306-2.767Z" transform="translate(-247.018 -170.991)" fill="#ffcda8"/>
          </g>
          <path id="Trazado_124206" data-name="Trazado 124206" d="M269.8,192.711a83.028,83.028,0,0,0-5.661,6.974c-.37,5.674,3.978,10.672,9.142,9.078,2.295-2.155,7.65-6.63,7.65-6.63s10.837-9.052,4.692-14.7C277.994,180.459,269.8,192.711,269.8,192.711Z" transform="translate(-242.317 -142.744)" fill="#3e4fb6"/>
        </g>
        <g id="Grupo_60339" data-name="Grupo 60339" transform="translate(99.18 281.679)">
          <path id="Trazado_124207" data-name="Trazado 124207" d="M246.5,286.049a1.874,1.874,0,0,0-1.007-1.275l-29.465-17.009a5.419,5.419,0,0,0-4.616-.153l-32.7-18.883c5.839-4.386,8.173-9.843,7.012-15.1,1.352-6.145-2.078-12.584-10.289-17.327-14.025-8.1-36.72-8.147-50.656-.1-8.083,4.667-11.475,11.029-10.111,17.136-1.352,6.145,2.091,12.6,10.289,17.327,12.75,7.331,32.436,8.071,46.41,2.206a.766.766,0,0,0,.166.115l35.05,20.234v1.135h0a1.747,1.747,0,0,0,1.02,1.352l29.516,17.11a5.406,5.406,0,0,0,4.883,0l3.557-2.053a1.734,1.734,0,0,0,1.007-1.339h0V286.1Z" transform="translate(-114.292 -208.831)" fill="#c0ccff"/>
          <g id="Grupo_60338" data-name="Grupo 60338" transform="translate(0 0)">
            <ellipse id="Elipse_4089" data-name="Elipse 4089" cx="20.68" cy="35.815" rx="20.68" ry="35.815" transform="translate(0 45.653) rotate(-89.64)" fill="#3e4fb6"/>
            <ellipse id="Elipse_4090" data-name="Elipse 4090" cx="20.68" cy="35.815" rx="20.68" ry="35.815" transform="translate(0.617 41.361) rotate(-89.427)" fill="#899bff"/>
            <ellipse id="Elipse_4091" data-name="Elipse 4091" cx="17.506" cy="30.307" rx="17.506" ry="30.307" transform="translate(5.541 37.291) rotate(-89.64)" fill="#fff"/>
            <path id="Trazado_124208" data-name="Trazado 124208" d="M158.81,239.07Z" transform="translate(-102.071 -200.893)" fill="#007ded"/>
            <path id="Trazado_124209" data-name="Trazado 124209" d="M187.61,256.07l.217.064Z" transform="translate(-94.151 -196.218)" fill="none"/>
            <path id="Trazado_124210" data-name="Trazado 124210" d="M187.85,256.14h0Z" transform="translate(-94.085 -196.199)" fill="none"/>
            <path id="Trazado_124211" data-name="Trazado 124211" d="M187.34,255.94l.268.127Z" transform="translate(-94.226 -196.254)" fill="none"/>
            <path id="Trazado_124212" data-name="Trazado 124212" d="M188.21,256.19Z" transform="translate(-93.986 -196.185)" fill="none"/>
            <g id="Grupo_60336" data-name="Grupo 60336" transform="translate(56.738 36.148)">
              <path id="Trazado_124213" data-name="Trazado 124213" d="M159.358,239.91l35.827,20.681.268.127h.076l.217.064h.638a2.806,2.806,0,0,0,1.479-.306l.6-.357,1.339-.765a.931.931,0,0,0,.548-.727h0v3.009h0a.905.905,0,0,1-.548.8l-1.938,1.122a2.958,2.958,0,0,1-2.677,0l-35.827-20.68a.918.918,0,0,1-.548-.816h0V239.03a.931.931,0,0,0,.548.88Z" transform="translate(-158.81 -237.052)" fill="#445dad"/>
              <path id="Trazado_124214" data-name="Trazado 124214" d="M199.841,259.908l-1.339.765-.6.357a2.805,2.805,0,0,1-1.479.306h-.638l-.217-.064h-.077l-.268-.127L159.4,240.464a.931.931,0,0,1-.548-.765v-.064a.969.969,0,0,1,.548-.714l1.938-1.122a2.958,2.958,0,0,1,2.678,0l35.827,20.566a.893.893,0,0,1,.561.816.931.931,0,0,1-.561.727Z" transform="translate(-158.799 -237.479)" fill="#2d4196"/>
            </g>
            <path id="Trazado_124215" data-name="Trazado 124215" d="M186.73,256.42a1.747,1.747,0,0,0,1.02,1.428l29.465,17.008a5.393,5.393,0,0,0,4.9,0l3.545-2.053a1.606,1.606,0,0,0,.943-1.619h0v3.328h0a1.734,1.734,0,0,1-1.007,1.339l-3.544,2.053a5.394,5.394,0,0,1-4.9,0l-29.4-16.919a1.8,1.8,0,0,1-1.02-1.352h0v-3.162Z" transform="translate(-94.393 -196.122)" fill="#3e4fb6"/>
            <path id="Trazado_124216" data-name="Trazado 124216" d="M225.656,273.683l-3.545,2.053a5.393,5.393,0,0,1-4.9,0L187.75,258.727a1.747,1.747,0,0,1-1.02-1.428,1.683,1.683,0,0,1,1.007-1.39l3.557-2.053a5.368,5.368,0,0,1,4.883,0l29.465,17.008a1.874,1.874,0,0,1,1.007,1.275A1.606,1.606,0,0,1,225.656,273.683Z" transform="translate(-94.393 -196.988)" fill="#899bff"/>
            <g id="Grupo_60337" data-name="Grupo 60337" transform="translate(29.275 2.478)">
              <path id="Trazado_124217" data-name="Trazado 124217" d="M144.71,211.1v34.96q-2.18,0-4.36-.077V211.134C141.8,211.057,143.257,211.057,144.71,211.1Z" transform="translate(-136.423 -211.07)" fill="#dcedff"/>
              <path id="Trazado_124218" data-name="Trazado 124218" d="M139.552,211.2v34.629c-.765-.064-1.53-.153-2.282-.255V211.442C138.022,211.34,138.787,211.264,139.552,211.2Z" transform="translate(-137.27 -211.035)" fill="#dcedff"/>
            </g>
          </g>
        </g>
        <g id="Grupo_60341" data-name="Grupo 60341" transform="translate(181.167 307.641)">
          <path id="Trazado_124219" data-name="Trazado 124219" d="M174.882,232.5a2.627,2.627,0,0,1,3.583-.982l51.217,29.159a2.626,2.626,0,0,1,1.275,1.581h0l3.825,3.723a.778.778,0,0,1,.14.931.739.739,0,0,1-.892.344l-5.1-1.607h0l-.229-.076a2.639,2.639,0,0,1-1.683-.319l-51.153-29.2a2.626,2.626,0,0,1-.982-3.557Z" transform="translate(-174.548 -229.027)" fill="#c0ccff"/>
          <g id="Grupo_60340" data-name="Grupo 60340" transform="translate(0.208)">
            <path id="Trazado_124220" data-name="Trazado 124220" d="M175.079,230.816a2.626,2.626,0,0,1,3.583-.982l51.217,29.159a2.652,2.652,0,0,1,1.275,1.594h0l3.825,3.736a.752.752,0,0,1,.14.918.765.765,0,0,1-.892.357l-5.1-1.619h0l-.217-.076a2.626,2.626,0,0,1-1.683-.319L176.01,234.424a2.626,2.626,0,0,1-.931-3.608Z" transform="translate(-174.711 -229.489)" fill="#ffbd59"/>
            <path id="Trazado_124221" data-name="Trazado 124221" d="M199.009,243.518a1.973,1.973,0,0,0,.4,0,1.415,1.415,0,0,0,.867-.689l.1-.178a1.428,1.428,0,0,0,.14-1.1,1.466,1.466,0,0,0-.676-.88l-18.679-10.633a1.466,1.466,0,0,0-1.109-.14,1.415,1.415,0,0,0-.867.688l-.1.178a1.453,1.453,0,0,0,.535,1.976L198.3,243.378A1.466,1.466,0,0,0,199.009,243.518Z" transform="translate(-173.561 -229.39)" fill="#2d4196"/>
          </g>
        </g>
      </g>
    </g>
  </g>
</svg>
