<svg xmlns="http://www.w3.org/2000/svg" width="107.899" height="80.92" viewBox="0 0 107.899 80.92">
  <g id="Grupo_124040" data-name="Grupo 124040" transform="translate(-325.081 -712.883)">
    <g id="flecha-correcta" transform="translate(325.081 712.883)">
      <path id="Trazado_117781" data-name="Trazado 117781" d="M80.388,107.017l-10.45-9.3a10.123,10.123,0,1,1,13.484-15.1l30.34,26.969a10.113,10.113,0,0,1,0,15.1l-30.34,26.969a10.123,10.123,0,1,1-13.484-15.1l10.45-9.3H26.113a10.113,10.113,0,0,1,0-20.227Z" transform="translate(-12.629 -76.665)" fill="#472ea6" opacity="0.5"/>
      <path id="Trazado_117782" data-name="Trazado 117782" d="M64.051,144.944a13.484,13.484,0,0,1-8.981-23.557l3.83-3.412H13.484a13.484,13.484,0,0,1,0-26.969H58.9l-3.836-3.412A13.5,13.5,0,0,1,73.032,67.449l30.34,26.969a13.484,13.484,0,0,1,0,20.159l-30.34,26.969A13.429,13.429,0,0,1,64.051,144.944Zm-50.567-47.2a6.742,6.742,0,0,0,0,13.484H67.759A3.371,3.371,0,0,1,70,117.126l-10.444,9.3A6.742,6.742,0,0,0,59,135.942l.019.021a7.005,7.005,0,0,0,9.527.539l30.34-26.969a6.776,6.776,0,0,0,0-10.053L68.548,72.512a6.742,6.742,0,0,0-9,10.039L70,91.856a3.371,3.371,0,0,1-2.238,5.893H13.484Z" transform="translate(0 -64.025)" fill="#fff"/>
    </g>
  </g>
</svg>
