<svg xmlns="http://www.w3.org/2000/svg" width="100" height="100" viewBox="0 0 100 100">
  <g id="Grupo_124083" data-name="Grupo 124083" transform="translate(-749.574 -512)">
    <g id="CF6-40" transform="translate(749.574 512)">
      <circle id="Elipse_4098" data-name="Elipse 4098" cx="50" cy="50" r="50" fill="#8c80b8"/>
      <path id="Trazado_125077" data-name="Trazado 125077" d="M85.18,17.2a6.21,6.21,0,0,1,5,7.29l-13,67.05a6.21,6.21,0,0,1-7.3,5L15,85.8a6.21,6.21,0,0,1-5-7.29L23,11.46a6.25,6.25,0,0,1,5.74-5,5.44,5.44,0,0,1,1.55.15Z" fill="#c9bcf7"/>
      <path id="Trazado_125078" data-name="Trazado 125078" d="M71.83,9.59A6.23,6.23,0,0,1,78,15.8V84.09a6.22,6.22,0,0,1-6.21,6.21H16a6.22,6.22,0,0,1-6.21-6.21V15.8a6.32,6.32,0,0,1,4.66-6.05h.15A4.19,4.19,0,0,1,16,9.59Z" fill="#f1eefd"/>
      <path id="Trazado_125079" data-name="Trazado 125079" d="M36.13,11.15v31a7.76,7.76,0,0,1-15.52,0V17.35a1.56,1.56,0,0,1,3.11,0V42.19a4.66,4.66,0,0,0,9.31,0v-31a4.75,4.75,0,0,0-.31-1.56,4.52,4.52,0,0,0-4.35-3.1h-6.2a4.52,4.52,0,0,0-4.35,3.1H16a4.19,4.19,0,0,0-1.4.16,7.69,7.69,0,0,1,7.61-6.36h6.2A7.8,7.8,0,0,1,36,9.59a5.51,5.51,0,0,1,.13,1.56Z" fill="#6c58b8"/>
      <g id="Grupo_60569" data-name="Grupo 60569">
        <path id="Trazado_125080" data-name="Trazado 125080" d="M67.17,51.5H48.55a1.55,1.55,0,0,1,0-3.1H67.17a1.55,1.55,0,1,1,0,3.1Z" fill="#f57fa3"/>
        <path id="Trazado_125081" data-name="Trazado 125081" d="M54.76,63.92H48.55a1.56,1.56,0,0,1,0-3.11h6.21a1.56,1.56,0,0,1,0,3.11Z" fill="#f57fa3"/>
        <path id="Trazado_125082" data-name="Trazado 125082" d="M67.17,63.92H61a1.56,1.56,0,1,1,0-3.11h6.2a1.56,1.56,0,1,1,0,3.11Z" fill="#f57fa3"/>
        <path id="Trazado_125083" data-name="Trazado 125083" d="M42.34,82.54H23.72a1.55,1.55,0,0,1,0-3.1H42.34a1.55,1.55,0,0,1,0,3.1Z" fill="#f57fa3"/>
        <path id="Trazado_125084" data-name="Trazado 125084" d="M67.17,82.54H48.55a1.55,1.55,0,1,1,0-3.1H67.17a1.55,1.55,0,0,1,0,3.1Z" fill="#f57fa3"/>
        <path id="Trazado_125085" data-name="Trazado 125085" d="M67.17,57.71H48.55a1.56,1.56,0,0,1,0-3.11H67.17a1.56,1.56,0,1,1,0,3.11Z" fill="#f57fa3"/>
        <path id="Trazado_125086" data-name="Trazado 125086" d="M54.76,76.33h-31a1.55,1.55,0,1,1,0-3.1h31a1.55,1.55,0,0,1,0,3.1Z" fill="#f57fa3"/>
        <path id="Trazado_125087" data-name="Trazado 125087" d="M67.17,76.33H61a1.55,1.55,0,1,1,0-3.1h6.2a1.55,1.55,0,0,1,0,3.1Z" fill="#f57fa3"/>
        <path id="Trazado_125088" data-name="Trazado 125088" d="M67.17,70.12H48.55a1.55,1.55,0,1,1,0-3.1H67.17a1.55,1.55,0,0,1,0,3.1Z" fill="#f57fa3"/>
        <path id="Trazado_125089" data-name="Trazado 125089" d="M53.27,30.39V26a7.92,7.92,0,1,0-15.84,0v4.42m2.85,0V26a5.07,5.07,0,1,1,10.13,0v4.42" fill="#bbabf5"/>
        <g id="Grupo_60568" data-name="Grupo 60568">
          <path id="Trazado_125090" data-name="Trazado 125090" d="M45.81,18.06h-.46A7.91,7.91,0,0,0,37.43,26v4.42h.92V26a7.92,7.92,0,0,1,7.46-7.94Z" fill="#5e567b"/>
          <path id="Trazado_125091" data-name="Trazado 125091" d="M46.27,20.9h-.46a5.08,5.08,0,0,1,4.6,5v4.42h.93V26a5.07,5.07,0,0,0-5.07-5.1Z" fill="#5e567b"/>
        </g>
        <rect id="Rect치ngulo_6739" data-name="Rect치ngulo 6739" width="21.09" height="15.1" transform="translate(47.32 30.39)" fill="#fd8f25"/>
        <rect id="Rect치ngulo_6740" data-name="Rect치ngulo 6740" width="1.85" height="15.1" transform="translate(47.32 30.39)" fill="#be6b1c"/>
        <path id="Trazado_125092" data-name="Trazado 125092" d="M60.13,36.53a2.27,2.27,0,1,0-3.34,2l-.37,2.8H59.3l-.36-2.8A2.25,2.25,0,0,0,60.13,36.53Z" fill="#12263f"/>
      </g>
    </g>
  </g>
</svg>
