<svg xmlns="http://www.w3.org/2000/svg" width="100" height="100" viewBox="0 0 100 100">
  <g id="Grupo_124082" data-name="Grupo 124082" transform="translate(-333.574 -512)">
    <g id="CF6-41" transform="translate(333.574 512)">
      <circle id="Elipse_4099" data-name="Elipse 4099" cx="50" cy="50" r="50" fill="#8c80b8"/>
      <path id="Trazado_125093" data-name="Trazado 125093" d="M85.18,17.2a6.21,6.21,0,0,1,5,7.29l-13,67.05a6.21,6.21,0,0,1-7.3,5L15,85.8a6.21,6.21,0,0,1-5-7.29L23,11.46a6.25,6.25,0,0,1,5.74-5,5.44,5.44,0,0,1,1.55.15Z" fill="#c9bcf7"/>
      <path id="Trazado_125094" data-name="Trazado 125094" d="M71.83,9.59A6.23,6.23,0,0,1,78,15.8V84.09a6.22,6.22,0,0,1-6.21,6.21H16a6.22,6.22,0,0,1-6.21-6.21V15.8a6.32,6.32,0,0,1,4.66-6.05h.15A4.19,4.19,0,0,1,16,9.59Z" fill="#f1eefd"/>
      <path id="Trazado_125095" data-name="Trazado 125095" d="M36.13,11.15v31a7.76,7.76,0,0,1-15.52,0V17.35a1.56,1.56,0,0,1,3.11,0V42.19a4.66,4.66,0,0,0,9.31,0v-31a4.75,4.75,0,0,0-.31-1.56,4.52,4.52,0,0,0-4.35-3.1h-6.2a4.52,4.52,0,0,0-4.35,3.1H16a4.19,4.19,0,0,0-1.4.16,7.69,7.69,0,0,1,7.61-6.36h6.2A7.8,7.8,0,0,1,36,9.59a5.51,5.51,0,0,1,.13,1.56Z" fill="#6c58b8"/>
      <g id="Grupo_60571" data-name="Grupo 60571">
        <path id="Trazado_125096" data-name="Trazado 125096" d="M67.17,51.5H48.55a1.55,1.55,0,0,1,0-3.1H67.17a1.55,1.55,0,1,1,0,3.1Z" fill="#f57fa3"/>
        <path id="Trazado_125097" data-name="Trazado 125097" d="M54.76,63.92H48.55a1.56,1.56,0,0,1,0-3.11h6.21a1.56,1.56,0,0,1,0,3.11Z" fill="#f57fa3"/>
        <path id="Trazado_125098" data-name="Trazado 125098" d="M67.17,63.92H61a1.56,1.56,0,1,1,0-3.11h6.2a1.56,1.56,0,1,1,0,3.11Z" fill="#f57fa3"/>
        <path id="Trazado_125099" data-name="Trazado 125099" d="M42.34,82.54H23.72a1.55,1.55,0,0,1,0-3.1H42.34a1.55,1.55,0,0,1,0,3.1Z" fill="#f57fa3"/>
        <path id="Trazado_125100" data-name="Trazado 125100" d="M67.17,82.54H48.55a1.55,1.55,0,1,1,0-3.1H67.17a1.55,1.55,0,0,1,0,3.1Z" fill="#f57fa3"/>
        <path id="Trazado_125101" data-name="Trazado 125101" d="M67.17,57.71H48.55a1.56,1.56,0,0,1,0-3.11H67.17a1.56,1.56,0,1,1,0,3.11Z" fill="#f57fa3"/>
        <path id="Trazado_125102" data-name="Trazado 125102" d="M54.76,76.33h-31a1.55,1.55,0,1,1,0-3.1h31a1.55,1.55,0,0,1,0,3.1Z" fill="#f57fa3"/>
        <path id="Trazado_125103" data-name="Trazado 125103" d="M67.17,76.33H61a1.55,1.55,0,1,1,0-3.1h6.2a1.55,1.55,0,0,1,0,3.1Z" fill="#f57fa3"/>
        <path id="Trazado_125104" data-name="Trazado 125104" d="M67.17,70.12H48.55a1.55,1.55,0,1,1,0-3.1H67.17a1.55,1.55,0,0,1,0,3.1Z" fill="#f57fa3"/>
        <circle id="Elipse_4100" data-name="Elipse 4100" cx="10.87" cy="10.87" r="10.87" transform="translate(46.97 15.24)" fill="#ffd15c"/>
        <g id="Grupo_60570" data-name="Grupo 60570">
          <path id="Trazado_125105" data-name="Trazado 125105" d="M49,32.47,45.3,39l4.36-.23,2,3.89,3.46-6A10.93,10.93,0,0,1,49,32.47Z" fill="#40596b"/>
          <path id="Trazado_125106" data-name="Trazado 125106" d="M66.66,32.43a10.85,10.85,0,0,1-6,4.18l3.47,6,2-3.89,4.36.23Z" fill="#40596b"/>
        </g>
        <circle id="Elipse_4101" data-name="Elipse 4101" cx="7.88" cy="7.88" r="7.88" transform="translate(49.96 18.23)" fill="#f8b64c"/>
        <path id="Trazado_125107" data-name="Trazado 125107" d="M63.24,25.26a.41.41,0,0,0-.23-.7l-3.11-.45a.46.46,0,0,1-.31-.23L58.2,21.06a.4.4,0,0,0-.73,0l-1.39,2.82a.46.46,0,0,1-.31.23l-3.1.45a.41.41,0,0,0-.23.7l2.25,2.19a.44.44,0,0,1,.12.36l-.53,3.09a.41.41,0,0,0,.6.44l2.78-1.46a.37.37,0,0,1,.38,0l2.78,1.46a.42.42,0,0,0,.6-.44l-.54-3.09a.4.4,0,0,1,.12-.36Z" fill="#fff"/>
      </g>
    </g>
  </g>
</svg>
