<svg xmlns="http://www.w3.org/2000/svg" xmlns:xlink="http://www.w3.org/1999/xlink" width="458.394" height="382.698" viewBox="0 0 458.394 382.698">
  <defs>
    <linearGradient id="linear-gradient" y1="0.5" x2="1" y2="0.5" gradientUnits="objectBoundingBox">
      <stop offset="0" stop-color="#fed2a8"/>
      <stop offset="1" stop-color="#fda551"/>
    </linearGradient>
    <linearGradient id="linear-gradient-2" x1="0" y1="0.5" x2="1" y2="0.5" xlink:href="#linear-gradient"/>
    <linearGradient id="linear-gradient-3" x1="0" y1="0.5" x2="1" y2="0.5" xlink:href="#linear-gradient"/>
    <linearGradient id="linear-gradient-5" x1="0" y1="0.5" x2="1" y2="0.5" xlink:href="#linear-gradient"/>
    <linearGradient id="linear-gradient-6" x1="0" y1="0.5" x2="1" y2="0.5" xlink:href="#linear-gradient"/>
    <linearGradient id="linear-gradient-7" x1="0" y1="0.5" x2="1" y2="0.5" xlink:href="#linear-gradient"/>
    <linearGradient id="linear-gradient-10" x1="0" y1="0.5" x2="1" y2="0.5" xlink:href="#linear-gradient"/>
    <linearGradient id="linear-gradient-11" x1="0" y1="0.5" x2="1" y2="0.5" xlink:href="#linear-gradient"/>
    <linearGradient id="linear-gradient-16" x1="0" y1="0.5" x2="1" y2="0.5" xlink:href="#linear-gradient"/>
    <linearGradient id="linear-gradient-19" x1="-0.001" y1="0.5" x2="1" y2="0.5" xlink:href="#linear-gradient"/>
    <clipPath id="clip-path">
      <path id="Trazado_127730" data-name="Trazado 127730" d="M119.41,206.84a150.329,150.329,0,0,1,2.73,29.42c0,17.1-1.24,48-2.54,60.3-3.29,31-1.64,35.84-1.64,41.89a37.85,37.85,0,0,0,2.56,12.33,20.76,20.76,0,0,1-17,11c-12.43.93-17.56-9.75-17.56-9.75s-.21-34-.72-46.1,2.57-84,2.36-86.66S119.41,206.84,119.41,206.84Z" fill="none"/>
    </clipPath>
    <clipPath id="clip-path-2">
      <path id="Trazado_127741" data-name="Trazado 127741" d="M91.76,112.87s7.35,6,13.46,7.49,9.76-.46,10.68-3.54-.26-5.14.51-10.27,1.34-8.16,1.34-10.42a12.26,12.26,0,0,1,.62-4.67c.51-1.59-.62-9.81-2.62-14.94s-7.34-12.63-16.07-15.09S81.56,64.09,77.76,71.49s-1.13,21.82,1.08,25.62,5.75,9.24,7,10.52S91.76,112.87,91.76,112.87Z" fill="none"/>
    </clipPath>
    <clipPath id="clip-path-3">
      <path id="Trazado_127770" data-name="Trazado 127770" d="M449.13,153a198.6,198.6,0,0,1,15.73,14.32c6.61,6.92,9.44,13.06,9.76,18.4s-2.52,28-2.68,48.93,2.68,34.61,2.68,34.61-9.76,8.18-21.55,7.55-26.75-7.08-33-15.42-6.76-14.16-6.76-14.16,1.25-44.2-.16-62.61-3.46-41.21-1.1-42.94,8.18-2.52,12.42-1.58S444.26,148.7,449.13,153Z" fill="none"/>
    </clipPath>
  </defs>
  <g id="Grupo_124090" data-name="Grupo 124090" transform="translate(-246.606 -3059.473)">
    <g id="CF6_licencia_copia_2" data-name="CF6_licencia copia 2" transform="translate(218.37 2999.396)">
      <g id="Layer_1" data-name="Layer 1">
        <g id="Grupo_61242" data-name="Grupo 61242">
          <g id="Grupo_61227" data-name="Grupo 61227">
            <g id="Grupo_61221" data-name="Grupo 61221">
              <path id="Trazado_127691" data-name="Trazado 127691" d="M377,261.25h-1.25c-2-5.21-6.49-10.17-13.52-14.23-19.61-11.32-51.3-11.38-70.79-.13C284.41,251,280,256,278,261.25h-1.11v7.06H277c.47,7.06,5.33,14.05,14.68,19.45,19.61,11.32,51.3,11.38,70.79.13,9.37-5.42,14.17-12.46,14.48-19.58H377Z" fill="url(#linear-gradient)"/>
              <ellipse id="Elipse_4113" data-name="Elipse 4113" cx="28.9" cy="50.05" rx="28.9" ry="50.05" transform="matrix(0.005, -1, 1, 0.005, 276.771, 290.258)" fill="#fed2a8"/>
            </g>
            <g id="Grupo_61222" data-name="Grupo 61222">
              <path id="Trazado_127692" data-name="Trazado 127692" d="M374.82,208.7h-1.2c-1.92-5-6.2-9.72-12.92-13.6-18.74-10.82-49-10.87-67.64-.12-6.76,3.9-11,8.69-12.85,13.72h-1.06v53h.09c.45,6.74,5.09,13.42,14,18.58,18.74,10.82,49,10.88,67.64.13,9-5.18,13.54-11.91,13.84-18.71h.07Z" fill="url(#linear-gradient-2)"/>
              <path id="Trazado_127693" data-name="Trazado 127693" d="M374.81,207.63v12.94c-2.28,4.35-6.38,8.44-12.32,11.87-19.5,11.25-51.18,11.18-70.79-.13-6.07-3.5-10.24-7.65-12.54-12.09V207.63h1c1.83-5,6.09-9.81,12.85-13.72,18.61-10.75,48.91-10.69,67.65.11,6.71,3.89,11,8.64,12.92,13.61Z" fill="url(#linear-gradient-3)"/>
              <path id="Trazado_127694" data-name="Trazado 127694" d="M360.91,228.65c-18.62,10.75-48.9,10.69-67.64-.13s-18.83-28.3-.21-39.05,48.9-10.7,67.64.12S379.53,217.9,360.91,228.65Z" fill="#fed2a8"/>
            </g>
            <g id="Grupo_61223" data-name="Grupo 61223">
              <path id="Trazado_127695" data-name="Trazado 127695" d="M377,202.55h-1.25c-2-5.21-6.49-10.18-13.52-14.24-19.61-11.32-51.3-11.37-70.79-.12-7.07,4.08-11.52,9.09-13.44,14.36h-1.11v7.06H277c.47,7,5.33,14,14.68,19.44,19.61,11.32,51.3,11.38,70.79.13,9.37-5.41,14.17-12.46,14.48-19.57H377Z" fill="url(#linear-gradient)"/>
              <ellipse id="Elipse_4114" data-name="Elipse 4114" cx="28.9" cy="50.05" rx="28.9" ry="50.05" transform="matrix(0.005, -1, 1, 0.005, 276.771, 231.55)" fill="#fed2a8"/>
            </g>
            <g id="Grupo_61224" data-name="Grupo 61224">
              <path id="Trazado_127696" data-name="Trazado 127696" d="M374.81,150v53h-.05c-.31,6.78-4.88,13.52-13.85,18.7-18.61,10.75-48.91,10.68-67.65-.14-8.92-5.15-13.59-11.82-14-18.56h-.07V150h1c1.83-5.05,6.09-9.82,12.85-13.72,18.61-10.76,48.91-10.69,67.65.11,6.71,3.88,11,8.63,12.92,13.61Z" fill="url(#linear-gradient-5)"/>
              <path id="Trazado_127697" data-name="Trazado 127697" d="M374.81,150v12.94c-2.28,4.35-6.38,8.43-12.32,11.87-19.5,11.24-51.18,11.17-70.79-.14-6.07-3.5-10.24-7.65-12.54-12.09V150h1c1.83-5.05,6.09-9.82,12.85-13.72,18.61-10.76,48.91-10.69,67.65.11,6.71,3.88,11,8.63,12.92,13.61Z" fill="url(#linear-gradient-6)"/>
              <path id="Trazado_127698" data-name="Trazado 127698" d="M360.91,169.94c-18.62,10.75-48.9,10.7-67.64-.12s-18.83-28.3-.21-39,48.9-10.7,67.64.12S379.53,159.19,360.91,169.94Z" fill="#fed2a8"/>
            </g>
            <g id="Grupo_61225" data-name="Grupo 61225">
              <path id="Trazado_127699" data-name="Trazado 127699" d="M377,144h-1.25c-2-5.21-6.49-10.17-13.52-14.23-19.61-11.32-51.3-11.38-70.79-.13C284.41,133.7,280,138.71,278,144h-1.11v7.07H277c.47,7,5.33,14,14.68,19.44,19.61,11.32,51.3,11.38,70.79.13,9.37-5.42,14.17-12.46,14.48-19.57H377Z" fill="url(#linear-gradient-7)"/>
              <ellipse id="Elipse_4115" data-name="Elipse 4115" cx="28.9" cy="50.05" rx="28.9" ry="50.05" transform="matrix(0.005, -1, 1, 0.005, 276.782, 172.983)" fill="#fed2a8"/>
            </g>
            <g id="Grupo_61226" data-name="Grupo 61226">
              <path id="Trazado_127700" data-name="Trazado 127700" d="M304.06,208.17a15.05,15.05,0,0,0-5.26-11.81,7.18,7.18,0,0,0,.77-3,15.14,15.14,0,0,0-5-11.61,12.15,12.15,0,0,1,3.75,9c-.16,2.4-1.33,3.84-2.95,4a4,4,0,0,0-.69,0,4.77,4.77,0,0,1-2-.76,8.819,8.819,0,0,1-2-1.74c-.2-.29-.42-.58-.64-.85a12,12,0,0,1-2.21-7.25c.2-3,2-4.55,4.3-3.88-3-1.08-5.46.82-5.72,4.77a12.689,12.689,0,0,0,.34,3.64c-3.33-1.62-6.12.25-6.39,4.49a11.066,11.066,0,0,0,0,1.29,2.118,2.118,0,0,1,0-.26c.23-3.62,2.77-5.08,5.66-3.26s5.05,6.23,4.81,9.85-2.77,5.07-5.66,3.25a9.3,9.3,0,0,1-2.47-2.39,12.221,12.221,0,0,0,3.69,3.89c2.16,1.36,4.16,1.26,5.49,0a13.74,13.74,0,0,0,5.06,6.62,4.72,4.72,0,0,0,4.53.66,4,4,0,0,1-3.21-.67c-2.89-1.82-5-6.23-4.81-9.85.15-2.25,1.19-3.67,2.65-4h0a4.14,4.14,0,0,1,3,.73c2.89,1.82,5,6.23,4.81,9.84v.42A9,9,0,0,0,304.06,208.17Zm-11.65-9.8a2.72,2.72,0,0,1-1.12-2.29c.06-.83.64-1.17,1.32-.75a2.73,2.73,0,0,1,1.11,2.28C293.67,198.45,293.08,198.79,292.41,198.37Z" fill="#4d4d4d"/>
              <path id="Trazado_127701" data-name="Trazado 127701" d="M293,189a5.08,5.08,0,0,0-4-.85l.91,1.85a4.12,4.12,0,0,1,3,.73,9.6,9.6,0,0,1,2.89,3l1.07-.61A12.4,12.4,0,0,0,293,189Zm-5.8,5v-.4l-1.11-2.27a8,8,0,0,0-.3,1.81,15.36,15.36,0,0,0,3.83,10.51l.12-1.87a12.25,12.25,0,0,1-2.51-7.78Zm11.85,5.5-1.31.76v.36c-.17,2.65-1.58,4.14-3.46,4l-.12,1.85c2.66.49,4.72-1.42,5-5a12.113,12.113,0,0,0-.08-1.98Z" fill="#4d4d4d"/>
            </g>
          </g>
          <g id="Grupo_61234" data-name="Grupo 61234">
            <g id="Grupo_61228" data-name="Grupo 61228">
              <path id="Trazado_127702" data-name="Trazado 127702" d="M307.65,307.66H306.4c-2-5.21-6.49-10.17-13.52-14.24-19.61-11.32-51.3-11.37-70.79-.12-7.07,4.08-11.52,9.09-13.44,14.36h-1.11v7.06h.09c.47,7,5.33,14,14.68,19.44,19.61,11.33,51.3,11.38,70.79.13,9.37-5.41,14.17-12.46,14.48-19.57h.07Z" fill="url(#linear-gradient-6)"/>
              <ellipse id="Elipse_4116" data-name="Elipse 4116" cx="28.9" cy="50.05" rx="28.9" ry="50.05" transform="matrix(0.005, -1, 1, 0.005, 207.385, 336.648)" fill="#fed2a8"/>
            </g>
            <g id="Grupo_61229" data-name="Grupo 61229">
              <path id="Trazado_127703" data-name="Trazado 127703" d="M305.43,255.11h-1.2c-1.92-5-6.2-9.72-12.92-13.6-18.74-10.82-49-10.88-67.64-.13-6.76,3.9-11,8.69-12.85,13.73h-1.06v53h.09c.45,6.74,5.09,13.42,14,18.58,18.74,10.82,49,10.87,67.64.12,9-5.17,13.54-11.9,13.84-18.7h.07Z" fill="url(#linear-gradient-2)"/>
              <path id="Trazado_127704" data-name="Trazado 127704" d="M305.42,254v13c-2.28,4.35-6.38,8.43-12.32,11.87-19.5,11.24-51.18,11.18-70.79-.14-6.07-3.5-10.24-7.65-12.54-12.09V254h1c1.83-5,6.09-9.82,12.85-13.72,18.61-10.76,48.91-10.69,67.65.11,6.71,3.88,11,8.63,12.92,13.61Z" fill="url(#linear-gradient-10)"/>
              <ellipse id="Elipse_4117" data-name="Elipse 4117" cx="27.61" cy="47.83" rx="27.61" ry="47.83" transform="matrix(0.005, -1, 1, 0.005, 209.612, 282.806)" fill="#fed2a8"/>
            </g>
            <g id="Grupo_61230" data-name="Grupo 61230">
              <path id="Trazado_127705" data-name="Trazado 127705" d="M307.65,249H306.4c-2-5.21-6.49-10.17-13.52-14.23-19.61-11.32-51.3-11.38-70.79-.13-7.07,4.08-11.52,9.1-13.44,14.36h-1.11v7h.09c.47,7.05,5.33,14,14.68,19.44,19.61,11.32,51.3,11.38,70.79.13,9.37-5.41,14.17-12.46,14.48-19.57h.07Z" fill="url(#linear-gradient-11)"/>
              <ellipse id="Elipse_4118" data-name="Elipse 4118" cx="28.9" cy="50.05" rx="28.9" ry="50.05" transform="matrix(0.005, -1, 1, 0.005, 207.395, 277.95)" fill="#fed2a8"/>
            </g>
            <g id="Grupo_61231" data-name="Grupo 61231">
              <path id="Trazado_127706" data-name="Trazado 127706" d="M305.42,196.4v53h-.05c-.31,6.78-4.88,13.52-13.85,18.69-18.61,10.76-48.91,10.69-67.65-.13-8.92-5.16-13.58-11.83-14-18.56h-.07v-53h1c1.83-5,6.09-9.81,12.85-13.72,18.61-10.75,48.91-10.68,67.65.11,6.71,3.89,11,8.64,12.92,13.61Z" fill="url(#linear-gradient-5)"/>
              <path id="Trazado_127707" data-name="Trazado 127707" d="M305.42,196.4v12.94c-2.28,4.35-6.38,8.44-12.32,11.87-19.5,11.25-51.18,11.18-70.79-.13-6.07-3.5-10.24-7.65-12.54-12.09V196.4h1c1.83-5,6.09-9.81,12.85-13.72,18.61-10.75,48.91-10.68,67.65.11,6.71,3.89,11,8.64,12.92,13.61Z" fill="url(#linear-gradient-3)"/>
              <path id="Trazado_127708" data-name="Trazado 127708" d="M291.52,216.35c-18.62,10.75-48.9,10.69-67.64-.12s-18.83-28.31-.21-39.06,48.9-10.69,67.64.13S310.14,205.6,291.52,216.35Z" fill="#fed2a8"/>
            </g>
            <g id="Grupo_61232" data-name="Grupo 61232">
              <path id="Trazado_127709" data-name="Trazado 127709" d="M307.65,190.39H306.4c-2-5.21-6.49-10.17-13.52-14.23-19.61-11.33-51.3-11.38-70.79-.13-7.07,4.08-11.52,9.09-13.44,14.36h-1.11v7.06h.09c.47,7.06,5.33,14,14.68,19.45,19.61,11.32,51.3,11.37,70.79.12,9.37-5.41,14.17-12.45,14.48-19.57h.07Z" fill="url(#linear-gradient-2)"/>
              <ellipse id="Elipse_4119" data-name="Elipse 4119" cx="28.9" cy="50.05" rx="28.9" ry="50.05" transform="matrix(0.005, -1, 1, 0.005, 207.386, 219.384)" fill="#fed2a8"/>
            </g>
            <g id="Grupo_61233" data-name="Grupo 61233">
              <path id="Trazado_127710" data-name="Trazado 127710" d="M234.67,254.57a15,15,0,0,0-5.26-11.8,7.23,7.23,0,0,0,.77-3,15.11,15.11,0,0,0-5-11.61,12.15,12.15,0,0,1,3.75,9c-.16,2.4-1.33,3.84-2.95,4a4,4,0,0,0-.69,0,4.9,4.9,0,0,1-2-.76,8.82,8.82,0,0,1-2-1.74c-.2-.3-.42-.58-.64-.85a12,12,0,0,1-2.21-7.25c.2-3,2-4.56,4.31-3.88-3-1.08-5.47.82-5.73,4.77a12.69,12.69,0,0,0,.34,3.64c-3.33-1.63-6.11.25-6.39,4.49a9.107,9.107,0,0,0,0,1.28,1.15,1.15,0,0,1,0-.26c.23-3.61,2.77-5.07,5.66-3.25a11.79,11.79,0,0,1,4.81,9.84c-.23,3.62-2.77,5.08-5.66,3.26a9.34,9.34,0,0,1-2.47-2.4A12,12,0,0,0,217,252c2.16,1.36,4.16,1.27,5.49,0a13.79,13.79,0,0,0,5.06,6.62,4.72,4.72,0,0,0,4.53.66,4,4,0,0,1-3.2-.68c-2.9-1.82-5-6.23-4.82-9.84.15-2.26,1.19-3.67,2.65-4h0a4.18,4.18,0,0,1,3,.72c2.89,1.82,5,6.23,4.81,9.85v.42A7.763,7.763,0,0,0,234.67,254.57ZM223,244.78a2.77,2.77,0,0,1-1.12-2.29c.06-.84.64-1.17,1.32-.75a2.71,2.71,0,0,1,1.11,2.28C224.28,244.86,223.69,245.2,223,244.78Z" fill="#4d4d4d"/>
              <path id="Trazado_127711" data-name="Trazado 127711" d="M223.64,235.41a5.05,5.05,0,0,0-4-.86l.91,1.86a4.16,4.16,0,0,1,3,.72,9.6,9.6,0,0,1,2.89,3l1.07-.61A12.46,12.46,0,0,0,223.64,235.41Zm-5.8,5v-.4l-1.11-2.27a8.669,8.669,0,0,0-.3,1.8,15.49,15.49,0,0,0,3.83,10.52l.12-1.88a12.24,12.24,0,0,1-2.54-7.78Zm11.85,5.5-1.31.75v.37c-.17,2.65-1.58,4.14-3.46,4l-.12,1.86c2.67.49,4.73-1.42,5-5a11,11,0,0,0-.11-1.99Z" fill="#4d4d4d"/>
            </g>
          </g>
          <g id="Grupo_61241" data-name="Grupo 61241">
            <g id="Grupo_61235" data-name="Grupo 61235">
              <path id="Trazado_127712" data-name="Trazado 127712" d="M399.94,325.51h-1.25c-2-5.2-6.49-10.17-13.52-14.23-19.61-11.32-51.3-11.37-70.79-.12-7.07,4.08-11.52,9.09-13.44,14.35h-1.11v7.07h.09c.47,7.05,5.33,14,14.68,19.44,19.61,11.32,51.3,11.38,70.79.13,9.37-5.41,14.17-12.46,14.48-19.57h.07Z" fill="url(#linear-gradient-3)"/>
              <ellipse id="Elipse_4120" data-name="Elipse 4120" cx="28.9" cy="50.05" rx="28.9" ry="50.05" transform="matrix(0.005, -1, 1, 0.005, 299.674, 354.516)" fill="#fed2a8"/>
            </g>
            <g id="Grupo_61236" data-name="Grupo 61236">
              <path id="Trazado_127713" data-name="Trazado 127713" d="M397.72,273h-1.2c-1.92-5-6.2-9.71-12.92-13.6-18.74-10.81-49-10.87-67.64-.12-6.76,3.9-11,8.69-12.85,13.72h-1.06v53h.09c.44,6.74,5.09,13.42,14,18.58,18.74,10.82,49,10.87,67.64.12,9-5.17,13.54-11.9,13.84-18.7h.07Z" fill="url(#linear-gradient-16)"/>
              <path id="Trazado_127714" data-name="Trazado 127714" d="M397.71,271.9v12.94c-2.28,4.35-6.38,8.43-12.32,11.87-19.5,11.24-51.18,11.17-70.79-.14-6.07-3.5-10.24-7.65-12.54-12.09V271.9h1.05c1.83-5,6.09-9.82,12.85-13.72,18.61-10.76,48.91-10.69,67.65.11,6.71,3.88,11,8.63,12.91,13.61Z" fill="url(#linear-gradient-6)"/>
              <ellipse id="Elipse_4121" data-name="Elipse 4121" cx="27.61" cy="47.83" rx="27.61" ry="47.83" transform="matrix(0.005, -1, 1, 0.005, 301.901, 300.673)" fill="#fed2a8"/>
            </g>
            <g id="Grupo_61237" data-name="Grupo 61237">
              <path id="Trazado_127715" data-name="Trazado 127715" d="M399.94,266.81h-1.25c-2-5.21-6.49-10.17-13.52-14.23-19.61-11.32-51.3-11.38-70.79-.13-7.07,4.08-11.52,9.09-13.44,14.36h-1.11v7.07h.09c.47,7.05,5.33,14,14.68,19.44,19.61,11.32,51.3,11.38,70.79.13,9.37-5.42,14.17-12.46,14.48-19.57h.07Z" fill="url(#linear-gradient-3)"/>
              <ellipse id="Elipse_4122" data-name="Elipse 4122" cx="28.9" cy="50.05" rx="28.9" ry="50.05" transform="matrix(0.005, -1, 1, 0.005, 299.674, 295.818)" fill="#fed2a8"/>
            </g>
            <g id="Grupo_61238" data-name="Grupo 61238">
              <path id="Trazado_127716" data-name="Trazado 127716" d="M397.71,214.26v53h0c-.31,6.79-4.88,13.52-13.85,18.7-18.61,10.75-48.91,10.69-67.65-.13-8.92-5.16-13.59-11.83-14-18.57h-.07v-53h1.05c1.83-5,6.09-9.81,12.85-13.72,18.61-10.75,48.91-10.69,67.65.11,6.71,3.88,11,8.64,12.91,13.61Z" fill="url(#linear-gradient-19)"/>
              <path id="Trazado_127717" data-name="Trazado 127717" d="M397.71,214.26V227.2c-2.28,4.35-6.38,8.44-12.32,11.87-19.5,11.25-51.18,11.18-70.79-.13-6.07-3.51-10.24-7.66-12.54-12.1V214.26h1.05c1.83-5,6.09-9.81,12.85-13.72,18.61-10.75,48.91-10.69,67.65.11,6.71,3.88,11,8.64,12.91,13.61Z" fill="url(#linear-gradient-3)"/>
              <path id="Trazado_127718" data-name="Trazado 127718" d="M383.81,234.21c-18.62,10.75-48.9,10.69-67.64-.13S297.34,205.78,316,195s48.9-10.69,67.64.12S402.43,223.46,383.81,234.21Z" fill="#fed2a8"/>
            </g>
            <g id="Grupo_61239" data-name="Grupo 61239">
              <path id="Trazado_127719" data-name="Trazado 127719" d="M399.94,208.25h-1.25c-2-5.21-6.49-10.18-13.52-14.24-19.61-11.32-51.3-11.37-70.79-.12-7.07,4.08-11.52,9.09-13.44,14.36h-1.11v7.06h.09c.47,7.05,5.33,14,14.68,19.44,19.61,11.32,51.3,11.38,70.79.13,9.37-5.41,14.17-12.46,14.48-19.57h.07Z" fill="url(#linear-gradient-3)"/>
              <ellipse id="Elipse_4123" data-name="Elipse 4123" cx="28.9" cy="50.05" rx="28.9" ry="50.05" transform="matrix(0.005, -1, 1, 0.005, 299.675, 237.251)" fill="#fed2a8"/>
            </g>
            <g id="Grupo_61240" data-name="Grupo 61240">
              <path id="Trazado_127720" data-name="Trazado 127720" d="M327,272.43a15.07,15.07,0,0,0-5.26-11.81,7.13,7.13,0,0,0,.77-2.95,15.12,15.12,0,0,0-5-11.62,12.16,12.16,0,0,1,3.76,9c-.16,2.4-1.33,3.83-2.95,4a3.277,3.277,0,0,0-.7,0,4.92,4.92,0,0,1-2-.76,9.13,9.13,0,0,1-2-1.75c-.2-.29-.42-.57-.64-.84a12,12,0,0,1-2.21-7.25c.2-3,2-4.56,4.3-3.88-3-1.08-5.46.81-5.72,4.77a12.689,12.689,0,0,0,.34,3.64c-3.33-1.63-6.12.25-6.39,4.49a10.915,10.915,0,0,0,0,1.28c0-.09,0-.17,0-.26.24-3.62,2.78-5.07,5.67-3.25a11.79,11.79,0,0,1,4.81,9.84c-.23,3.62-2.77,5.08-5.66,3.26a9.19,9.19,0,0,1-2.47-2.4,12.12,12.12,0,0,0,3.69,3.89c2.16,1.36,4.16,1.27,5.49,0a13.81,13.81,0,0,0,5.06,6.63,4.72,4.72,0,0,0,4.53.65,4,4,0,0,1-3.21-.67c-2.89-1.82-5-6.23-4.81-9.84.15-2.26,1.19-3.68,2.65-4h0a4.1,4.1,0,0,1,3,.72c2.9,1.82,5.05,6.23,4.82,9.85v.42A9.305,9.305,0,0,0,327,272.43Zm-11.65-9.8a2.72,2.72,0,0,1-1.12-2.28c.05-.84.64-1.18,1.32-.75a2.73,2.73,0,0,1,1.11,2.28c-.09.84-.66,1.18-1.35.75Z" fill="#4d4d4d"/>
              <path id="Trazado_127721" data-name="Trazado 127721" d="M315.93,253.27a5.05,5.05,0,0,0-4-.86l.91,1.86a4.11,4.11,0,0,1,3,.72,9.71,9.71,0,0,1,2.89,3l1.07-.61a12.46,12.46,0,0,0-3.87-4.11Zm-5.8,5v-.41l-1.11-2.27a8.242,8.242,0,0,0-.3,1.81,15.35,15.35,0,0,0,3.83,10.51l.12-1.87a12.24,12.24,0,0,1-2.54-7.78Zm11.85,5.5-1.31.75v.36c-.17,2.65-1.58,4.15-3.46,4.05l-.12,1.85c2.66.5,4.72-1.41,5-5a12,12,0,0,0-.09-2.02Z" fill="#4d4d4d"/>
            </g>
          </g>
        </g>
        <g id="Grupo_61252" data-name="Grupo 61252">
          <path id="Trazado_127722" data-name="Trazado 127722" d="M162.4,211.91a6.89,6.89,0,0,0,2.64,2.28c1.77.88,4.87-.33,6.41,0s8.76,6,8.76,6-1,1.81-2.66,1.28-2.52-1.52-4.11-2.08-2.38-.48-2.55-.14,1.55,1.72,2.63,2.53,4.59,3.85,5.87,4.4,8.22,2.94,8.22,2.94-.85,2.06-1.77,2.26-2.54,1.72-3.33,2.05-3.14,1.74-5.53,1.89a10.26,10.26,0,0,1-7.39-2c-2.54-1.93-6.53-4.51-7-5.17s-2-3.87-2.84-4.73-4.4-3.72-4.4-3.72Z" fill="#fdaf97"/>
          <path id="Trazado_127723" data-name="Trazado 127723" d="M125,110.62a133.42,133.42,0,0,1,8.47,23.86c2.79,12,6,36.22,8.79,43.29s25.42,33.74,25.42,33.74L156,225.78s-27.21-24.65-32.14-36.86-12.22-42-12.22-42Z" fill="#8cb8ff"/>
          <g id="Grupo_61251" data-name="Grupo 61251">
            <g id="Grupo_61245" data-name="Grupo 61245">
              <path id="Trazado_127724" data-name="Trazado 127724" d="M117.09,350.21a33.21,33.21,0,0,0,9.89,8.33c6.17,3.33,11,4.7,11.85,9s.93,4.95-1.23,8.13-7.1,4.9-11.6,3.87-10.33-4-15-7.59-11.31-7.49-14.54-9.6-6.12-4.55-6.51-7.2,14.59-12.49,14.59-12.49a18.139,18.139,0,0,1,3.67.74c.39.34,6.27,3.28,6.27,3.28Z"/>
              <path id="Trazado_127725" data-name="Trazado 127725" d="M91.11,353c.69,2.43,3.39,4.68,6.39,6.63,3.23,2.11,9.85,6,14.55,9.6s10.53,6.56,15,7.59,9.45-.68,11.61-3.87c.25-.38.48-.72.68-1a8.33,8.33,0,0,1-1.77,3.75c-2.15,3.18-7.1,4.9-11.6,3.87s-10.33-4-15-7.59-11.31-7.49-14.54-9.6-6.12-4.55-6.51-7.2C89.83,354.66,90.3,353.91,91.11,353Z" fill="#363636"/>
              <path id="Trazado_127726" data-name="Trazado 127726" d="M119.41,206.84a150.329,150.329,0,0,1,2.73,29.42c0,17.1-1.24,48-2.54,60.3-3.29,31-1.64,35.84-1.64,41.89a37.85,37.85,0,0,0,2.56,12.33,20.76,20.76,0,0,1-17,11c-12.43.93-17.56-9.75-17.56-9.75s-.21-34-.72-46.1,2.57-84,2.36-86.66S119.41,206.84,119.41,206.84Z" fill="#2e2c30"/>
              <path id="Trazado_127727" data-name="Trazado 127727" d="M77.86,375.36a21.64,21.64,0,0,0,4,8.32c3.17,4,11.45,11.12,11.64,13.34s.71,4.3-1.32,6.76-6.44,5.58-13.67,2.89-10.88-5.2-14.38-10.5-10.46-19.06-10.46-19.06,10.88-5.54,13.11-5.49S77.3,372.19,77.86,375.36Z"/>
              <path id="Trazado_127728" data-name="Trazado 127728" d="M55.38,376.27c1.73,3.39,7,13.56,9.88,17.94,3.5,5.3,7.14,7.8,14.38,10.5s11.63-.43,13.67-2.89a.44.44,0,0,0,.08-.11,6.53,6.53,0,0,1-1.19,2.07c-2,2.46-6.44,5.58-13.67,2.89s-10.88-5.2-14.38-10.5-10.46-19.06-10.46-19.06S54.35,376.77,55.38,376.27Z" fill="#363636"/>
              <g id="Grupo_61243" data-name="Grupo 61243" clip-path="url(#clip-path)">
                <path id="Trazado_127729" data-name="Trazado 127729" d="M121.1,216.11s0,5.25-5.25,9.72-6,7.1-8.85,17.5-5.54,5.93-8.36,21.29-2.23,30.43-5.73,41.51S82.7,321.69,82.7,321.69L72.88,294.6l9.72-56.13L102,207Z" fill="#201e21"/>
              </g>
              <path id="Trazado_127731" data-name="Trazado 127731" d="M56.07,216.24s-1.85.93-3.08,19.49,1.07,37.81,1.46,46.89,1.08,21.8-.69,29-3.62,21.94-3.93,30.41-.92,30.58-.92,30.58,1.92,8.93,13.63,9.31,17-6.23,17-6.23a134.821,134.821,0,0,1,.24-34.89c2.62-19.59,10.4-35.61,11.22-44.08s2-31.58,3.85-37.58,10.47-17.25,10.78-29.88S60.3,212.93,56.07,216.24Z" fill="#423e45"/>
              <path id="Trazado_127732" data-name="Trazado 127732" d="M71.24,121.81l-2.16.1S53,129.82,47.83,138.24s.1,19.5,3,22.79,2.93,13.29,4,18.43,2.16,16.73.82,23.41a66.24,66.24,0,0,0-.87,14.43s2,16.95,28.18,15.92,33.06-8.75,35.88-12.54c2.39-3.22,2.85-8.14,2.85-8.14s.47-25.95,2.22-34.06a210.047,210.047,0,0,0,3.77-31.11c.77-12.84.82-31.93-2.57-36.75s-13.45-5.75-17.46-5.86S71.24,121.81,71.24,121.81Z" fill="#73a6fa"/>
              <path id="Trazado_127733" data-name="Trazado 127733" d="M80.76,97.92s4.45,9.34-4.13,18.72c-2.94,3.21-6.18,5.43-7.55,5.27,0,0,7.8,13.55,19.92,16.53s20.84-6.06,19.92-13.14-14.27-16.43-14.58-16.74S80.76,97.92,80.76,97.92Z" fill="#ed9a89"/>
              <path id="Trazado_127734" data-name="Trazado 127734" d="M75.69,117.49l25.39,18L103,114l13.67,9.65s-.68,16.67-2,17.69S102,148,101.76,148s-10.94-1.2-13.93-1.2-16.67-2-16.67-2l-2.22-6.58-3.76-7.95,3.9-8.4Z" fill="#73a6fa"/>
              <path id="Trazado_127735" data-name="Trazado 127735" d="M103.71,133.23l2.07,2.71a1.62,1.62,0,0,1,.19,1.71L104.25,141a1.42,1.42,0,0,1-1,.75l-2,.37a1.63,1.63,0,0,1-1.4-.43l-2.63-2.44a1.68,1.68,0,0,1-.5-1.63l1-3.77A1.42,1.42,0,0,1,99,132.83l3.27-.28a1.67,1.67,0,0,1,1.44.68Z" fill="#504c54"/>
              <path id="Trazado_127736" data-name="Trazado 127736" d="M102.44,120.57l-1.36,14.95-13.51-9.57Z" fill="#ed9a89"/>
              <path id="Trazado_127737" data-name="Trazado 127737" d="M101.08,135.52l1.45-17.55,5.7-1.7,2.28,15.26-2.4-1.36Z" fill="#accbfd"/>
              <path id="Trazado_127738" data-name="Trazado 127738" d="M91.76,112.87s7.35,6,13.46,7.49,9.76-.46,10.68-3.54-.26-5.14.51-10.27,1.34-8.16,1.34-10.42a12.26,12.26,0,0,1,.62-4.67c.51-1.59-.62-9.81-2.62-14.94s-7.34-12.63-16.07-15.09S81.56,64.09,77.76,71.49s-1.13,21.82,1.08,25.62,5.75,9.24,7,10.52S91.76,112.87,91.76,112.87Z" fill="#fdaf97"/>
              <path id="Trazado_127739" data-name="Trazado 127739" d="M101.08,135.52l-9.26-.11-1.94,3.87-18.2-21.11,2.13-5.72,4.79,2.3Z" fill="#accbfd"/>
              <g id="Grupo_61244" data-name="Grupo 61244" clip-path="url(#clip-path-2)">
                <path id="Trazado_127740" data-name="Trazado 127740" d="M110.9,68.52a4.36,4.36,0,0,0-2.05,2.56c-.6,1.88-6.32,3.68-9.4,3.76s-4.53-2.39-6.92-2.22-5.3,2.65-5.38,5,1.62,3.76,1.62,5.3-.09,5.22-.68,6.07a4.58,4.58,0,0,0-1.29,2.82c0,1.28.26,3.33.26,3.33l-2.91-1.11s-2.13-2.9-3.93-1.54-1.71,6.16-1.71,6.16S67.83,87.49,67.75,87.15s2-16.32,2-17.61,4.79-8.88,5.21-9.48S90.65,54,92.44,54.59s10.35,2,10.35,2l4.27,3.17Z" fill="#e39d87"/>
              </g>
              <path id="Trazado_127742" data-name="Trazado 127742" d="M86.09,97.47s-4.34-7.1-6.68-4.22.8,9.92,2.44,11.89a3.1,3.1,0,0,0,4.77.23c.61-1-.52-2.38-.81-3.41S86.3,98.13,86.09,97.47Z" fill="#ffbfab"/>
            </g>
            <path id="Trazado_127743" data-name="Trazado 127743" d="M104.01,139.06l8.77,45.6-5.69,21.63-6.95-18.81-.12-47.85Z" fill="#504c54"/>
            <g id="Grupo_61247" data-name="Grupo 61247">
              <path id="Trazado_127744" data-name="Trazado 127744" d="M111.44,172.06l6.98.68,6.66-8.56V147.64l-13.64,7.88Z" fill="#accbfd"/>
              <path id="Trazado_127745" data-name="Trazado 127745" d="M110.95,157.39l7.6-2.89,7.23-5.68v-2.93l-14.83,8.57Z" fill="#504c54"/>
              <g id="Grupo_61246" data-name="Grupo 61246">
                <path id="Trazado_127746" data-name="Trazado 127746" d="M110.09,154.37l16.45-9.5V140.9l-16.45,9.5Z" fill="#504c54"/>
                <path id="Trazado_127747" data-name="Trazado 127747" d="M110.56,150.74l15.5-9v2.75l-15.5,9Zm15.19-8.4-14.87,8.58v2l14.87-8.58Z" fill="#ffbe69"/>
                <path id="Trazado_127748" data-name="Trazado 127748" d="M111.65,151.67l6.66-3.85v-.36l-6.66,3.84Z" fill="#ffbe69"/>
                <path id="Trazado_127749" data-name="Trazado 127749" d="M119.24,147.26l4.84-2.8v-.36l-4.84,2.79Z" fill="#ffbe69"/>
              </g>
            </g>
            <g id="Grupo_61248" data-name="Grupo 61248">
              <path id="Trazado_127750" data-name="Trazado 127750" d="M82.55,188.81l6.98.68,6.67-8.56V164.39l-13.65,7.88Z" fill="#accbfd"/>
              <path id="Trazado_127751" data-name="Trazado 127751" d="M82.06,174.14l7.61-2.89,7.23-5.68v-2.93l-14.84,8.57Z" fill="#504c54"/>
            </g>
            <path id="Trazado_127752" data-name="Trazado 127752" d="M100.07,226.18c21.18-3.53,21.42-14.59,21.42-14.59l-.07,6s-.24,11.06-21.42,14.6-31.65,3.58-45.24-9.8l.07-6C68.42,229.77,78.9,229.72,100.07,226.18Z"/>
            <g id="Grupo_61249" data-name="Grupo 61249">
              <path id="Trazado_127753" data-name="Trazado 127753" d="M102.35,231.41l.21-3.45a3.79,3.79,0,0,1,1.89-2.87l5.71-2.86c1-.49,1.73,0,1.66,1.1l-.2,3.44a3.84,3.84,0,0,1-1.9,2.88L104,232.5C103,233,102.28,232.5,102.35,231.41ZM104.4,226a2.05,2.05,0,0,0-1,1.53l-.2,3.44c0,.58.36.84.88.58l5.7-2.86a2,2,0,0,0,1-1.52l.21-3.44c0-.58-.36-.85-.88-.59Z" fill="#ed984e"/>
              <path id="Trazado_127754" data-name="Trazado 127754" d="M102.87,230.06l3.22-1.61.05-.93-3.22,1.61Z" fill="#ed984e"/>
            </g>
            <path id="Trazado_127755" data-name="Trazado 127755" d="M72.33,238s-5.13,12.5-15.5,16.6L58,257.68s11.74-3.08,16.75-17.55C74.72,240.47,72.33,238,72.33,238Z" fill="#5d5761"/>
            <path id="Trazado_127756" data-name="Trazado 127756" d="M64.4,214.7a6.8,6.8,0,0,0,2,2.85c1.51,1.28,4.81.86,6.21,1.59s7.06,7.92,7.06,7.92-1.38,1.52-2.89.6-2.08-2.08-3.49-3-2.2-1-2.44-.75,1.08,2,1.94,3.09,3.53,4.84,4.64,5.69,7.26,4.83,7.26,4.83-1.32,1.79-2.26,1.77-2.88,1.05-3.73,1.19a15.885,15.885,0,0,1-5.82.5,10.3,10.3,0,0,1-6.68-3.73c-2-2.49-5.25-6-5.54-6.71s-1-4.24-1.62-5.28-3.37-4.67-3.37-4.67Z" fill="#fdaf97"/>
            <path id="Trazado_127757" data-name="Trazado 127757" d="M48.86,136.21s-15,31.64-18.63,40.68c-4.67,11.62-.06,14.92,2.9,20.17s25.81,30.08,25.81,30.08l11.45-11.28L50.57,185.09s11.16-20.28,13.67-29.63S57.25,133.13,48.86,136.21Z" fill="#8cb8ff"/>
            <g id="Grupo_61250" data-name="Grupo 61250">
              <path id="Trazado_127758" data-name="Trazado 127758" d="M117.69,79.55l16.36,9.3s-17.16-5-25.34,12.94L85.61,89.5S108.39,78.91,117.69,79.55Z" fill="#67616b"/>
              <path id="Trazado_127759" data-name="Trazado 127759" d="M117.69,79.55s-3-8.88-9.52-15S88.82,59.13,83.9,63.4s-7.38,7.27-8.13,14.12a54.55,54.55,0,0,0,0,12.3s5.37,4,15.8,2.72C99.51,90.94,103.25,80.19,117.69,79.55Z" fill="#504c54"/>
            </g>
          </g>
        </g>
        <g id="Grupo_61256" data-name="Grupo 61256">
          <path id="Trazado_127760" data-name="Trazado 127760" d="M406.42,252.65s-1.27,3.14-2,4.55-3.18,2.24-4,4.12-1,6-1,6,.81.63,2.13-.51,1.85-3.57,2.21-4,.75.49.57,2.12-.84,6.26-.79,8.33,1.94,6.79,2,7.05,1.94.58,2.95-.26,5.29-2.69,6.13-4.67,1.55-7.1,2.12-9.66-.31-5-.8-7-1.58-5.91-1.58-5.91Z" fill="#ffc2b2"/>
          <path id="Trazado_127761" data-name="Trazado 127761" d="M410.06,144s-4.08,8.59-4.61,29.23.7,35.44-.53,44.26-2.41,35.68-2.41,35.68,6.58,3.88,12.22,3.52S428,247.8,428,247.8l13.4-17.11L425.9,178Z" fill="#f9aac2"/>
          <path id="Trazado_127762" data-name="Trazado 127762" d="M439.13,402.16a45.657,45.657,0,0,1-.14,6c-.28.8-3.22,3.74-6.16,4.62s-3.92.24-3.92.24-11.71,9.51-13.71,10.73-3.6,1.89-7.33,1.51S401.24,423,401.1,421s2.48-6.29,5.55-8.21c9.83-6.16,15.36-17.81,13.74-17.1Z" fill="#131315"/>
          <path id="Trazado_127763" data-name="Trazado 127763" d="M452.41,416.38s-5.35,6.84-7.27,9.95-5.35,7.65-6,10.2,2.06,5.17,5.48,6.1,13.44-2.74,16.92-7.15A38.681,38.681,0,0,0,467,424.59c.13-.31,1.25-.43,1.25-.43s3.29-3.74,3.67-4.92.18-5.66.18-5.66S455,413.7,452.41,416.38Z" fill="#131315"/>
          <g id="Grupo_61253" data-name="Grupo 61253">
            <path id="Trazado_127764" data-name="Trazado 127764" d="M447.87,267.79s-5.07,41.51-5.07,53.26-2.27,27.08-2.06,37.78c.17,8.66-.9,33.69-1.31,42.9a4.76,4.76,0,0,1-4.09,4.5c-4.59.66-12.21,0-17.46-9.86,0,0-.21-29.54-.84-45.69-.52-13.37-3.37-44.89-3.37-62.3s1.27-37.16,1.27-37.16Z" fill="#6c58b8"/>
            <path id="Trazado_127765" data-name="Trazado 127765" d="M434.45,257.1s3.16,26.16,4.82,34c3.89,18.24,3,27.68,5.12,41.73s2.11,20,3.79,30.51,2.93,54.12,2.93,54.12,2.73,8.18,13.22,5.45,8.39-8.81,8.39-8.81,2.86-35.6,0-58.64,4.08-45.49,5-58.7c.79-11.12-3.78-26.43-7.24-37.13S434.45,257.1,434.45,257.1Z" fill="#9182ca"/>
            <path id="Trazado_127766" data-name="Trazado 127766" d="M447.25,305.13s-5.46-5.45-7.14-9.65-9-12.37-10.48-19.09a57.764,57.764,0,0,1-1.26-12.79l22.86,8.18L450,283.52Z" fill="#9182ca"/>
            <path id="Trazado_127767" data-name="Trazado 127767" d="M449.55,153.37s13.93,10.49,20.54,17.41,4.21,9.55,4.53,14.89-2.52,28-2.68,48.93,2.68,34.61,2.68,34.61-9.76,8.18-21.55,7.55-26.75-7.08-33-15.42-6.76-14.16-6.76-14.16-2.1-43.72-3.52-62.12-2.05-39.35.31-41.08,6.54-4,15.38-2.24C429.71,142.57,444.68,149.12,449.55,153.37Z" fill="#f25585"/>
          </g>
          <path id="Trazado_127768" data-name="Trazado 127768" d="M449,131.4a121.359,121.359,0,0,0-1.89,28.16l-12.74.47-1.26-24.38S445.8,128.79,449,131.4Z" fill="#f5aea2"/>
          <g id="Grupo_61254" data-name="Grupo 61254" clip-path="url(#clip-path-3)">
            <path id="Trazado_127769" data-name="Trazado 127769" d="M426.87,166.13c5.1,4.72,13.7,3.74,19.22-2.2s5.86-14.6.76-19.33-13.7-3.74-19.21,2.2S421.78,161.4,426.87,166.13Z" fill="#f5aea2"/>
          </g>
          <path id="Trazado_127771" data-name="Trazado 127771" d="M472.61,272.53s-1.13,3.4-1.54,4.87c-.27,1-3.09,3.35-5.06,4.93a4,4,0,0,0-1.15,4.55c.09.21.18.35.27.35a32.69,32.69,0,0,0,4.63-2.94c.68-.52.8,2.15.8,5,0,1.69-1.45,4.66-2.6,6.76a2.55,2.55,0,0,0,1.13,3.57c2.12.86,5.08,1.73,6.9.86,3.07-1.47,5.06-6,6-7.59s.17-8.58,0-10.73-.2-8.93-.2-8.93Z" fill="#ffc2b2"/>
          <path id="Trazado_127772" data-name="Trazado 127772" d="M474.56,177l11.32,40.83a20.481,20.481,0,0,1,.72,6.61l-2.71,51.05-14.6-1.78.14-44.9A32.51,32.51,0,0,0,467.64,218l-12-34.63a10.25,10.25,0,0,1,6.38-13A9.73,9.73,0,0,1,474.56,177Z" fill="#f9aac2"/>
          <g id="Grupo_61255" data-name="Grupo 61255">
            <path id="Trazado_127773" data-name="Trazado 127773" d="M417,127.72l.77,5.06a84.856,84.856,0,0,1,1,8.52c-.12,1-1.39,2.2-1,3.55s1.36,2.16,1.36,2.67-.2,4.86.65,6.71,2.51,2.74,7.1,2.62,11.52-3.14,14.14-6,2.57-4.07,4.37-7.39c.94-1.73,7.41-5.51,8-7.31s4.64-7,2-18-15.23-14.41-20.68-14.51-12.56,4.42-15.13,9.88S416,121.83,417,127.72Z" fill="#ffc2b2"/>
            <path id="Trazado_127774" data-name="Trazado 127774" d="M447,136.18s-1.6.09-2-.67-.5-6.15-1.26-7.75a20,20,0,0,0-4.63-5.64c-1.52-1.09-5.47-2-9-2.52s-11.95,1.09-15.4-.68a15.17,15.17,0,0,1-5.31-4.54,41.909,41.909,0,0,0,11.45-7.75c5.14-5,11.87-6.48,20.88-4.46s11.78,3.71,13.89,5.39,3.87,9.85,3.87,14.73-7,16.84-7.91,17.85S450,139,450,138.45,448.78,135,447,136.18Z" fill="#241b15"/>
            <path id="Trazado_127775" data-name="Trazado 127775" d="M447,134.71s1.73-3.71,5.05-2.2,1.27,5.9-.38,7.91-3.94,3.74-4.75,3.86-1.66-.58-1.24-2.09,1.39-2,1.51-4S446.33,136.4,447,134.71Z" fill="#ffc2b2"/>
          </g>
        </g>
      </g>
    </g>
  </g>
</svg>
