<svg xmlns="http://www.w3.org/2000/svg" width="396" height="314.005" viewBox="0 0 396 314.005">
  <g id="Grupo_124042" data-name="Grupo 124042" transform="translate(-1018 -512)">
    <g id="Grupo_124041" data-name="Grupo 124041">
      <rect id="Rectángulo_4912" data-name="Rectángulo 4912" width="396" height="271.767" rx="21" transform="translate(1018 554.238)" fill="#fbc9d8"/>
      <g id="flecha-correcta" transform="translate(1171.19 712.883)">
        <path id="Trazado_117781" data-name="Trazado 117781" d="M80.388,107.017l-10.45-9.3a10.123,10.123,0,1,1,13.484-15.1l30.34,26.969a10.113,10.113,0,0,1,0,15.1l-30.34,26.969a10.123,10.123,0,1,1-13.484-15.1l10.45-9.3H26.113a10.113,10.113,0,0,1,0-20.227Z" transform="translate(-12.629 -76.665)" fill="#ef2a66" opacity="0.5"/>
        <path id="Trazado_117782" data-name="Trazado 117782" d="M64.051,144.944a13.484,13.484,0,0,1-8.981-23.557l3.83-3.412H13.484a13.484,13.484,0,0,1,0-26.969H58.9l-3.836-3.412A13.5,13.5,0,0,1,73.032,67.449l30.34,26.969a13.484,13.484,0,0,1,0,20.159l-30.34,26.969A13.429,13.429,0,0,1,64.051,144.944Zm-50.567-47.2a6.742,6.742,0,0,0,0,13.484H67.759A3.371,3.371,0,0,1,70,117.126l-10.444,9.3A6.742,6.742,0,0,0,59,135.942l.019.021a7.005,7.005,0,0,0,9.527.539l30.34-26.969a6.776,6.776,0,0,0,0-10.053L68.548,72.512a6.742,6.742,0,0,0-9,10.039L70,91.856a3.371,3.371,0,0,1-2.238,5.893H13.484Z" transform="translate(0 -64.025)" fill="#fff"/>
      </g>
    </g>
    <g id="CF6-39" transform="translate(1159.574 512)">
      <circle id="Elipse_4097" data-name="Elipse 4097" cx="50" cy="50" r="50" fill="#8c80b8"/>
      <path id="Trazado_125061" data-name="Trazado 125061" d="M85.18,17.2a6.21,6.21,0,0,1,5,7.29l-13,67.05a6.21,6.21,0,0,1-7.3,5L15,85.8a6.21,6.21,0,0,1-5-7.29L23,11.46a6.25,6.25,0,0,1,5.74-5,5.44,5.44,0,0,1,1.55.15Z" fill="#c9bcf7"/>
      <path id="Trazado_125062" data-name="Trazado 125062" d="M71.83,9.59A6.23,6.23,0,0,1,78,15.8V84.09a6.22,6.22,0,0,1-6.21,6.21H16a6.22,6.22,0,0,1-6.21-6.21V15.8a6.32,6.32,0,0,1,4.66-6.05h.15A4.19,4.19,0,0,1,16,9.59Z" fill="#f1eefd"/>
      <path id="Trazado_125063" data-name="Trazado 125063" d="M36.13,11.15v31a7.76,7.76,0,0,1-15.52,0V17.35a1.56,1.56,0,0,1,3.11,0V42.19a4.66,4.66,0,0,0,9.31,0v-31a4.75,4.75,0,0,0-.31-1.56,4.52,4.52,0,0,0-4.35-3.1h-6.2a4.52,4.52,0,0,0-4.35,3.1H16a4.19,4.19,0,0,0-1.4.16,7.69,7.69,0,0,1,7.61-6.36h6.2A7.8,7.8,0,0,1,36,9.59a5.51,5.51,0,0,1,.13,1.56Z" fill="#6c58b8"/>
      <g id="Grupo_60567" data-name="Grupo 60567">
        <path id="Trazado_125064" data-name="Trazado 125064" d="M67.17,51.5H48.55a1.55,1.55,0,0,1,0-3.1H67.17a1.55,1.55,0,1,1,0,3.1Z" fill="#f57fa3"/>
        <path id="Trazado_125065" data-name="Trazado 125065" d="M54.76,63.92H48.55a1.56,1.56,0,0,1,0-3.11h6.21a1.56,1.56,0,0,1,0,3.11Z" fill="#f57fa3"/>
        <path id="Trazado_125066" data-name="Trazado 125066" d="M67.17,63.92H61a1.56,1.56,0,1,1,0-3.11h6.2a1.56,1.56,0,1,1,0,3.11Z" fill="#f57fa3"/>
        <path id="Trazado_125067" data-name="Trazado 125067" d="M42.34,82.54H23.72a1.55,1.55,0,0,1,0-3.1H42.34a1.55,1.55,0,0,1,0,3.1Z" fill="#f57fa3"/>
        <path id="Trazado_125068" data-name="Trazado 125068" d="M67.17,82.54H48.55a1.55,1.55,0,1,1,0-3.1H67.17a1.55,1.55,0,0,1,0,3.1Z" fill="#f57fa3"/>
        <path id="Trazado_125069" data-name="Trazado 125069" d="M67.17,57.71H48.55a1.56,1.56,0,0,1,0-3.11H67.17a1.56,1.56,0,1,1,0,3.11Z" fill="#f57fa3"/>
        <path id="Trazado_125070" data-name="Trazado 125070" d="M54.76,76.33h-31a1.55,1.55,0,1,1,0-3.1h31a1.55,1.55,0,0,1,0,3.1Z" fill="#f57fa3"/>
        <path id="Trazado_125071" data-name="Trazado 125071" d="M67.17,76.33H61a1.55,1.55,0,1,1,0-3.1h6.2a1.55,1.55,0,0,1,0,3.1Z" fill="#f57fa3"/>
        <path id="Trazado_125072" data-name="Trazado 125072" d="M67.17,70.12H48.55a1.55,1.55,0,1,1,0-3.1H67.17a1.55,1.55,0,0,1,0,3.1Z" fill="#f57fa3"/>
        <path id="Trazado_125073" data-name="Trazado 125073" d="M65.78,30.39V26a7.92,7.92,0,1,0-15.84,0v4.42m2.86,0V26a5.07,5.07,0,1,1,10.13,0v4.42" fill="#bbabf5"/>
        <g id="Grupo_60566" data-name="Grupo 60566">
          <path id="Trazado_125074" data-name="Trazado 125074" d="M58.32,18.06h-.46A7.92,7.92,0,0,0,49.94,26v4.42h.93V26a7.92,7.92,0,0,1,7.45-7.94Z" fill="#5e567b"/>
          <path id="Trazado_125075" data-name="Trazado 125075" d="M58.79,20.9h-.47a5.08,5.08,0,0,1,4.61,5v4.42h.92V26a5.07,5.07,0,0,0-5.06-5.1Z" fill="#5e567b"/>
        </g>
        <rect id="Rectángulo_6737" data-name="Rectángulo 6737" width="21.09" height="15.1" transform="translate(47.32 30.39)" fill="#fd8f25"/>
        <rect id="Rectángulo_6738" data-name="Rectángulo 6738" width="1.85" height="15.1" transform="translate(47.32 30.39)" fill="#be6b1c"/>
        <path id="Trazado_125076" data-name="Trazado 125076" d="M60.13,36.53a2.27,2.27,0,1,0-3.34,2l-.37,2.8H59.3l-.36-2.8A2.25,2.25,0,0,0,60.13,36.53Z" fill="#12263f"/>
      </g>
    </g>
  </g>
</svg>
