<svg xmlns="http://www.w3.org/2000/svg" width="99.979" height="100.007" viewBox="0 0 99.979 100.007">
  <g id="Grupo_124110" data-name="Grupo 124110" transform="translate(-839.194 -1210.605)">
    <g id="CF6-43" transform="translate(839.173 1210.612)">
      <g id="Grupo_61823" data-name="Grupo 61823">
        <path id="Trazado_130241" data-name="Trazado 130241" d="M100,50A49.84,49.84,0,0,1,85.42,85.29l-9,3.13a80.52,80.52,0,0,1-52.76,0l-9-3.12A50,50,0,0,1,6.55,25.25V25.2a50,50,0,0,1,86.84,0v.05A49.74,49.74,0,0,1,100,50Z" fill="#f57fa3"/>
        <path id="Trazado_130242" data-name="Trazado 130242" d="M100,50A49.84,49.84,0,0,1,85.42,85.29l-9,3.13a80.52,80.52,0,0,1-52.76,0l-9-3.12A50,50,0,0,1,6.55,25.25V25.2A50.15,50.15,0,0,0,28,45.32a33.869,33.869,0,0,0,3.13,1.4c.87.35,1.74.68,2.63,1h0A49.52,49.52,0,0,0,49.5,50.39h1a49.72,49.72,0,0,0,12.4-1.68,49.28,49.28,0,0,0,5.94-2c1.06-.43,2.11-.9,3.13-1.4a49.79,49.79,0,0,0,9.57-6.13,50.1,50.1,0,0,0,11.88-14v.05A49.74,49.74,0,0,1,100,50Z" fill="#f25585"/>
      </g>
      <g id="Grupo_61825" data-name="Grupo 61825">
        <path id="Trazado_130243" data-name="Trazado 130243" d="M61.8,83.79a62.651,62.651,0,0,1-3.19,8,20.861,20.861,0,0,0-3.72,1.47L42.75,99.48h0a49.7,49.7,0,0,1-18.08-6.36c-.87-.52-1.73-1.06-2.56-1.62a15.17,15.17,0,0,0-5.56-11.4l-6.32-5.17h0a41.51,41.51,0,0,1,.59-23.25l23-4L61.17,43c.67,1.89,1.25,3.81,1.73,5.74.19.72.35,1.45.51,2.18a64.16,64.16,0,0,1-1.61,32.9Z" fill="#9182ca"/>
        <path id="Trazado_130244" data-name="Trazado 130244" d="M58.61,91.84a20.86,20.86,0,0,0-3.72,1.47L42.75,99.48A49.752,49.752,0,0,1,37,98.28c-6.06-7.41-10-19.86-10-34a69.6,69.6,0,0,1,1.75-15.73l5.11-.89L61.17,43c.67,1.89,1.25,3.81,1.73,5.74a64,64,0,0,1-4.29,43.13Z" fill="#6c58b8"/>
        <path id="Trazado_130245" data-name="Trazado 130245" d="M91.15,64.31a40.89,40.89,0,0,1-2.87,15.13,35.906,35.906,0,0,1-1.61,3.58c-.39.77-.81,1.53-1.25,2.27A50.779,50.779,0,0,1,78.62,91H64.53a21.263,21.263,0,0,0-9.642,2.311L50,95.8V44.9L61.41,40a20,20,0,0,1,9.09-1.55l11,.7,1.1.07h0a41,41,0,0,1,8.51,25.06Z" fill="#472ea6"/>
        <path id="Trazado_130246" data-name="Trazado 130246" d="M50,23.16l-2.54,8.41a65.18,65.18,0,0,1-16.2,27.12L26.94,63h0a4.78,4.78,0,0,1-1.05-.84c-2-2-2.35-5.31-4.87-7.12-2.15-1.57-6.74-2.7-9.43-3.25a7.208,7.208,0,0,1-.77-.12A41.18,41.18,0,0,1,50,23.16Z" fill="#ffe9d3"/>
        <path id="Trazado_130247" data-name="Trazado 130247" d="M51.77,52.29,50,71.14l-.22-.35c-1.32-2.2-1-4.74-2.47-6.73A10,10,0,0,0,40,60.53c-2.12,0-4.06,1.09-6,1.95-2.24,1-4.92,1.78-7,.55.38-22.11,10.54-39.83,23-39.87h0l1.8,20a50.51,50.51,0,0,1,0,9.12Z" fill="#fed2a8"/>
        <path id="Trazado_130248" data-name="Trazado 130248" d="M51.74,95.47a1.62,1.62,0,0,1,.11,2.1L50,100h0a50.75,50.75,0,0,1-7.232-.519,11.18,11.18,0,0,1,4.322-4A29.2,29.2,0,0,0,50,93.72l1.74,1.77Z" fill="#9182ca"/>
        <path id="Trazado_130249" data-name="Trazado 130249" d="M81.56,66.34l3.77,6c.77,1.24,1.58,2.64,1.28,4.06a3.91,3.91,0,0,1-3.13,2.75A11.58,11.58,0,0,1,79.1,79c-2.59-.5-18.1-5.28-10.89-8.74,2.6-1.25,5.58,1.07,8.12-.36,2.06-1.16,2.51-7.91,5.23-3.56Z" fill="#febc7c"/>
        <path id="Trazado_130250" data-name="Trazado 130250" d="M30.69,86.63v.13c-.23.25-.48.48-.73.71-1.86,1.73-3.14,4-5.15,5.57l-.11.08a50.24,50.24,0,0,1-10.06-7.81,41.14,41.14,0,0,1-4.38-10.38,9.61,9.61,0,0,1,2.6-1.69c2-.81,4.53-.57,5.79,1.13,1.14,1.54.93,3.75,2,5.33s3,2,4.77,2.29a31.729,31.729,0,0,1,3.9.5,4.32,4.32,0,0,1,1.39,4.14Z" fill="#ffe9d3"/>
        <g id="Grupo_61824" data-name="Grupo 61824">
          <path id="Trazado_130251" data-name="Trazado 130251" d="M78.62,91a49.81,49.81,0,0,1-24.55,8.84c-1.34.11-2.7.16-4.07.16h0V93.69a8.38,8.38,0,0,0,2.74-2.88,14.48,14.48,0,0,0,1.15-5A8.24,8.24,0,0,1,55.66,81c1.19-1.26,3.42-1.66,4.61-.4,1,1,.94,2.85,2,3.78s3,.46,4.57.27a8.94,8.94,0,0,1,7.41,2.77c.8.85,1.23,1.9,2.19,2.54a12.7,12.7,0,0,0,2.13,1Z" fill="#febc7c"/>
          <path id="Trazado_130252" data-name="Trazado 130252" d="M82.27,38.77A41.1,41.1,0,0,0,50,23.16v48a4.79,4.79,0,0,0,4.58,2.23c3-.56,4-4.57,2.93-7.42S54.23,60.86,53,58.11s-1.13-6.69,1.58-8c3.23-1.6,7.17,1.73,10.59.57,3.75-1.28,4.1-6.77,7.37-9,2.82-1.94,6.83-.78,9.92-2.27l.23-.11c-.13-.16-.25-.32-.37-.49Z" fill="#febc7c"/>
        </g>
      </g>
      <path id="Trazado_130253" data-name="Trazado 130253" d="M31.29,85.94a5.349,5.349,0,0,1-.44.62l-.19.2a40.165,40.165,0,0,1-1.36-4.27A3,3,0,0,1,31.56,84a2.37,2.37,0,0,1-.27,2Z" fill="#9182ca"/>
      <g id="Grupo_61826" data-name="Grupo 61826">
        <path id="Trazado_130254" data-name="Trazado 130254" d="M28,55.9l-.1.2-5.24-5.24A7.42,7.42,0,0,1,27.92,38.2,19.89,19.89,0,0,1,28,55.9Z" fill="#ff3ea8"/>
        <path id="Trazado_130255" data-name="Trazado 130255" d="M33.16,50.86,27.92,56.1V38.2a7.42,7.42,0,0,1,5.24,12.66Z" fill="#ff0074"/>
        <path id="Trazado_130256" data-name="Trazado 130256" d="M27.92,49.75a4.135,4.135,0,0,1,0-8.27l.18.29a7.23,7.23,0,0,1-.18,7.98Z" fill="#fff"/>
        <path id="Trazado_130257" data-name="Trazado 130257" d="M30.84,48.54a4.13,4.13,0,0,1-2.92,1.21V41.48a4.134,4.134,0,0,1,2.92,7.06Z" fill="#d1f6ff"/>
      </g>
      <g id="Grupo_61827" data-name="Grupo 61827">
        <path id="Trazado_130258" data-name="Trazado 130258" d="M82.64,74.72l-.1.2L77.3,69.67A7.41,7.41,0,0,1,82.54,57a19.89,19.89,0,0,1,.1,17.72Z" fill="#ff3ea8"/>
        <path id="Trazado_130259" data-name="Trazado 130259" d="M87.78,69.67l-5.24,5.25V57a7.41,7.41,0,0,1,5.24,12.65Z" fill="#ff0074"/>
        <path id="Trazado_130260" data-name="Trazado 130260" d="M82.54,68.57a4.14,4.14,0,0,1-2.92-7.06,4.09,4.09,0,0,1,2.92-1.21l.18.29a7.24,7.24,0,0,1-.18,7.98Z" fill="#fff"/>
        <path id="Trazado_130261" data-name="Trazado 130261" d="M85.46,67.35a4.1,4.1,0,0,1-2.92,1.22V60.3a4.13,4.13,0,0,1,2.92,7Z" fill="#d1f6ff"/>
      </g>
      <path id="Trazado_130262" data-name="Trazado 130262" d="M77.74,74.31l-1.33-.5L77,72.35l1.33.5Zm-3-1.11-4-1.51.55-1.47,4,1.51ZM69.1,71.07l-4-1.51.54-1.46,4,1.51Zm-5.67-2.13-4-1.51L60,66l4,1.51Zm-5.67-2.13-4-1.51.55-1.46,4,1.51Zm-5.67-2.12-4-1.51.55-1.47,4,1.51Zm-5.67-2.13-4-1.51L43,59.58l4,1.51Zm-5.66-2.13-4-1.51.55-1.46,4,1.51ZM35.09,58.3l-4-1.51.55-1.46,4,1.51Z" fill="#12263f"/>
      <g id="Grupo_61828" data-name="Grupo 61828">
        <circle id="Elipse_4285" data-name="Elipse 4285" cx="3.17" cy="3.17" r="3.17" transform="translate(50.13 31.33)" fill="#12263f"/>
        <path id="Trazado_130263" data-name="Trazado 130263" d="M46.78,50.16l-.05,5.5L49,62.46l3.14-1.23-1.61-5.48.52-7Z" fill="#0e1d2f"/>
        <path id="Trazado_130264" data-name="Trazado 130264" d="M51.65,43.38,53.77,49l2.64-1.39L54.29,42Z" fill="#0e1d2f"/>
        <path id="Trazado_130265" data-name="Trazado 130265" d="M42,51.42l-2.51,8.06,3,.94,2.19-7.05,5.6-2.95a6.32,6.32,0,0,0,3.1-3.72l1.88-6.06A2.1,2.1,0,0,0,53.87,38l-3-.94a2.1,2.1,0,0,0-2.64,1.39L45.55,47Z" fill="#12263f"/>
        <path id="Trazado_130266" data-name="Trazado 130266" d="M45.22,47.42l5.18-.85,3.68-4.2L52.49,41l-3.18,3.63-3.18.52L45.55,47Z" fill="#0e1d2f"/>
        <path id="Trazado_130267" data-name="Trazado 130267" d="M58.75,55.24l-4-7.59.93-.49,4,7.59Z" fill="#3a4249"/>
        <path id="Trazado_130268" data-name="Trazado 130268" d="M58.16,55.26a1.06,1.06,0,0,1,.45-1.43l4.67-2.45a1,1,0,0,1,1.42.44l5.4,10.27-6.53,3.44Z" fill="#ef941d"/>
        <path id="Trazado_130269" data-name="Trazado 130269" d="M68.7,62.83,69.32,64a.79.79,0,0,0,1.07.33.8.8,0,0,0,.33-1.07l-.62-1.17Z" fill="#e0c494"/>
        <path id="Trazado_130270" data-name="Trazado 130270" d="M63.57,65.53l.61,1.17a.792.792,0,1,0,1.4-.74L65,64.8Z" fill="#e0c494"/>
        <path id="Trazado_130271" data-name="Trazado 130271" d="M64.21,60.38l-1.73-3.3.93-.49,1.74,3.3Z" fill="#3a4249"/>
        <path id="Trazado_130272" data-name="Trazado 130272" d="M61.78,55.76l-.69-1.32L62,54l.69,1.32Z" fill="#3a4249"/>
        <path id="Trazado_130273" data-name="Trazado 130273" d="M52.74,39.85l-2.17-.12-1.94,2.71-4.16.92.73,3,4.66-.76,3.42-3.91Z" fill="#12263f"/>
      </g>
    </g>
  </g>
</svg>
