<svg xmlns="http://www.w3.org/2000/svg" width="100" height="108.87" viewBox="0 0 100 108.87">
  <g id="Grupo_124092" data-name="Grupo 124092" transform="translate(-750 -912.403)">
    <g id="CF6_mod_copia_11" data-name="CF6_mod copia 11" transform="translate(750 921.273)">
      <circle id="Elipse_4191" data-name="Elipse 4191" cx="50" cy="50" r="50" fill="#b5abdb"/>
      <g id="Grupo_61429" data-name="Grupo 61429">
        <rect id="Rectángulo_7032" data-name="Rectángulo 7032" width="77.34" height="80.7" transform="translate(7.68 10.39)" fill="#a5896b"/>
        <path id="Trazado_128532" data-name="Trazado 128532" d="M89.1,7.66H10.3l-.06,80.47,78.86.42Z" fill="#d8b05c" fill-rule="evenodd"/>
        <path id="Trazado_128533" data-name="Trazado 128533" d="M18.71,25.45l18.32-6.07,7.39-7.76,10.06-2.4L78.49,7.66H89.1V56.95l-.13,1.57-4.95,5.82L77.68,60.3,59.07,68.92,56.8,74.05l-2.04,9.32L36.9,85.54,22.09,87l-2.53-4.38-4.38-5.69-1.1-19.58,1.93-6.68-5.72-6.81,5.59-6.99Z" fill="#edcc88" fill-rule="evenodd"/>
        <path id="Trazado_128534" data-name="Trazado 128534" d="M78.09,29.27,82.26,35l-3.9,2.76-3.93,3.86-4.57,7.09L63,44.9l-4.35,8.57-7.62-3.38.01-4.66-3.37-1.21L43,37.2l.16-4.1-3.56-.9-3.31-2.49,6.75-3.92,5.85,1.28,1.88,3.72,6.63.46,12.7-.83Z" fill="#dc662b" fill-rule="evenodd"/>
        <path id="Trazado_128535" data-name="Trazado 128535" d="M34.54,81.28l2.13,2.94-2,1.41-2.01,1.98-.41.64-13.82-.08-1.89-2.83.09-2.1-1.83-.46L13.11,81.5l3.46-2.01,3,.67.96,1.9,3.4.23,6.51-.42Z" fill="#dc662b" fill-rule="evenodd"/>
        <path id="Trazado_128536" data-name="Trazado 128536" d="M10.26,62.23a27.579,27.579,0,0,1,6-1.3,12.7,12.7,0,0,0,6.83-3.19,49.25,49.25,0,0,0,5.79-6A29.93,29.93,0,0,1,35.93,46c2.29-1.48,4.43-2.86,5.68-4.67h0a19.43,19.43,0,0,1,2.7-3.09,23.36,23.36,0,0,1,3.29-2.53c6-3.85,13.86-5.55,20.19-6h0c.72-.07,1.9-1.25,3-2.4,1.5-1.51,3-3,4.37-2.7a28.38,28.38,0,0,0,9.57.59,22.37,22.37,0,0,0,4.32-1.08v2A23,23,0,0,1,85,27a30.26,30.26,0,0,1-10.17-.6c-.45-.1-1.56,1-2.7,2.17C70.78,30,69.37,31.39,68,31.52h0c-6.08.49-13.66,2.1-19.33,5.75a21.83,21.83,0,0,0-3,2.33,17.44,17.44,0,0,0-2.44,2.8h0c-1.46,2.11-3.75,3.59-6.2,5.17a29.54,29.54,0,0,0-6.66,5.29,50,50,0,0,1-6,6.28,14.54,14.54,0,0,1-7.84,3.61,26.66,26.66,0,0,0-6.17,1.4Z" fill="#678498" fill-rule="evenodd"/>
        <path id="Trazado_128537" data-name="Trazado 128537" d="M32.38,23.87l1.92,7.7,10.19,12,.34.4.1.52,1.4,7.59,4,3.53.44.38.16.55L52.48,62l6.82,1.46a14.58,14.58,0,0,1,2.17-1.07c1.4-.6,2.78-1.19,3.17-2.37a14.11,14.11,0,0,0,.51-6,32.71,32.71,0,0,0-1.37-6.16c-.52-1.71-2-3.07-3.41-4.4-.4-.37-.79-.74-1.18-1.13h0c-.88-.87-1.73-1.76-2.58-2.66l-.1-.09-.13-.06v-.05c-2.8-2.93-5.62-5.85-9-7.9a11.84,11.84,0,0,0-4.93-1.23c-2.15-.22-4.29-.45-6-1.79a18.86,18.86,0,0,1-4.09-4.72ZM89.1,77l-3.43-.1h-.4l-.35-.15L68.61,69.53l-11-2.36c-1.32,1.73-2.5,3.62-3.67,5.5-2.42,3.92-4.85,7.81-8.62,10.42-2.66,1.84-5.91,2-9.18,2.1-2.65.1-5.31.2-7.55,1.26-1.17.55-2.32,1.14-3.45,1.76H22.45c1.82-1,3.67-2,5.58-2.94,2.47-1.17,5.27-1.28,8.06-1.39,3.08-.12,6.13-.24,8.48-1.86,3.54-2.45,5.89-6.23,8.25-10,1.08-1.73,2.16-3.47,3.36-5.1L50.5,65.7l-1.16-.25L49,64.26,47.26,58.2,43.2,54.61l-.51-.45-.13-.67-1.43-7.74L31,33.77l-.29-.35L30.57,33,26.42,16.32h0l-2.2-8.66h4.09l2,7.68h0l1,4,.26.45c1.63,2.9,3.27,5.79,5.78,7.76,1.41,1.1,3.36,1.31,5.32,1.52a13,13,0,0,1,5.48,1.4,47.259,47.259,0,0,1,9.2,8,51.25,51.25,0,0,0,11.9,3.72,44.41,44.41,0,0,0,12.13.44A21.76,21.76,0,0,0,89.1,40v1.49A21.81,21.81,0,0,1,81.45,44,45.83,45.83,0,0,1,69,43.53a50.61,50.61,0,0,1-9.38-2.63l.54.54h0c.36.36.76.73,1.16,1.1,1.55,1.45,3.14,2.93,3.77,5a34.83,34.83,0,0,1,1.41,6.41,15.29,15.29,0,0,1-.56,6.53c-.59,1.74-2.23,2.45-3.91,3.17l-.65.28,8.3,1.78h.21l.18.07L86.22,72.9l2.88.1Z" fill="#fdf9d7" fill-rule="evenodd"/>
        <path id="Trazado_128538" data-name="Trazado 128538" d="M61.76,63.74l-.82.37L69.59,66h.17l.16.07,16.15,7.11h.05l2.92.08h0v-.53l-2.86-.08-16.11-7.1L70,65.5h-.2l-7.94-1.7ZM32.82,24.54c-.31-.45-.6-.92-.89-1.39L34,31.63v.06h0l10.19,12,.29.35.08.45,1.41,7.59v.09l.07.06,4,3.52.38.34.14.48,1.56,5.46.05.15h.16L59,63.69a5.779,5.779,0,0,1,.64-.4l-7-1.49-1.52-5.31L51,55.94v-.07h-.06l-.44-.39L46.57,52l-1.38-7.5-.1-.52v-.13l-.34-.39-10.15-12-1.72-6.9ZM28.58,7.66H28v.06h0l2,7.66h0l.77,3.07.74,1.3.23.42-1.22-4.88v-.05ZM56,67.1l-5.56-1.19-1.17-.25h-.16V65.5l-.33-1.14-1.72-6-4-3.53-.51-.45-.07-.06v-.1l-.12-.67-1.42-7.66L30.78,33.94l-.3-.35v-.05h0L30.32,33l-4.1-16.4h0l-.06-.25L24,7.72h0V7.66h.55L26.61,16h0l.07.24L30.83,32.9l.1.4.26.3,10.15,12v.12l1.43,7.74.11.58.44.39L47.43,58h.06v.07l1.74,6.06.29,1,1,.22,5.79,1.24ZM89.09,77.25l-3.43-.1h-.45L84.82,77,68.53,69.79,57.42,67.4l.36-.46,10.89,2.33h0L85,76.47l.3.14h.35l3.42.1v.53Z" fill="#a5896b" fill-rule="evenodd"/>
        <path id="Trazado_128539" data-name="Trazado 128539" d="M63.15,17.45c1.79.38,3.23,1.65,3.23,2.83s-1.44,1.85-3.23,1.48-3.23-1.64-3.23-2.83S61.37,17.08,63.15,17.45Z" fill="#808184" fill-rule="evenodd"/>
        <path id="Trazado_128540" data-name="Trazado 128540" d="M67.81-.58,71.15.73,63.8,19.57c-.73,1.2-4.15.64-3.34-1.3Z" fill="#d1d3d2" fill-rule="evenodd"/>
        <path id="Trazado_128541" data-name="Trazado 128541" d="M69.64.14h0l1.51.59L63.8,19.57a1.94,1.94,0,0,1-1.94.59Z" fill="#a7a9ac" fill-rule="evenodd"/>
        <path id="Trazado_128542" data-name="Trazado 128542" d="M70.19,5.92a7.4,7.4,0,0,0,7.39-7.39,7.41,7.41,0,0,0-7.39-7.4,7.42,7.42,0,0,0-7.4,7.4A7.41,7.41,0,0,0,70.19,5.92Z" fill="#cd7031" fill-rule="evenodd"/>
        <path id="Trazado_128543" data-name="Trazado 128543" d="M70.19-8.87A7.38,7.38,0,0,1,75.08-7a9.42,9.42,0,0,1,.3,2.33,9.14,9.14,0,0,1-9.13,9.14h-.49a7.37,7.37,0,0,1-3-5.91A7.4,7.4,0,0,1,64.927-6.7,7.4,7.4,0,0,1,70.19-8.87Z" fill="#ef492f" fill-rule="evenodd"/>
      </g>
    </g>
  </g>
</svg>
