<svg xmlns="http://www.w3.org/2000/svg" xmlns:xlink="http://www.w3.org/1999/xlink" width="104.229" height="104.229" viewBox="0 0 104.229 104.229">
  <defs>
    <radialGradient id="radial-gradient" cx="0.5" cy="0.5" r="0.5" gradientTransform="matrix(0.926, 0.377, -0.377, 0.926, 0.226, -0.152)" gradientUnits="objectBoundingBox">
      <stop offset="0.804" stop-color="#b2b2b1"/>
      <stop offset="0.9" stop-color="#fff"/>
    </radialGradient>
    <linearGradient id="linear-gradient" x1="0.923" y1="0.896" x2="0.054" y2="0.083" gradientUnits="objectBoundingBox">
      <stop offset="0" stop-color="#472ea6"/>
      <stop offset="1" stop-color="#bb43b0"/>
    </linearGradient>
  </defs>
  <g id="Grupo_124068" data-name="Grupo 124068" transform="translate(-243.287 -1751)">
    <g id="Grupo_124067" data-name="Grupo 124067">
      <g id="Grupo_124025" data-name="Grupo 124025" transform="translate(243.287 1751)">
        <circle id="Elipse_4292" data-name="Elipse 4292" cx="39.981" cy="39.981" r="39.981" transform="translate(0 30.182) rotate(-22.176)" fill="url(#radial-gradient)"/>
        <circle id="Elipse_4293" data-name="Elipse 4293" cx="34.105" cy="34.105" r="34.105" transform="matrix(0.926, -0.378, 0.378, 0.926, 7.643, 33.442)" fill="#fff"/>
        <circle id="Elipse_4294" data-name="Elipse 4294" cx="29.665" cy="29.665" r="29.665" transform="translate(22.449 22.449)" fill="url(#linear-gradient)"/>
      </g>
    </g>
    <path id="Trazado_227877" data-name="Trazado 227877" d="M15.688,15.37a4.924,4.924,0,0,1-.769,2.739,5.6,5.6,0,0,1-2.117,1.9,6.164,6.164,0,0,1,2.417,2.043,5.273,5.273,0,0,1,.894,3.069,5.582,5.582,0,0,1-1.97,4.512,8.182,8.182,0,0,1-5.427,1.655A8.331,8.331,0,0,1,3.237,29.63a5.542,5.542,0,0,1-2.007-4.5,5.339,5.339,0,0,1,.879-3.032,5.977,5.977,0,0,1,2.49-2.08,5.633,5.633,0,0,1-2.139-1.9,4.889,4.889,0,0,1-.776-2.739,5.473,5.473,0,0,1,1.89-4.395,7.6,7.6,0,0,1,5.1-1.611A7.643,7.643,0,0,1,13.8,10.976,5.473,5.473,0,0,1,15.688,15.37Zm-4.526,9.36a2.816,2.816,0,0,0-.681-2.029,2.372,2.372,0,0,0-1.794-.71,2.4,2.4,0,0,0-1.8.71A2.8,2.8,0,0,0,6.2,24.73a2.821,2.821,0,0,0,.7,2.014,2.388,2.388,0,0,0,1.824.74,2.3,2.3,0,0,0,1.772-.732A2.872,2.872,0,0,0,11.162,24.73ZM8.672,13.173a1.824,1.824,0,0,0-1.516.652,2.829,2.829,0,0,0-.52,1.809,3,3,0,0,0,.527,1.846,1.819,1.819,0,0,0,1.553.7,1.745,1.745,0,0,0,1.516-.7,3.093,3.093,0,0,0,.505-1.846,2.835,2.835,0,0,0-.52-1.8A1.849,1.849,0,0,0,8.672,13.173Z" transform="translate(287 1782.102)" fill="#fff"/>
  </g>
</svg>
