<svg xmlns="http://www.w3.org/2000/svg" width="106.05" height="102.205" viewBox="0 0 106.05 102.205">
  <g id="CF6_mod_copia_12" data-name="CF6_mod copia 12" transform="translate(0 2.205)">
    <circle id="Elipse_4192" data-name="Elipse 4192" cx="50" cy="50" r="50" fill="#b5abdb"/>
    <g id="Grupo_61430" data-name="Grupo 61430">
      <rect id="Rectángulo_7033" data-name="Rectángulo 7033" width="10.33" height="7.99" rx="1.13" transform="translate(76.63 47.9)" fill="#083673"/>
      <rect id="Rectángulo_7034" data-name="Rectángulo 7034" width="10.33" height="2.14" transform="translate(76.63 50.3)" fill="#2997f0"/>
    </g>
    <rect id="Rectángulo_7035" data-name="Rectángulo 7035" width="22.39" height="13.36" rx="2.23" transform="translate(70.53 54.14)" fill="#083673"/>
    <g id="Grupo_61437" data-name="Grupo 61437">
      <path id="Trazado_128544" data-name="Trazado 128544" d="M3.31,27.32,53.29,8.76l.23-.08.21.11L89.92,27.98l-.51.97L53.44,9.87,3.69,28.34Z" fill="#d8b05c" fill-rule="evenodd"/>
      <g id="Grupo_61436" data-name="Grupo 61436">
        <g id="Grupo_61431" data-name="Grupo 61431">
          <rect id="Rectángulo_7036" data-name="Rectángulo 7036" width="0.92" height="31.98" transform="translate(74.84 31.61)" fill="#083673"/>
          <rect id="Rectángulo_7037" data-name="Rectángulo 7037" width="0.92" height="31.98" transform="translate(87.68 31.61)" fill="#083673"/>
        </g>
        <g id="Grupo_61432" data-name="Grupo 61432">
          <rect id="Rectángulo_7038" data-name="Rectángulo 7038" width="23.9" height="13.62" transform="translate(69.77 54)" fill="#d8b05c"/>
          <rect id="Rectángulo_7039" data-name="Rectángulo 7039" width="11.95" height="13.62" transform="translate(81.72 54)" fill="#7f4813"/>
          <path id="Trazado_128545" data-name="Trazado 128545" d="M70.78,54.92h1.86V66.7H70.78Zm2.85,0h1.9V66.7h-1.9Zm2.88,0h1.92V66.7H76.51V54.92Zm2.91,0h1.81V66.7H79.42Zm2.8,0h1.89V66.7H82.22Zm2.88,0H87V66.7H85.1Zm2.9,0h1.82V66.7H88Zm2.8,0h1.87V66.7H90.8Z" fill="#7f4813" fill-rule="evenodd"/>
          <path id="Trazado_128546" data-name="Trazado 128546" d="M82.22,54.92h1.89V66.7H82.22Zm2.88,0H87V66.7H85.1Zm2.9,0h1.82V66.7H88Zm2.8,0h1.87V66.7H90.8Z" fill="#3f2409" fill-rule="evenodd"/>
        </g>
        <path id="Trazado_128547" data-name="Trazado 128547" d="M59.81,32.5h4.86a.93.93,0,0,1,.93.93v4.34a.93.93,0,0,1-.93.93H59.81a.92.92,0,0,1-.92-.92V33.43a.93.93,0,0,1,.92-.93Z" fill="#7f4813"/>
        <rect id="Rectángulo_7040" data-name="Rectángulo 7040" width="2.49" height="4.08" rx="0.39" transform="translate(62.33 33.56)" fill="#3f2409"/>
        <rect id="Rectángulo_7041" data-name="Rectángulo 7041" width="2.71" height="34.51" transform="translate(36.82 31.17)" fill="#083673"/>
        <g id="Grupo_61435" data-name="Grupo 61435">
          <g id="Grupo_61433" data-name="Grupo 61433">
            <path id="Trazado_128548" data-name="Trazado 128548" d="M25.43,65.9V30.45h.98V65.54h7.82V30.45h.98v35.8H25.43Z" fill="#7f4813" fill-rule="evenodd"/>
            <path id="Trazado_128549" data-name="Trazado 128549" d="M29.87,37.26l-4.21-6.81h1.07l3.59,5.8,3.59-5.8h1.07l-4.22,6.81-.44.71Z" fill="#7f4813" fill-rule="evenodd"/>
            <path id="Trazado_128550" data-name="Trazado 128550" d="M29.87,51.46l-4.4-7.1-.09-.15.09-.14L29.87,37l.45-.71.44.71,4.4,7.11.09.14-.09.15-4.4,7.1-.44.72-.45-.72Zm-3.42-7.25,3.87,6.24,3.86-6.24L30.32,38Z" fill="#7f4813" fill-rule="evenodd"/>
            <path id="Trazado_128551" data-name="Trazado 128551" d="M29.87,65.66l-4.4-7.1-.09-.14.09-.15,4.4-7.1.45-.72.44.72,4.4,7.1.09.15-.09.14-4.4,7.1-.44.72-.45-.72Zm-3.42-7.24,3.87,6.23,3.86-6.23-3.86-6.24Z" fill="#7f4813" fill-rule="evenodd"/>
            <rect id="Rectángulo_7042" data-name="Rectángulo 7042" width="8.8" height="0.71" transform="translate(25.92 43.86)" fill="#7f4813"/>
            <rect id="Rectángulo_7043" data-name="Rectángulo 7043" width="8.8" height="0.71" transform="translate(25.92 58.06)" fill="#7f4813"/>
            <rect id="Rectángulo_7044" data-name="Rectángulo 7044" width="8.8" height="0.71" transform="translate(25.92 36.57)" fill="#7f4813"/>
            <rect id="Rectángulo_7045" data-name="Rectángulo 7045" width="8.8" height="0.71" transform="translate(25.92 51.22)" fill="#7f4813"/>
          </g>
          <g id="Grupo_61434" data-name="Grupo 61434">
            <path id="Trazado_128552" data-name="Trazado 128552" d="M35.21,30.45v35.8H30.32v-.71h3.91V30.45Z" fill="#3f2409" fill-rule="evenodd"/>
            <path id="Trazado_128553" data-name="Trazado 128553" d="M34.98,30.45l-4.22,6.81-.44.71V36.25l3.59-5.8Z" fill="#3f2409" fill-rule="evenodd"/>
            <path id="Trazado_128554" data-name="Trazado 128554" d="M30.32,36.25l.44.71,4.4,7.11.09.14-.09.15-4.4,7.1-.44.72V50.45l3.86-6.24-3.86-6.24Z" fill="#3f2409" fill-rule="evenodd"/>
            <path id="Trazado_128555" data-name="Trazado 128555" d="M30.32,50.45l.44.72,4.4,7.1.09.15-.09.14-4.4,7.1-.44.72V64.65l3.86-6.23-3.86-6.24Z" fill="#3f2409" fill-rule="evenodd"/>
            <rect id="Rectángulo_7046" data-name="Rectángulo 7046" width="4.4" height="0.71" transform="translate(30.32 43.86)" fill="#3f2409"/>
            <rect id="Rectángulo_7047" data-name="Rectángulo 7047" width="4.4" height="0.71" transform="translate(30.32 58.06)" fill="#3f2409"/>
            <rect id="Rectángulo_7048" data-name="Rectángulo 7048" width="4.4" height="0.71" transform="translate(30.32 36.57)" fill="#3f2409"/>
            <rect id="Rectángulo_7049" data-name="Rectángulo 7049" width="4.4" height="0.71" transform="translate(30.32 51.22)" fill="#3f2409"/>
          </g>
        </g>
        <rect id="Rectángulo_7050" data-name="Rectángulo 7050" width="91.8" height="5.37" transform="translate(2.84 27.19)" fill="#edcc88"/>
        <rect id="Rectángulo_7051" data-name="Rectángulo 7051" width="4.48" height="56.97" transform="translate(51.01 9.41)" fill="#d8b05c"/>
        <rect id="Rectángulo_7052" data-name="Rectángulo 7052" width="24.51" height="5.55" rx="1.07" transform="translate(19.91 64.99)" fill="#edcc88"/>
        <rect id="Rectángulo_7053" data-name="Rectángulo 7053" width="11.4" height="5.55" rx="1.07" transform="translate(47.55 64.99)" fill="#d8b05c"/>
      </g>
    </g>
    <g id="Grupo_61438" data-name="Grupo 61438">
      <path id="Trazado_128556" data-name="Trazado 128556" d="M81.72,58l15.55,7.91a40.44,40.44,0,0,1-5.94,12.8H72.12a43.49,43.49,0,0,1-5.94-12.8Z" fill="#6c58b8" fill-rule="evenodd"/>
      <path id="Trazado_128557" data-name="Trazado 128557" d="M96.92,67.14c-.26.86-.55,1.71-.86,2.55H67.41q-.48-1.26-.87-2.55Z" fill="#9182ca" fill-rule="evenodd"/>
    </g>
    <path id="Trazado_128558" data-name="Trazado 128558" d="M52.36,79.78c4,.61,9-1.23,12.66-1.18s4.81.84,9.68.84,10.67-2.65,14.45-1.75c5.53,1.32,9.58,2.46,16.9-.29C100,81.49,94.45,80,88.93,79c-4-.68-9.3,1.42-14.17,1.43s-6-1.08-9.65-1.12C63.57,79.32,55.83,80.87,52.36,79.78Z" fill="#25bed9" fill-rule="evenodd"/>
    <rect id="Rectángulo_7054" data-name="Rectángulo 7054" width="65.94" height="12.46" transform="translate(0 70.32)" fill="#7f4813"/>
    <path id="Trazado_128559" data-name="Trazado 128559" d="M18.59,14.08c1.4-3.32,4.67-2.7,7.74-2.33-4.61-1.67-7.4-3.26-9.75.75-3.57-3-5.66-.54-9.43,2.6,2.76-1.4,5.63-3.09,8.07-.43l2,1.14Z" fill="#b5dfeb" fill-rule="evenodd"/>
    <path id="Trazado_128560" data-name="Trazado 128560" d="M62.9,51.87c.73-1.32,2.06-.92,3.31-.63-1.84-.9-2.93-1.68-4.08-.11-1.35-1.39-2.32-.47-4,.67,1.2-.46,2.47-1,3.37.17l.76.56Z" fill="#b5dfeb" fill-rule="evenodd"/>
    <g id="Grupo_61439" data-name="Grupo 61439">
      <path id="Trazado_128561" data-name="Trazado 128561" d="M79.47,0a3.19,3.19,0,0,1,3.21-2.2A3.17,3.17,0,0,1,85.88,0a3.86,3.86,0,0,1,1.64-.36,3.13,3.13,0,0,1,3.23,2.27,2.63,2.63,0,0,1,2.18,2.4h0a2.81,2.81,0,0,1-3,2.5H75.46a2.81,2.81,0,0,1-3-2.5h0a2.63,2.63,0,0,1,2.17-2.4,3.14,3.14,0,0,1,3.2-2.32A3.8,3.8,0,0,1,79.47,0Z" fill="#fff" fill-rule="evenodd"/>
      <path id="Trazado_128562" data-name="Trazado 128562" d="M82.68-2.2A3.17,3.17,0,0,1,85.88,0a3.86,3.86,0,0,1,1.64-.36,3.13,3.13,0,0,1,3.23,2.27,2.63,2.63,0,0,1,2.18,2.4h0a2.81,2.81,0,0,1-3,2.5H82.68Z" fill="#e9fcff" fill-rule="evenodd"/>
    </g>
  </g>
</svg>
