<svg xmlns="http://www.w3.org/2000/svg" width="59.606" height="82.979" viewBox="0 0 59.606 82.979">
  <g id="Grupo_124097" data-name="Grupo 124097" transform="translate(-300.119 -3240.748)">
    <g id="Grupo_88158" data-name="Grupo 88158" transform="translate(300.119 3240.748)">
      <path id="Trazado_110665" data-name="Trazado 110665" d="M-564.108,279.248a9.419,9.419,0,0,0-9.418-9.416,9.416,9.416,0,0,0-9.418,9.416,9.411,9.411,0,0,0,4.822,8.216l.2-6.248a4.632,4.632,0,0,1,4.633-4.63h.263a3.649,3.649,0,0,1,3.649,3.649V287.7A9.414,9.414,0,0,0-564.108,279.248Z" transform="translate(603.329 -249.752)" fill="#feb62b"/>
      <path id="Trazado_110666" data-name="Trazado 110666" d="M-649.863,330.241a3.649,3.649,0,0,0-3.649-3.649h-.263a4.632,4.632,0,0,0-4.633,4.63l-.2,6.248-.434,13.766c-.1.425-.155,10-.155,10-.809-.825-1.71-1.769-2.519-2.672a13.588,13.588,0,0,0-7.668-3.79,3.821,3.821,0,0,0-2.761.492,5.732,5.732,0,0,0-.573.5c-1.191,1.173-2.089,3.067-1.258,4.455a4.76,4.76,0,0,0,1.633,1.431,11.474,11.474,0,0,1,3.435,2.579c1.844,2.359,6.114,7.633,8.738,10.447.546.34,1.7,1.492,2.247,1.784a20.416,20.416,0,0,1,3.478,2.593,16.9,16.9,0,0,0,2.534,1.53,17.055,17.055,0,0,0,8.628,2.148c3.677,0,7.019.22,9.488-1.952h.132l.065-.164a12.2,12.2,0,0,0,4.074-9.014V354.748c0-.826-.182-3.595-2.51-4.426a4.12,4.12,0,0,0-3.078.142l-.211.009-.065,0a3.537,3.537,0,0,0-2.912-2.763,4.87,4.87,0,0,0-3.811.773,4.005,4.005,0,0,0-4.28-2.276,4.969,4.969,0,0,0-3.478,1.863V330.241Z" transform="translate(683.809 -299.759)" fill="#fff"/>
      <path id="Trazado_110667" data-name="Trazado 110667" d="M-703.441,146.21l1.87,2.08a.856.856,0,0,0,1.328-.058,29.582,29.582,0,0,0,5.59-17.352,29.837,29.837,0,0,0-29.8-29.8,30.788,30.788,0,0,0-3.4.189,29.878,29.878,0,0,0-26.224,26.323,29.728,29.728,0,0,0,5.41,20.644.859.859,0,0,0,1.331.06l1.867-2.078a.852.852,0,0,0,.06-1.056,25.235,25.235,0,0,1-4.406-15.024,25.46,25.46,0,0,1,24.153-24.6,25.368,25.368,0,0,1,26.584,25.343,25.267,25.267,0,0,1-4.422,14.274A.852.852,0,0,0-703.441,146.21Z" transform="translate(754.26 -101.077)" fill="#fff"/>
      <path id="Trazado_110668" data-name="Trazado 110668" d="M-623.954,224.752l1.979,2.2a.862.862,0,0,0,1.411-.191,17.668,17.668,0,0,0,1.908-8.017,18.008,18.008,0,0,0-14.258-17.554,17.887,17.887,0,0,0-7.36,0,18.009,18.009,0,0,0-14.253,17.554,17.682,17.682,0,0,0,1.906,8.017.864.864,0,0,0,1.413.191l1.977-2.2a.857.857,0,0,0,.148-.9,13.408,13.408,0,0,1-1.015-5.1,13.565,13.565,0,0,1,8.88-12.689,13.576,13.576,0,0,1,9.251,0,13.563,13.563,0,0,1,8.879,12.689,13.487,13.487,0,0,1-1.011,5.1A.858.858,0,0,0-623.954,224.752Z" transform="translate(666.395 -188.943)" fill="#feb62b"/>
    </g>
  </g>
</svg>
