<svg xmlns="http://www.w3.org/2000/svg" width="99.979" height="100.007" viewBox="0 0 99.979 100.007">
  <g id="Grupo_124111" data-name="Grupo 124111" transform="translate(-839.194 -1358.612)">
    <g id="CF6-44" transform="translate(839.173 1358.619)">
      <g id="Grupo_61829" data-name="Grupo 61829">
        <path id="Trazado_130274" data-name="Trazado 130274" d="M100,50A49.84,49.84,0,0,1,85.42,85.29l-9,3.13a80.52,80.52,0,0,1-52.76,0l-9-3.12A50,50,0,0,1,6.55,25.25V25.2a50,50,0,0,1,86.84,0v.05A49.74,49.74,0,0,1,100,50Z" fill="#f57fa3"/>
        <path id="Trazado_130275" data-name="Trazado 130275" d="M100,50A49.84,49.84,0,0,1,85.42,85.29l-9,3.13a80.52,80.52,0,0,1-52.76,0l-9-3.12A50,50,0,0,1,6.55,25.25V25.2A50.15,50.15,0,0,0,28,45.32a33.869,33.869,0,0,0,3.13,1.4c.87.35,1.74.68,2.63,1h0A49.52,49.52,0,0,0,49.5,50.39h1a49.72,49.72,0,0,0,12.4-1.68,49.28,49.28,0,0,0,5.94-2c1.06-.43,2.11-.9,3.13-1.4a49.79,49.79,0,0,0,9.57-6.13,50.1,50.1,0,0,0,11.88-14v.05A49.74,49.74,0,0,1,100,50Z" fill="#f25585"/>
      </g>
      <g id="Grupo_61831" data-name="Grupo 61831">
        <path id="Trazado_130276" data-name="Trazado 130276" d="M61.8,83.79a62.651,62.651,0,0,1-3.19,8,20.861,20.861,0,0,0-3.72,1.47L42.75,99.48h0a49.7,49.7,0,0,1-18.08-6.36c-.87-.52-1.73-1.06-2.56-1.62a15.17,15.17,0,0,0-5.56-11.4l-6.32-5.17h0a41.51,41.51,0,0,1,.59-23.25l23-4L61.17,43c.67,1.89,1.25,3.81,1.73,5.74.19.72.35,1.45.51,2.18a64.16,64.16,0,0,1-1.61,32.9Z" fill="#9182ca"/>
        <path id="Trazado_130277" data-name="Trazado 130277" d="M58.61,91.84a20.86,20.86,0,0,0-3.72,1.47L42.75,99.48A49.752,49.752,0,0,1,37,98.28c-6.06-7.41-10-19.86-10-34a69.6,69.6,0,0,1,1.75-15.73l5.11-.89L61.17,43c.67,1.89,1.25,3.81,1.73,5.74a64,64,0,0,1-4.29,43.13Z" fill="#6c58b8"/>
        <path id="Trazado_130278" data-name="Trazado 130278" d="M91.15,64.31a40.89,40.89,0,0,1-2.87,15.13,35.906,35.906,0,0,1-1.61,3.58c-.39.77-.81,1.53-1.25,2.27A50.779,50.779,0,0,1,78.62,91H64.53a21.263,21.263,0,0,0-9.642,2.311L50,95.8V44.9L61.41,40a20,20,0,0,1,9.09-1.55l11,.7,1.1.07h0a41,41,0,0,1,8.51,25.06Z" fill="#472ea6"/>
        <path id="Trazado_130279" data-name="Trazado 130279" d="M50,23.16l-2.54,8.41a65.18,65.18,0,0,1-16.2,27.12L26.94,63h0a4.78,4.78,0,0,1-1.05-.84c-2-2-2.35-5.31-4.87-7.12-2.15-1.57-6.74-2.7-9.43-3.25a7.208,7.208,0,0,1-.77-.12A41.18,41.18,0,0,1,50,23.16Z" fill="#ffe9d3"/>
        <path id="Trazado_130280" data-name="Trazado 130280" d="M51.77,52.29,50,71.14l-.22-.35c-1.32-2.2-1-4.74-2.47-6.73A10,10,0,0,0,40,60.53c-2.12,0-4.06,1.09-6,1.95-2.24,1-4.92,1.78-7,.55.38-22.11,10.54-39.83,23-39.87h0l1.8,20a50.51,50.51,0,0,1,0,9.12Z" fill="#fed2a8"/>
        <path id="Trazado_130281" data-name="Trazado 130281" d="M51.74,95.47a1.62,1.62,0,0,1,.11,2.1L50,100h0a50.75,50.75,0,0,1-7.232-.519,11.18,11.18,0,0,1,4.322-4A29.2,29.2,0,0,0,50,93.72l1.74,1.77Z" fill="#9182ca"/>
        <path id="Trazado_130282" data-name="Trazado 130282" d="M81.56,66.34l3.77,6c.77,1.24,1.58,2.64,1.28,4.06a3.91,3.91,0,0,1-3.13,2.75A11.58,11.58,0,0,1,79.1,79c-2.59-.5-18.1-5.28-10.89-8.74,2.6-1.25,5.58,1.07,8.12-.36,2.06-1.16,2.51-7.91,5.23-3.56Z" fill="#febc7c"/>
        <path id="Trazado_130283" data-name="Trazado 130283" d="M30.69,86.63v.13c-.23.25-.48.48-.73.71-1.86,1.73-3.14,4-5.15,5.57l-.11.08a50.24,50.24,0,0,1-10.06-7.81,41.14,41.14,0,0,1-4.38-10.38,9.61,9.61,0,0,1,2.6-1.69c2-.81,4.53-.57,5.79,1.13,1.14,1.54.93,3.75,2,5.33s3,2,4.77,2.29a31.729,31.729,0,0,1,3.9.5,4.32,4.32,0,0,1,1.39,4.14Z" fill="#ffe9d3"/>
        <g id="Grupo_61830" data-name="Grupo 61830">
          <path id="Trazado_130284" data-name="Trazado 130284" d="M78.62,91a49.81,49.81,0,0,1-24.55,8.84c-1.34.11-2.7.16-4.07.16h0V93.69a8.38,8.38,0,0,0,2.74-2.88,14.48,14.48,0,0,0,1.15-5A8.24,8.24,0,0,1,55.66,81c1.19-1.26,3.42-1.66,4.61-.4,1,1,.94,2.85,2,3.78s3,.46,4.57.27a8.94,8.94,0,0,1,7.41,2.77c.8.85,1.23,1.9,2.19,2.54a12.7,12.7,0,0,0,2.13,1Z" fill="#febc7c"/>
          <path id="Trazado_130285" data-name="Trazado 130285" d="M82.27,38.77A41.1,41.1,0,0,0,50,23.16v48a4.79,4.79,0,0,0,4.58,2.23c3-.56,4-4.57,2.93-7.42S54.23,60.86,53,58.11s-1.13-6.69,1.58-8c3.23-1.6,7.17,1.73,10.59.57,3.75-1.28,4.1-6.77,7.37-9,2.82-1.94,6.83-.78,9.92-2.27l.23-.11c-.13-.16-.25-.32-.37-.49Z" fill="#febc7c"/>
        </g>
      </g>
      <path id="Trazado_130286" data-name="Trazado 130286" d="M31.29,85.94a5.349,5.349,0,0,1-.44.62l-.19.2a40.165,40.165,0,0,1-1.36-4.27A3,3,0,0,1,31.56,84a2.37,2.37,0,0,1-.27,2Z" fill="#9182ca"/>
      <g id="Grupo_61832" data-name="Grupo 61832">
        <path id="Trazado_130287" data-name="Trazado 130287" d="M28,55.9l-.1.2-5.24-5.24A7.42,7.42,0,0,1,27.92,38.2,19.89,19.89,0,0,1,28,55.9Z" fill="#ff3ea8"/>
        <path id="Trazado_130288" data-name="Trazado 130288" d="M33.16,50.86,27.92,56.1V38.2a7.42,7.42,0,0,1,5.24,12.66Z" fill="#ff0074"/>
        <path id="Trazado_130289" data-name="Trazado 130289" d="M27.92,49.75a4.135,4.135,0,0,1,0-8.27l.18.29a7.23,7.23,0,0,1-.18,7.98Z" fill="#fff"/>
        <path id="Trazado_130290" data-name="Trazado 130290" d="M30.84,48.54a4.13,4.13,0,0,1-2.92,1.21V41.48a4.134,4.134,0,0,1,2.92,7.06Z" fill="#d1f6ff"/>
      </g>
      <g id="Grupo_61833" data-name="Grupo 61833">
        <path id="Trazado_130291" data-name="Trazado 130291" d="M82.64,74.72l-.1.2L77.3,69.67A7.41,7.41,0,0,1,82.54,57a19.89,19.89,0,0,1,.1,17.72Z" fill="#ff3ea8"/>
        <path id="Trazado_130292" data-name="Trazado 130292" d="M87.78,69.67l-5.24,5.25V57a7.41,7.41,0,0,1,5.24,12.65Z" fill="#ff0074"/>
        <path id="Trazado_130293" data-name="Trazado 130293" d="M82.54,68.57a4.14,4.14,0,0,1-2.92-7.06,4.09,4.09,0,0,1,2.92-1.21l.18.29a7.24,7.24,0,0,1-.18,7.98Z" fill="#fff"/>
        <path id="Trazado_130294" data-name="Trazado 130294" d="M85.46,67.35a4.1,4.1,0,0,1-2.92,1.22V60.3a4.13,4.13,0,0,1,2.92,7Z" fill="#d1f6ff"/>
      </g>
      <path id="Trazado_130295" data-name="Trazado 130295" d="M77.74,74.31l-1.33-.5L77,72.35l1.33.5Zm-3-1.11-4-1.51.55-1.47,4,1.51ZM69.1,71.07l-4-1.51.54-1.46,4,1.51Zm-5.67-2.13-4-1.51L60,66l4,1.51Zm-5.67-2.13-4-1.51.55-1.46,4,1.51Zm-5.67-2.12-4-1.51.55-1.47,4,1.51Zm-5.67-2.13-4-1.51L43,59.58l4,1.51Zm-5.66-2.13-4-1.51.55-1.46,4,1.51ZM35.09,58.3l-4-1.51.55-1.46,4,1.51Z" fill="#12263f"/>
      <g id="Grupo_61834" data-name="Grupo 61834">
        <path id="Trazado_130296" data-name="Trazado 130296" d="M50.53,44.39l-1.34,3.84-2.35.1-1.34-1.4-2.74-1a1.25,1.25,0,0,1-.77-1.6l.92-2.65,7.62,2.67Z" fill="#fd8f25" fill-rule="evenodd"/>
        <path id="Trazado_130297" data-name="Trazado 130297" d="M51.46,41.74l-.69,2L43.16,41l.69-2a1.26,1.26,0,0,1,1.6-.77l5.24,1.84a1.26,1.26,0,0,1,.77,1.67Z" fill="#fd8f25" fill-rule="evenodd"/>
        <path id="Trazado_130298" data-name="Trazado 130298" d="M50.32,45l-7.61-2.68.65-1.87L51,43.12Z" fill="#ef2a66" fill-rule="evenodd"/>
        <path id="Trazado_130299" data-name="Trazado 130299" d="M45,41l.48-1.37A1.26,1.26,0,0,1,47,38.86l-1.59-.56a1.26,1.26,0,0,0-1.6.77l-.49,1.37.62.22Z" fill="#7f4813" fill-rule="evenodd"/>
        <path id="Trazado_130300" data-name="Trazado 130300" d="M44.5,42.28l.24-.69L45,41l-1-.34-.62-.22-.2.6-.25.68-.2.59.61.22,1,.34Z" fill="#b3204d" fill-rule="evenodd"/>
        <path id="Trazado_130301" data-name="Trazado 130301" d="M43.32,42.53l-.61-.22L42,44.37a1.23,1.23,0,0,0,.25,1.25,1.12,1.12,0,0,0,.52.35l1.59.56a1.25,1.25,0,0,1-.77-1.6l.72-2.06Z" fill="#7f4813" fill-rule="evenodd"/>
        <path id="Trazado_130302" data-name="Trazado 130302" d="M49.19,48.23l4.55,1.6c.17.69.75,1.19,1.78,1.55l1.62.57c.82.28.63.83.25,1.89l-12-4.21a.79.79,0,0,1-.48-1l.6-1.7,3.69,1.3Z" fill="#6f6571" fill-rule="evenodd"/>
        <path id="Trazado_130303" data-name="Trazado 130303" d="M55.94,53.34c-.09,3.54-1.29,2.25,2.69,5.6l2.27.79c-.49.6-1,1.19-1.56,1.77l-8.06-2.83c.24-3.08-6.71-6.62-8.29-4.43a6.87,6.87,0,0,1,2.39-4.61l10.56,3.71Z" fill="#fd8f25" fill-rule="evenodd"/>
        <path id="Trazado_130304" data-name="Trazado 130304" d="M60.06,44.55a6.87,6.87,0,0,0,.52-2.7l-.37-1.49a4,4,0,0,0-1.34.19c-1.83.21-4.48,1.92-6.29,6.79l2.27,1.82,2.64-.1a19.061,19.061,0,0,0,1.43-2.12Z" fill="#eceaec" fill-rule="evenodd"/>
        <path id="Trazado_130305" data-name="Trazado 130305" d="M52.58,47.34a3.15,3.15,0,0,0-.29,2c.18.69.75,1.19,1.78,1.55l1.62.57c.82.29.63.83.25,1.9l-.75,2.16,1.21,1.17,1.35-.27,1-2.8c.94-2.67-.15-4-1.24-4.54L52.6,47.36Z" fill="#ef2a66" fill-rule="evenodd"/>
        <path id="Trazado_130306" data-name="Trazado 130306" d="M54,47.83c1.56-4.21,3.76-6,5.51-6.61a3.31,3.31,0,0,1-.63-.67c-1.83.21-4.48,1.92-6.29,6.79Z" fill="#dad8db" fill-rule="evenodd"/>
        <path id="Trazado_130307" data-name="Trazado 130307" d="M52.29,49.32c.18.69.75,1.19,1.78,1.55l.42.15a2.25,2.25,0,0,1-.79-1.21,3.17,3.17,0,0,1,.29-2l-1.41-.49a3.15,3.15,0,0,0-.29,2Z" fill="#b3204d" fill-rule="evenodd"/>
        <path id="Trazado_130308" data-name="Trazado 130308" d="M51.28,58.67l-8.7-3.05c-.15,0-.27-.07-.21-.24A5.23,5.23,0,0,1,43,54.24a4.74,4.74,0,0,1,8.29,4.43Z" fill="#ef2a66" fill-rule="evenodd"/>
        <path id="Trazado_130309" data-name="Trazado 130309" d="M50.16,58.28a3.62,3.62,0,1,1-6.83-2.4l6.83,2.4Z" fill="#6f6571" fill-rule="evenodd"/>
        <path id="Trazado_130310" data-name="Trazado 130310" d="M64.21,66.45a3.21,3.21,0,0,1-2.82-3.53l6.35.71a3.2,3.2,0,0,1-3.53,2.82Z" fill="#6f6571" fill-rule="evenodd"/>
        <path id="Trazado_130311" data-name="Trazado 130311" d="M68.76,62.14a4.37,4.37,0,0,1,.12,1.62l-.67-.08h-.47l-6.35-.71-1-.11c-.09,0-.15,0-.14-.08a4,4,0,0,1,.2-.84,4.4,4.4,0,0,1,5.14-2.83,4.33,4.33,0,0,1,3.16,3.08Z" fill="#eceaec" fill-rule="evenodd"/>
        <path id="Trazado_130312" data-name="Trazado 130312" d="M60.45,61.89l-1.7-.6c.54-.58,1.07-1.16,1.56-1.76a14.64,14.64,0,0,0,3.54-10.31l1.36-.06.9.85-.51,9Z" fill="#ef2a66" fill-rule="evenodd"/>
        <path id="Trazado_130313" data-name="Trazado 130313" d="M64.37,39.07a2.85,2.85,0,0,1-3.79,2.78,2.75,2.75,0,0,1-.74-.39l.47-3.22a1.88,1.88,0,0,1,1.48-.74l2.58,1.57Z" fill="#ffece4" fill-rule="evenodd"/>
        <path id="Trazado_130314" data-name="Trazado 130314" d="M65.27,39.38l-.9-.31-2.79-1a.49.49,0,0,0-.68.36l-1.06,3a3.39,3.39,0,0,1-1-.91A3.86,3.86,0,0,1,58.49,37a3.593,3.593,0,0,1,6.78,2.38Z" fill="#ef2a66" fill-rule="evenodd"/>
        <path id="Trazado_130315" data-name="Trazado 130315" d="M64.69,35.86a3.38,3.38,0,0,0-.44-.18,3.8,3.8,0,0,0-4.82,2.37,4.24,4.24,0,0,0,.08,3.18,3.16,3.16,0,0,1-.64-.68A3.86,3.86,0,0,1,58.49,37a3.59,3.59,0,0,1,6.2-1.14Z" fill="#b3204d" fill-rule="evenodd"/>
        <path id="Trazado_130316" data-name="Trazado 130316" d="M58.63,58.94,55,57.65c-.27-.1-.45-.19-.33-.54l.57-1.61,2.56.9C58.42,56.63,59.27,57.34,58.63,58.94Z" fill="#6f6571" fill-rule="evenodd"/>
        <path id="Trazado_130317" data-name="Trazado 130317" d="M58.75,61.29l.59.21.61.21c.55-.58,1.08-1.16,1.57-1.76a14.63,14.63,0,0,0,3.54-10.31l-.32-.11h0l-.88-.31a14.64,14.64,0,0,1-3.54,10.31C59.82,60.13,59.29,60.71,58.75,61.29Z" fill="#b3204d" fill-rule="evenodd"/>
        <path id="Trazado_130318" data-name="Trazado 130318" d="M60.46,61.89a4,4,0,0,0-.2.84c0,.08.05.07.14.08l1,.11h.2a5.4,5.4,0,0,1,.17-.72l4.94-2.73a4.2,4.2,0,0,0-1.1-.43l-5.14,2.83Z" fill="#dad8db" fill-rule="evenodd"/>
        <path id="Trazado_130319" data-name="Trazado 130319" d="M45.38,49.63A6.87,6.87,0,0,0,43,54.24a4.78,4.78,0,0,1,1.48-1.32,4.34,4.34,0,0,1,.83-1.24,1.36,1.36,0,0,1,1.64-.46l8.68,3.05.32-.93Z" fill="#7f4813" fill-rule="evenodd"/>
        <path id="Trazado_130320" data-name="Trazado 130320" d="M44.47,52.92A4.85,4.85,0,0,0,43,54.21h0a5.23,5.23,0,0,0-.62,1.14c-.06.17.06.19.21.24l.75.26,1.09.38c-.08,0-.12-.07-.08-.19a4.79,4.79,0,0,1,5-3.07,4.8,4.8,0,0,0-.94-.45,4.72,4.72,0,0,0-3.93.37Z" fill="#b3204d" fill-rule="evenodd"/>
        <path id="Trazado_130321" data-name="Trazado 130321" d="M61.39,62.92A3.22,3.22,0,0,0,63,66.06a3.18,3.18,0,0,1-.54-2.17h.19l4.88.55a2.89,2.89,0,0,0,.21-.83l-6.15-.69Z" fill="#5d5360" fill-rule="evenodd"/>
        <path id="Trazado_130322" data-name="Trazado 130322" d="M44.42,56.26l-1.09-.38a3.7,3.7,0,0,0,1.27,4,3.71,3.71,0,0,1-.1-2.4l1.09.38,4,1.4a3.67,3.67,0,0,0,.58-.95l-5.74-2Z" fill="#5d5360" fill-rule="evenodd"/>
        <path id="Trazado_130323" data-name="Trazado 130323" d="M45.38,49.63l2.32.81a.78.78,0,0,1-.48-1l.6-1.69-2.32-.82-.6,1.7a.79.79,0,0,0,.48,1Z" fill="#5d5360" fill-rule="evenodd"/>
        <path id="Trazado_130324" data-name="Trazado 130324" d="M64.29,39.81a2.71,2.71,0,0,0,.08-.74l-2.79-1a.49.49,0,0,0-.68.36l-1.06,3a2.75,2.75,0,0,0,.63.35l.85-2.44A.5.5,0,0,1,62,39l2.28.8Z" fill="#ffddce" fill-rule="evenodd"/>
        <path id="Trazado_130325" data-name="Trazado 130325" d="M68.08,48.06l-.83,2.35L66.11,50l-2.58-.9a3,3,0,0,1,.41-1.57l3.57.06C68,47.61,68.24,47.59,68.08,48.06Z" fill="#fd8f25" fill-rule="evenodd"/>
        <path id="Trazado_130326" data-name="Trazado 130326" d="M61.79,47.6l.7-.71,1.45.65c1,.44.46,1.87-.41,1.57l-1.35-.48-.27-.09Z" fill="#ffece4" fill-rule="evenodd"/>
        <path id="Trazado_130327" data-name="Trazado 130327" d="M61,46.25l1.45.64-.58,1.65-2.4-.84-.59-.76-1.16-1.51c-1.39-1.8,1-3.15,1.93-1.53l.37.65Z" fill="#ef2a66" fill-rule="evenodd"/>
        <path id="Trazado_130328" data-name="Trazado 130328" d="M62.18,48.63l1.35.48a.72.72,0,0,0,.93-.59h-.15L63,48l-.27-.1-.18-.06-.32-.11-.28.8Z" fill="#ffddce" fill-rule="evenodd"/>
        <path id="Trazado_130329" data-name="Trazado 130329" d="M58.92,46.94l.59.76,2.4.84.28-.8-1.91-.67-.59-.76L59.44,46l-.91-1.18a1.47,1.47,0,0,1-.31-1.58c-.76.2-1.3,1.12-.46,2.21Z" fill="#b3204d" fill-rule="evenodd"/>
        <path id="Trazado_130330" data-name="Trazado 130330" d="M63.94,47.54a.85.85,0,0,1,.52,1,.72.72,0,0,1-.93.59l.32.11,1.21.42a2.08,2.08,0,0,0,.32-2.08H63.94Z" fill="#7f4813" fill-rule="evenodd"/>
      </g>
    </g>
  </g>
</svg>
