<svg xmlns="http://www.w3.org/2000/svg" xmlns:xlink="http://www.w3.org/1999/xlink" width="104.229" height="104.229" viewBox="0 0 104.229 104.229">
  <defs>
    <radialGradient id="radial-gradient" cx="0.5" cy="0.5" r="0.5" gradientTransform="matrix(0.926, 0.377, -0.377, 0.926, 0.226, -0.152)" gradientUnits="objectBoundingBox">
      <stop offset="0.804" stop-color="#b2b2b1"/>
      <stop offset="0.9" stop-color="#fff"/>
    </radialGradient>
    <linearGradient id="linear-gradient" x1="0.923" y1="0.896" x2="0.054" y2="0.083" gradientUnits="objectBoundingBox">
      <stop offset="0" stop-color="#472ea6"/>
      <stop offset="1" stop-color="#bb43b0"/>
    </linearGradient>
  </defs>
  <g id="Grupo_124044" data-name="Grupo 124044" transform="translate(-800 -1325.777)">
    <g id="Grupo_124043" data-name="Grupo 124043" transform="translate(800 1325.776)">
      <circle id="Elipse_4292" data-name="Elipse 4292" cx="39.981" cy="39.981" r="39.981" transform="translate(0 30.183) rotate(-22.176)" fill="url(#radial-gradient)"/>
      <circle id="Elipse_4293" data-name="Elipse 4293" cx="34.105" cy="34.105" r="34.105" transform="matrix(0.926, -0.378, 0.378, 0.926, 7.643, 33.441)" fill="#fff"/>
      <circle id="Elipse_4294" data-name="Elipse 4294" cx="29.665" cy="29.665" r="29.665" transform="translate(22.449 22.449)" fill="url(#linear-gradient)"/>
    </g>
    <path id="Trazado_227823" data-name="Trazado 227823" d="M13.228,9.364v3.882h-.22a7.411,7.411,0,0,0-4.548,1.326,5.6,5.6,0,0,0-2.19,3.684,5.773,5.773,0,0,1,4.219-1.641A5.385,5.385,0,0,1,14.9,18.637a8.153,8.153,0,0,1,1.641,5.3,7.466,7.466,0,0,1-.959,3.735A6.846,6.846,0,0,1,12.9,30.333a7.7,7.7,0,0,1-3.816.959A7.961,7.961,0,0,1,5.024,30.26a7.1,7.1,0,0,1-2.783-2.952,9.719,9.719,0,0,1-1.025-4.424V20.907a12.312,12.312,0,0,1,1.414-5.925,10.248,10.248,0,0,1,4.036-4.124A11.538,11.538,0,0,1,12.48,9.364ZM8.774,20.395a2.824,2.824,0,0,0-1.641.454,2.883,2.883,0,0,0-.981,1.113v1.479q0,4.043,2.8,4.043a2.27,2.27,0,0,0,1.882-1.011,4.119,4.119,0,0,0,.754-2.534,4.043,4.043,0,0,0-.769-2.556A2.46,2.46,0,0,0,8.774,20.395Z" transform="translate(843.713 1357.658)" fill="#fff"/>
  </g>
</svg>
