<svg xmlns="http://www.w3.org/2000/svg" width="103.331" height="100" viewBox="0 0 103.331 100">
  <g id="CF6_mod_copia_7" data-name="CF6_mod copia 7" transform="translate(3.331)">
    <circle id="Elipse_4198" data-name="Elipse 4198" cx="50" cy="50" r="50" fill="#b5abdb"/>
    <g id="Grupo_61470" data-name="Grupo 61470">
      <g id="Grupo_61468" data-name="Grupo 61468">
        <g id="Grupo_61459" data-name="Grupo 61459">
          <g id="Grupo_61455" data-name="Grupo 61455">
            <g id="Grupo_61449" data-name="Grupo 61449">
              <circle id="Elipse_4199" data-name="Elipse 4199" cx="10.14" cy="10.14" r="10.14" transform="translate(-3.331 79.469) rotate(-45)" fill="#6e6f71"/>
              <circle id="Elipse_4200" data-name="Elipse 4200" cx="4.31" cy="4.31" r="4.31" transform="translate(6.7 75.16)" fill="#fff"/>
            </g>
            <g id="Grupo_61450" data-name="Grupo 61450">
              <circle id="Elipse_4201" data-name="Elipse 4201" cx="10.14" cy="10.14" r="10.14" transform="translate(53.609 87.181) rotate(-77.53)" fill="#6e6f71"/>
              <circle id="Elipse_4202" data-name="Elipse 4202" cx="4.31" cy="4.31" r="4.31" transform="translate(61.38 75.16)" fill="#fff"/>
            </g>
            <g id="Grupo_61454" data-name="Grupo 61454">
              <g id="Grupo_61452" data-name="Grupo 61452">
                <path id="Trazado_128651" data-name="Trazado 128651" d="M14.13,63.61A14.59,14.59,0,0,0-.55,75.08H14.13Z" fill="#fda551"/>
                <g id="Grupo_61451" data-name="Grupo 61451">
                  <path id="Trazado_128652" data-name="Trazado 128652" d="M20.42,73.8H52V76H20.42Z" fill="#414243"/>
                  <path id="Trazado_128653" data-name="Trazado 128653" d="M47.7,60.86a10.25,10.25,0,0,0,3.3,7.8V75.3H21.91s.23-16.84,5-27.73a3.25,3.25,0,0,0-3.89-1.38s-10.81,12.34-12,29a2.84,2.84,0,0,0,2.82,3H79.9s1.66-12.54-6.13-17.36Z" fill="#fd8f25"/>
                </g>
                <path id="Trazado_128654" data-name="Trazado 128654" d="M65.61,64.08S53.8,63.8,53.8,75.37H77.42C77.42,63.8,65.61,64.08,65.61,64.08Z" fill="#fda551"/>
              </g>
              <g id="Grupo_61453" data-name="Grupo 61453">
                <path id="Trazado_128655" data-name="Trazado 128655" d="M24.65,43.08a.923.923,0,1,1-.14-1.84l5.63-.9a.931.931,0,0,1,.29,1.84l-5.63.89Z" fill="#414243"/>
                <path id="Trazado_128656" data-name="Trazado 128656" d="M21.45,37.14s-4.83,4.34,0,8.19l1.72-3.66Z" fill="#414243"/>
                <path id="Trazado_128657" data-name="Trazado 128657" d="M21.45,37.14v8.19l1.61.86L27,47.57S31.14,37.14,21.45,37.14Z" fill="#fda551"/>
                <path id="Trazado_128658" data-name="Trazado 128658" d="M28.56,46.39a1,1,0,0,1-.65-.22l-3.91-3a1.062,1.062,0,1,1,1.3-1.68l3.9,3A1.05,1.05,0,0,1,29.4,46a1.07,1.07,0,0,1-.84.39Z" fill="#414243"/>
              </g>
              <rect id="Rectángulo_7084" data-name="Rectángulo 7084" width="29.65" height="6.15" rx="2.94" transform="translate(45.3 55.35)" fill="#7f4813"/>
            </g>
          </g>
          <g id="Grupo_61458" data-name="Grupo 61458">
            <g id="Grupo_61457" data-name="Grupo 61457">
              <rect id="Rectángulo_7085" data-name="Rectángulo 7085" width="24.71" height="23.08" rx="3.36" transform="translate(58.39 32.27)" fill="#fed2a8"/>
              <g id="Grupo_61456" data-name="Grupo 61456">
                <path id="Trazado_128659" data-name="Trazado 128659" d="M79.44,38.4H62a.175.175,0,1,1,0-.35H79.44a.175.175,0,0,1,0,.35Z" fill="#fd8f25"/>
                <path id="Trazado_128660" data-name="Trazado 128660" d="M79.44,42.12H62a.17.17,0,0,1-.18-.17.18.18,0,0,1,.18-.18H79.44a.17.17,0,0,1,.17.18.16.16,0,0,1-.17.17Z" fill="#fd8f25"/>
                <path id="Trazado_128661" data-name="Trazado 128661" d="M79.44,45.85H62a.175.175,0,1,1,0-.35H79.44a.175.175,0,0,1,0,.35Z" fill="#fd8f25"/>
                <path id="Trazado_128662" data-name="Trazado 128662" d="M79.44,49.57H62a.175.175,0,1,1,0-.35H79.44a.175.175,0,0,1,0,.35Z" fill="#fd8f25"/>
              </g>
            </g>
            <path id="Trazado_128663" data-name="Trazado 128663" d="M54.74,61.85a.53.53,0,0,1-.17,0,.36.36,0,0,1-.14-.48L69.9,32.11a.351.351,0,0,1,.62.33L55.05,61.66a.34.34,0,0,1-.31.19Z" fill="#414243"/>
            <path id="Trazado_128664" data-name="Trazado 128664" d="M65.69,61.85H65.6a.37.37,0,0,1-.26-.44L73,32.18a.35.35,0,0,1,.43-.25.36.36,0,0,1,.26.43L66,61.58a.36.36,0,0,1-.31.27Z" fill="#414243"/>
          </g>
        </g>
        <g id="Grupo_61467" data-name="Grupo 61467">
          <g id="Grupo_61460" data-name="Grupo 61460">
            <path id="Trazado_128665" data-name="Trazado 128665" d="M42.69,70.31v2.88s-7.5,1.16-7.89.51,3.77-2.49,4.4-2.61.61-1,.61-1Z" fill="#414243"/>
            <path id="Trazado_128666" data-name="Trazado 128666" d="M56.24,53,44.87,56.61l-2,14.07-3.59-.16s-2-13.39,1.87-17.15,15.18-7.52,15.18-7.52Z" fill="#472ea6"/>
          </g>
          <g id="Grupo_61461" data-name="Grupo 61461">
            <path id="Trazado_128667" data-name="Trazado 128667" d="M46.05,32s-1.55-2.75-1-4.54c0,0-4-3.22-7.19-2.38A23,23,0,0,0,37,29c.06.86.94,3.28,1.62,3.56S42,32.2,42,32.2s1.48,1.95,2.14,2.17Z" fill="#f9ad8c"/>
            <path id="Trazado_128668" data-name="Trazado 128668" d="M44.69,27.61a.65.65,0,0,0,.83-.44c.33-1.27.71-4-1.79-5.26a4.46,4.46,0,0,0-6.09,1.83c-.23,0-3.1-1.13-3.54-.1,0,0-.31.49,2.35,1.26C38.6,25.53,43.05,27.05,44.69,27.61Z" fill="#9182ca"/>
            <path id="Trazado_128669" data-name="Trazado 128669" d="M36.77,28.85s3.06-1.34,8.15-.34v.28a16,16,0,0,0-3.06-.16,10,10,0,0,1,.37,2,17.56,17.56,0,0,0,3-.63l.1.32a19.93,19.93,0,0,1-7,1.92S36.83,31.67,36.77,28.85Z" fill="#c0f9fa"/>
          </g>
          <g id="Grupo_61462" data-name="Grupo 61462">
            <path id="Trazado_128670" data-name="Trazado 128670" d="M34.24,71.19,33,73.8s-7.26-2.17-7.34-2.93,4.45-.64,5.08-.47,1-.64,1-.64Z" fill="#414243"/>
            <path id="Trazado_128671" data-name="Trazado 128671" d="M51.86,55.2l-9.56.59L34.48,71.51l-3.41-1.66s3.21-14.38,7.16-18.18,20.09-3.05,20.09-3.05h0A6.9,6.9,0,0,1,51.86,55.2Z" fill="#6c58b8"/>
          </g>
          <g id="Grupo_61466" data-name="Grupo 61466">
            <g id="Grupo_61463" data-name="Grupo 61463">
              <path id="Trazado_128672" data-name="Trazado 128672" d="M43,37.78l-2.36,4.36-7.52-2-.81,2.3s7.46,4.29,9.6,3.06,4.12-6.21,4.12-6.21Z" fill="#e69478"/>
              <path id="Trazado_128673" data-name="Trazado 128673" d="M33.42,40.59a2.23,2.23,0,0,0-2.3-1.45c-1.76.15-2,1.78-1.84,1.89s.52-.55.52-.55a1,1,0,0,0,.56,1.23c.86.31.9,0,1.19,0s.83.9,1.19.72S33.42,40.59,33.42,40.59Z" fill="#e69478"/>
            </g>
            <path id="Trazado_128674" data-name="Trazado 128674" d="M58.51,49.33c-.95.14-7.83.89-12.11-.23,0,0-5.08-14.43-4.11-15.84S45,30.2,47,31.25s4.91,2.36,6.24,4.58S58.51,49.33,58.51,49.33Z" fill="#fd8f25"/>
            <g id="Grupo_61465" data-name="Grupo 61465">
              <g id="Grupo_61464" data-name="Grupo 61464">
                <path id="Trazado_128675" data-name="Trazado 128675" d="M39.89,39.76l-2,4.56L30.26,43l-.6,2.36s7.82,3.6,9.83,2.18S43,41,43,41Z" fill="#f9ad8c"/>
                <path id="Trazado_128676" data-name="Trazado 128676" d="M30.58,43.43a2.23,2.23,0,0,0-2.43-1.23c-1.73.31-1.84,1.95-1.65,2s.46-.6.46-.6a1,1,0,0,0,.67,1.17c.89.24.9-.08,1.19-.06s.91.83,1.25.62S30.58,43.43,30.58,43.43Z" fill="#f9ad8c"/>
              </g>
              <path id="Trazado_128677" data-name="Trazado 128677" d="M42.29,33.26c-1.19,1.78-2.77,4.73-3,6.92a8.32,8.32,0,0,0,3.65,1.55L45.3,36Z" fill="#fd8f25"/>
            </g>
          </g>
        </g>
      </g>
      <g id="Grupo_61469" data-name="Grupo 61469">
        <line id="Línea_167" data-name="Línea 167" x2="12.14" transform="translate(85.72 33.93)" fill="none" stroke="#8c80b8" stroke-linecap="round" stroke-linejoin="round" stroke-width="2"/>
        <line id="Línea_168" data-name="Línea 168" x2="10.96" transform="translate(85.72 37.77)" fill="none" stroke="#8c80b8" stroke-linecap="round" stroke-linejoin="round" stroke-width="2"/>
        <line id="Línea_169" data-name="Línea 169" x2="10.96" transform="translate(85.72 41.6)" fill="none" stroke="#8c80b8" stroke-linecap="round" stroke-linejoin="round" stroke-width="2"/>
      </g>
    </g>
  </g>
</svg>
