<svg id="CF6_mod_copia_3" data-name="CF6_mod copia 3" xmlns="http://www.w3.org/2000/svg" width="100" height="100" viewBox="0 0 100 100">
  <circle id="Elipse_4194" data-name="Elipse 4194" cx="50" cy="50" r="50" fill="#b5abdb"/>
  <g id="Grupo_61442" data-name="Grupo 61442">
    <path id="Trazado_128579" data-name="Trazado 128579" d="M64.43,69.16l.02-42.49H14.35V69.16Z" fill="#edcc88" fill-rule="evenodd"/>
    <rect id="Rectángulo_7057" data-name="Rectángulo 7057" width="11.77" height="42.49" transform="translate(52.68 26.67)" fill="#d8b05c"/>
    <path id="Trazado_128580" data-name="Trazado 128580" d="M34.11,54.54a5.6,5.6,0,0,1,5,3.94,2.71,2.71,0,0,0-3.52,0,2.8,2.8,0,0,0-1.51-.63V64h0a.77.77,0,0,0,.2.51.69.69,0,0,0,.49.21h0a.69.69,0,0,0,.49-.21.73.73,0,0,0,.2-.51H36a1.26,1.26,0,0,1-.34.87,1.14,1.14,0,0,1-.84.36h0a1.12,1.12,0,0,1-.83-.36,1.22,1.22,0,0,1-.35-.87h0V57.83a2.77,2.77,0,0,0-1.5.63,2.71,2.71,0,0,0-3.52,0,5.59,5.59,0,0,1,5-3.94v-.86h.49Z" fill="#59595b" fill-rule="evenodd"/>
    <path id="Trazado_128581" data-name="Trazado 128581" d="M41.31,64h8.4v1.25h-8.4V64Zm7-.48v-6.9H49l-1.17-2.27-1.17,2.27h.61v6.9Zm-4.59,0v-6.9h.61l-1.17-2.27L42,56.62h.61v6.9Z" fill="#59595b" fill-rule="evenodd"/>
    <path id="Trazado_128582" data-name="Trazado 128582" d="M26.1,54.49c-.44,3.26-2.06,5.74-4,6v3.89H24v.88H19.48v-.88h1.94V60.47c-2-.24-3.61-2.72-4-6h6.29l.51,1.18-.57-.06.58,2.19L24,56h.45l-.1-1.48Z" fill="#59595b" fill-rule="evenodd"/>
    <path id="Trazado_128583" data-name="Trazado 128583" d="M30.43,26.67h5.44v8.16l-.87.2-.94-.67-1.4.82-1.05-.81-1.18.7Z" fill="#a5896b" fill-rule="evenodd"/>
    <path id="Trazado_128584" data-name="Trazado 128584" d="M57.19,26.67h2.76v8.16l-.44.2-.48-.67-.71.82-.53-.81-.6.7Z" fill="#a5896b" fill-rule="evenodd"/>
    <rect id="Rectángulo_7058" data-name="Rectángulo 7058" width="88.76" height="10.69" transform="translate(3.72 69.16)" fill="#6c58b8"/>
    <path id="Trazado_128585" data-name="Trazado 128585" d="M10.23,87.75H19.5V86.04H76.71v1.71h9.26v-7.9H10.23Z" fill="#414243" fill-rule="evenodd"/>
    <rect id="Rectángulo_7059" data-name="Rectángulo 7059" width="3.53" height="33.9" transform="translate(79.64 35.27)" fill="#bdbdbe"/>
    <rect id="Rectángulo_7060" data-name="Rectángulo 7060" width="2.64" height="33.9" transform="translate(83.17 35.27)" fill="#808184"/>
    <rect id="Rectángulo_7061" data-name="Rectángulo 7061" width="15.46" height="2.24" transform="translate(75.54 33.03)" fill="#dc662b"/>
    <path id="Trazado_128586" data-name="Trazado 128586" d="M82.72,11.81A14,14,0,0,1,94.71,33h-24a14,14,0,0,1,12-21.22Z" fill="#e67c25" fill-rule="evenodd"/>
    <path id="Trazado_128587" data-name="Trazado 128587" d="M82.72,25.48l-10.2,3.71a10.85,10.85,0,1,1,20.4,0Z" fill="#fdf9d7" fill-rule="evenodd"/>
    <path id="Trazado_128588" data-name="Trazado 128588" d="M75.94,17.74l-.11.12,5.61,7.74,1.52-1.32Z" fill="#ec2027" fill-rule="evenodd"/>
  </g>
</svg>
