<svg xmlns="http://www.w3.org/2000/svg" xmlns:xlink="http://www.w3.org/1999/xlink" width="104.229" height="104.229" viewBox="0 0 104.229 104.229">
  <defs>
    <radialGradient id="radial-gradient" cx="0.5" cy="0.5" r="0.5" gradientTransform="matrix(0.926, 0.377, -0.377, 0.926, 0.226, -0.152)" gradientUnits="objectBoundingBox">
      <stop offset="0.804" stop-color="#b2b2b1"/>
      <stop offset="0.9" stop-color="#fff"/>
    </radialGradient>
    <linearGradient id="linear-gradient" x1="0.923" y1="0.896" x2="0.054" y2="0.083" gradientUnits="objectBoundingBox">
      <stop offset="0" stop-color="#472ea6"/>
      <stop offset="1" stop-color="#bb43b0"/>
    </linearGradient>
  </defs>
  <g id="Grupo_124071" data-name="Grupo 124071" transform="translate(-243.287 -1863.587)">
    <circle id="Elipse_4292" data-name="Elipse 4292" cx="39.981" cy="39.981" r="39.981" transform="translate(243.287 1893.77) rotate(-22.176)" fill="url(#radial-gradient)"/>
    <g id="Grupo_124070" data-name="Grupo 124070">
      <circle id="Elipse_4293" data-name="Elipse 4293" cx="34.105" cy="34.105" r="34.105" transform="matrix(0.926, -0.378, 0.378, 0.926, 250.93, 1897.028)" fill="#fff"/>
    </g>
    <circle id="Elipse_4294" data-name="Elipse 4294" cx="29.665" cy="29.665" r="29.665" transform="translate(265.736 1886.036)" fill="url(#linear-gradient)"/>
    <path id="Trazado_227878" data-name="Trazado 227878" d="M11.03,22.753a5.214,5.214,0,0,1-3.574,1.436,5.771,5.771,0,0,1-4.6-1.963,7.733,7.733,0,0,1-1.7-5.244,7.87,7.87,0,0,1,.952-3.809A7.144,7.144,0,0,1,4.783,10.39a7.288,7.288,0,0,1,3.8-1.025A7.075,7.075,0,0,1,12.4,10.426a7.15,7.15,0,0,1,2.659,3A10.315,10.315,0,0,1,16.04,17.9v1.89a12.821,12.821,0,0,1-1.384,6.123A9.556,9.556,0,0,1,10.708,29.9a12.336,12.336,0,0,1-5.977,1.392H4.424V27.338l.938-.015Q10.459,27.074,11.03,22.753ZM8.789,20.629A2.4,2.4,0,0,0,11.1,19.237V17.187a5.332,5.332,0,0,0-.688-3.032,2.159,2.159,0,0,0-1.86-.981,2.041,2.041,0,0,0-1.743,1.113,4.946,4.946,0,0,0-.7,2.7,4.435,4.435,0,0,0,.718,2.659A2.3,2.3,0,0,0,8.789,20.629Z" transform="translate(287 1894.357)" fill="#fff"/>
  </g>
</svg>
