<svg xmlns="http://www.w3.org/2000/svg" width="99.979" height="100.007" viewBox="0 0 99.979 100.007">
  <g id="Grupo_124109" data-name="Grupo 124109" transform="translate(-216.404 -1364.839)">
    <g id="CF6-42" transform="translate(216.383 1364.846)">
      <g id="Grupo_61817" data-name="Grupo 61817">
        <path id="Trazado_130211" data-name="Trazado 130211" d="M100,50A49.84,49.84,0,0,1,85.42,85.29l-9,3.13a80.52,80.52,0,0,1-52.76,0l-9-3.12A50,50,0,0,1,6.55,25.25V25.2a50,50,0,0,1,86.84,0v.05A49.74,49.74,0,0,1,100,50Z" fill="#f57fa3"/>
        <path id="Trazado_130212" data-name="Trazado 130212" d="M100,50A49.84,49.84,0,0,1,85.42,85.29l-9,3.13a80.52,80.52,0,0,1-52.76,0l-9-3.12A50,50,0,0,1,6.55,25.25V25.2A50.15,50.15,0,0,0,28,45.32a33.869,33.869,0,0,0,3.13,1.4c.87.35,1.74.68,2.63,1h0A49.52,49.52,0,0,0,49.5,50.39h1a49.72,49.72,0,0,0,12.4-1.68,49.28,49.28,0,0,0,5.94-2c1.06-.43,2.11-.9,3.13-1.4a49.79,49.79,0,0,0,9.57-6.13,50.1,50.1,0,0,0,11.88-14v.05A49.74,49.74,0,0,1,100,50Z" fill="#f25585"/>
      </g>
      <g id="Grupo_61819" data-name="Grupo 61819">
        <path id="Trazado_130213" data-name="Trazado 130213" d="M61.8,83.79a62.651,62.651,0,0,1-3.19,8,20.861,20.861,0,0,0-3.72,1.47L42.75,99.48h0a49.7,49.7,0,0,1-18.08-6.36c-.87-.52-1.73-1.06-2.56-1.62a15.17,15.17,0,0,0-5.56-11.4l-6.32-5.17h0a41.51,41.51,0,0,1,.59-23.25l23-4L61.17,43c.67,1.89,1.25,3.81,1.73,5.74.19.72.35,1.45.51,2.18a64.16,64.16,0,0,1-1.61,32.9Z" fill="#9182ca"/>
        <path id="Trazado_130214" data-name="Trazado 130214" d="M58.61,91.84a20.86,20.86,0,0,0-3.72,1.47L42.75,99.48A49.752,49.752,0,0,1,37,98.28c-6.06-7.41-10-19.86-10-34a69.6,69.6,0,0,1,1.75-15.73l5.11-.89L61.17,43c.67,1.89,1.25,3.81,1.73,5.74a64,64,0,0,1-4.29,43.13Z" fill="#6c58b8"/>
        <path id="Trazado_130215" data-name="Trazado 130215" d="M91.15,64.31a40.89,40.89,0,0,1-2.87,15.13,35.906,35.906,0,0,1-1.61,3.58c-.39.77-.81,1.53-1.25,2.27A50.779,50.779,0,0,1,78.62,91H64.53a21.263,21.263,0,0,0-9.642,2.311L50,95.8V44.9L61.41,40a20,20,0,0,1,9.09-1.55l11,.7,1.1.07h0a41,41,0,0,1,8.51,25.06Z" fill="#472ea6"/>
        <path id="Trazado_130216" data-name="Trazado 130216" d="M50,23.16l-2.54,8.41a65.18,65.18,0,0,1-16.2,27.12L26.94,63h0a4.78,4.78,0,0,1-1.05-.84c-2-2-2.35-5.31-4.87-7.12-2.15-1.57-6.74-2.7-9.43-3.25a7.208,7.208,0,0,1-.77-.12A41.18,41.18,0,0,1,50,23.16Z" fill="#ffe9d3"/>
        <path id="Trazado_130217" data-name="Trazado 130217" d="M51.77,52.29,50,71.14l-.22-.35c-1.32-2.2-1-4.74-2.47-6.73A10,10,0,0,0,40,60.53c-2.12,0-4.06,1.09-6,1.95-2.24,1-4.92,1.78-7,.55.38-22.11,10.54-39.83,23-39.87h0l1.8,20a50.51,50.51,0,0,1,0,9.12Z" fill="#fed2a8"/>
        <path id="Trazado_130218" data-name="Trazado 130218" d="M51.74,95.47a1.62,1.62,0,0,1,.11,2.1L50,100h0a50.75,50.75,0,0,1-7.232-.519,11.18,11.18,0,0,1,4.322-4A29.2,29.2,0,0,0,50,93.72l1.74,1.77Z" fill="#9182ca"/>
        <path id="Trazado_130219" data-name="Trazado 130219" d="M81.56,66.34l3.77,6c.77,1.24,1.58,2.64,1.28,4.06a3.91,3.91,0,0,1-3.13,2.75A11.58,11.58,0,0,1,79.1,79c-2.59-.5-18.1-5.28-10.89-8.74,2.6-1.25,5.58,1.07,8.12-.36,2.06-1.16,2.51-7.91,5.23-3.56Z" fill="#febc7c"/>
        <path id="Trazado_130220" data-name="Trazado 130220" d="M30.69,86.63v.13c-.23.25-.48.48-.73.71-1.86,1.73-3.14,4-5.15,5.57l-.11.08a50.24,50.24,0,0,1-10.06-7.81,41.14,41.14,0,0,1-4.38-10.38,9.61,9.61,0,0,1,2.6-1.69c2-.81,4.53-.57,5.79,1.13,1.14,1.54.93,3.75,2,5.33s3,2,4.77,2.29a31.729,31.729,0,0,1,3.9.5,4.32,4.32,0,0,1,1.39,4.14Z" fill="#ffe9d3"/>
        <g id="Grupo_61818" data-name="Grupo 61818">
          <path id="Trazado_130221" data-name="Trazado 130221" d="M78.62,91a49.81,49.81,0,0,1-24.55,8.84c-1.34.11-2.7.16-4.07.16h0V93.69a8.38,8.38,0,0,0,2.74-2.88,14.48,14.48,0,0,0,1.15-5A8.24,8.24,0,0,1,55.66,81c1.19-1.26,3.42-1.66,4.61-.4,1,1,.94,2.85,2,3.78s3,.46,4.57.27a8.94,8.94,0,0,1,7.41,2.77c.8.85,1.23,1.9,2.19,2.54a12.7,12.7,0,0,0,2.13,1Z" fill="#febc7c"/>
          <path id="Trazado_130222" data-name="Trazado 130222" d="M82.27,38.77A41.1,41.1,0,0,0,50,23.16v48a4.79,4.79,0,0,0,4.58,2.23c3-.56,4-4.57,2.93-7.42S54.23,60.86,53,58.11s-1.13-6.69,1.58-8c3.23-1.6,7.17,1.73,10.59.57,3.75-1.28,4.1-6.77,7.37-9,2.82-1.94,6.83-.78,9.92-2.27l.23-.11c-.13-.16-.25-.32-.37-.49Z" fill="#febc7c"/>
        </g>
      </g>
      <path id="Trazado_130223" data-name="Trazado 130223" d="M31.29,85.94a5.349,5.349,0,0,1-.44.62l-.19.2a40.165,40.165,0,0,1-1.36-4.27A3,3,0,0,1,31.56,84a2.37,2.37,0,0,1-.27,2Z" fill="#9182ca"/>
      <g id="Grupo_61820" data-name="Grupo 61820">
        <path id="Trazado_130224" data-name="Trazado 130224" d="M28,55.9l-.1.2-5.24-5.24A7.42,7.42,0,0,1,27.92,38.2,19.89,19.89,0,0,1,28,55.9Z" fill="#ff3ea8"/>
        <path id="Trazado_130225" data-name="Trazado 130225" d="M33.16,50.86,27.92,56.1V38.2a7.42,7.42,0,0,1,5.24,12.66Z" fill="#ff0074"/>
        <path id="Trazado_130226" data-name="Trazado 130226" d="M27.92,49.75a4.135,4.135,0,0,1,0-8.27l.18.29a7.23,7.23,0,0,1-.18,7.98Z" fill="#fff"/>
        <path id="Trazado_130227" data-name="Trazado 130227" d="M30.84,48.54a4.13,4.13,0,0,1-2.92,1.21V41.48a4.134,4.134,0,0,1,2.92,7.06Z" fill="#d1f6ff"/>
      </g>
      <path id="Trazado_130228" data-name="Trazado 130228" d="M77.74,74.31l-1.33-.5L77,72.35l1.33.5Zm-3-1.11-4-1.51.55-1.47,4,1.51ZM69.1,71.07l-4-1.51.54-1.46,4,1.51Zm-5.67-2.13-4-1.51L60,66l4,1.51Zm-5.67-2.13-4-1.51.55-1.46,4,1.51Zm-5.67-2.12-4-1.51.55-1.47,4,1.51Zm-5.67-2.13-4-1.51L43,59.58l4,1.51Zm-5.66-2.13-4-1.51.55-1.46,4,1.51ZM35.09,58.3l-4-1.51.55-1.46,4,1.51Z" fill="#12263f"/>
      <rect id="Rectángulo_7215" data-name="Rectángulo 7215" width="22.08" height="15.37" transform="translate(71.6 62.81)" fill="#f3f3f3"/>
      <path id="Trazado_130229" data-name="Trazado 130229" d="M70.25,61.62v1.45a2.5,2.5,0,0,0,5,0V61.62Z" fill="#b3204d"/>
      <path id="Trazado_130230" data-name="Trazado 130230" d="M75.21,61.62v1.45a2.5,2.5,0,0,0,5,0V61.62Z" fill="#ced6e0"/>
      <path id="Trazado_130231" data-name="Trazado 130231" d="M80.16,61.62v1.45a2.5,2.5,0,0,0,5,0V61.62Z" fill="#b3204d"/>
      <path id="Trazado_130232" data-name="Trazado 130232" d="M85.11,61.62v1.45a2.5,2.5,0,0,0,5,0V61.62Z" fill="#ced6e0"/>
      <path id="Trazado_130233" data-name="Trazado 130233" d="M90.07,61.62v1.45a2.5,2.5,0,0,0,5,0V61.62Z" fill="#b3204d"/>
      <path id="Trazado_130234" data-name="Trazado 130234" d="M75.21,61.62l1.85-3.5H73.4l-3.15,3.5Z" fill="#ef2a66"/>
      <path id="Trazado_130235" data-name="Trazado 130235" d="M80.16,61.62l.62-3.5H77.06l-1.85,3.5Z" fill="#e8eae9"/>
      <path id="Trazado_130236" data-name="Trazado 130236" d="M85.11,61.62l-.62-3.5H80.78l-.62,3.5Z" fill="#ef2a66"/>
      <path id="Trazado_130237" data-name="Trazado 130237" d="M90.07,61.62l-1.86-3.5H84.49l.62,3.5Z" fill="#e8eae9"/>
      <path id="Trazado_130238" data-name="Trazado 130238" d="M95.02,61.62l-3.15-3.5H88.21l1.86,3.5Z" fill="#ef2a66"/>
      <g id="Grupo_61821" data-name="Grupo 61821">
        <rect id="Rectángulo_7216" data-name="Rectángulo 7216" width="18.52" height="3.04" transform="translate(73.4 55.07)" fill="#415a6b"/>
        <rect id="Rectángulo_7217" data-name="Rectángulo 7217" width="7.43" height="9.96" transform="translate(73.66 68.23)" fill="#415a6b"/>
        <rect id="Rectángulo_7218" data-name="Rectángulo 7218" width="9.24" height="8.51" transform="translate(83.05 68.23)" fill="#415a6b"/>
      </g>
      <rect id="Rectángulo_7219" data-name="Rectángulo 7219" width="7.17" height="6.45" transform="translate(84.08 69.26)" fill="#8ad7f8"/>
      <g id="Grupo_61822" data-name="Grupo 61822">
        <path id="Trazado_130239" data-name="Trazado 130239" d="M88.31,70.7l-2.89,2.89a.33.33,0,0,1-.46-.46l2.89-2.89a.29.29,0,0,1,.46,0,.28.28,0,0,1,0,.46Z" fill="#55c0eb"/>
        <path id="Trazado_130240" data-name="Trazado 130240" d="M88.72,72.05l-2,2a.29.29,0,0,1-.46,0,.3.3,0,0,1,0-.47l2-2c.16-.15.36-.15.46,0a.29.29,0,0,1,0,.47Z" fill="#55c0eb"/>
      </g>
      <rect id="Rectángulo_7220" data-name="Rectángulo 7220" width="24.76" height="1.65" transform="translate(70.25 78.19)" fill="#ced6e0"/>
    </g>
  </g>
</svg>
