<svg xmlns="http://www.w3.org/2000/svg" width="500" height="500" viewBox="0 0 500 500">
  <g id="Grupo_124086" data-name="Grupo 124086" transform="translate(-204.574 -1084)">
    <g id="CF6_licencia" transform="translate(204.574 1084)">
      <rect id="Rectángulo_6741" data-name="Rectángulo 6741" width="500" height="500" fill="none"/>
      <g id="Grupo_60572" data-name="Grupo 60572">
        <path id="Trazado_125108" data-name="Trazado 125108" d="M179.82,257.56,46.09,334.68l90.63,52.33,133.74-77.12Z" fill="#b5abdb"/>
        <path id="Trazado_125109" data-name="Trazado 125109" d="M173.19,338.81c0,9.8,14.12,17.75,31.54,17.75s31.53-7.95,31.53-17.75-14.12-17.75-31.53-17.75S173.19,329,173.19,338.81Z" fill="#b5abdb"/>
        <path id="Trazado_125110" data-name="Trazado 125110" d="M262.49,406.35c0,9.8,14.12,17.75,31.54,17.75s31.54-8,31.54-17.75S311.45,388.6,294,388.6,262.49,396.54,262.49,406.35Z" fill="#b5abdb"/>
        <path id="Trazado_125111" data-name="Trazado 125111" d="M330.79,438.34c0,7.19,10.35,13,23.13,13s23.13-5.83,23.13-13-10.36-13-23.13-13S330.79,431.15,330.79,438.34Z" fill="#b5abdb"/>
        <path id="Trazado_125112" data-name="Trazado 125112" d="M210.66,414.88c0,7.18,10.36,13,23.13,13s23.13-5.83,23.13-13-10.36-13-23.13-13S210.66,407.69,210.66,414.88Z" fill="#b5abdb"/>
        <path id="Trazado_125113" data-name="Trazado 125113" d="M304.31,467.16c0,7.19,10.35,13,23.12,13s23.13-5.83,23.13-13-10.35-13-23.13-13S304.31,460,304.31,467.16Z" fill="#b5abdb"/>
        <path id="Trazado_125114" data-name="Trazado 125114" d="M315.54,352.63c0,7.19,10.35,13,23.12,13s23.13-5.82,23.13-13-10.35-13-23.13-13S315.54,345.44,315.54,352.63Z" fill="#173d7a"/>
        <path id="Trazado_125115" data-name="Trazado 125115" d="M409.18,404.92c0,7.18,10.36,13,23.13,13s23.13-5.83,23.13-13-10.36-13-23.13-13S409.18,397.73,409.18,404.92Z" fill="#b5abdb"/>
      </g>
      <g id="Grupo_60582" data-name="Grupo 60582">
        <g id="Grupo_60573" data-name="Grupo 60573">
          <path id="Trazado_125116" data-name="Trazado 125116" d="M172.08,15.45V265.88l80.3,46.36V61.81Z" fill="#8880a4"/>
          <path id="Trazado_125117" data-name="Trazado 125117" d="M254.97,60.37l-2.59,1.44V312.24l2.59-1.44Z" fill="#626877"/>
          <path id="Trazado_125118" data-name="Trazado 125118" d="M174.67,14.01l-2.59,1.44,80.3,46.36,2.59-1.44Z" fill="#f24a63"/>
        </g>
        <path id="Trazado_125119" data-name="Trazado 125119" d="M196.53,100.23v61.11L252.38,91.5Z" fill="#5b566e"/>
        <path id="Trazado_125120" data-name="Trazado 125120" d="M227.41,297.93l-98.3,56.75v-92.4l98.3-56.75Z" fill="#bdbdbd"/>
        <path id="Trazado_125121" data-name="Trazado 125121" d="M227.41,208.72l-98.3,56.75v-3.19l98.3-56.75Z" fill="#e8e8e8"/>
        <path id="Trazado_125122" data-name="Trazado 125122" d="M91.71,230.6l46.66,26.66,89.04-51.72-46.16-26.11Z" fill="#fff"/>
        <g id="Grupo_60574" data-name="Grupo 60574">
          <path id="Trazado_125123" data-name="Trazado 125123" d="M179.4,141.81l25.33,13.04v-3.5l-22.12-11.4Z" fill="#62c2ec"/>
          <path id="Trazado_125124" data-name="Trazado 125124" d="M185.14,138.49l19.59,10.08v-6.93l-13.23-6.82Z" fill="#62c2ec"/>
          <path id="Trazado_125125" data-name="Trazado 125125" d="M106.43,183.93v54.49l98.3-56.75V161.46l-31.38-16.17Z" fill="#62c2ec"/>
          <path id="Trazado_125126" data-name="Trazado 125126" d="M196.12,132.15l-2.09,1.21,10.7,5.51v-2.29Z" fill="#62c2ec"/>
          <path id="Trazado_125127" data-name="Trazado 125127" d="M204.73,113.2V89.27l-21.9,12.65Z" fill="#2eabe3"/>
          <path id="Trazado_125128" data-name="Trazado 125128" d="M159.33,115.48l34.7,17.88,2.09-1.21-34.7-17.87Z" fill="#2eabe3"/>
          <path id="Trazado_125129" data-name="Trazado 125129" d="M144.69,123.93l34.71,17.88,3.21-1.86-34.7-17.87Z" fill="#2eabe3"/>
          <path id="Trazado_125130" data-name="Trazado 125130" d="M138.65,127.42l-32.22,18.6v37.91l66.92-38.64Z" fill="#2eabe3"/>
          <path id="Trazado_125131" data-name="Trazado 125131" d="M150.44,120.61l34.7,17.88,6.36-3.67-34.71-17.87Z" fill="#2eabe3"/>
          <path id="Trazado_125132" data-name="Trazado 125132" d="M173.35,145.29l31.38,16.17v-6.61L179.4,141.81Z" fill="#6dd6fc"/>
          <path id="Trazado_125133" data-name="Trazado 125133" d="M138.65,127.42l34.7,17.87,6.05-3.48-34.71-17.88Z" fill="#62c2ec"/>
          <path id="Trazado_125134" data-name="Trazado 125134" d="M196.12,132.15l8.61,4.43v-9.4Z" fill="#6dd6fc"/>
          <path id="Trazado_125135" data-name="Trazado 125135" d="M161.42,114.28l34.7,17.87,8.61-4.97V113.2l-21.9-11.28Z" fill="#62c2ec"/>
          <path id="Trazado_125136" data-name="Trazado 125136" d="M182.61,139.95l22.12,11.4v-2.78l-19.59-10.08Z" fill="#6dd6fc"/>
          <path id="Trazado_125137" data-name="Trazado 125137" d="M147.91,122.08l34.7,17.87,2.53-1.46-34.7-17.88Z" fill="#62c2ec"/>
          <path id="Trazado_125138" data-name="Trazado 125138" d="M191.5,134.82l13.23,6.82v-2.77l-10.7-5.51Z" fill="#6dd6fc"/>
          <path id="Trazado_125139" data-name="Trazado 125139" d="M156.79,116.95l34.71,17.87,2.53-1.46-34.7-17.88Z" fill="#62c2ec"/>
        </g>
        <path id="Trazado_125140" data-name="Trazado 125140" d="M252.38,91.5l-113.3,65.41V127.22l113.3-65.41Z" fill="#fff"/>
        <path id="Trazado_125141" data-name="Trazado 125141" d="M252.38,65.27l-113.3,65.41-2.6-1.98,115.9-66.89Z" fill="#626877"/>
        <path id="Trazado_125142" data-name="Trazado 125142" d="M172.9,234.15l15.75-9.09L164.14,210.9l-15.74,9.09Z" fill="#e8e8e8"/>
        <g id="Grupo_60575" data-name="Grupo 60575">
          <path id="Trazado_125143" data-name="Trazado 125143" d="M155.37,230.89l9.31-5.37-14.48-8.37-9.3,5.37Z" fill="#ff4a39"/>
          <path id="Trazado_125144" data-name="Trazado 125144" d="M143.74,223.3l7.51-4.32-1.05-.71-7.51,4.32Z" fill="#fff"/>
          <path id="Trazado_125145" data-name="Trazado 125145" d="M155.04,229.67l7.52-4.32-1.06-.71-7.51,4.32Z" fill="#fff"/>
          <path id="Trazado_125146" data-name="Trazado 125146" d="M149.44,225.8a8,8,0,0,0,7.21.3c1.85-1.07,1.62-2.94-.52-4.17a8,8,0,0,0-7.21-.3C147.07,222.7,147.3,224.56,149.44,225.8Z" fill="#fff"/>
          <path id="Trazado_125147" data-name="Trazado 125147" d="M140.9,222.52v.81l14.47,8.37v-.81Z" fill="#f2352c"/>
          <path id="Trazado_125148" data-name="Trazado 125148" d="M164.68,225.52v.81l-9.31,5.37v-.81Z" fill="#e02020"/>
        </g>
        <g id="Grupo_60576" data-name="Grupo 60576">
          <path id="Trazado_125149" data-name="Trazado 125149" d="M194.07,340.33s-8.95-4-13.37-4.18-4.86,5,0,9,8.57,4.57,12.54,6.2c3.58,1.47,4.87,1.59,7.73-.27,3.81-2.47.75-9,.75-9Z" fill="#383c48"/>
          <path id="Trazado_125150" data-name="Trazado 125150" d="M221.4,325.17s-7.11-3-11.54-3.16-6,3.63-1.16,7.66,7.9,4.92,11.87,6.56c3.58,1.47,4.85,1.56,7.72-.27,3.92-2.48.86-9,.76-9Z" fill="#383c48"/>
          <path id="Trazado_125151" data-name="Trazado 125151" d="M200.1,192.91s8.14-8.72,17-1.69c8.11,6.46,15.92,18.51,13.84,24.59s-8.9,9.82-8.9,9.82Z" fill="#136fba"/>
          <path id="Trazado_125152" data-name="Trazado 125152" d="M193.61,247.31S185,287,183.13,297s3.61,46,3.61,46,3.88,4.07,7.64,4.08c8.49,0,9.34-4.25,9.34-4.25L200.1,302s10.74-29.32,11.6-30.9c-1.31,8.48-.56,19.15-.12,24.76.65,8.43,4.35,31.68,4.54,33.15,2.69,3.25,12.16,5.28,15.12,1.07-.33-3.72,0-30.66-3.8-43.68,4-11.79,4.63-40.79-2.5-46.54C218.78,234.87,193.61,247.31,193.61,247.31Z" fill="#12263f"/>
          <path id="Trazado_125153" data-name="Trazado 125153" d="M186.06,214.38c-.51-7-1-11.48,3.61-15.33.54-.45,12.57-9.84,16.43-9,5.9,1.23,14.09,7.66,16,17.24,2.21,11.05,7.55,33.17,8.18,39.72-.7,2.17-10.85,9.77-17.56,12.56-12.52,5.22-21.79-4.4-21.79-4.4A181.679,181.679,0,0,0,189.61,236C188.55,227.13,186.21,216.34,186.06,214.38Z" fill="#173d7a"/>
          <path id="Trazado_125154" data-name="Trazado 125154" d="M187.14,168.11c-1,1-5.82.24-5.29,10.06.36,6.6,2.26,11.41,4.41,12.75.89.55,5.36.38,5.36.38l1.21,7.21a12.43,12.43,0,0,0,8.25-1.55l3.72-2.42a14.48,14.48,0,0,1-2.7-7.18c-.77-5.9-.26-14.6-2.3-17.41C196.11,164.86,189.89,165.32,187.14,168.11Z" fill="#ffc3b1"/>
          <path id="Trazado_125155" data-name="Trazado 125155" d="M207.08,192.41a13.07,13.07,0,0,1-5.39,5.35,15.16,15.16,0,0,1-12,1.29c-.52-2.65,2.51-4.45,2.51-4.45s6.2.63,9.16-2.73C205.54,187.12,207.08,192.41,207.08,192.41Z" fill="#fff"/>
          <path id="Trazado_125156" data-name="Trazado 125156" d="M185.34,180.14c-.78-1.52-2.58-5-3.14-6.5a7.44,7.44,0,0,1,.7-7.2c1.92-2.93,10-5.28,13.37-4.11s10.28,3.14,10,13.89c-.23,8.68-1.8,9.94-3.95,12.38-1.89,2.12-5.69,3.28-5.69,3.28a7.3,7.3,0,0,1-3.43-4.25c-.31-1-.76-4-.76-4s1.39-4.78-.61-6-3.5,1.67-3.72,2.81c-.8,4,1.25,10.91,1.25,10.91a6.46,6.46,0,0,1-4.24,1.7c-1.27-.07-1.08-5-1.08-5S186.15,186.45,185.34,180.14Z" fill="#292b37"/>
          <path id="Trazado_125157" data-name="Trazado 125157" d="M167.22,222.86s-6.11-5.26-11.54-4.75-5.44,4.07-3.06,6.62,12,5.94,12,5.94Z" fill="#ffc3b1"/>
          <path id="Trazado_125158" data-name="Trazado 125158" d="M189,200.44c3.31,2.39,4.33,9.39,4.32,19.06,0,10.54-5.72,19.17-10.38,20.36-5.23,1.34-17.07-6.16-21.65-9.05-.94-5.4,2.61-8.73,5.18-8.88,3.28-.19,11.58,3.6,11.58,3.6s3.27-17,5.82-20.85S187.64,199.47,189,200.44Z" fill="#136fba"/>
        </g>
        <g id="Grupo_60577" data-name="Grupo 60577">
          <path id="Trazado_125159" data-name="Trazado 125159" d="M56.18,82.33V332.77l80.3,46.36V128.7Z" fill="#5b566e"/>
          <path id="Trazado_125160" data-name="Trazado 125160" d="M139.08,127.22l-2.6,1.48V379.13l2.6-1.44Z" fill="#626877"/>
          <path id="Trazado_125161" data-name="Trazado 125161" d="M174.67,14.01,56.18,82.33l80.3,46.37L254.97,60.37Z" fill="#b5abdb"/>
          <path id="Trazado_125162" data-name="Trazado 125162" d="M136.04,128.7,56.18,228.56V82.33Z" fill="#2d2b37"/>
        </g>
        <g id="Grupo_60579" data-name="Grupo 60579">
          <path id="Trazado_125163" data-name="Trazado 125163" d="M159.56,121.53l-15.47,8.94V149.9l15.47-8.93Z" fill="#292b37"/>
          <path id="Trazado_125164" data-name="Trazado 125164" d="M149.34,140.82l2.15-1.23V132l-1.85,1.07v-1.89a13.2,13.2,0,0,0,2.45-2.61l1.68-1v10.67l1.85-1.07v2.46l-6.28,3.62Z" fill="#fd8f25"/>
          <g id="Grupo_60578" data-name="Grupo 60578">
            <path id="Trazado_125165" data-name="Trazado 125165" d="M181.37,119.93l-4.12,2.38-.93,4-1.34.77,3.76-15.3,1.14-.66,3.77,11-1.34.77Zm-3.73.74,3.35-1.94-1.68-5.17Z" fill="#12263f"/>
            <path id="Trazado_125166" data-name="Trazado 125166" d="M184.47,116.61a10.09,10.09,0,0,1,.8-4.07,5.28,5.28,0,0,1,2.09-2.58q1.29-.73,2,0v-5.09l1.25-.72V118l-1.15.66-.06-1a5.1,5.1,0,0,1-2.09,2.43,1.49,1.49,0,0,1-2.08-.19,4.88,4.88,0,0,1-.8-3.16Zm1.25-.53a3.74,3.74,0,0,0,.52,2.3c.34.43.81.47,1.42.12a4.09,4.09,0,0,0,1.74-2.43v-4.48a1.093,1.093,0,0,0-1.73-.39,3.52,3.52,0,0,0-1.43,1.78A8,8,0,0,0,185.72,116.08Z" fill="#12263f"/>
            <path id="Trazado_125167" data-name="Trazado 125167" d="M197.11,113.31A5.22,5.22,0,0,1,195,115.7c-.78.45-1.37.49-1.78.12a3.23,3.23,0,0,1-.62-2.33v-6.35l1.25-.72v6.3c0,1.48.46,2,1.36,1.44a4.06,4.06,0,0,0,1.91-2.53v-7.09l1.25-.73v9.76l-1.19.69Z" fill="#12263f"/>
            <path id="Trazado_125168" data-name="Trazado 125168" d="M204.75,109.87a3.51,3.51,0,0,1-.18-.93,5.54,5.54,0,0,1-2.08,2.41,1.71,1.71,0,0,1-1.78.21,1.79,1.79,0,0,1-.69-1.67,5.19,5.19,0,0,1,.87-2.87,6.9,6.9,0,0,1,2.44-2.25l1.22-.71v-.76a1.39,1.39,0,0,0-.39-1.17c-.26-.2-.65-.15-1.16.15a3.18,3.18,0,0,0-1.12,1.1,2.52,2.52,0,0,0-.45,1.35l-1.26.73a4.18,4.18,0,0,1,.39-1.64,6.8,6.8,0,0,1,1.05-1.69,5.68,5.68,0,0,1,1.47-1.24,2,2,0,0,1,2-.3,2.08,2.08,0,0,1,.74,1.89V107a5.74,5.74,0,0,0,.26,2v.15Zm-2.08-.08a3.64,3.64,0,0,0,1.12-1.05,4.89,4.89,0,0,0,.76-1.49v-2l-1,.57c-1.53.89-2.3,1.93-2.3,3.12,0,.53.13.86.39,1A1,1,0,0,0,202.67,109.79Z" fill="#12263f"/>
            <path id="Trazado_125169" data-name="Trazado 125169" d="M209,97.68v1.2a5.54,5.54,0,0,1,2.19-2.67q2.32-1.33,2.34,2.14v6.45l-1.25.72V99.06a1.79,1.79,0,0,0-.36-1.35c-.24-.2-.61-.15-1.11.14a3.23,3.23,0,0,0-1.07,1.05,5.94,5.94,0,0,0-.71,1.55v7l-1.25.72V98.36Z" fill="#12263f"/>
            <path id="Trazado_125170" data-name="Trazado 125170" d="M219.93,101.1a3.51,3.51,0,0,1-.18-.93,5.57,5.57,0,0,1-2.08,2.42,1.72,1.72,0,0,1-1.78.2,1.78,1.78,0,0,1-.69-1.67,5.22,5.22,0,0,1,.87-2.87A7.13,7.13,0,0,1,218.52,96l1.21-.7v-.77a1.42,1.42,0,0,0-.39-1.17c-.26-.19-.65-.14-1.15.15a3.3,3.3,0,0,0-1.13,1.1,2.58,2.58,0,0,0-.45,1.35l-1.26.73a4.22,4.22,0,0,1,.39-1.64,6.741,6.741,0,0,1,1-1.68,5.89,5.89,0,0,1,1.47-1.25,2.03,2.03,0,0,1,2-.3c.48.29.73.92.75,1.9v4.49a5.78,5.78,0,0,0,.25,2v.14Zm-2.08-.07a3.78,3.78,0,0,0,1.12-1,4.829,4.829,0,0,0,.76-1.5v-2l-1,.56c-1.53.89-2.3,1.93-2.3,3.13,0,.52.13.85.4,1a1,1,0,0,0,1.02-.22Z" fill="#12263f"/>
          </g>
        </g>
        <g id="Grupo_60580" data-name="Grupo 60580">
          <path id="Trazado_125171" data-name="Trazado 125171" d="M167,193.3c0,.58.36.85.79.6a1.9,1.9,0,0,0,.78-1.5c0-.58-.35-.85-.78-.6a1.91,1.91,0,0,0-.79,1.5Z" fill="#2eabe3"/>
          <path id="Trazado_125172" data-name="Trazado 125172" d="M162.89,195.58c0,.58.35.85.78.6a1.88,1.88,0,0,0,.79-1.5c0-.58-.35-.85-.79-.6a1.9,1.9,0,0,0-.78,1.5Z" fill="#2eabe3"/>
          <path id="Trazado_125173" data-name="Trazado 125173" d="M160.66,192.89c0,.58.35.85.78.6a1.89,1.89,0,0,0,.79-1.5c0-.58-.36-.84-.79-.59a1.88,1.88,0,0,0-.78,1.49Z" fill="#2eabe3"/>
          <path id="Trazado_125174" data-name="Trazado 125174" d="M165.14,190.32c0,.58.35.85.79.6a1.88,1.88,0,0,0,.78-1.5c0-.58-.35-.84-.78-.59a1.86,1.86,0,0,0-.79,1.49Z" fill="#2eabe3"/>
          <path id="Trazado_125175" data-name="Trazado 125175" d="M169.43,187.82c0,.57.35.84.78.59a1.86,1.86,0,0,0,.79-1.5c0-.58-.35-.84-.79-.59A1.88,1.88,0,0,0,169.43,187.82Z" fill="#2eabe3"/>
          <path id="Trazado_125176" data-name="Trazado 125176" d="M167,185.54c0,.57.36.84.79.59a1.88,1.88,0,0,0,.78-1.5c0-.58-.35-.84-.78-.59A1.89,1.89,0,0,0,167,185.54Z" fill="#2eabe3"/>
          <path id="Trazado_125177" data-name="Trazado 125177" d="M162.89,187.82c0,.57.35.84.78.59a1.86,1.86,0,0,0,.79-1.5c0-.58-.35-.84-.79-.59a1.88,1.88,0,0,0-.78,1.5Z" fill="#2eabe3"/>
        </g>
        <g id="Grupo_60581" data-name="Grupo 60581">
          <path id="Trazado_125178" data-name="Trazado 125178" d="M246.4,175.28l-16.12-9.31V138.54l16.12,9.3Z" fill="#e8e8e8"/>
          <path id="Trazado_125179" data-name="Trazado 125179" d="M214.1,150.08v18.37l11.96,6.9V156.98Z" fill="#e8e8e8"/>
          <path id="Trazado_125180" data-name="Trazado 125180" d="M245.28,148.66l-14-8.09v1.5l14,8.09Z" fill="#a8a8a8"/>
          <path id="Trazado_125181" data-name="Trazado 125181" d="M245.28,151.81l-14-8.08v1.5l14,8.09Z" fill="#a8a8a8"/>
          <path id="Trazado_125182" data-name="Trazado 125182" d="M245.28,154.99l-14-8.08v18.06l14,8.08Z" fill="#a8a8a8"/>
        </g>
      </g>
      <g id="Grupo_60593" data-name="Grupo 60593">
        <g id="Grupo_60587" data-name="Grupo 60587">
          <g id="Grupo_60583" data-name="Grupo 60583">
            <path id="Trazado_125183" data-name="Trazado 125183" d="M357.13,350.42c0,5.86-8.42,10.6-18.82,10.6s-18.82-4.74-18.82-10.6,8.43-10.59,18.82-10.59S357.13,344.57,357.13,350.42Z" fill="#ea9611"/>
            <rect id="Rectángulo_6742" data-name="Rectángulo 6742" width="37.65" height="3.19" transform="translate(319.49 347.24)" fill="#ea9611"/>
            <ellipse id="Elipse_4102" data-name="Elipse 4102" cx="18.82" cy="10.59" rx="18.82" ry="10.59" transform="translate(319.49 336.65)" fill="#febc7c"/>
          </g>
          <g id="Grupo_60584" data-name="Grupo 60584">
            <path id="Trazado_125184" data-name="Trazado 125184" d="M342.05,345.93c0,1.16-1.67,2.1-3.74,2.1s-3.74-.94-3.74-2.1,1.68-2.11,3.74-2.11S342.05,344.76,342.05,345.93Z" fill="#ea9611"/>
            <rect id="Rectángulo_6743" data-name="Rectángulo 6743" width="7.47" height="5.88" transform="translate(334.57 340.05)" fill="#ea9611"/>
            <path id="Trazado_125185" data-name="Trazado 125185" d="M342.05,340.05c0,1.16-1.67,2.1-3.74,2.1s-3.74-.94-3.74-2.1,1.68-2.1,3.74-2.1S342.05,338.89,342.05,340.05Z" fill="#ffdc81"/>
          </g>
          <g id="Grupo_60585" data-name="Grupo 60585">
            <rect id="Rectángulo_6744" data-name="Rectángulo 6744" width="3.95" height="83.48" transform="translate(336.33 256.44)" fill="#626a77"/>
            <ellipse id="Elipse_4103" data-name="Elipse 4103" cx="1.98" cy="1.11" rx="1.98" ry="1.11" transform="translate(336.33 338.81)" fill="#626a77"/>
          </g>
          <g id="Grupo_60586" data-name="Grupo 60586">
            <ellipse id="Elipse_4104" data-name="Elipse 4104" cx="5.29" cy="2.98" rx="5.29" ry="2.98" transform="translate(333.02 255.23)" fill="#ea9611"/>
            <rect id="Rectángulo_6745" data-name="Rectángulo 6745" width="10.59" height="9.54" transform="translate(343.6 258.22) rotate(180)" fill="#ea9611"/>
            <path id="Trazado_125186" data-name="Trazado 125186" d="M333,248.67c0,1.65,2.37,3,5.29,3s5.3-1.33,5.3-3-2.37-3-5.3-3S333,247,333,248.67Z" fill="#febc7c"/>
          </g>
        </g>
        <path id="Trazado_125187" data-name="Trazado 125187" d="M342.05,253v6.9s9.84,26,40.36,43.24c27.69,15.64,50.29,5.49,50.29,5.49l-1.76-3s-26.48,5.61-43.57-4.23C353.34,281.79,342.05,253,342.05,253Z" fill="#ef2a66"/>
        <g id="Grupo_60592" data-name="Grupo 60592">
          <g id="Grupo_60588" data-name="Grupo 60588">
            <path id="Trazado_125188" data-name="Trazado 125188" d="M450.85,403c0,5.86-8.43,10.6-18.83,10.6S413.2,408.9,413.2,403s8.43-10.59,18.82-10.59S450.85,397.19,450.85,403Z" fill="#ea9611"/>
            <rect id="Rectángulo_6746" data-name="Rectángulo 6746" width="37.65" height="3.19" transform="translate(413.2 399.86)" fill="#ea9611"/>
            <ellipse id="Elipse_4105" data-name="Elipse 4105" cx="18.82" cy="10.59" rx="18.82" ry="10.59" transform="translate(413.2 389.27)" fill="#febc7c"/>
          </g>
          <g id="Grupo_60589" data-name="Grupo 60589">
            <path id="Trazado_125189" data-name="Trazado 125189" d="M435.76,398.55c0,1.16-1.67,2.1-3.74,2.1s-3.73-.94-3.73-2.1,1.67-2.11,3.73-2.11S435.76,397.38,435.76,398.55Z" fill="#ea9611"/>
            <rect id="Rectángulo_6747" data-name="Rectángulo 6747" width="7.47" height="5.88" transform="translate(428.29 392.67)" fill="#ea9611"/>
            <path id="Trazado_125190" data-name="Trazado 125190" d="M435.76,392.67c0,1.16-1.67,2.1-3.74,2.1s-3.73-.94-3.73-2.1,1.67-2.1,3.73-2.1S435.76,391.51,435.76,392.67Z" fill="#ffdc81"/>
          </g>
          <g id="Grupo_60590" data-name="Grupo 60590">
            <rect id="Rectángulo_6748" data-name="Rectángulo 6748" width="3.95" height="83.48" transform="translate(430.05 309.06)" fill="#626a77"/>
            <path id="Trazado_125191" data-name="Trazado 125191" d="M434,392.54c0,.62-.88,1.12-2,1.12s-2-.5-2-1.12.88-1.11,2-1.11S434,391.93,434,392.54Z" fill="#626a77"/>
          </g>
          <g id="Grupo_60591" data-name="Grupo 60591">
            <ellipse id="Elipse_4106" data-name="Elipse 4106" cx="5.29" cy="2.98" rx="5.29" ry="2.98" transform="translate(426.73 307.85)" fill="#ea9611"/>
            <rect id="Rectángulo_6749" data-name="Rectángulo 6749" width="10.59" height="9.54" transform="translate(437.32 310.84) rotate(180)" fill="#ea9611"/>
            <path id="Trazado_125192" data-name="Trazado 125192" d="M426.73,301.29c0,1.65,2.37,3,5.29,3s5.3-1.33,5.3-3-2.37-3-5.3-3S426.73,299.65,426.73,301.29Z" fill="#febc7c"/>
          </g>
        </g>
      </g>
      <g id="Grupo_60610" data-name="Grupo 60610">
        <g id="Grupo_60596" data-name="Grupo 60596">
          <g id="Grupo_60595" data-name="Grupo 60595">
            <path id="Trazado_125193" data-name="Trazado 125193" d="M341.26,320.68l3.36.35.71-2.23-3.02-1.64Z" fill="#ffc3b1"/>
            <path id="Trazado_125194" data-name="Trazado 125194" d="M327.93,335.84l16.28-9.4-.04-31.93-16.28,9.41Z" fill="#fed2a8"/>
            <g id="Grupo_60594" data-name="Grupo 60594">
              <path id="Trazado_125195" data-name="Trazado 125195" d="M340.53,307.24c0-.52-.32-.76-.71-.54l-7.54,4.3v16.43l7.54-4.33a1.69,1.69,0,0,0,.71-1.35Z" fill="#368dca"/>
              <path id="Trazado_125196" data-name="Trazado 125196" d="M340.28,306.66l.52.31-.29.15-.37-.22Z" fill="#368dca"/>
              <path id="Trazado_125197" data-name="Trazado 125197" d="M341.09,307.56c0-.52-.32-.76-.71-.53l-7.53,4.33v16.43l7.53-4.33a1.68,1.68,0,0,0,.71-1.35Z" fill="#2eabe3"/>
              <path id="Trazado_125198" data-name="Trazado 125198" d="M337,313.78a6,6,0,0,0-2.53,4.84c0,1.87,1.13,2.73,2.53,1.92a6.09,6.09,0,0,0,2.53-4.84C339.51,313.84,338.37,313,337,313.78Zm1.33,2.45a4.208,4.208,0,0,0-.22-1.34,5.248,5.248,0,0,0,.47-.72,2,2,0,0,1,.63,1.54Zm-2.2,3a3.379,3.379,0,0,1,.87-.75,1.731,1.731,0,0,1,.93-.26A5.06,5.06,0,0,1,337,320a1.15,1.15,0,0,1-.89-.8Zm.87-.93a3.759,3.759,0,0,0-.93.79,3.76,3.76,0,0,1-.19-1.24l2.31-1.33A6.389,6.389,0,0,1,338,318a1.76,1.76,0,0,0-1,.27Zm-1.12-.63a6,6,0,0,1,.19-1.45,1.82,1.82,0,0,0,.93-.28,3.921,3.921,0,0,0,1-.86,4.11,4.11,0,0,1,.2,1.26Zm1.12-3.45.11-.06a1.15,1.15,0,0,1,.82.78,3.539,3.539,0,0,1-.93.82,1.69,1.69,0,0,1-.88.26,5.2,5.2,0,0,1,.84-1.77Zm1.06.56a1.43,1.43,0,0,0-.64-.75,1.27,1.27,0,0,1,1.07.1,6.1,6.1,0,0,1-.49.62ZM336,316a1.1,1.1,0,0,1-.48-.17,4.72,4.72,0,0,1,1.15-1.4A6,6,0,0,0,336,316Zm-.05.2a6.631,6.631,0,0,0-.21,1.53l-.95.56a5.53,5.53,0,0,1,.63-2.28,1.09,1.09,0,0,0,.5.18Zm-.21,1.72a4.361,4.361,0,0,0,.21,1.3,6.294,6.294,0,0,0-.58.9,2.16,2.16,0,0,1-.59-1.65Zm.27,1.44a1.3,1.3,0,0,0,.85.86,1.34,1.34,0,0,1-1.4,0,5.082,5.082,0,0,1,.54-.87Zm1.23.63a5.74,5.74,0,0,0,.82-1.78,1.18,1.18,0,0,1,.49.2,4.72,4.72,0,0,1-1.34,1.59Zm.88-2a7.17,7.17,0,0,0,.22-1.59l.89-.52a5.38,5.38,0,0,1-.58,2.32,1.281,1.281,0,0,0-.56-.2Z" fill="#fff"/>
              <path id="Trazado_125199" data-name="Trazado 125199" d="M339.75,321.94l-5.54,3.2v-.55l5.54-3.2Z" fill="#fff"/>
              <path id="Trazado_125200" data-name="Trazado 125200" d="M340.28,320.48l-6.6,3.81v-.57l6.6-3.81Z" fill="#fff"/>
              <path id="Trazado_125201" data-name="Trazado 125201" d="M340.28,309.12l-6.6,3.81v-.57l6.6-3.81Z" fill="#fff"/>
              <path id="Trazado_125202" data-name="Trazado 125202" d="M340.28,310.38l-6.6,3.81v-.57l6.6-3.81Z" fill="#fff"/>
              <path id="Trazado_125203" data-name="Trazado 125203" d="M332.28,327.46l.57.33V311.36l-.57-.33Z" fill="#275fad"/>
            </g>
            <path id="Trazado_125204" data-name="Trazado 125204" d="M345.33,315.93s-4.78-2.77-5.38-2.94-1.78,0-.6,1.37,1.17,1.36,2.33,2.85a12.15,12.15,0,0,0,2.39,2.07Z" fill="#ffc3b1"/>
          </g>
          <path id="Trazado_125205" data-name="Trazado 125205" d="M375.68,306.62s3.66,17.29-5.57,21.77c-5.05,2.45-4.37,11.33-4.37.64A136.811,136.811,0,0,1,368,306.62Z" fill="#ffc3b1"/>
          <path id="Trazado_125206" data-name="Trazado 125206" d="M370.39,436.82c-1,2.48-3.44,2.25-8.3.5a41.552,41.552,0,0,1-10.92-5.57c-3.07-2.26-3.1-2.56-3.5-4.1-.57-2.14,2.56-3.35,7.77-1.73l1.43.46a3.15,3.15,0,0,0-2.37,1.32c-.95,1.78,2,3.68,5.13,5.24s5.66,1.56,7.22.85c1.14-.52,2.67-1.18,3.41-1.51C370.58,434.37,371,435.33,370.39,436.82Z" fill="#292b37"/>
          <path id="Trazado_125207" data-name="Trazado 125207" d="M342.55,436.88a3.13,3.13,0,0,1,2.37-1.32c2.88.95,4.31,1.59,4.31,1.59s-.76-13.41-1.65-23.74c-1.4-9.07-2.88-20.07-2.77-25.8,0-.58-.08-5.8-.09-6.64,1.43.7,10.66,1.94,13.77,1.74-.05.47-.58,5.15-.62,10.78-.05,8.73.4,19.53.34,18.86h0a228.239,228.239,0,0,1,0,23,25.239,25.239,0,0,0,.12,6.11c-.74.33-2.27,1-3.41,1.51-1.56.71-4.11.71-7.23-.85S341.6,438.66,342.55,436.88Z" fill="#ffc3b1"/>
          <path id="Trazado_125208" data-name="Trazado 125208" d="M354.5,427.7a3.15,3.15,0,0,1,2.37-1.32c2.88.95,4.31,1.59,4.31,1.59s-.33-10-.83-17.73c-.42-6.43-1.3-24.73-1.43-29,4.46-.65,9.39.43,12.76-2.5,0,1,0,5.41.06,6.44.46,5.23-.62,12.45-1,17.69-.35,4.42-.17,18.66-.57,23.27a25.24,25.24,0,0,0,.12,6.11c-.74.33-2.27,1-3.41,1.51-1.56.71-4.11.71-7.22-.85S353.55,429.48,354.5,427.7Z" fill="#ffc3b1"/>
          <path id="Trazado_125209" data-name="Trazado 125209" d="M358.44,446c-1,2.48-3.44,2.25-8.3.51a42.159,42.159,0,0,1-10.92-5.57c-3.07-2.27-3.1-2.57-3.5-4.11-.57-2.14,2.56-3.34,7.77-1.73l1.43.46a3.13,3.13,0,0,0-2.37,1.32c-.95,1.78,2,3.68,5.12,5.24s5.67,1.56,7.23.85c1.14-.52,2.67-1.18,3.41-1.51C358.63,443.55,359.07,444.51,358.44,446Z" fill="#292b37"/>
          <path id="Trazado_125210" data-name="Trazado 125210" d="M372.42,380.47a28.06,28.06,0,0,1-28.88,1.79c-.1-7.79-.33-26.64,1.48-35.28,1-4.67,3.18-11.29,3.18-11.29l21.52-1.34a31.45,31.45,0,0,1,5.64,14.55c.81,7.39-.11,11.37-.65,15.84C374.28,368.27,372.54,377.5,372.42,380.47Z" fill="#292b37"/>
          <path id="Trazado_125211" data-name="Trazado 125211" d="M356.9,266.35c-1.2.84-5.7,1.87-6.95,11.78-1.12,8.77.82,11.05,2.6,11.8a20.542,20.542,0,0,0,4.49.4l-.14,7.41a12.66,12.66,0,0,0,8.52,0l4.16-1.72a14.63,14.63,0,0,1-1.35-7.67c.33-6,2.47-14.6,1-17.79C366.46,264.79,360.17,264.08,356.9,266.35Z" fill="#ffc3b1"/>
          <path id="Trazado_125212" data-name="Trazado 125212" d="M372.42,337.8c-2,2.35-9.73,4.36-12.84,4.73-4.68.56-9.78-1.54-12-5a34.18,34.18,0,0,0,.39-17.69s-2.81-10.67.18-16.67,5.88-6.39,8.74-7.36c3-1,13.75-.76,13.75-.76s6.34,6.81,4.3,15.8C371.93,324.19,371.52,329.79,372.42,337.8Z" fill="#febc7c"/>
          <path id="Trazado_125213" data-name="Trazado 125213" d="M368,296.66s-3.23,4-7.48,2.85a25.639,25.639,0,0,1-6.62-2.63s.71-1.57,3.42-1.85a72.544,72.544,0,0,0,9.86-2Z" fill="#ea9611"/>
          <path id="Trazado_125214" data-name="Trazado 125214" d="M369.72,295c.11-.93,2-.82,4.94,2.14s2.83,8.81,1.72,12.11c-.68,2-5.63,5.51-5.63,5.51S369.42,297.73,369.72,295Z" fill="#ea9611"/>
          <path id="Trazado_125215" data-name="Trazado 125215" d="M349.63,274.73c.32,3.4,3.11,4.41,5.59,7s3.82,5.08,9.24,8.94c2,1.42,1.48,12.39,5.26,20.18,4,8.3,1.69,9.82,1.69,9.82s11.49-3.71,6.8-16.54c-1.71-4.69-8.27-8.51-8.49-13.46-.1-2.27,2.94-4.55,3.91-8.85,3.07-13.53-3.21-17.38-9.14-18.63C353.88,261,349,267.75,349.63,274.73Z" fill="#292b37"/>
          <path id="Trazado_125216" data-name="Trazado 125216" d="M352.55,279.59s2.6-4.46,3.72,0a4.54,4.54,0,0,1-2.57,5.54Z" fill="#ffc3b1"/>
          <path id="Trazado_125217" data-name="Trazado 125217" d="M356.46,316.17s-3.92,12.87-6.23,20.24c-1.67,5.36-5.79,13.11-5.12,19.59.64,6.13.45,9.75,0,11.61-1.63,6.79-5.43,1.32-6.11-3.44s1-18.4,1.7-25c1.1-10.61,4.41-26.53,4.41-26.53Z" fill="#ffc3b1"/>
          <path id="Trazado_125218" data-name="Trazado 125218" d="M370.74,288.07s.15,2.83-.44,3.47c-.8.85-3.8,1.82-4.89,1.4a5.61,5.61,0,0,1-2.44-3.22,36.76,36.76,0,0,0,7.77-1.65Z" fill="#ea9611"/>
          <path id="Trazado_125219" data-name="Trazado 125219" d="M350.34,298.91c2-.81,5.71-.81,7.75,3.57,3.11,6.71.92,10.44-.13,14.18a35.577,35.577,0,0,1-2,4.37,25.218,25.218,0,0,1-7.26-1.62c-2.91-1.33-5.12-2.58-5.12-2.58S342,302.36,350.34,298.91Z" fill="#ea9611"/>
          <path id="Trazado_125220" data-name="Trazado 125220" d="M343.43,315v2.88a12.93,12.93,0,0,0,5.9,2.92,28.89,28.89,0,0,0,6.18,1l1.58-2.78a24.81,24.81,0,0,1-8.26-1.26,20.24,20.24,0,0,1-5.4-2.76Z" fill="#febc7c"/>
        </g>
        <g id="Grupo_60598" data-name="Grupo 60598">
          <path id="Trazado_125221" data-name="Trazado 125221" d="M317.2,267.7s2.89,12.88-3.31,20.09-10.37-2.48-10.37-2.48Z" fill="#ffc3b1"/>
          <path id="Trazado_125222" data-name="Trazado 125222" d="M272.87,290.26l16.28-9.39-2.66-30.64-16.28,9.4Z" fill="#fed2a8"/>
          <path id="Trazado_125223" data-name="Trazado 125223" d="M291.13,259.79s-5.18-.69-6.19.26,2.32,1.85,2.32,1.85Z" fill="#ffc3b1"/>
          <g id="Grupo_60597" data-name="Grupo 60597">
            <path id="Trazado_125224" data-name="Trazado 125224" d="M281.57,260.16c0-.52-.32-.76-.71-.53L273.33,264v16.43l7.54-4.33a1.68,1.68,0,0,0,.7-1.35Z" fill="#368dca"/>
            <path id="Trazado_125225" data-name="Trazado 125225" d="M281.32,259.59l.53.31-.3.15-.36-.23Z" fill="#368dca"/>
            <path id="Trazado_125226" data-name="Trazado 125226" d="M282.13,260.49c0-.52-.31-.76-.7-.54l-7.54,4.33v16.44l7.54-4.33a1.71,1.71,0,0,0,.71-1.36Z" fill="#2eabe3"/>
            <path id="Trazado_125227" data-name="Trazado 125227" d="M278,266.71a6.07,6.07,0,0,0-2.53,4.84c0,1.87,1.13,2.72,2.53,1.92a6.07,6.07,0,0,0,2.53-4.84C280.55,266.76,279.42,265.9,278,266.71Zm1.33,2.44a4,4,0,0,0-.21-1.33,6.85,6.85,0,0,0,.47-.72,2,2,0,0,1,.63,1.54Zm-2.2,3a3.721,3.721,0,0,1,.87-.74,1.76,1.76,0,0,1,.93-.26,5.219,5.219,0,0,1-.9,1.83,1.17,1.17,0,0,1-.88-.86Zm.87-.92a3.551,3.551,0,0,0-.92.79,4,4,0,0,1-.2-1.24l2.31-1.33a6.859,6.859,0,0,1-.2,1.5,1.9,1.9,0,0,0-.99.25Zm-1.12-.63a6.4,6.4,0,0,1,.19-1.45,1.87,1.87,0,0,0,.93-.28,3.49,3.49,0,0,0,1-.87,4.171,4.171,0,0,1,.2,1.27Zm1.12-3.45.11-.06a1.14,1.14,0,0,1,.83.78,3.579,3.579,0,0,1-.94.82,1.76,1.76,0,0,1-.88.26,5.551,5.551,0,0,1,.84-1.78Zm1.06.56a1.39,1.39,0,0,0-.64-.75,1.23,1.23,0,0,1,1.07.1,4.873,4.873,0,0,1-.41.62ZM277,268.92a1.2,1.2,0,0,1-.48-.17,4.88,4.88,0,0,1,1.15-1.4A6.631,6.631,0,0,0,277,268.92Zm-.05.2a7.133,7.133,0,0,0-.2,1.53l-1,.55a5.69,5.69,0,0,1,.63-2.27,1.25,1.25,0,0,0,.62.19Zm-.2,1.71a4.13,4.13,0,0,0,.21,1.31,5.182,5.182,0,0,0-.59.9,2.16,2.16,0,0,1-.58-1.65Zm.26,1.45a1.32,1.32,0,0,0,.85.86,1.3,1.3,0,0,1-1.39,0,5.388,5.388,0,0,1,.53-.86Zm1.23.63a6,6,0,0,0,.83-1.78,1.11,1.11,0,0,1,.49.2,4.63,4.63,0,0,1-1.31,1.58Zm.88-2a6.171,6.171,0,0,0,.22-1.6l.9-.51a5.54,5.54,0,0,1-.59,2.32,1.23,1.23,0,0,0-.52-.19Z" fill="#fff"/>
            <path id="Trazado_125228" data-name="Trazado 125228" d="M280.79,274.87l-5.54,3.2v-.56l5.54-3.19Z" fill="#fff"/>
            <path id="Trazado_125229" data-name="Trazado 125229" d="M281.32,273.41l-6.6,3.81v-.57l6.6-3.81Z" fill="#fff"/>
            <path id="Trazado_125230" data-name="Trazado 125230" d="M281.32,262.05l-6.6,3.81v-.57l6.6-3.81Z" fill="#fff"/>
            <path id="Trazado_125231" data-name="Trazado 125231" d="M281.32,263.3l-6.6,3.81v-.57l6.6-3.8Z" fill="#fff"/>
            <path id="Trazado_125232" data-name="Trazado 125232" d="M273.32,280.39l.57.33V264.28l-.57-.33Z" fill="#275fad"/>
          </g>
          <path id="Trazado_125233" data-name="Trazado 125233" d="M284.09,407.15s-8.94-4-13.37-4.18-4.85,5,0,9,8.57,4.57,12.55,6.2c3.58,1.47,4.86,1.59,7.72-.26,3.81-2.47.76-9,.76-9Z" fill="#383c48"/>
          <path id="Trazado_125234" data-name="Trazado 125234" d="M310,391.82s-7.11-3-11.54-3.16-6,3.63-1.16,7.66,7.9,4.93,11.87,6.56c3.58,1.47,4.85,1.56,7.72-.26,3.92-2.49.86-9,.76-9Z" fill="#383c48"/>
          <path id="Trazado_125235" data-name="Trazado 125235" d="M283.53,303.67s-7.81,42.19-7.81,55.44c0,23.36.21,48,.21,48s3.87,4.07,7.64,4.08c8.48,0,9.33-4.25,9.33-4.25s.12-27.84.86-40.49c.52-8.79,1-21.19,4.57-31.41.1,10.5.07,13.86.93,25.3.64,8.43,4.15,31.08,4.34,32.55,2.69,3.25,11,5.49,15.25.74-.33-3.73-2.67-29.89-2.37-43.45.28-12.46,3.46-42-3.66-47.71C306.66,297.46,283.53,303.67,283.53,303.67Z" fill="#9182ca"/>
          <path id="Trazado_125236" data-name="Trazado 125236" d="M307.63,274.19c4.61,1.17,9-2.25,11.92-5.3-2.55-5.3-5.41-10.84-7-12.73-3.94-4.69-9.76-1.74-9.76-1.74L307,267.63a35.871,35.871,0,0,1,.63,6.56Z" fill="#d2dce6"/>
          <path id="Trazado_125237" data-name="Trazado 125237" d="M293.51,227.85c3.11-2.16,9.09-1.49,11.69,4,1.44,3-.6,11.2-.92,16.93a14,14,0,0,0,1.29,7.3l-4,1.63a11.93,11.93,0,0,1-8.1,0l.13-7s-4.28-.64-5-1.32c-1.8-1.65-2.75-6.56-1.92-12.88C287.94,227,292.36,228.64,293.51,227.85Z" fill="#ffc3b1"/>
          <path id="Trazado_125238" data-name="Trazado 125238" d="M283.49,281.75c-2.34-5,1.42-15.21,2.9-18.47s7.14-6.57,7.14-6.57,8.08,1,11.2-2.94c2,1,8.84,4.33,11.09,20.83.63,4.59.13,13.09-.12,24.77-.17,7.89,1.57,11,2.09,16.06-5.07,5.23-17.71,9-24.19,7.28-3.88-1-10.35-4.09-13-7.28C280.14,310.5,288.28,292,283.49,281.75Z" fill="#fff"/>
          <path id="Trazado_125239" data-name="Trazado 125239" d="M284.94,230.9a4,4,0,0,0,2.69-.77c-1.61-.63-2.83-2.53-2.21-4.13,2.3.71,4.77-.94,5.66-1.34,3.43-1.54,11.05-4.23,14.63.48,2.94,1.7,7.34,4.35,5.16,14.5-1.77,8.2-4.54,9.21-7,11.14-3.23-.57-4.21-1.16-6.06-3a7.34,7.34,0,0,1-2-4.28s2.16-4.29.49-5.82-3.43,1.06-4,2C286.19,235.32,285.66,233.38,284.94,230.9Z" fill="#7d3c05"/>
          <path id="Trazado_125240" data-name="Trazado 125240" d="M281,277c-.29.47-2.88,7.15-4.76,12.24s-.93,8.68,1.34,11.71,4.1,1.63,6.21-1.42,5.13-10.25,6.57-17.17S281,277,281,277Z" fill="#ffc3b1"/>
          <path id="Trazado_125241" data-name="Trazado 125241" d="M286.66,283.23a10.65,10.65,0,0,0,5.82-2.4c.74-3.32,1.28-6,1.42-7.13.75-6-1.76-15.26-6.11-13.74-4.16,1.45-7.33,10.12-9.44,18.86C279.59,281.89,283.46,283.38,286.66,283.23Z" fill="#d2dce6"/>
          <path id="Trazado_125242" data-name="Trazado 125242" d="M293.53,256.71l-1.82,1.18s5.65,2.05,10.51.12c4.4-1.75,4.69-3.56,4.69-3.56l-2.18-.68s-2.94,2.25-4.59,2.58A58.906,58.906,0,0,1,293.53,256.71Z" fill="#d2dce6"/>
          <path id="Trazado_125243" data-name="Trazado 125243" d="M271.48,274a7.15,7.15,0,0,0,1.94-2.52c.57-1.43,2-.21,1.15,1.56s-.87,6.8-.43,8.1,6.48,14.4,6.48,14.4l-.87,7.07s-5.28,0-8.21-8.17c-2.23-6.23-3-17.28-3.21-20s2.39-6.88,2.39-6.88Z" fill="#ffc3b1"/>
        </g>
        <g id="Grupo_60609" data-name="Grupo 60609">
          <g id="Grupo_60603" data-name="Grupo 60603">
            <g id="Grupo_60599" data-name="Grupo 60599">
              <ellipse id="Elipse_4107" data-name="Elipse 4107" cx="18.82" cy="10.59" rx="18.82" ry="10.59" transform="translate(214.97 402.36)" fill="#ea9611"/>
              <rect id="Rectángulo_6750" data-name="Rectángulo 6750" width="37.65" height="3.19" transform="translate(214.97 409.76)" fill="#ea9611"/>
              <path id="Trazado_125244" data-name="Trazado 125244" d="M252.61,409.76c0,5.85-8.43,10.59-18.82,10.59S215,415.61,215,409.76s8.42-10.59,18.82-10.59S252.61,403.91,252.61,409.76Z" fill="#febc7c"/>
            </g>
            <g id="Grupo_60600" data-name="Grupo 60600">
              <path id="Trazado_125245" data-name="Trazado 125245" d="M237.53,408.45c0,1.16-1.68,2.1-3.74,2.1s-3.74-.94-3.74-2.1,1.68-2.1,3.74-2.1S237.53,407.29,237.53,408.45Z" fill="#ea9611"/>
              <rect id="Rectángulo_6751" data-name="Rectángulo 6751" width="7.47" height="5.88" transform="translate(230.05 402.57)" fill="#ea9611"/>
              <path id="Trazado_125246" data-name="Trazado 125246" d="M237.53,402.57c0,1.16-1.68,2.11-3.74,2.11s-3.74-.95-3.74-2.11,1.68-2.1,3.74-2.1S237.53,401.41,237.53,402.57Z" fill="#ffdc81"/>
            </g>
            <g id="Grupo_60601" data-name="Grupo 60601">
              <rect id="Rectángulo_6752" data-name="Rectángulo 6752" width="3.95" height="83.48" transform="translate(231.81 318.97)" fill="#626a77"/>
              <ellipse id="Elipse_4108" data-name="Elipse 4108" cx="1.98" cy="1.11" rx="1.98" ry="1.11" transform="translate(231.81 401.34)" fill="#626a77"/>
            </g>
            <g id="Grupo_60602" data-name="Grupo 60602">
              <path id="Trazado_125247" data-name="Trazado 125247" d="M228.5,320.74c0,1.64,2.37,3,5.29,3s5.29-1.34,5.29-3-2.37-3-5.29-3S228.5,319.09,228.5,320.74Z" fill="#ea9611"/>
              <rect id="Rectángulo_6753" data-name="Rectángulo 6753" width="10.59" height="9.54" transform="translate(239.08 320.73) rotate(180)" fill="#ea9611"/>
              <path id="Trazado_125248" data-name="Trazado 125248" d="M228.5,311.2c0,1.64,2.37,3,5.29,3s5.29-1.34,5.29-3-2.37-3-5.29-3S228.5,309.55,228.5,311.2Z" fill="#febc7c"/>
            </g>
          </g>
          <path id="Trazado_125249" data-name="Trazado 125249" d="M237.53,315.52v6.9s9.84,26,40.36,43.23c27.69,15.64,50.28,5.5,50.28,5.5l-1.76-3s-26.47,5.6-43.56-4.24C248.82,344.31,237.53,315.52,237.53,315.52Z" fill="#ef2a66"/>
          <g id="Grupo_60608" data-name="Grupo 60608">
            <g id="Grupo_60604" data-name="Grupo 60604">
              <ellipse id="Elipse_4109" data-name="Elipse 4109" cx="18.82" cy="10.59" rx="18.82" ry="10.59" transform="translate(308.68 454.98)" fill="#ea9611"/>
              <rect id="Rectángulo_6754" data-name="Rectángulo 6754" width="37.65" height="3.19" transform="translate(308.68 462.38)" fill="#ea9611"/>
              <path id="Trazado_125250" data-name="Trazado 125250" d="M346.32,462.38c0,5.85-8.42,10.59-18.82,10.59s-18.82-4.74-18.82-10.59,8.43-10.59,18.82-10.59S346.32,456.53,346.32,462.38Z" fill="#febc7c"/>
            </g>
            <g id="Grupo_60605" data-name="Grupo 60605">
              <path id="Trazado_125251" data-name="Trazado 125251" d="M331.24,461.07c0,1.16-1.68,2.1-3.74,2.1s-3.74-.94-3.74-2.1,1.68-2.1,3.74-2.1S331.24,459.91,331.24,461.07Z" fill="#ea9611"/>
              <rect id="Rectángulo_6755" data-name="Rectángulo 6755" width="7.47" height="5.88" transform="translate(323.76 455.19)" fill="#ea9611"/>
              <path id="Trazado_125252" data-name="Trazado 125252" d="M331.24,455.19c0,1.16-1.68,2.11-3.74,2.11s-3.74-.95-3.74-2.11,1.68-2.1,3.74-2.1S331.24,454,331.24,455.19Z" fill="#ffdc81"/>
            </g>
            <g id="Grupo_60606" data-name="Grupo 60606">
              <rect id="Rectángulo_6756" data-name="Rectángulo 6756" width="3.95" height="83.48" transform="translate(325.52 371.59)" fill="#626a77"/>
              <path id="Trazado_125253" data-name="Trazado 125253" d="M329.48,455.07c0,.61-.89,1.11-2,1.11s-2-.5-2-1.11.89-1.12,2-1.12S329.48,454.45,329.48,455.07Z" fill="#626a77"/>
            </g>
            <g id="Grupo_60607" data-name="Grupo 60607">
              <path id="Trazado_125254" data-name="Trazado 125254" d="M322.21,373.36c0,1.64,2.37,3,5.29,3s5.29-1.34,5.29-3-2.37-3-5.29-3S322.21,371.71,322.21,373.36Z" fill="#ea9611"/>
              <rect id="Rectángulo_6757" data-name="Rectángulo 6757" width="10.59" height="9.54" transform="translate(332.79 373.35) rotate(180)" fill="#ea9611"/>
              <path id="Trazado_125255" data-name="Trazado 125255" d="M322.21,363.82c0,1.64,2.37,3,5.29,3s5.29-1.34,5.29-3-2.37-3-5.29-3S322.21,362.17,322.21,363.82Z" fill="#febc7c"/>
            </g>
          </g>
        </g>
      </g>
    </g>
  </g>
</svg>
