<svg xmlns="http://www.w3.org/2000/svg" xmlns:xlink="http://www.w3.org/1999/xlink" width="1090.303" height="663.37" viewBox="0 0 1090.303 663.37">
  <defs>
    <linearGradient id="linear-gradient" x1="0.115" y1="0.142" x2="0.923" y2="0.894" gradientUnits="objectBoundingBox">
      <stop offset="0" stop-color="#ececec"/>
      <stop offset="0.12" stop-color="#f1f1f1"/>
      <stop offset="0.53" stop-color="#fbfbfb"/>
      <stop offset="1" stop-color="#fff"/>
    </linearGradient>
    <linearGradient id="linear-gradient-3" x1="0.135" y1="0.141" x2="0.889" y2="0.884" gradientUnits="objectBoundingBox">
      <stop offset="0" stop-color="#fff"/>
      <stop offset="0.47" stop-color="#fbfbfb"/>
      <stop offset="0.88" stop-color="#f1f1f1"/>
      <stop offset="1" stop-color="#ececec"/>
    </linearGradient>
    <linearGradient id="linear-gradient-4" x1="0.115" y1="0.124" x2="0.894" y2="0.885" gradientUnits="objectBoundingBox">
      <stop offset="0" stop-color="#fff"/>
      <stop offset="0.37" stop-color="#fbfbfb"/>
      <stop offset="0.7" stop-color="#f1f1f1"/>
      <stop offset="1" stop-color="#dfdfdf"/>
    </linearGradient>
    <linearGradient id="linear-gradient-5" x1="0.119" y1="0.151" x2="0.873" y2="0.842" gradientUnits="objectBoundingBox">
      <stop offset="0" stop-color="#dfdfdf"/>
      <stop offset="0.3" stop-color="#f1f1f1"/>
      <stop offset="0.63" stop-color="#fbfbfb"/>
      <stop offset="1" stop-color="#fff"/>
    </linearGradient>
    <linearGradient id="linear-gradient-7" x1="0.136" y1="0.141" x2="0.889" y2="0.884" xlink:href="#linear-gradient-3"/>
    <linearGradient id="linear-gradient-8" x1="0.115" y1="0.124" x2="0.894" y2="0.885" xlink:href="#linear-gradient-4"/>
    <linearGradient id="linear-gradient-9" x1="0.119" y1="0.151" x2="0.873" y2="0.842" xlink:href="#linear-gradient-5"/>
    <linearGradient id="linear-gradient-17" x1="0.119" y1="0.151" x2="0.873" y2="0.842" xlink:href="#linear-gradient-5"/>
  </defs>
  <g id="Grupo_124105" data-name="Grupo 124105" transform="translate(-252.814 -1038)">
    <g id="CF6_MULTA_copia_2" data-name="CF6_MULTA copia 2" transform="translate(209.814 978.59)">
      <path id="Trazado_129830" data-name="Trazado 129830" d="M617,546.64A183.46,183.46,0,0,1,433.49,363.213c0-101.362,82.148-183.5,183.477-183.493,101.312,0,183.453,82.148,183.443,183.477C800.41,464.5,718.28,546.64,617,546.64Z" stroke="#e5e6e7" stroke-miterlimit="10" stroke-width="1" fill="url(#linear-gradient)"/>
      <path id="Trazado_129831" data-name="Trazado 129831" d="M614,542.64A183.46,183.46,0,0,1,430.49,359.213c0-101.362,82.148-183.5,183.477-183.493,101.312,0,183.453,82.148,183.443,183.477C797.41,460.5,715.28,542.64,614,542.64Z" fill="url(#linear-gradient)"/>
      <g id="Grupo_61706" data-name="Grupo 61706">
        <circle id="Elipse_4257" data-name="Elipse 4257" cx="39.53" cy="39.53" r="39.53" transform="translate(402.495 172.163) rotate(-81)" fill="url(#linear-gradient-3)"/>
        <g id="Grupo_61705" data-name="Grupo 61705">
          <circle id="Elipse_4258" data-name="Elipse 4258" cx="35.63" cy="35.63" r="35.63" transform="translate(412.09 103.68)" fill="#472ea6"/>
          <circle id="Elipse_4259" data-name="Elipse 4259" cx="27.97" cy="27.97" r="27.97" transform="translate(419.75 111.34)" fill="url(#linear-gradient-4)"/>
          <circle id="Elipse_4260" data-name="Elipse 4260" cx="26.55" cy="26.55" r="26.55" transform="translate(421.17 112.76)" fill="url(#linear-gradient-5)"/>
          <circle id="Elipse_4261" data-name="Elipse 4261" cx="26.55" cy="26.55" r="26.55" transform="translate(421.17 112.76)" fill="url(#linear-gradient-5)"/>
        </g>
      </g>
      <path id="Trazado_129832" data-name="Trazado 129832" d="M449.81,150h-2.72V132l-5.47,2v-2.46l7.77-2.92h.42Z" fill="#12263f"/>
      <g id="Grupo_61708" data-name="Grupo 61708">
        <circle id="Elipse_4262" data-name="Elipse 4262" cx="39.53" cy="39.53" r="39.53" transform="translate(740.751 176.067) rotate(-81)" fill="url(#linear-gradient-7)"/>
        <g id="Grupo_61707" data-name="Grupo 61707">
          <circle id="Elipse_4263" data-name="Elipse 4263" cx="35.63" cy="35.63" r="35.63" transform="translate(750.35 107.58)" fill="#7f43bb"/>
          <circle id="Elipse_4264" data-name="Elipse 4264" cx="27.97" cy="27.97" r="27.97" transform="translate(758.01 115.24)" fill="url(#linear-gradient-8)"/>
          <circle id="Elipse_4265" data-name="Elipse 4265" cx="26.55" cy="26.55" r="26.55" transform="translate(759.43 116.66)" fill="url(#linear-gradient-9)"/>
          <circle id="Elipse_4266" data-name="Elipse 4266" cx="26.55" cy="26.55" r="26.55" transform="translate(759.43 116.66)" fill="url(#linear-gradient-9)"/>
        </g>
      </g>
      <path id="Trazado_129833" data-name="Trazado 129833" d="M793.26,153.65h-14v-2l7.38-8.2a17.828,17.828,0,0,0,2.27-3,5.121,5.121,0,0,0,.62-2.41,3.83,3.83,0,0,0-1-2.74,3.5,3.5,0,0,0-2.7-1.07,4.18,4.18,0,0,0-3.14,1.15,4.36,4.36,0,0,0-1.12,3.2h-2.71a6.26,6.26,0,0,1,1.9-4.76,7,7,0,0,1,5.07-1.82,6.78,6.78,0,0,1,4.71,1.56,5.31,5.31,0,0,1,1.72,4.15q0,3.15-4,7.5l-5.71,6.2h10.71Z" fill="#12263f"/>
      <g id="Grupo_61710" data-name="Grupo 61710">
        <circle id="Elipse_4267" data-name="Elipse 4267" cx="39.642" cy="39.642" r="39.642" transform="matrix(0.16, -0.987, 0.987, 0.16, 834.148, 471.083)" fill="url(#linear-gradient-3)"/>
        <g id="Grupo_61709" data-name="Grupo 61709">
          <circle id="Elipse_4268" data-name="Elipse 4268" cx="35.63" cy="35.63" r="35.63" transform="translate(839.84 403.11)" fill="#9743bb"/>
          <circle id="Elipse_4269" data-name="Elipse 4269" cx="27.97" cy="27.97" r="27.97" transform="translate(847.5 410.77)" fill="url(#linear-gradient-4)"/>
          <circle id="Elipse_4270" data-name="Elipse 4270" cx="26.55" cy="26.55" r="26.55" transform="translate(848.92 412.19)" fill="url(#linear-gradient-5)"/>
          <circle id="Elipse_4271" data-name="Elipse 4271" cx="26.55" cy="26.55" r="26.55" transform="translate(848.92 412.19)" fill="url(#linear-gradient-5)"/>
        </g>
      </g>
      <path id="Trazado_129834" data-name="Trazado 129834" d="M873.39,437.42h2a4.5,4.5,0,0,0,3-1,3.4,3.4,0,0,0,1.1-2.65q0-3.75-3.74-3.75a3.87,3.87,0,0,0-2.8,1,3.5,3.5,0,0,0-1,2.66h-2.71a5.45,5.45,0,0,1,1.85-4.21,6.76,6.76,0,0,1,4.71-1.68,6.64,6.64,0,0,1,4.73,1.6,5.729,5.729,0,0,1,1.72,4.43,4.7,4.7,0,0,1-.9,2.7,5.431,5.431,0,0,1-2.46,1.95,5.2,5.2,0,0,1,2.72,1.84,5.13,5.13,0,0,1,1,3.15A5.81,5.81,0,0,1,880.7,448a7.06,7.06,0,0,1-4.88,1.68,7.25,7.25,0,0,1-4.89-1.62,5.42,5.42,0,0,1-1.88-4.29h2.72a3.48,3.48,0,0,0,1.1,2.69,4.22,4.22,0,0,0,3,1,4.1,4.1,0,0,0,3-1,4,4,0,0,0,1-2.95,3.57,3.57,0,0,0-1.14-2.85,5,5,0,0,0-3.3-1h-2Z" fill="#12263f"/>
      <g id="Grupo_61712" data-name="Grupo 61712">
        <circle id="Elipse_4272" data-name="Elipse 4272" cx="39.53" cy="39.53" r="39.53" transform="translate(568.725 666.452) rotate(-81)" fill="url(#linear-gradient-3)"/>
        <g id="Grupo_61711" data-name="Grupo 61711">
          <circle id="Elipse_4273" data-name="Elipse 4273" cx="35.63" cy="35.63" r="35.63" transform="translate(578.33 597.97)" fill="#bb43b0"/>
          <circle id="Elipse_4274" data-name="Elipse 4274" cx="27.97" cy="27.97" r="27.97" transform="translate(585.99 605.63)" fill="url(#linear-gradient-4)"/>
          <circle id="Elipse_4275" data-name="Elipse 4275" cx="26.55" cy="26.55" r="26.55" transform="translate(587.41 607.05)" fill="url(#linear-gradient-17)"/>
          <circle id="Elipse_4276" data-name="Elipse 4276" cx="26.55" cy="26.55" r="26.55" transform="translate(587.41 607.05)" fill="url(#linear-gradient-17)"/>
        </g>
      </g>
      <path id="Trazado_129835" data-name="Trazado 129835" d="M618.2,637h3v2.21h-3v5h-2.73v-5h-9.71v-1.59l9.55-14.78h2.89Zm-9.36,0h6.63V626.56l-.32.59Z" fill="#12263f"/>
      <g id="Grupo_61714" data-name="Grupo 61714">
        <circle id="Elipse_4277" data-name="Elipse 4277" cx="39.53" cy="39.53" r="39.53" transform="translate(307.218 475.491) rotate(-81)" fill="url(#linear-gradient-3)"/>
        <g id="Grupo_61713" data-name="Grupo 61713">
          <circle id="Elipse_4278" data-name="Elipse 4278" cx="35.63" cy="35.63" r="35.63" transform="translate(316.82 407.01)" fill="#ef2a66"/>
          <circle id="Elipse_4279" data-name="Elipse 4279" cx="27.97" cy="27.97" r="27.97" transform="translate(324.48 414.67)" fill="url(#linear-gradient-4)"/>
          <circle id="Elipse_4280" data-name="Elipse 4280" cx="26.55" cy="26.55" r="26.55" transform="translate(325.9 416.09)" fill="url(#linear-gradient-5)"/>
          <circle id="Elipse_4281" data-name="Elipse 4281" cx="26.55" cy="26.55" r="26.55" transform="translate(325.9 416.09)" fill="url(#linear-gradient-5)"/>
        </g>
      </g>
      <path id="Trazado_129836" data-name="Trazado 129836" d="M346.51,442.46l1.08-10.63h10.93v2.5h-8.63l-.64,5.82a6.82,6.82,0,0,1,3.56-.92,5.88,5.88,0,0,1,4.62,1.92,7.53,7.53,0,0,1,1.72,5.21,7.25,7.25,0,0,1-1.78,5.19,6.48,6.48,0,0,1-5,1.9,6.72,6.72,0,0,1-4.62-1.57,6.22,6.22,0,0,1-2-4.33h2.56a4.29,4.29,0,0,0,1.3,2.76,4.07,4.07,0,0,0,2.79.93,3.65,3.65,0,0,0,3-1.29,5.39,5.39,0,0,0,1.08-3.56,5,5,0,0,0-1.17-3.44,3.94,3.94,0,0,0-3.09-1.29,4.53,4.53,0,0,0-2.79.77l-.71.59Z" fill="#12263f"/>
      <path id="Trazado_129837" data-name="Trazado 129837" d="M900.7,319.8a288,288,0,0,0-54.93-133.92l-24,18h0a257.9,257.9,0,0,1,48.84,117.25l-14.65.63,32.13,50.47,27.65-53Z" fill="#7f43bb"/>
      <g id="Grupo_61715" data-name="Grupo 61715">
        <path id="Trazado_129838" data-name="Trazado 129838" d="M532.16,112.93h0Z" fill="#472ea6"/>
        <path id="Trazado_129839" data-name="Trazado 129839" d="M709.25,101.77,667,59.41l-3.9,14.52A291.42,291.42,0,0,0,522.7,84.45l9.46,28.48a260.79,260.79,0,0,1,123.09-9.87l-3.81,14.13Z" fill="#472ea6"/>
      </g>
      <path id="Trazado_129840" data-name="Trazado 129840" d="M395.43,248.7l3.28-59.7-53.38,27,12.57,8.2a288.231,288.231,0,0,0-33.36,135v4.13l30-.42h0V359.2a258.279,258.279,0,0,1,28.6-118.52Z" fill="#ef2a66"/>
      <path id="Trazado_129841" data-name="Trazado 129841" d="M537.6,607.19a259.341,259.341,0,0,1-109.45-67l11.5-9.1L384,509l8.69,59.2,11.78-9.33a289.4,289.4,0,0,0,124.27,77l8.82-28.67Z" fill="#bb43b0"/>
      <path id="Trazado_129842" data-name="Trazado 129842" d="M851,525.26,826.45,508h0a260.64,260.64,0,0,1-96.54,83.27l-5.16-13.71-38,46.24,59,9.77-5.29-14.08A290.63,290.63,0,0,0,851,525.26Z" fill="#9743bb"/>
      <path id="Trazado_227964" data-name="Trazado 227964" d="M5.256-5.7A7.935,7.935,0,0,1,2.1-7.238a2.93,2.93,0,0,1-.989-2.246,3.1,3.1,0,0,1,1.208-2.5,4.8,4.8,0,0,1,3.142-.989,5.243,5.243,0,0,1,2.351.51,3.866,3.866,0,0,1,1.6,1.406A3.6,3.6,0,0,1,9.976-9.1h-1.7a2.34,2.34,0,0,0-.738-1.83,3,3,0,0,0-2.083-.666,3.074,3.074,0,0,0-1.947.55,1.836,1.836,0,0,0-.7,1.528A1.652,1.652,0,0,0,3.476-8.19,6.509,6.509,0,0,0,5.735-7.2a10.481,10.481,0,0,1,2.5.99A3.788,3.788,0,0,1,9.567-4.948,3.219,3.219,0,0,1,10-3.252,2.99,2.99,0,0,1,8.789-.76,5.171,5.171,0,0,1,5.546.176,6.015,6.015,0,0,1,3.085-.33,4.142,4.142,0,0,1,1.323-1.714a3.378,3.378,0,0,1-.62-2H2.4a2.2,2.2,0,0,0,.857,1.833,3.608,3.608,0,0,0,2.29.672,3.317,3.317,0,0,0,2.048-.545,1.77,1.77,0,0,0,.712-1.485,1.738,1.738,0,0,0-.659-1.455A7.6,7.6,0,0,0,5.256-5.7Zm6.223.861a5.617,5.617,0,0,1,.549-2.514,4.1,4.1,0,0,1,1.529-1.723,4.163,4.163,0,0,1,2.237-.606,4.01,4.01,0,0,1,3.142,1.345,5.174,5.174,0,0,1,1.2,3.577v.114A5.666,5.666,0,0,1,19.6-2.158,4.038,4.038,0,0,1,18.083-.439a4.211,4.211,0,0,1-2.272.615,4,4,0,0,1-3.133-1.345,5.147,5.147,0,0,1-1.2-3.56Zm1.635.193a4.068,4.068,0,0,0,.734,2.54,2.349,2.349,0,0,0,1.964.958,2.335,2.335,0,0,0,1.969-.971,4.449,4.449,0,0,0,.729-2.72,4.061,4.061,0,0,0-.743-2.536,2.361,2.361,0,0,0-1.973-.971,2.335,2.335,0,0,0-1.942.958A4.416,4.416,0,0,0,13.113-4.649ZM23.941,0H22.315V-13.5h1.626ZM28.31,0H26.684V-9.51H28.31ZM26.552-12.032a.971.971,0,0,1,.242-.668.907.907,0,0,1,.716-.272.922.922,0,0,1,.721.272.96.96,0,0,1,.246.668.929.929,0,0,1-.246.659.938.938,0,0,1-.721.264.924.924,0,0,1-.716-.264A.938.938,0,0,1,26.552-12.032ZM34.726-1.151a2.342,2.342,0,0,0,1.521-.527A1.855,1.855,0,0,0,36.967-3H38.5a2.949,2.949,0,0,1-.562,1.556A3.7,3.7,0,0,1,36.558-.264a3.994,3.994,0,0,1-1.833.439,3.918,3.918,0,0,1-3.089-1.3,5.163,5.163,0,0,1-1.147-3.546v-.272A5.725,5.725,0,0,1,31-7.409a3.883,3.883,0,0,1,1.463-1.679,4.157,4.157,0,0,1,2.254-.6,3.814,3.814,0,0,1,2.659.958A3.424,3.424,0,0,1,38.5-6.24H36.967a2.241,2.241,0,0,0-.7-1.516,2.174,2.174,0,0,0-1.551-.593,2.276,2.276,0,0,0-1.92.892,4.19,4.19,0,0,0-.681,2.58v.308a4.106,4.106,0,0,0,.677,2.531A2.287,2.287,0,0,0,34.726-1.151ZM42.1,0H40.474V-9.51H42.1ZM40.342-12.032a.971.971,0,0,1,.242-.668.907.907,0,0,1,.716-.272.922.922,0,0,1,.721.272.96.96,0,0,1,.246.668.929.929,0,0,1-.246.659.938.938,0,0,1-.721.264.924.924,0,0,1-.716-.264A.938.938,0,0,1,40.342-12.032Zm6.565.22v2.3h1.775v1.257H46.907v5.9a1.32,1.32,0,0,0,.237.858,1,1,0,0,0,.809.286,3.937,3.937,0,0,0,.773-.105V0a4.742,4.742,0,0,1-1.248.175,2.025,2.025,0,0,1-1.644-.659,2.832,2.832,0,0,1-.554-1.872v-5.9H43.55V-9.51h1.731v-2.3ZM56.452-.94A3.454,3.454,0,0,1,53.666.176,2.956,2.956,0,0,1,51.35-.708a3.823,3.823,0,0,1-.8-2.615V-9.51h1.626v6.144q0,2.162,1.758,2.162a2.434,2.434,0,0,0,2.479-1.389V-9.51h1.626V0H56.487Zm3.656-3.894a5.571,5.571,0,0,1,1.037-3.52,3.28,3.28,0,0,1,2.716-1.332,3.3,3.3,0,0,1,2.646,1.143V-13.5h1.626V0H66.639L66.56-1.02a3.311,3.311,0,0,1-2.716,1.2A3.248,3.248,0,0,1,61.15-1.178a5.634,5.634,0,0,1-1.042-3.533Zm1.626.185A4.218,4.218,0,0,0,62.4-2.118a2.159,2.159,0,0,0,1.846.914,2.372,2.372,0,0,0,2.259-1.389V-6.961a2.39,2.39,0,0,0-2.241-1.345,2.17,2.17,0,0,0-1.863.923A4.644,4.644,0,0,0,61.734-4.649Zm12.981-.185a5.571,5.571,0,0,1,1.037-3.52,3.28,3.28,0,0,1,2.716-1.332,3.3,3.3,0,0,1,2.646,1.143V-13.5H82.74V0H81.246l-.079-1.02a3.311,3.311,0,0,1-2.716,1.2,3.248,3.248,0,0,1-2.694-1.354,5.634,5.634,0,0,1-1.042-3.533Zm1.626.185a4.218,4.218,0,0,0,.668,2.531,2.159,2.159,0,0,0,1.846.914,2.372,2.372,0,0,0,2.259-1.389V-6.961a2.39,2.39,0,0,0-2.241-1.345,2.17,2.17,0,0,0-1.863.923A4.644,4.644,0,0,0,76.342-4.649ZM89.209.176a4.155,4.155,0,0,1-3.146-1.27,4.714,4.714,0,0,1-1.213-3.4v-.3a5.707,5.707,0,0,1,.541-2.527A4.217,4.217,0,0,1,86.9-9.057a3.8,3.8,0,0,1,2.1-.628A3.562,3.562,0,0,1,91.89-8.464a5.289,5.289,0,0,1,1.028,3.5v.677H86.476A3.38,3.38,0,0,0,87.3-2.017a2.583,2.583,0,0,0,2,.866A2.832,2.832,0,0,0,90.756-1.5,3.666,3.666,0,0,0,91.8-2.435l.993.773A3.993,3.993,0,0,1,89.209.176Zm-.2-8.525a2.169,2.169,0,0,0-1.652.716,3.482,3.482,0,0,0-.826,2.008h4.764v-.123a3.1,3.1,0,0,0-.668-1.92A2.042,2.042,0,0,0,89.007-8.35ZM96.565,0H94.939V-13.5h1.626Zm9-5.01V0h-1.687V-12.8h4.72a4.742,4.742,0,0,1,3.292,1.072,3.635,3.635,0,0,1,1.191,2.839,3.587,3.587,0,0,1-1.165,2.87A4.954,4.954,0,0,1,108.58-5.01Zm0-1.38H108.6a3.032,3.032,0,0,0,2.074-.638,2.334,2.334,0,0,0,.721-1.845,2.411,2.411,0,0,0-.721-1.831,2.84,2.84,0,0,0-1.978-.713h-3.129ZM116.745,0h-1.626V-13.5h1.626Zm8.473,0a3.416,3.416,0,0,1-.229-1A3.628,3.628,0,0,1,122.282.176a3.357,3.357,0,0,1-2.307-.8,2.573,2.573,0,0,1-.9-2.017A2.688,2.688,0,0,1,120.2-4.944a5.325,5.325,0,0,1,3.177-.822h1.582v-.747a1.826,1.826,0,0,0-.51-1.358,2.049,2.049,0,0,0-1.5-.505,2.371,2.371,0,0,0-1.459.439,1.3,1.3,0,0,0-.589,1.063h-1.635a2.244,2.244,0,0,1,.505-1.375,3.449,3.449,0,0,1,1.371-1.05,4.613,4.613,0,0,1,1.9-.387,3.759,3.759,0,0,1,2.575.822,2.964,2.964,0,0,1,.967,2.263v4.377a5.351,5.351,0,0,0,.334,2.083V0Zm-2.7-1.239a2.858,2.858,0,0,0,1.45-.4,2.392,2.392,0,0,0,.993-1.028V-4.614h-1.274q-2.988,0-2.988,1.749a1.48,1.48,0,0,0,.51,1.2A1.959,1.959,0,0,0,122.52-1.239Zm8.156-8.271.053,1.2a3.465,3.465,0,0,1,2.848-1.371q3.015,0,3.041,3.4V0h-1.626V-6.293a2.189,2.189,0,0,0-.47-1.521,1.884,1.884,0,0,0-1.437-.492,2.347,2.347,0,0,0-1.389.422,2.865,2.865,0,0,0-.932,1.107V0h-1.626V-9.51Zm17.341,7.269L151.673-12.8h1.846L148.772,0h-1.494l-4.737-12.8h1.837ZM160.084,0a3.416,3.416,0,0,1-.229-1A3.628,3.628,0,0,1,157.149.176a3.357,3.357,0,0,1-2.307-.8,2.573,2.573,0,0,1-.9-2.017,2.688,2.688,0,0,1,1.129-2.307,5.325,5.325,0,0,1,3.177-.822h1.582v-.747a1.826,1.826,0,0,0-.51-1.358,2.049,2.049,0,0,0-1.5-.505,2.371,2.371,0,0,0-1.459.439,1.3,1.3,0,0,0-.589,1.063h-1.635a2.244,2.244,0,0,1,.505-1.375,3.449,3.449,0,0,1,1.371-1.05,4.613,4.613,0,0,1,1.9-.387,3.759,3.759,0,0,1,2.575.822,2.964,2.964,0,0,1,.967,2.263v4.377a5.351,5.351,0,0,0,.334,2.083V0Zm-2.7-1.239a2.858,2.858,0,0,0,1.45-.4,2.392,2.392,0,0,0,.993-1.028V-4.614h-1.274q-2.988,0-2.988,1.749a1.48,1.48,0,0,0,.51,1.2A1.959,1.959,0,0,0,157.386-1.239ZM165.771,0h-1.626V-13.5h1.626Zm4.368,0h-1.626V-13.5h1.626Zm6.548.176a4.155,4.155,0,0,1-3.146-1.27,4.714,4.714,0,0,1-1.213-3.4v-.3a5.707,5.707,0,0,1,.541-2.527,4.217,4.217,0,0,1,1.512-1.74,3.8,3.8,0,0,1,2.1-.628,3.562,3.562,0,0,1,2.883,1.222,5.289,5.289,0,0,1,1.028,3.5v.677h-6.442a3.38,3.38,0,0,0,.822,2.272,2.583,2.583,0,0,0,2,.866,2.832,2.832,0,0,0,1.459-.352,3.666,3.666,0,0,0,1.046-.932l.993.773A3.993,3.993,0,0,1,176.687.176Zm-.2-8.525a2.169,2.169,0,0,0-1.652.716,3.482,3.482,0,0,0-.826,2.008h4.764v-.123a3.1,3.1,0,0,0-.668-1.92A2.042,2.042,0,0,0,176.485-8.35Zm7.471-1.16V1.1q0,2.742-2.487,2.742a3.034,3.034,0,0,1-.993-.157V2.391a3.144,3.144,0,0,0,.738.07,1.1,1.1,0,0,0,.831-.295,1.457,1.457,0,0,0,.286-1.025V-9.51Zm-1.793-2.522a.975.975,0,0,1,.242-.664.889.889,0,0,1,.708-.277.922.922,0,0,1,.721.272.96.96,0,0,1,.246.668.929.929,0,0,1-.246.659.938.938,0,0,1-.721.264.909.909,0,0,1-.712-.264A.949.949,0,0,1,182.162-12.032Zm3.981,7.189a5.617,5.617,0,0,1,.549-2.514,4.1,4.1,0,0,1,1.529-1.723,4.163,4.163,0,0,1,2.237-.606A4.01,4.01,0,0,1,193.6-8.341a5.174,5.174,0,0,1,1.2,3.577v.114a5.666,5.666,0,0,1-.532,2.492,4.038,4.038,0,0,1-1.521,1.718,4.211,4.211,0,0,1-2.272.615,4,4,0,0,1-3.133-1.345,5.147,5.147,0,0,1-1.2-3.56Zm1.635.193a4.068,4.068,0,0,0,.734,2.54,2.349,2.349,0,0,0,1.964.958,2.335,2.335,0,0,0,1.969-.971,4.449,4.449,0,0,0,.729-2.72,4.061,4.061,0,0,0-.743-2.536,2.361,2.361,0,0,0-1.973-.971,2.335,2.335,0,0,0-1.942.958A4.416,4.416,0,0,0,187.779-4.649Z" transform="translate(202.74 143.62)" fill="#12263f"/>
      <path id="Trazado_227965" data-name="Trazado 227965" d="M10.9-4.061A4.708,4.708,0,0,1,9.4-.927,4.911,4.911,0,0,1,6.047.176,4.509,4.509,0,0,1,2.413-1.45,6.542,6.542,0,0,1,1.046-5.8v-1.23a7.291,7.291,0,0,1,.637-3.138,4.76,4.76,0,0,1,1.806-2.079A5.029,5.029,0,0,1,6.2-12.973a4.624,4.624,0,0,1,3.27,1.138A4.765,4.765,0,0,1,10.9-8.684H9.2a3.677,3.677,0,0,0-.954-2.222A2.885,2.885,0,0,0,6.2-11.593a3.019,3.019,0,0,0-2.536,1.2,5.492,5.492,0,0,0-.918,3.4v1.24a5.645,5.645,0,0,0,.87,3.316A2.812,2.812,0,0,0,6.047-1.2,3.247,3.247,0,0,0,8.2-1.841a3.536,3.536,0,0,0,1-2.219Zm1.617-.782a5.617,5.617,0,0,1,.549-2.514,4.1,4.1,0,0,1,1.529-1.723,4.163,4.163,0,0,1,2.237-.606,4.01,4.01,0,0,1,3.142,1.345,5.174,5.174,0,0,1,1.2,3.577v.114a5.666,5.666,0,0,1-.532,2.492A4.038,4.038,0,0,1,19.121-.439a4.211,4.211,0,0,1-2.272.615,4,4,0,0,1-3.133-1.345,5.147,5.147,0,0,1-1.2-3.56Zm1.635.193a4.068,4.068,0,0,0,.734,2.54,2.349,2.349,0,0,0,1.964.958,2.335,2.335,0,0,0,1.969-.971,4.449,4.449,0,0,0,.729-2.72A4.061,4.061,0,0,0,18.8-7.378a2.361,2.361,0,0,0-1.973-.971,2.335,2.335,0,0,0-1.942.958A4.416,4.416,0,0,0,14.15-4.649Zm10.6-4.86.053,1.2A3.465,3.465,0,0,1,27.65-9.686q3.015,0,3.041,3.4V0H29.065V-6.293a2.189,2.189,0,0,0-.47-1.521,1.884,1.884,0,0,0-1.437-.492,2.347,2.347,0,0,0-1.389.422,2.865,2.865,0,0,0-.932,1.107V0H23.212V-9.51ZM38.681-2.522a1.2,1.2,0,0,0-.5-1.024,4.78,4.78,0,0,0-1.731-.628,8.186,8.186,0,0,1-1.96-.633,2.788,2.788,0,0,1-1.072-.879A2.1,2.1,0,0,1,33.073-6.9a2.467,2.467,0,0,1,.989-1.978,3.861,3.861,0,0,1,2.527-.809,3.974,3.974,0,0,1,2.624.835,2.652,2.652,0,0,1,1.006,2.136H38.584a1.468,1.468,0,0,0-.567-1.151,2.124,2.124,0,0,0-1.428-.483,2.223,2.223,0,0,0-1.389.387,1.217,1.217,0,0,0-.5,1.011.986.986,0,0,0,.466.888,5.731,5.731,0,0,0,1.683.571,8.77,8.77,0,0,1,1.973.65,2.878,2.878,0,0,1,1.121.91,2.237,2.237,0,0,1,.365,1.3,2.434,2.434,0,0,1-1.02,2.043,4.277,4.277,0,0,1-2.646.769,4.789,4.789,0,0,1-2.021-.4,3.288,3.288,0,0,1-1.375-1.129,2.722,2.722,0,0,1-.5-1.569h1.626a1.683,1.683,0,0,0,.655,1.3,2.54,2.54,0,0,0,1.613.479,2.622,2.622,0,0,0,1.481-.374A1.148,1.148,0,0,0,38.681-2.522Zm5.95-9.29v2.3h1.775v1.257H44.631v5.9a1.32,1.32,0,0,0,.237.858,1,1,0,0,0,.809.286,3.937,3.937,0,0,0,.773-.105V0A4.742,4.742,0,0,1,45.2.176a2.025,2.025,0,0,1-1.644-.659A2.832,2.832,0,0,1,43-2.355v-5.9H41.273V-9.51H43v-2.3ZM50.071,0H48.445V-9.51h1.626ZM48.313-12.032a.971.971,0,0,1,.242-.668.907.907,0,0,1,.716-.272.922.922,0,0,1,.721.272.96.96,0,0,1,.246.668.929.929,0,0,1-.246.659.938.938,0,0,1-.721.264.924.924,0,0,1-.716-.264A.938.938,0,0,1,48.313-12.032Zm6.565.22v2.3h1.775v1.257H54.879v5.9a1.32,1.32,0,0,0,.237.858,1,1,0,0,0,.809.286A3.937,3.937,0,0,0,56.7-1.31V0A4.742,4.742,0,0,1,55.45.176a2.025,2.025,0,0,1-1.644-.659,2.832,2.832,0,0,1-.554-1.872v-5.9H51.521V-9.51h1.731v-2.3ZM64.424-.94A3.454,3.454,0,0,1,61.638.176a2.956,2.956,0,0,1-2.316-.883,3.823,3.823,0,0,1-.8-2.615V-9.51h1.626v6.144Q60.144-1.2,61.9-1.2A2.434,2.434,0,0,0,64.38-2.593V-9.51h1.626V0H64.459Zm7.866-.211a2.342,2.342,0,0,0,1.521-.527A1.855,1.855,0,0,0,74.531-3h1.538a2.949,2.949,0,0,1-.562,1.556A3.7,3.7,0,0,1,74.123-.264,3.994,3.994,0,0,1,72.29.176a3.918,3.918,0,0,1-3.089-1.3,5.163,5.163,0,0,1-1.147-3.546v-.272a5.725,5.725,0,0,1,.51-2.47,3.883,3.883,0,0,1,1.463-1.679,4.157,4.157,0,0,1,2.254-.6,3.814,3.814,0,0,1,2.659.958A3.424,3.424,0,0,1,76.069-6.24H74.531a2.241,2.241,0,0,0-.7-1.516,2.174,2.174,0,0,0-1.551-.593,2.276,2.276,0,0,0-1.92.892,4.19,4.19,0,0,0-.681,2.58v.308a4.106,4.106,0,0,0,.677,2.531A2.287,2.287,0,0,0,72.29-1.151ZM79.664,0H78.038V-9.51h1.626ZM77.906-12.032a.971.971,0,0,1,.242-.668.907.907,0,0,1,.716-.272.922.922,0,0,1,.721.272.96.96,0,0,1,.246.668.929.929,0,0,1-.246.659.938.938,0,0,1-.721.264.924.924,0,0,1-.716-.264A.938.938,0,0,1,77.906-12.032Zm3.929,7.189a5.617,5.617,0,0,1,.549-2.514,4.1,4.1,0,0,1,1.529-1.723,4.163,4.163,0,0,1,2.237-.606,4.01,4.01,0,0,1,3.142,1.345,5.174,5.174,0,0,1,1.2,3.577v.114a5.666,5.666,0,0,1-.532,2.492A4.038,4.038,0,0,1,88.44-.439a4.211,4.211,0,0,1-2.272.615,4,4,0,0,1-3.133-1.345,5.147,5.147,0,0,1-1.2-3.56Zm1.635.193a4.068,4.068,0,0,0,.734,2.54,2.349,2.349,0,0,0,1.964.958,2.335,2.335,0,0,0,1.969-.971,4.449,4.449,0,0,0,.729-2.72,4.061,4.061,0,0,0-.743-2.536A2.361,2.361,0,0,0,86.15-8.35a2.335,2.335,0,0,0-1.942.958A4.416,4.416,0,0,0,83.47-4.649ZM86.889-13.5h1.969L86.5-10.916l-1.31,0Zm7.181,3.99.053,1.2A3.465,3.465,0,0,1,96.97-9.686q3.015,0,3.041,3.4V0H98.385V-6.293a2.189,2.189,0,0,0-.47-1.521,1.884,1.884,0,0,0-1.437-.492,2.347,2.347,0,0,0-1.389.422,2.865,2.865,0,0,0-.932,1.107V0H92.531V-9.51Zm12.454,4.676a5.571,5.571,0,0,1,1.037-3.52,3.28,3.28,0,0,1,2.716-1.332,3.3,3.3,0,0,1,2.646,1.143V-13.5h1.626V0h-1.494l-.079-1.02a3.311,3.311,0,0,1-2.716,1.2,3.248,3.248,0,0,1-2.694-1.354,5.634,5.634,0,0,1-1.042-3.533Zm1.626.185a4.218,4.218,0,0,0,.668,2.531,2.159,2.159,0,0,0,1.846.914,2.372,2.372,0,0,0,2.259-1.389V-6.961a2.39,2.39,0,0,0-2.241-1.345,2.17,2.17,0,0,0-1.863.923A4.644,4.644,0,0,0,108.149-4.649ZM121.017.176a4.155,4.155,0,0,1-3.146-1.27,4.714,4.714,0,0,1-1.213-3.4v-.3a5.707,5.707,0,0,1,.541-2.527,4.217,4.217,0,0,1,1.512-1.74,3.8,3.8,0,0,1,2.1-.628A3.562,3.562,0,0,1,123.7-8.464a5.289,5.289,0,0,1,1.028,3.5v.677h-6.442a3.38,3.38,0,0,0,.822,2.272,2.583,2.583,0,0,0,2,.866,2.832,2.832,0,0,0,1.459-.352,3.666,3.666,0,0,0,1.046-.932l.993.773A3.993,3.993,0,0,1,121.017.176Zm-.2-8.525a2.169,2.169,0,0,0-1.652.716,3.482,3.482,0,0,0-.826,2.008H123.1v-.123a3.1,3.1,0,0,0-.668-1.92A2.042,2.042,0,0,0,120.814-8.35Zm9.861,3.516A5.589,5.589,0,0,1,131.7-8.372a3.289,3.289,0,0,1,2.725-1.314,3.271,3.271,0,0,1,2.716,1.23l.079-1.055h1.485V-.229a3.869,3.869,0,0,1-1.094,2.909,4.038,4.038,0,0,1-2.94,1.063,4.891,4.891,0,0,1-2.013-.439,3.465,3.465,0,0,1-1.5-1.2L132,1.125a3.18,3.18,0,0,0,2.558,1.292,2.491,2.491,0,0,0,1.85-.668,2.553,2.553,0,0,0,.664-1.881V-.949A3.342,3.342,0,0,1,134.411.176a3.248,3.248,0,0,1-2.7-1.345A5.876,5.876,0,0,1,130.676-4.834Zm1.635.185a4.264,4.264,0,0,0,.659,2.527,2.142,2.142,0,0,0,1.846.918,2.382,2.382,0,0,0,2.259-1.4V-6.943a2.41,2.41,0,0,0-2.241-1.362,2.161,2.161,0,0,0-1.854.923A4.644,4.644,0,0,0,132.311-4.649ZM147.032,0a3.416,3.416,0,0,1-.229-1A3.628,3.628,0,0,1,144.1.176a3.357,3.357,0,0,1-2.307-.8,2.573,2.573,0,0,1-.9-2.017,2.688,2.688,0,0,1,1.129-2.307,5.325,5.325,0,0,1,3.177-.822h1.582v-.747a1.826,1.826,0,0,0-.51-1.358,2.049,2.049,0,0,0-1.5-.505,2.371,2.371,0,0,0-1.459.439,1.3,1.3,0,0,0-.589,1.063h-1.635a2.244,2.244,0,0,1,.505-1.375,3.449,3.449,0,0,1,1.371-1.05,4.613,4.613,0,0,1,1.9-.387,3.759,3.759,0,0,1,2.575.822A2.964,2.964,0,0,1,148.4-6.6v4.377a5.351,5.351,0,0,0,.334,2.083V0Zm-2.7-1.239a2.858,2.858,0,0,0,1.45-.4,2.392,2.392,0,0,0,.993-1.028V-4.614H145.5q-2.988,0-2.988,1.749a1.48,1.48,0,0,0,.51,1.2A1.959,1.959,0,0,0,144.334-1.239Zm11.215-6.812a4.873,4.873,0,0,0-.8-.062,2.143,2.143,0,0,0-2.171,1.362V0h-1.626V-9.51h1.582l.026,1.1a2.532,2.532,0,0,1,2.268-1.274,1.661,1.661,0,0,1,.721.123ZM162.2,0a3.416,3.416,0,0,1-.229-1A3.628,3.628,0,0,1,159.267.176a3.357,3.357,0,0,1-2.307-.8,2.573,2.573,0,0,1-.9-2.017,2.688,2.688,0,0,1,1.129-2.307,5.325,5.325,0,0,1,3.177-.822h1.582v-.747a1.826,1.826,0,0,0-.51-1.358,2.049,2.049,0,0,0-1.5-.505,2.371,2.371,0,0,0-1.459.439,1.3,1.3,0,0,0-.589,1.063h-1.635a2.244,2.244,0,0,1,.505-1.375,3.449,3.449,0,0,1,1.371-1.05,4.613,4.613,0,0,1,1.9-.387,3.759,3.759,0,0,1,2.575.822,2.964,2.964,0,0,1,.967,2.263v4.377a5.351,5.351,0,0,0,.334,2.083V0Zm-2.7-1.239a2.858,2.858,0,0,0,1.45-.4,2.392,2.392,0,0,0,.993-1.028V-4.614h-1.274q-2.988,0-2.988,1.749a1.48,1.48,0,0,0,.51,1.2A1.959,1.959,0,0,0,159.5-1.239Zm8.156-8.271.053,1.2a3.465,3.465,0,0,1,2.848-1.371q3.015,0,3.041,3.4V0h-1.626V-6.293a2.189,2.189,0,0,0-.47-1.521,1.884,1.884,0,0,0-1.437-.492,2.347,2.347,0,0,0-1.389.422,2.865,2.865,0,0,0-.932,1.107V0h-1.626V-9.51Zm10.6-2.3v2.3h1.775v1.257H178.26v5.9a1.32,1.32,0,0,0,.237.858,1,1,0,0,0,.809.286,3.937,3.937,0,0,0,.773-.105V0a4.742,4.742,0,0,1-1.248.175,2.025,2.025,0,0,1-1.644-.659,2.832,2.832,0,0,1-.554-1.872v-5.9H174.9V-9.51h1.731v-2.3ZM183.7,0h-1.635V-9.51H183.7Zm.018-13.491h1.969l-2.355,2.584-1.31,0ZM192.252,0a3.416,3.416,0,0,1-.229-1A3.628,3.628,0,0,1,189.317.176a3.357,3.357,0,0,1-2.307-.8,2.573,2.573,0,0,1-.9-2.017,2.688,2.688,0,0,1,1.129-2.307,5.325,5.325,0,0,1,3.177-.822H192v-.747a1.826,1.826,0,0,0-.51-1.358,2.049,2.049,0,0,0-1.5-.505,2.371,2.371,0,0,0-1.459.439,1.3,1.3,0,0,0-.589,1.063H186.3a2.244,2.244,0,0,1,.505-1.375,3.449,3.449,0,0,1,1.371-1.05,4.613,4.613,0,0,1,1.9-.387,3.759,3.759,0,0,1,2.575.822,2.964,2.964,0,0,1,.967,2.263v4.377a5.351,5.351,0,0,0,.334,2.083V0Zm-2.7-1.239a2.858,2.858,0,0,0,1.45-.4A2.392,2.392,0,0,0,192-2.663V-4.614h-1.274q-2.988,0-2.988,1.749a1.48,1.48,0,0,0,.51,1.2A1.959,1.959,0,0,0,189.554-1.239Z" transform="translate(845.14 143.62)" fill="#12263f"/>
      <path id="Trazado_227975" data-name="Trazado 227975" d="M8.552-3.349H3.19L1.986,0H.246L5.133-12.8H6.609L11.5,0H9.773ZM3.7-4.729H8.051l-2.18-5.985ZM18.664-.94A3.454,3.454,0,0,1,15.878.176a2.956,2.956,0,0,1-2.316-.883,3.823,3.823,0,0,1-.8-2.615V-9.51h1.626v6.144q0,2.162,1.758,2.162A2.434,2.434,0,0,0,18.62-2.593V-9.51h1.626V0H18.7Zm6.258-10.872v2.3H26.7v1.257H24.922v5.9a1.32,1.32,0,0,0,.237.858,1,1,0,0,0,.809.286,3.937,3.937,0,0,0,.773-.105V0a4.742,4.742,0,0,1-1.248.175,2.025,2.025,0,0,1-1.644-.659A2.832,2.832,0,0,1,23.3-2.355v-5.9H21.564V-9.51H23.3v-2.3Zm2.887,6.97a5.617,5.617,0,0,1,.549-2.514,4.1,4.1,0,0,1,1.529-1.723,4.163,4.163,0,0,1,2.237-.606,4.01,4.01,0,0,1,3.142,1.345,5.174,5.174,0,0,1,1.2,3.577v.114a5.666,5.666,0,0,1-.532,2.492A4.038,4.038,0,0,1,34.414-.439a4.211,4.211,0,0,1-2.272.615,4,4,0,0,1-3.133-1.345,5.147,5.147,0,0,1-1.2-3.56Zm1.635.193a4.068,4.068,0,0,0,.734,2.54,2.349,2.349,0,0,0,1.964.958,2.335,2.335,0,0,0,1.969-.971,4.449,4.449,0,0,0,.729-2.72A4.061,4.061,0,0,0,34.1-7.378a2.361,2.361,0,0,0-1.973-.971,2.335,2.335,0,0,0-1.942.958A4.416,4.416,0,0,0,29.444-4.649ZM43.1-8.051a4.873,4.873,0,0,0-.8-.062A2.143,2.143,0,0,0,40.131-6.75V0H38.505V-9.51h1.582l.026,1.1a2.532,2.532,0,0,1,2.268-1.274,1.661,1.661,0,0,1,.721.123ZM46.363,0H44.737V-9.51h1.626ZM44.6-12.032a.971.971,0,0,1,.242-.668.907.907,0,0,1,.716-.272.922.922,0,0,1,.721.272.96.96,0,0,1,.246.668.929.929,0,0,1-.246.659.938.938,0,0,1-.721.264.924.924,0,0,1-.716-.264A.938.938,0,0,1,44.6-12.032ZM50.494-1.327h5.563V0h-7.55V-1.2l5.247-6.97H48.586V-9.51h7.207v1.151ZM63.756,0a3.416,3.416,0,0,1-.229-1A3.628,3.628,0,0,1,60.821.176a3.357,3.357,0,0,1-2.307-.8,2.573,2.573,0,0,1-.9-2.017,2.688,2.688,0,0,1,1.129-2.307,5.325,5.325,0,0,1,3.177-.822H63.5v-.747a1.826,1.826,0,0,0-.51-1.358,2.049,2.049,0,0,0-1.5-.505,2.371,2.371,0,0,0-1.459.439,1.3,1.3,0,0,0-.589,1.063H57.806a2.244,2.244,0,0,1,.505-1.375A3.449,3.449,0,0,1,59.682-9.3a4.613,4.613,0,0,1,1.9-.387,3.759,3.759,0,0,1,2.575.822A2.964,2.964,0,0,1,65.127-6.6v4.377a5.351,5.351,0,0,0,.334,2.083V0Zm-2.7-1.239a2.858,2.858,0,0,0,1.45-.4A2.392,2.392,0,0,0,63.5-2.663V-4.614H62.227q-2.988,0-2.988,1.749a1.48,1.48,0,0,0,.51,1.2A1.959,1.959,0,0,0,61.058-1.239Zm10.433.088a2.342,2.342,0,0,0,1.521-.527A1.855,1.855,0,0,0,73.732-3H75.27a2.949,2.949,0,0,1-.562,1.556A3.7,3.7,0,0,1,73.323-.264a3.994,3.994,0,0,1-1.833.439,3.918,3.918,0,0,1-3.089-1.3,5.163,5.163,0,0,1-1.147-3.546v-.272a5.725,5.725,0,0,1,.51-2.47,3.883,3.883,0,0,1,1.463-1.679,4.157,4.157,0,0,1,2.254-.6,3.814,3.814,0,0,1,2.659.958A3.424,3.424,0,0,1,75.27-6.24H73.732a2.241,2.241,0,0,0-.7-1.516,2.174,2.174,0,0,0-1.551-.593,2.276,2.276,0,0,0-1.92.892,4.19,4.19,0,0,0-.681,2.58v.308a4.106,4.106,0,0,0,.677,2.531A2.287,2.287,0,0,0,71.491-1.151ZM78.865,0H77.239V-9.51h1.626ZM77.107-12.032a.971.971,0,0,1,.242-.668.907.907,0,0,1,.716-.272.922.922,0,0,1,.721.272.96.96,0,0,1,.246.668.929.929,0,0,1-.246.659.938.938,0,0,1-.721.264.924.924,0,0,1-.716-.264A.938.938,0,0,1,77.107-12.032Zm3.929,7.189a5.617,5.617,0,0,1,.549-2.514,4.1,4.1,0,0,1,1.529-1.723,4.163,4.163,0,0,1,2.237-.606,4.01,4.01,0,0,1,3.142,1.345,5.174,5.174,0,0,1,1.2,3.577v.114a5.666,5.666,0,0,1-.532,2.492A4.038,4.038,0,0,1,87.64-.439a4.211,4.211,0,0,1-2.272.615,4,4,0,0,1-3.133-1.345,5.147,5.147,0,0,1-1.2-3.56Zm1.635.193a4.068,4.068,0,0,0,.734,2.54,2.349,2.349,0,0,0,1.964.958,2.335,2.335,0,0,0,1.969-.971,4.449,4.449,0,0,0,.729-2.72,4.061,4.061,0,0,0-.743-2.536,2.361,2.361,0,0,0-1.973-.971,2.335,2.335,0,0,0-1.942.958A4.416,4.416,0,0,0,82.67-4.649ZM86.089-13.5h1.969L85.7-10.916l-1.31,0ZM93.27-9.51l.053,1.2A3.465,3.465,0,0,1,96.17-9.686q3.015,0,3.041,3.4V0H97.585V-6.293a2.189,2.189,0,0,0-.47-1.521,1.884,1.884,0,0,0-1.437-.492,2.347,2.347,0,0,0-1.389.422,2.865,2.865,0,0,0-.932,1.107V0H91.732V-9.51Zm12.454,4.676a5.571,5.571,0,0,1,1.037-3.52,3.28,3.28,0,0,1,2.716-1.332,3.3,3.3,0,0,1,2.646,1.143V-13.5h1.626V0h-1.494l-.079-1.02a3.311,3.311,0,0,1-2.716,1.2,3.248,3.248,0,0,1-2.694-1.354,5.634,5.634,0,0,1-1.042-3.533Zm1.626.185a4.218,4.218,0,0,0,.668,2.531,2.159,2.159,0,0,0,1.846.914,2.372,2.372,0,0,0,2.259-1.389V-6.961a2.39,2.39,0,0,0-2.241-1.345,2.17,2.17,0,0,0-1.863.923A4.644,4.644,0,0,0,107.35-4.649ZM120.217.176a4.155,4.155,0,0,1-3.146-1.27,4.714,4.714,0,0,1-1.213-3.4v-.3a5.707,5.707,0,0,1,.541-2.527,4.217,4.217,0,0,1,1.512-1.74,3.8,3.8,0,0,1,2.1-.628A3.562,3.562,0,0,1,122.9-8.464a5.289,5.289,0,0,1,1.028,3.5v.677h-6.442a3.38,3.38,0,0,0,.822,2.272,2.583,2.583,0,0,0,2,.866,2.832,2.832,0,0,0,1.459-.352,3.666,3.666,0,0,0,1.046-.932l.993.773A3.993,3.993,0,0,1,120.217.176Zm-.2-8.525a2.169,2.169,0,0,0-1.652.716,3.482,3.482,0,0,0-.826,2.008H122.3v-.123a3.1,3.1,0,0,0-.668-1.92A2.042,2.042,0,0,0,120.015-8.35ZM127.574,0h-1.626V-13.5h1.626Zm15.091-4.649a5.694,5.694,0,0,1-.993,3.5A3.183,3.183,0,0,1,138.982.176a3.488,3.488,0,0,1-2.725-1.1V3.656h-1.626V-9.51h1.485l.079,1.055a3.35,3.35,0,0,1,2.76-1.23,3.243,3.243,0,0,1,2.711,1.292,5.756,5.756,0,0,1,1,3.595Zm-1.626-.185a4.2,4.2,0,0,0-.686-2.54,2.208,2.208,0,0,0-1.881-.932A2.39,2.39,0,0,0,136.257-7v4.544a2.4,2.4,0,0,0,2.232,1.3,2.2,2.2,0,0,0,1.859-.927A4.587,4.587,0,0,0,141.038-4.834Zm8.288-3.217a4.873,4.873,0,0,0-.8-.062,2.143,2.143,0,0,0-2.171,1.362V0H144.73V-9.51h1.582l.026,1.1a2.532,2.532,0,0,1,2.268-1.274,1.661,1.661,0,0,1,.721.123Zm.708,3.208a5.617,5.617,0,0,1,.549-2.514,4.1,4.1,0,0,1,1.529-1.723,4.163,4.163,0,0,1,2.237-.606,4.01,4.01,0,0,1,3.142,1.345,5.174,5.174,0,0,1,1.2,3.577v.114a5.666,5.666,0,0,1-.532,2.492,4.038,4.038,0,0,1-1.521,1.718,4.211,4.211,0,0,1-2.272.615,4,4,0,0,1-3.133-1.345,5.147,5.147,0,0,1-1.2-3.56Zm1.635.193a4.068,4.068,0,0,0,.734,2.54,2.349,2.349,0,0,0,1.964.958,2.335,2.335,0,0,0,1.969-.971,4.449,4.449,0,0,0,.729-2.72,4.061,4.061,0,0,0-.743-2.536,2.361,2.361,0,0,0-1.973-.971,2.335,2.335,0,0,0-1.942.958A4.416,4.416,0,0,0,151.669-4.649Zm8.675-.185a5.589,5.589,0,0,1,1.028-3.538A3.289,3.289,0,0,1,164.1-9.686a3.271,3.271,0,0,1,2.716,1.23l.079-1.055h1.485V-.229a3.869,3.869,0,0,1-1.094,2.909,4.038,4.038,0,0,1-2.94,1.063A4.891,4.891,0,0,1,162.33,3.3a3.465,3.465,0,0,1-1.5-1.2l.844-.976a3.18,3.18,0,0,0,2.558,1.292,2.491,2.491,0,0,0,1.85-.668,2.553,2.553,0,0,0,.664-1.881V-.949A3.342,3.342,0,0,1,164.079.176a3.248,3.248,0,0,1-2.7-1.345A5.876,5.876,0,0,1,160.344-4.834Zm1.635.185a4.264,4.264,0,0,0,.659,2.527,2.142,2.142,0,0,0,1.846.918,2.382,2.382,0,0,0,2.259-1.4V-6.943A2.41,2.41,0,0,0,164.5-8.306a2.161,2.161,0,0,0-1.854.923A4.644,4.644,0,0,0,161.979-4.649Zm13.447-3.4a4.873,4.873,0,0,0-.8-.062,2.143,2.143,0,0,0-2.171,1.362V0h-1.626V-9.51h1.582l.026,1.1a2.532,2.532,0,0,1,2.268-1.274,1.661,1.661,0,0,1,.721.123ZM182.079,0a3.416,3.416,0,0,1-.229-1A3.628,3.628,0,0,1,179.144.176a3.357,3.357,0,0,1-2.307-.8,2.573,2.573,0,0,1-.9-2.017,2.688,2.688,0,0,1,1.129-2.307,5.325,5.325,0,0,1,3.177-.822h1.582v-.747a1.826,1.826,0,0,0-.51-1.358,2.049,2.049,0,0,0-1.5-.505,2.371,2.371,0,0,0-1.459.439,1.3,1.3,0,0,0-.589,1.063h-1.635a2.244,2.244,0,0,1,.505-1.375,3.449,3.449,0,0,1,1.371-1.05,4.613,4.613,0,0,1,1.9-.387,3.759,3.759,0,0,1,2.575.822,2.964,2.964,0,0,1,.967,2.263v4.377a5.351,5.351,0,0,0,.334,2.083V0Zm-2.7-1.239a2.858,2.858,0,0,0,1.45-.4,2.392,2.392,0,0,0,.993-1.028V-4.614H180.55q-2.988,0-2.988,1.749a1.48,1.48,0,0,0,.51,1.2A1.959,1.959,0,0,0,179.381-1.239Zm8.147-8.271.044,1.055a3.512,3.512,0,0,1,2.821-1.23,2.719,2.719,0,0,1,2.716,1.529,3.6,3.6,0,0,1,1.235-1.107,3.647,3.647,0,0,1,1.8-.422q3.129,0,3.182,3.313V0H197.7V-6.275a2.184,2.184,0,0,0-.466-1.525,2.051,2.051,0,0,0-1.564-.505,2.156,2.156,0,0,0-1.5.541,2.193,2.193,0,0,0-.694,1.455V0h-1.635V-6.231a1.814,1.814,0,0,0-2.03-2.074,2.175,2.175,0,0,0-2.188,1.362V0h-1.626V-9.51ZM207.647,0a3.416,3.416,0,0,1-.229-1A3.628,3.628,0,0,1,204.711.176a3.357,3.357,0,0,1-2.307-.8,2.573,2.573,0,0,1-.9-2.017,2.688,2.688,0,0,1,1.129-2.307,5.325,5.325,0,0,1,3.177-.822h1.582v-.747a1.826,1.826,0,0,0-.51-1.358,2.049,2.049,0,0,0-1.5-.505,2.371,2.371,0,0,0-1.459.439,1.3,1.3,0,0,0-.589,1.063H201.7a2.244,2.244,0,0,1,.505-1.375,3.449,3.449,0,0,1,1.371-1.05,4.613,4.613,0,0,1,1.9-.387,3.759,3.759,0,0,1,2.575.822,2.964,2.964,0,0,1,.967,2.263v4.377a5.351,5.351,0,0,0,.334,2.083V0Zm-2.7-1.239a2.858,2.858,0,0,0,1.45-.4,2.392,2.392,0,0,0,.993-1.028V-4.614h-1.274q-2.988,0-2.988,1.749a1.48,1.48,0,0,0,.51,1.2A1.959,1.959,0,0,0,204.949-1.239ZM9.264,16.951a5.694,5.694,0,0,1-.993,3.5,3.183,3.183,0,0,1-2.689,1.327,3.488,3.488,0,0,1-2.725-1.1v4.579H1.23V12.09H2.716l.079,1.055a3.35,3.35,0,0,1,2.76-1.23,3.243,3.243,0,0,1,2.711,1.292,5.756,5.756,0,0,1,1,3.595Zm-1.626-.185a4.2,4.2,0,0,0-.686-2.54,2.208,2.208,0,0,0-1.881-.932A2.39,2.39,0,0,0,2.856,14.6v4.544a2.4,2.4,0,0,0,2.232,1.3,2.2,2.2,0,0,0,1.859-.927A4.587,4.587,0,0,0,7.638,16.766Zm3.261-.009a5.617,5.617,0,0,1,.549-2.514,4.1,4.1,0,0,1,1.529-1.723,4.163,4.163,0,0,1,2.237-.606,4.01,4.01,0,0,1,3.142,1.345,5.174,5.174,0,0,1,1.2,3.577v.114a5.666,5.666,0,0,1-.532,2.492A4.038,4.038,0,0,1,17.5,21.161a4.211,4.211,0,0,1-2.272.615A4,4,0,0,1,12.1,20.431a5.147,5.147,0,0,1-1.2-3.56Zm1.635.193a4.068,4.068,0,0,0,.734,2.54,2.487,2.487,0,0,0,3.933-.013,4.449,4.449,0,0,0,.729-2.72,4.061,4.061,0,0,0-.743-2.536,2.361,2.361,0,0,0-1.973-.971,2.335,2.335,0,0,0-1.942.958A4.416,4.416,0,0,0,12.533,16.951Zm13.658-3.4a4.873,4.873,0,0,0-.8-.062,2.143,2.143,0,0,0-2.171,1.362V21.6H21.595V12.09h1.582l.026,1.1a2.532,2.532,0,0,1,2.268-1.274,1.661,1.661,0,0,1,.721.123Zm13.983,3.4a5.694,5.694,0,0,1-.993,3.5,3.183,3.183,0,0,1-2.689,1.327,3.488,3.488,0,0,1-2.725-1.1v4.579H32.142V12.09h1.485l.079,1.055a3.35,3.35,0,0,1,2.76-1.23,3.243,3.243,0,0,1,2.711,1.292,5.756,5.756,0,0,1,1,3.595Zm-1.626-.185a4.2,4.2,0,0,0-.686-2.54,2.208,2.208,0,0,0-1.881-.932,2.39,2.39,0,0,0-2.215,1.31v4.544A2.4,2.4,0,0,0,36,20.449a2.2,2.2,0,0,0,1.859-.927A4.587,4.587,0,0,0,38.549,16.766ZM48.111,21.6a3.416,3.416,0,0,1-.229-1,3.628,3.628,0,0,1-2.707,1.178,3.357,3.357,0,0,1-2.307-.8,2.573,2.573,0,0,1-.9-2.017A2.688,2.688,0,0,1,43.1,16.656a5.325,5.325,0,0,1,3.177-.822h1.582v-.747a1.826,1.826,0,0,0-.51-1.358,2.049,2.049,0,0,0-1.5-.505,2.371,2.371,0,0,0-1.459.439,1.3,1.3,0,0,0-.589,1.063H42.161a2.244,2.244,0,0,1,.505-1.375,3.449,3.449,0,0,1,1.371-1.05,4.613,4.613,0,0,1,1.9-.387,3.759,3.759,0,0,1,2.575.822A2.964,2.964,0,0,1,49.482,15v4.377a5.351,5.351,0,0,0,.334,2.083V21.6Zm-2.7-1.239a2.858,2.858,0,0,0,1.45-.4,2.392,2.392,0,0,0,.993-1.028V16.986H46.582q-2.988,0-2.988,1.749a1.48,1.48,0,0,0,.51,1.2A1.959,1.959,0,0,0,45.413,20.361Zm11.215-6.812a4.873,4.873,0,0,0-.8-.062,2.143,2.143,0,0,0-2.171,1.362V21.6H52.031V12.09h1.582l.026,1.1a2.532,2.532,0,0,1,2.268-1.274,1.661,1.661,0,0,1,.721.123Zm4.5-3.762v2.3H62.9v1.257H61.128v5.9a1.32,1.32,0,0,0,.237.858,1,1,0,0,0,.809.286,3.937,3.937,0,0,0,.773-.105V21.6a4.742,4.742,0,0,1-1.248.175,2.025,2.025,0,0,1-1.644-.659,2.832,2.832,0,0,1-.554-1.872v-5.9H57.77V12.09H59.5v-2.3Zm7.62,11.988a4.155,4.155,0,0,1-3.146-1.27,4.714,4.714,0,0,1-1.213-3.4v-.3a5.707,5.707,0,0,1,.541-2.527,4.217,4.217,0,0,1,1.512-1.74,3.8,3.8,0,0,1,2.1-.628,3.562,3.562,0,0,1,2.883,1.222,5.289,5.289,0,0,1,1.028,3.5v.677H66.014a3.38,3.38,0,0,0,.822,2.272,2.583,2.583,0,0,0,2,.866,2.832,2.832,0,0,0,1.459-.352,3.666,3.666,0,0,0,1.046-.932l.993.773A3.993,3.993,0,0,1,68.748,21.776Zm-.2-8.525a2.169,2.169,0,0,0-1.652.716,3.482,3.482,0,0,0-.826,2.008h4.764v-.123a3.1,3.1,0,0,0-.668-1.92A2.042,2.042,0,0,0,68.546,13.25ZM78.4,16.766a5.571,5.571,0,0,1,1.037-3.52,3.529,3.529,0,0,1,5.361-.189V8.1h1.626V21.6H84.928l-.079-1.02a3.311,3.311,0,0,1-2.716,1.2,3.248,3.248,0,0,1-2.694-1.354A5.634,5.634,0,0,1,78.4,16.889Zm1.626.185a4.218,4.218,0,0,0,.668,2.531,2.159,2.159,0,0,0,1.846.914A2.372,2.372,0,0,0,84.8,19.007V14.639a2.39,2.39,0,0,0-2.241-1.345,2.17,2.17,0,0,0-1.863.923A4.644,4.644,0,0,0,80.024,16.951Zm12.867,4.825a4.155,4.155,0,0,1-3.146-1.27,4.714,4.714,0,0,1-1.213-3.4v-.3a5.707,5.707,0,0,1,.541-2.527,4.217,4.217,0,0,1,1.512-1.74,3.8,3.8,0,0,1,2.1-.628,3.562,3.562,0,0,1,2.883,1.222,5.289,5.289,0,0,1,1.028,3.5v.677H90.158a3.38,3.38,0,0,0,.822,2.272,2.583,2.583,0,0,0,2,.866,2.832,2.832,0,0,0,1.459-.352,3.666,3.666,0,0,0,1.046-.932l.993.773A3.993,3.993,0,0,1,92.891,21.776Zm-.2-8.525a2.169,2.169,0,0,0-1.652.716,3.482,3.482,0,0,0-.826,2.008h4.764v-.123a3.1,3.1,0,0,0-.668-1.92A2.042,2.042,0,0,0,92.689,13.25Zm7.559,8.35H98.622V8.1h1.626ZM109.74,8.8l4.184,10.441L118.107,8.8H120.3V21.6h-1.687V16.617l.158-5.379-4.2,10.362h-1.292l-4.192-10.336.167,5.353V21.6H107.56V8.8Zm15.047,12.8h-1.626V12.09h1.626ZM123.029,9.568a.971.971,0,0,1,.242-.668.907.907,0,0,1,.716-.272.922.922,0,0,1,.721.272.96.96,0,0,1,.246.668.929.929,0,0,1-.246.659.938.938,0,0,1-.721.264.924.924,0,0,1-.716-.264A.938.938,0,0,1,123.029,9.568Zm5.9,2.522.053,1.2a3.465,3.465,0,0,1,2.848-1.371q3.015,0,3.041,3.4V21.6h-1.626V15.307a2.189,2.189,0,0,0-.47-1.521,1.884,1.884,0,0,0-1.437-.492,2.347,2.347,0,0,0-1.389.422,2.865,2.865,0,0,0-.932,1.107V21.6h-1.626V12.09Zm18.062,5.449a4.708,4.708,0,0,1-1.5,3.133,4.911,4.911,0,0,1-3.353,1.1A4.509,4.509,0,0,1,138.5,20.15a6.542,6.542,0,0,1-1.367-4.351v-1.23a7.291,7.291,0,0,1,.637-3.138,4.76,4.76,0,0,1,1.806-2.079,5.029,5.029,0,0,1,2.707-.725,4.624,4.624,0,0,1,3.27,1.138,4.765,4.765,0,0,1,1.433,3.151h-1.7a3.677,3.677,0,0,0-.954-2.222,2.885,2.885,0,0,0-2.052-.688,3.019,3.019,0,0,0-2.536,1.2,5.492,5.492,0,0,0-.918,3.4v1.24a5.645,5.645,0,0,0,.87,3.316,2.812,2.812,0,0,0,2.435,1.231,3.247,3.247,0,0,0,2.158-.637,3.536,3.536,0,0,0,1-2.219ZM151.1,21.6h-1.687V8.8H151.1Zm11.747-11.417h-4.113V21.6h-1.679V10.183h-4.1V8.8h9.9Z" transform="translate(923.95 432.25)" fill="#12263f"/>
      <g id="Grupo">
        <path id="Trazado_227961" data-name="Trazado 227961" d="M4.2-5.01V0H1.27V-14.219H6.816a6.417,6.417,0,0,1,2.817.586,4.318,4.318,0,0,1,1.87,1.665,4.643,4.643,0,0,1,.654,2.456,4.083,4.083,0,0,1-1.431,3.3A5.959,5.959,0,0,1,6.768-5.01Zm0-2.373H6.816A2.573,2.573,0,0,0,8.589-7.93,1.989,1.989,0,0,0,9.2-9.492a2.345,2.345,0,0,0-.615-1.689,2.3,2.3,0,0,0-1.7-.664H4.2ZM16.963,0H14.131V-15h2.832ZM25.41,0a3.134,3.134,0,0,1-.283-.947A3.415,3.415,0,0,1,22.461.2a3.752,3.752,0,0,1-2.573-.9,2.89,2.89,0,0,1-1.021-2.266,2.986,2.986,0,0,1,1.245-2.578,6.144,6.144,0,0,1,3.6-.908h1.3v-.605a1.741,1.741,0,0,0-.376-1.172,1.479,1.479,0,0,0-1.187-.439,1.682,1.682,0,0,0-1.118.342,1.161,1.161,0,0,0-.405.938H19.1a2.835,2.835,0,0,1,.566-1.7,3.744,3.744,0,0,1,1.6-1.226,5.837,5.837,0,0,1,2.324-.444,4.611,4.611,0,0,1,3.1.981,3.433,3.433,0,0,1,1.147,2.759v4.58a5.052,5.052,0,0,0,.42,2.275V0ZM23.076-1.963a2.431,2.431,0,0,0,1.152-.278,1.828,1.828,0,0,0,.781-.747V-4.8H23.955Q21.836-4.8,21.7-3.34l-.01.166a1.13,1.13,0,0,0,.371.869A1.441,1.441,0,0,0,23.076-1.963Zm9.531-8.6L32.7-9.346a3.689,3.689,0,0,1,3.037-1.416,3.066,3.066,0,0,1,2.5.986,4.6,4.6,0,0,1,.84,2.949V0H36.25V-6.758a1.831,1.831,0,0,0-.391-1.3,1.749,1.749,0,0,0-1.3-.405,1.942,1.942,0,0,0-1.787,1.016V0H29.951V-10.566Z" transform="translate(548.6 248.84)" fill="#12263f"/>
        <path id="Trazado_227963" data-name="Trazado 227963" d="M5.039-3.447,7-10.566H9.951L6.387,0h-2.7L.127-10.566H3.076Z" transform="translate(593.71 248.84)" fill="#12263f"/>
        <path id="Trazado_227962" data-name="Trazado 227962" d="M7.207,0a3.134,3.134,0,0,1-.283-.947A3.415,3.415,0,0,1,4.258.2,3.752,3.752,0,0,1,1.685-.7,2.89,2.89,0,0,1,.664-2.969,2.986,2.986,0,0,1,1.909-5.547a6.144,6.144,0,0,1,3.6-.908h1.3v-.605a1.741,1.741,0,0,0-.376-1.172,1.479,1.479,0,0,0-1.187-.439,1.682,1.682,0,0,0-1.118.342,1.161,1.161,0,0,0-.405.938H.9a2.835,2.835,0,0,1,.566-1.7,3.744,3.744,0,0,1,1.6-1.226,5.837,5.837,0,0,1,2.324-.444,4.611,4.611,0,0,1,3.1.981A3.433,3.433,0,0,1,9.639-7.021v4.58a5.052,5.052,0,0,0,.42,2.275V0ZM4.873-1.963a2.431,2.431,0,0,0,1.152-.278,1.828,1.828,0,0,0,.781-.747V-4.8H5.752Q3.633-4.8,3.5-3.34l-.01.166a1.13,1.13,0,0,0,.371.869A1.441,1.441,0,0,0,4.873-1.963ZM14.785,0H11.953V-15h2.832Zm5.3,0H17.256V-15h2.832Zm7.188.2A5.187,5.187,0,0,1,23.491-1.23a5.068,5.068,0,0,1-1.46-3.8V-5.3a6.383,6.383,0,0,1,.615-2.847,4.515,4.515,0,0,1,1.743-1.934,4.893,4.893,0,0,1,2.573-.679,4.385,4.385,0,0,1,3.413,1.367,5.555,5.555,0,0,1,1.245,3.877v1.152H24.893a2.622,2.622,0,0,0,.825,1.66,2.5,2.5,0,0,0,1.743.625A3.046,3.046,0,0,0,30.01-3.262L31.4-1.709a4.237,4.237,0,0,1-1.719,1.4A5.639,5.639,0,0,1,27.275.2Zm-.322-8.682a1.764,1.764,0,0,0-1.362.569,2.946,2.946,0,0,0-.669,1.628h3.926v-.226a2.1,2.1,0,0,0-.508-1.457A1.819,1.819,0,0,0,26.953-8.486Zm9.258-2.08V.576a3.78,3.78,0,0,1-.928,2.72,3.526,3.526,0,0,1-2.676.972,5.738,5.738,0,0,1-1.4-.166V1.865a5.3,5.3,0,0,0,.889.088q1.279,0,1.279-1.357V-10.566ZM33.154-13.3a1.39,1.39,0,0,1,.425-1.045,1.6,1.6,0,0,1,1.157-.41,1.6,1.6,0,0,1,1.157.41,1.39,1.39,0,0,1,.425,1.045,1.386,1.386,0,0,1-.435,1.055,1.6,1.6,0,0,1-1.147.41,1.6,1.6,0,0,1-1.147-.41A1.386,1.386,0,0,1,33.154-13.3Zm4.824,7.92a6.267,6.267,0,0,1,.605-2.8,4.432,4.432,0,0,1,1.743-1.9,5.086,5.086,0,0,1,2.642-.674A4.812,4.812,0,0,1,46.46-9.453,5.252,5.252,0,0,1,47.969-5.9l.02.723a5.523,5.523,0,0,1-1.357,3.9A4.718,4.718,0,0,1,42.988.2,4.742,4.742,0,0,1,39.341-1.27a5.62,5.62,0,0,1-1.362-3.984Zm2.822.2a3.95,3.95,0,0,0,.566,2.3,1.868,1.868,0,0,0,1.621.8,1.873,1.873,0,0,0,1.6-.787,4.322,4.322,0,0,0,.576-2.518,3.91,3.91,0,0,0-.576-2.289,1.873,1.873,0,0,0-1.621-.812,1.842,1.842,0,0,0-1.6.807A4.395,4.395,0,0,0,40.8-5.181ZM59.57.2A5.187,5.187,0,0,1,55.786-1.23a5.068,5.068,0,0,1-1.46-3.8V-5.3a6.383,6.383,0,0,1,.615-2.847,4.515,4.515,0,0,1,1.743-1.934,4.893,4.893,0,0,1,2.573-.679,4.385,4.385,0,0,1,3.413,1.367,5.555,5.555,0,0,1,1.245,3.877v1.152H57.188a2.622,2.622,0,0,0,.825,1.66,2.5,2.5,0,0,0,1.743.625A3.046,3.046,0,0,0,62.3-3.262l1.387,1.553a4.237,4.237,0,0,1-1.719,1.4A5.639,5.639,0,0,1,59.57.2Zm-.322-8.682a1.764,1.764,0,0,0-1.362.569,2.946,2.946,0,0,0-.669,1.628h3.926v-.226a2.1,2.1,0,0,0-.508-1.457A1.819,1.819,0,0,0,59.248-8.486Zm8.867-2.08L68.2-9.346a3.689,3.689,0,0,1,3.037-1.416,3.066,3.066,0,0,1,2.5.986,4.6,4.6,0,0,1,.84,2.949V0H71.758V-6.758a1.831,1.831,0,0,0-.391-1.3,1.749,1.749,0,0,0-1.3-.405,1.942,1.942,0,0,0-1.787,1.016V0H65.459V-10.566Z" transform="translate(603.67 248.84)" fill="#12263f"/>
        <path id="Trazado_227960" data-name="Trazado 227960" d="M4.063,0H1.23V-10.566H4.063Zm-3-13.3a1.39,1.39,0,0,1,.425-1.045,1.6,1.6,0,0,1,1.157-.41,1.6,1.6,0,0,1,1.152.41,1.382,1.382,0,0,1,.43,1.045,1.386,1.386,0,0,1-.435,1.055,1.6,1.6,0,0,1-1.147.41,1.6,1.6,0,0,1-1.147-.41A1.386,1.386,0,0,1,1.064-13.3Zm7.969,2.734.088,1.182a3.713,3.713,0,0,1,3.037-1.377,2.818,2.818,0,0,1,2.8,1.611,3.628,3.628,0,0,1,3.174-1.611,3.152,3.152,0,0,1,2.559,1,4.6,4.6,0,0,1,.84,3.013V0H18.7V-6.738a2.012,2.012,0,0,0-.352-1.313,1.558,1.558,0,0,0-1.24-.415,1.761,1.761,0,0,0-1.758,1.211L15.361,0H12.539V-6.729a1.988,1.988,0,0,0-.361-1.328,1.573,1.573,0,0,0-1.23-.41,1.829,1.829,0,0,0-1.738,1V0H6.387V-10.566Zm24.18,5.381A6.337,6.337,0,0,1,32.1-1.274,3.554,3.554,0,0,1,29.111.2,3.292,3.292,0,0,1,26.523-.918v4.98H23.7V-10.566h2.617l.1,1.035a3.317,3.317,0,0,1,2.676-1.23,3.578,3.578,0,0,1,3.037,1.445,6.509,6.509,0,0,1,1.084,3.984Zm-2.822-.205a4.159,4.159,0,0,0-.522-2.275,1.7,1.7,0,0,0-1.519-.8,1.848,1.848,0,0,0-1.826,1.016v4.326A1.879,1.879,0,0,0,28.369-2.08Q30.391-2.08,30.391-5.391Zm4.131.01a6.267,6.267,0,0,1,.605-2.8,4.432,4.432,0,0,1,1.743-1.9,5.086,5.086,0,0,1,2.642-.674A4.812,4.812,0,0,1,43-9.453,5.252,5.252,0,0,1,44.512-5.9l.02.723a5.523,5.523,0,0,1-1.357,3.9A4.718,4.718,0,0,1,39.531.2,4.742,4.742,0,0,1,35.884-1.27a5.62,5.62,0,0,1-1.362-3.984Zm2.822.2a3.95,3.95,0,0,0,.566,2.3,1.868,1.868,0,0,0,1.621.8,1.873,1.873,0,0,0,1.6-.787,4.322,4.322,0,0,0,.576-2.518,3.91,3.91,0,0,0-.576-2.289,1.873,1.873,0,0,0-1.621-.812,1.842,1.842,0,0,0-1.6.807A4.395,4.395,0,0,0,37.344-5.181Z" transform="translate(549.06 272.84)" fill="#12263f"/>
        <text id="r" transform="translate(594.24 272.84)" fill="#12263f" font-size="20" font-family="Roboto-Bold, Roboto" font-weight="700" letter-spacing="0.02em"><tspan x="0" y="0">r</tspan></text>
        <path id="Trazado_227959" data-name="Trazado 227959" d="M4.463-13.164v2.6H6.27V-8.5H4.463v5.273a1.259,1.259,0,0,0,.225.84,1.128,1.128,0,0,0,.859.254,4.5,4.5,0,0,0,.83-.068V-.059A5.81,5.81,0,0,1,4.668.2Q1.7.2,1.641-2.8V-8.5H.1v-2.07H1.641v-2.6ZM13.965,0a3.134,3.134,0,0,1-.283-.947A3.415,3.415,0,0,1,11.016.2,3.752,3.752,0,0,1,8.442-.7,2.89,2.89,0,0,1,7.422-2.969,2.986,2.986,0,0,1,8.667-5.547a6.144,6.144,0,0,1,3.6-.908h1.3v-.605a1.741,1.741,0,0,0-.376-1.172A1.479,1.479,0,0,0,12-8.672a1.682,1.682,0,0,0-1.118.342,1.161,1.161,0,0,0-.405.938H7.656a2.835,2.835,0,0,1,.566-1.7,3.744,3.744,0,0,1,1.6-1.226,5.837,5.837,0,0,1,2.324-.444,4.611,4.611,0,0,1,3.1.981A3.433,3.433,0,0,1,16.4-7.021v4.58a5.052,5.052,0,0,0,.42,2.275V0ZM11.631-1.963a2.431,2.431,0,0,0,1.152-.278,1.828,1.828,0,0,0,.781-.747V-4.8H12.51q-2.119,0-2.256,1.465l-.01.166a1.13,1.13,0,0,0,.371.869A1.441,1.441,0,0,0,11.631-1.963ZM22.959-2.08a1.851,1.851,0,0,0,1.27-.43,1.506,1.506,0,0,0,.508-1.143h2.646A3.62,3.62,0,0,1,26.8-1.685,3.866,3.866,0,0,1,25.22-.3,4.936,4.936,0,0,1,23.008.2a4.587,4.587,0,0,1-3.574-1.44,5.7,5.7,0,0,1-1.309-3.979V-5.41a5.635,5.635,0,0,1,1.3-3.9,4.534,4.534,0,0,1,3.564-1.455,4.444,4.444,0,0,1,3.179,1.128,3.994,3.994,0,0,1,1.216,3H24.736a1.939,1.939,0,0,0-.508-1.34,1.693,1.693,0,0,0-1.289-.515,1.7,1.7,0,0,0-1.489.719,4.166,4.166,0,0,0-.5,2.333v.293a4.219,4.219,0,0,0,.5,2.347A1.721,1.721,0,0,0,22.959-2.08ZM31.973,0H29.141V-10.566h2.832Zm-3-13.3a1.39,1.39,0,0,1,.425-1.045,1.6,1.6,0,0,1,1.157-.41,1.6,1.6,0,0,1,1.152.41,1.382,1.382,0,0,1,.43,1.045,1.386,1.386,0,0,1-.435,1.055,1.6,1.6,0,0,1-1.147.41,1.6,1.6,0,0,1-1.147-.41A1.386,1.386,0,0,1,28.975-13.3Zm4.883,7.92a6.267,6.267,0,0,1,.605-2.8,4.432,4.432,0,0,1,1.743-1.9,5.086,5.086,0,0,1,2.642-.674,4.812,4.812,0,0,1,3.491,1.309A5.252,5.252,0,0,1,43.848-5.9l.02.723a5.523,5.523,0,0,1-1.357,3.9A4.718,4.718,0,0,1,38.867.2,4.742,4.742,0,0,1,35.22-1.27a5.62,5.62,0,0,1-1.362-3.984Zm2.822.2a3.95,3.95,0,0,0,.566,2.3,1.868,1.868,0,0,0,1.621.8,1.873,1.873,0,0,0,1.6-.787,4.322,4.322,0,0,0,.576-2.518,3.91,3.91,0,0,0-.576-2.289,1.873,1.873,0,0,0-1.621-.812,1.842,1.842,0,0,0-1.6.807A4.395,4.395,0,0,0,36.68-5.181ZM48.2-10.566l.088,1.221a3.689,3.689,0,0,1,3.037-1.416,3.066,3.066,0,0,1,2.5.986,4.6,4.6,0,0,1,.84,2.949V0H51.846V-6.758a1.831,1.831,0,0,0-.391-1.3,1.749,1.749,0,0,0-1.3-.405,1.942,1.942,0,0,0-1.787,1.016V0H45.547V-10.566ZM61.67.2A5.187,5.187,0,0,1,57.886-1.23a5.068,5.068,0,0,1-1.46-3.8V-5.3a6.383,6.383,0,0,1,.615-2.847,4.515,4.515,0,0,1,1.743-1.934,4.893,4.893,0,0,1,2.573-.679,4.385,4.385,0,0,1,3.413,1.367,5.555,5.555,0,0,1,1.245,3.877v1.152H59.287a2.622,2.622,0,0,0,.825,1.66,2.5,2.5,0,0,0,1.743.625A3.046,3.046,0,0,0,64.4-3.262l1.387,1.553a4.237,4.237,0,0,1-1.719,1.4A5.639,5.639,0,0,1,61.67.2Zm-.322-8.682a1.764,1.764,0,0,0-1.362.569,2.946,2.946,0,0,0-.669,1.628h3.926v-.226a2.1,2.1,0,0,0-.508-1.457A1.819,1.819,0,0,0,61.348-8.486ZM73.34-2.92a.909.909,0,0,0-.513-.815,5.824,5.824,0,0,0-1.646-.532q-3.77-.791-3.77-3.2a2.9,2.9,0,0,1,1.167-2.349,4.708,4.708,0,0,1,3.052-.942,5.067,5.067,0,0,1,3.218.947,2.985,2.985,0,0,1,1.206,2.461H73.232a1.366,1.366,0,0,0-.391-1,1.653,1.653,0,0,0-1.221-.4,1.689,1.689,0,0,0-1.1.322,1.017,1.017,0,0,0-.391.82.87.87,0,0,0,.444.757,4.571,4.571,0,0,0,1.5.5,12.244,12.244,0,0,1,1.777.474,2.92,2.92,0,0,1,2.236,2.842A2.756,2.756,0,0,1,74.844-.7a5.35,5.35,0,0,1-3.2.894,5.588,5.588,0,0,1-2.358-.474,3.957,3.957,0,0,1-1.616-1.3,3.018,3.018,0,0,1-.586-1.782h2.676a1.473,1.473,0,0,0,.557,1.152,2.208,2.208,0,0,0,1.387.4,2.044,2.044,0,0,0,1.226-.308A.957.957,0,0,0,73.34-2.92Z" transform="translate(602.03 272.84)" fill="#12263f"/>
      </g>
      <g id="Grupo-2" data-name="Grupo">
        <path id="Trazado_227972" data-name="Trazado 227972" d="M6.179-5.177H3.173V0h-1.7V-12.8H5.713a5.014,5.014,0,0,1,3.327.984A3.542,3.542,0,0,1,10.2-8.947a3.445,3.445,0,0,1-.646,2.083,3.856,3.856,0,0,1-1.8,1.327L10.767-.105V0H8.956ZM3.173-6.557H5.766a2.924,2.924,0,0,0,2-.652,2.2,2.2,0,0,0,.743-1.743A2.32,2.32,0,0,0,7.8-10.774a3,3,0,0,0-2.043-.643H3.173ZM16.26.176a4.155,4.155,0,0,1-3.146-1.27,4.714,4.714,0,0,1-1.213-3.4v-.3a5.707,5.707,0,0,1,.541-2.527,4.217,4.217,0,0,1,1.512-1.74,3.8,3.8,0,0,1,2.1-.628A3.562,3.562,0,0,1,18.94-8.464a5.289,5.289,0,0,1,1.028,3.5v.677H13.526a3.38,3.38,0,0,0,.822,2.272,2.583,2.583,0,0,0,2,.866A2.832,2.832,0,0,0,17.807-1.5a3.666,3.666,0,0,0,1.046-.932l.993.773A3.993,3.993,0,0,1,16.26.176Zm-.2-8.525a2.169,2.169,0,0,0-1.652.716,3.482,3.482,0,0,0-.826,2.008h4.764v-.123a3.1,3.1,0,0,0-.668-1.92A2.042,2.042,0,0,0,16.058-8.35ZM27.721,0a3.416,3.416,0,0,1-.229-1A3.628,3.628,0,0,1,24.785.176a3.357,3.357,0,0,1-2.307-.8,2.573,2.573,0,0,1-.9-2.017,2.688,2.688,0,0,1,1.129-2.307,5.325,5.325,0,0,1,3.177-.822h1.582v-.747a1.826,1.826,0,0,0-.51-1.358,2.049,2.049,0,0,0-1.5-.505,2.371,2.371,0,0,0-1.459.439,1.3,1.3,0,0,0-.589,1.063H21.771a2.244,2.244,0,0,1,.505-1.375A3.449,3.449,0,0,1,23.647-9.3a4.613,4.613,0,0,1,1.9-.387,3.759,3.759,0,0,1,2.575.822A2.964,2.964,0,0,1,29.092-6.6v4.377a5.351,5.351,0,0,0,.334,2.083V0Zm-2.7-1.239a2.858,2.858,0,0,0,1.45-.4,2.392,2.392,0,0,0,.993-1.028V-4.614H26.191q-2.988,0-2.988,1.749a1.48,1.48,0,0,0,.51,1.2A1.959,1.959,0,0,0,25.022-1.239ZM33.407,0H31.781V-13.5h1.626Zm4.368,0H36.149V-9.51h1.626ZM36.018-12.032a.971.971,0,0,1,.242-.668.907.907,0,0,1,.716-.272.922.922,0,0,1,.721.272.96.96,0,0,1,.246.668.929.929,0,0,1-.246.659.938.938,0,0,1-.721.264.924.924,0,0,1-.716-.264A.938.938,0,0,1,36.018-12.032ZM41.906-1.327H47.47V0H39.92V-1.2l5.247-6.97H40V-9.51h7.207v1.151ZM55.169,0a3.416,3.416,0,0,1-.229-1A3.628,3.628,0,0,1,52.233.176a3.357,3.357,0,0,1-2.307-.8,2.573,2.573,0,0,1-.9-2.017,2.688,2.688,0,0,1,1.129-2.307,5.325,5.325,0,0,1,3.177-.822h1.582v-.747a1.826,1.826,0,0,0-.51-1.358,2.049,2.049,0,0,0-1.5-.505,2.371,2.371,0,0,0-1.459.439,1.3,1.3,0,0,0-.589,1.063H49.219a2.244,2.244,0,0,1,.505-1.375A3.449,3.449,0,0,1,51.1-9.3,4.613,4.613,0,0,1,53-9.686a3.759,3.759,0,0,1,2.575.822A2.964,2.964,0,0,1,56.54-6.6v4.377a5.351,5.351,0,0,0,.334,2.083V0Zm-2.7-1.239a2.858,2.858,0,0,0,1.45-.4,2.392,2.392,0,0,0,.993-1.028V-4.614H53.64q-2.988,0-2.988,1.749a1.48,1.48,0,0,0,.51,1.2A1.959,1.959,0,0,0,52.471-1.239ZM62.9-1.151a2.342,2.342,0,0,0,1.521-.527A1.855,1.855,0,0,0,65.145-3h1.538a2.949,2.949,0,0,1-.562,1.556A3.7,3.7,0,0,1,64.736-.264,3.994,3.994,0,0,1,62.9.176a3.918,3.918,0,0,1-3.089-1.3,5.163,5.163,0,0,1-1.147-3.546v-.272a5.725,5.725,0,0,1,.51-2.47A3.883,3.883,0,0,1,60.64-9.088a4.157,4.157,0,0,1,2.254-.6,3.814,3.814,0,0,1,2.659.958A3.424,3.424,0,0,1,66.683-6.24H65.145a2.241,2.241,0,0,0-.7-1.516,2.174,2.174,0,0,0-1.551-.593,2.276,2.276,0,0,0-1.92.892,4.19,4.19,0,0,0-.681,2.58v.308a4.106,4.106,0,0,0,.677,2.531A2.287,2.287,0,0,0,62.9-1.151ZM70.277,0H68.651V-9.51h1.626ZM68.52-12.032a.971.971,0,0,1,.242-.668.907.907,0,0,1,.716-.272.922.922,0,0,1,.721.272.96.96,0,0,1,.246.668.929.929,0,0,1-.246.659.938.938,0,0,1-.721.264.924.924,0,0,1-.716-.264A.938.938,0,0,1,68.52-12.032Zm3.929,7.189A5.617,5.617,0,0,1,73-7.356a4.1,4.1,0,0,1,1.529-1.723,4.163,4.163,0,0,1,2.237-.606,4.01,4.01,0,0,1,3.142,1.345,5.174,5.174,0,0,1,1.2,3.577v.114a5.666,5.666,0,0,1-.532,2.492A4.038,4.038,0,0,1,79.053-.439a4.211,4.211,0,0,1-2.272.615,4,4,0,0,1-3.133-1.345,5.147,5.147,0,0,1-1.2-3.56Zm1.635.193a4.068,4.068,0,0,0,.734,2.54,2.349,2.349,0,0,0,1.964.958,2.335,2.335,0,0,0,1.969-.971,4.449,4.449,0,0,0,.729-2.72,4.061,4.061,0,0,0-.743-2.536,2.361,2.361,0,0,0-1.973-.971,2.335,2.335,0,0,0-1.942.958A4.416,4.416,0,0,0,74.083-4.649ZM77.5-13.5h1.969l-2.355,2.584-1.31,0Zm7.181,3.99.053,1.2a3.465,3.465,0,0,1,2.848-1.371q3.015,0,3.041,3.4V0H89V-6.293a2.189,2.189,0,0,0-.47-1.521,1.884,1.884,0,0,0-1.437-.492,2.347,2.347,0,0,0-1.389.422,2.865,2.865,0,0,0-.932,1.107V0H83.145V-9.51ZM97.137-4.834a5.571,5.571,0,0,1,1.037-3.52,3.28,3.28,0,0,1,2.716-1.332,3.3,3.3,0,0,1,2.646,1.143V-13.5h1.626V0h-1.494l-.079-1.02a3.311,3.311,0,0,1-2.716,1.2,3.248,3.248,0,0,1-2.694-1.354,5.634,5.634,0,0,1-1.042-3.533Zm1.626.185a4.218,4.218,0,0,0,.668,2.531,2.159,2.159,0,0,0,1.846.914,2.372,2.372,0,0,0,2.259-1.389V-6.961a2.39,2.39,0,0,0-2.241-1.345,2.17,2.17,0,0,0-1.863.923A4.644,4.644,0,0,0,98.763-4.649ZM111.63.176a4.155,4.155,0,0,1-3.146-1.27,4.714,4.714,0,0,1-1.213-3.4v-.3a5.707,5.707,0,0,1,.541-2.527,4.217,4.217,0,0,1,1.512-1.74,3.8,3.8,0,0,1,2.1-.628,3.562,3.562,0,0,1,2.883,1.222,5.289,5.289,0,0,1,1.028,3.5v.677H108.9a3.38,3.38,0,0,0,.822,2.272,2.583,2.583,0,0,0,2,.866,2.832,2.832,0,0,0,1.459-.352,3.666,3.666,0,0,0,1.046-.932l.993.773A3.993,3.993,0,0,1,111.63.176Zm-.2-8.525a2.169,2.169,0,0,0-1.652.716,3.482,3.482,0,0,0-.826,2.008h4.764v-.123a3.1,3.1,0,0,0-.668-1.92A2.042,2.042,0,0,0,111.428-8.35ZM123.442,0h-1.626V-13.5h1.626Zm8.473,0a3.416,3.416,0,0,1-.229-1A3.628,3.628,0,0,1,128.979.176a3.357,3.357,0,0,1-2.307-.8,2.573,2.573,0,0,1-.9-2.017A2.688,2.688,0,0,1,126.9-4.944a5.325,5.325,0,0,1,3.177-.822h1.582v-.747a1.826,1.826,0,0,0-.51-1.358,2.049,2.049,0,0,0-1.5-.505,2.371,2.371,0,0,0-1.459.439,1.3,1.3,0,0,0-.589,1.063h-1.635a2.244,2.244,0,0,1,.505-1.375,3.449,3.449,0,0,1,1.371-1.05,4.613,4.613,0,0,1,1.9-.387,3.759,3.759,0,0,1,2.575.822,2.964,2.964,0,0,1,.967,2.263v4.377a5.351,5.351,0,0,0,.334,2.083V0Zm-2.7-1.239a2.858,2.858,0,0,0,1.45-.4,2.392,2.392,0,0,0,.993-1.028V-4.614h-1.274q-2.988,0-2.988,1.749a1.48,1.48,0,0,0,.51,1.2A1.959,1.959,0,0,0,129.217-1.239Z" transform="translate(546.66 696.18)" fill="#12263f"/>
        <path id="Trazado_227973" data-name="Trazado 227973" d="M5.177.176A4.155,4.155,0,0,1,2.03-1.094a4.714,4.714,0,0,1-1.213-3.4v-.3a5.707,5.707,0,0,1,.541-2.527A4.217,4.217,0,0,1,2.87-9.057a3.8,3.8,0,0,1,2.1-.628A3.562,3.562,0,0,1,7.857-8.464a5.289,5.289,0,0,1,1.028,3.5v.677H2.443a3.38,3.38,0,0,0,.822,2.272,2.583,2.583,0,0,0,2,.866A2.832,2.832,0,0,0,6.724-1.5,3.666,3.666,0,0,0,7.77-2.435l.993.773A3.993,3.993,0,0,1,5.177.176Zm-.2-8.525a2.169,2.169,0,0,0-1.652.716A3.482,3.482,0,0,0,2.5-5.625H7.26v-.123a3.1,3.1,0,0,0-.668-1.92A2.042,2.042,0,0,0,4.975-8.35Zm8.982,2.312L16.066-9.51h1.9l-3.111,4.7L18.062,0H16.181l-2.2-3.56L11.786,0H9.9L13.1-4.808,9.993-9.51h1.881ZM27.721-4.649a5.694,5.694,0,0,1-.993,3.5A3.183,3.183,0,0,1,24.038.176a3.488,3.488,0,0,1-2.725-1.1V3.656H19.688V-9.51h1.485l.079,1.055a3.35,3.35,0,0,1,2.76-1.23,3.243,3.243,0,0,1,2.711,1.292,5.756,5.756,0,0,1,1,3.595Zm-1.626-.185a4.2,4.2,0,0,0-.686-2.54,2.208,2.208,0,0,0-1.881-.932A2.39,2.39,0,0,0,21.313-7v4.544a2.4,2.4,0,0,0,2.232,1.3A2.2,2.2,0,0,0,25.4-2.079,4.587,4.587,0,0,0,26.095-4.834Zm3.261-.009A5.617,5.617,0,0,1,29.9-7.356a4.1,4.1,0,0,1,1.529-1.723,4.163,4.163,0,0,1,2.237-.606,4.01,4.01,0,0,1,3.142,1.345,5.174,5.174,0,0,1,1.2,3.577v.114a5.666,5.666,0,0,1-.532,2.492A4.038,4.038,0,0,1,35.96-.439a4.211,4.211,0,0,1-2.272.615,4,4,0,0,1-3.133-1.345,5.147,5.147,0,0,1-1.2-3.56Zm1.635.193a4.068,4.068,0,0,0,.734,2.54,2.349,2.349,0,0,0,1.964.958,2.335,2.335,0,0,0,1.969-.971,4.449,4.449,0,0,0,.729-2.72,4.061,4.061,0,0,0-.743-2.536,2.361,2.361,0,0,0-1.973-.971,2.335,2.335,0,0,0-1.942.958A4.416,4.416,0,0,0,30.99-4.649Z" transform="translate(566.46 717.78)" fill="#12263f"/>
        <text id="r-2" data-name="r" transform="translate(605.28 717.78)" fill="#12263f" font-size="18" font-family="Roboto-Regular, Roboto" letter-spacing="0.02em"><tspan x="0" y="0">r</tspan></text>
        <path id="Trazado_227974" data-name="Trazado 227974" d="M3.437-11.812v2.3H5.212v1.257H3.437v5.9a1.32,1.32,0,0,0,.237.858,1,1,0,0,0,.809.286,3.937,3.937,0,0,0,.773-.105V0A4.742,4.742,0,0,1,4.008.176,2.025,2.025,0,0,1,2.364-.483a2.832,2.832,0,0,1-.554-1.872v-5.9H.079V-9.51H1.811v-2.3ZM12.981,0a3.416,3.416,0,0,1-.229-1A3.628,3.628,0,0,1,10.046.176a3.357,3.357,0,0,1-2.307-.8,2.573,2.573,0,0,1-.9-2.017A2.688,2.688,0,0,1,7.967-4.944a5.325,5.325,0,0,1,3.177-.822h1.582v-.747a1.826,1.826,0,0,0-.51-1.358,2.049,2.049,0,0,0-1.5-.505,2.371,2.371,0,0,0-1.459.439,1.3,1.3,0,0,0-.589,1.063H7.031a2.244,2.244,0,0,1,.505-1.375A3.449,3.449,0,0,1,8.908-9.3a4.613,4.613,0,0,1,1.9-.387,3.759,3.759,0,0,1,2.575.822A2.964,2.964,0,0,1,14.353-6.6v4.377a5.351,5.351,0,0,0,.334,2.083V0Zm-2.7-1.239a2.858,2.858,0,0,0,1.45-.4,2.392,2.392,0,0,0,.993-1.028V-4.614H11.452q-2.988,0-2.988,1.749a1.48,1.48,0,0,0,.51,1.2A1.959,1.959,0,0,0,10.283-1.239Zm10.433.088a2.342,2.342,0,0,0,1.521-.527A1.855,1.855,0,0,0,22.957-3H24.5a2.949,2.949,0,0,1-.562,1.556A3.7,3.7,0,0,1,22.548-.264a3.994,3.994,0,0,1-1.833.439,3.918,3.918,0,0,1-3.089-1.3,5.163,5.163,0,0,1-1.147-3.546v-.272a5.725,5.725,0,0,1,.51-2.47,3.883,3.883,0,0,1,1.463-1.679,4.157,4.157,0,0,1,2.254-.6,3.814,3.814,0,0,1,2.659.958A3.424,3.424,0,0,1,24.5-6.24H22.957a2.241,2.241,0,0,0-.7-1.516,2.174,2.174,0,0,0-1.551-.593,2.276,2.276,0,0,0-1.92.892,4.19,4.19,0,0,0-.681,2.58v.308a4.106,4.106,0,0,0,.677,2.531A2.287,2.287,0,0,0,20.716-1.151ZM28.09,0H26.464V-9.51H28.09ZM26.332-12.032a.971.971,0,0,1,.242-.668.907.907,0,0,1,.716-.272.922.922,0,0,1,.721.272.96.96,0,0,1,.246.668.929.929,0,0,1-.246.659.938.938,0,0,1-.721.264.924.924,0,0,1-.716-.264A.938.938,0,0,1,26.332-12.032Zm3.929,7.189a5.617,5.617,0,0,1,.549-2.514,4.1,4.1,0,0,1,1.529-1.723,4.163,4.163,0,0,1,2.237-.606,4.01,4.01,0,0,1,3.142,1.345,5.174,5.174,0,0,1,1.2,3.577v.114a5.666,5.666,0,0,1-.532,2.492A4.038,4.038,0,0,1,36.866-.439a4.211,4.211,0,0,1-2.272.615A4,4,0,0,1,31.46-1.169a5.147,5.147,0,0,1-1.2-3.56Zm1.635.193a4.068,4.068,0,0,0,.734,2.54,2.349,2.349,0,0,0,1.964.958,2.335,2.335,0,0,0,1.969-.971,4.449,4.449,0,0,0,.729-2.72,4.061,4.061,0,0,0-.743-2.536,2.361,2.361,0,0,0-1.973-.971,2.335,2.335,0,0,0-1.942.958A4.416,4.416,0,0,0,31.9-4.649ZM35.314-13.5h1.969l-2.355,2.584-1.31,0ZM42.5-9.51l.053,1.2A3.465,3.465,0,0,1,45.4-9.686q3.015,0,3.041,3.4V0H46.811V-6.293a2.189,2.189,0,0,0-.47-1.521A1.884,1.884,0,0,0,44.9-8.306a2.347,2.347,0,0,0-1.389.422,2.865,2.865,0,0,0-.932,1.107V0H40.957V-9.51Z" transform="translate(611.81 717.78)" fill="#12263f"/>
      </g>
      <g id="Grupo-3" data-name="Grupo">
        <path id="Trazado_227966" data-name="Trazado 227966" d="M3.3,0H1.608V-12.8H3.3ZM7.664-9.51l.053,1.2a3.465,3.465,0,0,1,2.848-1.371q3.015,0,3.041,3.4V0H11.979V-6.293a2.189,2.189,0,0,0-.47-1.521,1.884,1.884,0,0,0-1.437-.492,2.347,2.347,0,0,0-1.389.422,2.865,2.865,0,0,0-.932,1.107V0H6.126V-9.51ZM16.857,0V-8.253h-1.5V-9.51h1.5v-.976a3.238,3.238,0,0,1,.817-2.364,3.088,3.088,0,0,1,2.312-.835,4.293,4.293,0,0,1,1.116.148l-.088,1.311a4.67,4.67,0,0,0-.879-.079,1.586,1.586,0,0,0-1.222.463,1.877,1.877,0,0,0-.431,1.327V-9.51h2.03v1.257h-2.03V0Zm5.019-4.843a5.617,5.617,0,0,1,.549-2.514,4.1,4.1,0,0,1,1.529-1.723,4.163,4.163,0,0,1,2.237-.606,4.01,4.01,0,0,1,3.142,1.345,5.174,5.174,0,0,1,1.2,3.577v.114A5.666,5.666,0,0,1,30-2.158,4.038,4.038,0,0,1,28.481-.439a4.211,4.211,0,0,1-2.272.615,4,4,0,0,1-3.133-1.345,5.147,5.147,0,0,1-1.2-3.56Zm1.635.193a4.068,4.068,0,0,0,.734,2.54,2.349,2.349,0,0,0,1.964.958,2.335,2.335,0,0,0,1.969-.971,4.449,4.449,0,0,0,.729-2.72,4.061,4.061,0,0,0-.743-2.536,2.361,2.361,0,0,0-1.973-.971,2.335,2.335,0,0,0-1.942.958A4.416,4.416,0,0,0,23.511-4.649Zm13.658-3.4a4.873,4.873,0,0,0-.8-.062A2.143,2.143,0,0,0,34.2-6.75V0H32.572V-9.51h1.582l.026,1.1a2.532,2.532,0,0,1,2.268-1.274,1.661,1.661,0,0,1,.721.123ZM40.192-9.51l.044,1.055a3.512,3.512,0,0,1,2.821-1.23,2.719,2.719,0,0,1,2.716,1.529,3.6,3.6,0,0,1,1.235-1.107,3.647,3.647,0,0,1,1.8-.422q3.129,0,3.182,3.313V0H50.361V-6.275A2.184,2.184,0,0,0,49.9-7.8a2.051,2.051,0,0,0-1.564-.505,2.156,2.156,0,0,0-1.5.541,2.193,2.193,0,0,0-.694,1.455V0H44.5V-6.231a1.814,1.814,0,0,0-2.03-2.074A2.175,2.175,0,0,0,40.28-6.943V0H38.654V-9.51ZM58.386.176a4.155,4.155,0,0,1-3.146-1.27,4.714,4.714,0,0,1-1.213-3.4v-.3a5.707,5.707,0,0,1,.541-2.527,4.217,4.217,0,0,1,1.512-1.74,3.8,3.8,0,0,1,2.1-.628,3.562,3.562,0,0,1,2.883,1.222,5.289,5.289,0,0,1,1.028,3.5v.677H55.652a3.38,3.38,0,0,0,.822,2.272,2.583,2.583,0,0,0,2,.866A2.832,2.832,0,0,0,59.933-1.5a3.666,3.666,0,0,0,1.046-.932l.993.773A3.993,3.993,0,0,1,58.386.176Zm-.2-8.525a2.169,2.169,0,0,0-1.652.716,3.482,3.482,0,0,0-.826,2.008h4.764v-.123a3.1,3.1,0,0,0-.668-1.92A2.042,2.042,0,0,0,58.184-8.35Zm9.853,3.516a5.571,5.571,0,0,1,1.037-3.52,3.28,3.28,0,0,1,2.716-1.332,3.3,3.3,0,0,1,2.646,1.143V-13.5h1.626V0H74.566l-.079-1.02a3.311,3.311,0,0,1-2.716,1.2,3.248,3.248,0,0,1-2.694-1.354,5.634,5.634,0,0,1-1.042-3.533Zm1.626.185a4.218,4.218,0,0,0,.668,2.531,2.159,2.159,0,0,0,1.846.914,2.372,2.372,0,0,0,2.259-1.389V-6.961a2.39,2.39,0,0,0-2.241-1.345,2.17,2.17,0,0,0-1.863.923A4.644,4.644,0,0,0,69.662-4.649ZM82.529.176a4.155,4.155,0,0,1-3.146-1.27,4.714,4.714,0,0,1-1.213-3.4v-.3a5.707,5.707,0,0,1,.541-2.527,4.217,4.217,0,0,1,1.512-1.74,3.8,3.8,0,0,1,2.1-.628A3.562,3.562,0,0,1,85.21-8.464a5.289,5.289,0,0,1,1.028,3.5v.677H79.8a3.38,3.38,0,0,0,.822,2.272,2.583,2.583,0,0,0,2,.866A2.832,2.832,0,0,0,84.076-1.5a3.666,3.666,0,0,0,1.046-.932l.993.773A3.993,3.993,0,0,1,82.529.176Zm-.2-8.525a2.169,2.169,0,0,0-1.652.716,3.482,3.482,0,0,0-.826,2.008h4.764v-.123a3.1,3.1,0,0,0-.668-1.92A2.042,2.042,0,0,0,82.327-8.35Zm14.063,7.2a2.342,2.342,0,0,0,1.521-.527A1.855,1.855,0,0,0,98.631-3h1.538a2.949,2.949,0,0,1-.562,1.556A3.7,3.7,0,0,1,98.222-.264,3.994,3.994,0,0,1,96.39.176a3.918,3.918,0,0,1-3.089-1.3,5.163,5.163,0,0,1-1.147-3.546v-.272a5.725,5.725,0,0,1,.51-2.47,3.883,3.883,0,0,1,1.463-1.679,4.157,4.157,0,0,1,2.254-.6,3.814,3.814,0,0,1,2.659.958,3.424,3.424,0,0,1,1.129,2.487H98.631a2.241,2.241,0,0,0-.7-1.516,2.174,2.174,0,0,0-1.551-.593,2.276,2.276,0,0,0-1.92.892,4.19,4.19,0,0,0-.681,2.58v.308a4.106,4.106,0,0,0,.677,2.531A2.287,2.287,0,0,0,96.39-1.151Zm11.479.211A3.454,3.454,0,0,1,105.082.176a2.956,2.956,0,0,1-2.316-.883,3.823,3.823,0,0,1-.8-2.615V-9.51h1.626v6.144q0,2.162,1.758,2.162a2.434,2.434,0,0,0,2.479-1.389V-9.51h1.626V0H107.9Zm5.581-8.569.044,1.055a3.512,3.512,0,0,1,2.821-1.23,2.719,2.719,0,0,1,2.716,1.529,3.6,3.6,0,0,1,1.235-1.107,3.647,3.647,0,0,1,1.8-.422q3.129,0,3.182,3.313V0h-1.626V-6.275a2.184,2.184,0,0,0-.466-1.525,2.051,2.051,0,0,0-1.564-.505,2.156,2.156,0,0,0-1.5.541,2.193,2.193,0,0,0-.694,1.455V0h-1.635V-6.231a1.814,1.814,0,0,0-2.03-2.074,2.175,2.175,0,0,0-2.188,1.362V0h-1.626V-9.51Zm22.28,4.86a5.694,5.694,0,0,1-.993,3.5A3.183,3.183,0,0,1,132.047.176a3.488,3.488,0,0,1-2.725-1.1V3.656H127.7V-9.51h1.485l.079,1.055a3.35,3.35,0,0,1,2.76-1.23,3.243,3.243,0,0,1,2.711,1.292,5.756,5.756,0,0,1,1,3.595ZM134.1-4.834a4.2,4.2,0,0,0-.686-2.54,2.208,2.208,0,0,0-1.881-.932A2.39,2.39,0,0,0,129.322-7v4.544a2.4,2.4,0,0,0,2.232,1.3,2.2,2.2,0,0,0,1.859-.927A4.587,4.587,0,0,0,134.1-4.834ZM139.562,0h-1.626V-13.5h1.626Zm4.368,0H142.3V-9.51h1.626Zm-1.758-12.032a.971.971,0,0,1,.242-.668.907.907,0,0,1,.716-.272.922.922,0,0,1,.721.272.96.96,0,0,1,.246.668.929.929,0,0,1-.246.659.938.938,0,0,1-.721.264.924.924,0,0,1-.716-.264A.938.938,0,0,1,142.172-12.032Zm5.889,2.522.044,1.055a3.512,3.512,0,0,1,2.821-1.23,2.719,2.719,0,0,1,2.716,1.529,3.6,3.6,0,0,1,1.235-1.107,3.647,3.647,0,0,1,1.8-.422q3.129,0,3.182,3.313V0h-1.626V-6.275a2.184,2.184,0,0,0-.466-1.525,2.051,2.051,0,0,0-1.564-.505,2.156,2.156,0,0,0-1.5.541A2.193,2.193,0,0,0,154-6.311V0h-1.635V-6.231a1.814,1.814,0,0,0-2.03-2.074,2.175,2.175,0,0,0-2.188,1.362V0h-1.626V-9.51ZM164.074,0h-1.626V-9.51h1.626Zm-1.758-12.032a.971.971,0,0,1,.242-.668.907.907,0,0,1,.716-.272A.922.922,0,0,1,164-12.7a.96.96,0,0,1,.246.668.929.929,0,0,1-.246.659.938.938,0,0,1-.721.264.924.924,0,0,1-.716-.264A.938.938,0,0,1,162.316-12.032ZM170.622.176a4.155,4.155,0,0,1-3.146-1.27,4.714,4.714,0,0,1-1.213-3.4v-.3a5.707,5.707,0,0,1,.541-2.527,4.217,4.217,0,0,1,1.512-1.74,3.8,3.8,0,0,1,2.1-.628A3.562,3.562,0,0,1,173.3-8.464a5.289,5.289,0,0,1,1.028,3.5v.677h-6.442a3.38,3.38,0,0,0,.822,2.272,2.583,2.583,0,0,0,2,.866,2.832,2.832,0,0,0,1.459-.352,3.666,3.666,0,0,0,1.046-.932l.993.773A3.993,3.993,0,0,1,170.622.176Zm-.2-8.525a2.169,2.169,0,0,0-1.652.716,3.482,3.482,0,0,0-.826,2.008h4.764v-.123a3.1,3.1,0,0,0-.668-1.92A2.042,2.042,0,0,0,170.42-8.35Zm7.33-1.16.053,1.2a3.465,3.465,0,0,1,2.848-1.371q3.015,0,3.041,3.4V0h-1.626V-6.293a2.189,2.189,0,0,0-.47-1.521,1.884,1.884,0,0,0-1.437-.492,2.347,2.347,0,0,0-1.389.422,2.865,2.865,0,0,0-.932,1.107V0h-1.626V-9.51Z" transform="translate(90.58 436.15)" fill="#12263f"/>
        <text id="t" transform="translate(275.49 436.15)" fill="#12263f" font-size="18" font-family="Roboto-Regular, Roboto" letter-spacing="-0.01em"><tspan x="0" y="0">t</tspan></text>
        <path id="Trazado_227971" data-name="Trazado 227971" d="M.8-4.843a5.617,5.617,0,0,1,.549-2.514A4.1,4.1,0,0,1,2.878-9.079a4.163,4.163,0,0,1,2.237-.606A4.01,4.01,0,0,1,8.257-8.341a5.174,5.174,0,0,1,1.2,3.577v.114a5.666,5.666,0,0,1-.532,2.492A4.038,4.038,0,0,1,7.4-.439,4.211,4.211,0,0,1,5.133.176,4,4,0,0,1,2-1.169,5.147,5.147,0,0,1,.8-4.729Zm1.635.193a4.068,4.068,0,0,0,.734,2.54,2.349,2.349,0,0,0,1.964.958A2.335,2.335,0,0,0,7.1-2.123a4.449,4.449,0,0,0,.729-2.72,4.061,4.061,0,0,0-.743-2.536A2.361,2.361,0,0,0,5.115-8.35a2.335,2.335,0,0,0-1.942.958A4.416,4.416,0,0,0,2.435-4.649Zm13.087-.193a5.617,5.617,0,0,1,.549-2.514A4.1,4.1,0,0,1,17.6-9.079a4.163,4.163,0,0,1,2.237-.606,4.01,4.01,0,0,1,3.142,1.345,5.174,5.174,0,0,1,1.2,3.577v.114a5.666,5.666,0,0,1-.532,2.492A4.038,4.038,0,0,1,22.126-.439a4.211,4.211,0,0,1-2.272.615,4,4,0,0,1-3.133-1.345,5.147,5.147,0,0,1-1.2-3.56Zm1.635.193a4.068,4.068,0,0,0,.734,2.54,2.349,2.349,0,0,0,1.964.958,2.335,2.335,0,0,0,1.969-.971,4.449,4.449,0,0,0,.729-2.72,4.061,4.061,0,0,0-.743-2.536,2.361,2.361,0,0,0-1.973-.971,2.335,2.335,0,0,0-1.942.958A4.416,4.416,0,0,0,17.156-4.649Z" transform="translate(281.2 436.15)" fill="#12263f"/>
        <path id="Trazado_227967" data-name="Trazado 227967" d="M3,0H1.371V-9.51H3ZM1.239-12.032a.971.971,0,0,1,.242-.668.907.907,0,0,1,.716-.272.922.922,0,0,1,.721.272.96.96,0,0,1,.246.668.929.929,0,0,1-.246.659.938.938,0,0,1-.721.264.924.924,0,0,1-.716-.264A.938.938,0,0,1,1.239-12.032Zm5.9,2.522.053,1.2a3.465,3.465,0,0,1,2.848-1.371q3.015,0,3.041,3.4V0H11.452V-6.293a2.189,2.189,0,0,0-.47-1.521,1.884,1.884,0,0,0-1.437-.492,2.347,2.347,0,0,0-1.389.422,2.865,2.865,0,0,0-.932,1.107V0H5.6V-9.51ZM19.345-1.151a2.342,2.342,0,0,0,1.521-.527A1.855,1.855,0,0,0,21.586-3h1.538a2.949,2.949,0,0,1-.562,1.556A3.7,3.7,0,0,1,21.177-.264a3.994,3.994,0,0,1-1.833.439,3.918,3.918,0,0,1-3.089-1.3,5.163,5.163,0,0,1-1.147-3.546v-.272a5.725,5.725,0,0,1,.51-2.47,3.883,3.883,0,0,1,1.463-1.679,4.157,4.157,0,0,1,2.254-.6,3.814,3.814,0,0,1,2.659.958A3.424,3.424,0,0,1,23.124-6.24H21.586a2.241,2.241,0,0,0-.7-1.516,2.174,2.174,0,0,0-1.551-.593,2.276,2.276,0,0,0-1.92.892,4.19,4.19,0,0,0-.681,2.58v.308a4.106,4.106,0,0,0,.677,2.531A2.287,2.287,0,0,0,19.345-1.151ZM30.823-.94A3.454,3.454,0,0,1,28.037.176a2.956,2.956,0,0,1-2.316-.883,3.823,3.823,0,0,1-.8-2.615V-9.51h1.626v6.144Q26.543-1.2,28.3-1.2a2.434,2.434,0,0,0,2.479-1.389V-9.51h1.626V0H30.858ZM36.4-9.51l.044,1.055a3.512,3.512,0,0,1,2.821-1.23,2.719,2.719,0,0,1,2.716,1.529A3.6,3.6,0,0,1,43.22-9.264a3.647,3.647,0,0,1,1.8-.422q3.129,0,3.182,3.313V0H46.573V-6.275A2.184,2.184,0,0,0,46.107-7.8a2.051,2.051,0,0,0-1.564-.505,2.156,2.156,0,0,0-1.5.541,2.193,2.193,0,0,0-.694,1.455V0H40.711V-6.231a1.814,1.814,0,0,0-2.03-2.074,2.175,2.175,0,0,0-2.188,1.362V0H34.866V-9.51Zm22.28,4.86a5.694,5.694,0,0,1-.993,3.5A3.183,3.183,0,0,1,55,.176a3.488,3.488,0,0,1-2.725-1.1V3.656H50.651V-9.51h1.485l.079,1.055a3.35,3.35,0,0,1,2.76-1.23,3.243,3.243,0,0,1,2.711,1.292,5.756,5.756,0,0,1,1,3.595Zm-1.626-.185a4.2,4.2,0,0,0-.686-2.54,2.208,2.208,0,0,0-1.881-.932A2.39,2.39,0,0,0,52.277-7v4.544a2.4,2.4,0,0,0,2.232,1.3,2.2,2.2,0,0,0,1.859-.927A4.587,4.587,0,0,0,57.059-4.834ZM62.517,0H60.891V-13.5h1.626Zm4.368,0H65.259V-9.51h1.626ZM65.127-12.032a.971.971,0,0,1,.242-.668.907.907,0,0,1,.716-.272.922.922,0,0,1,.721.272.96.96,0,0,1,.246.668.929.929,0,0,1-.246.659.938.938,0,0,1-.721.264.924.924,0,0,1-.716-.264A.938.938,0,0,1,65.127-12.032ZM71.016-9.51l.044,1.055a3.512,3.512,0,0,1,2.821-1.23A2.719,2.719,0,0,1,76.6-8.156a3.6,3.6,0,0,1,1.235-1.107,3.647,3.647,0,0,1,1.8-.422q3.129,0,3.182,3.313V0H81.185V-6.275A2.184,2.184,0,0,0,80.719-7.8a2.051,2.051,0,0,0-1.564-.505,2.156,2.156,0,0,0-1.5.541,2.193,2.193,0,0,0-.694,1.455V0H75.322V-6.231a1.814,1.814,0,0,0-2.03-2.074A2.175,2.175,0,0,0,71.1-6.943V0H69.478V-9.51ZM87.029,0H85.4V-9.51h1.626ZM85.271-12.032a.971.971,0,0,1,.242-.668.907.907,0,0,1,.716-.272.922.922,0,0,1,.721.272.96.96,0,0,1,.246.668.929.929,0,0,1-.246.659.938.938,0,0,1-.721.264.924.924,0,0,1-.716-.264A.938.938,0,0,1,85.271-12.032ZM93.577.176a4.155,4.155,0,0,1-3.146-1.27,4.714,4.714,0,0,1-1.213-3.4v-.3a5.707,5.707,0,0,1,.541-2.527,4.217,4.217,0,0,1,1.512-1.74,3.8,3.8,0,0,1,2.1-.628,3.562,3.562,0,0,1,2.883,1.222,5.289,5.289,0,0,1,1.028,3.5v.677H90.844a3.38,3.38,0,0,0,.822,2.272,2.583,2.583,0,0,0,2,.866A2.832,2.832,0,0,0,95.124-1.5a3.666,3.666,0,0,0,1.046-.932l.993.773A3.993,3.993,0,0,1,93.577.176Zm-.2-8.525a2.169,2.169,0,0,0-1.652.716A3.482,3.482,0,0,0,90.9-5.625H95.66v-.123a3.1,3.1,0,0,0-.668-1.92A2.042,2.042,0,0,0,93.375-8.35Zm7.33-1.16.053,1.2a3.465,3.465,0,0,1,2.848-1.371q3.015,0,3.041,3.4V0h-1.626V-6.293a2.189,2.189,0,0,0-.47-1.521,1.884,1.884,0,0,0-1.437-.492,2.347,2.347,0,0,0-1.389.422,2.865,2.865,0,0,0-.932,1.107V0H99.167V-9.51Z" transform="translate(41.76 457.75)" fill="#12263f"/>
        <text id="t-2" data-name="t" transform="translate(149.62 457.75)" fill="#12263f" font-size="18" font-family="Roboto-Regular, Roboto" letter-spacing="-0.01em"><tspan x="0" y="0">t</tspan></text>
        <path id="Trazado_227968" data-name="Trazado 227968" d="M.8-4.843a5.617,5.617,0,0,1,.549-2.514A4.1,4.1,0,0,1,2.878-9.079a4.163,4.163,0,0,1,2.237-.606A4.01,4.01,0,0,1,8.257-8.341a5.174,5.174,0,0,1,1.2,3.577v.114a5.666,5.666,0,0,1-.532,2.492A4.038,4.038,0,0,1,7.4-.439,4.211,4.211,0,0,1,5.133.176,4,4,0,0,1,2-1.169,5.147,5.147,0,0,1,.8-4.729Zm1.635.193a4.068,4.068,0,0,0,.734,2.54,2.349,2.349,0,0,0,1.964.958A2.335,2.335,0,0,0,7.1-2.123a4.449,4.449,0,0,0,.729-2.72,4.061,4.061,0,0,0-.743-2.536A2.361,2.361,0,0,0,5.115-8.35a2.335,2.335,0,0,0-1.942.958A4.416,4.416,0,0,0,2.435-4.649Zm13.122-.185a5.571,5.571,0,0,1,1.037-3.52A3.28,3.28,0,0,1,19.31-9.686a3.3,3.3,0,0,1,2.646,1.143V-13.5h1.626V0H22.087l-.079-1.02a3.311,3.311,0,0,1-2.716,1.2A3.248,3.248,0,0,1,16.6-1.178a5.634,5.634,0,0,1-1.042-3.533Zm1.626.185a4.218,4.218,0,0,0,.668,2.531A2.159,2.159,0,0,0,19.7-1.2a2.372,2.372,0,0,0,2.259-1.389V-6.961a2.39,2.39,0,0,0-2.241-1.345,2.17,2.17,0,0,0-1.863.923A4.644,4.644,0,0,0,17.183-4.649ZM30.05.176A4.155,4.155,0,0,1,26.9-1.094a4.714,4.714,0,0,1-1.213-3.4v-.3a5.707,5.707,0,0,1,.541-2.527,4.217,4.217,0,0,1,1.512-1.74,3.8,3.8,0,0,1,2.1-.628A3.562,3.562,0,0,1,32.73-8.464a5.289,5.289,0,0,1,1.028,3.5v.677H27.316a3.38,3.38,0,0,0,.822,2.272,2.583,2.583,0,0,0,2,.866A2.832,2.832,0,0,0,31.6-1.5a3.666,3.666,0,0,0,1.046-.932l.993.773A3.993,3.993,0,0,1,30.05.176Zm-.2-8.525a2.169,2.169,0,0,0-1.652.716,3.482,3.482,0,0,0-.826,2.008h4.764v-.123a3.1,3.1,0,0,0-.668-1.92A2.042,2.042,0,0,0,29.848-8.35ZM41.862,0H40.236V-13.5h1.626Zm2.171-4.843a5.617,5.617,0,0,1,.549-2.514,4.1,4.1,0,0,1,1.529-1.723,4.163,4.163,0,0,1,2.237-.606,4.01,4.01,0,0,1,3.142,1.345,5.174,5.174,0,0,1,1.2,3.577v.114a5.666,5.666,0,0,1-.532,2.492A4.038,4.038,0,0,1,50.638-.439a4.211,4.211,0,0,1-2.272.615,4,4,0,0,1-3.133-1.345,5.147,5.147,0,0,1-1.2-3.56Zm1.635.193a4.068,4.068,0,0,0,.734,2.54,2.349,2.349,0,0,0,1.964.958,2.335,2.335,0,0,0,1.969-.971,4.449,4.449,0,0,0,.729-2.72,4.061,4.061,0,0,0-.743-2.536,2.361,2.361,0,0,0-1.973-.971,2.335,2.335,0,0,0-1.942.958A4.416,4.416,0,0,0,45.668-4.649Zm14.6,2.127a1.2,1.2,0,0,0-.5-1.024,4.78,4.78,0,0,0-1.731-.628,8.186,8.186,0,0,1-1.96-.633,2.788,2.788,0,0,1-1.072-.879A2.1,2.1,0,0,1,54.659-6.9a2.467,2.467,0,0,1,.989-1.978,3.861,3.861,0,0,1,2.527-.809,3.974,3.974,0,0,1,2.624.835A2.652,2.652,0,0,1,61.8-6.715H60.17A1.468,1.468,0,0,0,59.6-7.866a2.124,2.124,0,0,0-1.428-.483,2.223,2.223,0,0,0-1.389.387,1.217,1.217,0,0,0-.5,1.011.986.986,0,0,0,.466.888,5.731,5.731,0,0,0,1.683.571,8.77,8.77,0,0,1,1.973.65,2.878,2.878,0,0,1,1.121.91,2.237,2.237,0,0,1,.365,1.3,2.434,2.434,0,0,1-1.02,2.043,4.277,4.277,0,0,1-2.646.769,4.789,4.789,0,0,1-2.021-.4,3.288,3.288,0,0,1-1.375-1.129,2.722,2.722,0,0,1-.5-1.569H55.96a1.683,1.683,0,0,0,.655,1.3,2.54,2.54,0,0,0,1.613.479,2.622,2.622,0,0,0,1.481-.374A1.148,1.148,0,0,0,60.267-2.522Z" transform="translate(155.33 457.75)" fill="#12263f"/>
        <text id="r-3" data-name="r" transform="translate(222.57 457.75)" fill="#12263f" font-size="18" font-family="Roboto-Regular, Roboto" letter-spacing="-0.01em"><tspan x="0" y="0">r</tspan></text>
        <path id="Trazado_227969" data-name="Trazado 227969" d="M5.177.176A4.155,4.155,0,0,1,2.03-1.094a4.714,4.714,0,0,1-1.213-3.4v-.3a5.707,5.707,0,0,1,.541-2.527A4.217,4.217,0,0,1,2.87-9.057a3.8,3.8,0,0,1,2.1-.628A3.562,3.562,0,0,1,7.857-8.464a5.289,5.289,0,0,1,1.028,3.5v.677H2.443a3.38,3.38,0,0,0,.822,2.272,2.583,2.583,0,0,0,2,.866A2.832,2.832,0,0,0,6.724-1.5,3.666,3.666,0,0,0,7.77-2.435l.993.773A3.993,3.993,0,0,1,5.177.176Zm-.2-8.525a2.169,2.169,0,0,0-1.652.716A3.482,3.482,0,0,0,2.5-5.625H7.26v-.123a3.1,3.1,0,0,0-.668-1.92A2.042,2.042,0,0,0,4.975-8.35Zm5.4,3.516A5.582,5.582,0,0,1,11.4-8.38a3.332,3.332,0,0,1,2.76-1.305,3.33,3.33,0,0,1,2.663,1.134l.07-.958h1.494V3.656H16.761V-.879A3.412,3.412,0,0,1,14.142.176,3.28,3.28,0,0,1,11.4-1.165,5.706,5.706,0,0,1,10.371-4.72ZM12-4.649a4.231,4.231,0,0,0,.69,2.566,2.195,2.195,0,0,0,1.859.932,2.435,2.435,0,0,0,2.215-1.283V-7.093a2.442,2.442,0,0,0-2.2-1.257,2.211,2.211,0,0,0-1.872.936A4.606,4.606,0,0,0,12-4.649ZM26.868-.94A3.454,3.454,0,0,1,24.082.176a2.956,2.956,0,0,1-2.316-.883,3.823,3.823,0,0,1-.8-2.615V-9.51h1.626v6.144q0,2.162,1.758,2.162a2.434,2.434,0,0,0,2.479-1.389V-9.51H28.45V0H26.9ZM32.687,0H31.061V-9.51h1.626ZM30.929-12.032a.971.971,0,0,1,.242-.668.907.907,0,0,1,.716-.272.922.922,0,0,1,.721.272.96.96,0,0,1,.246.668.929.929,0,0,1-.246.659.938.938,0,0,1-.721.264.924.924,0,0,1-.716-.264A.938.938,0,0,1,30.929-12.032Zm9.9,9.51a1.2,1.2,0,0,0-.5-1.024A4.78,4.78,0,0,0,38.6-4.175a8.186,8.186,0,0,1-1.96-.633,2.788,2.788,0,0,1-1.072-.879A2.1,2.1,0,0,1,35.218-6.9a2.467,2.467,0,0,1,.989-1.978,3.861,3.861,0,0,1,2.527-.809,3.974,3.974,0,0,1,2.624.835,2.652,2.652,0,0,1,1.006,2.136H40.729a1.468,1.468,0,0,0-.567-1.151,2.124,2.124,0,0,0-1.428-.483,2.223,2.223,0,0,0-1.389.387,1.217,1.217,0,0,0-.5,1.011.986.986,0,0,0,.466.888,5.731,5.731,0,0,0,1.683.571,8.77,8.77,0,0,1,1.973.65,2.878,2.878,0,0,1,1.121.91,2.237,2.237,0,0,1,.365,1.3,2.434,2.434,0,0,1-1.02,2.043,4.277,4.277,0,0,1-2.646.769,4.789,4.789,0,0,1-2.021-.4,3.288,3.288,0,0,1-1.375-1.129,2.722,2.722,0,0,1-.5-1.569h1.626a1.683,1.683,0,0,0,.655,1.3,2.54,2.54,0,0,0,1.613.479,2.622,2.622,0,0,0,1.481-.374A1.148,1.148,0,0,0,40.825-2.522ZM46.336,0H44.71V-9.51h1.626ZM44.578-12.032a.971.971,0,0,1,.242-.668.907.907,0,0,1,.716-.272.922.922,0,0,1,.721.272.96.96,0,0,1,.246.668.929.929,0,0,1-.246.659.938.938,0,0,1-.721.264.924.924,0,0,1-.716-.264A.938.938,0,0,1,44.578-12.032Z" transform="translate(228.49 457.75)" fill="#12263f"/>
        <text id="t-3" data-name="t" transform="translate(276.2 457.75)" fill="#12263f" font-size="18" font-family="Roboto-Regular, Roboto" letter-spacing="-0.01em"><tspan x="0" y="0">t</tspan></text>
        <path id="Trazado_227970" data-name="Trazado 227970" d="M.8-4.843a5.617,5.617,0,0,1,.549-2.514A4.1,4.1,0,0,1,2.878-9.079a4.163,4.163,0,0,1,2.237-.606A4.01,4.01,0,0,1,8.257-8.341a5.174,5.174,0,0,1,1.2,3.577v.114a5.666,5.666,0,0,1-.532,2.492A4.038,4.038,0,0,1,7.4-.439,4.211,4.211,0,0,1,5.133.176,4,4,0,0,1,2-1.169,5.147,5.147,0,0,1,.8-4.729Zm1.635.193a4.068,4.068,0,0,0,.734,2.54,2.349,2.349,0,0,0,1.964.958A2.335,2.335,0,0,0,7.1-2.123a4.449,4.449,0,0,0,.729-2.72,4.061,4.061,0,0,0-.743-2.536A2.361,2.361,0,0,0,5.115-8.35a2.335,2.335,0,0,0-1.942.958A4.416,4.416,0,0,0,2.435-4.649Zm14.6,2.127a1.2,1.2,0,0,0-.5-1.024,4.78,4.78,0,0,0-1.731-.628,8.186,8.186,0,0,1-1.96-.633,2.788,2.788,0,0,1-1.072-.879A2.1,2.1,0,0,1,11.426-6.9a2.467,2.467,0,0,1,.989-1.978,3.861,3.861,0,0,1,2.527-.809,3.974,3.974,0,0,1,2.624.835,2.652,2.652,0,0,1,1.006,2.136H16.937a1.468,1.468,0,0,0-.567-1.151,2.124,2.124,0,0,0-1.428-.483,2.223,2.223,0,0,0-1.389.387,1.217,1.217,0,0,0-.5,1.011.986.986,0,0,0,.466.888,5.731,5.731,0,0,0,1.683.571,8.77,8.77,0,0,1,1.973.65,2.878,2.878,0,0,1,1.121.91,2.237,2.237,0,0,1,.365,1.3A2.434,2.434,0,0,1,17.64-.593a4.277,4.277,0,0,1-2.646.769,4.789,4.789,0,0,1-2.021-.4A3.288,3.288,0,0,1,11.6-1.358a2.722,2.722,0,0,1-.5-1.569h1.626a1.683,1.683,0,0,0,.655,1.3,2.54,2.54,0,0,0,1.613.479,2.622,2.622,0,0,0,1.481-.374A1.148,1.148,0,0,0,17.033-2.522Zm3.779,1.67a1.018,1.018,0,0,1,.25-.7.954.954,0,0,1,.751-.281.983.983,0,0,1,.76.281,1,1,0,0,1,.259.7.944.944,0,0,1-.259.677,1,1,0,0,1-.76.272.971.971,0,0,1-.751-.272A.962.962,0,0,1,20.813-.853Z" transform="translate(281.9 457.75)" fill="#12263f"/>
      </g>
      <g id="Grupo_61729" data-name="Grupo 61729">
        <path id="Trazado_129843" data-name="Trazado 129843" d="M621.72,307l1.38,3.2a8.893,8.893,0,0,0,1.39,2.46,3,3,0,0,0,2.5,1.09,21.84,21.84,0,0,0-3.63-7.44,2.251,2.251,0,0,0-.73-.71.83.83,0,0,0-1,.11C621.38,306,621.54,306.54,621.72,307Z" fill="#ffae75"/>
        <g id="Grupo_61722" data-name="Grupo 61722">
          <path id="Trazado_129844" data-name="Trazado 129844" d="M586.31,452.56a2.7,2.7,0,0,1-.92-.16,2.62,2.62,0,0,1-1.53-3.37l45-120.86a2.62,2.62,0,0,1,4.91,1.82l-45,120.87a2.61,2.61,0,0,1-2.46,1.7Z" fill="#5e567b"/>
          <path id="Trazado_129845" data-name="Trazado 129845" d="M658.86,437.44a2.67,2.67,0,0,1-1.3-.35l-55.08-31.8a2.62,2.62,0,1,1,2.62-4.53l55.07,31.79a2.62,2.62,0,0,1-1.31,4.89Z" fill="#5e567b"/>
          <path id="Trazado_129846" data-name="Trazado 129846" d="M620.49,459.59a2.58,2.58,0,0,1-1.31-.35l-55.08-31.8a2.62,2.62,0,0,1,2.62-4.53l55.08,31.8a2.61,2.61,0,0,1-1.31,4.88Z" fill="#5e567b"/>
          <path id="Trazado_129847" data-name="Trazado 129847" d="M638,526.71a2.62,2.62,0,0,1-2.53-2l-51.76-198.7a21,21,0,0,1,9.79-23.4l16-9.22a11.7,11.7,0,0,1,17.17,7.19l52.27,200.65a2.615,2.615,0,0,1-5.06,1.32L621.56,301.93a6.47,6.47,0,0,0-9.49-4l-16,9.22a15.73,15.73,0,0,0-7.34,17.55l51.75,198.7a2.61,2.61,0,0,1-1.87,3.19A2.5,2.5,0,0,1,638,526.71Z" fill="#5e567b"/>
          <g id="Grupo_61716" data-name="Grupo 61716">
            <path id="Trazado_129848" data-name="Trazado 129848" d="M673.47,472.3l-39.59,22.86-11.4-6.58v-1.2l39.59-21.66,11.4,5.38Z" fill="#5e567b"/>
            <path id="Trazado_129849" data-name="Trazado 129849" d="M673.47,471.1l-39.59,22.86-11.4-6.58,39.59-22.86Z" fill="#c9bcf7"/>
          </g>
          <g id="Grupo_61717" data-name="Grupo 61717">
            <path id="Trazado_129850" data-name="Trazado 129850" d="M667.26,448.86l-39.6,22.86-11.4-6.58v-1.2l39.6-21.66,11.4,5.38Z" fill="#5e567b"/>
            <path id="Trazado_129851" data-name="Trazado 129851" d="M667.26,447.66l-39.6,22.86-11.4-6.58,39.6-22.86Z" fill="#c9bcf7"/>
          </g>
          <g id="Grupo_61718" data-name="Grupo 61718">
            <path id="Trazado_129852" data-name="Trazado 129852" d="M661.04,425.42l-39.59,22.86-11.4-6.58v-1.2l39.59-21.66,11.4,5.38Z" fill="#5e567b"/>
            <path id="Trazado_129853" data-name="Trazado 129853" d="M661.04,424.22l-39.59,22.86-11.4-6.58,39.59-22.86Z" fill="#c9bcf7"/>
          </g>
          <g id="Grupo_61719" data-name="Grupo 61719">
            <path id="Trazado_129854" data-name="Trazado 129854" d="M654.83,401.98l-39.59,22.86-11.4-6.58v-1.2l39.59-21.66,11.4,5.38Z" fill="#5e567b"/>
            <path id="Trazado_129855" data-name="Trazado 129855" d="M654.83,400.78l-39.59,22.86-11.4-6.58,39.59-22.86Z" fill="#c9bcf7"/>
          </g>
          <g id="Grupo_61720" data-name="Grupo 61720">
            <path id="Trazado_129856" data-name="Trazado 129856" d="M648.62,378.54l-39.6,22.86-11.4-6.58v-1.2l39.6-21.66,11.4,5.38Z" fill="#5e567b"/>
            <path id="Trazado_129857" data-name="Trazado 129857" d="M648.62,377.34l-39.6,22.86-11.4-6.58,39.6-22.86Z" fill="#c9bcf7"/>
          </g>
          <g id="Grupo_61721" data-name="Grupo 61721">
            <path id="Trazado_129858" data-name="Trazado 129858" d="M642.4,355.1l-39.59,22.86-21.55-12.38v-1.19l39.59-21.66L642.4,353.9Z" fill="#5e567b"/>
            <path id="Trazado_129859" data-name="Trazado 129859" d="M642.4,353.9l-39.59,22.86-21.55-12.37,39.59-22.86Z" fill="#c9bcf7"/>
          </g>
          <path id="Trazado_129860" data-name="Trazado 129860" d="M547.93,474.72a2.659,2.659,0,0,1-.91-.17,2.6,2.6,0,0,1-1.54-3.36l45-120.87a2.62,2.62,0,1,1,4.9,1.83L550.38,473a2.61,2.61,0,0,1-2.45,1.72Z" fill="#5e567b"/>
          <path id="Trazado_129861" data-name="Trazado 129861" d="M638,526.71a2.62,2.62,0,0,1-2.53-2l-47.15-181a2.613,2.613,0,0,1,5.06-1.31l47.15,181a2.61,2.61,0,0,1-1.87,3.19A2.5,2.5,0,0,1,638,526.71Z" fill="#5e567b"/>
        </g>
        <g id="Grupo_61728" data-name="Grupo 61728">
          <path id="Trazado_129862" data-name="Trazado 129862" d="M630.25,314.54a3.17,3.17,0,0,0,2.57-1.39,9.32,9.32,0,0,0-.67-2.92,24.317,24.317,0,0,0-2-4.64c-.86-1.44-1.65-2.79-3.19-3.47.7,2.21.9,3.74,1.54,6.21-1.44-1.08-2.76-1.68-4.21-2.76-.62-.47-1.42-1-2.13-.65a1.79,1.79,0,0,0,.45,1.94c.48.52,1.11.88,1.6,1.38,1.42,1.41,1.87,2.78,3.2,4.29C628.13,313.32,629.84,314.6,630.25,314.54Z" fill="#ffae75"/>
          <path id="Trazado_129863" data-name="Trazado 129863" d="M617.11,371.2a10.149,10.149,0,0,0-2.21-1.66c-.83-.42-2-1.53-3-.47,1.17,1.28,1.84,1.75,1.26,2.61s-1,1.9-2,1.87c-1.94-.05-2.78,0-6-3.18,0,0-.56,2.36.07,3.69a41.006,41.006,0,0,0,3.81,6.29,7,7,0,0,0,4.28,2.41c2.14.45,2.84,1.19,5,1.17l.34.1a7.39,7.39,0,0,0,1.93-8.75,14.319,14.319,0,0,0-3.48-4.08Z" fill="#ffae75"/>
          <path id="Trazado_129864" data-name="Trazado 129864" d="M634.27,392.27l-.36-.15s-12.3-4.16-15.58-7c0,0,.56-6.52,2.73-7.81,5.26,0,8-.39,17.61,3l.53.22a6.38,6.38,0,0,1-4.93,11.76Z" fill="#fed2a8"/>
          <g id="Grupo_61724" data-name="Grupo 61724">
            <g id="Grupo_61723" data-name="Grupo 61723">
              <path id="Trazado_129865" data-name="Trazado 129865" d="M597.34,359.89v19.89l6.28,3.63L608,386l7.82,4.52V370.59l-2-1.15-1-.54-4.73-2.76-4.38-2.51-6.45-3.74Z" fill="#fd8f25"/>
              <path id="Trazado_129866" data-name="Trazado 129866" d="M644.39,354.11v19.88l-28.53,16.48V370.58Z" fill="#be6b1c"/>
              <path id="Trazado_129867" data-name="Trazado 129867" d="M597.26,359.94l6.5,3.71,4.38,2.51,4.77,2.74,3,1.67L635.92,359l8.46-4.9-8.4-4.82-4.38-2.5-5.8-3.32-28.45,16.42Z" fill="#febc7c"/>
            </g>
            <path id="Trazado_129868" data-name="Trazado 129868" d="M603.62,363.74v19.67L608,386V366.23l.1-.07L636,349.29l-4.38-2.5-27.8,16.84Z" fill="#1d1d1b" opacity="0.3"/>
          </g>
          <path id="Trazado_129869" data-name="Trazado 129869" d="M633.64,343.39l-.14-.36s-7.49-21.88-7.66-26.2c0,0,4.56-4.39,7-3.68,3.56,3.89,8.49,16,12.59,25.31l.2.54a6.389,6.389,0,0,1-12,4.39Z" fill="#fed2a8"/>
          <path id="Trazado_129870" data-name="Trazado 129870" d="M661.26,354.93l-3.73-1.16-19.66-6.1a6.5,6.5,0,0,1-2.2-1.19,6.38,6.38,0,0,1,6-11l1,.31,1.29.4L659.3,341l5.74,1.78a6.38,6.38,0,0,1,4.44,6.86,7.743,7.743,0,0,1-.24,1.12,6.39,6.39,0,0,1-7.98,4.17Z" fill="#fed2a8"/>
          <g id="Grupo_61725" data-name="Grupo 61725">
            <path id="Trazado_129871" data-name="Trazado 129871" d="M636.82,481.39c-1.89,1.17-1.83,3,.13,4l11.1,5.93a7.69,7.69,0,0,0,7-.22c1.88-1.17,1.82-3-.13-4l-11.1-5.93A7.69,7.69,0,0,0,636.82,481.39Z" fill="#5e567b"/>
            <path id="Trazado_129872" data-name="Trazado 129872" d="M656,476.43l-10.29,2.72c-6.25-1.44-10.36.65-10.24,4.2l20.94,5.56Z" fill="#5e567b"/>
          </g>
          <g id="Grupo_61726" data-name="Grupo 61726">
            <path id="Trazado_129873" data-name="Trazado 129873" d="M642,448.93c-1.7,1.43-1.38,3.2.7,4l11.84,4.28A7.67,7.67,0,0,0,661.4,456c1.7-1.43,1.39-3.2-.7-4l-11.84-4.28a7.67,7.67,0,0,0-6.85,1.22Z" fill="#5e567b"/>
            <path id="Trazado_129874" data-name="Trazado 129874" d="M660.25,441.28l-9.79,4.16c-6.39-.53-10.16,2.13-9.54,5.62l21.52,2.51Z" fill="#5e567b"/>
          </g>
          <path id="Trazado_129875" data-name="Trazado 129875" d="M661.89,450.44c0-.14-6.8-40.58-7.69-41.92-1-1.52-2.81-6.42-4.41-7.29-2.25-1.23-4.86-2.3-7.33-1.61-3,.83-5.09,6.14-5.36,9.23s5.55,35.56,6.22,36.28C648.53,459,661.84,451,661.89,450.44Z" fill="#8a2f4e"/>
          <path id="Trazado_129876" data-name="Trazado 129876" d="M673.53,419.88l-1.71,1.19-11.33,19.38-.3.5-15.27-5.23-.79-.26h-.14l7.75-22.62-.5-1.87-1.77-6.65.46-.56,3.66-4.65,5-6.32,9.36,6.58,9.34-1.12S683.21,413.48,673.53,419.88Z" fill="#ef2a66"/>
          <path id="Trazado_129877" data-name="Trazado 129877" d="M643.34,475.72c-3.6,1.22-4.2,4.25-1.33,6.75a13.15,13.15,0,0,0,11.7,2.32c3.6-1.23,4.2-4.25,1.34-6.76A13.19,13.19,0,0,0,643.34,475.72Z" fill="#ef2a66"/>
          <path id="Trazado_129878" data-name="Trazado 129878" d="M656.81,481.88l-14.65-.74c-1.67-.81-1.63-.71-1.91-2.52-.22-1.59,1.87-30.73,3.06-39.76a16.324,16.324,0,0,1,.42-2.48,4.738,4.738,0,0,1,.4-.92,6.92,6.92,0,0,1,2.26-2.62,7.56,7.56,0,0,1,4.24-1.47c2.58-.08,4.85,1.57,6.75,3.3a14.246,14.246,0,0,1,3,5.41,2.535,2.535,0,0,1,.06.37C660.78,444.09,658.74,470.09,656.81,481.88Z" fill="#ef2a66"/>
          <path id="Trazado_129879" data-name="Trazado 129879" d="M677.28,398.21c-1.43,4.91-11.94,9.36-20.15,8.89-3.08-.16-5.83-1-7.66-2.82-1.31-3-5-15.37-8.21-26.32-.81-2.75-1.59-5.43-2.28-7.84-.38-1.27-.7-2.42-1-3.47a1.664,1.664,0,0,0-.08-.3c-.65-2.37-1.11-4.1-1.25-4.81a8.761,8.761,0,0,1-.26-2.39c.14-2.18,2.23-4.59,3.7-6.16l.12-.12c1.27-1.33,3-2.05,4.41-3.2s2.79-2,4.22-3a17.73,17.73,0,0,1,3.71-2c3.38-1.63,5.87-1.85,8.53-2.66l1.51.06c5.23.2,7.28,5.42,8.23,9.8.62,2.82,1.35,6.89,2.07,11.45C675.29,378.06,678.06,395.55,677.28,398.21Z" fill="#ef2a66"/>
          <path id="Trazado_129880" data-name="Trazado 129880" d="M658.44,409.28l-12,23.54-1.49,2.9-1.61,3.12a16.41,16.41,0,0,1,.42-2.46,4.741,4.741,0,0,1,.4-.92h-.14l7.75-22.62-.5-1.87-1.77-6.65c-1.31-3-5-15.37-8.21-26.32l7.36-11.67c.54,11.87,1.67,23.24,5,32.78a46.7,46.7,0,0,0,3.54,8A22.5,22.5,0,0,0,658.44,409.28Z" opacity="0.15"/>
          <path id="Trazado_129881" data-name="Trazado 129881" d="M666.27,348.72l-14.81,10.07c-2.13-6.42-7.31-8-11.19-6a45.769,45.769,0,0,1,4-3.66c1.37-1.13,2.82-2.24,4.25-3.3a20.545,20.545,0,0,1,3.64-2.24,17.86,17.86,0,0,1,9-1.63C663.65,343.65,665.77,346.37,666.27,348.72Z" fill="#fed2a8"/>
          <path id="Trazado_129882" data-name="Trazado 129882" d="M636.18,359.47l-5.39,25.22a6.38,6.38,0,0,0,4.44,7.84,5.715,5.715,0,0,0,1.14.21,6.36,6.36,0,0,0,6.71-4.65l5.38-19.46C650.13,354.11,638.59,350.75,636.18,359.47Z" fill="#fed2a8"/>
          <g id="Grupo_61727" data-name="Grupo 61727">
            <path id="Trazado_129883" data-name="Trazado 129883" d="M651.9,331.28a28.8,28.8,0,0,1,.32,5.16,10.11,10.11,0,0,1-1.42,4.93,7.66,7.66,0,0,1-4.66,3.25,7.331,7.331,0,0,1-1.81.2,4.26,4.26,0,0,1-1.77-.37,4.64,4.64,0,0,1-1.9-2.06,5.184,5.184,0,0,1-.3-.57,42.251,42.251,0,0,1-3.77-14.08,8.677,8.677,0,0,1-.05-2.16,5.85,5.85,0,0,1,4.18-4.44,11.411,11.411,0,0,1,6.34.2,5.271,5.271,0,0,1,1.63.66c.47.31.84.75,1.28,1.1S651.59,328.7,651.9,331.28Z" fill="#ffae75"/>
            <path id="Trazado_129884" data-name="Trazado 129884" d="M645.79,340.55c.19,1,.34,2.05.5,3.08a1.681,1.681,0,0,1,0,.67.881.881,0,0,1-.16.32,7.331,7.331,0,0,1-1.81.2,4.26,4.26,0,0,1-1.77-.37,4.64,4.64,0,0,1-1.9-2.06c2.31,1.55,3.28-.29,2.79-5.79C644.23,339.08,645.34,338,645.79,340.55Z" fill="#1d1d1b" opacity="0.1"/>
            <rect id="Rectngulo_7202" data-name="Rectngulo 7202" width="12.07" height="15.63" transform="translate(642.653 331.991) rotate(-10.02)" fill="#ffae75"/>
            <path id="Trazado_129885" data-name="Trazado 129885" d="M655,342.74c2.56.93,3,3.11.86,4.87a9.49,9.49,0,0,1-8.43,1.49c-2.57-.94-3-3.12-.86-4.87A9.45,9.45,0,0,1,655,342.74Z" fill="#ffae75"/>
            <path id="Trazado_129886" data-name="Trazado 129886" d="M639.32,328.87a6.17,6.17,0,0,1,3.6,4.45c.54,2,.6,4.07,1.13,6.06s1.7,4,3.63,4.69a8,8,0,0,0,4.26.05c1.85-.36,4.28-.89,4.69-2.73,5.32-24.37-9.3-23.37-11-23.21-6,.53-12.65,5.54-9,9.73C637.17,328.55,638.66,328.62,639.32,328.87Z" fill="#12263f"/>
            <path id="Trazado_129887" data-name="Trazado 129887" d="M643.14,331.92a1.62,1.62,0,0,0-1.12,1.43,6.449,6.449,0,0,0,.18,2.27,6,6,0,0,0,1,2.68,1.14,1.14,0,0,0,.65.45,1.1,1.1,0,0,0,1-.56,2.411,2.411,0,0,0,.24-1.15,15.149,15.149,0,0,0-.29-3.37,2.82,2.82,0,0,0-.48-1.25,1.3,1.3,0,0,0-1.18-.5Z" fill="#ffae75"/>
          </g>
        </g>
      </g>
    </g>
  </g>
</svg>
