<svg xmlns="http://www.w3.org/2000/svg" width="454.645" height="403.653" viewBox="0 0 454.645 403.653">
  <g id="Grupo_124098" data-name="Grupo 124098" transform="translate(-880.355 -3485.172)">
    <g id="CF6_error" transform="translate(855.985 3446.145)">
      <g id="Layer_1" data-name="Layer 1">
        <g id="Grupo_61562" data-name="Grupo 61562">
          <g id="Grupo_61555" data-name="Grupo 61555">
            <g id="Grupo_61520" data-name="Grupo 61520">
              <path id="Trazado_128865" data-name="Trazado 128865" d="M209.57,219.46s-1.23,6.69-.62,9.57,8.24,4.74,8.24,4.74,6.46,7.85,15.53,7.16c5.35-.41,7.16-1.83,8-3.4s.05-3.58-1-5-7.91-4-10.69-8.4c-1.35-2.16-3.61-6.69-3.61-6.69l-.26-2.43a7,7,0,0,0-6.7-6.27h-.15a7.61,7.61,0,0,0-7.91,8.15l.11,1.47Z"/>
              <path id="Trazado_128866" data-name="Trazado 128866" d="M181.77,233.73c-1.11,2.11-1.11,5.69-1.21,10.9,1.41,2.87,3.55,5.21,6.15,6.08,0,0,2,9.31,14.47,9.62,11.68.29,11.59-4.45,11.53-4.43A7,7,0,0,0,210,251c-1.68-1.41-7.9-6.7-9.43-8.69a25.411,25.411,0,0,1-2.77-5.15l-.52-8.44H181.57Z"/>
              <path id="Trazado_128867" data-name="Trazado 128867" d="M224.48,88l-22.7,27.14c1.13,8.56,2.93,33.41,4.93,41.49-4.06,31.1-1.33,62.56,1.19,64.5,3.5,2.89,15.57,5.56,20.43-1.72a315.539,315.539,0,0,1,1-66.72Z" fill="#12263f"/>
              <path id="Trazado_128868" data-name="Trazado 128868" d="M224.47,88c-.1,10-1.9,16.06-8.93,21.55a48,48,0,0,1-6.35,4.12l-4,27.33-2.81,26.91a691.553,691.553,0,0,0-4.71,69.68,6.92,6.92,0,0,1-1.36,1.44,7.71,7.71,0,0,1-2.26,1.51.33.33,0,0,1-.18.1c-6.54,3.07-16.46.29-16.74-3.54-2.08-28.3-2.6-41.93,2.26-66.82-2.57-14.94-4.19-40.24-2.83-53.93-2.63-8-1.93-18.09,4-25.75,9.4-4.84,42.17-12.39,43.31-12.73h.31a2.726,2.726,0,0,0,.06.68,3.78,3.78,0,0,0,0,.49c.05,1.07.11,2.11.13,3.13C224.47,84.19,224.52,86.14,224.47,88Z" fill="#2c486b"/>
            </g>
            <path id="Trazado_128869" data-name="Trazado 128869" d="M215.73,107.48l-.19,2a48,48,0,0,1-6.35,4.12l-4,27.33-2.81,26.91a691.581,691.581,0,0,0-4.71,69.68,6.919,6.919,0,0,1-1.36,1.44l-2.26,1.51-.18.13c-3.88-28.79-3.75-56.36,2.76-82.08,1.61-22.28-2.4-40.42-10.29-55.73Z" fill="#3c3c3b" opacity="0.5"/>
            <g id="Grupo_61524" data-name="Grupo 61524">
              <g id="Grupo_61522" data-name="Grupo 61522">
                <path id="Trazado_128870" data-name="Trazado 128870" d="M391.31,248.49a3,3,0,1,1-3-3,3,3,0,0,1,3,3Z" fill="#030403"/>
                <path id="Trazado_128871" data-name="Trazado 128871" d="M384.27,278.73a3,3,0,1,1-3-3A3,3,0,0,1,384.27,278.73Z" fill="#030403"/>
                <path id="Trazado_128872" data-name="Trazado 128872" d="M432.39,292.62a3,3,0,1,1-3-3A3,3,0,0,1,432.39,292.62Z" fill="#030403"/>
                <path id="Trazado_128873" data-name="Trazado 128873" d="M468.48,271.17a3,3,0,1,1-3-3A3,3,0,0,1,468.48,271.17Z" fill="#030403"/>
                <path id="Trazado_128874" data-name="Trazado 128874" d="M446.33,242.09a3,3,0,1,1-3-3,3,3,0,0,1,3,3Z" fill="#030403"/>
                <g id="Grupo_61521" data-name="Grupo 61521">
                  <path id="Trazado_128875" data-name="Trazado 128875" d="M446.53,239.76v-4.11L441,238.13l-20.82,19.39L390,242.79l-4.39-1.57v4.11l25.5,17.42-33.58,7.91v4.11l2.82,3.2,36.58-8.62,9.43,22.15,6.13-.56v-4.11l-2.89-18.64,39.4,1.67.98-3.54v-4.11l-38.37-1.33Z" fill="#030403"/>
                  <path id="Trazado_128876" data-name="Trazado 128876" d="M446.53,235.65,441,234.02l-20.82,19.39L390,238.68l-4.39,2.54,25.5,17.42-33.58,12.02,2.82,3.2,36.58-8.62,9.43,22.15,6.13-.56-2.89-22.75,39.4,1.67.98-3.54-38.37-5.44Z" fill="#878787"/>
                </g>
                <path id="Trazado_128877" data-name="Trazado 128877" d="M425.91,257.21c2.26,1.3,2.26,3.41,0,4.71a9,9,0,0,1-8.16,0c-2.25-1.3-2.25-3.41,0-4.71a9,9,0,0,1,8.16,0Z" fill="#030403"/>
                <rect id="Rect치ngulo_7177" data-name="Rect치ngulo 7177" width="11.54" height="37.16" transform="translate(416.06 222.41)" fill="#030403"/>
              </g>
              <g id="Grupo_61523" data-name="Grupo 61523">
                <path id="Trazado_128878" data-name="Trazado 128878" d="M421.4,187.5l-45.64,26.35c-2.1,1.21-3.81.23-3.81-2.2,0-5.76,3.94-12.59,8.8-15.39l40.65-23.47c2.11-1.22,3.81-.23,3.81,2.2v5.91a8.42,8.42,0,0,1-3.81,6.6Z" fill="#415165"/>
                <path id="Trazado_128879" data-name="Trazado 128879" d="M437.34,90.06,435,105.59l-9.3,61.76a7.14,7.14,0,0,1-3.09,4.73l-6.32,3.65a2.22,2.22,0,0,1-2.12.28,2.57,2.57,0,0,1-1-2.81l1.07-6.93L424.5,99.76l.79-5.17a6.77,6.77,0,0,1,3.56-5l5.86-2.34a1.89,1.89,0,0,1,1.82.07,2.64,2.64,0,0,1,.81,2.74Z" fill="#415165"/>
              </g>
              <path id="Trazado_128880" data-name="Trazado 128880" d="M414.54,238.07l-41.83-24.23,51.23-41.39,41.99,24.28Z" fill="#415165"/>
              <path id="Trazado_128881" data-name="Trazado 128881" d="M477.77,111.23,436.55,87.37l-22.49,88.58,41.42,23.93Z" fill="#415165"/>
              <path id="Trazado_128882" data-name="Trazado 128882" d="M463,211.56l-45.64,26.35c-2.1,1.21-3.81.23-3.81-2.21,0-5.76,3.94-12.58,8.8-15.39L463,196.84c2.11-1.21,3.81-.23,3.81,2.21V205A8.43,8.43,0,0,1,463,211.56Z" fill="#12263f"/>
              <path id="Trazado_128883" data-name="Trazado 128883" d="M454.82,197.25l12.12-78.61a6.73,6.73,0,0,1,3.56-4.94l5.85-2.34c1.76-.71,2.94.55,2.61,2.76l-11.64,77.29a7,7,0,0,1-3.09,4.73l-6.32,3.66C455.93,200.94,454.44,199.71,454.82,197.25Z" fill="#12263f"/>
            </g>
            <g id="Grupo_61525" data-name="Grupo 61525">
              <path id="Trazado_128884" data-name="Trazado 128884" d="M367.38,271.34c2.49,2.5,2.86,7.37,2,12.16-1.86,2.78-2.9,4.12-6.07,5.06a47.552,47.552,0,0,0-7.55,3.49c-7.26,7.55-14,8.46-16.46,7.54-8.38-3.1.6-10.28,3-12,.71-.52,10-9.39,10-9.39l2.21-3.49-.26-7.64,12.13-3.59Z"/>
              <path id="Trazado_128885" data-name="Trazado 128885" d="M342.36,216c1.6,19,7.54,33.24,12.23,58.72,2.22,1.76,6.78,3.37,10.21,2.23a6,6,0,0,0,4-4.57c.74-21.73.55-38.54-5.44-52.59,18.23-8,42.36-10.56,57.24-23,5.78-5,10.16-9.6,11.51-14.14a9.34,9.34,0,0,0-.35-6.75,14.15,14.15,0,0,0-2.32-3.57l-4.75-3.39L404.19,166c-2.61,1.38-5.51,3-8.58,4.72C373.48,183.3,342.25,204.23,342.36,216Z" fill="#415165"/>
              <path id="Trazado_128886" data-name="Trazado 128886" d="M363.34,276.41s.56.2,1.46.49a6,6,0,0,0,4-4.57c.74-21.73.55-38.54-5.44-52.59,18.23-8,42.36-10.56,57.24-23,5.78-5,10.16-9.6,11.51-14.14l-.35-6.75a14.15,14.15,0,0,0-2.32-3.57l-4.75-3.39L404.19,166c-2.61,1.38-5.51,3-8.58,4.72-1.56,19.28-20.32,32.86-41.1,45.75C362.32,234.4,364.55,254.7,363.34,276.41Z" fill="#3c3c3b" opacity="0.5"/>
              <path id="Trazado_128887" data-name="Trazado 128887" d="M400.5,290c2.49,2.5,2.56,7.08,2,12.15a13.37,13.37,0,0,1-7.73,5.34s-11.59,11-22.63,9.38,0-9.56,0-9.56l12.73-11,2.45-3.41.11-7.17,12.13-3.59Z"/>
              <path id="Trazado_128888" data-name="Trazado 128888" d="M370.24,230c1.6,19,12.42,37.44,17.11,62.92,4.27,3.26,8,3.83,11,.4a14.81,14.81,0,0,0,2.31-3.71c.75-21.71-.74-40.88-6.74-54.92,18.24-8,32.66-16,47.54-28.43,10.15-8.77,9.52-23.75,2.42-31.93l-2-.31h-.39L408,180.86c-1.82,2.08-3.68,4.17-5.53,6.27-2.49,2.79-5,5.61-7.42,8.38C382.85,209.41,371.86,222.54,370.24,230Z" fill="#415165"/>
              <path id="Trazado_128889" data-name="Trazado 128889" d="M396.27,294.07l2.13-.79a14.81,14.81,0,0,0,2.31-3.71c.75-21.71-.74-40.88-6.74-54.92,18.24-8,32.66-16,47.54-28.43,10.15-8.77,9.52-23.75,2.42-31.93l-2-.31-39.39,13.15c-2.49,2.79-5,5.61-7.42,8.38,4.28.66,13.69.88,33.27.65-7,14.73-23.34,27.25-43.33,35.89C394.25,247.81,396.52,269.8,396.27,294.07Z" fill="#3c3c3b" opacity="0.5"/>
            </g>
            <g id="Grupo_61529" data-name="Grupo 61529">
              <g id="Grupo_61528" data-name="Grupo 61528">
                <g id="Grupo_61526" data-name="Grupo 61526">
                  <path id="Trazado_128890" data-name="Trazado 128890" d="M372.08,358.48c-3.55,0-5.94-2.87-5.94-7.15V271.21a18.43,18.43,0,0,1,8.46-14.65l56.28-32.49a8.54,8.54,0,0,1,4.25-1.27c3.56,0,5.95,2.88,5.95,7.16v80.12a18.47,18.47,0,0,1-8.46,14.65l-56.28,32.49a8.56,8.56,0,0,1-4.26,1.26Zm63.05-132.2a5.29,5.29,0,0,0-2.51.8l-56.28,32.5a15.1,15.1,0,0,0-6.72,11.63v80.12c0,1.1.24,3.67,2.46,3.67a5.18,5.18,0,0,0,2.52-.8l56.28-32.49a15.09,15.09,0,0,0,6.71-11.63V230c0-1.15-.24-3.72-2.46-3.72Z" fill="#575756"/>
                  <path id="Trazado_128891" data-name="Trazado 128891" d="M243.14,283.87c-3.55,0-5.94-2.88-5.94-7.16V196.6a18.44,18.44,0,0,1,8.46-14.6l56.28-32.5a8.57,8.57,0,0,1,4.26-1.27c3.55,0,5.94,2.88,5.94,7.16v80.12a18.45,18.45,0,0,1-8.46,14.65L247.4,282.6a8.57,8.57,0,0,1-4.26,1.27Zm63.06-132.2a5.18,5.18,0,0,0-2.52.8L247.4,185a15.1,15.1,0,0,0-6.72,11.64v80.11c0,1.11.24,3.68,2.46,3.68a5.2,5.2,0,0,0,2.52-.81l56.28-32.49a15.1,15.1,0,0,0,6.72-11.63V155.34C308.65,154.24,308.41,151.67,306.2,151.67Z" fill="#575756"/>
                </g>
                <g id="Grupo_61527" data-name="Grupo 61527">
                  <path id="Trazado_128892" data-name="Trazado 128892" d="M445.87,226.26l-75.22,43.42L235.47,191.56v-3.85l75.22-39.6,135.18,74.31Z" fill="#575756"/>
                  <path id="Trazado_128893" data-name="Trazado 128893" d="M445.87,222.42l-75.22,43.42L235.47,187.71l75.22-43.44Z" fill="#b2b2b2"/>
                </g>
              </g>
              <path id="Trazado_128894" data-name="Trazado 128894" d="M370.04,208.76l14.84-8.69,16.89-3.3-9.89-7.4-12.5,4.68Z" fill="#b2b2b2" opacity="0.5"/>
              <path id="Trazado_128895" data-name="Trazado 128895" d="M346.08,192.88l2.82-2.85-1.06-1.82,6.93-4.52,1.68-3.26,10.71-3.28-10.71-6.19-8.92,5.57-5.18,4.45-.43,6.04-.47,2.97Z" fill="#b2b2b2" opacity="0.5"/>
            </g>
            <g id="Grupo_61535" data-name="Grupo 61535">
              <path id="Trazado_128896" data-name="Trazado 128896" d="M403.78,224.65l9.52,5.5a.91.91,0,0,0,.85,0l18.23-10.53a.25.25,0,0,0,0-.48l-9.52-5.5a.89.89,0,0,0-.84,0l-18.24,10.53a.25.25,0,0,0,0,.48Z" fill="#415165"/>
              <path id="Trazado_128897" data-name="Trazado 128897" d="M432.56,218.43v.95l-28.95,5.04v-.94l28.95-5.05Z" fill="#415165"/>
              <path id="Trazado_128898" data-name="Trazado 128898" d="M403.78,223.71l9.52,5.5a1,1,0,0,0,.85,0l18.23-10.53a.26.26,0,0,0,0-.49l-9.52-5.5a1,1,0,0,0-.84,0l-18.24,10.53a.26.26,0,0,0,0,.49Z" fill="#878787"/>
              <path id="Trazado_128899" data-name="Trazado 128899" d="M414.33,228.5l16.41-9.5-4.23-2.44-1.4-.81L423,214.53l-.78-.45-.75-.44L405,223.12Z" fill="#3f76ab"/>
              <g id="Grupo_61530" data-name="Grupo 61530">
                <path id="Trazado_128900" data-name="Trazado 128900" d="M425.19,215.49l2.35,1.36a.43.43,0,0,0,.35,0l.61-.36c.1-.05.1-.14,0-.2l-2.35-1.35a.36.36,0,0,0-.35,0l-.61.35C425.09,215.34,425.09,215.43,425.19,215.49Z" fill="#fff"/>
                <path id="Trazado_128901" data-name="Trazado 128901" d="M427.63,216.8a.25.25,0,0,0,.17,0l.61-.36c0-.1-2.35-1.45-2.35-1.45a.17.17,0,0,0-.17,0l-.61.35C425.28,215.44,427.63,216.8,427.63,216.8Z" fill="#415165"/>
              </g>
              <g id="Grupo_61534" data-name="Grupo 61534">
                <g id="Grupo_61533" data-name="Grupo 61533">
                  <g id="Grupo_61531" data-name="Grupo 61531">
                    <path id="Trazado_128902" data-name="Trazado 128902" d="M409.43,226.57a.093.093,0,0,0,.14.08l.57-.33c0-.1-.11-.1-.15-.08Z" fill="#273340"/>
                    <path id="Trazado_128903" data-name="Trazado 128903" d="M409.12,226.39a.094.094,0,0,0,.15.08l.56-.32a.094.094,0,0,0-.14-.09Z" fill="#273340"/>
                    <path id="Trazado_128904" data-name="Trazado 128904" d="M408.82,226.21a.094.094,0,0,0,.14.09l.57-.33a.094.094,0,0,0-.15-.08Z" fill="#273340"/>
                    <path id="Trazado_128905" data-name="Trazado 128905" d="M408.51,226a.094.094,0,0,0,.15.08l.56-.32a.094.094,0,0,0-.14-.09Z" fill="#273340"/>
                    <path id="Trazado_128906" data-name="Trazado 128906" d="M408.21,225.86a.094.094,0,0,0,.14.09l.57-.33a.088.088,0,0,0-.14-.08Z" fill="#273340"/>
                  </g>
                  <g id="Grupo_61532" data-name="Grupo 61532">
                    <path id="Trazado_128907" data-name="Trazado 128907" d="M409.43,226.57a.093.093,0,0,0,.14.08l.57-.33c0-.1-.11-.1-.15-.08Z" opacity="0.5"/>
                    <path id="Trazado_128908" data-name="Trazado 128908" d="M409.12,226.39a.094.094,0,0,0,.15.08l.56-.32a.094.094,0,0,0-.14-.09Z" opacity="0.5"/>
                    <path id="Trazado_128909" data-name="Trazado 128909" d="M408.82,226.21a.094.094,0,0,0,.14.09l.57-.33a.094.094,0,0,0-.15-.08Z" opacity="0.5"/>
                    <path id="Trazado_128910" data-name="Trazado 128910" d="M408.51,226a.094.094,0,0,0,.15.08l.56-.32a.094.094,0,0,0-.14-.09Z" opacity="0.5"/>
                    <path id="Trazado_128911" data-name="Trazado 128911" d="M408.21,225.86a.094.094,0,0,0,.14.09l.57-.33a.088.088,0,0,0-.14-.08Z" opacity="0.5"/>
                  </g>
                </g>
                <path id="Trazado_128912" data-name="Trazado 128912" d="M412.44,228a.12.12,0,0,0,0,.22.42.42,0,0,0,.38,0,.12.12,0,0,0,0-.22A.42.42,0,0,0,412.44,228Z" fill="#fff" opacity="0.5"/>
                <path id="Trazado_128913" data-name="Trazado 128913" d="M411.06,227.18a.12.12,0,0,0,0,.22.42.42,0,0,0,.38,0,.12.12,0,0,0,0-.22.42.42,0,0,0-.38,0Z" opacity="0.5"/>
              </g>
            </g>
            <path id="Trazado_128914" data-name="Trazado 128914" d="M393.89,101.26c-9.55-1.42-12.67,3-14.81,13.42L370.33,146c-3.26,2.76-5.26,6.78-8.44,10.73l9.8,8.07c4.49-3.55,8.92-7.43,13.36-11.62l5.16-17.9,6.44-22.31,3.66-6.79Z" fill="#f9aac2"/>
            <path id="Trazado_128915" data-name="Trazado 128915" d="M390.21,135.24l-7.68-15c-1.89,12.52-7.09,21.32-7.58,32.56l-7.34,8.79,4.08,3.21c4.49-3.55,8.92-7.43,13.36-11.62Z" fill="#3f76ab" opacity="0.5"/>
            <path id="Trazado_128916" data-name="Trazado 128916" d="M415.33,87.42c19,6.17,14.93,24.09,9.81,38.13L411.74,113Z" fill="#12263f"/>
            <path id="Trazado_128917" data-name="Trazado 128917" d="M379.08,147.12a2,2,0,0,0,0,.35c.47,10.91,15.34,9.9,15.34,9.9l6,13.06c1.53,18.95,34.28,23.73,43.48,3.86-6.62-9.38-6.62-9.38-7.18-15.83q.78-2.58,1.35-5c3-12.72,1.57-22.37-3.92-33.25-5.38-7-17.44-14-25.05-16.77l-22.24-.52-4.43,16.14C383.65,139.3,379,138.6,379.08,147.12Z" fill="#f9aac2"/>
            <path id="Trazado_128918" data-name="Trazado 128918" d="M412.81,99.66c1.21,4.14,4.45,10.56,5.24,14.51.91,4.87-8.08,12.46-14.1,12-4.27-.84-5.35-6.31-6-11.34Z" fill="#fcaf75"/>
            <path id="Trazado_128919" data-name="Trazado 128919" d="M409.72,102.82s3.55,29.17-10.47,26.76C390.11,128,392,112.93,392,112.93Z" fill="#fcaf75" opacity="0.3"/>
            <path id="Trazado_128920" data-name="Trazado 128920" d="M400.89,76.11c-14.05,2-18.39,10.19-17,21.37.16,9.37,8,21.78,13.41,21.55,7.76.43,11.58-8.64,18.21-18.33C420.66,84.75,414,74.3,400.89,76.11Z" fill="#fcaf75"/>
            <path id="Trazado_128921" data-name="Trazado 128921" d="M384.1,97.79c2.92,3.13,7.6,4.9,13.43,6.24,4.92,2,9.69,1.83,11.6,4.59l5.7-2.37c5.74-6.59,6.3-25.46-3.53-29.44C395.52,70.4,376.77,86.25,384.1,97.79Z" fill="#12263f"/>
            <path id="Trazado_128922" data-name="Trazado 128922" d="M409.34,105.72c.86-3.44,3.26-5.69,5.3-3.71.95.92.89,2.61,0,4.77a3.84,3.84,0,0,1-3.07,2.65C409.64,109.73,408.67,108.37,409.34,105.72Z" fill="#fcaf75"/>
            <path id="Trazado_128923" data-name="Trazado 128923" d="M379.1,147.47c.47,10.91,15.34,9.9,15.34,9.9l6,13.06c1.53,18.95,34.28,23.73,43.48,3.86-6.62-9.38-6.62-9.38-7.18-15.83q.78-2.58,1.35-5l-13.2-14.16-7.63,17.15c-6.19,13.34-20.71,7.63-21.91-3.11C393.23,156.74,382.16,155.93,379.1,147.47Z" fill="#3f76ab" opacity="0.5"/>
            <path id="Trazado_128924" data-name="Trazado 128924" d="M348.4,199.15l-1.8.78c-1.53.42-2.26-.31-1.22-1.85C345.3,199.54,346.5,199.67,348.4,199.15Z" fill="#fcaf75" opacity="0.5"/>
            <g id="Grupo_61542" data-name="Grupo 61542">
              <g id="Grupo_61536" data-name="Grupo 61536">
                <path id="Trazado_128925" data-name="Trazado 128925" d="M340.71,186.04l24.46,14.12-34.85,20.12-24.45-14.12Z" fill="#fff"/>
                <path id="Trazado_128926" data-name="Trazado 128926" d="M313.06,206.05l17.67,10.21-1.06.61L312,206.66Z" fill="#12263f"/>
                <path id="Trazado_128927" data-name="Trazado 128927" d="M315.95,204.38l17.68,10.21-.66.37-17.67-10.2Z" fill="#12263f"/>
                <path id="Trazado_128928" data-name="Trazado 128928" d="M317.7,203.37l17.67,10.21-.65.37-17.67-10.2Z" fill="#12263f"/>
                <path id="Trazado_128929" data-name="Trazado 128929" d="M319.45,202.37l17.67,10.2-.65.37-17.67-10.2Z" fill="#12263f"/>
                <path id="Trazado_128930" data-name="Trazado 128930" d="M322.94,200.35l17.67,10.2-.65.38-17.67-10.21Z" fill="#12263f"/>
                <path id="Trazado_128931" data-name="Trazado 128931" d="M324.69,199.34l17.67,10.2-.65.38-17.67-10.21Z" fill="#12263f"/>
                <path id="Trazado_128932" data-name="Trazado 128932" d="M337.34,204.63l6.77,3.9-.65.38L336.69,205Z" fill="#12263f"/>
                <path id="Trazado_128933" data-name="Trazado 128933" d="M328.18,197.32l17.68,10.21-.65.37-17.68-10.2Z" fill="#12263f"/>
                <path id="Trazado_128934" data-name="Trazado 128934" d="M329.93,196.31l17.67,10.21-.65.37-17.67-10.2Z" fill="#12263f"/>
                <path id="Trazado_128935" data-name="Trazado 128935" d="M335.82,197.69l13.53,7.82-.65.37-13.53-7.81Z" fill="#12263f"/>
                <path id="Trazado_128936" data-name="Trazado 128936" d="M346.71,197.93l7.88,4.55-.65.38-7.88-4.55Z" fill="#12263f"/>
                <path id="Trazado_128937" data-name="Trazado 128937" d="M348.46,196.92l7.88,4.55-.65.38-7.88-4.55Z" fill="#12263f"/>
              </g>
              <g id="Grupo_61539" data-name="Grupo 61539">
                <path id="Trazado_128938" data-name="Trazado 128938" d="M345.17,195.63a7.6,7.6,0,0,1-6.86,0c-1.89-1.09-1.89-2.87,0-4a7.6,7.6,0,0,1,6.86,0C347.06,192.76,347.06,194.54,345.17,195.63Zm-6.62-3.83c-1.77,1-1.77,2.68,0,3.69a7.05,7.05,0,0,0,6.39,0c1.76-1,1.76-2.67,0-3.69a7.05,7.05,0,0,0-6.39,0Z" fill="#1d71b8"/>
                <path id="Trazado_128939" data-name="Trazado 128939" d="M344.67,195.34a6.5,6.5,0,0,1-5.86,0c-1.61-.93-1.61-2.45,0-3.38a6.5,6.5,0,0,1,5.86,0C346.28,192.89,346.28,194.41,344.67,195.34Zm-5.7-3.29c-1.53.88-1.53,2.32,0,3.2a6.16,6.16,0,0,0,5.55,0c1.53-.88,1.53-2.32,0-3.2a6.1,6.1,0,0,0-5.52,0Z" fill="#1d71b8"/>
                <path id="Trazado_128940" data-name="Trazado 128940" d="M343.49,194.65a3.84,3.84,0,0,1-3.49,0,1.06,1.06,0,0,1,0-2,3.9,3.9,0,0,1,3.49,0,1.06,1.06,0,0,1,0,2Zm-3.34-1.92a1,1,0,0,0,0,1.84,3.56,3.56,0,0,0,3.18,0,1,1,0,0,0,0-1.84,3.5,3.5,0,0,0-3.18,0Z" fill="#1d71b8"/>
                <g id="Grupo_61537" data-name="Grupo 61537">
                  <path id="Trazado_128941" data-name="Trazado 128941" d="M340.45,192.22c-.07,0-.66-.21-.66-.21l.33.31a3.2,3.2,0,0,1-.47-.36,3.671,3.671,0,0,1,.67.19l-.33-.31a2.739,2.739,0,0,1,.47.36S340.46,192.22,340.45,192.22Z" fill="#1d71b8"/>
                  <path id="Trazado_128942" data-name="Trazado 128942" d="M340.81,192.14a.72.72,0,0,1-.42-.28c.44-.09.56.1.56.1C340.87,192.12,340.84,192.13,340.81,192.14Zm-.05-.36c-.3.07-.18.26-.18.26C340.88,192,340.76,191.78,340.76,191.78Z" fill="#1d71b8"/>
                  <path id="Trazado_128943" data-name="Trazado 128943" d="M341.41,191.57l-.18.05.12.42c-.08,0-.19-.41-.19-.41h-.19Z" fill="#1d71b8"/>
                  <path id="Trazado_128944" data-name="Trazado 128944" d="M341.55,192l.21-.47.31.45a1,1,0,0,0-.44-.09C341.56,192,341.56,192,341.55,192Zm.38-.15-.13-.26-.14.26Z" fill="#1d71b8"/>
                  <path id="Trazado_128945" data-name="Trazado 128945" d="M342.31,191.6a1.551,1.551,0,0,1,.23,0,1,1,0,0,0,.06.47c-.08,0-.17-.21-.17-.21l-.22.17Zm.06,0-.07.18h.15c.07-.13-.08-.15-.08-.15Z" fill="#1d71b8"/>
                  <path id="Trazado_128946" data-name="Trazado 128946" d="M343,192v-.3c.08,0,.1.27.1.27l.36-.17c.05,0-.35.22-.35.22a1.736,1.736,0,0,0-.13.15C342.85,192.15,343,192,343,192Z" fill="#1d71b8"/>
                  <path id="Trazado_128947" data-name="Trazado 128947" d="M343.86,192a1,1,0,0,1,.2.08,2.731,2.731,0,0,0-.63.3C343.37,192.32,343.86,192,343.86,192Zm0,.05-.23.16c.37-.13.26-.21.26-.21Z" fill="#1d71b8"/>
                  <path id="Trazado_128948" data-name="Trazado 128948" d="M344.66,192.43l-.4.24c-.3-.21.14-.42.14-.42l-.39.24C344.21,192.64,344.66,192.43,344.66,192.43Z" fill="#1d71b8"/>
                  <path id="Trazado_128949" data-name="Trazado 128949" d="M344.85,192.61c-.61.33-.7.22-.7.22Zm-.55.31c.24-.18-.07-.09-.07-.09Z" fill="#1d71b8"/>
                  <path id="Trazado_128950" data-name="Trazado 128950" d="M344.38,193.13l.77-.15a3.149,3.149,0,0,1-.69.16l.09.18C344.48,193.33,344.38,193.13,344.38,193.13Z" fill="#1d71b8"/>
                  <path id="Trazado_128951" data-name="Trazado 128951" d="M345.29,193.32a4.8,4.8,0,0,1-.76.11,3.872,3.872,0,0,1,.76-.11Z" fill="#1d71b8"/>
                  <path id="Trazado_128952" data-name="Trazado 128952" d="M345.15,193.73c0-.19-.39-.18-.39-.18l.35-.05C345.14,193.73,345.14,193.73,345.15,193.73Z" fill="#1d71b8"/>
                </g>
                <g id="Grupo_61538" data-name="Grupo 61538">
                  <path id="Trazado_128953" data-name="Trazado 128953" d="M343.19,195c.07,0,.67.2.67.2l-.35-.3a3.46,3.46,0,0,1,.49.34,4,4,0,0,1-.68-.17l.35.31a3.46,3.46,0,0,1-.49-.35S343.18,195,343.19,195Z" fill="#1d71b8"/>
                  <path id="Trazado_128954" data-name="Trazado 128954" d="M342.85,195.12a.73.73,0,0,1,.42.27c-.43.11-.55-.09-.55-.09C342.79,195.13,342.82,195.12,342.85,195.12Zm.06.36c.29-.07.17-.27.17-.27C342.79,195.29,342.91,195.48,342.91,195.48Z" fill="#1d71b8"/>
                  <path id="Trazado_128955" data-name="Trazado 128955" d="M342.28,195.73l.17-.07-.12-.42c.07,0,.19.41.19.41h.19Z" fill="#1d71b8"/>
                  <path id="Trazado_128956" data-name="Trazado 128956" d="M342.13,195.24l-.19.5-.32-.46a.92.92,0,0,0,.43.08C342.11,195.25,342.12,195.24,342.13,195.24Zm-.37.17.13.27.14-.28Z" fill="#1d71b8"/>
                  <path id="Trazado_128957" data-name="Trazado 128957" d="M341.4,195.73a.8.8,0,0,1-.22,0,1,1,0,0,0-.08-.48c.08,0,.18.21.18.21l.21-.19Zm-.06,0,.06-.19h-.14c-.07.15.08.16.08.16Z" fill="#1d71b8"/>
                  <path id="Trazado_128958" data-name="Trazado 128958" d="M340.75,195.36v.3c-.07,0-.1-.27-.1-.27l-.35.2.34-.24.12-.17C340.86,195.19,340.75,195.36,340.75,195.36Z" fill="#1d71b8"/>
                  <path id="Trazado_128959" data-name="Trazado 128959" d="M339.87,195.45a.76.76,0,0,1-.21-.06,3.43,3.43,0,0,0,.62-.35C340.34,195.06,339.87,195.45,339.87,195.45Zm0,0,.22-.18c-.38.09-.26.14-.26.14Z" fill="#1d71b8"/>
                  <path id="Trazado_128960" data-name="Trazado 128960" d="M339.07,195.08c-.05,0,.37-.28.37-.28.32.18-.1.43-.1.43l.37-.28C339.49,194.83,339.07,195.08,339.07,195.08Z" fill="#1d71b8"/>
                  <path id="Trazado_128961" data-name="Trazado 128961" d="M338.84,194.92c.57-.39.68-.3.68-.3Zm.51-.37c-.21.2.09.08.09.08Z" fill="#1d71b8"/>
                  <path id="Trazado_128962" data-name="Trazado 128962" d="M339.24,194.36l-.75.23a3.52,3.52,0,0,1,.67-.23l-.12-.17C339.1,194.17,339.24,194.36,339.24,194.36Z" fill="#1d71b8"/>
                  <path id="Trazado_128963" data-name="Trazado 128963" d="M338.29,194.29a4.479,4.479,0,0,1,.74-.2A4.219,4.219,0,0,1,338.29,194.29Z" fill="#1d71b8"/>
                  <path id="Trazado_128964" data-name="Trazado 128964" d="M338.33,193.88c.08.17.44.13.44.13l-.34.08C338.35,193.87,338.34,193.88,338.33,193.88Z" fill="#1d71b8"/>
                </g>
                <path id="Trazado_128965" data-name="Trazado 128965" d="M343.18,194.48a3.22,3.22,0,0,1-2.87,0,.88.88,0,0,1,0-1.66,3.16,3.16,0,0,1,2.87,0,.88.88,0,0,1,0,1.66Zm-2.72-1.57a.78.78,0,0,0,0,1.48,2.82,2.82,0,0,0,2.56,0,.78.78,0,0,0,0-1.48,2.82,2.82,0,0,0-2.56,0Z" fill="#1d71b8"/>
                <path id="Trazado_128966" data-name="Trazado 128966" d="M339.37,192.8c0,.08-.36,0-.36,0l.07.19c-.14,0-.19-.18-.19-.18l-.29.09c-.06-.07.24-.15.24-.15l-.24-.13c.09-.06.32.08.32.08l.15-.18c.12,0,0,.21,0,.21Z" fill="#1d71b8"/>
                <path id="Trazado_128967" data-name="Trazado 128967" d="M345,194.5c0,.08-.36,0-.36,0l.06.2c-.14,0-.18-.19-.18-.19l-.3.1c-.06-.08.25-.16.25-.16l-.25-.13c.1-.06.33.08.33.08l.14-.18c.13,0,0,.21,0,.21Z" fill="#1d71b8"/>
              </g>
              <g id="Grupo_61541" data-name="Grupo 61541">
                <path id="Trazado_128968" data-name="Trazado 128968" d="M364.82,166.37l-8,6.08L355.6,176a18,18,0,0,1-3.3,5.26l-.61-.16-3.75-1c.05-.2.07-.3.09-.4-.66-1-3-.74-5.23-.53l-.35.94a1.87,1.87,0,0,1,1.76,1l-.44.75-1.72,3-.2.34-1.18-.72h-.46A1.83,1.83,0,0,1,339,184l-2.44-1.75a1.88,1.88,0,0,1-.6-1.88,1.21,1.21,0,0,1-.25-1.13l-.08-.19a1.75,1.75,0,0,1,0-1.33l.84-2.24.17-.64a2,2,0,0,1,1.81-1.49l8.6-2.38a13,13,0,0,1,4.1-.61l8.73-8.8Z" fill="#fcaf75"/>
                <path id="Trazado_128969" data-name="Trazado 128969" d="M348,180l.06-.3c-.66-1-3-.74-5.23-.53l-.35.94a1.87,1.87,0,0,1,1.76,1l-.44.75-2.42-.83a8.209,8.209,0,0,0,1.21-3.58c2,.69,4.06,1,5.66.16A4.39,4.39,0,0,1,348,180Z" fill="#fcaf75" opacity="0.5"/>
                <path id="Trazado_128970" data-name="Trazado 128970" d="M342.17,183l-.12,1.94-.2.34-1.18-.72h-.46A1.83,1.83,0,0,1,339,184l-2.44-1.75a1.88,1.88,0,0,1-.6-1.88,1.21,1.21,0,0,1-.25-1.13l-.08-.19a1.75,1.75,0,0,1,0-1.33c0-.09.25.45.25.45l1-2.41-.78,3,.31.63a24.289,24.289,0,0,0,1.29-4.4,1.54,1.54,0,0,1,1.21-1.06,1.64,1.64,0,0,0-.85,1.28,19,19,0,0,1-1.29,4.61,1.73,1.73,0,0,0,.33,1.89c.55.58,1.36.94,1.87.35a1.56,1.56,0,0,1-.26-1.72,9.46,9.46,0,0,0,1.17-3.92c.17-1.29.84-1.5,1.72-1.5a1.77,1.77,0,0,0-1.48,1.5,9.13,9.13,0,0,1-.95,4.05,1.22,1.22,0,0,0,.42,1.6A3.53,3.53,0,0,0,342.17,183Z" fill="#fcaf75" opacity="0.5"/>
                <g id="Grupo_61540" data-name="Grupo 61540">
                  <path id="Trazado_128971" data-name="Trazado 128971" d="M346.54,191c-.19.92-2.34,1.26-4.79.75s-4.3-1.67-4.11-2.59,2.34-1.26,4.8-.76S346.73,190.11,346.54,191Z" fill="#12263f"/>
                  <path id="Trazado_128972" data-name="Trazado 128972" d="M346.86,189.56l-8.9-1.84-.32,1.48,8.89,1.9Z" fill="#12263f"/>
                  <path id="Trazado_128973" data-name="Trazado 128973" d="M346.86,189.56c-.19.92-2.34,1.26-4.8.75s-4.29-1.67-4.1-2.59,2.34-1.27,4.8-.76S347.05,188.63,346.86,189.56Z" fill="#292928"/>
                  <path id="Trazado_128974" data-name="Trazado 128974" d="M346.7,189.22c-.19.93-2.27,1.28-4.64.79s-4.14-1.64-3.95-2.57,2.27-1.27,4.65-.78S346.89,188.3,346.7,189.22Z" fill="#3c3c3b"/>
                  <path id="Trazado_128975" data-name="Trazado 128975" d="M345.24,188.85c-.14.63-1.49.87-3,.54s-2.66-1.11-2.52-1.74,1.49-.87,3-.54S345.37,188.23,345.24,188.85Z" fill="#12263f"/>
                  <path id="Trazado_128976" data-name="Trazado 128976" d="M344.84,184.11l-2.75-.72a6.7,6.7,0,0,1-2.25,4l5.3,1a6.09,6.09,0,0,1-.3-4.28Z" fill="#12263f"/>
                  <path id="Trazado_128977" data-name="Trazado 128977" d="M346.27,183.13c-.17.86-1.24,1.35-2.88,1-1.42-.28-2.4-1.1-2.24-2.09s1.46-1.3,2.88-1S346.45,182.27,346.27,183.13Z" fill="#3c3c3b"/>
                  <path id="Trazado_128978" data-name="Trazado 128978" d="M345.91,182.37c-.09.42-1.1.56-2.25.31s-2-.79-1.91-1.21,1.1-.57,2.24-.32S346,182,345.91,182.37Z" fill="#525250"/>
                </g>
                <path id="Trazado_128979" data-name="Trazado 128979" d="M352.3,181.26l-1.63,1.34a31.906,31.906,0,0,1-3.07,2.27c-1.37.92-2.78,2.71-3.61,1.85-1.5-1.15,2.49-4.15,2.49-4.15a6.49,6.49,0,0,0,1.46-2.44,5.17,5.17,0,0,1,3.88.8Q352.06,181.08,352.3,181.26Z" fill="#fcaf75"/>
              </g>
            </g>
            <path id="Trazado_128980" data-name="Trazado 128980" d="M350.67,170.19c3-.12,3.7,2.72,4.93,5.81.39-.21-.06-.24.32-.46,1.31,0,14.74-10,15.77-10.78-2.28-4.56-5.08-8.12-9.8-8.07C358.38,161.55,355.46,164.09,350.67,170.19Z" fill="#f9aac2"/>
            <path id="Trazado_128981" data-name="Trazado 128981" d="M355.92,175.54a127.718,127.718,0,0,0,15.77-10.78,21,21,0,0,0-2.91-4.61Z" fill="#3f76ab" opacity="0.5"/>
            <path id="Trazado_128982" data-name="Trazado 128982" d="M390.22,193.12,384.8,196a7.383,7.383,0,0,1-.33.94c-1.15,2.84-3.1,4.4-6.33,6.74L371.45,208c-2,.6-2.13-.26-1.54-1.69l-2.75,1.9c-1.88,1.15-3.39-.1-2.53-1.51l-1.8.78c-1.53.42-2.26-.31-1.22-1.85a4.506,4.506,0,0,1,.44-.59l1.1-1c-1.56.78-3.15,0-1.12-2.05a77,77,0,0,1,10.7-10,23,23,0,0,1,8.66-2.29l5.86-2Z" fill="#fcaf75"/>
            <path id="Trazado_128983" data-name="Trazado 128983" d="M434.18,120.2c6.44,5.35,8.17,10.72,7,22.08-2.71,26-13.35,42.75-13.35,42.75-11.15,6.11-26.65,9.44-43.35,11.89.2-3.31-1.15-6.15-4.11-7.15,15-7.18,31.66-17.05,37.76-16.58.37-13.22,2.45-23.73,5.39-35.51C425.65,129.34,428.81,122.81,434.18,120.2Z" fill="#f9aac2"/>
            <path id="Trazado_128984" data-name="Trazado 128984" d="M384.44,196.94c-1.12,2.82-3.07,4.38-6.3,6.72L371.45,208c-2,.6-2.13-.26-1.54-1.69l-2.75,1.9c-1.88,1.15-3.39-.1-2.53-1.51.89,2.19,3,.34,5.88-1.48-1.38,2.65,1.43,1.92,2.92.39C378,202.8,382,199.94,384.44,196.94Z" fill="#fcaf75" opacity="0.5"/>
            <g id="Grupo_61547" data-name="Grupo 61547">
              <g id="Grupo_61544" data-name="Grupo 61544">
                <rect id="Rect치ngulo_7178" data-name="Rect치ngulo 7178" width="3.32" height="10.17" transform="translate(367.303 248.915) rotate(-60)" fill="#333332"/>
                <path id="Trazado_128985" data-name="Trazado 128985" d="M409.48,232.85l-34.07,19.57c0,1.54,1.06,2.15,2.37,1.4L407.11,237a5.24,5.24,0,0,0,2.37-4.1Z" fill="#333332"/>
                <path id="Trazado_128986" data-name="Trazado 128986" d="M331.9,227.1l33.98-19.42,43.6,25.17-34.07,19.57Z" fill="#575756"/>
                <g id="Grupo_61543" data-name="Grupo 61543">
                  <path id="Trazado_128987" data-name="Trazado 128987" d="M379.7,244.45l-1.93,1.12,2.39,1.38,1.94-1.12Z" fill="#dadada"/>
                  <path id="Trazado_128988" data-name="Trazado 128988" d="M372.03,242.26l2.4,1.38,1.94-1.12-2.4-1.38Z" fill="#dadada"/>
                  <path id="Trazado_128989" data-name="Trazado 128989" d="M371.1,239.48l-1.94,1.12,2.4,1.38,1.94-1.12Z" fill="#dadada"/>
                  <path id="Trazado_128990" data-name="Trazado 128990" d="M368.23,237.82l-1.93,1.12,2.39,1.39,1.94-1.12Z" fill="#dadada"/>
                  <path id="Trazado_128991" data-name="Trazado 128991" d="M365.36,236.17l-1.93,1.12,2.39,1.38,1.94-1.12Z" fill="#dadada"/>
                  <path id="Trazado_128992" data-name="Trazado 128992" d="M357.69,233.98l2.4,1.38,1.93-1.12-2.39-1.38Z" fill="#dadada"/>
                  <path id="Trazado_128993" data-name="Trazado 128993" d="M356.76,231.2l-1.94,1.12,2.4,1.38,1.93-1.12Z" fill="#dadada"/>
                  <path id="Trazado_128994" data-name="Trazado 128994" d="M353.89,229.54l-1.94,1.12,2.4,1.39,1.94-1.12Z" fill="#dadada"/>
                  <path id="Trazado_128995" data-name="Trazado 128995" d="M361.76,221.14l1.94-1.12-2.4-1.38-1.93,1.12Z" fill="#dadada"/>
                  <path id="Trazado_128996" data-name="Trazado 128996" d="M358.89,219.49l1.94-1.12-2.39-1.39-1.94,1.12Z" fill="#dadada"/>
                  <path id="Trazado_128997" data-name="Trazado 128997" d="M357.96,216.71l-2.39-1.38-1.94,1.12,2.4,1.38Z" fill="#dadada"/>
                  <path id="Trazado_128998" data-name="Trazado 128998" d="M392.3,239.49l1.93-1.12-2.39-1.38-1.94,1.12Z" fill="#dadada"/>
                  <path id="Trazado_128999" data-name="Trazado 128999" d="M389.43,237.84l1.93-1.12-2.39-1.39-1.94,1.12Z" fill="#dadada"/>
                  <path id="Trazado_129000" data-name="Trazado 129000" d="M372.69,228.17l4.35,2.51.91.53.48.27,1.19.7,1.67.96,2.4,1.38,2.87,1.66,1.94-1.12-7.86-4.53-.28-.16-5.73-3.32Z" fill="#dadada"/>
                  <path id="Trazado_129001" data-name="Trazado 129001" d="M372.22,227.9l1.93-1.12-2.39-1.38-1.94,1.11Z" fill="#dadada"/>
                  <path id="Trazado_129002" data-name="Trazado 129002" d="M369.35,226.24l1.94-1.11-2.4-1.39-1.94,1.12Z" fill="#dadada"/>
                  <path id="Trazado_129003" data-name="Trazado 129003" d="M368.42,223.47l-2.4-1.38-1.94,1.11,2.4,1.39Z" fill="#dadada"/>
                  <path id="Trazado_129004" data-name="Trazado 129004" d="M361.29,221.41l-2.4-1.38-1.93,1.12,2.39,1.38Z" fill="#dadada"/>
                  <path id="Trazado_129005" data-name="Trazado 129005" d="M358.42,219.76l-2.39-1.38-1.94,1.11,2.4,1.39Z" fill="#dadada"/>
                  <path id="Trazado_129006" data-name="Trazado 129006" d="M355.56,218.1l-2.4-1.38-1.94,1.12,2.4,1.38Z" fill="#dadada"/>
                  <path id="Trazado_129007" data-name="Trazado 129007" d="M391.82,239.76l-2.39-1.38-1.94,1.12,2.39,1.38Z" fill="#dadada"/>
                  <path id="Trazado_129008" data-name="Trazado 129008" d="M384.62,237.84l2.4,1.39,1.93-1.12-2.39-1.39Z" fill="#dadada"/>
                  <path id="Trazado_129009" data-name="Trazado 129009" d="M381.75,236.19l2.4,1.38,1.94-1.12-2.4-1.38Z" fill="#dadada"/>
                  <path id="Trazado_129010" data-name="Trazado 129010" d="M378.88,234.53l2.4,1.38,1.94-1.11-2.4-1.39Z" fill="#dadada"/>
                  <path id="Trazado_129011" data-name="Trazado 129011" d="M376.02,232.88l2.39,1.38,1.94-1.12-2.4-1.38Z" fill="#dadada"/>
                  <path id="Trazado_129012" data-name="Trazado 129012" d="M373.15,231.22l2.39,1.38,1.94-1.12-2.4-1.38Z" fill="#dadada"/>
                  <path id="Trazado_129013" data-name="Trazado 129013" d="M370.28,229.56l2.4,1.39,1.93-1.12-2.39-1.39Z" fill="#dadada"/>
                  <path id="Trazado_129014" data-name="Trazado 129014" d="M367.41,227.91l2.4,1.38,1.94-1.12-2.4-1.38Z" fill="#dadada"/>
                  <path id="Trazado_129015" data-name="Trazado 129015" d="M364.54,226.25l2.4,1.38,1.94-1.12-2.4-1.38Z" fill="#dadada"/>
                  <path id="Trazado_129016" data-name="Trazado 129016" d="M358.88,222.81l-2.39-1.39-1.94,1.12,2.39,1.39Z" fill="#dadada"/>
                  <path id="Trazado_129017" data-name="Trazado 129017" d="M351.68,220.88l2.4,1.39,1.93-1.12-2.39-1.38Z" fill="#dadada"/>
                  <path id="Trazado_129018" data-name="Trazado 129018" d="M353.14,219.49l-2.39-1.38-1.94,1.12,2.4,1.38Z" fill="#dadada"/>
                  <path id="Trazado_129019" data-name="Trazado 129019" d="M389.41,241.16l-2.39-1.39-1.94,1.12,2.4,1.38Z" fill="#dadada"/>
                  <path id="Trazado_129020" data-name="Trazado 129020" d="M382.21,239.23l2.4,1.39,1.94-1.12-2.4-1.38Z" fill="#dadada"/>
                  <path id="Trazado_129021" data-name="Trazado 129021" d="M383.68,237.84l-2.4-1.38-1.94,1.12,2.4,1.38Z" fill="#dadada"/>
                  <path id="Trazado_129022" data-name="Trazado 129022" d="M380.81,236.19l-2.4-1.39-1.93,1.12,2.39,1.39Z" fill="#dadada"/>
                  <path id="Trazado_129023" data-name="Trazado 129023" d="M377.94,234.53l-2.4-1.38-1.93,1.12,2.39,1.38Z" fill="#dadada"/>
                  <path id="Trazado_129024" data-name="Trazado 129024" d="M375.07,232.88l-2.39-1.39-1.94,1.12,2.39,1.38Z" fill="#dadada"/>
                  <path id="Trazado_129025" data-name="Trazado 129025" d="M367.87,230.95l2.4,1.39,1.93-1.12-2.39-1.38Z" fill="#dadada"/>
                  <path id="Trazado_129026" data-name="Trazado 129026" d="M369.33,229.56l-2.39-1.38L365,229.3l2.4,1.38Z" fill="#dadada"/>
                  <path id="Trazado_129027" data-name="Trazado 129027" d="M361.66,227.37l2.87,1.66,1.94-1.12-2.87-1.66,2.41-1.39-2.4-1.38-2.41,1.39-.78.45-1.16.67,1.61.92Z" fill="#dadada"/>
                  <path id="Trazado_129028" data-name="Trazado 129028" d="M354.54,225.32l1.93-1.12-2.39-1.39-1.94,1.12Z" fill="#dadada"/>
                  <path id="Trazado_129029" data-name="Trazado 129029" d="M351.21,221.16l-1.94,1.12,2.4,1.38,1.93-1.12Z" fill="#dadada"/>
                  <path id="Trazado_129030" data-name="Trazado 129030" d="M350.74,220.88l-2.4-1.38-1.94,1.12,2.4,1.38Z" fill="#dadada"/>
                  <path id="Trazado_129031" data-name="Trazado 129031" d="M387,242.55l-2.39-1.39-1.94,1.12,2.4,1.38Z" fill="#dadada"/>
                  <path id="Trazado_129032" data-name="Trazado 129032" d="M382.2,242.01l1.93-1.12-2.39-1.38-1.94,1.12Z" fill="#dadada"/>
                  <path id="Trazado_129033" data-name="Trazado 129033" d="M381.27,239.23l-2.4-1.38-1.94,1.12,2.4,1.38Z" fill="#dadada"/>
                  <path id="Trazado_129034" data-name="Trazado 129034" d="M376,236.19l-1.94,1.12,2.4,1.39,1.94-1.12Z" fill="#dadada"/>
                  <path id="Trazado_129035" data-name="Trazado 129035" d="M375.53,235.92l-2.4-1.38-1.93,1.12,2.39,1.38Z" fill="#dadada"/>
                  <path id="Trazado_129036" data-name="Trazado 129036" d="M372.66,234.27l-2.39-1.39L368.33,234l2.4,1.38Z" fill="#dadada"/>
                  <path id="Trazado_129037" data-name="Trazado 129037" d="M367.86,233.73l1.93-1.12-2.39-1.38-1.94,1.11Z" fill="#dadada"/>
                  <path id="Trazado_129038" data-name="Trazado 129038" d="M366.93,230.95l-2.4-1.38-1.94,1.12,2.4,1.38Z" fill="#dadada"/>
                  <path id="Trazado_129039" data-name="Trazado 129039" d="M361.19,227.64l-.88-.5-1.52-.88-1.93,1.12,1.52.88.87.5,2.87,1.66,1.94-1.12Z" fill="#dadada"/>
                  <path id="Trazado_129040" data-name="Trazado 129040" d="M347.32,226.71l2.4,1.39,1.93-1.12-2.39-1.38Z" fill="#dadada"/>
                  <path id="Trazado_129041" data-name="Trazado 129041" d="M346.39,223.94l-1.94,1.12,2.4,1.38,1.94-1.12Z" fill="#dadada"/>
                  <path id="Trazado_129042" data-name="Trazado 129042" d="M343.52,222.28l-1.94,1.12,2.4,1.39,1.94-1.12Z" fill="#dadada"/>
                </g>
                <path id="Trazado_129043" data-name="Trazado 129043" d="M388.73,223.84,383,227.16a1,1,0,0,1-.94,0l-8.68-5a.29.29,0,0,1,0-.55l5.75-3.32a1.06,1.06,0,0,1,.95,0l8.67,5a.29.29,0,0,1-.02.55Z" fill="#878787"/>
              </g>
              <g id="Grupo_61546" data-name="Grupo 61546">
                <g id="Grupo_61545" data-name="Grupo 61545">
                  <path id="Trazado_129044" data-name="Trazado 129044" d="M331.78,227.66l-9.38-34.28a4.86,4.86,0,0,0-1.68,4.33l8.13,29.74c.34,1.26,1.65,1.36,2.91.23Z" fill="#415165"/>
                  <path id="Trazado_129045" data-name="Trazado 129045" d="M365.97,218.54l7.12,34.96-43.57-25.16-7.12-34.96Z" fill="#415165"/>
                  <path id="Trazado_129046" data-name="Trazado 129046" d="M375.38,252.84,366,218.55a4.92,4.92,0,0,0-1.68,4.34l8.13,29.73c.35,1.26,1.65,1.36,2.91.24Z" fill="#333332"/>
                </g>
                <path id="Trazado_129047" data-name="Trazado 129047" d="M347.6,224.87c.25,1.49-.67,2.09-2.05,1.35a6.38,6.38,0,0,1-2.93-4c-.25-1.48.67-2.08,2.05-1.34a6.33,6.33,0,0,1,2.93,3.99Z" fill="#dadada"/>
              </g>
            </g>
            <g id="Grupo_61548" data-name="Grupo 61548">
              <path id="Trazado_129048" data-name="Trazado 129048" d="M284.42,112.74,273.56,82.79C271.79,71,264.81,68.67,259,66.69l-4.08,20.86,4,8.16,12.22,25c1.72,3.81,3.63,7.66,5.68,11.5l11.72-9.79C287.22,119.17,285.86,116,284.42,112.74Z" fill="#ededed"/>
              <path id="Trazado_129049" data-name="Trazado 129049" d="M272.06,111.64l-4.58-28.85-8.59,12.92,12.22,25c1.72,3.81,3.63,7.66,5.68,11.5l2.56-2.14a129.123,129.123,0,0,1-7.29-18.43Z" fill="#3c3c3b" opacity="0.15"/>
              <path id="Trazado_129050" data-name="Trazado 129050" d="M311.38,165.44c.83,1.38-.67,2.95-1.79,1.93l-.5-.27c.5,1-.95,2.69-2.09,1.62l-1.36-1.26c-.12,1.38-.59,2.07-1.95,1.17l-3.95-4.83-4.69-3.5V163l1.47,2.61c.84,1.72-.66,3.12-1.78,1.6l-1.31-1.83-.76-1.05-1-3a25.539,25.539,0,0,1,1.14-6.83l-1.59-1.31,4.71-3.31,2.4,1.38c2.57.24,8,4,8.76,5.29l3.74,5.54c1.19,1.53,1.26,3-.1,2.5Z" fill="#fcaf75"/>
              <path id="Trazado_129051" data-name="Trazado 129051" d="M276.79,132.16a197.611,197.611,0,0,0,15.4,24.44l1.56-1.89c1.43-1.94,3-3.2,4.9-3.4-1.76-8.74-6-18.75-10.14-28.94Z" fill="#ededed"/>
              <path id="Trazado_129052" data-name="Trazado 129052" d="M276.79,132.16a197.611,197.611,0,0,0,15.4,24.44l1.56-1.89A186,186,0,0,1,279.35,130Z" fill="#3c3c3b" opacity="0.15"/>
            </g>
            <path id="Trazado_129053" data-name="Trazado 129053" d="M269.52,86.93C256,106.36,226.86,111,226.45,111.6c-2.49.16-4.83.24-7,.25-39.67.26-39.21-21.06-39.21-21.06,29.21-28.91,41.95-28.51,50.15-29.52,5.25-.64,8.27.26,12-.19,17.24-2.12,15.78.77,25.32,5.38C274.21,72.78,274.23,79.65,269.52,86.93Z" fill="#ededed"/>
            <path id="Trazado_129054" data-name="Trazado 129054" d="M251.7,59.78C251.34,59.64,242,62,242,62c-4.27,1.19-7.1,14.35,4.77,17.52l11.95-.42Z" fill="#fcaf75"/>
            <path id="Trazado_129055" data-name="Trazado 129055" d="M244.85,61.26c-.78-1-2.47-.65-5.68-.18,0,0-5.53,16.34,9.37,25.31,2-2.19,3.51-7.1,3.51-7.1C244.16,75.25,242.09,65.21,244.85,61.26Z" fill="#c6c6c6"/>
            <path id="Trazado_129056" data-name="Trazado 129056" d="M255,87.19V81.47l-2.92-2-1.6,3.71,1.6,5.06a364.4,364.4,0,0,1,0,42.07l4.75,4.52,3.27-7.41C259.49,116.43,257.35,97.57,255,87.19Z" fill="#a1241d"/>
            <path id="Trazado_129057" data-name="Trazado 129057" d="M252.05,79.29,255.4,84s9.49-17.09,6.7-20.71S252.05,79.29,252.05,79.29Z" fill="#c6c6c6"/>
            <path id="Trazado_129058" data-name="Trazado 129058" d="M261.29,78.73c0,5.25-4,13.76-9.1,11-12.79-7.38-9.5-21.57-4-24.19Z" fill="#3c3c3b" opacity="0.15"/>
            <path id="Trazado_129059" data-name="Trazado 129059" d="M260.89,39.48c-9.15.09-14.37,4.4-14.73,14,.27,10,.77,16.09,5.61,22.94,3,3.79,7.12,6.53,11.8,6.29,5.56-.28,13.79-13.63,14.58-23.28C279.5,49.62,271.19,42.14,260.89,39.48Z" fill="#fcaf75"/>
            <path id="Trazado_129060" data-name="Trazado 129060" d="M277,66.42c-2.07,4.88-14.21,4-19.54-2L256.88,68,252,63.94l-4.26,5.55-1.55-2.19c-3.88-7.8-3.68-20.62,7.38-27.07C268.33,34.29,286.68,51.51,277,66.42Z"/>
            <path id="Trazado_129061" data-name="Trazado 129061" d="M250.61,68.14A7.88,7.88,0,0,1,249.4,65a3.59,3.59,0,0,1,1.06-3.1,2.58,2.58,0,0,1,3.2-.16,2.78,2.78,0,0,1,.91,2.12,8,8,0,0,1-.42,2.31l-.6,2a1.88,1.88,0,0,1-.76,1.22,1.33,1.33,0,0,1-1.31-.19,3.3,3.3,0,0,1-.87-1.06Z" fill="#fcaf75"/>
            <path id="Trazado_129062" data-name="Trazado 129062" d="M186.35,102.82l24.43-8.64c8.55,6.83,18.08,12.61,34.33,11.27-11.19,4.68-22.88,7.86-36.33,5.88C199.79,110.4,192.11,107.82,186.35,102.82Z" fill="#3c3c3b" opacity="0.15"/>
            <g id="Grupo_61554" data-name="Grupo 61554">
              <g id="Grupo_61553" data-name="Grupo 61553">
                <g id="Grupo_61551" data-name="Grupo 61551">
                  <g id="Grupo_61549" data-name="Grupo 61549">
                    <path id="Trazado_129063" data-name="Trazado 129063" d="M260.6,183.11l27.07-15.63,38.58,22.27-27.07,15.63Z" fill="#fff"/>
                    <path id="Trazado_129064" data-name="Trazado 129064" d="M298.98,200.79l19.56-11.3,1.17.68-19.56,11.3Z" fill="#12263f"/>
                    <path id="Trazado_129065" data-name="Trazado 129065" d="M295.77,198.94l19.57-11.3.72.42-19.57,11.3Z" fill="#12263f"/>
                    <path id="Trazado_129066" data-name="Trazado 129066" d="M293.84,197.82l19.57-11.29.72.41-19.57,11.3Z" fill="#12263f"/>
                    <path id="Trazado_129067" data-name="Trazado 129067" d="M291.9,196.71l19.57-11.3.72.41-19.57,11.3Z" fill="#12263f"/>
                    <path id="Trazado_129068" data-name="Trazado 129068" d="M288.03,194.47l19.57-11.29.72.41-19.57,11.3Z" fill="#12263f"/>
                    <path id="Trazado_129069" data-name="Trazado 129069" d="M286.1,193.36l19.57-11.3.72.41-19.57,11.3Z" fill="#12263f"/>
                    <path id="Trazado_129070" data-name="Trazado 129070" d="M296.24,185.27l7.49-4.33.72.42-7.49,4.32Z" fill="#12263f"/>
                    <path id="Trazado_129071" data-name="Trazado 129071" d="M282.23,191.12l19.57-11.3.72.42-19.57,11.3Z" fill="#12263f"/>
                    <path id="Trazado_129072" data-name="Trazado 129072" d="M280.3,190l19.56-11.29.72.41-19.57,11.3Z" fill="#12263f"/>
                    <path id="Trazado_129073" data-name="Trazado 129073" d="M282.94,186.24l14.99-8.65.72.41-14.99,8.66Z" fill="#12263f"/>
                    <path id="Trazado_129074" data-name="Trazado 129074" d="M283.4,179.28l8.72-5.04.72.41-8.72,5.04Z" fill="#12263f"/>
                    <path id="Trazado_129075" data-name="Trazado 129075" d="M281.46,178.16l8.73-5.04.72.42-8.73,5.03Z" fill="#12263f"/>
                  </g>
                  <g id="Grupo_61550" data-name="Grupo 61550">
                    <path id="Trazado_129076" data-name="Trazado 129076" d="M283.38,181.77a1.329,1.329,0,0,0,0,.4,2.42,2.42,0,0,0,.32,1c.14.26.27.7.77.81.17-.2.1-.36,0-.54s-.27-.54-.4-.82a6.921,6.921,0,0,0-.54-.9,1.88,1.88,0,0,1,1.28-1.22c.07,0,0-.09-.07-.06a2,2,0,0,0-1.3,1.16l-.34-.42c-.85-.94-2-1.81-2.31-2.88a1.6,1.6,0,0,1,.25-1.42,2.07,2.07,0,0,1,1.84-.76,1,1,0,0,1,.87,1.38,3.341,3.341,0,0,1-1,1.26c-.05,0,.07.08.11,0,.78-.68,1.67-1.69.76-2.47a1.83,1.83,0,0,0-1.6-.2,2,2,0,0,0-1.2.94c-.54.94.1,1.95.87,2.79.46.5,1,1,1.43,1.48A3.521,3.521,0,0,1,283.38,181.77Zm.74,1.32c.13.26.38.57.28.84-.27-.08-.35-.29-.45-.44a3.554,3.554,0,0,1-.23-.42,2.5,2.5,0,0,1-.26-.9,1.14,1.14,0,0,1,0-.26,10.446,10.446,0,0,1,.66,1.18Z" fill="#1d71b8"/>
                    <path id="Trazado_129077" data-name="Trazado 129077" d="M275.86,185.34c1.36-.31,2.1-1.14,1.7-2h-.46a.35.35,0,0,0,.1-.36l-.05-.49a4.39,4.39,0,0,0,.82.38.39.39,0,0,0,.45-.11c.09-.14,0-.36-.1-.53.26.13.64.29.91.11s.14-.52.07-.72a13.35,13.35,0,0,0,2.54,1.91,1.38,1.38,0,0,0-.54-1,8.922,8.922,0,0,1-1-1.23c-.12-.19-.23-.39-.33-.58s-.25-.46-.09-.67a1.65,1.65,0,0,0,.34.73,3.151,3.151,0,0,0,.62.65,1.56,1.56,0,0,0,.7.37c.61.13.4-.64.34-.78a2.84,2.84,0,0,0-1.13-1.13.79.79,0,0,0-.7-.05.45.45,0,0,1,.3-.26.71.71,0,0,1,.67.12,3.439,3.439,0,0,1,.64.62c.16.18.6.56.31.77-.06,0,0,.08.09.05s.15-.27.06-.42a4.059,4.059,0,0,0-.65-.75,1.12,1.12,0,0,0-1.35-.39.42.42,0,0,0-.24.35.52.52,0,0,0-.2.25c-.05.21.1.43.2.62a6.72,6.72,0,0,0,.51.84,8.187,8.187,0,0,0,.71.87,3.2,3.2,0,0,1,.65.86,11.51,11.51,0,0,1-2.76-2.27c-.11-.14-.23-.29-.36-.43s-.14,0-.11,0l.36.44a1.82,1.82,0,0,1,.33.76.56.56,0,0,1-.05.28c-.13.31-.73,0-.86-.07a3.861,3.861,0,0,0-.69-.62h-.11a1.73,1.73,0,0,0,.56.55,1.37,1.37,0,0,1,.16.32.86.86,0,0,1,.05.23c0,.2-.28.17-.45.09l-.74-.36a8.021,8.021,0,0,0-.05.83c-.05.26-.45,0-.55,0a.489.489,0,0,0-.17,0,1.4,1.4,0,0,0,1.1.19c.34.76-.34,1.54-1.63,1.83C275.75,185.28,275.78,185.36,275.86,185.34Zm4.21-5.28c.49-.35,1.26.44,1.45.65a1.41,1.41,0,0,1,.31.52.861.861,0,0,1,.05.32.8.8,0,0,1,0,.15c-.06.21-.35.09-.47,0a2.73,2.73,0,0,1-1.11-1.07,1.34,1.34,0,0,1-.23-.57Z" fill="#1d71b8"/>
                  </g>
                </g>
                <g id="Grupo_61552" data-name="Grupo 61552">
                  <path id="Trazado_129078" data-name="Trazado 129078" d="M252.95,175l3.61,3.74,5.89-9.5-5.21-2.42Z" fill="#f69a62"/>
                  <path id="Trazado_129079" data-name="Trazado 129079" d="M271.86,171.9a6.34,6.34,0,0,0-.23,4.26l-.48,1.21-.42,1.1-.47,1.95a2.45,2.45,0,0,1-1.57.67l-.87,1.36c-.2.34-.66.42-1.33.29l-1.07,1.09c-.68.56-2.43.21-4.49.1-.14,0-3.63-1.7-3.63-1.7s-1.08-.47-1.3-1.25c-.31-1.1.09-1.32-.09-1.83s-1-.89-1-2.13c0-1.48,1-1.49,1.06-2.13s-.5-.7,0-2.22c.34-1.18,1.68-1.19,2-1.82s.37-1.94,1.35-2.95,3.13,0,3.13,0l2.43,1.37,5.23-.6.56.25A2.3,2.3,0,0,1,271.86,171.9Z" fill="#fcaf75"/>
                  <path id="Trazado_129080" data-name="Trazado 129080" d="M265.53,169.67l3.92.46v3.83a25.74,25.74,0,0,0-2.59-2.93C266.13,170.27,265.53,169.67,265.53,169.67Z" fill="#fcaf75"/>
                  <path id="Trazado_129081" data-name="Trazado 129081" d="M274.15,182.88,259,163.37a1.079,1.079,0,1,1,1.7-1.33l15.21,19.51c.36.47,1.29,2.48.82,2.85S274.52,183.35,274.15,182.88Z" fill="#12263f"/>
                  <path id="Trazado_129082" data-name="Trazado 129082" d="M271.15,177.37l-.42,1.1-.47,1.95a2.45,2.45,0,0,1-1.57.67l-.87,1.36c-.2.34-.66.42-1.33.29l-1.07,1.09c-.68.56-2.43.21-4.49.1a15.71,15.71,0,0,0,2.56-7.77l-2.16-3.3,8.68,2.95Z" fill="#fcaf75"/>
                  <path id="Trazado_129083" data-name="Trazado 129083" d="M260.1,171.83l3.86,3.23,5.2,1.62c2,.65,2.83-1.79.89-2.79-.23-.12-4.14-1.73-4.14-1.73l-3.19-4C260.47,167.77,259.45,170.12,260.1,171.83Z" fill="#fcaf75"/>
                  <path id="Trazado_129084" data-name="Trazado 129084" d="M264.05,169.32l-2.26-.26,4.12,3.1-1.13-2.84Z" fill="#fcaf75"/>
                  <path id="Trazado_129085" data-name="Trazado 129085" d="M276.89,184.82a2.53,2.53,0,0,1-.41-.43c-.08-.09.16-.32.25-.19l.29.37a.16.16,0,0,1,0,.22.17.17,0,0,1-.13.03Z" fill="#b2b2b2"/>
                </g>
              </g>
              <path id="Trazado_129086" data-name="Trazado 129086" d="M218,85.63c7.4.5,11,4.78,13.17,16.75l5.19,29.78c8.47,7.28,14,21.74,22.51,35.43-2.83,2.08-5.37,5.45-4.43,9-13.8-8.49-23.45-23-32.26-36.68C213.56,117.75,203.72,93,218,85.63Z" fill="#ededed"/>
            </g>
          </g>
          <g id="Grupo_61561" data-name="Grupo 61561">
            <g id="Grupo_61558" data-name="Grupo 61558">
              <g id="Grupo_61556" data-name="Grupo 61556">
                <path id="Trazado_129087" data-name="Trazado 129087" d="M122.26,350.76l111.72-64.5,159.21,91.92-111.72,64.5Z" fill="#ededed"/>
                <path id="Trazado_129088" data-name="Trazado 129088" d="M280.64,423.72l80.75-46.62,4.83,2.78-80.76,46.63Z" fill="#12263f"/>
                <path id="Trazado_129089" data-name="Trazado 129089" d="M267.42,416.09l80.75-46.63,2.97,1.72L270.39,417.8Z" fill="#12263f"/>
                <path id="Trazado_129090" data-name="Trazado 129090" d="M259.43,411.48l80.76-46.63,2.97,1.72L262.4,413.19Z" fill="#12263f"/>
                <path id="Trazado_129091" data-name="Trazado 129091" d="M251.45,406.87l80.75-46.63,2.97,1.72-80.75,46.62Z" fill="#12263f"/>
                <path id="Trazado_129092" data-name="Trazado 129092" d="M235.48,397.65l80.75-46.63,2.97,1.72-80.75,46.62Z" fill="#12263f"/>
                <path id="Trazado_129093" data-name="Trazado 129093" d="M227.5,393.04l80.75-46.62,2.97,1.71-80.75,46.62Z" fill="#12263f"/>
                <path id="Trazado_129094" data-name="Trazado 129094" d="M269.35,359.66l30.91-17.85,2.98,1.71-30.92,17.85Z" fill="#12263f"/>
                <path id="Trazado_129095" data-name="Trazado 129095" d="M211.53,383.82l80.75-46.63,2.97,1.72L214.5,385.53Z" fill="#12263f"/>
                <path id="Trazado_129096" data-name="Trazado 129096" d="M203.54,379.21l80.76-46.63,2.97,1.72-80.76,46.63Z" fill="#12263f"/>
                <path id="Trazado_129097" data-name="Trazado 129097" d="M214.47,363.68l61.84-35.7,2.97,1.71-61.84,35.7Z" fill="#12263f"/>
                <path id="Trazado_129098" data-name="Trazado 129098" d="M216.35,334.94l36.01-20.79,2.97,1.71-36.01,20.79Z" fill="#12263f"/>
                <path id="Trazado_129099" data-name="Trazado 129099" d="M208.36,330.33l36.02-20.79,2.97,1.71-36.01,20.79Z" fill="#12263f"/>
              </g>
              <g id="Grupo_61557" data-name="Grupo 61557">
                <path id="Trazado_129100" data-name="Trazado 129100" d="M216.28,345.23a6.05,6.05,0,0,0-.19,1.63,10.07,10.07,0,0,0,1.34,4.3c.57,1.09,1.1,2.91,3.17,3.36a.34.34,0,0,0,.33-.11,2.26,2.26,0,0,0-.23-2.11c-.55-1.13-1.12-2.26-1.67-3.39a27,27,0,0,0-2.23-3.73c.54-2,2.26-3.91,5.28-5,.29-.1,0-.37-.26-.26-3,1.1-4.7,2.87-5.38,4.8-.43-.58-.9-1.15-1.41-1.72-3.49-3.88-8.19-7.49-9.51-11.9a6.52,6.52,0,0,1,1-5.84,8.36,8.36,0,0,1,7.57-3.15c4.09.51,4.27,3.85,3.61,5.69s-2.44,3.63-4.27,5.22c-.19.17.28.32.47.15,3.23-2.81,6.89-7,3.12-10.2-1.54-1.32-4.28-1.49-6.6-.82A8.21,8.21,0,0,0,205.5,326c-2.23,3.91.42,8,3.58,11.51,1.9,2.07,4.09,4.05,5.93,6.14a20.2,20.2,0,0,1,1.27,1.58Zm3.06,5.45c.52,1.06,1.56,2.36,1.15,3.48-1.14-.35-1.45-1.22-1.85-1.85a15.74,15.74,0,0,1-.94-1.72,9.66,9.66,0,0,1-1.08-3.73,5.278,5.278,0,0,1,0-1.05,40.709,40.709,0,0,1,2.72,4.87Z" fill="#1d71b8"/>
                <path id="Trazado_129101" data-name="Trazado 129101" d="M185.23,360c5.64-1.25,8.67-4.7,7-8.06-.05-.11-.23-.14-.39-.1a7.087,7.087,0,0,1-1.52.18,1.4,1.4,0,0,0,.43-1.49l-.22-2A20.84,20.84,0,0,0,194,350a1.6,1.6,0,0,0,1.86-.46c.38-.58,0-1.5-.44-2.2,1.08.55,2.63,1.23,3.79.46s.57-2.13.25-3a.938.938,0,0,0-.14-.33,51.141,51.141,0,0,0,10.64,8.22c.15.09.48,0,.45-.11-.31-1.44-1.49-2.7-2.68-4a34.592,34.592,0,0,1-4-5.06c-.5-.79-.95-1.59-1.36-2.4s-1-1.88-.37-2.75a7.21,7.21,0,0,0,1.39,3,13.24,13.24,0,0,0,2.58,2.68,6.69,6.69,0,0,0,2.86,1.54c2.55.51,1.65-2.66,1.41-3.24-.72-1.72-2.59-3.39-4.67-4.66a3.24,3.24,0,0,0-2.89-.2,2,2,0,0,1,1.23-1.1,3.13,3.13,0,0,1,2.81.52,13.691,13.691,0,0,1,2.61,2.53c.69.77,2.51,2.36,1.28,3.18-.22.15.15.37.38.22.76-.51.61-1.1.26-1.71a16.77,16.77,0,0,0-2.68-3.13c-1.14-1.15-3.13-2.89-5.57-1.58a1.79,1.79,0,0,0-1,1.44,1.9,1.9,0,0,0-.8,1c-.21.85.4,1.76.8,2.56a29.62,29.62,0,0,0,2.1,3.44,34.563,34.563,0,0,0,2.93,3.61,12,12,0,0,1,2.68,3.55,48.23,48.23,0,0,1-11.4-9.36,15.707,15.707,0,0,0-1.44-1.77c-.17-.18-.6,0-.47.15.47.61,1,1.22,1.49,1.81a7.41,7.41,0,0,1,1.34,3.12,2.14,2.14,0,0,1-.18,1.16c-.55,1.3-3,0-3.58-.29l-.45-.25a8.869,8.869,0,0,0-2.37-2.31c-.17-.11-.53,0-.45.15a6.78,6.78,0,0,0,2.29,2.26,6,6,0,0,1,.66,1.31,4.469,4.469,0,0,1,.2,1c.1.83-1.13.71-1.87.37-1-.47-2-1-3-1.48-.17-.08-.48,0-.46.11a10,10,0,0,1,.27,3.31c-.26,1.08-1.88,0-2.3-.1a1.27,1.27,0,0,0-.67,0,.125.125,0,0,0-.06.24,7.27,7.27,0,0,0,4.58.53c1.4,3.14-1.42,6.36-6.7,7.54C184.78,359.73,184.91,360,185.23,360Zm17.37-21.76a1.31,1.31,0,0,1,0-.28c2.05-1.18,5.21,2.06,6,2.94a6.21,6.21,0,0,1,1.29,2.13,3.57,3.57,0,0,1,.18,1.33,2.689,2.689,0,0,1-.11.62c-.25.88-1.45.38-1.93.15a11.07,11.07,0,0,1-4.59-4.44,5.88,5.88,0,0,1-.84-2.5Z" fill="#1d71b8"/>
              </g>
            </g>
            <g id="Grupo_61560" data-name="Grupo 61560">
              <g id="Grupo_61559" data-name="Grupo 61559">
                <path id="Trazado_129102" data-name="Trazado 129102" d="M81.7,313.92c0-12.11,8.5-26.83,19-32.88,5.21-3,9.93-3.31,13.37-1.36s5.61,6.24,5.61,12.32c0,12.11-8.5,26.83-19,32.88C95.26,328,90.37,328.2,86.92,326,83.69,323.92,81.7,319.76,81.7,313.92Z" fill="#575756"/>
                <path id="Trazado_129103" data-name="Trazado 129103" d="M98.32,329.75c7.69,3.3,15.28-5.42,20.33-13,4.64-10.61,12.58-23.58,7.68-27.58-5.56-4-20.49.21-30.56,4.2C94.13,306.53,88.39,323.35,98.32,329.75Z" fill="#dadada"/>
                <path id="Trazado_129104" data-name="Trazado 129104" d="M90.69,321.37l14.89,11.36,24.33-39.22-16.49-9.96Z" fill="#f69a62"/>
                <path id="Trazado_129105" data-name="Trazado 129105" d="M126.33,289.18c-16.69-7-38.51,30.51-28,40.57L79.19,317.92c-6.3-13.9,7.49-40.65,26.2-42.73Z" fill="#ededed"/>
                <path id="Trazado_129106" data-name="Trazado 129106" d="M29.1,293.28l32.27-52.16,52.69,38.56c-3.44-1.95-8.16-1.65-13.37,1.36-10.49,6-19,20.77-19,32.88,0,5.84,2,10,5.22,12.07Z" fill="#12263f"/>
                <path id="Trazado_129107" data-name="Trazado 129107" d="M24.37,280.39c0,13.86,9.73,19.48,21.73,12.55s21.74-23.78,21.74-37.64-9.73-19.48-21.74-12.55S24.37,266.53,24.37,280.39Z" fill="#12263f"/>
              </g>
              <path id="Trazado_129108" data-name="Trazado 129108" d="M168.71,304.49a26.36,26.36,0,0,0-.94,17.57l-2,5-1.76,4.53-1.92,8.05a10.07,10.07,0,0,1-6.49,2.77l-3.57,5.6c-.82,1.41-2.72,1.74-5.5,1.22l-4.4,4.49c-2.81,2.31-10,.86-18.53.39h-.59l-14.38-6.95s-4.49-2-5.39-5.16c-1.28-4.56.39-5.45-.36-7.55s-4-3.71-4-8.8c0-6.12,4-6.16,4.37-8.8.3-2.33-2-2.87-.18-9.16,1.43-4.85,7-4.9,8.44-7.51,1.28-2.25,1.5-8,5.57-12.17,3.82-3.9,12.93,0,12.93,0l10,5.64,21.59-2.48,2.28,1a9.5,9.5,0,0,1,4.83,12.32Z" fill="#fcaf75"/>
              <path id="Trazado_129109" data-name="Trazado 129109" d="M142.61,295.28l16.17,1.91s.1,17.2,0,15.81c-.06-.85-6-7.21-10.69-12.08C145.08,297.79,142.61,295.28,142.61,295.28Z" fill="#fcaf75" opacity="0.5"/>
              <path id="Trazado_129110" data-name="Trazado 129110" d="M178.18,349.81l-62.73-80.53a4.46,4.46,0,1,1,7-5.48l62.73,80.53c1.52,1.94,5.36,10.24,3.42,11.75S179.7,351.76,178.18,349.81Z" fill="#12263f"/>
              <path id="Trazado_129111" data-name="Trazado 129111" d="M165.81,327.08l-1.76,4.53-1.92,8.05a10.07,10.07,0,0,1-6.49,2.77l-3.57,5.6c-.82,1.41-2.72,1.74-5.5,1.22l-4.4,4.49c-2.81,2.31-10,.86-18.53.39a65.12,65.12,0,0,0,10.54-32.07l-8.91-13.62,35.82,12.19Z" fill="#fcaf75" opacity="0.5"/>
              <path id="Trazado_129112" data-name="Trazado 129112" d="M120.22,304.22l15.93,13.33,21.43,6.67c8.29,2.69,11.69-7.4,3.68-11.5-1-.49-17.09-7.15-17.09-7.15L131,289.23C121.74,287.47,117.5,297.15,120.22,304.22Z" fill="#fcaf75"/>
              <path id="Trazado_129113" data-name="Trazado 129113" d="M136.51,293.84l-9.34-1.08,17,12.81-4.67-11.73Z" fill="#fcaf75" opacity="0.5"/>
              <path id="Trazado_129114" data-name="Trazado 129114" d="M189.49,357.81a.62.62,0,0,1-.47-.25l-1.2-1.53c-.35-.37.65-1.3,1-.79l1.2,1.54a.65.65,0,0,1-.12.9A.64.64,0,0,1,189.49,357.81Z" fill="#b2b2b2"/>
            </g>
          </g>
        </g>
      </g>
    </g>
  </g>
</svg>
