<svg xmlns="http://www.w3.org/2000/svg" xmlns:xlink="http://www.w3.org/1999/xlink" viewBox="0 0 1240 736.44"><defs><style>.cls-1,.cls-58,.cls-6{fill:none;}.cls-2{isolation:isolate;}.cls-3{fill:#dad5ed;}.cls-4{fill:#f1d9ef;}.cls-5{fill:#e5d9f1;}.cls-6{stroke:#b5abdb;stroke-miterlimit:10;stroke-width:4px;}.cls-7{fill:#6c58b8;}.cls-8{fill:url(#linear-gradient);}.cls-9{fill:#ac69c9;}.cls-10{fill:url(#linear-gradient-2);}.cls-11{fill:url(#linear-gradient-3);}.cls-12{fill:#cd0a45;}.cls-13{fill:#ef2a66;}.cls-14{fill:#bb43b0;}.cls-15{fill:#472ea6;}.cls-16{fill:#27127a;}.cls-17{fill:url(#linear-gradient-4);}.cls-18{fill:url(#linear-gradient-5);}.cls-19,.cls-28{font-size:20px;font-family:Roboto-Regular, Roboto;}.cls-19,.cls-46{fill:#12263f;}.cls-20{letter-spacing:-0.01em;}.cls-21{letter-spacing:0.02em;}.cls-22{letter-spacing:-0.01em;}.cls-23{letter-spacing:-0.02em;}.cls-24{fill:#7f43bb;}.cls-25{fill:url(#linear-gradient-7);}.cls-26{fill:url(#linear-gradient-8);}.cls-27{fill:url(#linear-gradient-9);}.cls-28,.cls-48{fill:#fff;}.cls-29{letter-spacing:-0.01em;}.cls-30{fill:url(#linear-gradient-11);}.cls-31{fill:url(#linear-gradient-12);}.cls-32{fill:url(#linear-gradient-13);}.cls-33{fill:#9743bb;}.cls-34{fill:url(#linear-gradient-15);}.cls-35{fill:url(#linear-gradient-16);}.cls-36{fill:url(#linear-gradient-17);}.cls-37{clip-path:url(#clip-path);}.cls-38{fill:#e96f5f;}.cls-39{fill:#f78978;}.cls-40{fill:#ffa089;}.cls-41{fill:#89b4fd;}.cls-42{fill:#100259;}.cls-43{fill:#ffe9d3;}.cls-44{fill:#f25585;}.cls-45{fill:#8c80b8;}.cls-47{fill:#b3204d;}.cls-49{fill:#b1b1b1;}.cls-50{fill:#f8ba8c;}.cls-51{fill:#e74e0f;}.cls-52{fill:#d6803d;}.cls-53{fill:#ebded1;}.cls-53,.cls-66{mix-blend-mode:multiply;}.cls-54{fill:#f5a554;}.cls-55{fill:#fbdbc8;mix-blend-mode:soft-light;opacity:0.5;}.cls-56{fill:#ececec;}.cls-57{fill:#70441c;}.cls-58{stroke:#70441c;stroke-linecap:round;stroke-linejoin:round;stroke-width:1.05px;}.cls-59{fill:#8f1c0a;}.cls-60{fill:#120000;}.cls-61{fill:#7f1f19;}.cls-62{fill:#300e00;}.cls-63{fill:#b31f1c;}.cls-64{fill:#df9d74;}.cls-65{fill:#e95a0c;}.cls-66{fill:#d6c9c8;}.cls-67{fill:#201419;}.cls-68{fill:#f4a48e;}.cls-69{fill:#e63826;}.cls-70{fill:#e4251d;}</style><linearGradient id="linear-gradient" x1="40.52" y1="373.6" x2="449.2" y2="373.6" gradientUnits="userSpaceOnUse"><stop offset="0" stop-color="#eaae5b"/><stop offset="1" stop-color="#efc07f"/></linearGradient><linearGradient id="linear-gradient-2" x1="41.62" y1="373.66" x2="448.09" y2="373.66" xlink:href="#linear-gradient"/><linearGradient id="linear-gradient-3" x1="38.36" y1="373.73" x2="451.35" y2="373.73" xlink:href="#linear-gradient"/><linearGradient id="linear-gradient-4" x1="111.43" y1="249.54" x2="391.47" y2="510.36" gradientUnits="userSpaceOnUse"><stop offset="0" stop-color="#ececec"/><stop offset="0.12" stop-color="#f1f1f1"/><stop offset="0.53" stop-color="#fbfbfb"/><stop offset="1" stop-color="#fff"/></linearGradient><linearGradient id="linear-gradient-5" x1="100.06" y1="246.61" x2="393.82" y2="504.68" gradientTransform="translate(336.05 -63.66) rotate(45)" gradientUnits="userSpaceOnUse"><stop offset="0" stop-color="#fff"/><stop offset="0.37" stop-color="#fbfbfb"/><stop offset="0.7" stop-color="#f1f1f1"/><stop offset="1" stop-color="#dfdfdf"/></linearGradient><linearGradient id="linear-gradient-7" x1="463.6" y1="216.71" x2="529.17" y2="281.34" gradientTransform="translate(662.72 -280.04) rotate(81)" gradientUnits="userSpaceOnUse"><stop offset="0" stop-color="#fff"/><stop offset="0.47" stop-color="#fbfbfb"/><stop offset="0.88" stop-color="#f1f1f1"/><stop offset="1" stop-color="#ececec"/></linearGradient><linearGradient id="linear-gradient-8" x1="471.59" y1="224.8" x2="519.57" y2="271.65" gradientTransform="matrix(1, 0, 0, 1, 0, 0)" xlink:href="#linear-gradient-5"/><linearGradient id="linear-gradient-9" x1="473.05" y1="227.56" x2="517.07" y2="267.91" gradientUnits="userSpaceOnUse"><stop offset="0" stop-color="#dfdfdf"/><stop offset="0.3" stop-color="#f1f1f1"/><stop offset="0.63" stop-color="#fbfbfb"/><stop offset="1" stop-color="#fff"/></linearGradient><linearGradient id="linear-gradient-11" x1="461.02" y1="476.53" x2="526.58" y2="541.16" gradientTransform="translate(917.17 -58.31) rotate(81)" xlink:href="#linear-gradient-7"/><linearGradient id="linear-gradient-12" x1="469.01" y1="484.63" x2="516.99" y2="531.47" gradientTransform="matrix(1, 0, 0, 1, 0, 0)" xlink:href="#linear-gradient-5"/><linearGradient id="linear-gradient-13" x1="470.47" y1="487.38" x2="514.49" y2="527.74" xlink:href="#linear-gradient-9"/><linearGradient id="linear-gradient-15" x1="493.99" y1="346.61" x2="559.56" y2="411.25" gradientTransform="translate(816.67 -200.47) rotate(81)" xlink:href="#linear-gradient-7"/><linearGradient id="linear-gradient-16" x1="501.98" y1="354.71" x2="549.96" y2="401.56" gradientTransform="matrix(1, 0, 0, 1, 0, 0)" xlink:href="#linear-gradient-5"/><linearGradient id="linear-gradient-17" x1="503.44" y1="357.47" x2="547.47" y2="397.82" xlink:href="#linear-gradient-9"/><clipPath id="clip-path"><path class="cls-1" d="M244.87,547.18A173.36,173.36,0,1,1,418.22,373.82,173.36,173.36,0,0,1,244.87,547.18Z"/></clipPath></defs><g class="cls-2"><g id="Layer_1" data-name="Layer 1"><path class="cls-3" d="M716.41,284.19a36.87,36.87,0,1,1,0-73.74h439.94a36.87,36.87,0,1,1,0,73.74Z"/><path class="cls-4" d="M716.41,546.76a36.87,36.87,0,0,1,0-73.74h439.94a36.87,36.87,0,1,1,0,73.74Z"/><path class="cls-5" d="M745.84,415.17a36.87,36.87,0,1,1,0-73.74h439.93a36.87,36.87,0,1,1,0,73.74Z"/><path class="cls-6" d="M490.64,229.35a285.44,285.44,0,0,1,3.14,283.45"/><path class="cls-7" d="M389.38,229A204.32,204.32,0,0,0,244.76,169.4H245V373.51Z"/><polygon class="cls-8" points="244.6 373.64 244.65 373.69 244.73 373.69 244.73 373.51 244.6 373.64"/><path class="cls-9" d="M245,373.87H449.4a202.91,202.91,0,0,0-60-144.81L245,373.51Z"/><polygon class="cls-10" points="244.55 373.69 244.65 373.69 244.6 373.64 244.55 373.69"/><polygon class="cls-11" points="244.73 373.76 244.73 373.69 244.65 373.69 244.73 373.76"/><path class="cls-12" d="M244.65,373.87h-.1L100.11,518.32a203,203,0,0,0,144.84,60V373.76Z"/><path class="cls-13" d="M245,578.34h-.16a204.23,204.23,0,0,0,144.74-59.86L245,373.76Z"/><path class="cls-14" d="M449.42,373.88H245v-.11L389.57,518.52A203.72,203.72,0,0,0,449.42,373.88Z"/><path class="cls-15" d="M245,373.51V169.28a202.89,202.89,0,0,0-144.66,59.94L244.76,373.64Z"/><path class="cls-16" d="M244.6,373.73,100.19,229.36A202.67,202.67,0,0,0,40.31,373.87H244.55Z"/><path class="cls-14" d="M40.47,373.87h0a204,204,0,0,0,59.61,144.47L244.55,373.87Z"/><path class="cls-17" d="M244.87,547.18A173.36,173.36,0,1,1,418.22,373.82,173.36,173.36,0,0,1,244.87,547.18Z"/><circle class="cls-18" cx="244.87" cy="373.82" r="183.36" transform="translate(-192.61 282.64) rotate(-45)"/><path class="cls-17" d="M244.87,547.18A173.36,173.36,0,1,1,418.22,373.82,173.36,173.36,0,0,1,244.87,547.18Z"/><text class="cls-19" transform="translate(763.48 231.75)">Entrega<tspan class="cls-20" x="68.4" y="0">r</tspan><tspan x="74.97" y="0">on información a los Sistemas de </tspan><tspan x="0" y="24">Información Electrónicos (SIE) diferentes a </tspan><tspan x="0" y="48">los documen</tspan><tspan class="cls-20" x="114.86" y="48">t</tspan><tspan x="121.2" y="48">os sopo</tspan><tspan class="cls-21" x="192.22" y="48">r</tspan><tspan x="199.47" y="48">tes.</tspan></text><text class="cls-19" transform="translate(763.48 502.97)">Oculta<tspan class="cls-20" x="57.51" y="0">r</tspan><tspan x="64.08" y="0">on la me</tspan><tspan class="cls-22" x="140.28" y="0">r</tspan><tspan x="146.87" y="0">cancía que estaba sujeta a </tspan><tspan x="0" y="24">un cont</tspan><tspan class="cls-20" x="66.46" y="24">r</tspan><tspan x="73.03" y="24">ol por la DIAN.</tspan></text><text class="cls-19" transform="translate(796.81 373.05)">Incumplie<tspan class="cls-20" x="87.02" y="0">r</tspan><tspan x="93.59" y="0">on una cita pa</tspan><tspan class="cls-23" x="218.66" y="0">r</tspan><tspan x="225.04" y="0">a una diligencia </tspan><tspan x="0" y="24">ordenada por la DIAN.</tspan></text><path class="cls-24" d="M495.69,299.19a51.24,51.24,0,1,1,0-102.47H695.08a51.24,51.24,0,0,1,0,102.47Z"/><circle class="cls-25" cx="495.3" cy="247.96" r="43.49" transform="translate(172.92 698.37) rotate(-81)"/><circle class="cls-24" cx="495.3" cy="247.96" r="39.2"/><circle class="cls-26" cx="495.3" cy="247.96" r="30.77"/><circle class="cls-27" cx="495.3" cy="247.96" r="29.2"/><circle class="cls-27" cx="495.3" cy="247.96" r="29.2"/><text class="cls-28" transform="translate(546.05 235.29)">Multa <tspan x="0" y="24">equi</tspan><tspan class="cls-29" x="37.84" y="24">v</tspan><tspan x="47.38" y="24">alente a </tspan><tspan x="0" y="48">300 UV</tspan><tspan class="cls-23" x="64.34" y="48">T</tspan></text><path class="cls-14" d="M493.11,559a51.24,51.24,0,1,1,0-102.47H692.49a51.24,51.24,0,1,1,0,102.47Z"/><circle class="cls-30" cx="492.72" cy="507.78" r="43.49" transform="translate(-85.89 915) rotate(-81)"/><circle class="cls-14" cx="492.72" cy="507.78" r="39.2"/><circle class="cls-31" cx="492.72" cy="507.78" r="30.77"/><circle class="cls-32" cx="492.72" cy="507.78" r="29.2"/><circle class="cls-32" cx="492.72" cy="507.78" r="29.2"/><text class="cls-28" transform="translate(543.46 488.81)">Multa equi<tspan class="cls-29" x="93.54" y="0">v</tspan><tspan x="103.09" y="0">alente </tspan><tspan x="0" y="24">a 100 UV</tspan><tspan class="cls-23" x="80.17" y="24">T</tspan><tspan x="91.71" y="24" xml:space="preserve"> o 100 </tspan><tspan x="0" y="48">% del </tspan><tspan class="cls-29" x="51.28" y="48">v</tspan><tspan x="60.82" y="48">alor FOB</tspan></text><path class="cls-33" d="M526.08,429.11a51.24,51.24,0,1,1,0-102.47H725.47a51.24,51.24,0,0,1,0,102.47Z"/><circle class="cls-34" cx="525.69" cy="377.86" r="43.49" transform="translate(70.24 837.97) rotate(-81)"/><circle class="cls-33" cx="525.69" cy="377.86" r="39.2"/><circle class="cls-35" cx="525.69" cy="377.86" r="30.77"/><circle class="cls-36" cx="525.69" cy="377.86" r="29.2"/><circle class="cls-36" cx="525.69" cy="377.86" r="29.2"/><text class="cls-28" transform="translate(576.44 359.47)">Multa <tspan x="0" y="24">equi</tspan><tspan class="cls-29" x="37.84" y="24">v</tspan><tspan x="47.38" y="24">alente a </tspan><tspan x="0" y="48">100 UV</tspan><tspan class="cls-23" x="64.34" y="48">T</tspan></text><g class="cls-37"><path class="cls-38" d="M246.56,274s-5.26,6.53-5.42,9.39.48,11.25-.73,14.07c-.38.88-3.77,7.5-5.72,8.09-1.32.4-3.38-2.8-1.71-6.2,2.89-5.91,1.75-10,1.28-12.85-.82-4.89-.93-7.72-1.45-5.54,0,0-.58,6.94-1.52,9.82-.25.78-3.28,6.52-5.09,6.73-1,.12-3.52-2-1.23-7.38,1.51-3.54-.05-6.39-1-9.26-.85-2.48-6.09-9.42-6.09-9.42l10-4.79Z"/><path class="cls-39" d="M249.65,287.06s1.67,12.41,1,17.22c-.27,1.93-1.76,8.17-3.55,8.94-2.94,1.27-5-3.86-3.48-9.56s-3.18-11.31-5.08-15.64L231,270.76Z"/><path class="cls-40" d="M153.11,249.32c2.76,1.41,5.33,2.75,7.57,3.94,1.25.67,2.39,1.28,3.4,1.84,1.63.9,2.92,1.65,3.73,2.18,2.08,1.37,5.46,3,8,5.32h0a9.67,9.67,0,0,1,3.4,5.88c.79,5.93,9.09,17.87,17.11,26.21a69.7,69.7,0,0,1,9.79,14c1.11,2.13,4.64,11,6.48,12,1.09.61,4.55-2,5.28-3.77,1.57-3.77-.13-9.3-4-18-3.72-8.27-3.49-12.56-2.46-16.4a8.94,8.94,0,0,1,5.26-6.55,28.49,28.49,0,0,1,3.46-1.49c3.68-1.25,9.47-2,13.88,3.3l.16.18h0c1.92,2.24,4.59,3.95,7,5.71s4.64,3.75,5.24,6.38c.74,3.21,2.57,6.31,4.41,9.76h0a45.71,45.71,0,0,1,3.61,8.21c2.29,7.39,6.61,7.85,8.65,5.39,1.11-1.34-.4-12.59-.82-14.22-.56-2.17-5.71-17-7-19.42-3.1-6.05-17.87-25.28-20.75-28.64-4.87-5.7-20.59-10.06-33.32-15-.86-.33-1.7-.67-2.55-1h0a101.46,101.46,0,0,1-13.38-6.83c-1.36-.83-2.7-1.68-4-2.57-.6-.4-1.19-.81-1.77-1.22A129.62,129.62,0,0,0,153.11,249.32Z"/><polygon class="cls-41" points="183.01 223.43 198.72 235.25 175.85 262.62 159.85 254.37 183.01 223.43"/><path class="cls-7" d="M116.26,229.9l46.57,26.78.44-.55.81-1,21.18-26.74,1.6-2,1.46-1.84-30.2-23.93C144.18,209,131.57,220.7,116.26,229.9Z"/><path class="cls-42" d="M172.54,256.08a1.37,1.37,0,1,0-.34,1.91A1.37,1.37,0,0,0,172.54,256.08Z"/><rect class="cls-43" x="166.73" y="289.66" width="170.16" height="210.92" transform="matrix(0.99, 0.13, -0.13, 0.99, 54.5, -29.84)"/><path class="cls-44" d="M314.7,418.9l-18.47-2.47-4.53,49.44,14.39,1.92Zm-8.31,65.89a9.34,9.34,0,0,0-.21-3.67,8.53,8.53,0,0,0-1.57-3.09,9,9,0,0,0-2.81-2.29,11.53,11.53,0,0,0-3.93-1.21,11.22,11.22,0,0,0-4.08.15,9,9,0,0,0-3.27,1.46,8.35,8.35,0,0,0-2.33,2.58A9.08,9.08,0,0,0,287,482.2a8.93,8.93,0,0,0,.22,3.63,8.52,8.52,0,0,0,1.57,3.07,9.2,9.2,0,0,0,2.78,2.28,11.45,11.45,0,0,0,3.9,1.21,11.58,11.58,0,0,0,4.1-.14,8.91,8.91,0,0,0,3.31-1.47,8.45,8.45,0,0,0,2.33-2.54A9.09,9.09,0,0,0,306.39,484.79Z"/><rect class="cls-45" x="283.15" y="318.58" width="49.5" height="1.82" transform="matrix(0.99, 0.13, -0.13, 0.99, 44.98, -37.93)"/><rect class="cls-45" x="282.33" y="324.74" width="49.5" height="1.82" transform="translate(45.79 -37.77) rotate(7.6)"/><rect class="cls-45" x="281.51" y="330.9" width="49.5" height="1.82" transform="translate(46.6 -37.61) rotate(7.6)"/><rect class="cls-45" x="263.61" y="345.51" width="35.54" height="2.61" transform="translate(48.36 -34.18) rotate(7.6)"/><rect class="cls-45" x="305.63" y="350.27" width="22.86" height="2.61" transform="translate(49.31 -38.86) rotate(7.6)"/><rect class="cls-45" x="188.66" y="337.48" width="65.2" height="2.61" transform="translate(46.77 -26.3) rotate(7.6)"/><rect class="cls-45" x="187.52" y="345.64" width="53.2" height="2.61" transform="translate(47.79 -25.28) rotate(7.6)"/><rect class="cls-45" x="245.96" y="353.44" width="53.2" height="2.61" transform="translate(49.34 -32.95) rotate(7.6)"/><rect class="cls-45" x="259.44" y="372.05" width="35.54" height="2.61" transform="translate(51.84 -33.4) rotate(7.6)"/><rect class="cls-45" x="301.46" y="376.82" width="22.86" height="2.61" transform="translate(52.78 -38.08) rotate(7.6)"/><rect class="cls-45" x="184.49" y="364.03" width="65.2" height="2.61" transform="translate(50.25 -25.51) rotate(7.6)"/><rect class="cls-45" x="183.35" y="372.19" width="53.2" height="2.61" transform="matrix(0.99, 0.13, -0.13, 0.99, 51.27, -24.5)"/><rect class="cls-45" x="241.66" y="381.87" width="81.69" height="2.61" transform="translate(53.19 -34.01) rotate(7.6)"/><rect class="cls-45" x="256.9" y="391.09" width="35.54" height="2.61" transform="translate(54.34 -32.89) rotate(7.6)"/><rect class="cls-45" x="298.92" y="395.85" width="22.86" height="2.61" transform="matrix(0.99, 0.13, -0.13, 0.99, 55.28, -37.57)"/><rect class="cls-45" x="181.95" y="383.06" width="65.2" height="2.61" transform="translate(52.75 -25.01) rotate(7.6)"/><rect class="cls-45" x="180.81" y="391.22" width="53.2" height="2.61" transform="translate(53.76 -23.99) rotate(7.6)"/><rect class="cls-45" x="239.25" y="399.02" width="53.2" height="2.61" transform="translate(55.31 -31.66) rotate(7.6)"/><rect class="cls-45" x="253.41" y="418.61" width="18.81" height="2.61" transform="translate(57.87 -31.08) rotate(7.6)"/><rect class="cls-45" x="178.39" y="411.69" width="65.2" height="2.61" transform="translate(56.5 -24.29) rotate(7.6)"/><rect class="cls-45" x="195.77" y="420.29" width="22.69" height="2.61" transform="translate(57.61 -23.7) rotate(7.6)"/><rect class="cls-45" x="223.67" y="425.67" width="47.48" height="2.61" transform="translate(58.67 -28.98) rotate(7.6)"/><rect class="cls-45" x="222.42" y="433.79" width="47.48" height="2.61" transform="translate(59.74 -28.75) rotate(7.6)"/><path class="cls-46" d="M199.23,299.88l3.85,15.17,7.69-13.63,3,.4-2.36,17.65-2.33-.31.92-6.87,1.21-7.39-7.7,13.52-1.78-.24-3.88-15-.76,7.41-.91,6.88-2.33-.31,2.36-17.65Z"/><path class="cls-46" d="M230.32,304l-1.6,12a5.68,5.68,0,0,1-2.12,3.87,6.36,6.36,0,0,1-4.46,1.22l-.62-.06a6.62,6.62,0,0,1-4.41-2.18,5.61,5.61,0,0,1-1.17-4.53l1.6-12,2.31.3-1.6,11.95a4.11,4.11,0,1,0,8.13,1.1l1.6-12Z"/><path class="cls-46" d="M234.23,320.58l8.36,1.11-.25,1.91-10.7-1.43L234,304.52l2.34.31Z"/><path class="cls-46" d="M256,309.39l-5.67-.76-2.1,15.75-2.32-.31L248,308.32l-5.66-.75.25-1.91,13.65,1.83Z"/><path class="cls-46" d="M265.87,322l-7.39-1-2.28,4.4-2.4-.32,9.1-16.75,2,.27,4.4,18.55-2.39-.32Zm-6.43-2.8,6,.8-1.91-8.65Z"/><path class="cls-40" d="M179.87,271c2.22,6.37,9.45,16.42,16.46,23.72a69.82,69.82,0,0,1,9.8,14c1.1,2.12,4.64,11,6.48,12,1.09.61,4.55-2,5.28-3.77,1.57-3.77-.13-9.3-4-18-3.72-8.27-3.49-12.56-2.46-16.4l.08-.26Z"/><path class="cls-47" d="M175.46,518.41c17.43.28,31.63-3.48,31.71-8.39s-14-9.12-31.42-9.4S144.12,504.09,144,509,158,518.12,175.46,518.41Z"/><polygon class="cls-47" points="207.17 510.02 207.44 504.34 201.69 505.1 144.31 503.33 144.04 509 162.79 515.17 189.54 512.23 207.17 510.02"/><path class="cls-44" d="M175.73,512.73c17.43.28,31.63-3.48,31.71-8.39s-14-9.12-31.42-9.4-31.63,3.48-31.71,8.39S158.3,512.45,175.73,512.73Z"/><path class="cls-47" d="M169,506.37c17.44.28,31.63-3.48,31.71-8.39s-14-9.12-31.42-9.4-31.63,3.47-31.71,8.39S151.61,506.09,169,506.37Z"/><polygon class="cls-47" points="200.75 497.98 201.02 492.31 195.27 493.07 137.89 491.29 137.62 496.97 156.37 503.14 183.12 500.19 200.75 497.98"/><path class="cls-44" d="M169.31,500.69c17.43.28,31.63-3.47,31.71-8.38s-14-9.13-31.42-9.41-31.63,3.48-31.71,8.39S151.88,500.41,169.31,500.69Z"/><path class="cls-47" d="M176.62,498.89c17.43.28,31.63-3.48,31.71-8.39s-14-9.12-31.43-9.4-31.63,3.47-31.71,8.38S159.18,498.61,176.62,498.89Z"/><polygon class="cls-47" points="208.33 490.5 208.59 484.82 202.84 485.58 145.46 483.81 145.19 489.48 163.94 495.66 190.7 492.71 208.33 490.5"/><path class="cls-44" d="M176.88,493.21c17.44.28,31.63-3.47,31.71-8.39s-14-9.12-31.42-9.4-31.63,3.48-31.71,8.39S159.45,492.93,176.88,493.21Z"/><path class="cls-48" d="M199.68,484.21l-4.37-.06a1.27,1.27,0,0,0-.32-.42,1.18,1.18,0,0,0-.29-.26,4.29,4.29,0,0,0-1.46-.81,13.57,13.57,0,0,0-3.37-.84.36.36,0,0,0-.2,0,28,28,0,0,0-3.82-.29h-1.3a18.89,18.89,0,0,0-5.67.88,12.69,12.69,0,0,0-2,.9s0,0,0,0a11,11,0,0,0-1.26.78c-.36.23-.68.42-1.07.62a.1.1,0,0,1-.06,0,12.15,12.15,0,0,1-5.93,1.13c-2.79-.06-4.89-.64-5.54-1.49a.9.9,0,0,1-.23-.58.29.29,0,0,1,0-.16A1.61,1.61,0,0,1,163,483a4.8,4.8,0,0,1,1.94-1.45s0,0,.07,0a3.05,3.05,0,0,0,.32-.13l-1.13-.13-2.82-.32a.21.21,0,0,0-.13.07,5.21,5.21,0,0,0-2,1.32s0,0,0,0a3.07,3.07,0,0,0-.29.48,1,1,0,0,0-.13.42.34.34,0,0,0,0,.17l-1.37,0h-.06l-2.85,0-1.69,0v.52l0,.16v.39l2.88,0,3.28.06a2.69,2.69,0,0,0,.87.88A13.86,13.86,0,0,0,165.5,487h0c1.11.13,2.24.23,3.41.26,4.34.07,7.22-.48,9.49-1.65a.14.14,0,0,0,.13-.07,8.7,8.7,0,0,0,1.23-.68s0,0,.07,0a.72.72,0,0,1,.19-.13,9.59,9.59,0,0,1,1.69-.94,9.88,9.88,0,0,1,4.79-.87,12.88,12.88,0,0,1,3.27.42,4,4,0,0,1,1.4.65c.06.06.13.13.13.19a.71.71,0,0,1,.25.58,1.11,1.11,0,0,1-.09.46.9.9,0,0,1-.26.45,3.73,3.73,0,0,1-1.3,1l-.39.2.39.06,3.5.42a11.59,11.59,0,0,0,1-.58,2.53,2.53,0,0,0,1-1.39c0-.07,0-.1,0-.16l5.73.09v-1Z"/><path class="cls-47" d="M176.66,490.42c17.44.28,31.63-3.47,31.71-8.38s-14-9.13-31.42-9.41-31.63,3.48-31.71,8.39S159.23,490.14,176.66,490.42Z"/><polygon class="cls-47" points="208.37 482.04 208.64 476.36 202.89 477.12 145.51 475.34 145.24 481.02 163.99 487.19 190.75 484.24 208.37 482.04"/><path class="cls-44" d="M176.93,484.75c17.44.28,31.63-3.48,31.71-8.39s-14-9.12-31.42-9.4-31.63,3.47-31.71,8.38S159.5,484.47,176.93,484.75Z"/><path class="cls-48" d="M199.81,475.76l-4.43-.07s0-.06-.07-.1a1,1,0,0,0-.16-.22,4.57,4.57,0,0,0-1.85-1.17c-.06,0-.1-.06-.13,0a11.79,11.79,0,0,0-1.23-.42c-.19,0-.42-.1-.65-.13v0a28.7,28.7,0,0,0-5.38-.56h-1.1c-4.27.07-6.74.94-8.91,2.4a1.53,1.53,0,0,0-.26.16,6.1,6.1,0,0,1-.58.36,4.19,4.19,0,0,1-.52.29,7.07,7.07,0,0,1-.84.36,12.85,12.85,0,0,1-5.12.78,14.42,14.42,0,0,1-3.05-.36,4.6,4.6,0,0,1-2.23-.91s0,0,0,0a1.19,1.19,0,0,1-.23-.22c0-.07-.1-.13-.1-.2a.35.35,0,0,1-.06-.16.61.61,0,0,1,0-.23c0-.84.94-1.62,2.17-2.2.13-.07.26-.1.39-.16l-3.93-.46a5.08,5.08,0,0,0-2.13,1.4,1.87,1.87,0,0,0-.49.9.46.46,0,0,0,0,.2l-2.69,0-1.59,0-1.68,0v1l1.49,0L159,476a2.5,2.5,0,0,0,.55.64c.1.1.23.17.32.26,1.53,1,4.41,1.66,7.62,1.82.48,0,1,.06,1.49.06a22.17,22.17,0,0,0,8.46-1.13,12.66,12.66,0,0,0,1.91-1l.48-.3c.49-.32.94-.58,1.4-.84a9.94,9.94,0,0,1,5.38-1.1,9.63,9.63,0,0,1,1.71.13.05.05,0,0,1,.07,0,6.14,6.14,0,0,1,2.46.68,1.38,1.38,0,0,1,.71.65c0,.06.07.1,0,.16a.27.27,0,0,1,.07.23,1,1,0,0,1-.07.32.21.21,0,0,1,0,.13,2.74,2.74,0,0,1-1.26,1.26l-.68.36.61.07,3.28.38a4,4,0,0,0,1.88-1.49,2,2,0,0,0,.16-.45c0-.06,0-.1,0-.16l5.73.1,0-.56v-.48Z"/><path class="cls-47" d="M176.71,482.37c17.43.28,31.63-3.47,31.7-8.39s-14-9.12-31.42-9.4-31.63,3.48-31.71,8.39S159.27,482.09,176.71,482.37Z"/><polygon class="cls-47" points="208.41 473.98 208.68 468.31 202.93 469.07 145.55 467.29 145.28 472.97 164.03 479.14 190.79 476.19 208.41 473.98"/><path class="cls-44" d="M177,476.69c17.44.28,31.63-3.47,31.71-8.38s-14-9.12-31.42-9.4-31.63,3.47-31.71,8.38S159.54,476.41,177,476.69Z"/><path class="cls-48" d="M200.66,467.72l-.88,0H199l-3.56-.07a2.85,2.85,0,0,0-1.17-1c-.29-.16-.58-.29-.94-.46a14.56,14.56,0,0,0-3.53-.87A32.72,32.72,0,0,0,186,465h-1.33a20.18,20.18,0,0,0-4.86.61,14.09,14.09,0,0,0-3.14,1.36,9,9,0,0,0-.94.62c-.36.23-.75.45-1.14.65a11.87,11.87,0,0,1-5.89,1.1c-2.73-.07-4.83-.58-5.51-1.46a.29.29,0,0,1-.13-.16.72.72,0,0,1-.13-.45c0-.88,1-1.66,2.3-2.21a1.23,1.23,0,0,1,.29-.13l-3.95-.48a5.11,5.11,0,0,0-2.11,1.39,2,2,0,0,0-.55,1.13l-3.79-.06h-.55l-1.62,0v1l1.29,0L159,468l.2.29a6.77,6.77,0,0,0,3.37,1.72h.06a26.83,26.83,0,0,0,6.38.78,25.08,25.08,0,0,0,6-.49,13.36,13.36,0,0,0,4.63-1.78c.07,0,.13-.1.2-.13a14.1,14.1,0,0,1,2.23-1.23,10.27,10.27,0,0,1,4.54-.71c2,0,4.27.42,4.89,1.29a.15.15,0,0,0,0,.07.86.86,0,0,1,.13.38v.07a1.26,1.26,0,0,1-.1.49s0,.06-.06.13a4.06,4.06,0,0,1-1.88,1.45l2.69.33,1.2.16c.16-.07.32-.16.45-.23a3.14,3.14,0,0,0,1.59-1.65v-.06a.51.51,0,0,0,.06-.2l3.47.07,2,0h.29l0-.55v-.49Z"/><path class="cls-47" d="M169.62,476c17.43.28,31.63-3.48,31.71-8.39s-14-9.12-31.42-9.4-31.63,3.47-31.71,8.39S152.19,475.73,169.62,476Z"/><polygon class="cls-47" points="201.33 467.62 201.6 461.95 195.85 462.71 138.46 460.93 138.2 466.61 156.95 472.78 183.7 469.83 201.33 467.62"/><ellipse class="cls-44" cx="170.03" cy="461.44" rx="8.89" ry="31.57" transform="translate(-294.08 624.03) rotate(-89.08)"/><path class="cls-48" d="M192.69,461.34h-1.27l-3.11-.07a3,3,0,0,0-1.2-1.1l-.16-.1a5.84,5.84,0,0,0-.87-.35,7.44,7.44,0,0,0-1.4-.42,24.7,24.7,0,0,0-5.83-.68h-1.07c-.68,0-1.33,0-1.94.09s-1.14.13-1.65.2a13.28,13.28,0,0,0-5.58,2.27c-.22.13-.45.29-.68.42,0,0,0,0,0,0a1.86,1.86,0,0,1-.42.22,12.23,12.23,0,0,1-5.93,1.14,18.39,18.39,0,0,1-2.53-.23,5,5,0,0,1-3-1.26,1.06,1.06,0,0,1-.23-.52v-.07a2.18,2.18,0,0,1,1-1.52,5.71,5.71,0,0,1,1.17-.68l.38-.16-4-.45a3.38,3.38,0,0,0-.61.25,5.36,5.36,0,0,0-1.53,1.14,0,0,0,0,1,0,0,2,2,0,0,0-.45,1.07l-1.53,0h-1l-1.78,0-1.68,0V461l0,.16v.39l3.5.07h1l1.69,0a2,2,0,0,0,.26.36c.87,1,2.95,1.68,5.51,2a30.59,30.59,0,0,0,4.21.39c5.15.06,8.2-.72,10.69-2.34l.16-.09a10.56,10.56,0,0,1,4.57-1.85h0a19.35,19.35,0,0,1,2.14-.1c2.37,0,5.09.59,5.06,1.85a1.1,1.1,0,0,1-.1.45v0a4,4,0,0,1-1.94,1.59l3.88.46a3.94,3.94,0,0,0,1.91-1.53.2.2,0,0,0,.07-.16c.06-.06.06-.16.1-.26s0-.1,0-.16l2.43,0,3.3.07v-1Z"/><path class="cls-47" d="M179.35,462.41c17.43.28,31.63-3.47,31.71-8.38s-14-9.13-31.43-9.41S148,448.1,147.92,453,161.91,462.13,179.35,462.41Z"/><polygon class="cls-47" points="211.06 454.03 211.32 448.35 205.57 449.11 148.19 447.33 147.92 453.01 166.68 459.18 193.43 456.23 211.06 454.03"/><path class="cls-44" d="M179.62,456.74c17.43.28,31.63-3.48,31.7-8.39s-14-9.12-31.42-9.4-31.63,3.47-31.71,8.38S162.18,456.46,179.62,456.74Z"/><path class="cls-48" d="M203.54,447.76l-1.13,0-4.38-.06a1.1,1.1,0,0,0-.32-.39.64.64,0,0,0-.13-.17s-.07,0-.1-.09a5.82,5.82,0,0,0-1.52-.85,21.69,21.69,0,0,0-7.39-1.16h-1.29a22.27,22.27,0,0,0-4,.42.15.15,0,0,0-.07,0,13.13,13.13,0,0,0-4.08,1.62c-.26.16-.52.33-.78.52a12.34,12.34,0,0,1-1.13.65,11.92,11.92,0,0,1-5.93,1.1c-2.75-.06-4.86-.62-5.51-1.46a.91.91,0,0,1-.23-.61c0-.88,1-1.66,2.24-2.21a3.05,3.05,0,0,0,.32-.13l-4-.48a5.11,5.11,0,0,0-2.1,1.42,1.81,1.81,0,0,0-.52,1.1l-4.38-.06-1.58,0v1l6.12.1c1,1.72,5.31,2.72,10,2.79a28.71,28.71,0,0,0,5.28-.33,13.47,13.47,0,0,0,5.57-2.07,10.53,10.53,0,0,1,.94-.58l0,0a9.88,9.88,0,0,1,5.8-1.32c2.34,0,5.06.55,5,1.81a1.48,1.48,0,0,1-.1.49,3.67,3.67,0,0,1-1.94,1.58l3.56.46H196l.16,0c1-.45,1.85-1,2-1.94a.4.4,0,0,0,.07-.2l4.7.07,1,0v-1Z"/><ellipse class="cls-44" cx="223.43" cy="483.79" rx="33.63" ry="34.59" transform="translate(-6.88 3.24) rotate(-0.82)"/><path class="cls-48" d="M225.35,480.75a21.61,21.61,0,0,1-6.16-3.37,1.43,1.43,0,0,1-.32-.33,5,5,0,0,1-1.43-3.56c0-2.59,1.75-5.61,6.58-5.67a14.63,14.63,0,0,1,8,2.1l1.49-4.3a16.18,16.18,0,0,0-8.2-2.14l-.06-6.29h-.85l-3.07.07.06,3.27,0,3.27c-5.76,1-9.43,5.15-9.33,10.53a8.87,8.87,0,0,0,.62,3.31,2,2,0,0,0,.16.45c1.46,3.3,4.92,5.41,9.75,7.29,4.67,1.88,7.16,4,7.2,7.58s-2.92,6.38-7.39,6.45a16.18,16.18,0,0,1-9.07-2.66l-1.4,4.21-.06.17a17.9,17.9,0,0,0,9.65,2.69l.1,6.54,3.95-.06-.09-6.74a12.89,12.89,0,0,0,4.79-1.85,10.67,10.67,0,0,0,5-9.27C235.16,486.68,231.86,483.37,225.35,480.75Z"/><path class="cls-49" d="M365,519c0,1.74-12.82,3.15-28.65,3.15s-28.64-1.41-28.64-3.15,12.83-3.16,28.64-3.16S365,517.25,365,519Z"/><path class="cls-49" d="M334.39,522.38c0,1-7,1.82-15.56,1.82s-15.56-.81-15.56-1.82,7-1.82,15.56-1.82S334.39,521.38,334.39,522.38Z"/><path class="cls-50" d="M360.32,323.86s6.88,23,5.72,25.3c-2.17,4.28-10.39,11.78-10.39,11.78l-5.53-4.41,8.78-9.67-1.77-21.58Z"/><path class="cls-51" d="M351.55,353.31c-5.66,5-12.81,12.54-13.77,13.61-3.59,4,5.1,7.18,7.69,4.9,1.35-1.18,6.23-5.95,12.28-11.45Z"/><path class="cls-50" d="M361.2,317.57c.43,2.12-.88,6.29-.88,6.29l-3.19,1.42s-2.17-3.32-2.53-5C354.37,319.11,360.76,315.44,361.2,317.57Z"/><rect class="cls-52" x="339.53" y="330.29" width="55.26" height="24.44" transform="translate(-63.42 600.81) rotate(-73.97)"/><rect class="cls-53" x="363.47" y="319.86" width="16.58" height="7.69" transform="translate(-42 591.65) rotate(-73.97)"/><rect class="cls-54" x="306.12" y="310.37" width="55.26" height="45.08" transform="translate(-78.4 561.72) rotate(-73.97)"/><polygon class="cls-55" points="306.75 351.65 320.81 302.7 360.75 314.17 306.75 351.65"/><rect class="cls-56" x="364.6" y="319.91" width="15.96" height="7.43" transform="translate(-41.33 592.38) rotate(-73.97)"/><rect class="cls-57" x="339.75" y="338.89" width="2.62" height="16.64" transform="translate(-86.83 579.13) rotate(-73.97)"/><rect class="cls-57" x="340.96" y="347.11" width="2.62" height="11.26" transform="translate(-91.27 584.28) rotate(-73.97)"/><rect class="cls-58" x="341.85" y="356.31" width="4.05" height="3.99" transform="translate(-95.54 589.71) rotate(-73.95)"/><rect class="cls-58" x="335.97" y="354.63" width="4.05" height="3.98" transform="translate(-98.04 583.08) rotate(-73.98)"/><path class="cls-59" d="M347.88,332.18s2.63-1.8,4-2.93c4-2.59,9.51-1.53,9.51-1.53s.08,1.63-4.17,3.76C353.26,333.47,347.88,332.18,347.88,332.18Z"/><path class="cls-60" d="M337.42,511.19c-.25,3.1-.75,6.39,2.46,7.2a70.82,70.82,0,0,0,15.05.33c2.43-.4,5.4-.81,5.53-1.91s-1-3.27-2.47-3.2c-3.58.15-7.15,0-10.55-3.27C346.26,509.19,336.92,510.2,337.42,511.19Z"/><path class="cls-61" d="M347.37,424.38s-21.8-24.66-25.67-9C318.77,427.24,334.08,436,334.08,436L339,467.65l-4,43.6,12.47-.91,4.11-43.85Z"/><path class="cls-62" d="M308.4,509.83c-1,3-2.7,7.11.24,8.63,1.71.88,10.72,3.94,14.16,3.89,1.71,0,5.86.31,6.24-.74s-.28-3.41-1.68-3.68c-3.52-.66-7-1.59-9.53-5.58C317,511,308.14,508.75,308.4,509.83Z"/><path class="cls-63" d="M339.79,439.84s9.5-9.11,7.92-21.71c-1-8.47-25.34-7.59-26.95-.3s2.46,22.2,2.46,22.2l.1,32.61L306.8,509.83l12.84,2.71,16.79-37.77Z"/><path class="cls-50" d="M342.61,371.67c-3.28,0-12.28-7.82-12.28-7.82s1.76-5.49-1.45-10.25c-.32-.49,2-.37,4.66.09.21.05.44.07.65.12h0a32.34,32.34,0,0,1,3.26.77h.05c2.27.62,4,1.44,3.67,2.2-.09.24-.21.47-.3.68a.2.2,0,0,0-.05.09c-1.14,2.49-2.16,4.54-1.21,5.68a2.48,2.48,0,0,0,1,.62C341.77,364.06,345.89,371.67,342.61,371.67Z"/><path class="cls-64" d="M341.17,356.78c-.09.24-.19.45-.26.68a.2.2,0,0,0-.05.09c-1.14,2.49-2.16,4.54-1.21,5.68a11.14,11.14,0,0,1-4.6-3.72,10.28,10.28,0,0,1-1.51-5.82c.21.05.44.07.65.12h0c1.12.21,2.24.49,3.26.77h.05C339.79,355.23,341.51,356,341.17,356.78Z"/><path class="cls-65" d="M320.76,417.83l26.95.3s-1.14-15.41-.43-26.72c0-26.85-6.63-27.56-6.63-27.56s-.42,1.88-3.91,1.88c-4.65,0-6.41-1.88-6.41-1.88a29.6,29.6,0,0,0-7.54,3.95C317.85,371.67,320.76,417.83,320.76,417.83Z"/><path class="cls-63" d="M347.28,391.41c0-3.72-.13-6.93-.35-9.71H334.37v30.23H320.45c.17,3.59,0,8.13,0,8.13l27.26-.86S346.57,402.72,347.28,391.41Z"/><path class="cls-50" d="M350.65,345.47c-.52,12.19-5.35,14.5-10.92,14.5-5,0-13.3-2.39-13.3-15.52,0-13.47-2.76-23.47,10.16-23.47C353.2,321,351.22,332,350.65,345.47Z"/><path class="cls-64" d="M337.55,353.47c.38-1.05,1-3.49,3.67-3.45,2.07,0,3,2.16,3.32,3.21a3.83,3.83,0,0,0-3.6-2.42C338.88,350.87,337.55,353.47,337.55,353.47Z"/><path class="cls-66" d="M342.27,345.8c0,.25-.67.69-1.88.69s-1.34-2-1.34-2a1.31,1.31,0,0,0,1.34,1.13C341.6,345.58,342.27,345.55,342.27,345.8Z"/><path class="cls-67" d="M348.75,340.52a1.17,1.17,0,1,1-1.17-1.2A1.18,1.18,0,0,1,348.75,340.52Z"/><path class="cls-48" d="M348.25,340.07a.44.44,0,1,1-.44-.45A.45.45,0,0,1,348.25,340.07Z"/><path class="cls-68" d="M350.26,343.79c0,.53-1.06,1-2.38,1s-2.38-.43-2.38-1,1.06-1,2.38-1S350.26,343.26,350.26,343.79Z"/><path class="cls-67" d="M333,340.52a1.17,1.17,0,1,0,1.17-1.2A1.18,1.18,0,0,0,333,340.52Z"/><path class="cls-48" d="M333.52,340.07a.45.45,0,0,0,.44.45.45.45,0,0,0,0-.9A.45.45,0,0,0,333.52,340.07Z"/><path class="cls-67" d="M332.1,335.54a6.16,6.16,0,0,1,1.35-.61,4.37,4.37,0,0,1,1.53-.17,3.08,3.08,0,0,1,.71.19l.57.37c.34.2-.32.78-.47.76a3.91,3.91,0,0,0-1-.17,4.94,4.94,0,0,0-1.19-.1,5.31,5.31,0,0,0-1.22.3C332,336.25,331.7,335.75,332.1,335.54Z"/><path class="cls-67" d="M349.4,335.54a5.88,5.88,0,0,0-1.34-.61,4.42,4.42,0,0,0-1.53-.17,3.08,3.08,0,0,0-.71.19l-.57.37c-.35.2.32.78.47.76a3.91,3.91,0,0,1,1-.17,4.94,4.94,0,0,1,1.19-.1,5.23,5.23,0,0,1,1.21.3C349.49,336.25,349.81,335.75,349.4,335.54Z"/><path class="cls-68" d="M331.5,343.79c0,.53,1.07,1,2.39,1s2.38-.43,2.38-1-1.07-1-2.38-1S331.5,343.26,331.5,343.79Z"/><path class="cls-67" d="M351,337.71s2.07-8.31,0-14-7.27-7.16-12-7.34-11.62.07-12.87,3.34c-7.13-1.54-4.12,22.42-4.12,22.42a20.8,20.8,0,0,1,7-4c-3.32-8.67,6-9.45,15-8.92C350.65,329.56,351,337.71,351,337.71Z"/><path class="cls-50" d="M321.65,343.79c0,2.11,1.84,5.72,4.86,4.86,2.18-.61,3.32-1.79,3.32-4.11s-2.25.24-3.1-1.91C325.46,339.44,321.62,340.67,321.65,343.79Z"/><path class="cls-67" d="M326.18,342.82c-.59-1.26-2-3.5-4.12-.67-.3-2.92,1.3-5.37,1.61-7.55,1.2-8.34,1.36-.57,5.39,3.5-3.6,2-.54,6.14-.54,6.14l-1.24,1.23A9.24,9.24,0,0,1,326.18,342.82Z"/><path class="cls-69" d="M347.21,331.34c-8.94.28-26.3.14-26.3-.45,0-11.51,5.88-15.52,15.83-15.52,9.33,0,14.92,1.53,15.58,13.08C352.37,329.22,350.16,329.81,347.21,331.34Z"/><path class="cls-70" d="M350.67,330.71c-3.81,3-11.62,3-14.32,2.54-3.78-.69-4.44-1.79-4.44-1.79s10.59-2.74,17.28-3.7c8.43-1.2,12.21,0,12.21,0S354.83,327.48,350.67,330.71Z"/><path class="cls-63" d="M337.37,383c.15,1.17-1.91,3.2-1.74,1-4.27-20.8-9.45-18.36-9.45-18.36l2.67-1.25S335.8,367.31,337.37,383Z"/><path class="cls-63" d="M346.81,381.82c.14,1.16-1.92,3.2-1.75,1-1.93-16.81-4.41-19-4.41-19S345.23,366.12,346.81,381.82Z"/><path class="cls-50" d="M358.81,313.7c-.24,1.05-1.58.57-1.47-.28.15-1.06.34-2.84.64-4.24.23-1.13,2.07-.67,1.84.44S359.1,312.48,358.81,313.7Z"/><path class="cls-50" d="M360.57,313.68c-.23.94-1.57.48-1.47-.29.13-1,.29-2.57.55-3.84.21-1,2.05-.57,1.84.43S360.83,312.57,360.57,313.68Z"/><path class="cls-50" d="M362.09,313.63c-.2.84-1.35.45-1.26-.24.11-.85.26-2.27.5-3.4.19-.91,1.76-.52,1.57.37S362.33,312.66,362.09,313.63Z"/><path class="cls-50" d="M357.2,313c-.23.95-1.57.49-1.47-.28.12-1,.28-2.58.55-3.84.21-1,2.05-.58,1.84.43S357.47,311.87,357.2,313Z"/><path class="cls-50" d="M367.7,371.47s-14.15,22.87-18.8,24.71c-2.94,1.17-21.41-15.6-21.41-15.6l3.5-5.87,17.33,14.59,17.85-22.42,3.7-2.46,2,6.63Z"/><path class="cls-51" d="M340.18,382.45s-8.4-11.39-10-13.09c-3.73-3.87-9.2-.49-7.79,4.47.49,1.72,11.46,14.65,11.46,14.65Z"/><path class="cls-50" d="M374,368.06c1.05.21.62,1.57-.24,1.47-1.07-.11-2.84-.25-4.25-.51-1.14-.2-.74-2,.38-1.84S372.81,367.8,374,368.06Z"/><path class="cls-50" d="M374,366.3c1,.2.54,1.56-.24,1.48-1-.1-2.58-.21-3.86-.44-1-.18-.63-2,.38-1.85S372.85,366.07,374,366.3Z"/><path class="cls-50" d="M373.87,364.78c.84.18.48,1.34-.21,1.27-.86-.09-2.28-.19-3.41-.4-.91-.16-.57-1.74.32-1.58S372.88,364.58,373.87,364.78Z"/><path class="cls-50" d="M373.35,369.69c.95.2.54,1.56-.24,1.48-1-.1-2.58-.21-3.86-.44-1-.18-.63-2,.38-1.85S372.24,369.46,373.35,369.69Z"/></g><path class="cls-46" d="M497.22,259.11h-3V239.24l-6,2.21v-2.71l8.54-3.2h.46Z"/><path class="cls-46" d="M533.6,385.89H518.23v-2.14l8.12-9a18.61,18.61,0,0,0,2.49-3.32,5.54,5.54,0,0,0,.69-2.65,4.23,4.23,0,0,0-1.11-3,3.92,3.92,0,0,0-3-1.17,4.64,4.64,0,0,0-3.46,1.26,4.85,4.85,0,0,0-1.23,3.52h-3a6.91,6.91,0,0,1,2.09-5.23,7.69,7.69,0,0,1,5.58-2,7.43,7.43,0,0,1,5.17,1.71,5.86,5.86,0,0,1,1.9,4.57q0,3.47-4.41,8.25l-6.28,6.82H533.6Z"/><path class="cls-46" d="M489.72,508.44H492a4.94,4.94,0,0,0,3.32-1.11,3.73,3.73,0,0,0,1.21-2.92q0-4.12-4.11-4.12a4.31,4.31,0,0,0-3.09,1.1,3.86,3.86,0,0,0-1.15,2.93h-3a6,6,0,0,1,2-4.63,8.36,8.36,0,0,1,10.38-.09,6.32,6.32,0,0,1,1.89,4.88,5.13,5.13,0,0,1-1,3,6.12,6.12,0,0,1-2.7,2.15,5.72,5.72,0,0,1,3,2,5.64,5.64,0,0,1,1.05,3.46,6.4,6.4,0,0,1-2.06,5,7.73,7.73,0,0,1-5.37,1.86,7.93,7.93,0,0,1-5.37-1.79,6,6,0,0,1-2.07-4.72h3a3.84,3.84,0,0,0,1.2,3,4.62,4.62,0,0,0,3.24,1.11,4.51,4.51,0,0,0,3.31-1.13,4.34,4.34,0,0,0,1.14-3.23,4,4,0,0,0-1.26-3.15,5.44,5.44,0,0,0-3.62-1.12h-2.24Z"/></g></g></svg>