<svg xmlns="http://www.w3.org/2000/svg" xmlns:xlink="http://www.w3.org/1999/xlink" width="476.357" height="380" viewBox="0 0 476.357 380">
  <defs>
    <linearGradient id="linear-gradient" y1="0.5" x2="1" y2="0.5" gradientUnits="objectBoundingBox">
      <stop offset="0.1" stop-color="#fed2a8"/>
      <stop offset="1" stop-color="#fda551"/>
    </linearGradient>
    <linearGradient id="linear-gradient-2" x1="0.292" y1="0.923" x2="0.662" y2="0.169" gradientUnits="objectBoundingBox">
      <stop offset="0" stop-color="#f57fa3"/>
      <stop offset="1" stop-color="#f25585"/>
    </linearGradient>
    <linearGradient id="linear-gradient-3" y1="0.5" x2="1" y2="0.5" gradientUnits="objectBoundingBox">
      <stop offset="0" stop-color="#2590cf"/>
      <stop offset="1" stop-color="#1460a2"/>
    </linearGradient>
    <linearGradient id="linear-gradient-4" x1="0" y1="0.499" x2="1" y2="0.499" xlink:href="#linear-gradient"/>
    <linearGradient id="linear-gradient-5" x1="0" y1="0.5" x2="1" y2="0.5" xlink:href="#linear-gradient"/>
  </defs>
  <g id="Grupo_124058" data-name="Grupo 124058" transform="translate(-838.287 -517.999)">
    <g id="CF6_paso" transform="translate(838.287 517.859)">
      <rect id="Rectángulo_6653" data-name="Rectángulo 6653" width="380" height="380" transform="translate(0 0.14)" fill="none"/>
      <g id="Grupo_60389" data-name="Grupo 60389" transform="translate(28.383 23.7)">
        <g id="Grupo_60352" data-name="Grupo 60352" transform="translate(154.615 267.902)">
          <g id="Grupo_60345" data-name="Grupo 60345">
            <path id="Trazado_124222" data-name="Trazado 124222" d="M145.188,248.242l2.226,1.265,16.836,9.727a2.783,2.783,0,0,0,2.53,0l16.988-9.816,2.214-1.265a.885.885,0,0,0,.519-.683.822.822,0,0,0-.506-.772l-19.062-11a2.783,2.783,0,0,0-2.53,0l-19.2,11.081c-.468.278-.62.645-.481.987a1.063,1.063,0,0,0,.468.481Z" transform="translate(-144.671 -229.28)" fill="#c4dbf2"/>
            <g id="Grupo_60344" data-name="Grupo 60344">
              <g id="Grupo_60343" data-name="Grupo 60343">
                <path id="Trazado_124223" data-name="Trazado 124223" d="M185.972,240.8l-2.214,1.265-16.988,9.8a2.821,2.821,0,0,1-2.53,0L147.4,242.137l-2.226-1.265a1.063,1.063,0,0,1-.468-.481h0v3.795h0a.923.923,0,0,0,.519.645l19.062,11a2.783,2.783,0,0,0,2.53,0l19.2-11.081a.974.974,0,0,0,.519-.645h0V240.1h0A.911.911,0,0,1,185.972,240.8Z" transform="translate(-144.66 -228.032)" fill="#173d7a"/>
                <path id="Trazado_124224" data-name="Trazado 124224" d="M145.188,243.412l2.226,1.265,16.836,9.727a2.821,2.821,0,0,0,2.53,0l16.988-9.8,2.214-1.265a.911.911,0,0,0,.519-.7.835.835,0,0,0-.506-.772l-19.062-11a2.783,2.783,0,0,0-2.53,0l-19.2,11.081c-.468.266-.62.645-.481.987a1.063,1.063,0,0,0,.468.481Z" transform="translate(-144.671 -230.56)" fill="url(#linear-gradient)"/>
              </g>
              <path id="Trazado_124225" data-name="Trazado 124225" d="M170.62,239.058a2.53,2.53,0,0,1,1.126,3.137,3.883,3.883,0,0,1-2.138,1.935,9.942,9.942,0,0,1-7.084.329,5.174,5.174,0,0,1-2.694-1.695c-.2-.278-.342-.557-.519-.835a3.555,3.555,0,0,1-1.265.1h-4.44a1.682,1.682,0,0,1-1.265-.4.493.493,0,0,1,0-.8v-.063l.253-.139a3.163,3.163,0,0,1,1.164-.152h4.554a2.53,2.53,0,0,1,.923.127c.076-.164.139-.316.215-.468a4.376,4.376,0,0,1,2.214-1.8,9.765,9.765,0,0,1,4.971-.67,8.577,8.577,0,0,1,2.985.835h.1l.481.278Zm-8.361,4.111a7.451,7.451,0,0,0,6.7,0c1.834-1.063,1.834-2.8,0-3.871a7.412,7.412,0,0,0-6.7,0C160.4,240.386,160.4,242.131,162.259,243.169Z" transform="translate(-142.692 -228.697)" fill="#fff"/>
            </g>
          </g>
          <g id="Grupo_60348" data-name="Grupo 60348" transform="translate(33.419 19.417)">
            <path id="Trazado_124226" data-name="Trazado 124226" d="M171.646,263.673l2.226,1.265,16.836,9.727a2.783,2.783,0,0,0,2.53,0l16.95-9.727,2.214-1.265a.885.885,0,0,0,.519-.683.822.822,0,0,0-.506-.772l-19.062-11a2.783,2.783,0,0,0-2.53,0l-19.2,11.081c-.468.278-.62.645-.481.987a1.062,1.062,0,0,0,.506.392Z" transform="translate(-171.091 -244.585)" fill="#c4dbf2"/>
            <g id="Grupo_60347" data-name="Grupo 60347" transform="translate(0.116)">
              <g id="Grupo_60346" data-name="Grupo 60346">
                <path id="Trazado_124227" data-name="Trazado 124227" d="M212.5,256.164l-2.214,1.265L193.3,267.245a2.783,2.783,0,0,1-2.53,0l-16.836-9.816-2.226-1.265a1.088,1.088,0,0,1-.455-.481h-.063v3.706a.265.265,0,0,0,0,.139h0a.936.936,0,0,0,.506.645l19.062,11a2.783,2.783,0,0,0,2.53,0l19.2-11.093a.948.948,0,0,0,.531-.645h0v-4.06h0a.911.911,0,0,1-.519.784Z" transform="translate(-171.183 -243.401)" fill="#173d7a"/>
                <path id="Trazado_124228" data-name="Trazado 124228" d="M171.707,258.673l2.226,1.265,16.836,9.727a2.783,2.783,0,0,0,2.53,0l16.988-9.727,2.214-1.265a.911.911,0,0,0,.531-.683.86.86,0,0,0-.519-.772l-19.062-11a2.783,2.783,0,0,0-2.53,0l-19.2,11.093c-.468.266-.62.645-.468.974A1.088,1.088,0,0,0,171.707,258.673Z" transform="translate(-171.179 -245.91)" fill="#fd8f25"/>
              </g>
              <path id="Trazado_124229" data-name="Trazado 124229" d="M195.95,259.091h0l-13.573-1.632a.582.582,0,0,1-.354-.974l3.883-4.035a.582.582,0,1,1,.835.8l-3.074,3.2,12.422,1.493a.583.583,0,0,1-.076,1.164Z" transform="translate(-168.352 -244.24)" fill="#fff"/>
            </g>
          </g>
          <g id="Grupo_60351" data-name="Grupo 60351" transform="translate(66.441 38.795)">
            <path id="Trazado_124230" data-name="Trazado 124230" d="M197.72,279.509l2.226,1.265,16.836,9.727a2.771,2.771,0,0,0,2.53,0l16.988-9.8,2.2-1.265a.923.923,0,0,0,.531-.683.847.847,0,0,0-.519-.772l-19.062-11a2.783,2.783,0,0,0-2.53,0l-19.2,11.081c-.455.278-.62.645-.468.987a1.088,1.088,0,0,0,.468.468Z" transform="translate(-197.197 -259.788)" fill="#c4dbf2"/>
            <g id="Grupo_60350" data-name="Grupo 60350" transform="translate(0.253)">
              <g id="Grupo_60349" data-name="Grupo 60349">
                <path id="Trazado_124231" data-name="Trazado 124231" d="M238.692,271.484l-2.214,1.265-16.988,9.8a2.783,2.783,0,0,1-2.53,0l-16.849-9.715-2.214-1.265a.987.987,0,0,1-.468-.468h0V274.9h0a.924.924,0,0,0,.519.645l19.062,11a2.783,2.783,0,0,0,2.53,0l19.2-11.093a.974.974,0,0,0,.519-.632h0V270.75h0a.911.911,0,0,1-.569.734Z" transform="translate(-197.388 -258.707)" fill="#173d7a"/>
                <path id="Trazado_124232" data-name="Trazado 124232" d="M197.907,274.082l2.214,1.265,16.849,9.715a2.783,2.783,0,0,0,2.53,0l16.988-9.8,2.214-1.265a.911.911,0,0,0,.519-.7.835.835,0,0,0-.506-.772l-19.05-10.992a2.783,2.783,0,0,0-2.53,0l-19.2,11.093c-.468.266-.632.645-.481.987A.987.987,0,0,0,197.907,274.082Z" transform="translate(-197.397 -261.23)" fill="#396caa"/>
              </g>
              <path id="Trazado_124233" data-name="Trazado 124233" d="M212.156,276.59a.481.481,0,0,1-.24-.063.443.443,0,0,1-.19-.367l.076-2.732-3.984-1.619a.43.43,0,0,1,.076-.822l4.807-.873,1.48-2.707a.417.417,0,0,1,.291-.215.443.443,0,0,1,.354.089l2.884,2.365h5.06a.417.417,0,0,1,.4.291.43.43,0,0,1-.139.481l-2.859,2.2,1.48,2.53a.418.418,0,0,1,0,.468.4.4,0,0,1-.417.164l-4.832-.936-4.086,1.771a.379.379,0,0,1-.164-.025Zm-2.669-5.06,2.909,1.189a.43.43,0,0,1,.266.4l-.063,2.353,3.592-1.556a.557.557,0,0,1,.253,0l4.035.784-1.265-2.049a.443.443,0,0,1,.114-.557l2.15-1.657h-3.972a.43.43,0,0,1-.278-.089l-2.543-2.138-1.328,2.53a.443.443,0,0,1-.3.215ZM212.978,270.468Z" transform="translate(-194.708 -259.652)" fill="#fff"/>
            </g>
          </g>
        </g>
        <g id="Grupo_60358" data-name="Grupo 60358" transform="translate(115.118)">
          <g id="Grupo_60354" data-name="Grupo 60354">
            <path id="Trazado_124234" data-name="Trazado 124234" d="M338.45,99.853,200.574,19.517c-3.63-2.112-11.764.316-11.764,6.185l3.58,129.25L336.1,242.776a4.566,4.566,0,0,0,6.894-2.922,7.344,7.344,0,0,0,.114-1.265V108.024A9.462,9.462,0,0,0,338.45,99.853Z" transform="translate(-93.48 -18.766)" fill="#396caa"/>
            <path id="Trazado_124235" data-name="Trazado 124235" d="M334.779,101.56,197.017,21.275a5.452,5.452,0,0,0-8.2,4.706V155.205a2.656,2.656,0,0,0,1.265,2.289l145.466,84.75a2.644,2.644,0,0,0,4.022-2.29V109.845a9.588,9.588,0,0,0-4.794-8.285Z" transform="translate(-93.478 -18.298)" fill="#173d7a"/>
            <path id="Trazado_124236" data-name="Trazado 124236" d="M194.47,150.679,271.3,195.457l7.159,4.187L330.879,230.2V107.178L194.47,27.64Z" transform="translate(-91.981 -16.415)" fill="#b5abdb"/>
            <path id="Trazado_124237" data-name="Trazado 124237" d="M114.877,191.177a1.644,1.644,0,0,0,0,3.124l145.061,84.37a5.945,5.945,0,0,0,5.389,0l92.706-53.531a1.644,1.644,0,0,0,0-3.124l-145.061-84.37a5.945,5.945,0,0,0-5.389,0Z" transform="translate(-113.366 12.557)" fill="#c4dbf2"/>
            <path id="Trazado_124238" data-name="Trazado 124238" d="M358.858,204.283a1.91,1.91,0,0,1-1.126,1.569l-92.706,53.531a5.945,5.945,0,0,1-5.389,0L114.563,175.076h0a1.872,1.872,0,0,1-1.113-1.556v5.136a1.86,1.86,0,0,0,1.113,1.543h0l145.049,84.32a5.945,5.945,0,0,0,5.389,0l92.706-53.531a1.91,1.91,0,0,0,1.126-1.568Z" transform="translate(-113.445 22.232)" fill="#396caa"/>
            <path id="Trazado_124239" data-name="Trazado 124239" d="M114.577,183.616a1.644,1.644,0,0,0,0,3.124l145.036,84.307a5.945,5.945,0,0,0,5.389,0l92.706-53.531a1.644,1.644,0,0,0,0-3.124L212.672,130.135a5.945,5.945,0,0,0-5.389,0Z" transform="translate(-113.446 10.567)" fill="#f5f9fc"/>
            <g id="Grupo_60353" data-name="Grupo 60353" transform="translate(40.533 148.671)">
              <path id="Trazado_124240" data-name="Trazado 124240" d="M185.5,140.98l8.07,4.693,8.108-4.68-8.07-4.693Z" transform="translate(-134.89 -136.3)" fill="#b5abdb"/>
              <path id="Trazado_124241" data-name="Trazado 124241" d="M193.51,145.643l8.07,4.693,8.108-4.693-8.07-4.693Z" transform="translate(-132.768 -135.068)" fill="#b5abdb"/>
              <path id="Trazado_124242" data-name="Trazado 124242" d="M201.51,150.29l8.07,4.693,8.121-4.693-8.07-4.68Z" transform="translate(-130.649 -133.834)" fill="#b5abdb"/>
              <path id="Trazado_124243" data-name="Trazado 124243" d="M209.53,154.953l8.058,4.68,8.121-4.68-8.07-4.693Z" transform="translate(-128.524 -132.602)" fill="#b5abdb"/>
              <path id="Trazado_124244" data-name="Trazado 124244" d="M217.54,159.6l8.058,4.693,8.108-4.693-8.058-4.68Z" transform="translate(-126.402 -131.367)" fill="#b5abdb"/>
              <path id="Trazado_124245" data-name="Trazado 124245" d="M225.54,164.263l8.07,4.68,8.121-4.68-8.07-4.693Z" transform="translate(-124.283 -130.135)" fill="#b5abdb"/>
              <path id="Trazado_124246" data-name="Trazado 124246" d="M233.55,168.91l8.07,4.693,8.121-4.693-8.07-4.68Z" transform="translate(-122.161 -128.901)" fill="#b5abdb"/>
              <path id="Trazado_124247" data-name="Trazado 124247" d="M241.56,173.56l8.07,4.693,8.108-4.68-8.058-4.693Z" transform="translate(-120.039 -127.669)" fill="#b5abdb"/>
              <path id="Trazado_124248" data-name="Trazado 124248" d="M249.57,178.223l8.07,4.68,8.108-4.68-8.07-4.693Z" transform="translate(-117.917 -126.437)" fill="#b5abdb"/>
              <path id="Trazado_124249" data-name="Trazado 124249" d="M257.58,182.883l8.07,4.68,8.108-4.68L265.7,178.19Z" transform="translate(-115.795 -125.202)" fill="#b5abdb"/>
              <path id="Trazado_124250" data-name="Trazado 124250" d="M265.59,187.533l8.058,4.68,8.121-4.68-8.058-4.693Z" transform="translate(-113.673 -123.971)" fill="#b5abdb"/>
              <path id="Trazado_124251" data-name="Trazado 124251" d="M273.6,192.18l8.057,4.693,8.121-4.693-8.07-4.68Z" transform="translate(-111.551 -122.736)" fill="#b5abdb"/>
              <path id="Trazado_124252" data-name="Trazado 124252" d="M281.61,196.843l8.07,4.68,8.108-4.68-8.07-4.693Z" transform="translate(-109.429 -121.504)" fill="#b5abdb"/>
              <path id="Trazado_124253" data-name="Trazado 124253" d="M177.84,145.82l16.419,9.538,8.108-4.68-16.419-9.538Z" transform="translate(-136.92 -135.018)" fill="#b5abdb"/>
              <path id="Trazado_124254" data-name="Trazado 124254" d="M192.26,154.2l8.07,4.693,8.121-4.68-8.07-4.693Z" transform="translate(-133.1 -132.798)" fill="#b5abdb"/>
              <path id="Trazado_124255" data-name="Trazado 124255" d="M199.91,158.64l8.058,4.693,8.121-4.68-8.07-4.693Z" transform="translate(-131.073 -131.621)" fill="#b5abdb"/>
              <path id="Trazado_124256" data-name="Trazado 124256" d="M207.54,163.08l8.07,4.693,8.121-4.68-8.07-4.693Z" transform="translate(-129.052 -130.445)" fill="#b5abdb"/>
              <path id="Trazado_124257" data-name="Trazado 124257" d="M215.19,167.533l8.058,4.68,8.121-4.693-8.07-4.68Z" transform="translate(-127.025 -129.269)" fill="#b5abdb"/>
              <path id="Trazado_124258" data-name="Trazado 124258" d="M222.83,171.973l8.058,4.68,8.121-4.68-8.07-4.693Z" transform="translate(-125.001 -128.093)" fill="#b5abdb"/>
              <path id="Trazado_124259" data-name="Trazado 124259" d="M230.47,176.4l8.058,4.693,8.121-4.693-8.07-4.68Z" transform="translate(-122.977 -126.916)" fill="#b5abdb"/>
              <path id="Trazado_124260" data-name="Trazado 124260" d="M238.11,180.84l8.07,4.693,8.108-4.68-8.07-4.693Z" transform="translate(-120.953 -125.74)" fill="#b5abdb"/>
              <path id="Trazado_124261" data-name="Trazado 124261" d="M245.75,185.28l8.07,4.693,8.108-4.68-8.07-4.693Z" transform="translate(-118.929 -124.564)" fill="#b5abdb"/>
              <path id="Trazado_124262" data-name="Trazado 124262" d="M253.39,189.72l8.058,4.693,8.121-4.68-8.07-4.693Z" transform="translate(-116.905 -123.388)" fill="#b5abdb"/>
              <path id="Trazado_124263" data-name="Trazado 124263" d="M261.02,194.16l8.07,4.693,8.121-4.68-8.07-4.693Z" transform="translate(-114.884 -122.211)" fill="#b5abdb"/>
              <path id="Trazado_124264" data-name="Trazado 124264" d="M268.74,198.653l14.243,8.273,8.121-4.68-14.243-8.285Z" transform="translate(-112.838 -121.025)" fill="#b5abdb"/>
              <path id="Trazado_124265" data-name="Trazado 124265" d="M169.82,150.453l20.441,11.89,8.121-4.693-20.441-11.89Z" transform="translate(-139.044 -133.794)" fill="#b5abdb"/>
              <path id="Trazado_124266" data-name="Trazado 124266" d="M187.43,160.693l8.07,4.68,8.121-4.68L195.551,156Z" transform="translate(-134.379 -131.081)" fill="#b5abdb"/>
              <path id="Trazado_124267" data-name="Trazado 124267" d="M194.97,165.073l8.058,4.68,8.121-4.693-8.058-4.68Z" transform="translate(-132.382 -129.921)" fill="#b5abdb"/>
              <path id="Trazado_124268" data-name="Trazado 124268" d="M202.5,169.443l8.058,4.68,8.121-4.68-8.058-4.693Z" transform="translate(-130.387 -128.763)" fill="#b5abdb"/>
              <path id="Trazado_124269" data-name="Trazado 124269" d="M210.02,173.823l8.07,4.68,8.121-4.693-8.07-4.68Z" transform="translate(-128.395 -127.603)" fill="#b5abdb"/>
              <path id="Trazado_124270" data-name="Trazado 124270" d="M217.55,178.193l8.07,4.693,8.121-4.693-8.07-4.693Z" transform="translate(-126.4 -126.445)" fill="#b5abdb"/>
              <path id="Trazado_124271" data-name="Trazado 124271" d="M225.08,182.573l8.07,4.68,8.121-4.68-8.07-4.693Z" transform="translate(-124.405 -125.285)" fill="#b5abdb"/>
              <path id="Trazado_124272" data-name="Trazado 124272" d="M232.61,186.94l8.07,4.693,8.121-4.693-8.07-4.68Z" transform="translate(-122.41 -124.124)" fill="#b5abdb"/>
              <path id="Trazado_124273" data-name="Trazado 124273" d="M240.14,191.323l8.07,4.693,8.121-4.693-8.07-4.693Z" transform="translate(-120.415 -122.966)" fill="#b5abdb"/>
              <path id="Trazado_124274" data-name="Trazado 124274" d="M247.67,195.69l8.07,4.693,8.121-4.693-8.07-4.68Z" transform="translate(-118.42 -121.806)" fill="#b5abdb"/>
              <path id="Trazado_124275" data-name="Trazado 124275" d="M255.73,200.383l20.555,11.941,8.121-4.693L263.851,195.69Z" transform="translate(-116.285 -120.566)" fill="#b5abdb"/>
              <path id="Trazado_124276" data-name="Trazado 124276" d="M153.79,160.939l10.221,5.945,10.3-5.945,4.63,2.682,7.969-4.592-14.863-8.639Z" transform="translate(-143.291 -132.567)" fill="#b5abdb"/>
              <path id="Trazado_124277" data-name="Trazado 124277" d="M175.01,162.763l8.058,4.68,8.133-4.693-8.07-4.68Z" transform="translate(-137.67 -130.533)" fill="#b5abdb"/>
              <path id="Trazado_124278" data-name="Trazado 124278" d="M163.47,165.343l8.07,4.68,8.121-4.68-8.07-4.693Z" transform="translate(-140.727 -129.849)" fill="#b5abdb"/>
              <path id="Trazado_124279" data-name="Trazado 124279" d="M145.49,164.5l20.441,11.878,8.121-4.68-20.441-11.89Z" transform="translate(-145.49 -130.072)" fill="#b5abdb"/>
              <path id="Trazado_124280" data-name="Trazado 124280" d="M182.61,167.17l8.07,4.693,8.121-4.693-8.07-4.68Z" transform="translate(-135.656 -129.362)" fill="#b5abdb"/>
              <path id="Trazado_124281" data-name="Trazado 124281" d="M190.21,171.593l8.07,4.693,8.121-4.693-8.07-4.693Z" transform="translate(-133.643 -128.193)" fill="#b5abdb"/>
              <path id="Trazado_124282" data-name="Trazado 124282" d="M197.81,176.013l8.07,4.68,8.121-4.68-8.058-4.693Z" transform="translate(-131.629 -127.022)" fill="#b5abdb"/>
              <path id="Trazado_124283" data-name="Trazado 124283" d="M205.41,180.42l8.07,4.693,8.121-4.693-8.058-4.68Z" transform="translate(-129.616 -125.851)" fill="#b5abdb"/>
              <path id="Trazado_124284" data-name="Trazado 124284" d="M213.01,184.84l8.083,4.693,8.108-4.693-8.058-4.68Z" transform="translate(-127.603 -124.681)" fill="#b5abdb"/>
              <path id="Trazado_124285" data-name="Trazado 124285" d="M220.62,189.263l8.07,4.693,8.121-4.693-8.07-4.693Z" transform="translate(-125.586 -123.512)" fill="#b5abdb"/>
              <path id="Trazado_124286" data-name="Trazado 124286" d="M228.22,193.683l8.07,4.68,8.121-4.68-8.07-4.693Z" transform="translate(-123.573 -122.341)" fill="#b5abdb"/>
              <path id="Trazado_124287" data-name="Trazado 124287" d="M235.82,198.1l8.07,4.68,8.121-4.68-8.07-4.693Z" transform="translate(-121.56 -121.17)" fill="#b5abdb"/>
              <path id="Trazado_124288" data-name="Trazado 124288" d="M243.42,202.51l8.07,4.693,8.121-4.693-8.07-4.68Z" transform="translate(-119.546 -119.999)" fill="#b5abdb"/>
              <path id="Trazado_124289" data-name="Trazado 124289" d="M251.37,207.133l15.925,9.259,8.133-4.693-15.938-9.259Z" transform="translate(-117.44 -118.778)" fill="#b5abdb"/>
              <path id="Trazado_124290" data-name="Trazado 124290" d="M171.07,169.75l8.07,4.693,8.121-4.68-8.07-4.693Z" transform="translate(-138.713 -128.678)" fill="#b5abdb"/>
              <path id="Trazado_124291" data-name="Trazado 124291" d="M178.68,174.17l8.058,4.693,8.121-4.693-8.058-4.68Z" transform="translate(-136.697 -127.507)" fill="#b5abdb"/>
              <path id="Trazado_124292" data-name="Trazado 124292" d="M186.28,178.59l8.058,4.693,8.121-4.693-8.058-4.68Z" transform="translate(-134.684 -126.336)" fill="#b5abdb"/>
              <path id="Trazado_124293" data-name="Trazado 124293" d="M193.88,183.013l8.07,4.693,8.121-4.693L202,178.32Z" transform="translate(-132.67 -125.168)" fill="#b5abdb"/>
              <path id="Trazado_124294" data-name="Trazado 124294" d="M201.48,187.433l8.07,4.68,8.121-4.68-8.07-4.693Z" transform="translate(-130.657 -123.997)" fill="#b5abdb"/>
              <path id="Trazado_124295" data-name="Trazado 124295" d="M209.08,191.84l8.07,4.693,8.121-4.693-8.07-4.68Z" transform="translate(-128.644 -122.826)" fill="#b5abdb"/>
              <path id="Trazado_124296" data-name="Trazado 124296" d="M216.68,196.263l8.07,4.693,8.121-4.693-8.07-4.693Z" transform="translate(-126.63 -121.658)" fill="#b5abdb"/>
              <path id="Trazado_124297" data-name="Trazado 124297" d="M224.29,200.683l8.058,4.68,8.121-4.68-8.058-4.693Z" transform="translate(-124.614 -120.487)" fill="#b5abdb"/>
              <path id="Trazado_124298" data-name="Trazado 124298" d="M231.89,205.1l8.058,4.68,8.133-4.68-8.07-4.693Z" transform="translate(-122.601 -119.316)" fill="#b5abdb"/>
              <path id="Trazado_124299" data-name="Trazado 124299" d="M239.7,209.63l20.555,11.954,8.121-4.693L247.821,204.95Z" transform="translate(-120.532 -118.113)" fill="#b5abdb"/>
              <path id="Trazado_124300" data-name="Trazado 124300" d="M163.1,174.743l8.07,4.693,8.133-4.693-8.07-4.693Z" transform="translate(-140.825 -127.359)" fill="#b5abdb"/>
              <path id="Trazado_124301" data-name="Trazado 124301" d="M170.65,179.12l8.07,4.693,8.121-4.693-8.07-4.68Z" transform="translate(-138.825 -126.196)" fill="#b5abdb"/>
              <path id="Trazado_124302" data-name="Trazado 124302" d="M178.2,183.513l8.058,4.68,8.121-4.693-8.058-4.68Z" transform="translate(-136.824 -125.036)" fill="#b5abdb"/>
              <path id="Trazado_124303" data-name="Trazado 124303" d="M185.74,187.893l8.07,4.693,8.121-4.693-8.07-4.693Z" transform="translate(-134.827 -123.875)" fill="#b5abdb"/>
              <path id="Trazado_124304" data-name="Trazado 124304" d="M193.25,192.263l36.607,21.276,8.133-4.693L201.383,187.57Z" transform="translate(-132.837 -122.717)" fill="#b5abdb"/>
              <path id="Trazado_124305" data-name="Trazado 124305" d="M223.7,209.95l8.07,4.693,8.121-4.693-8.07-4.68Z" transform="translate(-124.77 -118.028)" fill="#b5abdb"/>
              <path id="Trazado_124306" data-name="Trazado 124306" d="M231.4,214.42l20.555,11.954,8.121-4.693L239.521,209.74Z" transform="translate(-122.731 -116.844)" fill="#b5abdb"/>
            </g>
            <path id="Trazado_124307" data-name="Trazado 124307" d="M162.959,201.586a2.669,2.669,0,0,0,.961.847l33.546,19.391a6.641,6.641,0,0,0,6.021,0l15.647-9.032a2.846,2.846,0,0,0,.949-.835c.607-.885.278-1.923-.949-2.631l-33.558-19.379a6.666,6.666,0,0,0-6,0l-15.66,9.044C162.694,199.638,162.377,200.663,162.959,201.586Z" transform="translate(-100.404 26.396)" fill="#396caa"/>
            <path id="Trazado_124308" data-name="Trazado 124308" d="M162.9,201.215a2.669,2.669,0,0,0,.961.847l33.546,19.391a6.641,6.641,0,0,0,6.021,0l15.647-9.032a2.846,2.846,0,0,0,.949-.835,2.758,2.758,0,0,0-.949-.86l-33.558-19.366a6.59,6.59,0,0,0-6,0l-15.66,9.044a2.758,2.758,0,0,0-.961.81Z" transform="translate(-100.344 26.767)" fill="#b5abdb"/>
          </g>
          <g id="Grupo_60357" data-name="Grupo 60357" transform="translate(128.76 207.941)">
            <path id="Trazado_124309" data-name="Trazado 124309" d="M215.24,236.209a1.265,1.265,0,0,1,.7-.86l20.125-11.612a3.656,3.656,0,0,1,3.15-.1l22.339-12.9c-3.984-3-5.578-6.717-4.794-10.309-.911-4.2,1.429-8.6,7.046-11.84,9.588-5.54,25.083-5.566,34.6-.076,5.528,3.188,7.83,7.59,6.906,11.713.923,4.2-1.417,8.6-7.033,11.84-8.665,5-22.149,5.5-31.7,1.505l-.114.076-23.945,13.826v.772h0a1.265,1.265,0,0,1-.7.923l-20.125,11.65a3.694,3.694,0,0,1-3.339,0l-2.429-1.391a1.176,1.176,0,0,1-.683-.923h0v-2.264Z" transform="translate(-215.238 -182.825)" fill="#396caa" opacity="0.35"/>
            <g id="Grupo_60356" data-name="Grupo 60356" transform="translate(0 0)">
              <ellipse id="Elipse_4092" data-name="Elipse 4092" cx="24.464" cy="14.129" rx="24.464" ry="14.129" transform="translate(41.23 3.874) rotate(-0.36)" fill="#173d7a"/>
              <ellipse id="Elipse_4093" data-name="Elipse 4093" cx="24.464" cy="14.129" rx="24.464" ry="14.129" transform="translate(41.233 0.307) rotate(-0.36)" fill="#396caa"/>
              <ellipse id="Elipse_4094" data-name="Elipse 4094" cx="20.707" cy="11.954" rx="20.707" ry="11.954" transform="translate(45.004 2.459) rotate(-0.36)" fill="#fff"/>
              <path id="Trazado_124310" data-name="Trazado 124310" d="M256,204.27Z" transform="translate(-204.44 -177.563)" fill="#007ded"/>
              <path id="Trazado_124311" data-name="Trazado 124311" d="M236.219,216h0Z" transform="translate(-209.717 -174.456)" fill="none"/>
              <path id="Trazado_124312" data-name="Trazado 124312" d="M236.04,216h0Z" transform="translate(-209.778 -174.456)" fill="none"/>
              <path id="Trazado_124313" data-name="Trazado 124313" d="M236.417,215.89l-.177.076Z" transform="translate(-209.675 -174.485)" fill="none"/>
              <path id="Trazado_124314" data-name="Trazado 124314" d="M235.78,216.05Z" transform="translate(-209.797 -174.442)" fill="none"/>
              <g id="Grupo_60355" data-name="Grupo 60355" transform="translate(23.175 25.414)">
                <path id="Trazado_124315" data-name="Trazado 124315" d="M261.6,204.831,237.127,218.96l-.177.076h-.683a1.846,1.846,0,0,1-1-.215l-.417-.24-.911-.531a.62.62,0,0,1-.379-.493h0v2.062h0a.607.607,0,0,0,.38.544l1.328.772a2.011,2.011,0,0,0,1.822,0L261.565,206.8a.62.62,0,0,0,.379-.557h0V204.3A.658.658,0,0,1,261.6,204.831Z" transform="translate(-233.56 -202.969)" fill="#173d7a"/>
                <path id="Trazado_124316" data-name="Trazado 124316" d="M233.955,218.468l.911.531.417.24a1.847,1.847,0,0,0,1,.215h.645l.177-.076,24.476-14.129a.658.658,0,0,0,.379-.531h0a.7.7,0,0,0-.379-.493l-1.265-.759a2.011,2.011,0,0,0-1.822,0l-24.476,14.129a.557.557,0,0,0,0,1.05Z" transform="translate(-233.537 -203.248)" fill="#173d7a"/>
              </g>
              <path id="Trazado_124317" data-name="Trazado 124317" d="M242.512,216.22a1.189,1.189,0,0,1-.7.974l-20.125,11.612a3.656,3.656,0,0,1-3.339,0l-2.429-1.4a1.088,1.088,0,0,1-.683-1.075h0v2.264h0a1.164,1.164,0,0,0,.683.923l2.429,1.4a3.694,3.694,0,0,0,3.339,0l20.125-11.625a1.265,1.265,0,0,0,.7-.923h0Z" transform="translate(-215.238 -174.397)" fill="#173d7a"/>
              <path id="Trazado_124318" data-name="Trazado 124318" d="M215.923,227.991l2.429,1.4a3.656,3.656,0,0,0,3.339,0l20.125-11.612a1.189,1.189,0,0,0,.7-.974,1.164,1.164,0,0,0-.683-.961l-2.429-1.4a3.693,3.693,0,0,0-3.339,0l-20.138,11.625a1.265,1.265,0,0,0-.683.848A1.088,1.088,0,0,0,215.923,227.991Z" transform="translate(-215.238 -174.974)" fill="#396caa"/>
            </g>
          </g>
        </g>
        <path id="Trazado_124319" data-name="Trazado 124319" d="M197.743,238.743l89.506-63.474-66.421-37.91L142.82,207.007Z" transform="translate(9.454 12.652)" fill="#173d7a" opacity="0.4"/>
        <g id="Grupo_60360" data-name="Grupo 60360" transform="translate(52.468 54.688)">
          <ellipse id="Elipse_4095" data-name="Elipse 4095" cx="28.423" cy="16.406" rx="28.423" ry="16.406" transform="translate(0 145.042) rotate(-0.36)" fill="#dcefff"/>
          <g id="Grupo_60359" data-name="Grupo 60359" transform="translate(1.182)">
            <path id="Trazado_124320" data-name="Trazado 124320" d="M132.021,108.02s.493-.417.19-.86a9.323,9.323,0,0,0-2.682-2.062c-.936-.4-4.06.253-4.06.253l-.7.266c-3.643-1.265-18.05-6.325-18.05-6.325l-1.417-2.062c-1.619,2.871-5.275,4.237-7.286,4.807,2.239,2.391,4.136,4.377,4.668,4.769,1.391,1.063,17.544,3.63,20.062,4.022l.139.24s3.175,3.023,4.9,3.3,8.146-1.606,8.45-2.631S132.021,108.02,132.021,108.02Z" transform="translate(-56.065 -52.667)" fill="#ffcda8"/>
            <path id="Trazado_124321" data-name="Trazado 124321" d="M100.978,85.15a30.978,30.978,0,0,0-3.15-4.743A13.155,13.155,0,0,0,86.76,78l1.91,4.554,9.436,21.58,1.505,3.441s.544-.089,1.379-.316c2.011-.569,5.667-1.935,7.286-4.807a6.033,6.033,0,0,0,.772-2.416,91.861,91.861,0,0,1-8.07-14.888Z" transform="translate(-59.048 -57.853)" fill="#241753"/>
            <path id="Trazado_124322" data-name="Trazado 124322" d="M80.278,75.38c-.215,2.53-2.821,4.845-2.821,4.845L76.61,84.98,87.046,93.4l8.475-6.148L88.209,73.976S80.3,72.42,80.278,75.38Z" transform="translate(-61.737 -58.936)" fill="#daa782"/>
            <path id="Trazado_124323" data-name="Trazado 124323" d="M97.149,179.411c.81,1.708,9.2,5.174,11.485,6.325s.519,4.01-.873,4.668c-3.516,1.657-14.344-2.985-14.344-2.985s-8.386.607-9.778-.443,0-5.983,0-5.983l5.06-3.112S96.618,178.576,97.149,179.411Z" transform="translate(-60.039 -31.301)" fill="#241753"/>
            <path id="Trazado_124324" data-name="Trazado 124324" d="M100.046,116.393c3.428,18.455-.506,47.27-.506,47.27s-2.15,24.109-1.632,31.522c0,4.453-14.028,5.06-14.357.987s1.265-26.88,2.694-32.989c.493-6.97-4.756-28.094-4.756-28.094L87.359,123.7S99.085,114.318,100.046,116.393Z" transform="translate(-60.444 -47.669)" fill="#203b72"/>
            <path id="Trazado_124325" data-name="Trazado 124325" d="M78.049,187.2a21.909,21.909,0,0,0,2.037,6.729,6.325,6.325,0,0,1,.291,5.869c-.62,1.353-11.776,2.618-12.067-5.389-.1-2.909,0-9.462,0-9.462S77.935,184.874,78.049,187.2Z" transform="translate(-63.948 -29.428)" fill="#241753"/>
            <path id="Trazado_124326" data-name="Trazado 124326" d="M73.018,120.994c-2.9,5.06-1.341,36.683-2.037,45.8-4.642,14.306-3.137,35.279-3.048,36.063.607,5.49,11.966,5.616,12.206-1.353,1.265-30.434,7.21-43.513,9.9-64.625,0,0,6.97-3.795,13.674-20.53C102.87,115.618,74.928,118.92,73.018,120.994Z" transform="translate(-64.116 -47.629)" fill="#2a5087"/>
            <path id="Trazado_124327" data-name="Trazado 124327" d="M103.517,123.524c-.974-4.883,4.048-25.476.746-36.961a8.221,8.221,0,0,0-.81-1.961h0c-2.821-4.984-9.171-6.552-9.171-6.552l-.67,1.657s3.124,6.2-1.025,9.069c-2.226,1.543-6.831.19-9.6-2.808a15.976,15.976,0,0,1-3.175-6.944A74.869,74.869,0,0,1,67.934,89.371c-.468,1.758,1.531,11.827,3.63,21.39h0s2.707,12.434,1.758,18.063H73.4l-.392,2.277s7.248,12.586,30.7-4.642A20.518,20.518,0,0,1,103.517,123.524Z" transform="translate(-64.054 -57.748)" fill="#9182ca"/>
            <path id="Trazado_124328" data-name="Trazado 124328" d="M81.23,67.4h1.1A6.326,6.326,0,0,0,81.23,67.4Z" transform="translate(-60.513 -60.577)" fill="none"/>
            <path id="Trazado_124329" data-name="Trazado 124329" d="M95.925,71.946c-.4-.126-.911.253-1.353.911-1.518-3.795-5.54-5.06-9.98-5.427H82.96c-4.022.531-6.552,5.136-6.552,5.136-.392-.481-.8-.721-1.138-.62-.645.19-.759,1.606-.253,3.162a4.1,4.1,0,0,0,1.67,2.429,31.8,31.8,0,0,0,1.91,6.691c.531.708,3.276,4.389,4.275,5.464a2.2,2.2,0,0,0,.645.3h0a29.878,29.878,0,0,0,4.313-.089l.392-.215L91.738,84.9h0a22.933,22.933,0,0,0,1.606-3.668h0c.392-1.265.708-2.53.949-3.643.62-.139,1.391-1.151,1.821-2.53C96.7,73.5,96.583,72.085,95.925,71.946Z" transform="translate(-62.243 -60.561)" fill="#ffcda8"/>
            <path id="Trazado_124330" data-name="Trazado 124330" d="M88.39,117.48s.379.24,1.025.582Z" transform="translate(-58.616 -47.302)" fill="none"/>
            <path id="Trazado_124331" data-name="Trazado 124331" d="M94.87,110.9s1.265,0,1.594.595" transform="translate(-56.9 -49.045)" fill="#f0c6b4"/>
            <path id="Trazado_124332" data-name="Trazado 124332" d="M109.787,116.1a3.8,3.8,0,0,0-1.771-.24l-3.643.632a8.437,8.437,0,0,1-4.579-2,3.706,3.706,0,0,1,1.72-.974,22.676,22.676,0,0,0,2.53-.3h0a1,1,0,0,0,.3-.278,1.872,1.872,0,0,0-.873-1.657h0a1.746,1.746,0,0,0-.582-.19l-2,.2h0a11.207,11.207,0,0,0-3.516.936l-3.795,1.935-17.216-1.48s0-1.05.089-2.618c-3.188,1.644-7.412.873-9.866.164.506,5.477.961,9.79.961,9.79a11.877,11.877,0,0,0,2.732,1.05c.481,0,18.974-.455,23.869-1.644l1.025.582c1.758.911,5.477,2.429,8.93,1.265,2.644-1.265,5.869-2.8,6.451-3.162a.632.632,0,0,0,.215-.19,1.923,1.923,0,0,0-.987-1.821Z" transform="translate(-64.392 -49.265)" fill="#ffcda8"/>
            <path id="Trazado_124333" data-name="Trazado 124333" d="M76.929,116.546a7.122,7.122,0,0,0,.784-.468c1.341-2.53.3-14.332.3-14.332s.81-5.376-.076-8.589-2.53-8.715-7.349-7.235c-7.918,3.415-5.477,15.306-5.06,16.267a35.734,35.734,0,0,1-.519,13.914,18.972,18.972,0,0,0,2,.67C69.517,117.418,73.742,118.19,76.929,116.546Z" transform="translate(-64.852 -55.728)" fill="#241753"/>
            <path id="Trazado_124334" data-name="Trazado 124334" d="M85.331,62c-12.358,0-9.322,13.788-9.322,13.788l.4,2.3,1.138,1.189L77.1,73.8a15.178,15.178,0,0,0,1.063-2.353s6.805,1.733,7.008,1.695h.2l6.54-1.67a11.764,11.764,0,0,0,1.341,2.3h0v5.464l1.138-1.429.468-2.176h0C95.059,73.726,96.766,62,85.331,62Z" transform="translate(-61.984 -62)" fill="#173d7a"/>
          </g>
        </g>
        <g id="Grupo_60362" data-name="Grupo 60362" transform="translate(391.458 191.666)">
          <path id="Trazado_124335" data-name="Trazado 124335" d="M359.912,206.5l-26.7,15.027,26.538,15.331L386.3,222.223Z" transform="translate(-331.566 -160.697)" fill="#c4dbf2"/>
          <g id="Grupo_60361" data-name="Grupo 60361">
            <path id="Trazado_124336" data-name="Trazado 124336" d="M360.345,180.37l-28.435,16,28.258,16.317L388.427,197.1Z" transform="translate(-331.91 -167.62)" fill="#f5f9fc"/>
            <path id="Trazado_124337" data-name="Trazado 124337" d="M360.028,181.02,333.06,196.212l26.8,15.47,26.8-14.774Z" transform="translate(-331.605 -167.447)" fill="#cee0f2"/>
            <path id="Trazado_124338" data-name="Trazado 124338" d="M358.962,185.52,336.99,197.891l21.833,12.6,21.833-12.029Z" transform="translate(-330.564 -166.255)" fill="#173d7a"/>
            <path id="Trazado_124339" data-name="Trazado 124339" d="M331.91,193.02l6.426,31.041,21.833,12.763V209.337Z" transform="translate(-331.91 -164.268)" fill="#cee0f2"/>
            <path id="Trazado_124340" data-name="Trazado 124340" d="M382.508,193.6l-8.121,31.446L354.25,236.671V209.184Z" transform="translate(-325.992 -164.115)" fill="#e2edf7"/>
            <path id="Trazado_124341" data-name="Trazado 124341" d="M378.435,190.428A20.138,20.138,0,1,1,358.3,170.29,20.137,20.137,0,0,1,378.435,190.428Z" transform="translate(-330.254 -170.29)" fill="url(#linear-gradient-2)"/>
            <path id="Trazado_124342" data-name="Trazado 124342" d="M369.416,180.67c0,5.262-5.287,9.537-11.8,9.537S345.8,185.932,345.8,180.67s5.287-9.55,11.814-9.55S369.416,175.4,369.416,180.67Z" transform="translate(-328.23 -170.07)" fill="#fff" opacity="0.14"/>
          </g>
        </g>
        <g id="Grupo_60370" data-name="Grupo 60370" transform="translate(118.133 62.315)">
          <g id="Grupo_60367" data-name="Grupo 60367">
            <g id="Grupo_60363" data-name="Grupo 60363" transform="translate(117.815)">
              <path id="Trazado_124343" data-name="Trazado 124343" d="M308.266,133.793l-1.935,1.657h0v-2.77h0V126L208.97,69.687l1.923-1.657h0l4.49,2.58,92.883,53.734Z" transform="translate(-208.97 -68.03)" fill="#396caa"/>
              <path id="Trazado_124344" data-name="Trazado 124344" d="M306.331,132.333h0v2.77h0L208.97,78.789V69.34h0l97.361,56.314Z" transform="translate(-208.97 -67.683)" fill="#5f9cce"/>
              <path id="Trazado_124345" data-name="Trazado 124345" d="M211.03,72.81v3.668l92.263,53.38V126.19Z" transform="translate(-208.424 -66.764)" fill="url(#linear-gradient-3)"/>
            </g>
            <g id="Grupo_60366" data-name="Grupo 60366" transform="translate(0 8.399)">
              <path id="Trazado_124346" data-name="Trazado 124346" d="M240.362,74.67a50.432,50.432,0,0,0-13.826,22.187c-4.655,16.09-13.282,39.756-27.563,49.648-2.353,1.429-8.07,3.795-18.088,1.265a75.352,75.352,0,0,1-8.7-3.605,25.83,25.83,0,0,0-11.157-1.885,25.437,25.437,0,0,0-13.775,5.237,36.2,36.2,0,0,0-8.968,13.914s-9.373,36.544-22.452,50.053l86.015,49.623c10.727-15.963,18.038-44.487,18.038-44.487a36.341,36.341,0,0,1,8.968-13.914,25.437,25.437,0,0,1,13.686-5.174,25.791,25.791,0,0,1,11.157,1.885,76.283,76.283,0,0,0,8.7,3.605c10.018,2.429,15.736.1,18.088-1.265,14.281-9.892,22.908-33.558,27.563-49.648,4.275-14.749,15.053-23.73,19.581-26.968Z" transform="translate(-115.83 -74.67)" fill="#fff"/>
              <path id="Trazado_124347" data-name="Trazado 124347" d="M259.316,178.507s-.278-.177-.772-.455l-29.409-17.165v-.253l-.658-.1-36.329-21.213h0c-14.433-5.313-26.7-5.275-36.48.089a33.508,33.508,0,0,0-9.044,7.362,41.667,41.667,0,0,0-5.629,8.311,43.388,43.388,0,0,0-3.694,9.626.228.228,0,0,0,.114.253l66.219,38.8h.2a.253.253,0,0,0,.139-.139c5.553-15.533,13.762-25.3,24.388-28.929,8.007-2.77,15.925-1.467,21.15.1a45.537,45.537,0,0,1,8.854,3.681l.759.443a.228.228,0,0,0,.329-.076.24.24,0,0,0-.139-.329Zm-32.053-18.152a50.837,50.837,0,0,0-21.58,1.442L180.03,146.985a35.873,35.873,0,0,1,20.416-2.277ZM205.063,162q-.455.139-.911.3a39.718,39.718,0,0,0-15.533,9.955l-.354.367L164.75,159c.278-.354.582-.708.873-1.062a40.11,40.11,0,0,1,13.914-10.714Zm-13.092-22.25,7.362,4.3a36.227,36.227,0,0,0-19.859,2.606l-16.646-9.613c8.323-2.252,18.088-1.353,29.144,2.707ZM137.82,164.63a43.9,43.9,0,0,1,3.605-9.348A36.923,36.923,0,0,1,155.9,139.825a31.409,31.409,0,0,1,6.325-2.606l16.76,9.689a40.591,40.591,0,0,0-13.75,10.764c-.316.38-.632.746-.936,1.126l-18.012-10.486-.24.417,17.949,10.4a58.679,58.679,0,0,0-8.753,15.7Zm17.835,10.448a58.249,58.249,0,0,1,8.766-15.7l23.5,13.611a44.8,44.8,0,0,0-9.36,15.5Zm47.966,28.132L178.98,188.778a44.273,44.273,0,0,1,9.373-15.5l23.578,13.611A65.3,65.3,0,0,0,203.621,203.21Zm8.6-16.672L188.7,172.852l.291-.3a39.491,39.491,0,0,1,16.684-10.233l21.339,12.333A34.026,34.026,0,0,0,212.223,186.5Zm37.442-12.169a40.16,40.16,0,0,0-9.942-1.733,31.509,31.509,0,0,0-11.511,1.619l-.62.228-21.289-12.3a51.115,51.115,0,0,1,22.048-1.164l25.159,14.686a35.437,35.437,0,0,0-3.845-1.379Z" transform="translate(-110.143 -58.592)" fill="#b5abdb"/>
              <g id="Grupo_60364" data-name="Grupo 60364" transform="translate(14.926 110.87)">
                <path id="Trazado_124348" data-name="Trazado 124348" d="M174.7,189.052l15.154,9.032,1.126-2.732-15.166-9.032Z" transform="translate(-115.16 -155.962)" fill="#b5abdb"/>
                <path id="Trazado_124349" data-name="Trazado 124349" d="M134.41,165.065l19.96,11.89,1.126-2.745-19.973-11.89Z" transform="translate(-125.834 -162.32)" fill="#b5abdb"/>
                <path id="Trazado_124350" data-name="Trazado 124350" d="M152.92,176.085,178.294,191.2l1.113-2.745L154.033,173.34Z" transform="translate(-120.93 -159.401)" fill="#b5abdb"/>
                <path id="Trazado_124351" data-name="Trazado 124351" d="M132.71,169.215l11.093,6.6,1.113-2.745-11.081-6.6Z" transform="translate(-126.284 -161.221)" fill="#b5abdb"/>
                <path id="Trazado_124352" data-name="Trazado 124352" d="M143.63,175.715,166.2,189.161l1.113-2.745L144.743,172.97Z" transform="translate(-123.391 -159.499)" fill="#b5abdb"/>
                <path id="Trazado_124353" data-name="Trazado 124353" d="M163.48,187.535,183.238,199.3l1.113-2.732L164.593,184.79Z" transform="translate(-118.133 -156.367)" fill="#b5abdb"/>
                <path id="Trazado_124354" data-name="Trazado 124354" d="M180.96,197.942l5.1,3.036,1.126-2.732-5.11-3.036Z" transform="translate(-113.502 -153.607)" fill="#b5abdb"/>
                <path id="Trazado_124355" data-name="Trazado 124355" d="M131.02,173.365l66.13,39.377,1.113-2.732-66.13-39.39Z" transform="translate(-126.732 -160.121)" fill="#b5abdb"/>
                <path id="Trazado_124356" data-name="Trazado 124356" d="M129.33,177.512l11.081,6.6,1.113-2.732-11.081-6.6Z" transform="translate(-127.18 -159.019)" fill="#b5abdb"/>
                <path id="Trazado_124357" data-name="Trazado 124357" d="M140.24,184.012l22.566,13.446,1.126-2.745L141.366,181.28Z" transform="translate(-124.289 -157.297)" fill="#b5abdb"/>
                <path id="Trazado_124358" data-name="Trazado 124358" d="M160.09,195.832l19.758,11.776,1.113-2.745L161.2,193.1Z" transform="translate(-119.031 -154.166)" fill="#b5abdb"/>
                <path id="Trazado_124359" data-name="Trazado 124359" d="M177.57,206.255l5.1,3.036,1.126-2.745-5.1-3.036Z" transform="translate(-114.4 -151.408)" fill="#b5abdb"/>
                <path id="Trazado_124360" data-name="Trazado 124360" d="M146.14,192.695l25.387,15.116,1.113-2.745L147.266,189.95Z" transform="translate(-122.726 -155)" fill="#b5abdb"/>
                <path id="Trazado_124361" data-name="Trazado 124361" d="M127.63,181.662l19.973,11.9,1.126-2.745-19.973-11.89Z" transform="translate(-127.63 -157.92)" fill="#b5abdb"/>
                <path id="Trazado_124362" data-name="Trazado 124362" d="M167.93,205.665l15.154,9.032,1.126-2.745-15.166-9.032Z" transform="translate(-116.954 -151.564)" fill="#b5abdb"/>
              </g>
              <g id="Grupo_60365" data-name="Grupo 60365" transform="translate(94.161 60.261)">
                <path id="Trazado_124363" data-name="Trazado 124363" d="M240.08,148.744,256.322,158l1.1-1.847L241.18,146.91Z" transform="translate(-177.074 -115.793)" fill="#b5abdb"/>
                <path id="Trazado_124364" data-name="Trazado 124364" d="M196.91,124.157l21.4,12.194L219.4,134.5,198.01,122.31Z" transform="translate(-188.511 -122.31)" fill="#b5abdb"/>
                <path id="Trazado_124365" data-name="Trazado 124365" d="M216.74,135.457l27.2,15.483,1.088-1.834-27.183-15.5Z" transform="translate(-183.258 -119.316)" fill="#b5abdb"/>
                <path id="Trazado_124366" data-name="Trazado 124366" d="M195.25,126.957l11.878,6.755,1.1-1.834L196.35,125.11Z" transform="translate(-188.951 -121.568)" fill="#b5abdb"/>
                <path id="Trazado_124367" data-name="Trazado 124367" d="M206.94,133.617l24.185,13.775,1.1-1.847L208.04,131.77Z" transform="translate(-185.854 -119.804)" fill="#b5abdb"/>
                <path id="Trazado_124368" data-name="Trazado 124368" d="M228.21,145.727l21.162,12.055,1.1-1.834L229.311,143.88Z" transform="translate(-180.219 -116.596)" fill="#b5abdb"/>
                <path id="Trazado_124369" data-name="Trazado 124369" d="M246.94,156.4l5.464,3.112,1.1-1.847-5.464-3.112Z" transform="translate(-175.257 -113.769)" fill="#b5abdb"/>
                <path id="Trazado_124370" data-name="Trazado 124370" d="M193.59,129.747,264.438,170.1l1.1-1.834L194.691,127.9Z" transform="translate(-189.391 -120.829)" fill="#b5abdb"/>
                <path id="Trazado_124371" data-name="Trazado 124371" d="M191.93,132.537l11.878,6.767,1.1-1.847-11.89-6.767Z" transform="translate(-189.83 -120.09)" fill="#b5abdb"/>
                <path id="Trazado_124372" data-name="Trazado 124372" d="M203.62,139.194l24.185,13.775,1.088-1.834L204.721,137.36Z" transform="translate(-186.733 -118.323)" fill="#b5abdb"/>
                <path id="Trazado_124373" data-name="Trazado 124373" d="M224.89,151.317l21.162,12.055,1.1-1.847L225.978,149.47Z" transform="translate(-181.098 -115.115)" fill="#b5abdb"/>
                <path id="Trazado_124374" data-name="Trazado 124374" d="M243.62,161.987l5.464,3.112,1.088-1.847-5.452-3.112Z" transform="translate(-176.136 -112.288)" fill="#b5abdb"/>
                <path id="Trazado_124375" data-name="Trazado 124375" d="M210.1,146.627l27.183,15.5,1.1-1.847L211.2,144.78Z" transform="translate(-185.017 -116.357)" fill="#b5abdb"/>
                <path id="Trazado_124376" data-name="Trazado 124376" d="M190.27,135.337l21.39,12.181,1.1-1.847-21.4-12.181Z" transform="translate(-190.27 -119.348)" fill="#b5abdb"/>
                <path id="Trazado_124377" data-name="Trazado 124377" d="M233.44,159.927l16.242,9.247,1.088-1.847-16.242-9.247Z" transform="translate(-178.833 -112.834)" fill="#b5abdb"/>
              </g>
            </g>
            <path id="Trazado_124378" data-name="Trazado 124378" d="M303.293,126.19,211.03,72.81v2.138l92.263,53.38Z" transform="translate(-90.609 -66.764)" fill="#173d7a"/>
          </g>
          <g id="Grupo_60368" data-name="Grupo 60368" transform="translate(107.51 35.538)">
            <path id="Trazado_124379" data-name="Trazado 124379" d="M233.391,109.261a1.012,1.012,0,0,0-.329-1.265L213.076,96.22a.8.8,0,0,0-1.126.43L200.92,120a1.025,1.025,0,0,0,.329,1.265l19.973,11.764a.81.81,0,0,0,1.138-.417Zm-11.384,22.174a.81.81,0,0,1-1.138.43l-18.556-10.98a1,1,0,0,1-.329-1.265l10.271-21.782a.8.8,0,0,1,1.126-.417L232,108.388a1,1,0,0,1,.329,1.265Z" transform="translate(-200.824 -96.125)" fill="#b5abdb"/>
            <path id="Trazado_124380" data-name="Trazado 124380" d="M204,116.419v-.076l1.265-1.581a2.53,2.53,0,0,1,2.53-1.063l3.15.544a1.265,1.265,0,0,0,.873-.177,3.883,3.883,0,0,0,1.265-1.265.379.379,0,0,0,0-.266,3.985,3.985,0,0,1,.114-2.53.481.481,0,0,0,0-.455.4.4,0,0,1,0-.278c.076-.468.164-.923.278-1.379a1.024,1.024,0,0,1,.632-.848.468.468,0,0,0,.215-.228c.278-.569.544-1.138.822-1.72a4.225,4.225,0,0,1,1.391-1.682,3.479,3.479,0,0,1,4.958.822,2.327,2.327,0,0,1,.481,2.062.417.417,0,0,0,0,.177,2.606,2.606,0,0,1-.177,1.973c-.329.734-.683,1.455-1.012,2.188a.582.582,0,0,0,0,.329,1.088,1.088,0,0,1-.089.772A6.186,6.186,0,0,1,219.66,113a.443.443,0,0,1-.24.127.4.4,0,0,0-.329.24,3.251,3.251,0,0,1-1.809,1.543.291.291,0,0,0-.228.253,10.761,10.761,0,0,0-.164,1.088,2.315,2.315,0,0,0,.557,1.859c.7.759,1.265,1.581,2,2.378a3.188,3.188,0,0,1,.632,2.9c-.139.595-.266,1.189-.4,1.784s-.164.493-.519.506l-15.015-8.854Z" transform="translate(-199.982 -94.378)" fill="#b5abdb"/>
          </g>
          <g id="Grupo_60369" data-name="Grupo 60369" transform="translate(133.765 51.09)">
            <path id="Trazado_124381" data-name="Trazado 124381" d="M229.79,110.6l18.746,10.853,1.012-2.176L230.8,108.42Z" transform="translate(-219.405 -108.42)" fill="#b5abdb"/>
            <path id="Trazado_124382" data-name="Trazado 124382" d="M247.16,120.656l23.818,13.8L272,132.28l-23.818-13.8Z" transform="translate(-214.803 -105.755)" fill="#b5abdb"/>
            <path id="Trazado_124383" data-name="Trazado 124383" d="M221.58,127.636l23.818,13.8,1.012-2.176-23.818-13.8Z" transform="translate(-221.58 -103.906)" fill="#b5abdb"/>
            <path id="Trazado_124384" data-name="Trazado 124384" d="M228.25,113.883l10.4,6.034,1.025-2.176-10.41-6.021Z" transform="translate(-219.813 -107.546)" fill="#b5abdb"/>
            <path id="Trazado_124385" data-name="Trazado 124385" d="M238.49,119.826l21.187,12.257,1.012-2.176L239.515,117.65Z" transform="translate(-217.1 -105.975)" fill="#b5abdb"/>
            <path id="Trazado_124386" data-name="Trazado 124386" d="M225.17,120.476l10.4,6.021,1.025-2.176-10.41-6.021Z" transform="translate(-220.629 -105.803)" fill="#b5abdb"/>
            <path id="Trazado_124387" data-name="Trazado 124387" d="M235.41,126.406l21.187,12.27,1.012-2.176-21.175-12.27Z" transform="translate(-217.916 -104.232)" fill="#b5abdb"/>
            <path id="Trazado_124388" data-name="Trazado 124388" d="M241,133.826l23.818,13.8,1.025-2.176-23.818-13.8Z" transform="translate(-216.435 -102.266)" fill="#b5abdb"/>
            <path id="Trazado_124389" data-name="Trazado 124389" d="M223.63,123.766l18.746,10.853,1.012-2.176L224.642,121.59Z" transform="translate(-221.037 -104.931)" fill="#b5abdb"/>
            <path id="Trazado_124390" data-name="Trazado 124390" d="M227.722,115.01l-1.012,2.176,38.833,22.478,1.012-2.163Z" transform="translate(-220.221 -106.674)" fill="#b5abdb"/>
          </g>
        </g>
        <g id="Grupo_60371" data-name="Grupo 60371" transform="translate(225.336 24.837)">
          <path id="Trazado_124391" data-name="Trazado 124391" d="M320.95,107.275,202.047,38.6c-.81-.468-1.467-.089-1.467.835V51.808a3.2,3.2,0,0,0,1.467,2.53l118.9,68.673c.8.468,1.455.089,1.455-.835V109.792A3.238,3.238,0,0,0,320.95,107.275Z" transform="translate(-200.58 -38.401)" fill="#5f9cce"/>
          <path id="Trazado_124392" data-name="Trazado 124392" d="M315.306,105.905,215.377,48.212c-.81-.468-1.467-.089-1.467.835v7.59a3.2,3.2,0,0,0,1.467,2.53l99.929,57.693c.81.468,1.467.1,1.467-.822v-7.59a3.213,3.213,0,0,0-1.467-2.543Z" transform="translate(-197.049 -35.855)" fill="#173d7a"/>
          <path id="Trazado_124393" data-name="Trazado 124393" d="M203.641,46.21v-.316a1.724,1.724,0,0,1,0-.253,1.986,1.986,0,0,1,.455-1.113,1.379,1.379,0,0,1,1.2-.455,3.124,3.124,0,0,1,1.7.772,6.136,6.136,0,0,1,1.543,1.91,5.717,5.717,0,0,1,.7,2.3,2.34,2.34,0,0,1-.455,1.746h0a1.367,1.367,0,0,1,.354.443l1.505,2.593a1.679,1.679,0,0,0,.1.177.78.78,0,0,1,0,.822.392.392,0,0,1-.392,0l-.152-.089a1.9,1.9,0,0,1-.455-.582l-1.265-2.252a2.441,2.441,0,0,1-.354-.759h0a2.074,2.074,0,0,1-1.164-.177,4.44,4.44,0,0,1-1.556-1.164,6.325,6.325,0,0,1-1.733-3.3,1.883,1.883,0,0,1-.025-.3Zm4.921,2.682a4.668,4.668,0,0,0-2.112-3.643c-1.164-.67-2.1-.139-2.1,1.189a4.655,4.655,0,0,0,2.1,3.63c1.164.683,2.112.152,2.112-1.176Z" transform="translate(-199.77 -36.902)" fill="#fff"/>
        </g>
        <g id="Grupo_60372" data-name="Grupo 60372" transform="translate(102.345 142.648)">
          <path id="Trazado_124394" data-name="Trazado 124394" d="M123.769,256.026c-.4-1.164-2.947-3.137-6.818-2.315,0,0,.8,4.617-2.935,5.363l-4.478.911-2.4,1.088-1.935.089s0,6.223,1.265,6.729c1.012.392,4.364,1.505,5.566,0s2.264-2.884,2.264-2.884v-.759s2.669-1.138,4.453-2.176a18.151,18.151,0,0,0,2.871-2.112h0C123.769,257.632,123.769,256.026,123.769,256.026Z" transform="translate(-102.858 -99.224)" fill="#241753"/>
          <path id="Trazado_124395" data-name="Trazado 124395" d="M139.563,265.157s-8.639-.228-10.676.076a26.184,26.184,0,0,1-13.067,5.06v5.06s3.39,3.086,9.272.9v-.67s6.7.367,10.119-.835c0,0,6.717-1.126,7.311-5.578C142.611,269.078,142.282,265.688,139.563,265.157Z" transform="translate(-100.044 -96.161)" fill="#241753"/>
          <path id="Trazado_124396" data-name="Trazado 124396" d="M144.228,196.135a21.645,21.645,0,0,1-2.353.569,32.293,32.293,0,0,1-12.118-2.391c-1.859-3.947-1.037-6.628.595-8.323-.417-.746-.81-1.505-1.265-2.3-2.429-4.883-5.945-11.625-2.53-16.229,1.746-2.327,4.541-2.1,6.514-.443a14.851,14.851,0,0,1,4.883,5.528c1.176,2.833,7.514,18.139,7.514,18.9S145.076,195.857,144.228,196.135Z" transform="translate(-97.576 -122.477)" fill="#ffcda8"/>
          <path id="Trazado_124397" data-name="Trazado 124397" d="M111.506,160.353c.253-.519-.164-1.265.582-1.8s3.137-2.3,2.833-2.808c-1.176-1.91-3.592-4.035-4.44-6.932-1.366-4.617-.873-9.765,3.415-13.18,7.83-6.325,17.848-1.809,20.378,7.337.493,1.8-.9,2.758-.847,4.288,0,.291.392.607.721,1.265.443.923.354,10.246-.86,10.853-1,.493-6-.164-5.844.291A13.028,13.028,0,0,0,129,164.983s-.607,1.265-.595,1.265c0,.683-.114-.329-.253.126C125.155,166.476,115.466,167.842,111.506,160.353Z" transform="translate(-101.638 -131.233)" fill="#daa782"/>
          <path id="Trazado_124398" data-name="Trazado 124398" d="M133.124,159.43a7.994,7.994,0,0,1-4.326-.519,7.793,7.793,0,0,1-1.91-1.341c-.67-.278-2.163-2.4.139-5.793s-11.384,5.148-12.105,3.972c-1.176-1.91-3.592-4.035-4.44-6.932-1.366-4.617-.873-9.765,3.415-13.18,7.83-6.325,17.848-1.809,20.378,7.337.493,1.8-.9,2.758-.847,4.288,0,.291.392.607.721,1.265.443.923.177,10.259-1.025,10.9" transform="translate(-101.638 -131.233)" fill="#ffcda8" fill-rule="evenodd"/>
          <path id="Trazado_124399" data-name="Trazado 124399" d="M110.661,140.167a9.537,9.537,0,0,1,5.06-6.426c5.3-2.745,13.244-3.023,16.318-.278a4.845,4.845,0,0,1-1.581,7.59h-.114l.076.177c1.113,2.935,1.088,4.263.632,4.908-1.746,2.53-1.771,2.859-1.682,6.666l-.974.81c-.417-3-1.733-2.757-3.023-1.758-2.239,1.746-3.1,5.7-6.843,6.476a3.263,3.263,0,0,1-3.314-1.265c-1.265-2.745-3.618-4.44-4.68-8.083A13.332,13.332,0,0,1,110.661,140.167Z" transform="translate(-101.627 -131.538)" fill="#173d7a"/>
          <path id="Trazado_124400" data-name="Trazado 124400" d="M104.291,204.05c.253,13.383,3.706,31.547,3.137,34.507a106.342,106.342,0,0,0-2.441,38.428c.759,5.464,12.194,3.226,12.649-1.265s-1.417-17.9,4.162-35.936c2.821-9.158,5.857-27.727,2.859-50.394C122.076,186.7,105.353,203.873,104.291,204.05Z" transform="translate(-103.112 -116.288)" fill="#203b72"/>
          <path id="Trazado_124401" data-name="Trazado 124401" d="M108.315,188.08s-6.325,14.509-3.137,21.44c1.695,3.681,13.231,8.348,13.231,8.348.114,8.488,2.416,30.548,1.859,33.533a122.444,122.444,0,0,0-1.075,38.175c1.771,5.578,14.091,3.061,14.585-1.48a184.969,184.969,0,0,1,.506-34.153c.734-6.084,6.325-37.948,4.807-58.667C138.7,193.671,108.315,188.08,108.315,188.08Z" transform="translate(-103.101 -116.559)" fill="#2a5087"/>
          <path id="Trazado_124402" data-name="Trazado 124402" d="M129.939,158.01c7.3,7.779,10.119,10.436,10.119,10.436s3.466,8.488,2.15,12.535a104,104,0,0,0-1.961,28.84s-2.429-4.453-5.49-3.4c-2.365.822-10.511,14.825-22.541,9.93-9.259-3.795-5.983-9.664-6.325-18.114-.4-16.874-1.113-20.3-1.91-25.615-1.809-11.852.455-18.379,4.174-19.075l6.856-1.265S114.912,160.616,129.939,158.01Z" transform="translate(-103.348 -126.043)" fill="#9182ca"/>
          <path id="Trazado_124403" data-name="Trazado 124403" d="M135.6,166.513c-3.175-5.983-17.709-.443-10.372,10.511,2.53,3.795,4.579,9.6,7.817,13.762,9.841-.62,10.689-7.868,10.689-7.868S138.459,171.838,135.6,166.513Z" transform="translate(-98.093 -122.922)" fill="#241753"/>
        </g>
        <g id="Grupo_60377" data-name="Grupo 60377" transform="translate(0 122.336)">
          <g id="Grupo_60375" data-name="Grupo 60375" transform="translate(3.557 17.355)">
            <ellipse id="Elipse_4096" data-name="Elipse 4096" cx="12.801" cy="22.174" rx="12.801" ry="22.174" transform="translate(4.94 154.684) rotate(-89.64)" fill="#446fc6" opacity="0.26"/>
            <g id="Grupo_60374" data-name="Grupo 60374">
              <g id="Grupo_60373" data-name="Grupo 60373" transform="translate(5.116 42.882)">
                <path id="Trazado_124404" data-name="Trazado 124404" d="M51.261,232.458c4.225,4.06,8.045,6.325,10.916,9.032a2.416,2.416,0,0,1-.822,4.187c-1.569.506-3.479.708-6.717-1.025a34.037,34.037,0,0,1-6.249-4.5s-5.452-1.05-6.11-2.745.582-7.514.582-7.514S50.351,232,51.261,232.458Z" transform="translate(-25.905 -145.407)" fill="#2a337c"/>
                <path id="Trazado_124405" data-name="Trazado 124405" d="M54.773,202a14.471,14.471,0,0,1-2.2,7.944s-3.074,7.729-.86,30.358c18.8,14.053-6.388,5.363-8.386-1.885a170.843,170.843,0,0,0-2.53-18.974l-.506-4.313,1.442-8.1,2.745-5.464S54.672,198.192,54.773,202Z" transform="translate(-26.382 -153.276)" fill="#f7c39f"/>
                <path id="Trazado_124406" data-name="Trazado 124406" d="M43.915,234.834c3.188,3.934,10.5,11.195,11.182,12.27a2.252,2.252,0,0,1-1.025,2.985c-1.353.873-4.035,1.594-8.247-.164-4.807-2-8.766-7.4-9.563-9.057s.253-6.211.253-6.211L39.7,234.1a25.5,25.5,0,0,0,4.212.734Z" transform="translate(-27.528 -144.292)" fill="#2a337c"/>
                <path id="Trazado_124407" data-name="Trazado 124407" d="M44.909,207.8c.164,4.187-1.126,5.06-1.493,7.741s-.835,21.5,1.151,26.7a34.151,34.151,0,0,0,3.909,5.338c6.325,7.59-6.223,5.389-10.992-4.339-.961-13.218-5.566-22.161-5.148-27.348S35.08,211.529,35,204.269c.316-2.669,2.214-2.353,2.214-2.353l5.616-.076S44.846,206.027,44.909,207.8Z" transform="translate(-28.496 -152.838)" fill="#ffcda8"/>
                <path id="Trazado_124408" data-name="Trazado 124408" d="M29.63,172.346s3.618-7.046,9.2-9.069a30.068,30.068,0,0,1,6.489,0s9.854,3.668,15.091,4.516c.443.557,2.694,3.542,2.783,6.223v.164a53.91,53.91,0,0,1-.557,8.032c.076-.607-3.428,25.2-4.124,29.6s-18.7,9.348-24.527,2.163c-.721-5.06-3.706-24.577-4.364-31.522a38.921,38.921,0,0,1,.013-10.107Z" transform="translate(-29.295 -163.101)" fill="#173d7a"/>
              </g>
              <path id="Trazado_124409" data-name="Trazado 124409" d="M53.431,190.878s2.074-4.288,1.265-4.743-3.188,4.022-3.959,3.516.835-4.794,1.594-5.414,4.9-3.909,4.9-3.909-2.745-17.557-2.656-21.074h0l-1.885-4.769-.746-9.145s5.06-2.2,5.654-1.48a71.8,71.8,0,0,1,3.58,13.522,109.719,109.719,0,0,1,.19,23.376s-1.151,10.271-4.427,12.89c-.557.253-6.059,3.3-6.805,1.063C49.624,193.116,53.431,190.878,53.431,190.878Z" transform="translate(-18.671 -125.355)" fill="#ffcda8"/>
              <path id="Trazado_124410" data-name="Trazado 124410" d="M49.135,133.043c-5.174,1.467-3.1,7.8-3.1,7.8s4.718,10.3,5.654,12.649c1.265,3.314,9.828-.923,8.854-3.377s-3.719-11.65-3.719-11.65S54.3,131.576,49.135,133.043Z" transform="translate(-19.852 -128.236)" fill="#f25585"/>
              <path id="Trazado_124411" data-name="Trazado 124411" d="M47.852,135.74s-1.973-2.96-2-5.06l-8.968-1.48s-.342,8.538-3.415,11.258c0,0,4.035,5.983,8.715,4.49C45.929,143.759,49.75,139.522,47.852,135.74Z" transform="translate(-23.072 -129.2)" fill="#daa782"/>
              <path id="Trazado_124412" data-name="Trazado 124412" d="M58.374,150.84l-.114.215h.089a1.393,1.393,0,0,1,.025-.215Z" transform="translate(-16.505 -123.467)" fill="#fedda7"/>
              <path id="Trazado_124413" data-name="Trazado 124413" d="M42.466,150.261a1.478,1.478,0,0,0-.076-.531,3.8,3.8,0,0,1,.076.531Z" transform="translate(-20.709 -123.761)" fill="none"/>
              <path id="Trazado_124414" data-name="Trazado 124414" d="M29.388,141.727l-.911-.8c2.441-2.859,6.54-1.531,6.54-1.531,2.745,3.453,8.475,5.211,11.523,2.53a8.854,8.854,0,0,0,2.644-7.59h.177l1.265-.443,1.341-.468c3.871-1.265,7.779,1.872,7.8,6.261v3.694l3.769,6.843a11.27,11.27,0,0,1,1.088,7.273l-.063.316s-4.9,10.5-3.63,17.709h0A4.971,4.971,0,0,1,58.62,177.6c-9.828,4.25-18.139,3.466-21.58,1.784a5.06,5.06,0,0,1-2.391-2.53,4.554,4.554,0,0,1-.253-.734l-4.68-21.5-1.948-7.1a5.667,5.667,0,0,1,1.619-5.793Z" transform="translate(-24.644 -128.155)" fill="#f57fa3"/>
              <path id="Trazado_124415" data-name="Trazado 124415" d="M36.44,157.141c1.872,8.665,20.871-3.491,20.871-3.491S39.83,162.694,36.44,157.141Z" transform="translate(-22.286 -122.723)" fill="#21684d"/>
              <path id="Trazado_124416" data-name="Trazado 124416" d="M34.723,158.559s-.417,8.374-.582,9.4c5.97,3.415,13.611,11.536,18.329,14.268.784.455,4.516-.354,5.389.266a4.2,4.2,0,0,1,1.113,2.391,18.3,18.3,0,0,1,2.694,1.771c.544.582,1.986,3.2,1.164,4.225-1.467,1.771-5.06,1.948-6.54,1.151s-5.515-3.592-6.527-5.389c-5.06-3.4-18.974-7.956-23.578-14.344-.683-.949-.645-14.306-.645-14.306l1.872-2.53,4.958,1.986Z" transform="translate(-25.173 -122.243)" fill="#ffcda8"/>
              <path id="Trazado_124417" data-name="Trazado 124417" d="M25.25,162.1v-.152c.2-2.53.759-17.557.759-17.557s.139-6.325,6.729-5.566c5.325.632,4.4,8.311,4.4,8.311s-.885,12.51-1.126,15.976A13.547,13.547,0,0,1,25.25,162.1Z" transform="translate(-25.25 -126.667)" fill="#f25585"/>
            </g>
          </g>
          <g id="Grupo_60376" data-name="Grupo 60376">
            <path id="Trazado_124418" data-name="Trazado 124418" d="M50.053,119.414a13.914,13.914,0,0,1,2.074,7.994,33.345,33.345,0,0,1,2.53,4.212c0,.569-1.606,1.176-1.606,1.176s.089,6.59-1.265,6.717c-10.119.936-10.739-3.984-10.739-3.984s-3.909.089-3.542-3.365a19.644,19.644,0,0,1-.266-4.756S49.154,118.478,50.053,119.414Z" transform="translate(-18.528 -114.456)" fill="#ffcda8"/>
            <path id="Trazado_124419" data-name="Trazado 124419" d="M31.915,124.248c-1.2,3.188,1.075,13.18,0,15.862a16.444,16.444,0,0,1-3.263,4.807s-6.881-9.8-6.16-16.52,8.564-9.727,8.564-9.727S32.623,123.451,31.915,124.248Z" transform="translate(-22.438 -114.635)" fill="#173d7a"/>
            <path id="Trazado_124420" data-name="Trazado 124420" d="M32.933,118.818s-3.605-.4-3.9,0c-1.784,2.53,1.265,5.439,1.265,5.439l1.138-.316,1.493-.658Z" transform="translate(-20.838 -114.643)" fill="#fd8f25"/>
            <path id="Trazado_124421" data-name="Trazado 124421" d="M52.11,120.742c-.164,2.429-3.947,4.49-3.947,4.49a9.133,9.133,0,0,1-.835,4.516,19.809,19.809,0,0,0-2.163,4.4,4.339,4.339,0,0,0-4.351-2.049c-.493.114-1.341.443-1.265,1.088.481,3.592-1.265,3.592-1.265,3.592s-7.134,0-8.639-5.338c-.8-2.821,1.505-6.666,1.505-6.666l.835-4.984a12.523,12.523,0,0,1,8.854-4.313C46.254,115.48,52.262,118.3,52.11,120.742Z" transform="translate(-20.573 -115.48)" fill="#173d7a"/>
          </g>
        </g>
        <g id="Grupo_60382" data-name="Grupo 60382" transform="translate(287.506 255.265)">
          <path id="Trazado_124422" data-name="Trazado 124422" d="M352.932,244.044l-30.358-17.62a7.2,7.2,0,0,0-6.451.266l-63.841,36.683c-1.91,1.1-2.125,2.77-.468,3.795l30.358,17.608a7.147,7.147,0,0,0,6.451-.253l63.841-36.683C354.374,246.662,354.589,245.03,352.932,244.044Z" transform="translate(-249.474 -219.186)" fill="#c4dbf2"/>
          <g id="Grupo_60381" data-name="Grupo 60381">
            <path id="Trazado_124423" data-name="Trazado 124423" d="M352.424,240.8V236.56h0a3.39,3.39,0,0,1-2.011,2.644l-61.134,35.2a9.082,9.082,0,0,1-8.209.329l-29.9-17.317a2.416,2.416,0,0,1-1.417-2.1h0v4.339h0a2.365,2.365,0,0,0,1.4,2.138l29.9,17.317a9.12,9.12,0,0,0,8.209-.329l61.172-35.2a3.276,3.276,0,0,0,2.011-2.77Z" transform="translate(-249.725 -216.332)" fill="#396caa"/>
            <path id="Trazado_124424" data-name="Trazado 124424" d="M251.147,261.655l29.9,17.317a9.082,9.082,0,0,0,8.209-.329l61.172-35.2a3.39,3.39,0,0,0,2.011-2.644,2.429,2.429,0,0,0-1.417-2.087l-29.9-17.317a9.057,9.057,0,0,0-8.2.329l-61.184,35.2a3.4,3.4,0,0,0-2.011,2.631,2.416,2.416,0,0,0,1.417,2.1Z" transform="translate(-249.73 -220.569)" fill="#173d7a"/>
            <path id="Trazado_124425" data-name="Trazado 124425" d="M348.239,239.063,319.5,222.417a6.78,6.78,0,0,0-6.084.24L253.1,257.367c-1.809,1.05-2.011,2.618-.443,3.529l28.726,16.634a6.755,6.755,0,0,0,6.1-.24L347.8,242.58C349.592,241.543,349.795,239.962,348.239,239.063Z" transform="translate(-249.233 -220.24)" fill="#f7f6fb"/>
            <path id="Trazado_124426" data-name="Trazado 124426" d="M261.787,262.031l1.72,1c.228.126.417,0,.417-.316h0a.974.974,0,0,0-.417-.784l-1.72-1c-.228-.127-.417,0-.417.316h0A.974.974,0,0,0,261.787,262.031Z" transform="translate(-246.646 -209.889)" fill="#f7f6fb"/>
            <g id="Grupo_60378" data-name="Grupo 60378" transform="translate(15.015 36.191)">
              <path id="Trazado_124427" data-name="Trazado 124427" d="M285.117,261.639,264.84,249.926l1.29-.746,20.277,11.713Z" transform="translate(-260.742 -249.18)" fill="#b5abdb"/>
              <path id="Trazado_124428" data-name="Trazado 124428" d="M271.859,257.729,261.6,251.8l1.29-.746,10.271,5.933Z" transform="translate(-261.6 -248.685)" fill="#b5abdb"/>
              <path id="Trazado_124429" data-name="Trazado 124429" d="M274.347,259.159l-3.327-1.923,1.29-.746,3.339,1.923Z" transform="translate(-259.104 -247.243)" fill="#b5abdb"/>
              <path id="Trazado_124430" data-name="Trazado 124430" d="M278.329,261.459l-3.339-1.923,1.3-.746,3.327,1.923Z" transform="translate(-258.053 -246.634)" fill="#b5abdb"/>
              <path id="Trazado_124431" data-name="Trazado 124431" d="M271.543,255.673l-8.323-4.807,1.29-.746,8.336,4.807Z" transform="translate(-261.171 -248.931)" fill="#b5abdb"/>
              <path id="Trazado_124432" data-name="Trazado 124432" d="M279.6,260.313l-8.336-4.807,1.29-.746,8.336,4.807Z" transform="translate(-259.041 -247.702)" fill="#b5abdb"/>
            </g>
            <g id="Grupo_60379" data-name="Grupo 60379" transform="translate(65.106 7.326)">
              <path id="Trazado_124433" data-name="Trazado 124433" d="M316.675,236.125l-3.415-1.973,1.328-.772L318,235.353Z" transform="translate(-298.005 -224.5)" fill="#b5abdb"/>
              <path id="Trazado_124434" data-name="Trazado 124434" d="M320.435,238.292l-3.415-1.973,1.328-.759,3.4,1.961Z" transform="translate(-297.009 -223.923)" fill="#b5abdb"/>
              <path id="Trazado_124435" data-name="Trazado 124435" d="M304.615,229.092l-3.415-1.961,1.328-.772,3.415,1.973Z" transform="translate(-301.2 -226.36)" fill="#b5abdb"/>
              <path id="Trazado_124436" data-name="Trazado 124436" d="M316.356,237.856l-4.756-2.745,1.328-.772,4.743,2.745Z" transform="translate(-298.445 -224.246)" fill="#b5abdb"/>
              <path id="Trazado_124437" data-name="Trazado 124437" d="M318.5,239.093l-2.1-1.2,1.328-.772,2.087,1.2Z" transform="translate(-297.173 -223.509)" fill="#b5abdb"/>
            </g>
            <g id="Grupo_60380" data-name="Grupo 60380" transform="translate(80.765 32.261)">
              <path id="Trazado_124438" data-name="Trazado 124438" d="M315.781,248.167l-1.695.974a1.126,1.126,0,0,0-.506.873c0,.329.228.455.506.291l1.695-.974a1.126,1.126,0,0,0,.506-.873C316.287,248.142,316.059,247.977,315.781,248.167Z" transform="translate(-313.58 -245.54)" fill="#f7f6fb"/>
              <path id="Trazado_124439" data-name="Trazado 124439" d="M319.535,246.145l-2.859,1.644a1.126,1.126,0,0,0-.506.873c0,.329.228.455.506.291l2.859-1.644a1.126,1.126,0,0,0,.506-.873C320.041,246.107,319.813,245.981,319.535,246.145Z" transform="translate(-312.894 -246.073)" fill="#f7f6fb"/>
            </g>
            <path id="Trazado_124440" data-name="Trazado 124440" d="M297.406,252.756h0l1.265-1.189a1.265,1.265,0,0,0,.114-2.1c-.632-.721-1.265-1.455-1.91-2.176a.708.708,0,0,1-.177-.683,2.39,2.39,0,0,1,.822-1.138.443.443,0,0,1,.266-.076,6.034,6.034,0,0,0,2.808-.544.822.822,0,0,1,.481-.076.734.734,0,0,0,.329,0l1.429-.468c.43-.139.683-.354.645-.658a.145.145,0,0,1,.114-.126l.772-.443a11.534,11.534,0,0,0,1.265-.822,1.91,1.91,0,0,0,.316-3.1,5.135,5.135,0,0,0-.607-.544l-.354-.2-.24-.1c-.43-.152-.835-.342-1.265-.468a4.174,4.174,0,0,0-2.264,0,2.528,2.528,0,0,1-.7.089,3.8,3.8,0,0,0-1.771.481c-.7.367-1.354.759-2.024,1.138a.569.569,0,0,1-.367.089,1.4,1.4,0,0,0-.8.19,4.4,4.4,0,0,0-1.037,1.012.2.2,0,0,0,0,.2c.063.1,0,.19-.114.253a1.771,1.771,0,0,0-.949,1.606c0,.1,0,.164-.19.2-.379.114-.746.24-1.138.329a4.3,4.3,0,0,1-2.264,0c-1.138-.367-2.327-.683-3.491-1.025a5.54,5.54,0,0,0-3.3,0c-.721.228-1.417.481-2.125.734a.291.291,0,0,0-.152.076c-.152.139-.1.253.19.43l15.634,9.019a.974.974,0,0,0,.784.088Z" transform="translate(-241.522 -216.034)" fill="#b5abdb"/>
          </g>
        </g>
        <g id="Grupo_60384" data-name="Grupo 60384" transform="translate(18.964 50.879)">
          <path id="Trazado_124441" data-name="Trazado 124441" d="M38.821,79.419,73.9,59.18c.772-.443,1.391-.089,1.391.8V81.126c0,.506-.519,1.063-.835.885l-3.795-2.188L38.821,98.215c-.772.443-1.391.089-1.391-.8V81.771A3.061,3.061,0,0,1,38.821,79.419Z" transform="translate(-37.43 -58.989)" fill="url(#linear-gradient-4)"/>
          <g id="Grupo_60383" data-name="Grupo 60383" transform="translate(4.162 8.172)">
            <path id="Trazado_124442" data-name="Trazado 124442" d="M67.015,66.6,46.65,79.061V77.909L67.015,65.45Z" transform="translate(-39.149 -65.45)" fill="#fff" fill-rule="evenodd"/>
            <path id="Trazado_124443" data-name="Trazado 124443" d="M63.614,68.851,59.49,71.368V70.217L63.614,67.7Z" transform="translate(-35.747 -64.854)" fill="#fff" fill-rule="evenodd"/>
            <path id="Trazado_124444" data-name="Trazado 124444" d="M64.6,71.091,55.78,76.48V75.329L64.6,69.94Z" transform="translate(-36.73 -64.26)" fill="#fff" fill-rule="evenodd"/>
            <path id="Trazado_124445" data-name="Trazado 124445" d="M60.184,72.091,47.13,80.085V78.934L60.184,70.94Z" transform="translate(-39.022 -63.996)" fill="#fff" fill-rule="evenodd"/>
            <path id="Trazado_124446" data-name="Trazado 124446" d="M46.956,79.311l-6.236,3.82V81.98l6.236-3.82Z" transform="translate(-40.72 -62.083)" fill="#fff" fill-rule="evenodd"/>
            <path id="Trazado_124447" data-name="Trazado 124447" d="M55.689,76.351l-7.349,4.5V79.7l7.349-4.5Z" transform="translate(-38.701 -62.867)" fill="#fff" fill-rule="evenodd"/>
          </g>
        </g>
        <g id="Grupo_60388" data-name="Grupo 60388" transform="translate(185.996 35.657)">
          <path id="Trazado_124448" data-name="Trazado 124448" d="M196.481,59.054,176.014,47.24c-1.138-.658-2.074-.139-2.074,1.176v38.1a4.6,4.6,0,0,0,2.074,3.58l26.829,15.483c1.151.658,2.074.139,2.074-1.176V75.713Z" transform="translate(-168.298 -46.955)" fill="url(#linear-gradient-5)"/>
          <g id="Grupo_60387" data-name="Grupo 60387" transform="translate(0 4.708)">
            <g id="Grupo_60385" data-name="Grupo 60385">
              <path id="Trazado_124449" data-name="Trazado 124449" d="M192.021,62.773,171.567,50.959c-1.151-.658-2.087-.126-2.087,1.189V90.3a4.566,4.566,0,0,0,2.087,3.58l26.816,15.394c1.151.658,2.087.126,2.087-1.189V79.432l-8.45-4.87Z" transform="translate(-169.48 -50.677)" fill="#5f9cce"/>
              <path id="Trazado_124450" data-name="Trazado 124450" d="M187.3,72.029l8.437,4.87L187.3,60.24Z" transform="translate(-164.759 -48.144)" fill="#1d4682"/>
            </g>
            <g id="Grupo_60386" data-name="Grupo 60386" transform="translate(4.149 19.382)">
              <path id="Trazado_124451" data-name="Trazado 124451" d="M189.761,78.839V75.828L172.76,66v3.023Z" transform="translate(-172.76 -66)" fill="#fff"/>
              <path id="Trazado_124452" data-name="Trazado 124452" d="M195.794,84.574,172.76,71.28v3.011l23.034,13.294Z" transform="translate(-172.76 -64.601)" fill="#fff"/>
            </g>
          </g>
        </g>
      </g>
    </g>
  </g>
</svg>
