<svg id="Layer_1" data-name="Layer 1" xmlns="http://www.w3.org/2000/svg" viewBox="0 0 1185.5 970.65"><defs><style>.cls-1{fill:#dad5ed;}.cls-10,.cls-11,.cls-12,.cls-14,.cls-17,.cls-18,.cls-2,.cls-3,.cls-4,.cls-6,.cls-7,.cls-8{isolation:isolate;}.cls-10,.cls-11,.cls-12,.cls-14,.cls-17,.cls-18,.cls-3,.cls-4,.cls-6,.cls-7,.cls-8{font-size:16px;}.cls-12,.cls-14,.cls-17,.cls-18,.cls-3,.cls-4,.cls-9{fill:#12263f;}.cls-12,.cls-14,.cls-17,.cls-18,.cls-3,.cls-4,.cls-6,.cls-7,.cls-8{font-family:Roboto-Regular, Roboto;}.cls-4,.cls-8{letter-spacing:-0.02em;}.cls-5{fill:#472ea6;}.cls-10,.cls-11,.cls-6,.cls-7,.cls-8{fill:#fff;}.cls-11,.cls-12,.cls-6{letter-spacing:-0.01em;}.cls-10,.cls-11{font-family:Roboto-Bold, Roboto;font-weight:700;}.cls-13{fill:#fcd4e0;}.cls-14{letter-spacing:0.02em;}.cls-15,.cls-16{fill:none;stroke:#bbabf5;stroke-miterlimit:10;stroke-width:2px;}.cls-16{stroke-linecap:square;}.cls-17{letter-spacing:-0.04em;}.cls-18{letter-spacing:-0.06em;}</style></defs><rect class="cls-1" y="242.61" width="184.99" height="70.08" rx="12.21"/><path class="cls-1" d="M239.23,279.77H399.8c6.74,0,12.21,4,12.21,8.85v56.87c0,4.89-5.47,8.85-12.21,8.85H239.23c-6.74,0-12.21-4-12.21-8.85V288.62C227,283.73,232.49,279.77,239.23,279.77Z" transform="translate(-27.23 -22.99)"/><rect class="cls-1" x="399.58" y="242.61" width="184.99" height="70.08" rx="12.21"/><rect class="cls-1" x="673.35" y="242.61" width="184.99" height="70.08" rx="12.21"/><rect class="cls-1" x="970.05" y="242.61" width="184.99" height="70.08" rx="12.21"/><g class="cls-2"><text class="cls-3" transform="translate(46.2 275.08)">Inf</text><text class="cls-4" transform="translate(64.93 275.08)">r</text><text class="cls-3" transform="translate(70.04 275.08)">acción de </text><text class="cls-3" transform="translate(50.68 294.28)">tipo gene</text><text class="cls-4" transform="translate(116.61 294.28)">r</text><text class="cls-3" transform="translate(121.72 294.28)">al</text></g><g class="cls-2"><text class="cls-3" transform="translate(448.15 275.08)">Inf</text><text class="cls-4" transform="translate(466.88 275.08)">r</text><text class="cls-3" transform="translate(471.99 275.08)">acciones </text><text class="cls-3" transform="translate(454.2 294.28)">especiales</text></g><g class="cls-2"><text class="cls-3" transform="translate(721.92 275.08)">Inf</text><text class="cls-4" transform="translate(740.65 275.08)">r</text><text class="cls-3" transform="translate(745.76 275.08)">acciones </text><text class="cls-3" transform="translate(721.02 294.28)">sustanciales</text></g><rect class="cls-5" x="199.79" y="132.74" width="184.99" height="70.08" rx="12.21"/><rect class="cls-5" x="818.67" y="132.74" width="184.99" height="70.08" rx="12.21"/><g class="cls-2"><text class="cls-6" transform="translate(245.54 165.23)">P</text><text class="cls-7" transform="translate(255.53 165.23)">or el tipo de </text><text class="cls-7" transform="translate(256.95 184.43)">inf</text><text class="cls-8" transform="translate(275.22 184.43)">r</text><text class="cls-7" transform="translate(280.32 184.43)">acción</text></g><rect class="cls-9" x="492.36" width="208.35" height="70.08" rx="12.21"/><g class="cls-2"><text class="cls-10" transform="translate(552.79 28.32)">Sanciones e </text><text class="cls-10" transform="translate(512.5 47.52)">inf</text><text class="cls-11" transform="translate(531.44 47.52)">r</text><text class="cls-10" transform="translate(537.04 47.52)">acciones aduane</text><text class="cls-11" transform="translate(658.15 47.52)">r</text><text class="cls-10" transform="translate(663.75 47.52)">as</text></g><g class="cls-2"><text class="cls-6" transform="translate(844.39 162.01)">P</text><text class="cls-7" transform="translate(854.38 162.01)">or la natu</text><text class="cls-8" transform="translate(921.01 162.01)">r</text><text class="cls-7" transform="translate(926.11 162.01)">aleza de </text><text class="cls-7" transform="translate(871.23 181.21)">la inf</text><text class="cls-8" transform="translate(906.04 181.21)">r</text><text class="cls-7" transform="translate(911.14 181.21)">acción</text></g><g class="cls-2"><text class="cls-3" transform="translate(1019.87 275.08)">Inf</text><text class="cls-4" transform="translate(1038.6 275.08)">r</text><text class="cls-3" transform="translate(1043.71 275.08)">acciones </text><text class="cls-3" transform="translate(1025.73 294.28)">informales</text></g><g class="cls-2"><text class="cls-3" transform="translate(213.33 269.88)">Inf</text><text class="cls-4" transform="translate(232.06 269.88)">r</text><text class="cls-3" transform="translate(237.17 269.88)">acciones comunes </text><text class="cls-3" transform="translate(252.95 289.08)">a </text><text class="cls-12" transform="translate(265.61 289.08)">t</text><text class="cls-3" transform="translate(270.68 289.08)">odos los </text><text class="cls-3" transform="translate(241.12 308.28)">ope</text><text class="cls-4" transform="translate(267.7 308.28)">r</text><text class="cls-3" transform="translate(272.8 308.28)">adores de </text><text class="cls-3" transform="translate(229.91 327.48)">come</text><text class="cls-12" transform="translate(269.91 327.48)">r</text><text class="cls-3" transform="translate(275.17 327.48)">cio exterior</text></g><rect class="cls-13" x="443.61" y="367.59" width="384.78" height="181.02" rx="12.21"/><rect class="cls-13" x="852.53" y="367.59" width="332.97" height="181.02" rx="12.21"/><g class="cls-2"><text class="cls-3" transform="translate(463.95 401.46)">Se refieren al incumplimien</text><text class="cls-12" transform="translate(656.79 401.46)">t</text><text class="cls-3" transform="translate(661.86 401.46)">o de obligaciones </text><text class="cls-3" transform="translate(463.95 420.66)">que afectan el orden económico del Estado; la </text><text class="cls-3" transform="translate(463.95 439.86)">determinación, liquidación, pago de los derechos, </text><text class="cls-3" transform="translate(463.95 459.06)">impues</text><text class="cls-12" transform="translate(516.38 459.06)">t</text><text class="cls-3" transform="translate(521.45 459.06)">os, sanciones y/o rescate; </text><text class="cls-3" transform="translate(463.95 478.26)">incumplimien</text><text class="cls-12" transform="translate(559.83 478.26)">t</text><text class="cls-3" transform="translate(564.9 478.26)">o de las restricciones legales o </text><text class="cls-3" transform="translate(463.95 497.46)">administ</text><text class="cls-4" transform="translate(525.77 497.46)">r</text><text class="cls-3" transform="translate(530.87 497.46)">ati</text><text class="cls-12" transform="translate(548.68 497.46)">v</text><text class="cls-3" transform="translate(556.32 497.46)">as; pa</text><text class="cls-14" transform="translate(598.29 497.46)">r</text><text class="cls-3" transform="translate(604.1 497.46)">ticipar en simulación de un </text><text class="cls-3" transform="translate(463.95 516.66)">destino, régimen u ope</text><text class="cls-4" transform="translate(625.26 516.66)">r</text><text class="cls-3" transform="translate(630.36 516.66)">ación aduane</text><text class="cls-4" transform="translate(725.79 516.66)">r</text><text class="cls-3" transform="translate(730.9 516.66)">a.</text></g><g class="cls-2"><text class="cls-3" transform="translate(864.46 401.31)">Son las relacionadas con el </text><text class="cls-3" transform="translate(864.46 420.51)">incumplimien</text><text class="cls-12" transform="translate(960.34 420.51)">t</text><text class="cls-3" transform="translate(965.41 420.51)">o de las obligaciones y los </text><text class="cls-3" transform="translate(864.46 439.71)">p</text><text class="cls-12" transform="translate(873.44 439.71)">r</text><text class="cls-3" transform="translate(878.69 439.71)">ocedimien</text><text class="cls-12" transform="translate(952.79 439.71)">t</text><text class="cls-3" transform="translate(957.86 439.71)">os establecidos en la </text><text class="cls-3" transform="translate(864.46 458.91)">regulación aduane</text><text class="cls-4" transform="translate(995.46 458.91)">r</text><text class="cls-3" transform="translate(1000.56 458.91)">a vigente y que no </text><text class="cls-3" transform="translate(864.46 478.11)">correspondan a las inf</text><text class="cls-4" transform="translate(1022.69 478.11)">r</text><text class="cls-3" transform="translate(1027.79 478.11)">acciones </text><text class="cls-3" transform="translate(864.46 497.31)">sustanciales.</text></g><polyline class="cls-15" points="599.78 70.08 599.78 103.5 911.17 103.5 911.17 132.74"/><polyline class="cls-15" points="599.78 70.08 599.78 103.5 292.28 103.5 292.28 132.74"/><rect class="cls-9" x="430.74" y="592.34" width="324.07" height="70.08" rx="12.21"/><g class="cls-2"><text class="cls-10" transform="translate(470.88 620.67)">Inf</text><text class="cls-11" transform="translate(490.24 620.67)">r</text><text class="cls-10" transform="translate(495.84 620.67)">acciones de los ope</text><text class="cls-11" transform="translate(638.07 620.67)">r</text><text class="cls-10" transform="translate(643.67 620.67)">adores de </text><text class="cls-10" transform="translate(458.49 639.87)">come</text><text class="cls-11" transform="translate(498.38 639.87)">r</text><text class="cls-10" transform="translate(504.07 639.87)">cio exterior (Decre</text><text class="cls-11" transform="translate(636.97 639.87)">t</text><text class="cls-10" transform="translate(642.14 639.87)">o390/2016)</text></g><polyline class="cls-15" points="763.71 312.66 763.71 341.96 636 341.96 636 367.59"/><polyline class="cls-15" points="1062.54 312.66 1062.54 341.96 1021.31 341.96 1021.31 367.59"/><line class="cls-16" x1="92.49" y1="226.2" x2="492.07" y2="226.2"/><line class="cls-16" x1="292.28" y1="202.82" x2="292.28" y2="242.61"/><line class="cls-16" x1="92.49" y1="226.2" x2="92.49" y2="242.61"/><line class="cls-16" x1="492.07" y1="226.2" x2="492.07" y2="242.61"/><line class="cls-16" x1="765.85" y1="226.2" x2="1063.8" y2="226.2"/><line class="cls-16" x1="914.82" y1="202.82" x2="914.82" y2="226.2"/><rect class="cls-5" x="190.83" y="725.5" width="184.99" height="70.08" rx="12.21"/><g class="cls-2"><text class="cls-7" transform="translate(243.63 767.92)">G</text><text class="cls-8" transform="translate(254.53 767.92)">r</text><text class="cls-6" transform="translate(259.63 767.92)">a</text><text class="cls-7" transform="translate(268.22 767.92)">vísimas</text></g><rect class="cls-13" x="170" y="838.88" width="235.71" height="131.77" rx="12.21"/><rect class="cls-13" x="470.28" y="838.88" width="235.71" height="131.77" rx="12.21"/><rect class="cls-13" x="784.36" y="838.88" width="235.71" height="131.77" rx="12.21"/><g class="cls-2"><text class="cls-3" transform="translate(486.31 870.77)">Aquellas que se sancionan </text><text class="cls-3" transform="translate(486.31 889.97)">con multa superior a 200 </text><text class="cls-3" transform="translate(486.31 909.17)">UV</text><text class="cls-17" transform="translate(506.86 909.17)">T</text><text class="cls-3" transform="translate(516.1 909.17)"><tspan xml:space="preserve"> o al 60% del </tspan></text><text class="cls-12" transform="translate(608.69 909.17)">v</text><text class="cls-3" transform="translate(616.32 909.17)">alor de </text><text class="cls-3" transform="translate(486.31 928.37)">los fletes o el </text><text class="cls-12" transform="translate(584.76 928.37)">v</text><text class="cls-3" transform="translate(592.4 928.37)">alor FOB de </text><text class="cls-3" transform="translate(486.31 947.57)">la me</text><text class="cls-12" transform="translate(525.36 947.57)">r</text><text class="cls-3" transform="translate(530.62 947.57)">cancía.</text></g><g class="cls-2"><text class="cls-3" transform="translate(187.96 870.77)">Son aquellas que dan lugar </text><text class="cls-3" transform="translate(187.96 889.97)">a la cancelación de la </text><text class="cls-3" transform="translate(187.96 909.17)">au</text><text class="cls-12" transform="translate(205.48 909.17)">t</text><text class="cls-3" transform="translate(210.55 909.17)">orización o habilitación </text><text class="cls-3" transform="translate(187.96 928.37)">del ope</text><text class="cls-4" transform="translate(239.88 928.37)">r</text><text class="cls-3" transform="translate(244.98 928.37)">ador de come</text><text class="cls-12" transform="translate(342.67 928.37)">r</text><text class="cls-3" transform="translate(347.94 928.37)">cio </text><text class="cls-3" transform="translate(187.96 947.57)">exterio</text><text class="cls-18" transform="translate(236.49 947.57)">r</text><text class="cls-3" transform="translate(240.94 947.57)">.</text></g><g class="cls-2"><text class="cls-3" transform="translate(799.71 870.81)">Se sancionan con </text><text class="cls-3" transform="translate(799.71 890.01)">amonestación o multa igual </text><text class="cls-3" transform="translate(799.71 909.21)">o inferior a 200 UV</text><text class="cls-17" transform="translate(931.47 909.21)">T</text><text class="cls-3" transform="translate(940.7 909.21)"><tspan xml:space="preserve"> o al 60% </tspan></text><text class="cls-3" transform="translate(799.71 928.41)">del </text><text class="cls-12" transform="translate(825.05 928.41)">v</text><text class="cls-3" transform="translate(832.69 928.41)">alor de los fletes o el </text><text class="cls-12" transform="translate(799.71 947.61)">v</text><text class="cls-3" transform="translate(807.34 947.61)">alor FOB de las me</text><text class="cls-12" transform="translate(940.95 947.61)">r</text><text class="cls-3" transform="translate(946.22 947.61)">cancías.</text></g><rect class="cls-5" x="498.33" y="725.5" width="184.99" height="70.08" rx="12.21"/><g class="cls-2"><text class="cls-7" transform="translate(566.3 767.92)">G</text><text class="cls-8" transform="translate(577.2 767.92)">r</text><text class="cls-6" transform="translate(582.3 767.92)">a</text><text class="cls-7" transform="translate(590.89 767.92)">ves</text></g><rect class="cls-5" x="809.72" y="725.5" width="184.99" height="70.08" rx="12.21"/><g class="cls-2"><text class="cls-7" transform="translate(881.48 767.92)">L</text><text class="cls-6" transform="translate(890.09 767.92)">e</text><text class="cls-7" transform="translate(898.46 767.92)">ves</text></g><polyline class="cls-15" points="590.83 662.42 590.83 695.84 902.21 695.84 902.21 725.08"/><polyline class="cls-15" points="590.83 662.42 590.83 695.84 283.33 695.84 283.33 725.08"/><line class="cls-16" x1="590.83" y1="688.09" x2="590.83" y2="724.1"/><line class="cls-16" x1="283.33" y1="795.58" x2="283.33" y2="838.88"/><line class="cls-16" x1="590.83" y1="795.58" x2="590.83" y2="838.88"/><line class="cls-16" x1="902.21" y1="795.58" x2="902.21" y2="838.88"/><line class="cls-16" x1="765.85" y1="226.2" x2="765.85" y2="242.61"/><line class="cls-16" x1="1063.8" y1="226.2" x2="1063.8" y2="242.61"/></svg>