<svg xmlns="http://www.w3.org/2000/svg" xmlns:xlink="http://www.w3.org/1999/xlink" width="500" height="500" viewBox="0 0 500 500">
  <defs>
    <clipPath id="clip-path">
      <path id="Trazado_129979" data-name="Trazado 129979" d="M282,317l.46,2.35c.29,2.29-1.1,3.47-3,2.37L224.78,290.2a10.78,10.78,0,0,1-4.87-8.44V216.49c0-2.55,1.78-3.58,4-2.31l38.17,22a10.32,10.32,0,0,1,4.43,6.46Zm60.6-17.43-15.77-75.72L279.5,251.19l15.77,75.72Z" fill="none"/>
    </clipPath>
  </defs>
  <g id="Grupo_124103" data-name="Grupo 124103" transform="translate(-853.574 -358)">
    <g id="CF6_desaduanamiento_copia_2" data-name="CF6_desaduanamiento copia 2" transform="translate(853.574 358)">
      <rect id="Rectángulo_7203" data-name="Rectángulo 7203" width="500" height="500" fill="none"/>
      <g id="Grupo_61776" data-name="Grupo 61776">
        <path id="Trazado_129888" data-name="Trazado 129888" d="M157.05,351.66l130.73,75.48,96.12-55.5L253.17,296.17Z" fill="#1d1d1b" opacity="0.15"/>
        <path id="Trazado_129889" data-name="Trazado 129889" d="M341.91,408.2l71.24,41.13,52.38-30.24-71.24-41.13Z" fill="#1d1d1b" opacity="0.15"/>
        <path id="Trazado_129890" data-name="Trazado 129890" d="M26.83,254.35l12.46-7.18a16.76,16.76,0,0,1,16.8,0l99.26,57.31-46,26.58L26.83,283.45a16.81,16.81,0,0,1,0-29.1Z" fill="#1d1d1b" opacity="0.15"/>
        <g id="Grupo_61730" data-name="Grupo 61730" opacity="0.15">
          <ellipse id="Elipse_4282" data-name="Elipse 4282" cx="39.9" cy="23.04" rx="39.9" ry="23.04" transform="translate(127.69 199.39)" fill="#1d1d1b"/>
        </g>
        <g id="Grupo_61775" data-name="Grupo 61775">
          <g id="Grupo_61756" data-name="Grupo 61756">
            <g id="Grupo_61733" data-name="Grupo 61733">
              <path id="Trazado_129891" data-name="Trazado 129891" d="M385.89,317.72a7.93,7.93,0,0,0-3.57-6.18L369.18,304l-80.89-46.7c-6.14-3.55-11.13-12.11-11.26-19.24v-8.79a5.46,5.46,0,0,0-2.48-4.28L253.83,213a1.59,1.59,0,0,0-2,0l-16.15,16.84a9.479,9.479,0,0,0-1.46,2L385.9,320.42Z" fill="#fda551"/>
              <path id="Trazado_129892" data-name="Trazado 129892" d="M234.21,231.85a16.28,16.28,0,0,0-1.82,8v29a9.22,9.22,0,0,0,1.34,4.52,9.41,9.41,0,0,0,3.23,3.41l148.93,86V320.43Z" fill="#ad5031"/>
              <path id="Trazado_129893" data-name="Trazado 129893" d="M251.82,213.03,274.5,254.6l11.32,35.63,40.93,22.9,25.08-15.86,34.06,65.43-74.97,43.28L197.49,302.15l-20.64-45.84Z" fill="#fda551"/>
              <g id="Grupo_61732" data-name="Grupo 61732">
                <path id="Trazado_129894" data-name="Trazado 129894" d="M160.7,273.15l16.15-16.84a1.6,1.6,0,0,1,2,0l20.7,12a5.47,5.47,0,0,1,2.47,4.29V281a2.479,2.479,0,0,0,0,.27c.12,7.13,5.12,15.69,11.26,19.24l80.88,46.7,13.14,7.58a8,8,0,0,1,3.57,6.19v45L162,320a10.12,10.12,0,0,1-4.58-7.93V283.12C157.42,278.87,158.57,275.37,160.7,273.15Z" fill="#ad5031"/>
                <g id="Grupo_61731" data-name="Grupo 61731">
                  <path id="Trazado_129895" data-name="Trazado 129895" d="M176.74,274.25l18,10.38c.69.4,1.25.08,1.25-.73a2.78,2.78,0,0,0-1.25-2.2l-18-10.39c-.69-.4-1.26-.07-1.26.73a2.81,2.81,0,0,0,1.26,2.21Z" fill="#2f2b3d"/>
                  <path id="Trazado_129896" data-name="Trazado 129896" d="M176.74,279.67l18,10.39c.69.4,1.25.07,1.25-.73a2.8,2.8,0,0,0-1.25-2.21l-18-10.38c-.69-.4-1.26-.08-1.26.72a2.79,2.79,0,0,0,1.26,2.21Z" fill="#2f2b3d"/>
                  <path id="Trazado_129897" data-name="Trazado 129897" d="M176.74,285.1l18,10.38c.69.4,1.25.08,1.25-.73a2.8,2.8,0,0,0-1.25-2.21l-18-10.38c-.69-.4-1.26-.07-1.26.73A2.81,2.81,0,0,0,176.74,285.1Z" fill="#2f2b3d"/>
                  <path id="Trazado_129898" data-name="Trazado 129898" d="M176.74,290.52l18,10.38c.69.4,1.25.08,1.25-.72a2.78,2.78,0,0,0-1.25-2.21l-18-10.38c-.69-.41-1.26-.08-1.26.72a2.81,2.81,0,0,0,1.26,2.21Z" fill="#2f2b3d"/>
                </g>
                <path id="Trazado_129899" data-name="Trazado 129899" d="M157.42,300v12.1A10.12,10.12,0,0,0,162,320l148.92,86V388.6Z" fill="#1d1d1b" opacity="0.2"/>
              </g>
            </g>
            <path id="Trazado_129900" data-name="Trazado 129900" d="M280.84,263.14l68,39.28-19.59-94.09a17.763,17.763,0,0,0-7.6-11.08l-44-25.4c-3.5-2-6.33-.38-6.33,3.66V247C271.47,253,275.67,260.16,280.84,263.14Zm1.45-6.14a10.78,10.78,0,0,1-4.87-8.44V183.28c0-2.54,1.78-3.57,4-2.3l38.17,22a10.24,10.24,0,0,1,4.42,6.46l15.89,76.3c.54,2.56-.93,3.93-2.95,2.77Z" fill="#6c58b8"/>
            <path id="Trazado_129901" data-name="Trazado 129901" d="M283.91,326.96l-65.94-39.55-.12-8.28,51.09-29.5Z" fill="#ad5031"/>
            <path id="Trazado_129902" data-name="Trazado 129902" d="M272.94,171.57l49.9,28.87,7.97,17.2L273.6,250.67l-5.08-14.57-52.79-31.5Z" fill="#6c58b8"/>
            <path id="Trazado_129903" data-name="Trazado 129903" d="M223.33,296.34l68,39.28-19.6-94.09c-.94-4.49-4-9-7.6-11.08l-44-25.4c-3.49-2-6.33-.38-6.33,3.66v71.45C214,286.15,218.17,293.36,223.33,296.34Zm1.45-6.14a10.78,10.78,0,0,1-4.87-8.44V216.49c0-2.55,1.78-3.58,4-2.31l38.17,22a10.32,10.32,0,0,1,4.43,6.46L282.39,319c.53,2.56-.94,3.93-3,2.77Z" fill="#2f2b3d"/>
            <g id="Grupo_61740" data-name="Grupo 61740">
              <g id="Grupo_61734" data-name="Grupo 61734">
                <path id="Trazado_129904" data-name="Trazado 129904" d="M373.87,369.39,322.05,399.3V356.73l51.82-29.92Z" fill="#535753"/>
                <path id="Trazado_129905" data-name="Trazado 129905" d="M340.69,367.49l-18.64-10.76V399.3l18.64,10.77Z" fill="#2f2b3d"/>
                <path id="Trazado_129906" data-name="Trazado 129906" d="M392.51,380.15l-51.82,29.92V367.49l51.82-29.91Z" fill="#6c58b8"/>
                <path id="Trazado_129907" data-name="Trazado 129907" d="M373.87,326.81l-51.82,29.92,18.64,10.76,51.82-29.91Z" fill="#a098b8"/>
              </g>
              <g id="Grupo_61735" data-name="Grupo 61735">
                <path id="Trazado_129908" data-name="Trazado 129908" d="M364.32,247.71l-6.85-3.96V400.38l6.85,3.96Z" fill="#2f2b3d"/>
                <path id="Trazado_129909" data-name="Trazado 129909" d="M383.36,393.35l-19.04,10.99V247.71l19.04-10.99Z" fill="#6c58b8"/>
                <path id="Trazado_129910" data-name="Trazado 129910" d="M376.51,232.77l-19.04,10.98,6.85,3.96,19.04-10.99Z" fill="#a098b8"/>
              </g>
              <g id="Grupo_61737" data-name="Grupo 61737">
                <path id="Trazado_129911" data-name="Trazado 129911" d="M347.51,356.23l-5.24-3.03V328.98l5.24,3.03Z" fill="#2f2b3d"/>
                <g id="Grupo_61736" data-name="Grupo 61736">
                  <path id="Trazado_129912" data-name="Trazado 129912" d="M407.68,321.49l-60.17,34.74V332.01l60.17-34.74Z" fill="#979d97"/>
                  <path id="Trazado_129913" data-name="Trazado 129913" d="M402.44,294.24l-60.17,34.74,5.24,3.03,60.17-34.74Z" fill="#dad6d3"/>
                </g>
              </g>
              <g id="Grupo_61738" data-name="Grupo 61738">
                <path id="Trazado_129914" data-name="Trazado 129914" d="M429.61,385.82l-69.14-37V342.6L433.88,385C433.88,386.75,432,387.1,429.61,385.82Z" fill="#979d97"/>
                <path id="Trazado_129915" data-name="Trazado 129915" d="M433.88,385.02l-.45,1.2-12.95,7.47.45-1.19Z" fill="#6c58b8"/>
                <path id="Trazado_129916" data-name="Trazado 129916" d="M416.66,393.3l-70-37.59.89-5.63,73.42,42.39C420.93,394.23,419.06,394.58,416.66,393.3Z" fill="#2f2b3d"/>
                <path id="Trazado_129917" data-name="Trazado 129917" d="M433.88,385.02,360.47,342.6l-12.96,7.48,73.42,42.42Z" fill="#a098b8"/>
              </g>
              <g id="Grupo_61739" data-name="Grupo 61739">
                <path id="Trazado_129918" data-name="Trazado 129918" d="M477,358.12l-69.15-37V314.9l73.41,42.38C481.25,359.05,479.38,359.4,477,358.12Z" fill="#979d97"/>
                <path id="Trazado_129919" data-name="Trazado 129919" d="M481.25,357.31l-.45,1.2-12.95,7.48.45-1.2Z" fill="#6c58b8"/>
                <path id="Trazado_129920" data-name="Trazado 129920" d="M464,365.6l-69.14-37v-6.23l73.41,42.38C468.3,366.53,466.43,366.88,464,365.6Z" fill="#2f2b3d"/>
                <path id="Trazado_129921" data-name="Trazado 129921" d="M481.25,357.31,407.84,314.9l-12.95,7.48,73.41,42.41Z" fill="#a098b8"/>
              </g>
            </g>
            <g id="Grupo_61742" data-name="Grupo 61742">
              <path id="Trazado_129922" data-name="Trazado 129922" d="M248.67,361c0,14.13,9.9,31.32,22.15,38.4S293,400.73,293,386.6s-9.9-31.33-22.15-38.41S248.68,346.82,248.67,361Z" fill="#2f2b3d"/>
              <rect id="Rectángulo_7204" data-name="Rectángulo 7204" width="16.74" height="62.7" transform="translate(240.663 354.995) rotate(-30)" fill="#2f2b3d"/>
              <g id="Grupo_61741" data-name="Grupo 61741">
                <path id="Trazado_129923" data-name="Trazado 129923" d="M242.2,374c0-9,6.32-12.67,14.14-8.16s14.13,15.48,14.13,24.49-6.32,12.67-14.13,8.16S242.2,383,242.2,374Z" fill="#a098b8"/>
                <path id="Trazado_129924" data-name="Trazado 129924" d="M256.32,407.73c12.24,7.09,22.17,1.37,22.18-12.76s-9.9-31.32-22.15-38.41-22.17-1.36-22.18,12.77S244.07,400.65,256.32,407.73Zm0-41.33C263.88,370.76,270,381.34,270,390s-6.12,12.22-13.66,7.86S242.68,383,242.69,374.25s6.12-12.25,13.66-7.85Z" fill="#6c58b8"/>
                <path id="Trazado_129925" data-name="Trazado 129925" d="M247.78,377.21c0-5.45,3.83-7.67,8.56-4.94s8.55,9.36,8.55,14.81-3.83,7.67-8.55,4.94S247.78,382.66,247.78,377.21Z" fill="#fff"/>
              </g>
            </g>
            <g id="Grupo_61744" data-name="Grupo 61744">
              <path id="Trazado_129926" data-name="Trazado 129926" d="M174.4,318c0,14.13,9.9,31.32,22.15,38.4s22.18,1.37,22.18-12.76-9.89-31.32-22.14-38.41S174.41,303.89,174.4,318Z" fill="#2f2b3d"/>
              <rect id="Rectángulo_7205" data-name="Rectángulo 7205" width="16.74" height="62.7" transform="translate(166.393 312.052) rotate(-30)" fill="#2f2b3d"/>
              <g id="Grupo_61743" data-name="Grupo 61743">
                <path id="Trazado_129927" data-name="Trazado 129927" d="M167.93,331.05c0-9,6.33-12.67,14.14-8.16s14.14,15.47,14.14,24.48-6.33,12.67-14.14,8.16S167.93,340.06,167.93,331.05Z" fill="#a098b8"/>
                <path id="Trazado_129928" data-name="Trazado 129928" d="M182.05,364.8c12.24,7.08,22.18,1.36,22.18-12.77s-9.89-31.32-22.14-38.41-22.18-1.36-22.19,12.77S169.8,357.71,182.05,364.8Zm0-41.34c7.54,4.36,13.64,15,13.64,23.64s-6.13,12.22-13.66,7.86S168.42,340,168.42,331.32s6.13-12.22,13.66-7.86Z" fill="#6c58b8"/>
                <path id="Trazado_129929" data-name="Trazado 129929" d="M173.52,334.27c0-5.45,3.82-7.66,8.55-4.93s8.55,9.36,8.55,14.81-3.82,7.67-8.55,4.94S173.52,339.73,173.52,334.27Z" fill="#fff"/>
              </g>
            </g>
            <g id="Grupo_61752" data-name="Grupo 61752" clip-path="url(#clip-path)">
              <g id="Grupo_61751" data-name="Grupo 61751">
                <path id="Trazado_129930" data-name="Trazado 129930" d="M317.41,296.87h-1.99l2.68-10.32h2Z" fill="#fff"/>
                <path id="Trazado_129931" data-name="Trazado 129931" d="M323,286.06a3.57,3.57,0,1,1-3.57-3.56A3.57,3.57,0,0,1,323,286.06Z" fill="#fda551"/>
                <g id="Grupo_61746" data-name="Grupo 61746">
                  <g id="Grupo_61745" data-name="Grupo 61745">
                    <path id="Trazado_129932" data-name="Trazado 129932" d="M280.27,290.71l31.45,18.15c1.45.84,2.62.16,2.62-1.51a13.44,13.44,0,0,0-6.06-10.61l-28-16.16c-1.46-.84-2.63-.16-2.63,1.51v4.07a5.8,5.8,0,0,0,2.62,4.55Z" fill="#474a47"/>
                    <path id="Trazado_129933" data-name="Trazado 129933" d="M271.54,239.38l1.6,10.7,4.17,26.75a4.862,4.862,0,0,0,.4,1.26,4.68,4.68,0,0,0,1.73,2l4.35,2.51a1.55,1.55,0,0,0,1.46.2,1.78,1.78,0,0,0,.67-1.94l-.73-4.77-4.83-30-.54-3.56a4.64,4.64,0,0,0-2.46-3.4l-4-1.62a1.31,1.31,0,0,0-1.26.05,1.79,1.79,0,0,0-.56,1.82Z" fill="#474a47"/>
                  </g>
                  <path id="Trazado_129934" data-name="Trazado 129934" d="M285,325.55l28.82-16.69-35.29-28.52L249.6,297.07Z" fill="#6c58b8"/>
                  <path id="Trazado_129935" data-name="Trazado 129935" d="M243.68,253.97l28.4-16.44,13.25,45.22-28.54,16.49Z" fill="#6c58b8"/>
                  <path id="Trazado_129936" data-name="Trazado 129936" d="M251.6,307.28,283,325.44c1.45.83,2.63.16,2.63-1.52a13.41,13.41,0,0,0-6.06-10.6l-28-16.17c-1.45-.84-2.62-.16-2.62,1.52v4.07a5.78,5.78,0,0,0,2.65,4.54Z" fill="#2f2b3d"/>
                  <path id="Trazado_129937" data-name="Trazado 129937" d="M257.25,297.43l-6.11-38.36a4.63,4.63,0,0,0-2.45-3.4l-4-1.61c-1.21-.49-2,.37-1.8,1.9l5.78,37.45a4.84,4.84,0,0,0,2.13,3.26l4.35,2.51C256.49,300,257.51,299.12,257.25,297.43Z" fill="#2f2b3d"/>
                </g>
                <g id="Grupo_61748" data-name="Grupo 61748">
                  <path id="Trazado_129938" data-name="Trazado 129938" d="M304.83,338.41v2.7c1.67,1.56,3.31,3,4.64,2.94,2.3,5.08,5.52,7.8,9.51,8.56,4.3.13,6-1.61,6-4.12-.33-3.88-6.15-6.76-7.14-11Z" fill="#2f2b3d"/>
                  <path id="Trazado_129939" data-name="Trazado 129939" d="M310.42,342.16a12.05,12.05,0,0,1-3.42-1.24,7.81,7.81,0,0,1-4.06-6c-1.54-13.44-1.78-19.08.14-26.73-9.08-8.41-25.11-8.07-28.14-20-.06-.31-.11-.6-.14-.87a9.5,9.5,0,0,1,.35-4.12c.29-1.09.71-2.4,1.19-4.27l12.17-.43,3.09-.1c5.89,2.39,9.12,4.49,22.39,17.76l2.09,2.1c2,2.56,1.47,4.61,1.4,6.33,0,0-.37,12.38,0,19.25s.92,13.36.92,13.36C318.9,341.4,314.85,342.22,310.42,342.16Z" fill="#ef2a66"/>
                  <path id="Trazado_129940" data-name="Trazado 129940" d="M307,340.92a7.81,7.81,0,0,1-4.06-6c-1.54-13.44-1.78-19.08.14-26.73-9.08-8.41-25.11-8.07-28.14-20-.06-.31-.11-.6-.14-.87a9.5,9.5,0,0,1,.35-4.12c3.23,5,22,18.38,33.62,20.49C303.61,312.81,304.1,327,307,340.92Z" opacity="0.1"/>
                  <path id="Trazado_129941" data-name="Trazado 129941" d="M318.1,280.94l-3.19,1.79c-1.2-1-2.23-1.81-3.15-2.6-4.45-3.85-6.1-6.19-10.39-11.35l-3.53-5.43-1.5-2.34-1.85-2.84,3.07-1.73,1.22-.68,1-.54,5.09-2.87,4.06,11.46C312.43,267.54,314.91,273.32,318.1,280.94Z" fill="#ffae75"/>
                  <path id="Trazado_129942" data-name="Trazado 129942" d="M296.57,263.09c4.2,2,9.16-1.65,10.42-6.75-2.39-4-3.43-10.94-5.88-13.62-5-5.48-11.78-1.85-9,4.62Z" fill="#fff"/>
                  <path id="Trazado_129943" data-name="Trazado 129943" d="M285.34,348.49v3.13a9,9,0,0,0,3.74,3.78c2.55,5,6.09,7.51,10.5,8,3.91.35,6.34-1,6.63-3.4-.38-5.35-7.48-7.1-8.33-11.46Z" fill="#2f2b3d"/>
                  <path id="Trazado_129944" data-name="Trazado 129944" d="M292.29,353.51a11.561,11.561,0,0,1-2.68-.89,9.19,9.19,0,0,1-5.48-6.7c-1.54-13.44-2.28-23.82-.35-31.46-9.09-8.41-20.83-11.29-23.85-23.23-.5-2.55-.09-5.81.68-9.34.25-1.15.53-2.3.83-3.47l18.16.69h.33l3,4.85,2.19,3.49,5,7.86L296.87,306a8.56,8.56,0,0,1,1.3,4.9s-.37,12.38,0,19.25,1.76,17.54,1.76,17.54C300.43,351.81,296.72,353.58,292.29,353.51Z" fill="#ef2a66"/>
                  <path id="Trazado_129945" data-name="Trazado 129945" d="M296,239.36c2.62,2.35,3.57,5.68,4,9.7a23.762,23.762,0,0,1-.29,6.16c-.09.6-.19,1.19-.3,1.76a48.164,48.164,0,0,1-1.6,6.37c-.38,1.15-.8,2.26-1.27,3.35-2.14,4.92-3.69,5.94-4.47,7.81a8.6,8.6,0,0,0-.5,3.91c-1.25,1-2.5,1.84-3.76,2.67-1.63,1.07-3.27,2-4.87,2.88l-.5.26a43.5,43.5,0,0,1-7.67,3.11l-.4.12c-7,.57-11.73-.21-13.79-5.57,2.24-11.32,4.59-21.65,7.45-28.06l2.09-4.5a68.67,68.67,0,0,1,16.33-8.45C293.64,239.34,291.88,238.85,296,239.36Z" fill="#ef2a66"/>
                  <path id="Trazado_129946" data-name="Trazado 129946" d="M278.22,247.17l4-8.38,11.23,5.61-2.4,6.3C289.08,258.3,277,253.61,278.22,247.17Z" fill="#ffae75"/>
                  <path id="Trazado_129947" data-name="Trazado 129947" d="M289.61,352.62a9.19,9.19,0,0,1-5.48-6.7c-1.54-13.44-2.28-23.82-.35-31.46-9.09-8.41-20.83-11.29-23.85-23.23-.5-2.55-.09-5.81.68-9.34,2.24-11.32,4.59-21.65,7.45-28.06l8.73,9.82,2.81,15.46.24,1.33,2.63,3.79,7.67,11.09q-8.26,4.08-2.36,17.38A98.89,98.89,0,0,0,289.61,352.62Z" opacity="0.1"/>
                  <g id="Grupo_61747" data-name="Grupo 61747">
                    <path id="Trazado_129948" data-name="Trazado 129948" d="M264.18,272l1.61,13.2c5.18,6.23,14.84,9.75,25.95,14.06l2.75-4c-7.15-6-14.09-11.77-19.14-14.77l.19-9.27Z" fill="#ffae75"/>
                    <path id="Trazado_129949" data-name="Trazado 129949" d="M263.33,275.14c2.08,2.56,9.37,2.56,12.5.51L277,261.47c.4-6.21-1-10.9-6.25-12.41C262.69,252.64,261.62,262.61,263.33,275.14Z" fill="#fff"/>
                  </g>
                  <path id="Trazado_129950" data-name="Trazado 129950" d="M314,296.19c-9.15-6.88-18.27-13.63-26.21-14.87l.06-.23.67-2.56,2.39-9.14c3-1.79,4.32-4.56,5.44-8.38.4-1.38.78-2.9,1.22-4.57.17-.64.34-1.31.53-2l.69,1.31.66,1.22c.78,6.54,6.16,14.7,12.32,23.15-4.45-3.85-6.1-6.19-10.39-11.35l-3.53-5.43c-.38,1.15-.8,2.26-1.27,3.35-2.14,4.92-3.69,5.94-4.47,7.81a8.6,8.6,0,0,0-.5,3.91C297.49,280.82,300.72,282.92,314,296.19Z" opacity="0.1"/>
                  <path id="Trazado_129951" data-name="Trazado 129951" d="M293.49,247.93c-.51,2.95-1.18,8.51-5.17,9.41-3.44,0-7.45-8.59-6.14-11.77l-.07-3.74Z" opacity="0.1"/>
                  <path id="Trazado_129952" data-name="Trazado 129952" d="M287.56,225.84c-5.47,0-8.59,2.71-8.8,8.61.16,6.2,2.23,11.24,7.05,14.61a9.39,9.39,0,0,0,7.68,2.33c3.33.13,3.91-8.14,4.39-14.1C297.53,231,293.71,227.48,287.56,225.84Z" fill="#ffae75"/>
                  <path id="Trazado_129953" data-name="Trazado 129953" d="M297.88,234.9c-1.24,3-6.63,5.18-12.07,3.77l-.62,4.91-2.36-1.23-2.18,2.42-.81-1.19c-4.08-8.32-2.88-14.43,3.37-17.74C291.35,222.62,299.55,230.45,297.88,234.9Z"/>
                  <path id="Trazado_129954" data-name="Trazado 129954" d="M282.06,244.46a4.74,4.74,0,0,1-1.32-1.6,2.28,2.28,0,0,1,0-2,1.53,1.53,0,0,1,1.77-.76,1.73,1.73,0,0,1,.94,1,5,5,0,0,1,.23,1.43c0,.44.05.88.07,1.32a1.11,1.11,0,0,1-.18.86.74.74,0,0,1-.77.17,2.11,2.11,0,0,1-.74-.42Z" fill="#ffae75"/>
                </g>
                <g id="Grupo_61749" data-name="Grupo 61749">
                  <path id="Trazado_129955" data-name="Trazado 129955" d="M306.68,304.15a1.08,1.08,0,0,1-1.48-.15l-1.62-2.19-3-2.56-.17-.14,1.73-1.2,2.65,2.14,2.1,3.6a.54.54,0,0,1-.21.5Z" fill="#ffae75"/>
                  <path id="Trazado_129956" data-name="Trazado 129956" d="M306.68,304.15a1.08,1.08,0,0,1-1.48-.15l-1.62-2.19-3-2.56.19-.13,3.06,1.66C304.63,302.4,305.5,304.11,306.68,304.15Z" fill="#1d1d1b" opacity="0.1"/>
                  <path id="Trazado_129957" data-name="Trazado 129957" d="M305.39,305.52a1.1,1.1,0,0,1-1.42-.2l-1.62-2.19-3.21-2.7,1.42-1.45,3,2.39,2.11,3.6a.55.55,0,0,1-.28.55Z" fill="#ffae75"/>
                  <path id="Trazado_129958" data-name="Trazado 129958" d="M304.3,296.33a1.37,1.37,0,0,1-.94.85,10.09,10.09,0,0,1-3.75.73l-.82.21-2.18.53-.83-2.37-.15-.44-.59-.43,2.63.11a14.389,14.389,0,0,0,5.95-.18.68.68,0,0,1,.68.99Z" fill="#ffae75"/>
                  <path id="Trazado_129959" data-name="Trazado 129959" d="M304.3,296.33a1.37,1.37,0,0,1-.94.85,10.09,10.09,0,0,1-3.75.73l-.82.21-3-1.84-.74-.45h.59C298.93,296,301.87,297.3,304.3,296.33Z" fill="#1d1d1b" opacity="0.1"/>
                  <path id="Trazado_129960" data-name="Trazado 129960" d="M302.1,297.91l-4,3.75-1.21,1.14-.28.27c-2.45,0-4.3-1.93-5.39-3.91l-2.19-1a3.75,3.75,0,0,1,.59-2.08c.84-1.39,1.74-2.49,2.72-2,1.2,1.07,3.49,1.59,5.19,1.86a14.25,14.25,0,0,1,4.57,1.97Z" fill="#ffae75"/>
                  <path id="Trazado_129961" data-name="Trazado 129961" d="M305.39,305.52a1.1,1.1,0,0,1-1.42-.2l-1.62-2.19-3.21-2.7.25-.25,3,2.16c.85,1.61,1.82,3.12,3,3.16Z" fill="#1d1d1b" opacity="0.1"/>
                  <path id="Trazado_129962" data-name="Trazado 129962" d="M303.61,306.53a.51.51,0,0,1-.24.49,1.08,1.08,0,0,1-1.44-.32l-1.37-2.35-2.62-2.76-.27-.28,1.56-1.28,2.69,2.7Z" fill="#ffae75"/>
                  <path id="Trazado_129963" data-name="Trazado 129963" d="M303.37,307a1.08,1.08,0,0,1-1.44-.32l-1.37-2.35-2.62-2.76c.06-.07,2.82,2.18,2.82,2.18C301.61,305.39,302.2,307,303.37,307Z" fill="#1d1d1b" opacity="0.1"/>
                  <path id="Trazado_129964" data-name="Trazado 129964" d="M301.13,306.7a.5.5,0,0,1-.22.47,1,1,0,0,1-1.35-.24l-1.39-2.15-1.53-1.71-.77-.86-.23-.26,1.66-1.32.83,1,1.24,1.55Z" fill="#ffae75"/>
                  <path id="Trazado_129965" data-name="Trazado 129965" d="M300.91,307.17a1,1,0,0,1-1.35-.24l-1.39-2.15-1.53-1.71c-2.45,0-4.3-1.93-5.39-3.91l-2.19-1c1.47.35,1.47.35,2.59.67,1.31,1.87,2.69,3.21,4.22,3.42a4.412,4.412,0,0,0,.52,0l.53.56,1.59,1.72C299.36,306.13,299.73,307.14,300.91,307.17Z" fill="#1d1d1b" opacity="0.1"/>
                </g>
                <g id="Grupo_61750" data-name="Grupo 61750">
                  <path id="Trazado_129966" data-name="Trazado 129966" d="M312.12,280.44c.71.63.71.63.86.86l1.08,1.19.29.32,2.46,2.69,5.23-3.41-4.68-2.91-.61-1.46C315.89,277.27,311,279.41,312.12,280.44Z" fill="#ffae75"/>
                  <path id="Trazado_129967" data-name="Trazado 129967" d="M320.1,282.69l3.31,2.4.4,2.41a1.4,1.4,0,0,0,.39.73,1.091,1.091,0,0,0,.4.25.52.52,0,0,0,.55-.32,1.368,1.368,0,0,0,.07-.24c0-.06,0-.13,0-.2l-.44-3.34s-2.6-2.25-2.85-2.35a5.32,5.32,0,0,0-1.59.55l-.23.09Z" fill="#ffae75"/>
                  <path id="Trazado_129968" data-name="Trazado 129968" d="M321.06,282.88l2.52,2.07.39,2.4a9,9,0,0,0,.23.88,1.091,1.091,0,0,0,.4.25.52.52,0,0,0,.55-.32,1.368,1.368,0,0,0,.07-.24,7,7,0,0,1-.92-3Z" fill="#1d1d1b" opacity="0.1"/>
                  <path id="Trazado_129969" data-name="Trazado 129969" d="M318.89,283.37l1.11.9,2.66,2.15.85,2.39a1.31,1.31,0,0,0,1,.86.55.55,0,0,0,.41-.23.9.9,0,0,0,.1-.66l-1-3.49s-3.25-2.78-3.53-2.83S318.89,283.37,318.89,283.37Z" fill="#ffae75"/>
                  <path id="Trazado_129970" data-name="Trazado 129970" d="M319.39,283.42l.61.85,2.66,2.15.85,2.39a1.31,1.31,0,0,0,1,.86.55.55,0,0,0,.41-.23c-.66-.1-1.65-1.9-1.83-3.31Z" fill="#1d1d1b" opacity="0.1"/>
                  <path id="Trazado_129971" data-name="Trazado 129971" d="M317.42,284l1.82,1.61,2.44,2.15L323,290a1.32,1.32,0,0,0,1.15.64.771.771,0,0,0,.3-.2.81.81,0,0,0,0-.78l-1.71-3.2a40.879,40.879,0,0,0-3.63-3.28,9.46,9.46,0,0,0-1.69.82Z" fill="#ffae75"/>
                  <path id="Trazado_129972" data-name="Trazado 129972" d="M318.27,284.33l1,1.31,2.44,2.15L323,290a1.32,1.32,0,0,0,1.15.64,2.409,2.409,0,0,0,.3-.2c-.66.24-2.29-1.65-2.49-3.19Z" fill="#1d1d1b" opacity="0.1"/>
                  <path id="Trazado_129973" data-name="Trazado 129973" d="M316.27,285.1l3.26,3.17,1,2.38a1.32,1.32,0,0,0,1.07.76.55.55,0,0,0,.36-.21.82.82,0,0,0,.07-.72l-1.34-3.38a33.6,33.6,0,0,0-3-3.24c-.19,0-.79.56-1.17.93Z" fill="#ffae75"/>
                  <path id="Trazado_129974" data-name="Trazado 129974" d="M316.27,285.1l3.26,3.17,1,2.38a1.32,1.32,0,0,0,1.07.76.55.55,0,0,0,.36-.21c-.69,0-1.95-1.82-2.14-3.26l-3.29-3.15Z" fill="#1d1d1b" opacity="0.1"/>
                  <path id="Trazado_129975" data-name="Trazado 129975" d="M314.07,281.92v.57a7.46,7.46,0,0,0,.18,2.91,9.89,9.89,0,0,0,1.21,2,8,8,0,0,1,1,2.15,1.29,1.29,0,0,0,.45.77.59.59,0,0,0,.43.07.89.89,0,0,0,.54-.35,1.56,1.56,0,0,0,.17-1.07c-.19-1.2-1.08-2.23-1.26-3.42v-.28a8.812,8.812,0,0,0,0-1.15,2.3,2.3,0,0,0-1-1.46,4.84,4.84,0,0,0-1.27-.57Z" fill="#ffae75"/>
                  <path id="Trazado_129976" data-name="Trazado 129976" d="M313,281.3l1.08,1.19a7.46,7.46,0,0,0,.18,2.91,9.891,9.891,0,0,0,1.21,2,8,8,0,0,1,1,2.15,1.29,1.29,0,0,0,.45.77.59.59,0,0,0,.43.07,2.53,2.53,0,0,1-.38-.58c-.21-.46-.31-1-.52-1.44a21,21,0,0,0-1.37-2.14,5.6,5.6,0,0,1-.74-3.37,5.159,5.159,0,0,1,.13-.77,5.759,5.759,0,0,1,.18-.59,3.22,3.22,0,0,1-1,0C313.39,281.2,313.31,281.44,313,281.3Z" fill="#1d1d1b" opacity="0.1"/>
                </g>
              </g>
              <path id="Trazado_129977" data-name="Trazado 129977" d="M347.36,307.57l-50.71,29.32-5.27-25.1,51.09-29.5Z" fill="#fda551"/>
              <path id="Trazado_129978" data-name="Trazado 129978" d="M332.08,282.45l-50.71,29.32,10.01.02,51.09-29.5Z" fill="#ad5031"/>
            </g>
            <path id="Trazado_129980" data-name="Trazado 129980" d="M291.38,335.62l57.5-33.2-18.17-87.25-57.51,33.2Zm35.43-111.74,14.41,69.24-47.3,27.31L279.5,251.19Z" fill="#6c58b8"/>
            <g id="Grupo_61755" data-name="Grupo 61755">
              <path id="Trazado_129981" data-name="Trazado 129981" d="M387.47,284.53c7.48-4.32,14.63-5,20.12-1.78s8.52,9.67,8.52,18.32c0,8.22-2.75,17.51-7.75,26.17S396.69,342.92,389.57,347c-7.48,4.32-14.63,5-20.12,1.78s-8.52-9.67-8.52-18.32c0-8.22,2.75-17.51,7.75-26.17S380.35,288.64,387.47,284.53Zm24.43,16.54c0-7.08-2.28-12.29-6.41-14.68s-9.79-1.76-15.92,1.78c-6.49,3.75-12.62,10.23-17.25,18.26s-7.18,16.57-7.18,24.06c0,7.08,2.27,12.29,6.41,14.68s9.79,1.76,15.92-1.78c6.49-3.75,12.62-10.23,17.25-18.26S411.9,308.56,411.9,301.07Z" fill="#ad5031"/>
              <path id="Trazado_129982" data-name="Trazado 129982" d="M415.07,301.68c0-16.25-11.41-22.84-25.48-14.71s-25.49,27.89-25.49,44.14,11.41,22.84,25.49,14.71S415.07,317.94,415.07,301.68Z" fill="#fd8f25"/>
              <path id="Trazado_129983" data-name="Trazado 129983" d="M439.33,298.63c-2.28-1.24-4.61-2.42-6.95-3.56-.37-.17-.62-.3-.88-.41-2.5-1.19-4.89-2.27-7.29-3.27-5.33-2.27-10.73-4.26-16.26-6l-36,62.41a172.435,172.435,0,0,0,13.34,11.13c2.2,1.66,4.41,3.24,6.67,4.79l.26.19c2.26,1.53,4.53,3,6.85,4.43q4.245,2.655,8.63,5,3.63,2,7.37,3.79c2.45,1.18,4.91,2.32,7.42,3.39a176.173,176.173,0,0,0,17.24,6.39l36-62.41a178.9,178.9,0,0,0-14.13-11.7q-3.28-2.46-6.67-4.76c-2.29-1.55-4.63-3.06-7-4.51C445.11,301.84,442.25,300.18,439.33,298.63Z" fill="#fd8f25"/>
              <g id="Grupo_61753" data-name="Grupo 61753">
                <ellipse id="Elipse_4283" data-name="Elipse 4283" cx="36.04" cy="20.81" rx="36.04" ry="20.81" transform="translate(421.681 376.533) rotate(-60)" fill="#ff8e61"/>
                <path id="Trazado_129984" data-name="Trazado 129984" d="M430.13,370.45c0-16.9,11.91-37.52,26.54-46a25.119,25.119,0,0,1,12.43-3.76c9.84,0,16.21,8,16.21,20.3,0,16.89-11.91,37.51-26.54,46a25,25,0,0,1-12.43,3.76C436.49,390.74,430.13,382.78,430.13,370.45Zm28.64-42.33c-13.47,7.78-24.43,26.77-24.43,42.33,0,9.92,4.59,16.09,12,16.09a21.319,21.319,0,0,0,10.33-3.2c13.47-7.78,24.43-26.77,24.43-42.32,0-9.93-4.6-16.09-12-16.09a21.16,21.16,0,0,0-10.33,3.19Z" fill="#ad5031"/>
              </g>
              <path id="Trazado_129985" data-name="Trazado 129985" d="M461.6,312.83q-3.28-2.46-6.67-4.76l.28.19a.66.66,0,0,1-.3-.15c-3.34-2.32-7.62-3.06-12.48-2a19.381,19.381,0,0,0-2.05.54,31.118,31.118,0,0,0-6.35,2.83c-7.8,4.5-14.84,12.21-19.94,21.05s-8.27,18.81-8.27,27.8a30.829,30.829,0,0,0,.74,6.91,17.149,17.149,0,0,0,.55,2.05c1.5,4.74,4.29,8.08,8,9.81l.31.13a.66.66,0,0,1-.34-.08c2.45,1.18,4.91,2.32,7.42,3.39a16.69,16.69,0,0,1-9.43-2.12,16.09,16.09,0,0,1-5.36-5.06,20.1,20.1,0,0,1-2.61-5.52,19.272,19.272,0,0,1-.55-2.05,33,33,0,0,1-.79-7.46c0-9.07,3-19.31,8.55-28.85S425.13,312.2,433,307.66a32.869,32.869,0,0,1,6.85-3,17.292,17.292,0,0,1,2.05-.55,20.5,20.5,0,0,1,6.06-.51,16.23,16.23,0,0,1,7.09,2.12A16.64,16.64,0,0,1,461.6,312.83Z" fill="#ad5031"/>
              <path id="Trazado_129986" data-name="Trazado 129986" d="M439.33,298.63c-2.28-1.24-4.61-2.42-6.95-3.56a7.168,7.168,0,0,0-.88-.41c-5.07-2.17-11.54-1.44-18.58,2.64-7.8,4.5-14.85,12.21-20,21s-8.25,18.82-8.25,27.81c0,8.36,2.74,14.41,7.22,17.58l.26.19c2.26,1.53,4.53,3,6.85,4.43a16.22,16.22,0,0,1-7.13-2.12,16.79,16.79,0,0,1-6.64-7.28,28.249,28.249,0,0,1-2.66-12.8c0-9.07,3-19.31,8.53-28.86S404,300,411.86,295.48a28.58,28.58,0,0,1,12.34-4.1,16.88,16.88,0,0,1,9.71,2.11,16.12,16.12,0,0,1,5.42,5.14Z" fill="#ad5031"/>
              <g id="Grupo_61754" data-name="Grupo 61754">
                <path id="Trazado_129987" data-name="Trazado 129987" d="M453.31,371c0-2.52-1.77-3.54-3.94-2.28a8.73,8.73,0,0,0-3.95,6.84c0,2.51,1.77,3.53,3.94,2.27a8.7,8.7,0,0,0,3.95-6.83Z" fill="#fff"/>
                <path id="Trazado_129988" data-name="Trazado 129988" d="M444.72,375.57a9.34,9.34,0,0,1,4.3-7.44,4.21,4.21,0,0,1,2.11-.64c1.72,0,2.88,1.42,2.88,3.52a9.36,9.36,0,0,1-4.29,7.44,4.26,4.26,0,0,1-2.12.63C445.88,379.08,444.72,377.67,444.72,375.57Zm5-6.23a8.1,8.1,0,0,0-3.6,6.23c0,1.32.56,2.11,1.48,2.11a3,3,0,0,0,1.42-.44,8.11,8.11,0,0,0,3.59-6.23c0-1.32-.55-2.12-1.48-2.12A2.93,2.93,0,0,0,449.72,369.34Z" fill="#ad5031"/>
              </g>
            </g>
          </g>
          <g id="Grupo_61765" data-name="Grupo 61765">
            <g id="Grupo_61757" data-name="Grupo 61757">
              <path id="Trazado_129989" data-name="Trazado 129989" d="M202,120.72a6.151,6.151,0,0,0-1.05.46l-1.16.56a23.363,23.363,0,0,0-2.8,1.66,10.558,10.558,0,0,0-1.11.9c-.16.16-.3.31-.43.46a6.71,6.71,0,0,1-1-.57,6.85,6.85,0,0,1-2.42-3.43l-1.45-1.3c-.63-1.81,1.81-4.52,3.38-4.16l2.79,1.89,4.31,2.91.75.51Z" fill="#ffae75"/>
              <path id="Trazado_129990" data-name="Trazado 129990" d="M200.86,130a.63.63,0,0,1-.35.16c-.94.11-1.48-1.9-1.76-3.59a8.14,8.14,0,0,1-1.79-2.67c-.14-.3-.26-.61-.38-.92l2-.72,1.94,3.52C201.07,127.51,201.46,129.44,200.86,130Z" fill="#ffae75"/>
              <path id="Trazado_129991" data-name="Trazado 129991" d="M197.49,130c-1,0-.59-1.8-.72-3.32a7.6,7.6,0,0,1-1.3-2c-.11-.24-.22-.49-.31-.75s-.09-.3-.14-.46l1.83-.5.16.35,1.31,2.91C198.73,128,198.53,130.05,197.49,130Z" fill="#ffae75"/>
              <path id="Trazado_129992" data-name="Trazado 129992" d="M203.22,128.82c-.84.44-1.8-1.61-2.37-3.23a8.78,8.78,0,0,1-2.59-2.84l-.18-.3,1.84-1.07,2.54,3.13C203.37,126.18,204.18,128.31,203.22,128.82Z" fill="#ffae75"/>
              <path id="Trazado_129993" data-name="Trazado 129993" d="M205.77,126.66a.79.79,0,0,1-.21.24c-.75.54-2-1.34-2.8-2.86a8.34,8.34,0,0,1-2.95-2.3l-.17-.19a6.07,6.07,0,0,1,.7-.73l.77-.72.1-.09.65.6.14.12,1,.88,1.24,1.13C205.23,124.12,206.25,125.85,205.77,126.66Z" fill="#ffae75"/>
              <path id="Trazado_129994" data-name="Trazado 129994" d="M202.71,121.66a3.46,3.46,0,0,1-1.88-.4c-.18-.09-.37-.2-.6-.34l-.51-.29c-2.54.52-5.45-.33-4.21-3.39a11.689,11.689,0,0,0,1.36.23l4.18,2.69Z" fill="#1d1d1b" opacity="0.1"/>
              <path id="Trazado_129995" data-name="Trazado 129995" d="M195.7,116.44a13.09,13.09,0,0,0,3.58.32,1.61,1.61,0,0,1,1.27.48,6.65,6.65,0,0,0,4.5,2.3c.51.9-.47,1.57-1.57,1.57-1.7,0-1.84-.26-3.34-1.09C197.47,120.56,192.62,120.8,195.7,116.44Z" fill="#ffae75"/>
              <path id="Trazado_129996" data-name="Trazado 129996" d="M202.86,123.46a5.38,5.38,0,0,1-2.79-2.39.23.23,0,0,0-.1-.12c-1.13,1.38-3.53,2.78-4.63,2.51s-2-1.35-2.56-2.95l-1.75-.88,1.37,1.23a6.41,6.41,0,0,0,2.37,3.31l.17.11.29.17.38.21a7.14,7.14,0,0,0,1.24,1.85c.12,1.44-.25,3.14.68,3.15-.31-.27-.4-1.41-.31-3.31a4.71,4.71,0,0,1-1.09-1.78,6,6,0,0,0,1-.55,7.68,7.68,0,0,0,1.62,2.35c.26,1.61.78,3.51,1.67,3.41a.63.63,0,0,0,.34-.15c-1-.55-1.48-1.92-1.7-3.6a4.84,4.84,0,0,1-1.73-2.14c.38-.25.77-.55,1.14-.85a8.33,8.33,0,0,0,2.27,2.41c.54,1.53,1.45,3.47,2.25,3-.91-.51-1.36-2-2.07-3.62l-2.19-2.06a10,10,0,0,0,1-1,8.25,8.25,0,0,0,2.79,2.17c.76,1.44,1.95,3.23,2.66,2.71a.83.83,0,0,0,.2-.22C204.2,126.48,203.37,125,202.86,123.46Z" fill="#1d1d1b" opacity="0.1"/>
            </g>
            <path id="Trazado_129997" data-name="Trazado 129997" d="M183.73,105s8,6.69,10.74,8.74c5.9,4.33,2.85,12.91-3.72,9.79-10.11-4.8-15.31-9.11-17.1-12.42-2.4-9-3.65-25.72-.3-36.37C185.26,72.64,183.71,93.08,183.73,105Z" fill="#fff"/>
            <path id="Trazado_129998" data-name="Trazado 129998" d="M148.07,196.49l-4.32,6.33,1.58,7c3.07,2.64,4.47,4.61,3.65,6.36-1.85,1.9-4.51,2.1-7.44,1.59-5.27-.34-8.9-10.39-10.66-15.8a10,10,0,0,1,4-4.87l4.4-6.81Z"/>
            <path id="Trazado_129999" data-name="Trazado 129999" d="M180.54,213l1.66,8.43a12.91,12.91,0,0,0,6.37,5.09c3.46.66,5.87,1.48,6.85,3.32a3.32,3.32,0,0,1-.4,3.51c-1.09,1.44-2.52,2.43-5.76,2.43-6.3-.5-14.84-1.73-17.06-3.82a15.92,15.92,0,0,1-.38-7.57l-2.14-8.94Z"/>
            <path id="Trazado_130000" data-name="Trazado 130000" d="M176.3,139.41l-7.37,31.13L149.77,198c-3.13,4.24-15.78-1.35-13-8.65l16.45-27.82,6.64-30.59,16.39-4.79Z" fill="#8a2f4e"/>
            <path id="Trazado_130001" data-name="Trazado 130001" d="M149,155.07l11.24,26.16,7.87,38.25a2.2,2.2,0,0,0,.18.28c2.56,3.55,15.4,1.57,15.4-3.77l-7.06-40.84-10.15-30c4.93-2.5,9.34-3.89,9.78-10.92l-24,.87-6.57.24C143.76,142.41,145.6,150.85,149,155.07Z" fill="#ef2a66"/>
            <path id="Trazado_130002" data-name="Trazado 130002" d="M142.86,104.12a146.431,146.431,0,0,0,2.86,31.24,53.669,53.669,0,0,0,5.76,1,61.2,61.2,0,0,0,24.82-2.12l2.31-39.73c3-15.49-2.18-19.12-5.26-19.78a15,15,0,0,0-5.71,0,79.115,79.115,0,0,0-9.13,2.09c-1,.29-1.94.6-2.86.93a39.62,39.62,0,0,0-6.85,3.14,25.08,25.08,0,0,0-5.35,4.16C143.08,91.82,142.87,98.14,142.86,104.12Z" fill="#ef2a66"/>
            <path id="Trazado_130003" data-name="Trazado 130003" d="M156.93,101.64c7.35-1.21,13.2-3.26,17.28-5.61.79-9.54,2.28-17.83-4.73-20.74a9.68,9.68,0,0,0-4.57,0,38.648,38.648,0,0,0-6.4,1.58l-2.86.93a39.62,39.62,0,0,0-6.85,3.14C154,83.44,157.64,92,156.93,101.64Z" fill="#fff"/>
            <path id="Trazado_130004" data-name="Trazado 130004" d="M145.72,135.36c-2,7-.12,15.49,3.32,19.71l11.24,26.16,7.87,38.25a2.2,2.2,0,0,0,.18.28c-2.16-17.51-5.8-35-4-41.86-5.89-7.58-11.22-15-11.15-25.71-3.69-2.47-4.28-11-1.7-15.82a7.888,7.888,0,0,1,.81-1.25,5.369,5.369,0,0,1,.37-.44c-6.51-5.4-4-21.23-1-34.07l-8.75,3.51a146.431,146.431,0,0,0,2.81,31.24Z" opacity="0.15"/>
            <g id="Grupo_61761" data-name="Grupo 61761">
              <g id="Grupo_61759" data-name="Grupo 61759">
                <g id="Grupo_61758" data-name="Grupo 61758">
                  <path id="Trazado_130005" data-name="Trazado 130005" d="M157.83,73.06a5.438,5.438,0,0,1,0,.64c0,.54-.08,1.32-.14,2.1s-.13,1.27-.18,1.79-.05.8-.07,1c0,1.69,1.4,2.74,2.55,3.45,2.14,1.32,5.74,2.66,7.62,1.59a1.251,1.251,0,0,0,.22-.16,1.21,1.21,0,0,0,.2-.19.51.51,0,0,0,.17-.2l.15-.2a2.25,2.25,0,0,0,.27-.57c.06-.4.34-1.81.42-2.31l.39.08a3.29,3.29,0,0,0,2.62-.61,1.67,1.67,0,0,0,.4-.36,7.31,7.31,0,0,0,1.48-3c.18-.59.34-1.16.49-1.75a.27.27,0,0,0,0-.13c.26-1,.5-1.94.71-2.93a61.487,61.487,0,0,0,1.05-6.75c.24-2.41.27-5.06-1.18-7a6.839,6.839,0,0,0-.48-.51A10,10,0,0,0,171,54.82c-3-1.2-6.37-1.57-9.18-.06-1.94,1-2.88,2.59-3.87,4.74s-1,5-1,7.17C157.08,70.91,157.56,70.42,157.83,73.06Z" fill="#ffae75"/>
                  <path id="Trazado_130006" data-name="Trazado 130006" d="M169,80c-.07.51-.37,1.91-.43,2.32a2.18,2.18,0,0,1-1,1.3,6,6,0,0,1-.61-.1,7.94,7.94,0,0,1-6.07-9A10.61,10.61,0,0,0,167,79.4C167.74,79.61,168.3,79.75,169,80Z" fill="#1d1d1b" opacity="0.1"/>
                </g>
                <path id="Trazado_130007" data-name="Trazado 130007" d="M173.45,57.06A1.59,1.59,0,0,1,172.1,59a3.66,3.66,0,0,1-2.52-.73,9.4,9.4,0,0,0-2.31-1.34c-2.24-.67-4.59,1.11-5.39,3.29s-.46,4.59-.09,6.88c-.6,0-1-.58-1.31-1.06s-1-1-1.48-.53a1,1,0,0,0-.24.73,12.911,12.911,0,0,0,.15,3.17,2.26,2.26,0,0,0,.47,1.18.89.89,0,0,0,1.13.25,2.71,2.71,0,0,1-2.38,2.86.82.82,0,0,1-.31,0v-.65c-.27-2.63-.74-2.15-.88-6.39-.07-2.19,0-5.17,1-7.18s1.93-3.68,3.87-4.73c2.81-1.5,6.2-1.14,9.18.05a9.43,9.43,0,0,1,3.93,2.56,1.35,1.35,0,0,0-1.47-.3Z"/>
              </g>
              <path id="Trazado_130008" data-name="Trazado 130008" d="M160.67,62.33a16.19,16.19,0,0,0,4,8.26,6.8,6.8,0,0,0,4,2.44c2.26.31,4.33-1.16,6.52-1.8a61.487,61.487,0,0,0,1.05-6.75c.24-2.41.27-5.06-1.18-7a6.838,6.838,0,0,0-.48-.51Q167.53,59.49,160.67,62.33Z" opacity="0.1"/>
              <g id="Grupo_61760" data-name="Grupo 61760">
                <path id="Trazado_130009" data-name="Trazado 130009" d="M157.31,60.05v1.23l.29.42c.3.41.61.78.93,1.14a12.779,12.779,0,0,0,1.6,1.45c.19.14.39.27.59.4l.35.22.23.13a4.39,4.39,0,0,0,.61.31,5.25,5.25,0,0,0,.55.25,1.68,1.68,0,0,0,.35.14,1.54,1.54,0,0,0,.3.11.38.38,0,0,0,.15.05l.36.12.32.09h.2c.27.07.54.13.82.18h.16l.5.08c1.18-.7,2.26-1.34,3.32-1.89a24,24,0,0,1,6.43-2.41l1-.15-.22-2.78-.15-1.9a3.77,3.77,0,0,0-1.43-2.7c-4.4-3.41-9.17-3.88-14.38-.87a7.67,7.67,0,0,0-2.88,6.38Z" fill="#ef2a66"/>
                <path id="Trazado_130010" data-name="Trazado 130010" d="M161.38,65.06s4.83,3.2,7.24,5c1,.79,2.85,1.29,4.09.3l.23-.17a13.47,13.47,0,0,1,3.84-1.8h.12a12.891,12.891,0,0,1,3.22-.56,5.44,5.44,0,0,1,2.39.39c.15.06.25-.17.14-.29-.81-.84-3.12-2.9-3.85-3.67A21.6,21.6,0,0,0,176.45,62C171.69,59.09,164,65.34,161.38,65.06Z" fill="#8a2f4e"/>
              </g>
            </g>
            <g id="Grupo_61763" data-name="Grupo 61763">
              <g id="Grupo_61762" data-name="Grupo 61762">
                <path id="Trazado_130011" data-name="Trazado 130011" d="M178.92,141.67l-25.06-14.46V101.14l25.06,14.47Z" fill="#bb9d5f"/>
                <path id="Trazado_130012" data-name="Trazado 130012" d="M176.7,121v-4.82l-4.41-2.55v4.83a4.85,4.85,0,0,0,1.86,3.52v3.35l-1.48-.86v.79l3.64,2.1v-.78l-1.48-.86V122.4C175.88,122.82,176.7,122.29,176.7,121Z" fill="#393c39" opacity="0.5"/>
              </g>
              <path id="Trazado_130013" data-name="Trazado 130013" d="M203.97,127.21l-25.05,14.46V115.61l25.05-14.47Z" fill="#edca83"/>
              <path id="Trazado_130014" data-name="Trazado 130014" d="M178.92,86.68l-25.06,14.46,25.06,14.47,25.05-14.47Z" fill="#ffe1a3"/>
            </g>
            <path id="Trazado_130015" data-name="Trazado 130015" d="M152.46,105.45l-2.33,11.27s12.24,8.63,15.78,12.14-.57,9.9-5.24,7.92c-11.13-4.71-21-10.6-22.3-14.13-1.05-9.28.2-27.55,5.08-37.59C147.44,82.42,152.46,93.17,152.46,105.45Z" fill="#fff"/>
            <g id="Grupo_61764" data-name="Grupo 61764">
              <path id="Trazado_130016" data-name="Trazado 130016" d="M165.12,130a1.82,1.82,0,0,1,.94-.07l2.21.67.54.18,4.54,1.56L172,140.4l-5.11-3.57-2.78-1.36C163.1,134.68,163.2,130.63,165.12,130Z" fill="#ffae75"/>
              <path id="Trazado_130017" data-name="Trazado 130017" d="M171.68,137.75l4.65,2.73,3.11-.79a2,2,0,0,1,1.09.08,1.49,1.49,0,0,1,.51.36.66.66,0,0,1-.1.83,1.381,1.381,0,0,1-.25.21,1.572,1.572,0,0,1-.23.13l-4.25,1.23s-4.09-1.95-4.34-2.2a7.05,7.05,0,0,1-.18-2.21c0-.16,0-.28,0-.33Z" fill="#ffae75"/>
              <path id="Trazado_130018" data-name="Trazado 130018" d="M172.42,138.81l3.83,1.94,3.1-.79c.31-.05.76-.15,1.18-.19a1.49,1.49,0,0,1,.51.36.66.66,0,0,1-.1.83,1.379,1.379,0,0,1-.25.21c-.8-.28-2.65.05-4.14.49Z" fill="#1d1d1b" opacity="0.1"/>
              <path id="Trazado_130019" data-name="Trazado 130019" d="M171.87,135.93l1.67.86,4,2.08,3.33-.24a1.75,1.75,0,0,1,1.56.75.74.74,0,0,1-.06.62,1.23,1.23,0,0,1-.75.47l-4.75.61s-5.06-2.47-5.27-2.77a7.829,7.829,0,0,1,.27-2.38Z" fill="#ffae75"/>
              <path id="Trazado_130020" data-name="Trazado 130020" d="M172.2,136.51l1.34.28,4,2.08,3.33-.24a1.75,1.75,0,0,1,1.56.75.74.74,0,0,1-.06.62c-.47-.75-3.17-1-5-.47Z" fill="#1d1d1b" opacity="0.1"/>
              <path id="Trazado_130021" data-name="Trazado 130021" d="M171.9,133.8l2.9,1.36,3.87,1.8,3.4.38a1.79,1.79,0,0,1,1.38,1,1.091,1.091,0,0,1,0,.18.64.64,0,0,1-.07.28c-.13.24-.41.4-.94.44l-4.76-.37s-5.73-2.31-5.87-2.66A13,13,0,0,1,171.9,133.8Z" fill="#ffae75"/>
              <path id="Trazado_130022" data-name="Trazado 130022" d="M172.7,134.68l2.1.48,3.87,1.8,3.4.38a1.79,1.79,0,0,1,1.38,1,1.087,1.087,0,0,1,0,.18l-.07.28c-.06-.91-3.21-1.89-5.16-1.32Z" fill="#1d1d1b" opacity="0.1"/>
              <path id="Trazado_130023" data-name="Trazado 130023" d="M172.57,131.85l5.55,2.27h3.42a1.73,1.73,0,0,1,1.48.9.71.71,0,0,1-.07.54,1.12,1.12,0,0,1-.83.46l-4.78.16s-5.3-1.57-5.49-1.89a5.14,5.14,0,0,1,.51-1.91Z" fill="#ffae75"/>
              <path id="Trazado_130024" data-name="Trazado 130024" d="M172.57,131.85l5.55,2.27h3.42a1.73,1.73,0,0,1,1.48.9.71.71,0,0,1-.07.54c-.37-.83-3.22-1.4-5.06-.87l-5.53-2.31Z" fill="#1d1d1b" opacity="0.1"/>
              <path id="Trazado_130025" data-name="Trazado 130025" d="M167.59,130.87l.68-.31a9.91,9.91,0,0,1,3.61-1.32,13.25,13.25,0,0,1,3,.44,10.66,10.66,0,0,0,3.14.11,1.72,1.72,0,0,1,1.17.13.88.88,0,0,1,.31.5,1.13,1.13,0,0,1-.14.82,2,2,0,0,1-1.2.77c-1.55.41-3.26-.12-4.79.29l-.36.11a14.13,14.13,0,0,1-1.39.59,3,3,0,0,1-2.29-.46A6.16,6.16,0,0,1,168,131.3Z" fill="#ffae75"/>
              <path id="Trazado_130026" data-name="Trazado 130026" d="M165.12,130a1.82,1.82,0,0,1,.94-.07l2.21.67a9.91,9.91,0,0,1,3.61-1.32,13.25,13.25,0,0,1,3,.44,10.66,10.66,0,0,0,3.14.11,1.72,1.72,0,0,1,1.17.13.88.88,0,0,1,.31.5,2.7,2.7,0,0,0-.9-.16c-.67,0-1.34.13-2,.13a26.818,26.818,0,0,1-3.31-.53,7.4,7.4,0,0,0-4.45.88,7,7,0,0,0-.86.56,6.42,6.42,0,0,0-.63.54,1.27,1.27,0,0,0-.48-1,3.35,3.35,0,0,0-1-.56Z" fill="#1d1d1b" opacity="0.1"/>
            </g>
          </g>
          <g id="Grupo_61774" data-name="Grupo 61774">
            <path id="Trazado_130027" data-name="Trazado 130027" d="M53.47,126.85c3.54,5.65.33,11.27,2.67,14.63,1.43,2.09.46,6.57,2.33,8.91l3.16,3.08c4.73,4.48,3.27,2.5,10.68,7.62a1.8,1.8,0,0,0,1.54.17c2.15-.57,4.86-3.68,3.59-5.55-3-4.79-6.82-10.19-7.65-11.72-4-7.33-1.12-20.35-4.22-23.89C57.78,111.19,46.63,116.32,53.47,126.85Z" fill="#ef2a66"/>
            <path id="Trazado_130028" data-name="Trazado 130028" d="M61.63,153.47c4.73,4.48,3.27,2.5,10.68,7.62a1.8,1.8,0,0,0,1.54.17l-.64-2.34a38.22,38.22,0,0,1-6.57-12.68c-.54-7.26-1.34-13.94-3.78-16.9Z" opacity="0.1"/>
            <path id="Trazado_130029" data-name="Trazado 130029" d="M53,243.34l-.66,6c-.91,1.65-1.24,4.2-1.31,7,1,2.44,13,7.93,16.21,7.86,6,0,5.83-5.26,3.94-6.57-6.37-4.43-8.29-7.72-8.29-7.72l.52-6.6Z" fill="#2f2b3d"/>
            <g id="Grupo_61766" data-name="Grupo 61766">
              <path id="Trazado_130030" data-name="Trazado 130030" d="M63.14,177.43,66,205.21c.15,5.49.35,11.13.49,16.4,0,1.43.06,2.83.09,4.19v6.71c0,5.58-.27,10.06-1,12.48-.9,3.38-14.47,3.37-15-1.56-.19-3.14-.39-6.28-.54-9.37-.07-1.29-.13-2.56-.18-3.82,0-1-.07-1.91-.1-2.84,0-1.26,0-2.49-.06-3.71a68.17,68.17,0,0,1,1.39-16,98.7,98.7,0,0,1-3.73-26.12Z" fill="#232246"/>
              <path id="Trazado_130031" data-name="Trazado 130031" d="M63.14,177.43,66,205.21c.15,5.49.35,11.13.49,16.4,0,1.43.06,2.83.09,4.19v6.71c0,5.58-.27,10.06-1,12.48-.9,3.38-14.47,3.37-15-1.56-.19-3.14-.39-6.28-.54-9.37-.07-1.29-.13-2.56-.18-3.82,0-1-.07-1.91-.1-2.84,0-1.26,0-2.49-.06-3.71a68.17,68.17,0,0,1,1.39-16,98.7,98.7,0,0,1-3.73-26.12Z" fill="#8a2f4e"/>
            </g>
            <path id="Trazado_130032" data-name="Trazado 130032" d="M47.48,278.91c-2.33,0-9.32-2.86-13.34-5.37a8,8,0,0,1-2.86-2.49c.07-2.82.4-5.36,1.32-7l.5-4.55.15-1.48h10.4l-.23,3-.28,3.6s1.92,3.3,8.3,7.73C53.33,273.65,53.48,278.91,47.48,278.91Z" fill="#2f2b3d"/>
            <path id="Trazado_130033" data-name="Trazado 130033" d="M63.71,182c-.73,5.21-4.57,7.85-9.48,9.49L50,220c-.39,5.46-.78,11.09-1.18,16.37-.12,1.42-.24,2.82-.33,4.18-.06.79-.15,1.61-.21,2.39-.12,1.49-.28,2.91-.43,4.28-.27,2.75-.6,5.24-1,7.36a26.15,26.15,0,0,1-1.24,4.94A2.94,2.94,0,0,1,43.44,261a16.18,16.18,0,0,1-8-.48,9.849,9.849,0,0,1-2.34-1,3.75,3.75,0,0,1-2.15-3c.12-3.15.24-6.3.4-9.4.06-1.27.15-2.54.24-3.81,0-.94.12-1.91.18-2.82.09-1.27.18-2.52.33-3.7.58-6.09,1.46-11.54,3-15.79-1.57-9.18-.84-19.06,0-27.45a31.57,31.57,0,0,1-1.15-14c.12-.91.28-1.85.49-2.82l.42-.09.85-.21,3.94-1,22.15-5.55,1.21-.3.46-.12c.06.93.09,1.84.09,2.75C63.59,175.26,63.56,178.29,63.71,182Z" fill="#ef2a66"/>
            <path id="Trazado_130034" data-name="Trazado 130034" d="M63.59,172a.22.22,0,0,1-.06.18C62,176.51,50.44,181,41.86,181.29c-3.39.13-6.27-.39-7.94-1.78-.09-.94,0-3.22,0-3.76v-.12a10.14,10.14,0,0,0,1.76.76,17.2,17.2,0,0,0,4.73.69c7,.21,16.33-2.63,21.36-7.24a15.85,15.85,0,0,0,1.79-2,4.5,4.5,0,0,1,0,.64C63.68,169.84,63.53,170.9,63.59,172Z" fill="#ef2a66"/>
            <path id="Trazado_130035" data-name="Trazado 130035" d="M64.11,166.32a5,5,0,0,1-.52,2.16,5.17,5.17,0,0,1-.61,1.06c-3.63,5-15,7.94-22.3,8.09a22.269,22.269,0,0,1-3.33-.18,7.28,7.28,0,0,1-2.52-.85,3.71,3.71,0,0,1-.91-.85c-1-1.24-1.3-3.18-1.69-6.12-.43-3.94-.79-7.55-1.1-10.85-1.39-15.37-1.48-24.12-1.12-27.43,3.31-3.91,9-8,13.79-11,6.49-2.91,12.27-4.7,15.7-4.3C68.83,117.11,64.11,166.32,64.11,166.32Z" fill="#ef2a66" stroke="#b3204d" stroke-miterlimit="10" stroke-width="1"/>
            <path id="Trazado_130036" data-name="Trazado 130036" d="M40.92,216.08a14,14,0,0,1,.18,3,13.84,13.84,0,0,1-1.24,4.25c-2.82,6.88-5.48,14-5.39,21.45,0,2.61.42,5.21.63,7.79.16,1.82.28,3.61.34,5.39v2.52a75.139,75.139,0,0,1-1.31,13A8.13,8.13,0,0,1,31.29,271c.06-2.82.39-5.37,1.3-7l.51-4.58a3.75,3.75,0,0,1-2.15-3c.12-3.15.24-6.3.4-9.4.06-1.27.15-2.54.24-3.81,0-.94.12-1.91.18-2.82.09-1.27.18-2.52.33-3.7.58-6.09,1.46-11.54,3-15.79-1.57-9.18-.84-19.06,0-27.45a31.57,31.57,0,0,1-1.15-14c-.09-.94,0-3.22,0-3.76-1-1.24-1.3-3.18-1.69-6.12-.43-3.94-.79-7.55-1.1-10.85.13-.4.25-.79.37-1.15,1.79-5.94,5.54-13.91,7.36-19.85.37,7,2.42,10.95,3.74,17.93,1.25,6.58,16.74,13.92,11,21C35.17,177.74,40,209,40.92,216.08Z" opacity="0.1"/>
            <path id="Trazado_130037" data-name="Trazado 130037" d="M26.27,137.46c-2.12,7.92-3.52,15.5-4.58,20.84l11.86,3.42c2.47-7.27,5.09-14.45,5.59-18.73C40.39,131.23,29.4,125.27,26.27,137.46Z" fill="#ef2a66"/>
            <path id="Trazado_130038" data-name="Trazado 130038" d="M53,171.06c-.32,2.7-3,4.33-3,4.33-2.4.62-5,.14-8-1a158.742,158.742,0,0,1-18.19-9.85c-2.3-1.73-3.3-5-1.67-7.37,6.05-8.85,11.32-2.16,25.5,8.83C50.74,169.11,53.18,169.28,53,171.06Z" fill="#ef2a66"/>
            <path id="Trazado_130039" data-name="Trazado 130039" d="M43.56,121l2-10,12.07,5.17L56,123.37C53.89,131.12,41.84,127,43.56,121Z" fill="#ffae75"/>
            <path id="Trazado_130040" data-name="Trazado 130040" d="M57.63,119.74c-.52,3-1.2,8.68-5.27,9.59-3.51,0-7.6-8.76-6.26-12l-.1-3.82Z" opacity="0.1"/>
            <path id="Trazado_130041" data-name="Trazado 130041" d="M51.58,97.2c-5.57,0-8.76,2.77-9,8.78.16,6.33,2.28,11.47,7.2,14.91a9.57,9.57,0,0,0,7.83,2.38c3.4.13,4-8.31,4.48-14.39C61.75,102.47,57.86,98.88,51.58,97.2Z" fill="#ffae75"/>
            <path id="Trazado_130042" data-name="Trazado 130042" d="M62.11,106.44c-1.26,3.07-6.76,5.29-12.31,3.84l-.63,5L46.76,114l-2.22,2.47-.83-1.21c-4.17-8.49-2.94-14.72,3.43-18.1C55.45,93.91,63.81,101.91,62.11,106.44Z"/>
            <path id="Trazado_130043" data-name="Trazado 130043" d="M46,116.2a5,5,0,0,1-1.36-1.63,2.35,2.35,0,0,1,0-2.07,1.54,1.54,0,0,1,1.8-.77,1.74,1.74,0,0,1,1,1.06,5.07,5.07,0,0,1,.23,1.46,7.536,7.536,0,0,0,.08,1.34,1.19,1.19,0,0,1-.18.88.76.76,0,0,1-.79.17A2,2,0,0,1,46,116.2Z" fill="#ffae75"/>
            <path id="Trazado_130044" data-name="Trazado 130044" d="M123.84,311.38l-5.94,3.43-1.98-18.5,9.89-5.71Z" fill="#2f2b3d"/>
            <path id="Trazado_130045" data-name="Trazado 130045" d="M137.18,286l-35.82-20.75v-70.1a18.751,18.751,0,0,0-2.44-9.251L84.29,160.17c-.67-1.18-1.77-1.82-2.45-1.45s-.7,1.64,0,2.82l13.3,23.39a21.27,21.27,0,0,1,2.79,10.54v84a4,4,0,0,0,1.31,3c1.14,1,2.15.56,2.15-.7v-12.5l36.1,20.92c1.09.63,1.95-.05,1.68-1.51a3.94,3.94,0,0,0-1.99-2.68Z" fill="#2f2b3d"/>
            <rect id="Rectángulo_7206" data-name="Rectángulo 7206" width="35.95" height="4" transform="translate(50.674 176.888) rotate(-30)" fill="#2f2b3d"/>
            <rect id="Rectángulo_7207" data-name="Rectángulo 7207" width="36.074" height="4.014" transform="translate(68.176 224.365) rotate(-29.887)" fill="#454342"/>
            <rect id="Rectángulo_7208" data-name="Rectángulo 7208" width="35.95" height="4" transform="translate(102.161 302.515) rotate(-30)" fill="#454342"/>
            <path id="Trazado_130046" data-name="Trazado 130046" d="M52.36,169.64l5.33,1.16a2.29,2.29,0,0,1,1.71,1.56L60.54,176a1.78,1.78,0,0,1-.7,2l-3.1,2.11a2.25,2.25,0,0,1-1.38.37l-2-.11.89-1c.11-1.66-.23-2.81-1.26-3.15-1.59.65-3,.15-4.33-1.6C47.89,172,50.24,169.14,52.36,169.64Z" fill="#ffae75"/>
            <path id="Trazado_130047" data-name="Trazado 130047" d="M54.1,170.15l1.26.31a11.06,11.06,0,0,0,1.8.37c1,.1,2,0,3,0,.45,0,1,.17,1.13.61a.8.8,0,0,1-.24.74,1.65,1.65,0,0,1-.72.37,8.24,8.24,0,0,1-3.76-.08,4,4,0,0,1-1-.28,2.87,2.87,0,0,1-1.47-2.04Z" fill="#ffae75"/>
            <path id="Trazado_130048" data-name="Trazado 130048" d="M77.06,155.87l5.07,2a2.31,2.31,0,0,1,1.44,1.82l.55,3.77a1.79,1.79,0,0,1-1,1.87l-3.4,1.59a2.24,2.24,0,0,1-1.42.15l-2-.44,1-.88c.37-1.63.22-2.82-.74-3.32-1.68.39-3-.34-4-2.27C72.28,157.45,75,155,77.06,155.87Z" fill="#ffae75"/>
            <path id="Trazado_130049" data-name="Trazado 130049" d="M106,303.87,70.2,283.12V213a18.67,18.67,0,0,0-2.45-9.26L53.12,178c-.66-1.18-1.76-1.82-2.45-1.45s-.69,1.64,0,2.81L64,202.78a21.26,21.26,0,0,1,2.79,10.53v84a3.93,3.93,0,0,0,1.32,3c1.14,1,2.15.56,2.15-.7V287.12L106.3,308c1.09.64,2,0,1.68-1.51a3.91,3.91,0,0,0-1.98-2.62Z" fill="#2f2b3d"/>
            <g id="Grupo_61768" data-name="Grupo 61768">
              <path id="Trazado_130050" data-name="Trazado 130050" d="M65.49,291a15.92,15.92,0,0,0,7.2,12.49c4,2.31,7.22.45,7.22-4.15a15.92,15.92,0,0,0-7.21-12.5C68.72,284.52,65.49,286.38,65.49,291Z" fill="#2f2b3d"/>
              <rect id="Rectángulo_7209" data-name="Rectángulo 7209" width="5.45" height="20.4" transform="translate(62.886 289.033) rotate(-30)" fill="#2f2b3d"/>
              <g id="Grupo_61767" data-name="Grupo 61767">
                <path id="Trazado_130051" data-name="Trazado 130051" d="M63.38,295.22c0-2.94,2.06-4.13,4.6-2.66a10.17,10.17,0,0,1,4.6,8c0,2.93-2.06,4.12-4.6,2.65a10.15,10.15,0,0,1-4.6-7.99Z" fill="#9b9896"/>
                <path id="Trazado_130052" data-name="Trazado 130052" d="M68,306.2c4,2.3,7.21.44,7.21-4.16A15.92,15.92,0,0,0,68,289.55c-4-2.31-7.22-.45-7.22,4.15A16,16,0,0,0,68,306.2Zm0-13.45a9.82,9.82,0,0,1,4.43,7.69c0,2.83-2,4-4.44,2.56a9.85,9.85,0,0,1-4.44-7.7C63.54,292.47,65.53,291.33,68,292.75Z" fill="#6c58b8"/>
                <path id="Trazado_130053" data-name="Trazado 130053" d="M65.2,296.26c0-1.77,1.24-2.49,2.78-1.6a6.15,6.15,0,0,1,2.79,4.82c0,1.77-1.25,2.49-2.79,1.61A6.15,6.15,0,0,1,65.2,296.26Z" fill="#fff"/>
              </g>
            </g>
            <path id="Trazado_130054" data-name="Trazado 130054" d="M76.17,160.57a2,2,0,0,0-1.48-1.85,1.35,1.35,0,0,0-.72,0c-.55.15-1.25.2-1.38.75A4.83,4.83,0,0,0,73,161.1a5.79,5.79,0,0,0,.29.68,3.45,3.45,0,0,1,.11,2.41,1,1,0,0,0-.07.67.52.52,0,0,0,.17.19,1,1,0,0,0,1.22-.06,2.07,2.07,0,0,0,.66-1.1c.12-.43.17-.86.28-1.29a7.451,7.451,0,0,0,.51-2.03Z" fill="#ffae75"/>
            <g id="Grupo_61772" data-name="Grupo 61772">
              <g id="Grupo_61769" data-name="Grupo 61769">
                <path id="Trazado_130055" data-name="Trazado 130055" d="M66.65,240.88l37.48,21.63,37.48-21.63-37.48-21.64Z" fill="#ffe1a3"/>
                <path id="Trazado_130056" data-name="Trazado 130056" d="M75.35,240.88l28.78,16.61,28.78-16.61-28.78-16.62Z" fill="#1d1d1b" opacity="0.2"/>
                <path id="Trazado_130057" data-name="Trazado 130057" d="M99.1,254.59l1.09.63,28.79-16.62-1.1-.63Z" fill="#1d1d1b" opacity="0.25"/>
                <path id="Trazado_130058" data-name="Trazado 130058" d="M94.19,251.75l1.09.63,28.78-16.61-1.09-.63Z" fill="#1d1d1b" opacity="0.25"/>
                <path id="Trazado_130059" data-name="Trazado 130059" d="M89.27,248.92l1.1.63,28.78-16.62-1.1-.63Z" fill="#1d1d1b" opacity="0.25"/>
                <path id="Trazado_130060" data-name="Trazado 130060" d="M84.36,246.08l1.09.63,28.78-16.62-1.09-.63Z" fill="#1d1d1b" opacity="0.25"/>
                <path id="Trazado_130061" data-name="Trazado 130061" d="M79.44,243.24l1.1.63,28.78-16.62-1.1-.63Z" fill="#1d1d1b" opacity="0.25"/>
              </g>
              <g id="Grupo_61770" data-name="Grupo 61770">
                <path id="Trazado_130062" data-name="Trazado 130062" d="M104.13,305.79l37.48-21.64V240.88l-37.48,21.63Z" fill="#bb9d5f"/>
                <path id="Trazado_130063" data-name="Trazado 130063" d="M108.48,298.26l28.78-16.62V248.41l-28.78,16.61Z" fill="#1d1d1b" opacity="0.2"/>
                <path id="Trazado_130064" data-name="Trazado 130064" d="M132.23,284.54l1.09-.63V250.68l-1.09.63Z" fill="#1d1d1b" opacity="0.25"/>
                <path id="Trazado_130065" data-name="Trazado 130065" d="M127.32,287.38l1.09-.63V253.52l-1.09.63Z" fill="#1d1d1b" opacity="0.25"/>
                <path id="Trazado_130066" data-name="Trazado 130066" d="M122.4,290.22l1.1-.63V256.35l-1.1.63Z" fill="#1d1d1b" opacity="0.25"/>
                <path id="Trazado_130067" data-name="Trazado 130067" d="M117.49,293.06l1.09-.63V259.19l-1.09.63Z" fill="#1d1d1b" opacity="0.25"/>
                <path id="Trazado_130068" data-name="Trazado 130068" d="M112.57,295.89l1.1-.63V262.03l-1.1.63Z" fill="#1d1d1b" opacity="0.25"/>
                <path id="Trazado_130069" data-name="Trazado 130069" d="M108.48,298.26l28.78-44.6v-5.25L108.48,293Z" fill="#bb9d5f"/>
              </g>
              <g id="Grupo_61771" data-name="Grupo 61771">
                <path id="Trazado_130070" data-name="Trazado 130070" d="M66.65,284.15l37.48,21.64V262.51L66.65,240.88Z" fill="#edca83"/>
                <path id="Trazado_130071" data-name="Trazado 130071" d="M71,281.64l28.78,16.62V265.02L71,248.41Z" fill="#1d1d1b" opacity="0.2"/>
                <path id="Trazado_130072" data-name="Trazado 130072" d="M94.75,295.36l1.1.63V262.75l-1.09-.63Z" fill="#1d1d1b" opacity="0.25"/>
                <path id="Trazado_130073" data-name="Trazado 130073" d="M89.84,292.52l1.09.63V259.92l-1.09-.63Z" fill="#1d1d1b" opacity="0.25"/>
                <path id="Trazado_130074" data-name="Trazado 130074" d="M84.93,289.68l1.09.63V257.08l-1.09-.63Z" fill="#1d1d1b" opacity="0.25"/>
                <path id="Trazado_130075" data-name="Trazado 130075" d="M80.01,286.84l1.09.63V254.24l-1.09-.63Z" fill="#1d1d1b" opacity="0.25"/>
                <path id="Trazado_130076" data-name="Trazado 130076" d="M75.1,284.01l1.09.63V251.4l-1.09-.63Z" fill="#1d1d1b" opacity="0.25"/>
                <path id="Trazado_130077" data-name="Trazado 130077" d="M71,281.64l28.78-11.36v-5.26L71,276.39Z" fill="#edca83"/>
              </g>
            </g>
            <g id="Grupo_61773" data-name="Grupo 61773">
              <path id="Trazado_130078" data-name="Trazado 130078" d="M88.97,239.68v16.75L62.94,241.4V224.65Z" fill="#edca83"/>
              <path id="Trazado_130079" data-name="Trazado 130079" d="M129.06,216.53v16.75L88.97,256.43V239.68Z" fill="#bb9d5f"/>
              <path id="Trazado_130080" data-name="Trazado 130080" d="M102.95,201.59,62.86,224.73l26.11,14.95,40.09-23.15Z" fill="#ffe1a3"/>
            </g>
          </g>
        </g>
      </g>
    </g>
  </g>
</svg>
