<svg id="Layer_1" data-name="Layer 1" xmlns="http://www.w3.org/2000/svg" xmlns:xlink="http://www.w3.org/1999/xlink" viewBox="0 0 1240 736.44"><defs><style>.cls-1,.cls-7{fill:none;}.cls-2{fill:#d4d0e4;}.cls-3{fill:#fcd4e9;}.cls-4{fill:#dad5ed;}.cls-5{fill:#f1d9ef;}.cls-6{fill:#e5d9f1;}.cls-7{stroke:#b5abdb;stroke-miterlimit:10;stroke-width:4px;}.cls-8{fill:#6c58b8;}.cls-9{fill:url(#linear-gradient);}.cls-10{fill:#ac69c9;}.cls-11{fill:url(#linear-gradient-2);}.cls-12{fill:url(#linear-gradient-3);}.cls-13{fill:#cd0a45;}.cls-14{fill:#ef2a66;}.cls-15{fill:#bb43b0;}.cls-16{fill:#472ea6;}.cls-17{fill:#27127a;}.cls-18{fill:url(#linear-gradient-4);}.cls-19{fill:url(#linear-gradient-5);}.cls-20{fill:url(#linear-gradient-7);}.cls-21{fill:url(#linear-gradient-8);}.cls-22{fill:url(#linear-gradient-9);}.cls-23,.cls-26{font-size:20px;font-family:Roboto-Regular, Roboto;}.cls-23,.cls-60{fill:#fff;}.cls-24{letter-spacing:-0.01em;}.cls-25{letter-spacing:-0.02em;}.cls-26,.cls-58{fill:#12263f;}.cls-27{letter-spacing:-0.01em;}.cls-28{letter-spacing:0.02em;}.cls-29{letter-spacing:-0.01em;}.cls-30{letter-spacing:-0.02em;}.cls-31{fill:url(#linear-gradient-11);}.cls-32{fill:url(#linear-gradient-12);}.cls-33{fill:url(#linear-gradient-13);}.cls-34{fill:#7f43bb;}.cls-35{fill:url(#linear-gradient-15);}.cls-36{fill:url(#linear-gradient-16);}.cls-37{fill:url(#linear-gradient-17);}.cls-38{fill:url(#linear-gradient-19);}.cls-39{fill:url(#linear-gradient-20);}.cls-40{fill:url(#linear-gradient-21);}.cls-41{fill:#9743bb;}.cls-42{fill:url(#linear-gradient-23);}.cls-43{fill:url(#linear-gradient-24);}.cls-44{fill:url(#linear-gradient-25);}.cls-45{clip-path:url(#clip-path);}.cls-46{fill:#ffa089;}.cls-47{fill:#fd8f25;}.cls-48{fill:#080435;}.cls-49{fill:#e56d5e;}.cls-50{fill:#fa5d63;}.cls-51{fill:#f25585;}.cls-52{fill:#e96f5f;}.cls-53{fill:#f78978;}.cls-54{fill:#89b4fd;}.cls-55{fill:#100259;}.cls-56{fill:#ffe9d3;}.cls-57{fill:#8c80b8;}.cls-59{fill:#b3204d;}</style><linearGradient id="linear-gradient" x1="40.52" y1="373.23" x2="449.2" y2="373.23" gradientUnits="userSpaceOnUse"><stop offset="0" stop-color="#eaae5b"/><stop offset="1" stop-color="#efc07f"/></linearGradient><linearGradient id="linear-gradient-2" x1="41.62" y1="373.3" x2="448.09" y2="373.3" xlink:href="#linear-gradient"/><linearGradient id="linear-gradient-3" x1="38.36" y1="373.36" x2="451.35" y2="373.36" xlink:href="#linear-gradient"/><linearGradient id="linear-gradient-4" x1="111.43" y1="249.18" x2="391.47" y2="509.99" gradientUnits="userSpaceOnUse"><stop offset="0" stop-color="#ececec"/><stop offset="0.12" stop-color="#f1f1f1"/><stop offset="0.53" stop-color="#fbfbfb"/><stop offset="1" stop-color="#fff"/></linearGradient><linearGradient id="linear-gradient-5" x1="100.06" y1="246.24" x2="393.82" y2="504.31" gradientTransform="translate(335.79 -63.77) rotate(45)" gradientUnits="userSpaceOnUse"><stop offset="0" stop-color="#fff"/><stop offset="0.37" stop-color="#fbfbfb"/><stop offset="0.7" stop-color="#f1f1f1"/><stop offset="1" stop-color="#dfdfdf"/></linearGradient><linearGradient id="linear-gradient-7" x1="331.06" y1="86.36" x2="396.62" y2="151" gradientTransform="translate(422.17 -259.08) rotate(81)" gradientUnits="userSpaceOnUse"><stop offset="0" stop-color="#fff"/><stop offset="0.47" stop-color="#fbfbfb"/><stop offset="0.88" stop-color="#f1f1f1"/><stop offset="1" stop-color="#ececec"/></linearGradient><linearGradient id="linear-gradient-8" x1="339.05" y1="94.46" x2="387.02" y2="141.31" gradientTransform="matrix(1, 0, 0, 1, 0, 0)" xlink:href="#linear-gradient-5"/><linearGradient id="linear-gradient-9" x1="340.5" y1="97.21" x2="384.53" y2="137.57" gradientUnits="userSpaceOnUse"><stop offset="0" stop-color="#dfdfdf"/><stop offset="0.3" stop-color="#f1f1f1"/><stop offset="0.63" stop-color="#fbfbfb"/><stop offset="1" stop-color="#fff"/></linearGradient><linearGradient id="linear-gradient-11" x1="310.76" y1="606.09" x2="376.33" y2="670.72" gradientTransform="translate(918.38 199.39) rotate(81)" xlink:href="#linear-gradient-7"/><linearGradient id="linear-gradient-12" x1="318.75" y1="614.18" x2="366.73" y2="661.03" gradientTransform="matrix(1, 0, 0, 1, 0, 0)" xlink:href="#linear-gradient-5"/><linearGradient id="linear-gradient-13" x1="320.21" y1="616.94" x2="364.23" y2="657.29" xlink:href="#linear-gradient-9"/><linearGradient id="linear-gradient-15" x1="463.6" y1="216.34" x2="529.17" y2="280.97" gradientTransform="translate(662.36 -280.35) rotate(81)" xlink:href="#linear-gradient-7"/><linearGradient id="linear-gradient-16" x1="471.59" y1="224.44" x2="519.57" y2="271.28" gradientTransform="matrix(1, 0, 0, 1, 0, 0)" xlink:href="#linear-gradient-5"/><linearGradient id="linear-gradient-17" x1="473.05" y1="227.19" x2="517.07" y2="267.55" xlink:href="#linear-gradient-9"/><linearGradient id="linear-gradient-19" x1="461.02" y1="476.16" x2="526.58" y2="540.8" gradientTransform="translate(916.8 -58.62) rotate(81)" xlink:href="#linear-gradient-7"/><linearGradient id="linear-gradient-20" x1="469.01" y1="484.26" x2="516.99" y2="531.11" gradientTransform="matrix(1, 0, 0, 1, 0, 0)" xlink:href="#linear-gradient-5"/><linearGradient id="linear-gradient-21" x1="470.47" y1="487.01" x2="514.49" y2="527.37" xlink:href="#linear-gradient-9"/><linearGradient id="linear-gradient-23" x1="493.99" y1="346.25" x2="559.56" y2="410.88" gradientTransform="translate(816.3 -200.78) rotate(81)" xlink:href="#linear-gradient-7"/><linearGradient id="linear-gradient-24" x1="501.98" y1="354.34" x2="549.96" y2="401.19" gradientTransform="matrix(1, 0, 0, 1, 0, 0)" xlink:href="#linear-gradient-5"/><linearGradient id="linear-gradient-25" x1="503.44" y1="357.1" x2="547.47" y2="397.45" xlink:href="#linear-gradient-9"/><clipPath id="clip-path"><path class="cls-1" d="M244.87,546.81A173.36,173.36,0,1,1,418.22,373.45,173.36,173.36,0,0,1,244.87,546.81Z"/></clipPath></defs><path class="cls-2" d="M584.16,154.54a36.87,36.87,0,0,1,0-73.74H1024.1a36.87,36.87,0,1,1,0,73.74Z"/><path class="cls-3" d="M576.84,676.78a36.87,36.87,0,0,1,0-73.74h439.94a36.87,36.87,0,1,1,0,73.74Z"/><path class="cls-4" d="M716.41,283.82a36.87,36.87,0,0,1,0-73.74h439.94a36.87,36.87,0,1,1,0,73.74Z"/><path class="cls-5" d="M716.41,546.39a36.87,36.87,0,1,1,0-73.74h439.94a36.87,36.87,0,1,1,0,73.74Z"/><path class="cls-6" d="M745.84,414.8a36.87,36.87,0,1,1,0-73.74h439.93a36.87,36.87,0,1,1,0,73.74Z"/><path class="cls-7" d="M362.43,113.71C461.2,158.48,529.9,257.94,529.9,373.45c0,123.15-78.1,228.06-187.47,267.91"/><path class="cls-8" d="M389.38,228.66A204.32,204.32,0,0,0,244.76,169H245V373.14Z"/><polygon class="cls-9" points="244.6 373.27 244.65 373.32 244.73 373.32 244.73 373.14 244.6 373.27"/><path class="cls-10" d="M245,373.5H449.4a202.93,202.93,0,0,0-60-144.81L245,373.14Z"/><polygon class="cls-11" points="244.55 373.32 244.65 373.32 244.6 373.27 244.55 373.32"/><polygon class="cls-12" points="244.73 373.4 244.73 373.32 244.65 373.32 244.73 373.4"/><path class="cls-13" d="M244.65,373.5h-.1L100.11,518A203,203,0,0,0,245,578V373.4Z"/><path class="cls-14" d="M245,578h-.16a204.23,204.23,0,0,0,144.74-59.86L245,373.4Z"/><path class="cls-15" d="M449.42,373.51H245v-.1L389.57,518.15A203.71,203.71,0,0,0,449.42,373.51Z"/><path class="cls-16" d="M245,373.14V168.91a202.89,202.89,0,0,0-144.66,59.94L244.76,373.27Z"/><path class="cls-17" d="M244.6,373.36,100.19,229A202.69,202.69,0,0,0,40.31,373.5H244.55Z"/><path class="cls-15" d="M40.47,373.5h0A204,204,0,0,0,100.08,518L244.55,373.5Z"/><path class="cls-18" d="M244.87,546.81A173.36,173.36,0,1,1,418.22,373.45,173.36,173.36,0,0,1,244.87,546.81Z"/><circle class="cls-19" cx="244.87" cy="373.45" r="183.36" transform="translate(-192.35 282.53) rotate(-45)"/><path class="cls-18" d="M244.87,546.81A173.36,173.36,0,1,1,418.22,373.45,173.36,173.36,0,0,1,244.87,546.81Z"/><path class="cls-16" d="M363.17,168.91a51.24,51.24,0,0,1,0-102.47H562.56a51.24,51.24,0,0,1,0,102.47Z"/><circle class="cls-20" cx="362.76" cy="117.61" r="43.49" transform="translate(189.85 457.5) rotate(-81)"/><circle class="cls-16" cx="362.76" cy="117.61" r="39.2"/><circle class="cls-21" cx="362.76" cy="117.61" r="30.77"/><circle class="cls-22" cx="362.76" cy="117.61" r="29.2"/><circle class="cls-22" cx="362.76" cy="117.61" r="29.2"/><text class="cls-23" transform="translate(418.79 95.77)">Multa <tspan x="0" y="24">equi</tspan><tspan class="cls-24" x="37.84" y="24">v</tspan><tspan x="47.38" y="24">alente a </tspan><tspan x="0" y="48">300 UV</tspan><tspan class="cls-25" x="64.34" y="48">T</tspan></text><text class="cls-26" transform="translate(642.7 110.83)">No presen<tspan class="cls-27" x="91.14" y="0">t</tspan><tspan x="97.48" y="0">o la Decla</tspan><tspan class="cls-25" x="184.43" y="0">r</tspan><tspan x="190.81" y="0">ación Anticipada </tspan><tspan x="0" y="24">de A</tspan><tspan class="cls-25" x="39.87" y="24">r</tspan><tspan x="46.25" y="24">ancel, en su opo</tspan><tspan class="cls-28" x="189.86" y="24">r</tspan><tspan x="197.12" y="24">tunidad</tspan></text><text class="cls-26" transform="translate(642.7 636.75)">La DIAN ordenó el reembarque de la <tspan x="0" y="24">me</tspan><tspan class="cls-29" x="28.13" y="24">r</tspan><tspan x="34.71" y="24">cancía , y este no ocurrió.</tspan></text><text class="cls-26" transform="translate(763.48 241.3)">No presentó la Decla<tspan class="cls-25" x="184.63" y="0">r</tspan><tspan x="191.01" y="0">ación Andina de </tspan><tspan class="cls-30" x="338.51" y="0">V</tspan><tspan x="350.78" y="0">alor </tspan><tspan x="0" y="24">de la me</tspan><tspan class="cls-29" x="75.63" y="24">r</tspan><tspan x="82.22" y="24">cancía , siendo esta obliga</tspan><tspan class="cls-27" x="316.86" y="24">t</tspan><tspan x="323.19" y="24">orio</tspan></text><text class="cls-26" transform="translate(763.48 502.6)">Utilizar una agencia de aduanas sin que <tspan x="0" y="24">esta tenga la au</tspan><tspan class="cls-27" x="141.07" y="24">t</tspan><tspan x="147.41" y="24">orización por pa</tspan><tspan class="cls-28" x="290.39" y="24">r</tspan><tspan x="297.65" y="24">te de la </tspan><tspan x="0" y="48">DIAN</tspan></text><text class="cls-26" transform="translate(796.81 372.72)">No asistió a una práctica de afo<tspan class="cls-27" x="281.51" y="0">r</tspan><tspan x="288.09" y="0">o ordenada </tspan><tspan x="0" y="24">por la DIAN.</tspan></text><path class="cls-14" d="M342.88,688.57a51.24,51.24,0,1,1,0-102.47H542.26a51.24,51.24,0,1,1,0,102.47Z"/><circle class="cls-31" cx="342.46" cy="637.34" r="43.49" transform="translate(-340.6 875.88) rotate(-81)"/><circle class="cls-14" cx="342.46" cy="637.34" r="39.2"/><circle class="cls-32" cx="342.46" cy="637.34" r="30.77"/><circle class="cls-33" cx="342.46" cy="637.34" r="29.2"/><circle class="cls-33" cx="342.46" cy="637.34" r="29.2"/><text class="cls-23" transform="translate(393.53 608.74)">Multa equi<tspan class="cls-24" x="93.54" y="0">v</tspan><tspan x="103.09" y="0">alente </tspan><tspan x="0" y="24">al 200% del </tspan><tspan class="cls-24" x="105.65" y="24">av</tspan><tspan x="125.93" y="24">alúo </tspan><tspan x="0" y="48">de la me</tspan><tspan class="cls-29" x="75.63" y="48">r</tspan><tspan x="82.22" y="48">cancía o </tspan><tspan x="0" y="72">500 UV</tspan><tspan class="cls-25" x="64.34" y="72">T</tspan></text><path class="cls-34" d="M495.69,298.82a51.24,51.24,0,1,1,0-102.47H695.08a51.24,51.24,0,0,1,0,102.47Z"/><circle class="cls-35" cx="495.3" cy="247.59" r="43.49" transform="translate(173.28 698.06) rotate(-81)"/><circle class="cls-34" cx="495.3" cy="247.59" r="39.2"/><circle class="cls-36" cx="495.3" cy="247.59" r="30.77"/><circle class="cls-37" cx="495.3" cy="247.59" r="29.2"/><circle class="cls-37" cx="495.3" cy="247.59" r="29.2"/><text class="cls-23" transform="translate(546.05 231.49)">Multa <tspan x="0" y="24">equi</tspan><tspan class="cls-24" x="37.84" y="24">v</tspan><tspan x="47.38" y="24">alente a </tspan><tspan x="0" y="48">100 UV</tspan><tspan class="cls-25" x="64.34" y="48">T</tspan></text><path class="cls-15" d="M493.11,558.66a51.24,51.24,0,0,1,0-102.48H692.49a51.24,51.24,0,1,1,0,102.48Z"/><circle class="cls-38" cx="492.72" cy="507.41" r="43.49" transform="translate(-85.52 914.69) rotate(-81)"/><circle class="cls-15" cx="492.72" cy="507.41" r="39.2"/><circle class="cls-39" cx="492.72" cy="507.41" r="30.77"/><circle class="cls-40" cx="492.72" cy="507.41" r="29.2"/><circle class="cls-40" cx="492.72" cy="507.41" r="29.2"/><text class="cls-23" transform="translate(543.46 488.43)">Multa <tspan x="0" y="24">equi</tspan><tspan class="cls-24" x="37.84" y="24">v</tspan><tspan x="47.38" y="24">alente al 1% </tspan><tspan x="0" y="48">del </tspan><tspan class="cls-24" x="31.68" y="48">v</tspan><tspan x="41.22" y="48">alor FOB</tspan></text><path class="cls-41" d="M526.08,428.74a51.24,51.24,0,1,1,0-102.47H725.47a51.24,51.24,0,0,1,0,102.47Z"/><circle class="cls-42" cx="525.69" cy="377.5" r="43.49" transform="translate(70.61 837.66) rotate(-81)"/><circle class="cls-41" cx="525.69" cy="377.5" r="39.2"/><circle class="cls-43" cx="525.69" cy="377.5" r="30.77"/><circle class="cls-44" cx="525.69" cy="377.5" r="29.2"/><circle class="cls-44" cx="525.69" cy="377.5" r="29.2"/><text class="cls-23" transform="translate(576.44 359.16)">Multa <tspan x="0" y="24">equi</tspan><tspan class="cls-24" x="37.84" y="24">v</tspan><tspan x="47.38" y="24">alente a </tspan><tspan x="0" y="48">100 UV</tspan><tspan class="cls-25" x="64.34" y="48">T</tspan></text><g class="cls-45"><path class="cls-46" d="M183.26,415.56a44.83,44.83,0,0,0-.88,5.82c0,1.6-1.15,3.16-.28,3.47s2.07-2.54,2.07-2.54,1.51,2.88,1.83,3.84,1.35,2.52,2.07,2.33-1.18-4.67-1.18-4.67,2,3.62,2.67,3.59-1.13-5-1.13-5,1.91,4,2.33,4.14.67-.36.33-1.92a14.83,14.83,0,0,0-1.08-3.08,34.63,34.63,0,0,0,1.85,2.94c.3.25.9.39.15-1.88s-3.15-6.9-5.3-8.73Z"/><path class="cls-47" d="M170,356.19c-1.59-.82-3.36-1.64-4.14-3.26-1.18-2.46.55-5.62-.68-8.06-1-1.95-3.43-2.64-4.87-4.27s-1.66-3.62-2.57-5.41c-3-5.83-10.22-6-15.27-3.05a12.92,12.92,0,0,0-2.11,1.53,9.86,9.86,0,0,0-3.44,7.59c.09,2,1,4.19-.16,6.07-1,1.72-3.12,2.2-4.7,3.23a7,7,0,0,0-3.23,5.06c-.19,2.44,1.23,5.09,0,7.23-.84,1.53-2.63,2.12-3.92,3.17a8.19,8.19,0,0,0-2.92,4.67,6.91,6.91,0,0,0,4.37,7.89,10.35,10.35,0,0,0,5,0,28.15,28.15,0,0,0,9.05-3.46c2.74-1.63,5.28-3.77,8.37-4.53,2.68-.67,5.49-.23,8.26-.17s5.5-.25,8.13.43c1.18.31,2.3.81,3.49,1.07a4.86,4.86,0,0,0,3.54-.33,2.55,2.55,0,0,0,1.17-3.11c-.23-.5-.67-.88-.94-1.36-1.21-2.17,1.38-4.73,1-7.19C173.25,358.18,171.56,357,170,356.19Zm-32.72-1.94c-1.06,1.41-2.74,2.31-3.59,3.86a4.51,4.51,0,0,0-.47,2.93,15.06,15.06,0,0,1-1.26-3.06,5.16,5.16,0,0,1,.12-3.25,7.31,7.31,0,0,1,3.44-3.21c1-.57,1.77-1.54,2.71-2.09C139,350.79,138.11,353.11,137.25,354.25Z"/><path class="cls-46" d="M158.52,493s-1.79,14.06-.53,15.81c.72,1,17.19,5.2,18,3s-11.52-7-11.88-11.3a26.36,26.36,0,0,1,.67-8.09Z"/><path class="cls-48" d="M157.59,503.25c7.94,5.57,11,4.5,12.15,3.24,3.26,2.22,6.65,4.18,6.22,5.35-.79,2.18-17.26-2-18-3C157.52,508.18,157.47,505.89,157.59,503.25Z"/><path class="cls-46" d="M134.21,493s-1.79,14.06-.54,15.81c.72,1,17.2,5.2,18,3s-11.51-7-11.87-11.3a26.54,26.54,0,0,1,.66-8.09Z"/><path class="cls-48" d="M133.27,503.25c7.95,5.57,11,4.5,12.16,3.24,3.26,2.22,6.64,4.18,6.22,5.35-.79,2.18-17.27-2-18-3C133.21,508.18,133.15,505.89,133.27,503.25Z"/><path class="cls-49" d="M158.07,343.05s.59-1.18,1.22-.81c1.6,1,.2,2.66-.73,3.11Z"/><path class="cls-46" d="M147.22,330.9a9,9,0,0,0-7.27,9.46,8.82,8.82,0,0,0,1.27,4,38.69,38.69,0,0,0,4.43,7,8.93,8.93,0,0,1,2.34,6.12l-.05,2.29c5.52,2,7.47-.92,7.47-.92l-.64-5.2h0c5.53-1.36,3.5-11.64,3.12-14.71h0l0-.35A9,9,0,0,0,147.22,330.9Z"/><path class="cls-47" d="M147.7,340.07a37,37,0,0,0-2.54,4,9.65,9.65,0,0,0-1.73,4.62,11.47,11.47,0,0,1-3.7-4,8.2,8.2,0,0,1-1.12-2.28,9.22,9.22,0,0,1,0-3.59,9.77,9.77,0,0,1,1.27-4.43,7.47,7.47,0,0,1,2.29-2,12.65,12.65,0,0,1,6.81-2,9.13,9.13,0,0,1,6.47,2.7c2.11,2.26,2.72,5.5,3.24,8.55a9.05,9.05,0,0,0-2.39-3.12,7.48,7.48,0,0,0-2-1.57,37.06,37.06,0,0,1-4-1.61C149.93,337.19,148.9,338.5,147.7,340.07Z"/><path class="cls-48" d="M149.35,345.06a.79.79,0,1,0-1.57,0,.79.79,0,0,0,1.57,0Z"/><path class="cls-50" d="M156,349.19s-1.16-.9-1.53-.72a1.21,1.21,0,0,0-.51.7.9.9,0,0,0-.8-.36c-.48.08-1.53,1.91-1.53,1.91a4.67,4.67,0,0,0,2.84-.2c1.37-.62,1.53-1.33,1.53-1.33Z"/><path class="cls-51" d="M146.3,359.93s-.69-3.5,1.64-3.52a7.38,7.38,0,0,0,7.14-.21s1.7,0,1.53,3c0,0,9.49,2.89,12.65,5.23s6.27,18.54,11.5,28.24,8.77,17.61,6.91,22l-4.56,1.66s-4.42-1-9.87-12.22S168,393.47,168,393.47s.73,6.91-1.56,10.51l-25.67.65s-3.27-1.63-5.32-13.82c0,0-6-2.67-4.89-15.06C131.48,365.07,138.54,362.22,146.3,359.93Z"/><rect class="cls-48" x="153.95" y="375.91" width="23.63" height="17.12" rx="0.39" transform="translate(-241.56 481.34) rotate(-80.05)"/><rect class="cls-47" x="167.08" y="369.32" width="1.47" height="6.92" transform="translate(-228.34 473.71) rotate(-80.06)"/><path class="cls-47" d="M169.07,372.25a1.14,1.14,0,0,0-2.25-.39,1.14,1.14,0,1,0,2.25.39Z"/><path class="cls-49" d="M153.22,347.59a1.37,1.37,0,0,0,1.1-1.39.25.25,0,0,0-.08-.18,4.07,4.07,0,0,1-1.05-2.41.28.28,0,0,0-.29-.26.28.28,0,0,0-.26.29,4.57,4.57,0,0,0,1.13,2.69c0,.22-.19.73-1.07.79a.29.29,0,0,0-.25.3.27.27,0,0,0,.29.25A2.18,2.18,0,0,0,153.22,347.59Z"/><path class="cls-17" d="M166.45,404s5,3.81,5.92,22.78-5.77,70.57-5.77,70.57l-11,.51s1.7-69.11,0-69.33-13.52,68.9-13.52,68.9l-10-.65s-.71-68.6,8.75-92.13Z"/><path class="cls-46" d="M163.57,383a43.46,43.46,0,0,1,4.14-4.18c1.29-.94,1.84-2.81,2.61-2.29s-.8,3.17-.8,3.17,3.21-.52,4.18-.82,2.82-.42,3.1.27-4.45,1.84-4.45,1.84,2.81-.49,2.93.37c.1.69-3.15,1.7-3.15,1.7a22.49,22.49,0,0,1,2.66-.45c.55,0,1.08.78-.38,1.45a12.1,12.1,0,0,1-2,.78,13.09,13.09,0,0,1,2-.12c.38.09.86.89-.45,1.24-2.3.63-7,1.45-9.7.82Z"/><path class="cls-51" d="M135.46,390.81s15.74,9.57,30.31-3.86l-1.36-4.89s-19.38,2.29-22.82-7.93Z"/><path class="cls-48" d="M147.37,394.46a26.37,26.37,0,0,0,8.1-1.32.11.11,0,0,0,.07-.14.11.11,0,0,0-.14-.08c-12.14,3.9-19.79-2.13-19.87-2.2a.12.12,0,0,0-.16,0,.11.11,0,0,0,0,.16A20.33,20.33,0,0,0,147.37,394.46Z"/><path class="cls-48" d="M156.62,382.33c.46,0,.73,0,.75,0a.11.11,0,0,0,.11-.12.12.12,0,0,0-.12-.1c-.14,0-13.27.68-15.19-8A.12.12,0,0,0,142,374a.11.11,0,0,0-.08.14C143.64,381.78,153.76,382.33,156.62,382.33Z"/><path class="cls-48" d="M151.64,350.93a.13.13,0,0,0,.08,0,8.56,8.56,0,0,1,4.29-1.54.11.11,0,0,0,.11-.12.11.11,0,0,0-.12-.1,8.48,8.48,0,0,0-4.43,1.59.11.11,0,0,0,0,.16A.12.12,0,0,0,151.64,350.93Z"/><path class="cls-48" d="M156.07,343.51a.73.73,0,0,0-.75-.7.73.73,0,1,0,.75.7Z"/><path class="cls-48" d="M147,343.37a.28.28,0,0,1-.25-.06.3.3,0,0,1-.05-.42,3.56,3.56,0,0,1,2.11-1.19.29.29,0,0,1,.34.24.3.3,0,0,1-.24.35,3,3,0,0,0-1.74,1A.28.28,0,0,1,147,343.37Z"/><path class="cls-48" d="M153.62,340.85a.35.35,0,0,1-.18-.18.31.31,0,0,1,.19-.39,3.64,3.64,0,0,1,2.42.13.3.3,0,0,1-.24.56,3,3,0,0,0-2-.12A.3.3,0,0,1,153.62,340.85Z"/><path class="cls-48" d="M149.32,347.59a2.37,2.37,0,1,1,1.77-2.84A2.36,2.36,0,0,1,149.32,347.59Zm-1-4.42a2.18,2.18,0,1,0,2.61,1.63A2.18,2.18,0,0,0,148.29,343.17Z"/><path class="cls-48" d="M156.08,346a2.37,2.37,0,1,1,1.77-2.84A2.37,2.37,0,0,1,156.08,346Zm-1-4.42a2.18,2.18,0,1,0,2.61,1.62A2.18,2.18,0,0,0,155.05,341.6Z"/><path class="cls-48" d="M151.06,344.84l-.13-.13a2.12,2.12,0,0,1,2.45-.56l-.09.16A1.94,1.94,0,0,0,151.06,344.84Z"/><rect class="cls-48" x="142.79" y="345.89" width="3.78" height="0.19" transform="translate(-53.86 27.83) rotate(-9.27)"/><path class="cls-46" d="M144.25,346.55a1.39,1.39,0,0,0-.77-.55,2.28,2.28,0,0,0-2.43.54c-1,1.23,1.61,3.86,3.61,2.15C144.66,348.69,145.21,348,144.25,346.55Z"/><path class="cls-52" d="M241.05,273.61s5.27,6.53,5.42,9.4-.47,11.24.73,14.06c.38.88,3.78,7.5,5.73,8.09,1.31.41,3.37-2.8,1.71-6.2-2.89-5.91-1.76-10-1.28-12.85.81-4.88.93-7.72,1.44-5.54,0,0,.59,6.94,1.52,9.82.26.78,3.29,6.53,5.09,6.74,1,.11,3.53-2,1.23-7.39-1.51-3.54.05-6.39,1-9.26.85-2.48,6.1-9.42,6.1-9.42l-10-4.79Z"/><path class="cls-53" d="M238,286.69s-1.67,12.41-1,17.22c.27,1.93,1.77,8.18,3.55,8.94,2.94,1.27,4.95-3.86,3.48-9.56s3.18-11.31,5.09-15.64l7.57-17.26Z"/><path class="cls-46" d="M334.5,249c-2.75,1.41-5.33,2.75-7.57,3.94l-3.4,1.84c-1.63.91-2.91,1.65-3.73,2.19-2.08,1.36-5.46,3-8,5.31h0a9.71,9.71,0,0,0-3.4,5.89c-.79,5.93-9.09,17.86-17.1,26.2a70,70,0,0,0-9.8,14c-1.1,2.12-4.64,11-6.48,12-1.08.61-4.55-2-5.28-3.77-1.57-3.77.14-9.3,4-18,3.72-8.26,3.49-12.56,2.46-16.4a8.92,8.92,0,0,0-5.26-6.55,28.08,28.08,0,0,0-3.45-1.49c-3.69-1.25-9.48-2-13.88,3.3a1.46,1.46,0,0,0-.16.19h0c-1.93,2.24-4.6,3.95-7,5.71s-4.64,3.75-5.25,6.39c-.74,3.2-2.57,6.3-4.41,9.75h0a46,46,0,0,0-3.62,8.21c-2.29,7.39-6.61,7.86-8.65,5.39-1.1-1.33.4-12.59.82-14.22.56-2.17,5.71-17,7-19.42,3.1-6.05,17.87-25.28,20.75-28.64,4.87-5.7,20.6-10.05,33.33-15,.85-.33,1.7-.67,2.54-1h0A100.91,100.91,0,0,0,302.35,228q2-1.23,4-2.57l1.77-1.22A129.81,129.81,0,0,1,334.5,249Z"/><polygon class="cls-54" points="304.61 223.07 288.9 234.88 311.76 262.25 327.76 254 304.61 223.07"/><path class="cls-8" d="M371.35,229.53l-46.57,26.79-.44-.56-.81-1L302.35,228l-1.6-2-1.46-1.84L329.5,200.2C343.43,208.59,356.05,220.33,371.35,229.53Z"/><path class="cls-55" d="M315.07,255.71a1.37,1.37,0,1,1,.34,1.92A1.38,1.38,0,0,1,315.07,255.71Z"/><rect class="cls-56" x="197.42" y="287.06" width="170.16" height="210.92" transform="matrix(0.99, -0.17, 0.17, 0.99, -62.81, 53.93)"/><path class="cls-51" d="M349.63,396.38l-18.36,3.18,10.48,48.52,14.31-2.47Zm11.8,65.35a9.27,9.27,0,0,0-1.3-3.43,8.33,8.33,0,0,0-2.43-2.48,8.79,8.79,0,0,0-3.36-1.34,11.59,11.59,0,0,0-4.11,0,11.39,11.39,0,0,0-3.85,1.36,9,9,0,0,0-2.68,2.38,8.37,8.37,0,0,0-1.45,3.16,9.16,9.16,0,0,0-.07,3.66,9,9,0,0,0,1.29,3.41,8.56,8.56,0,0,0,2.42,2.45,8.94,8.94,0,0,0,3.33,1.34,11.19,11.19,0,0,0,4.08,0,11.64,11.64,0,0,0,3.88-1.36,9,9,0,0,0,2.72-2.39,8.38,8.38,0,0,0,1.45-3.13A9.05,9.05,0,0,0,361.43,461.73Z"/><rect class="cls-57" x="288.63" y="302.65" width="49.5" height="1.82" transform="translate(-47.18 57.9) rotate(-9.82)"/><rect class="cls-57" x="289.69" y="308.78" width="49.5" height="1.82" transform="translate(-48.21 58.17) rotate(-9.82)"/><rect class="cls-57" x="290.75" y="314.91" width="49.5" height="1.82" transform="translate(-49.24 58.44) rotate(-9.82)"/><rect class="cls-57" x="278.49" y="336.27" width="35.54" height="2.61" transform="translate(-53.24 55.48) rotate(-9.82)"/><rect class="cls-57" x="320.29" y="330.13" width="22.86" height="2.61" transform="translate(-51.67 61.43) rotate(-9.82)"/><rect class="cls-57" x="203.89" y="346.62" width="65.2" height="2.61" transform="matrix(0.99, -0.17, 0.17, 0.99, -55.88, 45.43)"/><rect class="cls-57" x="205.52" y="356.54" width="53.2" height="2.61" transform="translate(-57.63 44.83) rotate(-9.82)"/><rect class="cls-57" x="263.62" y="346.48" width="53.2" height="2.61" transform="translate(-55.07 54.6) rotate(-9.82)"/><rect class="cls-57" x="282.45" y="362.85" width="35.54" height="2.61" transform="translate(-57.71 56.54) rotate(-9.82)"/><rect class="cls-57" x="324.26" y="356.71" width="22.86" height="2.61" transform="translate(-56.14 62.5) rotate(-9.82)"/><rect class="cls-57" x="207.86" y="373.19" width="65.2" height="2.61" transform="translate(-60.35 46.5) rotate(-9.82)"/><rect class="cls-57" x="209.49" y="383.12" width="53.2" height="2.61" transform="translate(-62.11 45.9) rotate(-9.82)"/><rect class="cls-57" x="267.38" y="370.63" width="81.69" height="2.61" transform="matrix(0.99, -0.17, 0.17, 0.99, -58.92, 58.02)"/><rect class="cls-57" x="285.73" y="381.77" width="35.54" height="2.61" transform="translate(-60.89 57.38) rotate(-9.82)"/><rect class="cls-57" x="327.53" y="375.63" width="22.86" height="2.61" transform="translate(-59.32 63.34) rotate(-9.82)"/><rect class="cls-57" x="211.14" y="392.12" width="65.2" height="2.61" transform="translate(-63.53 47.34) rotate(-9.82)"/><rect class="cls-57" x="212.76" y="402.04" width="53.2" height="2.61" transform="translate(-65.29 46.74) rotate(-9.82)"/><rect class="cls-57" x="270.86" y="391.98" width="53.2" height="2.61" transform="translate(-62.72 56.5) rotate(-9.82)"/><rect class="cls-57" x="291.02" y="411.58" width="18.81" height="2.61" transform="translate(-66.02 57.29) rotate(-9.82)"/><rect class="cls-57" x="216.31" y="420.5" width="65.2" height="2.61" transform="translate(-68.29 48.63) rotate(-9.82)"/><rect class="cls-57" x="236.44" y="429.86" width="22.69" height="2.61" transform="translate(-69.91 48.58) rotate(-9.82)"/><rect class="cls-57" x="264.11" y="422.92" width="47.48" height="2.61" transform="translate(-68.14 55.31) rotate(-9.82)"/><rect class="cls-57" x="265.35" y="431.05" width="47.48" height="2.61" transform="translate(-69.51 55.64) rotate(-9.82)"/><path class="cls-58" d="M203.82,317.4,212,330.72l3.26-15.31,3-.52,3,17.55-2.32.4L217.83,326l-1.06-7.42-3.3,15.21-1.77.3-8.2-13.17,1.5,7.3,1.18,6.83-2.31.4-3-17.54Z"/><path class="cls-58" d="M234.72,312.05,236.79,324a5.68,5.68,0,0,1-.86,4.33,6.42,6.42,0,0,1-3.89,2.5l-.61.13a6.72,6.72,0,0,1-4.86-.76,5.66,5.66,0,0,1-2.48-4L222,314.25l2.28-.4,2.06,11.88A3.7,3.7,0,0,0,231.1,329a4.14,4.14,0,0,0,2.83-1.56,4.1,4.1,0,0,0,.53-3.14l-2.06-11.89Z"/><path class="cls-58" d="M243.41,326.67l8.31-1.44.33,1.89L241.41,329l-3-17.54,2.33-.41Z"/><path class="cls-58" d="M260.79,309.49l-5.64,1,2.71,15.65-2.3.4-2.71-15.65-5.63,1-.33-1.89,13.57-2.35Z"/><path class="cls-58" d="M274,318.58l-7.35,1.28-.86,4.87-2.38.42,3.66-18.71,2-.35,9.75,16.38-2.37.41Zm-7-.74,6-1-4.4-7.69Z"/><path class="cls-46" d="M307.75,270.61c-2.23,6.37-9.46,16.42-16.47,23.72a70,70,0,0,0-9.8,14c-1.1,2.12-4.64,11-6.48,12-1.08.61-4.55-2-5.28-3.77-1.57-3.77.13-9.3,4-18,3.72-8.26,3.49-12.55,2.46-16.4,0-.09,0-.17-.07-.26Z"/><path class="cls-59" d="M230.27,518c17.44.28,31.63-3.48,31.71-8.39s-14-9.12-31.42-9.4-31.63,3.47-31.71,8.39S212.84,517.76,230.27,518Z"/><polygon class="cls-59" points="261.98 509.65 262.25 503.97 256.5 504.74 199.12 502.96 198.85 508.63 217.6 514.81 244.35 511.86 261.98 509.65"/><path class="cls-51" d="M230.54,512.36c17.43.28,31.63-3.47,31.71-8.39s-14-9.12-31.42-9.4-31.63,3.48-31.71,8.39S213.11,512.08,230.54,512.36Z"/><path class="cls-59" d="M223.85,506c17.44.28,31.63-3.47,31.71-8.39s-14-9.12-31.42-9.4-31.63,3.48-31.71,8.39S206.42,505.72,223.85,506Z"/><polygon class="cls-59" points="255.56 497.61 255.83 491.94 250.08 492.7 192.7 490.92 192.43 496.6 211.18 502.77 237.94 499.82 255.56 497.61"/><path class="cls-51" d="M224.12,500.32c17.44.28,31.63-3.47,31.71-8.38s-14-9.12-31.42-9.4-31.63,3.47-31.71,8.38S206.69,500,224.12,500.32Z"/><path class="cls-59" d="M231.43,498.52c17.43.28,31.63-3.48,31.71-8.39s-14-9.12-31.43-9.4-31.63,3.47-31.7,8.39S214,498.24,231.43,498.52Z"/><polygon class="cls-59" points="263.14 490.13 263.41 484.45 257.66 485.22 200.27 483.44 200 489.12 218.76 495.29 245.51 492.34 263.14 490.13"/><path class="cls-51" d="M231.7,492.84c17.43.28,31.63-3.47,31.71-8.39s-14-9.12-31.43-9.4-31.63,3.48-31.71,8.39S214.26,492.56,231.7,492.84Z"/><path class="cls-60" d="M254.5,483.84l-4.38-.06a1.27,1.27,0,0,0-.32-.42,1.18,1.18,0,0,0-.29-.26,4.47,4.47,0,0,0-1.46-.81,13.57,13.57,0,0,0-3.37-.84.36.36,0,0,0-.2,0,28,28,0,0,0-3.82-.29h-1.29a18.84,18.84,0,0,0-5.67.88,12.39,12.39,0,0,0-2,.9s0,0,0,0a10.29,10.29,0,0,0-1.27.78,11.09,11.09,0,0,1-1.07.62.1.1,0,0,1-.06,0,12.12,12.12,0,0,1-5.93,1.13c-2.79-.06-4.89-.64-5.54-1.49a.9.9,0,0,1-.23-.58.3.3,0,0,1,0-.16,1.5,1.5,0,0,1,.23-.58,4.7,4.7,0,0,1,2-1.46s0,0,.06,0l.32-.12-1.13-.13-2.82-.33a.21.21,0,0,0-.13.07,5.29,5.29,0,0,0-2,1.32s0,0,0,0a3.07,3.07,0,0,0-.29.48,1,1,0,0,0-.13.42.34.34,0,0,0,0,.17l-1.36,0h-.07l-2.85,0-1.68,0v.52l0,.16V484l2.89,0,3.27.07a2.88,2.88,0,0,0,.87.87,13.91,13.91,0,0,0,5.67,1.65h0c1.1.13,2.23.23,3.4.26,4.34.07,7.22-.48,9.49-1.65a.16.16,0,0,0,.13-.06,9.91,9.91,0,0,0,1.23-.69s0,0,.07,0a.72.72,0,0,1,.19-.13,10.36,10.36,0,0,1,1.69-.94,10,10,0,0,1,4.79-.87,12.82,12.82,0,0,1,3.27.42,4,4,0,0,1,1.4.65c.06.06.13.13.13.19a.72.72,0,0,1,.26.58,1.11,1.11,0,0,1-.1.46.9.9,0,0,1-.26.45,3.64,3.64,0,0,1-1.3,1l-.38.2.38.06,3.5.42a8.7,8.7,0,0,0,1-.58,2.53,2.53,0,0,0,1-1.39c0-.07,0-.1,0-.16l5.73.09v-1Z"/><path class="cls-59" d="M231.48,490.05c17.43.28,31.63-3.47,31.71-8.38s-14-9.12-31.43-9.4-31.63,3.47-31.71,8.38S214,489.77,231.48,490.05Z"/><polygon class="cls-59" points="263.19 481.67 263.45 475.99 257.7 476.75 200.32 474.98 200.05 480.65 218.8 486.82 245.56 483.87 263.19 481.67"/><path class="cls-51" d="M231.74,484.38c17.44.28,31.63-3.48,31.71-8.39s-14-9.12-31.42-9.4-31.63,3.47-31.71,8.39S214.31,484.1,231.74,484.38Z"/><path class="cls-60" d="M254.63,475.39l-4.44-.07s0-.06-.07-.09A.69.69,0,0,0,250,475a4.61,4.61,0,0,0-1.85-1.17c-.06,0-.09-.06-.13,0a10.38,10.38,0,0,0-1.23-.42c-.19,0-.42-.1-.65-.13v0a27.84,27.84,0,0,0-5.37-.55h-1.11c-4.27.06-6.73.94-8.91,2.39a1.23,1.23,0,0,0-.25.17,6.08,6.08,0,0,1-.59.35,4.19,4.19,0,0,1-.52.29,7.07,7.07,0,0,1-.84.36,12.85,12.85,0,0,1-5.12.78,13.63,13.63,0,0,1-3-.36,4.5,4.5,0,0,1-2.24-.91s0,0,0,0a1.56,1.56,0,0,1-.23-.22c0-.07-.1-.13-.1-.2a.31.31,0,0,1-.06-.16.58.58,0,0,1,0-.23c0-.84.94-1.62,2.17-2.2l.39-.16-3.92-.45a5,5,0,0,0-2.14,1.39,1.94,1.94,0,0,0-.49.91.42.42,0,0,0,0,.19l-2.69,0-1.59,0-1.68,0v1l1.49,0,4.63.07a2.72,2.72,0,0,0,.55.64c.1.1.23.17.33.26,1.52,1,4.4,1.66,7.61,1.82.49,0,1,.06,1.49.06a22.17,22.17,0,0,0,8.46-1.13,11.4,11.4,0,0,0,1.91-1c.16-.1.32-.2.49-.29.48-.33.93-.59,1.39-.85a9.94,9.94,0,0,1,5.38-1.1,9.63,9.63,0,0,1,1.71.13s0,0,.07,0a6.31,6.31,0,0,1,2.46.68,1.38,1.38,0,0,1,.71.65c0,.06.07.1,0,.16a.3.3,0,0,1,.06.23,1.13,1.13,0,0,1-.06.32s0,.1,0,.13a2.81,2.81,0,0,1-1.26,1.27l-.68.35.62.07,3.27.39a4.07,4.07,0,0,0,1.88-1.49,2.08,2.08,0,0,0,.16-.46c0-.06,0-.1,0-.16l5.74.1,0-.55v-.49Z"/><path class="cls-59" d="M231.52,482c17.43.28,31.63-3.47,31.71-8.38s-14-9.13-31.43-9.41-31.63,3.48-31.71,8.39S214.08,481.72,231.52,482Z"/><polygon class="cls-59" points="263.23 473.62 263.49 467.94 257.75 468.7 200.36 466.92 200.09 472.6 218.84 478.77 245.6 475.82 263.23 473.62"/><path class="cls-51" d="M231.79,476.33c17.43.28,31.63-3.48,31.7-8.39s-14-9.12-31.42-9.4-31.63,3.47-31.71,8.38S214.35,476.05,231.79,476.33Z"/><path class="cls-60" d="M255.47,467.35l-.88,0h-.81l-3.56-.06a4,4,0,0,0-.32-.43,4.42,4.42,0,0,0-.85-.61c-.29-.16-.58-.29-.94-.46a14.91,14.91,0,0,0-3.53-.87,32.72,32.72,0,0,0-3.82-.29h-1.33a20.25,20.25,0,0,0-4.86.61,14.09,14.09,0,0,0-3.14,1.36,9,9,0,0,0-.94.62c-.36.23-.75.45-1.14.65a11.76,11.76,0,0,1-5.89,1.1c-2.72-.06-4.83-.58-5.51-1.46a.29.29,0,0,1-.13-.16.72.72,0,0,1-.13-.45c0-.88,1-1.66,2.3-2.21a1.85,1.85,0,0,1,.29-.13l-3.95-.48a5.18,5.18,0,0,0-2.11,1.39,2,2,0,0,0-.55,1.13l-3.79-.06h-.55l-1.62,0v1l1.3,0,4.82.06c.07.1.13.2.2.29a6.69,6.69,0,0,0,3.37,1.72h.06a26.35,26.35,0,0,0,6.39.78,25,25,0,0,0,6-.49,13.09,13.09,0,0,0,4.63-1.78c.07,0,.13-.1.2-.13a14.1,14.1,0,0,1,2.23-1.23,10.3,10.3,0,0,1,4.54-.71c2,0,4.28.42,4.89,1.29a.15.15,0,0,0,0,.07.86.86,0,0,1,.13.39v.06a1.46,1.46,0,0,1-.09.49s0,.06-.07.13a4,4,0,0,1-1.88,1.45l2.69.33,1.2.16a3.77,3.77,0,0,0,.45-.23,3.1,3.1,0,0,0,1.59-1.65v-.06a.53.53,0,0,0,.07-.2l3.46.07,2,0h.29l0-.55v-.49Z"/><path class="cls-59" d="M224.43,475.64c17.43.28,31.63-3.47,31.71-8.39s-14-9.12-31.42-9.4-31.63,3.48-31.71,8.39S207,475.36,224.43,475.64Z"/><polygon class="cls-59" points="256.14 467.25 256.41 461.58 250.66 462.34 193.28 460.56 193.01 466.24 211.76 472.41 238.51 469.46 256.14 467.25"/><ellipse class="cls-51" cx="224.84" cy="461.07" rx="8.89" ry="31.57" transform="translate(-239.78 678.47) rotate(-89.08)"/><path class="cls-60" d="M247.5,461h-1.27l-3.11-.07a3.13,3.13,0,0,0-1.19-1.1l-.17-.09a5.84,5.84,0,0,0-.87-.36,8.43,8.43,0,0,0-1.39-.42,24.85,24.85,0,0,0-5.84-.68h-1.07c-.68,0-1.32,0-1.94.09s-1.13.13-1.65.2a13.28,13.28,0,0,0-5.58,2.27c-.22.13-.45.29-.68.42,0,0,0,0,0,0a1.88,1.88,0,0,1-.42.23,12.35,12.35,0,0,1-5.93,1.13,18.39,18.39,0,0,1-2.53-.23,5,5,0,0,1-3-1.26,1.16,1.16,0,0,1-.23-.52v-.06a2.24,2.24,0,0,1,1-1.53,6,6,0,0,1,1.17-.68c.13-.06.26-.09.39-.16l-4-.45a3,3,0,0,0-.61.26,5.16,5.16,0,0,0-1.53,1.13,0,0,0,0,1,0,0,2.08,2.08,0,0,0-.45,1.07l-1.52,0h-1l-1.78,0-1.68,0v.52l0,.16v.39l3.5.07h1l1.68,0a2.7,2.7,0,0,0,.26.36c.87,1,2.95,1.68,5.51,2a29.1,29.1,0,0,0,4.21.39c5.15.06,8.2-.72,10.69-2.34l.16-.09a10.56,10.56,0,0,1,4.57-1.85h0c.61-.06,1.32-.1,2.13-.1,2.37,0,5.09.59,5.06,1.85a1,1,0,0,1-.1.45v0a4,4,0,0,1-1.94,1.58l3.88.46a4,4,0,0,0,1.92-1.53.24.24,0,0,0,.06-.16c.07-.06.07-.16.1-.26s0-.09,0-.16l2.43,0,3.31.07v-1Z"/><path class="cls-59" d="M234.16,462c17.43.28,31.63-3.47,31.71-8.38s-14-9.12-31.42-9.4-31.63,3.47-31.71,8.38S216.73,461.76,234.16,462Z"/><polygon class="cls-59" points="265.87 453.66 266.14 447.98 260.39 448.74 203 446.97 202.74 452.64 221.49 458.81 248.24 455.86 265.87 453.66"/><path class="cls-51" d="M234.43,456.37c17.43.28,31.63-3.48,31.71-8.39s-14-9.12-31.43-9.4S203.08,442.05,203,447,217,456.09,234.43,456.37Z"/><path class="cls-60" d="M258.35,447.39l-1.13,0-4.38-.06a1.1,1.1,0,0,0-.32-.39.38.38,0,0,0-.13-.16s-.06,0-.1-.1a5.83,5.83,0,0,0-1.52-.84,21.66,21.66,0,0,0-7.39-1.17h-1.29a22.27,22.27,0,0,0-4,.42.15.15,0,0,0-.07,0,13.13,13.13,0,0,0-4.08,1.62c-.26.17-.52.33-.78.52a10.38,10.38,0,0,1-1.13.65,11.81,11.81,0,0,1-5.93,1.1c-2.75-.06-4.86-.61-5.51-1.46a.9.9,0,0,1-.22-.61c0-.88,1-1.65,2.23-2.21l.33-.13-4-.48a5.28,5.28,0,0,0-2.1,1.42,1.81,1.81,0,0,0-.52,1.11l-4.38-.07-1.58,0v1l6.12.09c1,1.72,5.31,2.72,10,2.79a29.71,29.71,0,0,0,5.28-.32,13.48,13.48,0,0,0,5.57-2.08,10.53,10.53,0,0,1,.94-.58l0,0a9.77,9.77,0,0,1,5.8-1.33c2.33,0,5.05.55,5,1.81a1.23,1.23,0,0,1-.1.49,3.69,3.69,0,0,1-1.94,1.59l3.56.45h.16l.17,0a3.23,3.23,0,0,0,2-1.94.51.51,0,0,0,.06-.2l4.7.07,1,0v-1Z"/><ellipse class="cls-51" cx="278.24" cy="483.42" rx="33.63" ry="34.59" transform="translate(-6.87 4.02) rotate(-0.82)"/><path class="cls-60" d="M280.16,480.38A21.76,21.76,0,0,1,274,477a1.67,1.67,0,0,1-.32-.33,5,5,0,0,1-1.43-3.56c0-2.59,1.75-5.61,6.58-5.67a14.52,14.52,0,0,1,8,2.11l1.49-4.31a16.14,16.14,0,0,0-8.2-2.14l-.06-6.29h-.84l-3.08.07.06,3.27,0,3.27c-5.77,1-9.43,5.15-9.34,10.53a8.87,8.87,0,0,0,.62,3.31,2.69,2.69,0,0,0,.16.45c1.46,3.31,4.93,5.41,9.75,7.29s7.16,4,7.2,7.58-2.92,6.39-7.39,6.45a16.21,16.21,0,0,1-9.07-2.66l-1.4,4.22-.06.16a17.87,17.87,0,0,0,9.65,2.69l.1,6.54,3.95-.06-.09-6.74a12.72,12.72,0,0,0,4.79-1.85,10.64,10.64,0,0,0,5-9.27C290,486.31,286.67,483,280.16,480.38Z"/></g><path class="cls-58" d="M365.06,129.4h-3V109.53l-6,2.21V109l8.54-3.21h.47Z"/><path class="cls-58" d="M503.3,259.07H487.93v-2.14l8.12-9a19,19,0,0,0,2.49-3.33,5.54,5.54,0,0,0,.69-2.65,4.19,4.19,0,0,0-1.12-3,3.88,3.88,0,0,0-3-1.17,4.64,4.64,0,0,0-3.46,1.26,4.85,4.85,0,0,0-1.23,3.52h-3a6.91,6.91,0,0,1,2.09-5.23,7.74,7.74,0,0,1,5.58-2,7.41,7.41,0,0,1,5.17,1.72,5.82,5.82,0,0,1,1.9,4.56q0,3.47-4.41,8.25l-6.29,6.82H503.3Z"/><path class="cls-58" d="M523.4,376h2.24a4.9,4.9,0,0,0,3.32-1.11,3.69,3.69,0,0,0,1.21-2.91q0-4.12-4.11-4.13A4.25,4.25,0,0,0,523,369a3.84,3.84,0,0,0-1.15,2.92h-3a6,6,0,0,1,2-4.63,7.44,7.44,0,0,1,5.18-1.85,7.35,7.35,0,0,1,5.21,1.76,6.37,6.37,0,0,1,1.88,4.88,5.18,5.18,0,0,1-1,3,6,6,0,0,1-2.7,2.14,5.73,5.73,0,0,1,3,2,5.59,5.59,0,0,1,1.06,3.46,6.37,6.37,0,0,1-2.07,5,7.69,7.69,0,0,1-5.36,1.86,7.93,7.93,0,0,1-5.37-1.79,5.94,5.94,0,0,1-2.08-4.72h3a3.82,3.82,0,0,0,1.21,3,4.62,4.62,0,0,0,3.24,1.11,4.5,4.5,0,0,0,3.3-1.12,4.33,4.33,0,0,0,1.15-3.24,3.93,3.93,0,0,0-1.26-3.14,5.49,5.49,0,0,0-3.63-1.13H523.4Z"/><path class="cls-58" d="M497.38,511.18h3.26v2.43h-3.26v5.44h-3v-5.44H483.7v-1.76l10.51-16.26h3.17Zm-10.29,0h7.3V499.67l-.36.64Z"/><path class="cls-58" d="M335.93,637.14l1.19-11.7h12v2.76h-9.49l-.71,6.4a7.54,7.54,0,0,1,3.92-1A6.49,6.49,0,0,1,348,635.7a8.33,8.33,0,0,1,1.88,5.73,8,8,0,0,1-1.95,5.71,7.16,7.16,0,0,1-5.48,2.09,7.41,7.41,0,0,1-5.07-1.73,6.88,6.88,0,0,1-2.24-4.77h2.82a4.72,4.72,0,0,0,1.43,3,4.49,4.49,0,0,0,3.06,1,4,4,0,0,0,3.27-1.41,5.94,5.94,0,0,0,1.18-3.92,5.46,5.46,0,0,0-1.28-3.78,4.35,4.35,0,0,0-3.41-1.42,4.9,4.9,0,0,0-3.06.85l-.79.64Z"/></svg>