<svg xmlns="http://www.w3.org/2000/svg" xmlns:xlink="http://www.w3.org/1999/xlink" width="447.67" height="451.164" viewBox="0 0 447.67 451.164">
  <defs>
    <clipPath id="clip-path">
      <path id="Trazado_227608" data-name="Trazado 227608" d="M410.61,189.56,304.53,128.31a5.28,5.28,0,0,0-7.92,4.56l-.3,107A13.43,13.43,0,0,0,303,251.52l110.81,64a4.4,4.4,0,0,0,6.6-3.8l.3-104.54a20.27,20.27,0,0,0-10.1-17.62Z" fill="none"/>
    </clipPath>
  </defs>
  <g id="Grupo_124106" data-name="Grupo 124106" transform="translate(-915 -349)">
    <g id="CF6_documentación" transform="translate(883.28 321.532)">
      <g id="Layer_1" data-name="Layer 1">
        <g id="Grupo_124020" data-name="Grupo 124020" opacity="0.3">
          <path id="Trazado_227581" data-name="Trazado 227581" d="M466.56,388.73,314.51,477a12.07,12.07,0,0,1-12.12,0L51.22,330.79a12.08,12.08,0,0,1,0-20.92l153.69-89.26a12.07,12.07,0,0,1,12.12,0L465.77,377.79C472.38,381.5,472,385.42,466.56,388.73Z" fill="#ccc"/>
        </g>
        <path id="Trazado_227582" data-name="Trazado 227582" d="M469.44,375.54s-7.37.72-9.86-.6l-255-148.56a11.5,11.5,0,0,0-11.53,0l-140.42,76c-9.82,6.84-7.75,21.16-.1,25.58l250.82,144.8a11.5,11.5,0,0,0,11.53,0l153-88.9c3.6-2.27,2.48-6.07,1.58-8.31Z" fill="#6698db"/>
        <path id="Trazado_227583" data-name="Trazado 227583" d="M199.58,40l3.74,173.49a12.91,12.91,0,0,0,6.4,11.18l250.53,147.8c8.35,4.88,18.64-2.91,18.67-12.65L479.39,191a12.8,12.8,0,0,0-6.27-11.06L218.65,29.4C210.13,24.36,199,29.63,199.58,40Z" fill="#071022"/>
        <path id="Trazado_227584" data-name="Trazado 227584" d="M199.48,39,199,215.7a12.9,12.9,0,0,0,6.41,11.17L455.85,373a12.55,12.55,0,0,0,18.83-11l.47-168.89a12.82,12.82,0,0,0-6.27-11.06L213.52,31.1A9.25,9.25,0,0,0,199.48,39Z" fill="#12263f"/>
        <path id="Trazado_227585" data-name="Trazado 227585" d="M209.02,40.27l-.53,173.09L464.31,361.25l.51-171.33Z" fill="#12428e"/>
        <path id="Trazado_227586" data-name="Trazado 227586" d="M214.12,50.52l-.51,157.23L459.2,349.74l.5-155.56Z" fill="#9182ca"/>
        <path id="Trazado_227587" data-name="Trazado 227587" d="M320.75,232.6c-16.38-9.46-29.6-32.34-29.54-51.17s13.35-26.37,29.73-16.91,29.6,32.34,29.55,51.14-13.38,26.39-29.74,16.94M328,144.32l-14-8.11-2,11.41a28.7,28.7,0,0,0-12.81-1.3l-9.09-12.51-10,5.65,6.31,14.16a27.62,27.62,0,0,0-5.36,11.62l-10.93-4-.05,16.11L281,185.9a82.882,82.882,0,0,0,5.28,17.77l-6.37,6.81,9.9,17.15,9.13-2a85.431,85.431,0,0,0,12.78,13.47l1.94,13.69,14,8.11,2-11.43a29,29,0,0,0,12.84,1.32l9.09,12.51,10-5.68-6.31-14.13a28,28,0,0,0,5.37-11.62l10.9,4V219.75l-10.89-8.56a84.868,84.868,0,0,0-5.28-17.77l6.37-6.84-9.91-17.12-9.13,2A85.73,85.73,0,0,0,330,158l-2-13.68" fill="#12428e"/>
        <path id="Trazado_227588" data-name="Trazado 227588" d="M320.9,181.11c-8.4-4.85-15.2-1-15.23,8.67s6.73,21.36,15.13,26.2,15.2,1,15.22-8.67-6.75-21.37-15.12-26.2" fill="#12428e"/>
        <g id="Grupo_124021" data-name="Grupo 124021" clip-path="url(#clip-path)">
          <path id="Trazado_227589" data-name="Trazado 227589" d="M341.36,188.78a8.45,8.45,0,0,1-1.71-2.6,22.5,22.5,0,0,1-1.52-3.58c-.66-2-1-4.45.37-6.11a1.35,1.35,0,0,1,1.73-.54,4.59,4.59,0,0,1,1.21.61c.45.32.57.7,1,.24.69-.67,1.34-1.39,2-2.05,4.07-3.9,9.52-6.9,15.32-5.62l.83.21a3.32,3.32,0,0,1,1.94,1.4,2.75,2.75,0,0,0,1.86,1.45,29,29,0,0,1,3.67.82,11.2,11.2,0,0,1,6.17,3.78c1,1.42.82,3.15.59,4.81.1-.76,1.93.07,2.17.23a8.51,8.51,0,0,1,2.79,4,6.84,6.84,0,0,1-.27,4.26c-1.16,4.08-1.89,9-5.09,14.5-1.68,2.88-5.5,7.14-6,6.8C368.53,211.39,341.52,188.9,341.36,188.78Z" fill="#12263f"/>
          <path id="Trazado_227590" data-name="Trazado 227590" d="M356.18,216.47a19.462,19.462,0,0,1-4.35.69c-14-1.37-11.94-16.52-11.48-25,.17-3,.08-6.88,2.46-9.15a2.51,2.51,0,0,1,.93-.61c1-.33,2,.33,2.89.91a21.58,21.58,0,0,0,6.23,3,23.22,23.22,0,0,0,6.8.46c1.34,0,3.1.53,3.62,1.89.65,1.68-2,4-.46,5.5.94,1,2,1.19,2.38,2.66a9.881,9.881,0,0,1,.19,2.87,1.11,1.11,0,0,0,1.43,1.2c1.63-.52,1.08-3.12,1.6-4.35.67-1.59,1.88-2.05,3.65-2.09,3.87-.1,1.67,11.77-2.65,12.9,0,0-.64,5.74-1.21,12.45-.22,2.55-6,2-8.14,1.59-.87-.18-3.75-1.27-3.75-2.39C356.32,217.76,356.16,216.44,356.18,216.47Z" fill="#ffcaa9"/>
          <path id="Trazado_227591" data-name="Trazado 227591" d="M355.31,212.05c-.06-.56.46-.72.88-.88l1.89-.72a34.9,34.9,0,0,0,5.37-2.49,27.07,27.07,0,0,0,3.54-2.57c.55-.46,1.09-.95,1.61-1.44a9.459,9.459,0,0,1,1.5-1.33.76.76,0,0,1,1,.33c.45.76-.49,1.47-.95,2-.69.73-1.42,1.43-2.17,2.08a28.5,28.5,0,0,1-10,5.75,5.17,5.17,0,0,1-1.75.23,1,1,0,0,1-1-.66,2.167,2.167,0,0,1,.08-.3Z" fill="#6698db"/>
          <path id="Trazado_227592" data-name="Trazado 227592" d="M349.78,214.36a2.23,2.23,0,0,0,2.5,1.25,12.32,12.32,0,0,0,3.91-1.33,2.1,2.1,0,0,0,1.37-1.65,2.13,2.13,0,0,0-.72-2,3.91,3.91,0,0,0-2.74-.24,17.841,17.841,0,0,0-2.88.72,3.49,3.49,0,0,0-.93.4,2.3,2.3,0,0,0-.66,2.35A2,2,0,0,0,349.78,214.36Z" fill="#12263f"/>
          <path id="Trazado_227593" data-name="Trazado 227593" d="M370.34,194.71c2.06-1.2,3.73-.23,3.74,2.13a8.17,8.17,0,0,1-3.72,6.43c-2.05,1.19-3.72.24-3.73-2.14a8.21,8.21,0,0,1,3.71-6.42" fill="#c2deff"/>
          <path id="Trazado_227594" data-name="Trazado 227594" d="M371.44,205.7l-3.58-2.1,5.14-9.15,3.72,2.17Z" fill="#c2deff"/>
          <path id="Trazado_227595" data-name="Trazado 227595" d="M374.11,196.91c2.07-1.2,3.74-.23,3.74,2.13a8.16,8.16,0,0,1-3.71,6.43c-2.05,1.19-3.72.24-3.73-2.14a8.17,8.17,0,0,1,3.7-6.42" fill="#c2deff"/>
          <path id="Trazado_227596" data-name="Trazado 227596" d="M374.11,197.15c1.95-1.13,3.53-.22,3.53,2a7.67,7.67,0,0,1-3.5,6.07c-1.94,1.12-3.51.22-3.52-2a7.75,7.75,0,0,1,3.49-6.06" fill="#fff"/>
          <path id="Trazado_227597" data-name="Trazado 227597" d="M374.12,197.72c1.59-1,2.87-.18,2.88,1.73a6.71,6.71,0,0,1-2.86,5.21c-1.58,1-2.87.19-2.87-1.73a6.7,6.7,0,0,1,2.85-5.21" fill="none" stroke="#4470c2" stroke-miterlimit="10" stroke-width="0.2"/>
          <path id="Trazado_227598" data-name="Trazado 227598" d="M368.85,198.66s1.24-9.16-2.22-14.21c-4.7-6.88-17.42-10.51-22.17-9.61a9.69,9.69,0,0,1,5.54-4.16,28.74,28.74,0,0,1,19.93,10.5c2.65,3.32,3.38,9.79,3.47,14.48Z" fill="#c2deff"/>
          <path id="Trazado_227599" data-name="Trazado 227599" d="M319.26,214.14s-6.31-.9-7.83,4C311.43,218.17,318.27,220.65,319.26,214.14Z" fill="#f171a5"/>
          <path id="Trazado_227600" data-name="Trazado 227600" d="M319.36,216.19a7.48,7.48,0,0,1-.26-7,18.3,18.3,0,0,0,1.2-3c.16-.61.29-1.68-.24-2.16-1.34-1.23-2.5,1.3-2.94,2.12-.74,1.4-1.63-.51-1.92-1.17a20.413,20.413,0,0,1-1.08-3.23c-.21-.83-.28-2-1.28-2.3a1,1,0,0,0-1.18.57,4,4,0,0,0-1.19-.78,1.41,1.41,0,0,0-1.35.12,2,2,0,0,0-.53,1.68,2.14,2.14,0,0,0-1.47-.13c-.7.24-.67,1.35-.6,2.11a.62.62,0,0,0-.52.44,4.569,4.569,0,0,0,0,1.69,15.73,15.73,0,0,0,1.9,6,37.7,37.7,0,0,0,5.1,7.64,1.1,1.1,0,0,0,.15.16L320,217.3Z" fill="#ffcaa9"/>
          <path id="Trazado_227601" data-name="Trazado 227601" d="M352.13,233.9l-.21-.34c-1.11-1.82-1.5-3.78-2.29-5.71-.5-1.24-1.37-3.52-3.07-3.39a4,4,0,0,0-1.92.86,55,55,0,0,0-6.89,6.14c-1.33,1.31-4.17,5.62-6.44,4.42a4.18,4.18,0,0,1-1.29-1.29c-2.67-3.7-10.76-20.45-10.76-20.45s-.09,1.9-3.34,3.29a9.78,9.78,0,0,1-4.49.74s6.18,19.37,10.38,28.1c1.61,3.35,3.74,6.3,7.82,6.25,3.73-.06,7.17-2.3,10.14-4.33s5.66-4.36,8.44-6.59a17,17,0,0,0,3.81-3.67,3.69,3.69,0,0,0,.53-3.19,4.709,4.709,0,0,0-.42-.84Z" fill="#ff8bb7"/>
          <path id="Trazado_227602" data-name="Trazado 227602" d="M352.13,233.9l-.21-.34c-1.11-1.82-1.5-3.78-2.29-5.71-.5-1.24-1.37-3.52-3.07-3.39a4,4,0,0,0-1.92.86c-.61.42-1.2.88-1.77,1.35-.44.72-.83,1.45-1.17,2.12a72.724,72.724,0,0,0-3.58,9.84c-1.14,3.41-2.58,7-5.16,9.62a9.32,9.32,0,0,1-7.65,2.82,6.64,6.64,0,0,0,4.32,1.45c3.73-.06,7.17-2.3,10.14-4.33s5.66-4.36,8.44-6.59a17,17,0,0,0,3.81-3.67,3.69,3.69,0,0,0,.53-3.19A4.71,4.71,0,0,0,352.13,233.9Z" fill="#f171a5"/>
          <path id="Trazado_227603" data-name="Trazado 227603" d="M339,308.66a10.34,10.34,0,0,1-.51-3c-.28-15.23.5-30.77,1-46.11.35-11.09-2.09-26.24,5.67-35.09,8.74-10,29.68-4.7,35.8,6.3,2.77,5,3.79,10.76,4.1,16.39.51,9-5.79,26.42-5.6,68.1,0,.57-3.93,2-4.35,2.21a35.89,35.89,0,0,1-11.45,2.72C355.72,320.65,341.81,317.27,339,308.66Z" fill="#f9aac2"/>
          <path id="Trazado_227604" data-name="Trazado 227604" d="M385,247.12c-.09-1.62-.25-3.25-.48-4.87a21.921,21.921,0,0,0-3.27-1.58,9.17,9.17,0,0,0-1-.31.33.33,0,0,0-.08-.27c-1.49-1.61-6-2.05-7,.39a5.269,5.269,0,0,0-.23,2c.13,8.46.32,16.92-.11,25.38-.41,8.11-1,17-3.8,24.66-1.48,4.13-3.93,8-8,9.91-4.32,2.08-9.31,2.31-14,2.05a50.359,50.359,0,0,1-8.66-1.35c0,.83,0,1.66,0,2.48a10.34,10.34,0,0,0,.51,3c2.82,8.61,16.73,12,24.64,11.49a35.889,35.889,0,0,0,11.45-2.72c.42-.18,4.35-1.64,4.35-2.21C379.24,273.54,385.54,256.15,385,247.12Z" fill="#999" opacity="0.1"/>
          <path id="Trazado_227605" data-name="Trazado 227605" d="M359.6,219.15a12.9,12.9,0,0,1,1.09,4.48s5.66-.42,9-2.17l-1.3-3.35S365.69,219.86,359.6,219.15Z" fill="#f171a5"/>
          <path id="Trazado_227606" data-name="Trazado 227606" d="M389.05,261.82v-.35a107,107,0,0,0-3.4-16.47c-1.31-4.79-2.2-10.92-5.13-15-1.52-2.11-4.47-4.38-7.21-3.51-2.56.81-3.25,3.71-3.4,6.09-.24,3.88.92,8.2,1.56,12,1.57,9.37,4.92,19,5,28.47a10.138,10.138,0,0,1-.17,1.73c-1.83,12.14-3,24.57-5.69,36.56a.88.88,0,0,0,.83,1.09,46.5,46.5,0,0,0,7.08.21c1.33-.07,4.16,0,5.08-1.12a4.44,4.44,0,0,0,.72-2.14c.24-1.5.14-3,.44-4.49.39-2,.78-3.92,1.15-5.88.75-3.93,1.46-7.87,2-11.83C389.19,278.81,389.94,270.22,389.05,261.82Z" fill="#ff8bb7"/>
          <path id="Trazado_227607" data-name="Trazado 227607" d="M359.6,219.15a6.71,6.71,0,0,1-3.32-1.35l-2,1.72a20.1,20.1,0,0,0,2.35,2.87,13,13,0,0,1,2.97-3.24Z" fill="#f171a5"/>
        </g>
        <path id="Trazado_227609" data-name="Trazado 227609" d="M308.78,176.07a1.64,1.64,0,0,1-.74-1.27V161.23c0-.47.33-.65.74-.42L326,170.7a1.65,1.65,0,0,1,.73,1.27v13.57c0,.47-.33.65-.74.42l-10.17-5.88a1.44,1.44,0,0,0-1.38-.15l-3,1.63v-1.73a4.32,4.32,0,0,0-1.95-3.38l-.67-.38M326,169.3l-17.13-9.89c-1.08-.62-2-.12-2,1.12v13.56a4.34,4.34,0,0,0,1.95,3.38l.67.39a1.6,1.6,0,0,1,.74,1.27V181a2.6,2.6,0,0,0,.72,1.66,2.09,2.09,0,0,0,.45.36.83.83,0,0,0,.82.09l3-1.67a.51.51,0,0,1,.52.06l10.18,5.87c1.08.62,2,.12,2-1.12V172.69a4.31,4.31,0,0,0-2-3.38" fill="#fff"/>
        <path id="Trazado_227610" data-name="Trazado 227610" d="M312.14,168.67c-.88-.52-1.61-.1-1.61.91a3.54,3.54,0,0,0,1.6,2.77c.88.51,1.6.1,1.6-.92a3.48,3.48,0,0,0-1.59-2.76" fill="#fff"/>
        <path id="Trazado_227611" data-name="Trazado 227611" d="M317.37,171.69c-.88-.51-1.6-.1-1.61.91a3.54,3.54,0,0,0,1.6,2.77c.89.51,1.61.1,1.61-.91a3.52,3.52,0,0,0-1.6-2.77" fill="#fff"/>
        <path id="Trazado_227612" data-name="Trazado 227612" d="M322.6,174.71c-.88-.51-1.6-.1-1.61.91a3.54,3.54,0,0,0,1.6,2.77c.89.52,1.61.1,1.61-.91a3.49,3.49,0,0,0-1.6-2.77" fill="#fff"/>
        <path id="Trazado_227613" data-name="Trazado 227613" d="M410.61,189.56,304.53,128.31a5.28,5.28,0,0,0-7.92,4.56l-.3,107A13.43,13.43,0,0,0,303,251.52l110.81,64a4.4,4.4,0,0,0,6.6-3.8l.3-104.54a20.27,20.27,0,0,0-10.1-17.62Z" fill="none" stroke="#00e2ca" stroke-miterlimit="10" stroke-width="2"/>
        <path id="Trazado_227614" data-name="Trazado 227614" d="M242.1,195c-3.66-2.11-6.64-7.81-6.64-12.69s3-7.14,6.64-5,6.65,7.81,6.65,12.69S245.77,197.09,242.1,195Z" fill="#fff"/>
        <path id="Trazado_227615" data-name="Trazado 227615" d="M271.93,212.19c-3.67-2.11-6.65-7.81-6.65-12.69s3-7.14,6.65-5,6.64,7.81,6.64,12.69S275.59,214.31,271.93,212.19Z" fill="#fff"/>
        <path id="Trazado_227616" data-name="Trazado 227616" d="M271.93,204.7l-28.35-16.36a5.36,5.36,0,0,1-2-2.54,5.13,5.13,0,0,1-.36-3.2l3.8-10.27c.22-.57.81-.57,1.34,0a2.38,2.38,0,0,1,.56,2.11l-3.78,10.19a1.12,1.12,0,0,0,.09.5,1,1,0,0,0,.37.45L271.93,202a2.47,2.47,0,0,1,1,2C273,204.68,272.49,205,271.93,204.7Z" fill="#fff"/>
        <path id="Trazado_227617" data-name="Trazado 227617" d="M280.67,160.1a5.27,5.27,0,0,0-2-2.53L236,132.94l-2-7.29a2.35,2.35,0,0,0-.93-1.36l-9.49-5.48c-.57-.32-1,0-1,.78a2.45,2.45,0,0,0,1,2l8.82,5.09,12.52,45.47a5.65,5.65,0,0,0,2.29,3.35l24.53,14.16a1.48,1.48,0,0,0,2.39-1l7-25.37A5.17,5.17,0,0,0,280.67,160.1ZM269.6,180.51l-20.94-12.09a2.46,2.46,0,0,1-1-2c0-.75.46-1.1,1-.77l20.94,12.09a2.43,2.43,0,0,1,1,1.95C270.63,180.49,270.17,180.83,269.6,180.51Zm1.79-7.59-24.52-14.16a2.47,2.47,0,0,1-1-2c0-.75.46-1.1,1-.77l24.52,14.16a2.42,2.42,0,0,1,1,1.95C272.41,172.9,272,173.24,271.39,172.92Zm1.47-7.78L245.4,149.29a2.47,2.47,0,0,1-1-2c0-.75.46-1.1,1-.77l27.46,15.85a2.45,2.45,0,0,1,1,2c.02.75-.44,1.09-1,.77Z" fill="#fff"/>
        <path id="Trazado_227618" data-name="Trazado 227618" d="M225.46,121.39c0,1.19-.72,1.73-1.62,1.22a3.88,3.88,0,0,1-1.61-3.09c0-1.19.72-1.74,1.61-1.22A3.85,3.85,0,0,1,225.46,121.39Z" fill="#fff"/>
        <path id="Trazado_227619" data-name="Trazado 227619" d="M214.06,69.25,459.64,211.24l.06-17.06L214.12,50.52Z" fill="#12263f"/>
        <path id="Trazado_227620" data-name="Trazado 227620" d="M454.09,195.33,221.26,59.13A2.23,2.23,0,0,0,217.91,61v4a3.56,3.56,0,0,0,1.79,3.11l233,134.69a2.15,2.15,0,0,0,3.21-1.85v-2.49a3.6,3.6,0,0,0-1.821-3.13Z" fill="#071022"/>
        <g id="Grupo_124022" data-name="Grupo 124022" opacity="0.05">
          <path id="Trazado_227621" data-name="Trazado 227621" d="M241.46,59.25,208.91,74.3l-.38,124.26,151.43-69.98Z" fill="#fff"/>
          <path id="Trazado_227622" data-name="Trazado 227622" d="M379.71,140.13,214.17,216.64l30.56,17.67,165.34-76.42Z" fill="#fff"/>
          <path id="Trazado_227623" data-name="Trazado 227623" d="M429.82,169.45,264.61,245.8l119.28,68.96,80.67-37.27.26-87.57Z" fill="#fff"/>
          <path id="Trazado_227624" data-name="Trazado 227624" d="M434.33,343.93l30.07-13.9.1-31.83-60.73,28.06Z" fill="#fff"/>
        </g>
        <path id="Trazado_227625" data-name="Trazado 227625" d="M468.27,379.12,314.51,467.86a11.5,11.5,0,0,1-11.53,0L52.64,322.29a11.5,11.5,0,0,1,0-19.9l140.8-81.25a11.49,11.49,0,0,1,11.52,0L468.28,374.23a2.82,2.82,0,0,1-.01,4.89Z" fill="#e4ddfb"/>
        <path id="Trazado_227626" data-name="Trazado 227626" d="M257.73,385l-38.42,22.75a3.08,3.08,0,0,1-3.09,0L148.94,368.9a3.07,3.07,0,0,1,0-5.33l36.82-20.84a3.08,3.08,0,0,1,3.09,0l68.89,40.95a.75.75,0,0,1-.01,1.32Z" fill="#fff7ff"/>
        <path id="Trazado_227627" data-name="Trazado 227627" d="M200.43,244.14l8.53,4.91a4.2,4.2,0,0,0,3.78,0l4.34-2.48c1.06-.61,1.09-1.58.06-2.16l-8.54-4.89a4.22,4.22,0,0,0-3.76,0L200.51,242C199.45,242.6,199.41,243.56,200.43,244.14Z" fill="#6698db"/>
        <path id="Trazado_227628" data-name="Trazado 227628" d="M215.48,252.8l8.63,5a4.23,4.23,0,0,0,3.81,0l4.35-2.5c1.07-.61,1.09-1.59,0-2.19l-8.65-4.94a4.22,4.22,0,0,0-3.79,0l-4.33,2.49C214.48,251.24,214.45,252.21,215.48,252.8Z" fill="#6698db"/>
        <path id="Trazado_227629" data-name="Trazado 227629" d="M230.71,261.56l8.74,5a4.23,4.23,0,0,0,3.84,0l4.36-2.53c1.07-.62,1.08-1.6,0-2.2l-8.75-5a4.25,4.25,0,0,0-3.82,0l-4.35,2.51C229.69,260,229.67,261,230.71,261.56Z" fill="#6698db"/>
        <path id="Trazado_227630" data-name="Trazado 227630" d="M246.13,270.43l8.84,5.09a4.26,4.26,0,0,0,3.87,0l4.38-2.55c1.07-.63,1.08-1.63,0-2.24l-8.86-5.06a4.26,4.26,0,0,0-3.84,0l-4.37,2.53C245.09,268.83,245.08,269.83,246.13,270.43Z" fill="#6698db"/>
        <path id="Trazado_227631" data-name="Trazado 227631" d="M261.74,279.41l8.95,5.16a4.32,4.32,0,0,0,3.9,0L279,282a1.2,1.2,0,0,0,0-2.26l-9-5.13a4.31,4.31,0,0,0-3.88,0l-4.38,2.56C260.68,277.8,260.67,278.8,261.74,279.41Z" fill="#6698db"/>
        <path id="Trazado_227632" data-name="Trazado 227632" d="M277.53,288.5l9.07,5.22a4.29,4.29,0,0,0,3.93,0l4.4-2.6a1.21,1.21,0,0,0,0-2.28l-9.08-5.19a4.26,4.26,0,0,0-3.9,0l-4.4,2.57a1.2,1.2,0,0,0-.02,2.28Z" fill="#6698db"/>
        <path id="Trazado_227633" data-name="Trazado 227633" d="M293.53,297.71l9.18,5.28a4.35,4.35,0,0,0,4,0l4.42-2.62a1.22,1.22,0,0,0,0-2.31l-9.2-5.25a4.29,4.29,0,0,0-3.93,0l-4.41,2.6a1.22,1.22,0,0,0-.06,2.3Z" fill="#6698db"/>
        <path id="Trazado_227634" data-name="Trazado 227634" d="M309.73,307l9.29,5.35a4.36,4.36,0,0,0,4,0l4.43-2.65c1.09-.65,1.06-1.69-.05-2.33l-9.31-5.32a4.37,4.37,0,0,0-4,0l-4.42,2.63A1.232,1.232,0,0,0,309.73,307Z" fill="#6698db"/>
        <path id="Trazado_227635" data-name="Trazado 227635" d="M326.13,316.46l9.41,5.42a4.39,4.39,0,0,0,4,0l4.45-2.68c1.09-.65,1.05-1.71-.08-2.35l-9.43-5.39a4.36,4.36,0,0,0-4,0l-4.44,2.66A1.249,1.249,0,0,0,326.13,316.46Z" fill="#6698db"/>
        <path id="Trazado_227636" data-name="Trazado 227636" d="M342.73,326l9.54,5.49a4.39,4.39,0,0,0,4.05,0l4.46-2.69c1.09-.66,1.05-1.73-.1-2.39L351.13,321a4.36,4.36,0,0,0-4,0l-4.45,2.67C341.57,324.3,341.6,325.36,342.73,326Z" fill="#6698db"/>
        <path id="Trazado_227637" data-name="Trazado 227637" d="M359.55,335.69l9.66,5.56a4.42,4.42,0,0,0,4.08,0l4.48-2.72c1.09-.67,1-1.74-.12-2.41L368,330.59a4.41,4.41,0,0,0-4.06,0l-4.46,2.7C358.36,334,358.4,335,359.55,335.69Z" fill="#6698db"/>
        <path id="Trazado_227638" data-name="Trazado 227638" d="M376.59,345.49l9.78,5.63a4.47,4.47,0,0,0,4.12,0l4.48-2.75c1.1-.67,1-1.76-.14-2.43l-9.79-5.6a4.41,4.41,0,0,0-4.09,0l-4.48,2.73C375.37,343.74,375.43,344.82,376.59,345.49Z" fill="#6698db"/>
        <path id="Trazado_227639" data-name="Trazado 227639" d="M393.84,355.42l9.91,5.7a4.48,4.48,0,0,0,4.15,0l4.5-2.77c1.1-.68,1-1.78-.16-2.46l-9.92-5.68a4.49,4.49,0,0,0-4.13,0L393.7,353C392.6,353.64,392.66,354.74,393.84,355.42Z" fill="#6698db"/>
        <path id="Trazado_227640" data-name="Trazado 227640" d="M429.88,366l-10.05-5.74a4.5,4.5,0,0,0-4.16,0L411.16,363c-1.1.68-1,1.79.16,2.47l10,5.78a4.48,4.48,0,0,0,4.18,0l4.52-2.81C431.16,367.77,431.08,366.65,429.88,366Z" fill="#6698db"/>
        <path id="Trazado_227641" data-name="Trazado 227641" d="M186.23,252.77l7.83,4.55a5.23,5.23,0,0,0,4.72,0l7.88-4.52c1.34-.76,1.38-2,.1-2.71l-7.84-4.52a5.22,5.22,0,0,0-4.7.05l-7.86,4.48C185,250.82,185,252,186.23,252.77Z" fill="#6698db"/>
        <path id="Trazado_227642" data-name="Trazado 227642" d="M221.32,258.44l-7.94-4.57a5.25,5.25,0,0,0-4.73,0l-7.89,4.52c-1.33.77-1.38,2-.1,2.73l7.91,4.61a5.26,5.26,0,0,0,4.76,0l7.91-4.55C222.58,260.41,222.61,259.18,221.32,258.44Z" fill="#6698db"/>
        <path id="Trazado_227643" data-name="Trazado 227643" d="M236,266.92l-8-4.62a5.28,5.28,0,0,0-4.77,0l-7.91,4.56c-1.34.77-1.38,2-.09,2.76l8,4.66a5.31,5.31,0,0,0,4.8,0l7.93-4.6C237.33,268.92,237.35,267.68,236,266.92Z" fill="#6698db"/>
        <path id="Trazado_227644" data-name="Trazado 227644" d="M193.21,274l7.94,4.68a5.24,5.24,0,0,0,4.78,0l8-4.59c1.34-.78,1.38-2,.09-2.78l-8-4.64a5.26,5.26,0,0,0-4.76,0l-7.94,4.57C192,272,191.93,273.21,193.21,274Z" fill="#6698db"/>
        <path id="Trazado_227645" data-name="Trazado 227645" d="M171.5,261.17l14.55,8.58a5.23,5.23,0,0,0,4.75,0l7.94-4.56c1.34-.77,1.39-2,.11-2.74l-14.6-8.51a5.19,5.19,0,0,0-4.7,0l-7.91,4.51C170.3,259.21,170.24,260.43,171.5,261.17Z" fill="#6698db"/>
        <path id="Trazado_227646" data-name="Trazado 227646" d="M228.73,279.82l-8.06-4.69a5.26,5.26,0,0,0-4.79,0l-8,4.6c-1.35.78-1.4,2-.1,2.8l8,4.73a5.29,5.29,0,0,0,4.82,0l8-4.64C230,281.84,230,280.59,228.73,279.82Z" fill="#6698db"/>
        <path id="Trazado_227647" data-name="Trazado 227647" d="M243.64,288.52l-8.15-4.75a5.29,5.29,0,0,0-4.82,0l-8,4.65c-1.36.78-1.39,2.05-.08,2.82l8.13,4.79a5.29,5.29,0,0,0,4.85,0l8-4.68C245,290.56,245,289.29,243.64,288.52Z" fill="#6698db"/>
        <path id="Trazado_227648" data-name="Trazado 227648" d="M258.73,297.32l-8.24-4.81a5.34,5.34,0,0,0-4.86,0l-8,4.68c-1.36.8-1.38,2.08-.05,2.86l8.22,4.84a5.31,5.31,0,0,0,4.89,0l8-4.72C260.06,299.38,260.07,298.1,258.73,297.32Z" fill="#6698db"/>
        <path id="Trazado_227649" data-name="Trazado 227649" d="M274,306.22l-8.34-4.86a5.33,5.33,0,0,0-4.9,0l-8,4.73c-1.36.8-1.38,2.09,0,2.88l8.32,4.9a5.36,5.36,0,0,0,4.93,0l8.06-4.77A1.541,1.541,0,0,0,274,306.22Z" fill="#6698db"/>
        <path id="Trazado_227650" data-name="Trazado 227650" d="M289.46,315.23,281,310.31a5.35,5.35,0,0,0-4.94,0L268,315.1c-1.37.81-1.38,2.11,0,2.91l8.43,5a5.37,5.37,0,0,0,5,0l8.09-4.81C290.84,317.34,290.83,316,289.46,315.23Z" fill="#6698db"/>
        <path id="Trazado_227651" data-name="Trazado 227651" d="M305.1,324.35l-8.54-5a5.44,5.44,0,0,0-5,0l-8.08,4.82c-1.38.81-1.37,2.13,0,2.94l8.52,5a5.36,5.36,0,0,0,5,0l8.11-4.85C306.51,326.48,306.49,325.16,305.1,324.35Z" fill="#6698db"/>
        <path id="Trazado_227652" data-name="Trazado 227652" d="M320.93,333.58l-8.65-5a5.42,5.42,0,0,0-5,0l-8.12,4.86c-1.37.82-1.36,2.15,0,3l8.63,5.08a5.41,5.41,0,0,0,5,0l8.14-4.89C322.37,335.74,322.34,334.4,320.93,333.58Z" fill="#6698db"/>
        <path id="Trazado_227653" data-name="Trazado 227653" d="M315.08,345.74l8.73,5.14a5.44,5.44,0,0,0,5.08,0l8.16-4.94c1.38-.83,1.34-2.18-.09-3l-8.76-5.11a5.44,5.44,0,0,0-5,0l-8.14,4.9C313.64,343.56,313.66,344.9,315.08,345.74Z" fill="#6698db"/>
        <path id="Trazado_227654" data-name="Trazado 227654" d="M353.3,355.43c1.38-.84,1.33-2.2-.12-3.05l-8.86-5.16a5.46,5.46,0,0,0-5.09,0l-8.16,4.94c-1.38.84-1.35,2.2.08,3l8.84,5.21a5.49,5.49,0,0,0,5.12,0Z" fill="#6698db"/>
        <path id="Trazado_227655" data-name="Trazado 227655" d="M369.75,365c1.38-.85,1.32-2.23-.14-3.08l-9-5.23a5.51,5.51,0,0,0-5.13,0l-8.19,5c-1.39.84-1.34,2.22.11,3.07l8.95,5.27a5.51,5.51,0,0,0,5.16,0Z" fill="#6698db"/>
        <path id="Trazado_227656" data-name="Trazado 227656" d="M363.91,374.49l9.06,5.34a5.53,5.53,0,0,0,5.2,0l8.23-5.08c1.39-.86,1.32-2.25-.16-3.11l-9.09-5.3a5.51,5.51,0,0,0-5.16,0l-8.21,5C362.38,372.24,362.44,373.63,363.91,374.49Z" fill="#6698db"/>
        <path id="Trazado_227657" data-name="Trazado 227657" d="M182.18,282c-1.36.78-1.42,2-.14,2.79l7.94,4.73a5.22,5.22,0,0,0,4.8,0l8-4.63c1.36-.79,1.4-2,.11-2.8l-8-4.7a5.22,5.22,0,0,0-4.77,0Z" fill="#6698db"/>
        <path id="Trazado_227658" data-name="Trazado 227658" d="M156.68,269.63l18.42,11a5.22,5.22,0,0,0,4.77,0l8-4.59c1.35-.78,1.41-2,.13-2.77l-18.47-10.9a5.21,5.21,0,0,0-4.71,0l-8,4.53C155.5,267.65,155.43,268.88,156.68,269.63Z" fill="#6698db"/>
        <path id="Trazado_227659" data-name="Trazado 227659" d="M196.76,290.62c-1.36.79-1.41,2.05-.11,2.83l8,4.78a5.25,5.25,0,0,0,4.83,0l8-4.68c1.36-.79,1.39-2.06.08-2.83l-8-4.75a5.25,5.25,0,0,0-4.8,0Z" fill="#6698db"/>
        <path id="Trazado_227660" data-name="Trazado 227660" d="M211.43,302.25l8.12,4.84a5.27,5.27,0,0,0,4.87,0l8.07-4.71c1.36-.8,1.38-2.08.06-2.86l-8.15-4.81a5.3,5.3,0,0,0-4.84,0l-8,4.68C210.15,300.19,210.11,301.47,211.43,302.25Z" fill="#6698db"/>
        <path id="Trazado_227661" data-name="Trazado 227661" d="M226.38,311.17l8.22,4.89a5.29,5.29,0,0,0,4.91,0l8.09-4.76c1.36-.8,1.38-2.1,0-2.89l-8.24-4.86a5.29,5.29,0,0,0-4.88,0l-8.07,4.72C225.08,309.08,225.05,310.37,226.38,311.17Z" fill="#6698db"/>
        <path id="Trazado_227662" data-name="Trazado 227662" d="M241.51,320.18l8.32,5a5.32,5.32,0,0,0,4.95,0l8.11-4.8c1.37-.81,1.38-2.12,0-2.92l-8.34-4.92a5.29,5.29,0,0,0-4.91,0l-8.1,4.76C240.19,318.08,240.17,319.38,241.51,320.18Z" fill="#6698db"/>
        <path id="Trazado_227663" data-name="Trazado 227663" d="M256.83,329.31l8.42,5a5.35,5.35,0,0,0,5,0l8.14-4.84c1.38-.82,1.37-2.14,0-3l-8.44-5a5.37,5.37,0,0,0-5,0l-8.11,4.81C255.48,327.18,255.47,328.5,256.83,329.31Z" fill="#6698db"/>
        <path id="Trazado_227664" data-name="Trazado 227664" d="M272.33,338.55l8.53,5.08a5.37,5.37,0,0,0,5,0l8.16-4.89c1.38-.83,1.37-2.16,0-3l-8.54-5a5.37,5.37,0,0,0-5,0l-8.14,4.86A1.587,1.587,0,0,0,272.33,338.55Z" fill="#6698db"/>
        <path id="Trazado_227665" data-name="Trazado 227665" d="M288,347.9l8.63,5.14a5.42,5.42,0,0,0,5.06,0l8.19-4.94a1.609,1.609,0,0,0,0-3L301.2,340a5.39,5.39,0,0,0-5,0l-8.2,4.9A1.607,1.607,0,0,0,288,347.9Z" fill="#6698db"/>
        <path id="Trazado_227666" data-name="Trazado 227666" d="M303.91,357.37l8.73,5.2a5.42,5.42,0,0,0,5.1,0l8.21-5c1.39-.84,1.36-2.2-.07-3l-8.76-5.17a5.39,5.39,0,0,0-5.06,0l-8.19,4.94C302.48,355.17,302.49,356.53,303.91,357.37Z" fill="#6698db"/>
        <path id="Trazado_227667" data-name="Trazado 227667" d="M320,367l8.84,5.27a5.44,5.44,0,0,0,5.14,0l8.24-5c1.39-.85,1.34-2.23-.1-3.08l-8.87-5.23a5.45,5.45,0,0,0-5.1,0l-8.22,5C318.53,364.72,318.56,366.1,320,367Z" fill="#6698db"/>
        <path id="Trazado_227668" data-name="Trazado 227668" d="M350.4,382l8.26-5.08c1.4-.85,1.34-2.25-.12-3.11l-9-5.29a5.49,5.49,0,0,0-5.15,0l-8.24,5c-1.4.85-1.36,2.24.09,3.1l9,5.34a5.49,5.49,0,0,0,5.16.04Z" fill="#6698db"/>
        <path id="Trazado_227669" data-name="Trazado 227669" d="M387.69,391l-21.4-12.63a5.54,5.54,0,0,0-5.19,0l-8.26,5.08c-1.4.86-1.35,2.26.11,3.14l21.35,12.72a5.55,5.55,0,0,0,5.25,0l8.31-5.16C389.26,393.32,389.18,391.9,387.69,391Z" fill="#6698db"/>
        <path id="Trazado_227670" data-name="Trazado 227670" d="M174.64,297.94l8,4.8a5.23,5.23,0,0,0,4.82,0l8.07-4.68c1.37-.79,1.42-2.06.12-2.84l-8-4.76a5.22,5.22,0,0,0-4.8,0l-8.05,4.64C173.42,295.9,173.35,297.17,174.64,297.94Z" fill="#6698db"/>
        <path id="Trazado_227671" data-name="Trazado 227671" d="M147.84,284.76l-9.3-5.61a3.38,3.38,0,0,0-3.11,0l-11.81,6.73c-.9.51-1,1.34-.14,1.84l9.27,5.67a3.4,3.4,0,0,0,3.12,0l11.85-6.79C148.62,286.09,148.67,285.27,147.84,284.76Z" fill="#6698db"/>
        <path id="Trazado_227672" data-name="Trazado 227672" d="M162.25,293.47l-9.41-5.68a3.36,3.36,0,0,0-3.13,0l-11.85,6.79c-.9.52-1,1.35-.13,1.85l9.38,5.74a3.4,3.4,0,0,0,3.15,0l11.88-6.84C163,294.81,163.09,294,162.25,293.47Z" fill="#6698db"/>
        <path id="Trazado_227673" data-name="Trazado 227673" d="M176.83,302.28l-9.52-5.75a3.4,3.4,0,0,0-3.15,0l-11.9,6.85c-.9.52-.95,1.36-.11,1.87l9.49,5.81a3.42,3.42,0,0,0,3.17,0l11.93-6.9C177.64,303.64,177.68,302.8,176.83,302.28Z" fill="#6698db"/>
        <path id="Trazado_227674" data-name="Trazado 227674" d="M195,313.25l-13-7.87a3.44,3.44,0,0,0-3.18,0l-11.93,6.91c-.9.53-1,1.38-.1,1.9l13,7.94a3.47,3.47,0,0,0,3.21,0l12-7A1.026,1.026,0,0,0,195,313.25Z" fill="#6698db"/>
        <path id="Trazado_227675" data-name="Trazado 227675" d="M291.53,371.6l-14-8.49a3.54,3.54,0,0,0-3.33,0L262,370.42a1.08,1.08,0,0,0,0,2L276,381a3.54,3.54,0,0,0,3.36,0l12.21-7.39a1.09,1.09,0,0,0-.04-2.01Z" fill="#6698db"/>
        <path id="Trazado_227676" data-name="Trazado 227676" d="M307.77,381.41l-10.38-6.27a3.54,3.54,0,0,0-3.36,0l-12.22,7.4a1.1,1.1,0,0,0,0,2.05l10.35,6.33a3.57,3.57,0,0,0,3.39,0l12.24-7.46a1.11,1.11,0,0,0-.02-2.05Z" fill="#6698db"/>
        <path id="Trazado_227677" data-name="Trazado 227677" d="M316.45,396.17,306,389.78a3.57,3.57,0,0,0-3.39,0l-4.45,2.72a1.11,1.11,0,0,0,0,2.07L308.61,401a3.61,3.61,0,0,0,3.42,0l4.46-2.74a1.12,1.12,0,0,0-.04-2.09Z" fill="#6698db"/>
        <path id="Trazado_227678" data-name="Trazado 227678" d="M349.78,416.43,339,409.89a3.62,3.62,0,0,0-3.44,0l-4.48,2.77a1.15,1.15,0,0,0,.05,2.12l10.76,6.58a3.63,3.63,0,0,0,3.46,0l4.5-2.79A1.156,1.156,0,0,0,349.78,416.43Z" fill="#6698db"/>
        <path id="Trazado_227679" data-name="Trazado 227679" d="M333,406.24l-10.63-6.47a3.61,3.61,0,0,0-3.42,0l-4.47,2.74a1.13,1.13,0,0,0,0,2.1l10.62,6.49a3.59,3.59,0,0,0,3.44,0l4.48-2.76a1.13,1.13,0,0,0-.02-2.1Z" fill="#6698db"/>
        <path id="Trazado_227680" data-name="Trazado 227680" d="M323.25,399.24l10.63,6.46a3.62,3.62,0,0,0,3.44,0l4.46-2.75a1.13,1.13,0,0,0-.06-2.1l-10.65-6.43a3.61,3.61,0,0,0-3.42,0l-4.45,2.73a1.13,1.13,0,0,0,.05,2.09Z" fill="#6698db"/>
        <path id="Trazado_227681" data-name="Trazado 227681" d="M271.23,359.33l-71.12-43a3.47,3.47,0,0,0-3.21,0l-12,7c-.91.53-1,1.39-.09,1.92l70.9,43.36a3.54,3.54,0,0,0,3.33,0l12.16-7.3a1.08,1.08,0,0,0,.03-1.98Z" fill="#6698db"/>
        <path id="Trazado_227682" data-name="Trazado 227682" d="M141.78,278.13l25.27,15.24a5.2,5.2,0,0,0,4.79,0l8-4.64c1.36-.78,1.41-2,.13-2.8L154.63,270.8a5.17,5.17,0,0,0-4.72,0l-8,4.55C140.62,276.14,140.53,277.37,141.78,278.13Z" fill="#6698db"/>
        <path id="Trazado_227683" data-name="Trazado 227683" d="M189.29,306.78l8.05,4.85a5.25,5.25,0,0,0,4.86,0l8.1-4.73c1.37-.8,1.41-2.08.09-2.86l-8.07-4.82a5.25,5.25,0,0,0-4.83,0l-8.08,4.69C188,304.71,188,306,189.29,306.78Z" fill="#6698db"/>
        <path id="Trazado_227684" data-name="Trazado 227684" d="M204.11,315.72l8.15,4.91a5.25,5.25,0,0,0,4.89,0l8.13-4.77c1.37-.8,1.4-2.1.07-2.89l-8.17-4.88a5.27,5.27,0,0,0-4.87,0l-8.1,4.73C202.84,313.63,202.79,314.92,204.11,315.72Z" fill="#6698db"/>
        <path id="Trazado_227685" data-name="Trazado 227685" d="M219.11,324.76l8.25,5a5.3,5.3,0,0,0,4.93,0l8.15-4.81c1.37-.81,1.4-2.12.05-2.93l-8.27-4.93a5.3,5.3,0,0,0-4.9,0l-8.13,4.77C217.81,322.65,217.78,324,219.11,324.76Z" fill="#6698db"/>
        <path id="Trazado_227686" data-name="Trazado 227686" d="M234.29,333.92l8.35,5a5.33,5.33,0,0,0,5,0l8.17-4.85c1.38-.82,1.4-2.15,0-3l-8.37-5a5.35,5.35,0,0,0-4.94,0L234.35,331C233,331.78,232.94,333.11,234.29,333.92Z" fill="#6698db"/>
        <path id="Trazado_227687" data-name="Trazado 227687" d="M249.65,343.19l8.45,5.09a5.35,5.35,0,0,0,5,0l8.2-4.9c1.39-.82,1.39-2.16,0-3l-8.47-5.06a5.32,5.32,0,0,0-5,0l-8.18,4.85A1.632,1.632,0,0,0,249.65,343.19Z" fill="#6698db"/>
        <path id="Trazado_227688" data-name="Trazado 227688" d="M265.21,352.57l8.55,5.15a5.37,5.37,0,0,0,5.05,0l8.22-4.94c1.39-.84,1.38-2.19,0-3l-8.58-5.12a5.35,5.35,0,0,0-5,0l-8.21,4.9a1.62,1.62,0,0,0-.03,3.01Z" fill="#6698db"/>
        <path id="Trazado_227689" data-name="Trazado 227689" d="M281,362.06l8.66,5.22a5.4,5.4,0,0,0,5.09,0l8.25-5a1.641,1.641,0,0,0,0-3.05l-8.68-5.18a5.4,5.4,0,0,0-5.06,0L281,359a1.63,1.63,0,0,0,0,3.06Z" fill="#6698db"/>
        <path id="Trazado_227690" data-name="Trazado 227690" d="M296.89,371.67l8.77,5.29a5.4,5.4,0,0,0,5.12,0l8.28-5c1.4-.85,1.37-2.23-.06-3.09l-8.79-5.24a5.45,5.45,0,0,0-5.1,0l-8.25,5C295.46,369.44,295.47,370.82,296.89,371.67Z" fill="#6698db"/>
        <path id="Trazado_227691" data-name="Trazado 227691" d="M335.28,378.58l-8.89-5.31a5.47,5.47,0,0,0-5.14,0l-8.28,5c-1.4.86-1.38,2.25.06,3.12l8.87,5.35a5.47,5.47,0,0,0,5.17,0l8.3-5.08C336.77,380.84,336.73,379.44,335.28,378.58Z" fill="#6698db"/>
        <path id="Trazado_227692" data-name="Trazado 227692" d="M372.59,400.85,342.77,383a5.49,5.49,0,0,0-5.18,0l-8.3,5.08c-1.41.86-1.38,2.27.08,3.15l29.75,17.94a5.52,5.52,0,0,0,5.26,0l8.36-5.19C374.15,403.17,374.08,401.74,372.59,400.85Z" fill="#6698db"/>
        <path id="Trazado_227693" data-name="Trazado 227693" d="M403.08,381.47l-9.2-5.36a5.55,5.55,0,0,0-5.21,0l-8.24,5.08c-1.39.86-1.32,2.27.16,3.14l9.18,5.41a5.56,5.56,0,0,0,5.24,0l8.26-5.13C404.66,383.76,404.58,382.35,403.08,381.47Z" fill="#6698db"/>
        <path id="Trazado_227694" data-name="Trazado 227694" d="M250.94,275.51l-8.12-4.68a5.28,5.28,0,0,0-4.8,0l-7.93,4.59c-1.35.78-1.38,2-.07,2.8l8.1,4.71a5.28,5.28,0,0,0,4.83,0l8-4.63C252.25,277.52,252.27,276.27,250.94,275.51Z" fill="#6698db"/>
        <path id="Trazado_227695" data-name="Trazado 227695" d="M266,284.2l-8.22-4.74a5.36,5.36,0,0,0-4.84,0l-8,4.64c-1.35.79-1.37,2.05,0,2.82l8.2,4.77a5.33,5.33,0,0,0,4.87,0l8-4.68C267.35,286.23,267.36,285,266,284.2Z" fill="#6698db"/>
        <path id="Trazado_227696" data-name="Trazado 227696" d="M281.28,293,273,288.2a5.33,5.33,0,0,0-4.87,0l-8,4.68c-1.35.8-1.36,2.07,0,2.85l8.3,4.83a5.33,5.33,0,0,0,4.9,0l8-4.72C282.63,295.05,282.63,293.77,281.28,293Z" fill="#6698db"/>
        <path id="Trazado_227697" data-name="Trazado 227697" d="M296.72,301.88,288.3,297a5.38,5.38,0,0,0-4.91,0l-8,4.72c-1.35.8-1.36,2.09,0,2.88l8.4,4.89a5.41,5.41,0,0,0,4.94,0l8-4.76C298.1,304,298.09,302.67,296.72,301.88Z" fill="#6698db"/>
        <path id="Trazado_227698" data-name="Trazado 227698" d="M312.34,310.89,303.82,306a5.41,5.41,0,0,0-4.94,0l-8,4.76c-1.36.81-1.35,2.11,0,2.91l8.49,4.95a5.41,5.41,0,0,0,5,0l8.05-4.8C313.75,313,313.73,311.69,312.34,310.89Z" fill="#6698db"/>
        <path id="Trazado_227699" data-name="Trazado 227699" d="M328.15,320l-8.62-5a5.44,5.44,0,0,0-5,0l-8.06,4.8c-1.36.82-1.34,2.13.05,2.94l8.6,5a5.41,5.41,0,0,0,5,0l8.08-4.84C329.59,322.13,329.56,320.81,328.15,320Z" fill="#6698db"/>
        <path id="Trazado_227700" data-name="Trazado 227700" d="M344.16,329.22l-8.73-5a5.46,5.46,0,0,0-5,0l-8.08,4.85c-1.37.82-1.34,2.15.07,3l8.71,5.06a5.43,5.43,0,0,0,5.05,0l8.1-4.89C345.63,331.38,345.58,330,344.16,329.22Z" fill="#6698db"/>
        <path id="Trazado_227701" data-name="Trazado 227701" d="M360.36,338.56l-8.83-5.09a5.48,5.48,0,0,0-5.06,0l-8.1,4.89c-1.38.83-1.34,2.17.09,3l8.81,5.13a5.46,5.46,0,0,0,5.09,0l8.13-4.93C361.86,340.74,361.8,339.39,360.36,338.56Z" fill="#6698db"/>
        <path id="Trazado_227702" data-name="Trazado 227702" d="M363.63,356a5.53,5.53,0,0,0,5.14,0l8.14-5c1.38-.84,1.31-2.2-.14-3l-8.95-5.15a5.53,5.53,0,0,0-5.1,0l-8.12,4.94c-1.38.84-1.33,2.2.11,3Z" fill="#6698db"/>
        <path id="Trazado_227703" data-name="Trazado 227703" d="M393.37,357.58l-9.05-5.22a5.56,5.56,0,0,0-5.14,0l-8.15,5c-1.38.84-1.32,2.22.14,3.06l9,5.26a5.55,5.55,0,0,0,5.18,0l8.17-5C394.93,359.81,394.85,358.43,393.37,357.58Z" fill="#6698db"/>
        <path id="Trazado_227704" data-name="Trazado 227704" d="M419.75,372.78l-19.29-11.11a3.53,3.53,0,0,0-3.3,0l-10,6.15c-.88.55-.84,1.43.1,2L406.52,381a3.54,3.54,0,0,0,3.33,0l10-6.23C420.77,374.22,420.71,373.33,419.75,372.78Z" fill="#6698db"/>
        <path id="Trazado_227705" data-name="Trazado 227705" d="M200.43,243.49,209,248.4a4.23,4.23,0,0,0,3.78,0l4.34-2.49c1.06-.6,1.09-1.57.06-2.16l-8.54-4.88a4.18,4.18,0,0,0-3.76,0l-4.33,2.46C199.45,241.94,199.41,242.9,200.43,243.49Z" fill="#fff7ff"/>
        <path id="Trazado_227706" data-name="Trazado 227706" d="M215.48,252.15l8.63,5a4.23,4.23,0,0,0,3.81,0l4.35-2.51c1.07-.61,1.09-1.59,0-2.18l-8.65-4.95a4.25,4.25,0,0,0-3.79,0L215.55,250C214.48,250.58,214.45,251.55,215.48,252.15Z" fill="#fff7ff"/>
        <path id="Trazado_227707" data-name="Trazado 227707" d="M230.71,260.91l8.74,5a4.26,4.26,0,0,0,3.84,0l4.36-2.53c1.07-.62,1.08-1.61,0-2.21l-8.75-5a4.25,4.25,0,0,0-3.82,0l-4.35,2.51C229.69,259.33,229.67,260.31,230.71,260.91Z" fill="#fff7ff"/>
        <path id="Trazado_227708" data-name="Trazado 227708" d="M246.13,269.78l8.84,5.09a4.26,4.26,0,0,0,3.87,0l4.38-2.55c1.07-.63,1.08-1.62,0-2.23L254.37,265a4.26,4.26,0,0,0-3.84,0l-4.37,2.54C245.09,268.18,245.08,269.17,246.13,269.78Z" fill="#fff7ff"/>
        <path id="Trazado_227709" data-name="Trazado 227709" d="M261.74,278.76l8.95,5.15a4.29,4.29,0,0,0,3.9,0l4.39-2.58a1.19,1.19,0,0,0,0-2.25l-9-5.13a4.28,4.28,0,0,0-3.88,0l-4.38,2.55A1.2,1.2,0,0,0,261.74,278.76Z" fill="#fff7ff"/>
        <path id="Trazado_227710" data-name="Trazado 227710" d="M277.53,287.85l9.07,5.21a4.29,4.29,0,0,0,3.93,0l4.4-2.6a1.2,1.2,0,0,0,0-2.27l-9.08-5.2a4.32,4.32,0,0,0-3.9,0l-4.4,2.58a1.2,1.2,0,0,0-.02,2.28Z" fill="#fff7ff"/>
        <path id="Trazado_227711" data-name="Trazado 227711" d="M293.53,297.05l9.18,5.28a4.29,4.29,0,0,0,4,0l4.42-2.62a1.225,1.225,0,0,0,0-2.3l-9.2-5.26a4.35,4.35,0,0,0-3.93,0l-4.41,2.61a1.21,1.21,0,0,0-.06,2.29Z" fill="#fff7ff"/>
        <path id="Trazado_227712" data-name="Trazado 227712" d="M309.73,306.37l9.29,5.35a4.36,4.36,0,0,0,4,0l4.43-2.64a1.24,1.24,0,0,0-.05-2.33l-9.31-5.33a4.37,4.37,0,0,0-4,0l-4.42,2.63C308.6,304.69,308.62,305.73,309.73,306.37Z" fill="#fff7ff"/>
        <path id="Trazado_227713" data-name="Trazado 227713" d="M326.13,315.8l9.41,5.42a4.39,4.39,0,0,0,4,0l4.45-2.67c1.09-.66,1.05-1.71-.08-2.36l-9.43-5.39a4.36,4.36,0,0,0-4,0l-4.44,2.65A1.256,1.256,0,0,0,326.13,315.8Z" fill="#fff7ff"/>
        <path id="Trazado_227714" data-name="Trazado 227714" d="M342.73,325.36l9.54,5.48a4.39,4.39,0,0,0,4.05,0l4.46-2.7c1.09-.66,1.05-1.73-.1-2.38l-9.55-5.46a4.39,4.39,0,0,0-4,0l-4.47,2.7C341.57,323.65,341.6,324.71,342.73,325.36Z" fill="#fff7ff"/>
        <path id="Trazado_227715" data-name="Trazado 227715" d="M359.55,335l9.66,5.55a4.39,4.39,0,0,0,4.08,0l4.48-2.73c1.09-.66,1-1.74-.12-2.4L368,329.93a4.41,4.41,0,0,0-4.06,0l-4.46,2.7C358.36,333.3,358.4,334.37,359.55,335Z" fill="#fff7ff"/>
        <path id="Trazado_227716" data-name="Trazado 227716" d="M376.59,344.84l9.78,5.62a4.41,4.41,0,0,0,4.12,0l4.48-2.75c1.1-.67,1-1.76-.14-2.43l-9.79-5.6a4.47,4.47,0,0,0-4.09,0l-4.48,2.73C375.37,343.08,375.43,344.17,376.59,344.84Z" fill="#fff7ff"/>
        <path id="Trazado_227717" data-name="Trazado 227717" d="M393.84,354.76l9.91,5.7a4.45,4.45,0,0,0,4.15,0l4.5-2.78c1.1-.68,1-1.78-.16-2.46l-9.92-5.67a4.43,4.43,0,0,0-4.13,0l-4.49,2.75C392.6,353,392.66,354.08,393.84,354.76Z" fill="#fff7ff"/>
        <path id="Trazado_227718" data-name="Trazado 227718" d="M429.88,365.31l-10.05-5.75a4.5,4.5,0,0,0-4.16,0l-4.51,2.78c-1.1.68-1,1.79.16,2.48l10,5.77a4.45,4.45,0,0,0,4.18,0l4.52-2.8C431.16,367.11,431.08,366,429.88,365.31Z" fill="#fff7ff"/>
        <path id="Trazado_227719" data-name="Trazado 227719" d="M186.23,252.11l7.83,4.55a5.17,5.17,0,0,0,4.72,0l7.88-4.51c1.34-.76,1.38-2,.1-2.72l-7.84-4.52a5.25,5.25,0,0,0-4.7,0l-7.86,4.48C185,250.16,185,251.38,186.23,252.11Z" fill="#fff7ff"/>
        <path id="Trazado_227720" data-name="Trazado 227720" d="M221.32,257.78l-7.94-4.57a5.25,5.25,0,0,0-4.73,0l-7.89,4.52c-1.33.77-1.38,2-.1,2.74l7.91,4.61a5.26,5.26,0,0,0,4.76,0l7.91-4.56C222.58,259.75,222.61,258.53,221.32,257.78Z" fill="#fff7ff"/>
        <path id="Trazado_227721" data-name="Trazado 227721" d="M236,266.27l-8-4.63a5.28,5.28,0,0,0-4.77,0l-7.91,4.56c-1.34.77-1.38,2-.09,2.76l8,4.66a5.28,5.28,0,0,0,4.8,0L236,269C237.33,268.26,237.35,267,236,266.27Z" fill="#fff7ff"/>
        <path id="Trazado_227722" data-name="Trazado 227722" d="M193.21,273.31l7.94,4.67a5.24,5.24,0,0,0,4.78,0l8-4.6c1.34-.78,1.38-2,.09-2.77l-8-4.64a5.25,5.25,0,0,0-4.76,0l-7.94,4.57C192,271.31,191.93,272.55,193.21,273.31Z" fill="#fff7ff"/>
        <path id="Trazado_227723" data-name="Trazado 227723" d="M171.5,260.52l14.55,8.57a5.2,5.2,0,0,0,4.75,0l7.94-4.55c1.34-.77,1.39-2,.11-2.75l-14.6-8.51a5.16,5.16,0,0,0-4.7,0l-7.91,4.5C170.3,258.56,170.24,259.78,171.5,260.52Z" fill="#fff7ff"/>
        <path id="Trazado_227724" data-name="Trazado 227724" d="M228.73,279.17l-8.06-4.69a5.26,5.26,0,0,0-4.79,0l-8,4.6c-1.35.78-1.4,2-.1,2.8l8,4.73a5.26,5.26,0,0,0,4.82,0l8-4.64C230,281.19,230,279.93,228.73,279.17Z" fill="#fff7ff"/>
        <path id="Trazado_227725" data-name="Trazado 227725" d="M243.64,287.86l-8.15-4.75a5.29,5.29,0,0,0-4.82,0l-8,4.64c-1.36.79-1.39,2-.08,2.83l8.13,4.78a5.29,5.29,0,0,0,4.85,0l8-4.68C245,289.91,245,288.64,243.64,287.86Z" fill="#fff7ff"/>
        <path id="Trazado_227726" data-name="Trazado 227726" d="M258.73,296.66l-8.24-4.8a5.31,5.31,0,0,0-4.86,0l-8,4.69c-1.36.79-1.38,2.07-.05,2.85l8.22,4.85a5.34,5.34,0,0,0,4.89,0l8-4.72C260.06,298.73,260.07,297.44,258.73,296.66Z" fill="#fff7ff"/>
        <path id="Trazado_227727" data-name="Trazado 227727" d="M274,305.57l-8.34-4.87a5.36,5.36,0,0,0-4.9,0l-8,4.72c-1.36.8-1.38,2.09,0,2.89l8.32,4.9a5.36,5.36,0,0,0,4.93,0l8.06-4.76C275.36,307.65,275.36,306.36,274,305.57Z" fill="#fff7ff"/>
        <path id="Trazado_227728" data-name="Trazado 227728" d="M289.46,314.58,281,309.65a5.41,5.41,0,0,0-4.94,0L268,314.44c-1.37.81-1.38,2.12,0,2.92l8.43,5a5.37,5.37,0,0,0,5,0l8.09-4.8C290.84,316.69,290.83,315.38,289.46,314.58Z" fill="#fff7ff"/>
        <path id="Trazado_227729" data-name="Trazado 227729" d="M305.1,323.7l-8.54-5a5.44,5.44,0,0,0-5,0l-8.08,4.81c-1.38.82-1.37,2.13,0,2.95l8.52,5a5.42,5.42,0,0,0,5,0l8.11-4.85C306.51,325.83,306.49,324.51,305.1,323.7Z" fill="#fff7ff"/>
        <path id="Trazado_227730" data-name="Trazado 227730" d="M320.93,332.93l-8.65-5.05a5.42,5.42,0,0,0-5,0l-8.12,4.86c-1.37.82-1.36,2.16,0,3l8.63,5.08a5.44,5.44,0,0,0,5,0l8.14-4.89C322.37,335.08,322.34,333.75,320.93,332.93Z" fill="#fff7ff"/>
        <path id="Trazado_227731" data-name="Trazado 227731" d="M315.08,345.08l8.73,5.14a5.44,5.44,0,0,0,5.08,0l8.16-4.93c1.38-.84,1.34-2.19-.09-3l-8.76-5.1a5.41,5.41,0,0,0-5,0l-8.14,4.9C313.64,342.9,313.66,344.25,315.08,345.08Z" fill="#fff7ff"/>
        <path id="Trazado_227732" data-name="Trazado 227732" d="M353.3,354.78c1.38-.85,1.33-2.21-.12-3l-8.86-5.17a5.51,5.51,0,0,0-5.09,0l-8.16,4.95c-1.38.84-1.35,2.2.08,3l8.84,5.2a5.46,5.46,0,0,0,5.12,0Z" fill="#fff7ff"/>
        <path id="Trazado_227733" data-name="Trazado 227733" d="M369.75,364.39c1.38-.85,1.32-2.23-.14-3.09l-9-5.23a5.54,5.54,0,0,0-5.13,0l-8.19,5c-1.39.85-1.34,2.22.11,3.07l8.95,5.28a5.54,5.54,0,0,0,5.16,0Z" fill="#fff7ff"/>
        <path id="Trazado_227734" data-name="Trazado 227734" d="M363.91,373.84l9.06,5.34a5.53,5.53,0,0,0,5.2,0l8.23-5.08c1.39-.85,1.32-2.25-.16-3.11l-9.09-5.3a5.54,5.54,0,0,0-5.16,0l-8.21,5C362.38,371.59,362.44,373,363.91,373.84Z" fill="#fff7ff"/>
        <path id="Trazado_227735" data-name="Trazado 227735" d="M182.18,281.29c-1.36.78-1.42,2-.14,2.8l7.94,4.73a5.28,5.28,0,0,0,4.8,0l8-4.64c1.36-.78,1.4-2,.11-2.8l-8-4.69a5.21,5.21,0,0,0-4.77,0Z" fill="#fff7ff"/>
        <path id="Trazado_227736" data-name="Trazado 227736" d="M156.68,269l18.42,11a5.21,5.21,0,0,0,4.77,0l8-4.6c1.35-.77,1.41-2,.13-2.77l-18.47-10.9a5.21,5.21,0,0,0-4.71,0l-8,4.54C155.5,267,155.43,268.22,156.68,269Z" fill="#fff7ff"/>
        <path id="Trazado_227737" data-name="Trazado 227737" d="M196.76,290c-1.36.78-1.41,2-.11,2.82l8,4.78a5.25,5.25,0,0,0,4.83,0l8-4.68c1.36-.79,1.39-2.05.08-2.83l-8-4.74a5.22,5.22,0,0,0-4.8,0Z" fill="#fff7ff"/>
        <path id="Trazado_227738" data-name="Trazado 227738" d="M211.43,301.6l8.12,4.84a5.27,5.27,0,0,0,4.87,0l8.07-4.72c1.36-.8,1.38-2.08.06-2.86L224.4,294a5.27,5.27,0,0,0-4.84,0l-8,4.68C210.15,299.54,210.11,300.81,211.43,301.6Z" fill="#fff7ff"/>
        <path id="Trazado_227739" data-name="Trazado 227739" d="M226.38,310.51l8.22,4.9a5.29,5.29,0,0,0,4.91,0l8.09-4.76c1.36-.8,1.38-2.09,0-2.89l-8.24-4.86a5.35,5.35,0,0,0-4.88,0l-8.07,4.73C225.08,308.43,225.05,309.72,226.38,310.51Z" fill="#fff7ff"/>
        <path id="Trazado_227740" data-name="Trazado 227740" d="M241.51,319.53l8.32,5a5.37,5.37,0,0,0,4.95,0l8.11-4.81c1.37-.81,1.38-2.11,0-2.92l-8.34-4.92a5.35,5.35,0,0,0-4.91,0l-8.1,4.77A1.532,1.532,0,0,0,241.51,319.53Z" fill="#fff7ff"/>
        <path id="Trazado_227741" data-name="Trazado 227741" d="M256.83,328.66l8.42,5a5.35,5.35,0,0,0,5,0l8.14-4.85c1.38-.82,1.37-2.14,0-2.95l-8.44-5a5.4,5.4,0,0,0-5,0l-8.11,4.81C255.48,326.53,255.47,327.84,256.83,328.66Z" fill="#fff7ff"/>
        <path id="Trazado_227742" data-name="Trazado 227742" d="M272.33,337.89l8.53,5.08a5.37,5.37,0,0,0,5,0l8.16-4.89c1.38-.82,1.37-2.16,0-3l-8.54-5a5.37,5.37,0,0,0-5,0l-8.14,4.85A1.594,1.594,0,0,0,272.33,337.89Z" fill="#fff7ff"/>
        <path id="Trazado_227743" data-name="Trazado 227743" d="M288,347.25l8.63,5.14a5.4,5.4,0,0,0,5.06,0l8.19-4.93a1.609,1.609,0,0,0,0-3l-8.65-5.1a5.45,5.45,0,0,0-5,0l-8.16,4.9C286.62,345.07,286.63,346.41,288,347.25Z" fill="#fff7ff"/>
        <path id="Trazado_227744" data-name="Trazado 227744" d="M303.91,356.71l8.73,5.21a5.45,5.45,0,0,0,5.1,0l8.21-5c1.39-.85,1.36-2.21-.07-3.05l-8.76-5.17a5.45,5.45,0,0,0-5.06,0l-8.19,4.94C302.48,354.51,302.49,355.87,303.91,356.71Z" fill="#fff7ff"/>
        <path id="Trazado_227745" data-name="Trazado 227745" d="M320,366.3l8.84,5.27a5.5,5.5,0,0,0,5.14,0l8.24-5c1.39-.85,1.34-2.23-.1-3.08l-8.87-5.23a5.48,5.48,0,0,0-5.1,0l-8.22,5C318.53,364.07,318.56,365.44,320,366.3Z" fill="#fff7ff"/>
        <path id="Trazado_227746" data-name="Trazado 227746" d="M350.4,381.35l8.26-5.07c1.4-.86,1.34-2.25-.12-3.11l-9-5.3a5.52,5.52,0,0,0-5.15,0l-8.24,5c-1.4.86-1.36,2.25.09,3.11l9,5.33a5.49,5.49,0,0,0,5.16.04Z" fill="#fff7ff"/>
        <path id="Trazado_227747" data-name="Trazado 227747" d="M387.69,390.36l-21.4-12.62a5.51,5.51,0,0,0-5.19,0l-8.26,5.08c-1.4.86-1.35,2.27.11,3.14l21.35,12.72a5.55,5.55,0,0,0,5.25,0l8.31-5.16C389.26,392.66,389.18,391.24,387.69,390.36Z" fill="#fff7ff"/>
        <path id="Trazado_227748" data-name="Trazado 227748" d="M174.64,297.29l8,4.8a5.23,5.23,0,0,0,4.82,0l8.07-4.69c1.37-.79,1.42-2.06.12-2.83l-8-4.77a5.22,5.22,0,0,0-4.8,0l-8.05,4.65C173.42,295.25,173.35,296.51,174.64,297.29Z" fill="#fff7ff"/>
        <path id="Trazado_227749" data-name="Trazado 227749" d="M147.84,284.11l-9.3-5.62a3.38,3.38,0,0,0-3.11,0l-11.81,6.74c-.9.51-1,1.33-.14,1.83l9.27,5.67a3.34,3.34,0,0,0,3.12,0L147.72,286C148.62,285.43,148.67,284.61,147.84,284.11Z" fill="#fff7ff"/>
        <path id="Trazado_227750" data-name="Trazado 227750" d="M162.25,292.82l-9.41-5.69a3.42,3.42,0,0,0-3.13,0l-11.85,6.79c-.9.52-1,1.35-.13,1.86l9.38,5.73a3.4,3.4,0,0,0,3.15,0l11.88-6.85C163,294.15,163.09,293.32,162.25,292.82Z" fill="#fff7ff"/>
        <path id="Trazado_227751" data-name="Trazado 227751" d="M176.83,301.63l-9.52-5.76a3.4,3.4,0,0,0-3.15,0l-11.9,6.85c-.9.52-.95,1.36-.11,1.88l9.49,5.8a3.42,3.42,0,0,0,3.17,0l11.93-6.91C177.64,303,177.68,302.14,176.83,301.63Z" fill="#fff7ff"/>
        <path id="Trazado_227752" data-name="Trazado 227752" d="M195,312.59l-13-7.87a3.44,3.44,0,0,0-3.18,0l-11.93,6.92c-.9.52-1,1.37-.1,1.89l13,7.94a3.44,3.44,0,0,0,3.21,0l12-7A1.026,1.026,0,0,0,195,312.59Z" fill="#fff7ff"/>
        <path id="Trazado_227753" data-name="Trazado 227753" d="M291.53,370.94l-14-8.49a3.51,3.51,0,0,0-3.33,0L262,369.76a1.08,1.08,0,0,0,0,2l14,8.57a3.51,3.51,0,0,0,3.36,0L291.55,373a1.09,1.09,0,0,0-.02-2.06Z" fill="#fff7ff"/>
        <path id="Trazado_227754" data-name="Trazado 227754" d="M307.77,380.76l-10.38-6.28a3.57,3.57,0,0,0-3.36,0l-12.22,7.41a1.1,1.1,0,0,0,0,2.05l10.35,6.33a3.57,3.57,0,0,0,3.39,0l12.24-7.46a1.1,1.1,0,0,0-.02-2.05Z" fill="#fff7ff"/>
        <path id="Trazado_227755" data-name="Trazado 227755" d="M316.45,395.51,306,389.13a3.55,3.55,0,0,0-3.39,0l-4.45,2.71a1.11,1.11,0,0,0,0,2.07l10.48,6.41a3.58,3.58,0,0,0,3.42,0l4.46-2.73a1.13,1.13,0,0,0-.07-2.08Z" fill="#fff7ff"/>
        <path id="Trazado_227756" data-name="Trazado 227756" d="M349.78,415.78,339,409.23a3.59,3.59,0,0,0-3.44,0L331.09,412a1.14,1.14,0,0,0,.05,2.11l10.76,6.58a3.6,3.6,0,0,0,3.46,0l4.5-2.79a1.15,1.15,0,0,0-.08-2.12Z" fill="#fff7ff"/>
        <path id="Trazado_227757" data-name="Trazado 227757" d="M333,405.58l-10.63-6.46a3.58,3.58,0,0,0-3.42,0l-4.47,2.74a1.13,1.13,0,0,0,0,2.09l10.62,6.5a3.59,3.59,0,0,0,3.44,0l4.48-2.76a1.14,1.14,0,0,0-.02-2.11Z" fill="#fff7ff"/>
        <path id="Trazado_227758" data-name="Trazado 227758" d="M323.25,398.58,333.88,405a3.59,3.59,0,0,0,3.44,0l4.46-2.75c.93-.58.9-1.51-.06-2.1l-10.65-6.43a3.63,3.63,0,0,0-3.42,0l-4.45,2.74a1.12,1.12,0,0,0,.05,2.12Z" fill="#fff7ff"/>
        <path id="Trazado_227759" data-name="Trazado 227759" d="M271.23,358.68l-71.12-43a3.5,3.5,0,0,0-3.21,0l-12,7c-.91.53-1,1.38-.09,1.91L255.74,368a3.51,3.51,0,0,0,3.33,0l12.16-7.3a1.07,1.07,0,0,0,0-2.02Z" fill="#fff7ff"/>
        <path id="Trazado_227760" data-name="Trazado 227760" d="M141.78,277.47l25.27,15.24a5.2,5.2,0,0,0,4.79,0l8-4.64c1.36-.79,1.41-2,.13-2.81l-25.34-15.13a5.17,5.17,0,0,0-4.72,0l-8,4.56C140.62,275.48,140.53,276.72,141.78,277.47Z" fill="#fff7ff"/>
        <path id="Trazado_227761" data-name="Trazado 227761" d="M189.29,306.12l8.05,4.86a5.25,5.25,0,0,0,4.86,0l8.1-4.72c1.37-.8,1.41-2.09.09-2.87l-8.07-4.82a5.25,5.25,0,0,0-4.83,0l-8.08,4.69C188,304.06,188,305.34,189.29,306.12Z" fill="#fff7ff"/>
        <path id="Trazado_227762" data-name="Trazado 227762" d="M204.11,315.06l8.15,4.92a5.25,5.25,0,0,0,4.89,0l8.13-4.76c1.37-.81,1.4-2.11.07-2.9l-8.17-4.88a5.27,5.27,0,0,0-4.87,0l-8.1,4.73C202.84,313,202.79,314.27,204.11,315.06Z" fill="#fff7ff"/>
        <path id="Trazado_227763" data-name="Trazado 227763" d="M219.11,324.11l8.25,5a5.28,5.28,0,0,0,4.93,0l8.15-4.81c1.37-.81,1.4-2.12.05-2.92l-8.27-4.94a5.27,5.27,0,0,0-4.9,0l-8.13,4.77C217.81,322,217.78,323.3,219.11,324.11Z" fill="#fff7ff"/>
        <path id="Trazado_227764" data-name="Trazado 227764" d="M234.29,333.26l8.35,5a5.33,5.33,0,0,0,5,0l8.17-4.85c1.38-.82,1.4-2.14,0-3l-8.37-5a5.3,5.3,0,0,0-4.94,0l-8.15,4.81C233,331.13,232.94,332.45,234.29,333.26Z" fill="#fff7ff"/>
        <path id="Trazado_227765" data-name="Trazado 227765" d="M249.65,342.53l8.45,5.09a5.35,5.35,0,0,0,5,0l8.2-4.89c1.39-.83,1.39-2.17,0-3l-8.47-5.06a5.38,5.38,0,0,0-5,0l-8.18,4.86C248.31,340.37,248.29,341.71,249.65,342.53Z" fill="#fff7ff"/>
        <path id="Trazado_227766" data-name="Trazado 227766" d="M265.21,351.91l8.55,5.16a5.38,5.38,0,0,0,5.05,0l8.22-4.94c1.39-.83,1.38-2.19,0-3L278.44,344a5.38,5.38,0,0,0-5,0l-8.21,4.91C263.83,349.73,263.83,351.08,265.21,351.91Z" fill="#fff7ff"/>
        <path id="Trazado_227767" data-name="Trazado 227767" d="M281,361.4l8.66,5.23a5.43,5.43,0,0,0,5.09,0l8.25-5c1.39-.84,1.37-2.21,0-3l-8.68-5.19a5.45,5.45,0,0,0-5.06,0L281,358.36C279.55,359.2,279.55,360.56,281,361.4Z" fill="#fff7ff"/>
        <path id="Trazado_227768" data-name="Trazado 227768" d="M296.89,371l8.77,5.28a5.43,5.43,0,0,0,5.12,0l8.28-5c1.4-.85,1.37-2.23-.06-3.08l-8.79-5.2a5.45,5.45,0,0,0-5.1,0l-8.25,5C295.46,368.78,295.47,370.16,296.89,371Z" fill="#fff7ff"/>
        <path id="Trazado_227769" data-name="Trazado 227769" d="M335.28,377.92l-8.89-5.31a5.47,5.47,0,0,0-5.14,0l-8.28,5c-1.4.85-1.38,2.24.06,3.11l8.87,5.35a5.47,5.47,0,0,0,5.17,0l8.3-5.08C336.77,380.18,336.73,378.79,335.28,377.92Z" fill="#fff7ff"/>
        <path id="Trazado_227770" data-name="Trazado 227770" d="M372.59,400.19l-29.82-17.8a5.49,5.49,0,0,0-5.18,0l-8.3,5.09c-1.41.86-1.38,2.27.08,3.14l29.75,17.95a5.54,5.54,0,0,0,5.26,0l8.36-5.19C374.15,402.51,374.08,401.08,372.59,400.19Z" fill="#fff7ff"/>
        <path id="Trazado_227771" data-name="Trazado 227771" d="M403.08,380.82l-9.2-5.37a5.58,5.58,0,0,0-5.21,0l-8.24,5.08c-1.39.87-1.32,2.27.16,3.15l9.18,5.4a5.56,5.56,0,0,0,5.24,0l8.26-5.12C404.66,383.1,404.58,381.69,403.08,380.82Z" fill="#fff7ff"/>
        <path id="Trazado_227772" data-name="Trazado 227772" d="M250.94,274.85l-8.12-4.68a5.31,5.31,0,0,0-4.8,0l-7.93,4.6c-1.35.78-1.38,2-.07,2.79l8.1,4.72a5.31,5.31,0,0,0,4.83,0l8-4.63C252.25,276.87,252.27,275.62,250.94,274.85Z" fill="#fff7ff"/>
        <path id="Trazado_227773" data-name="Trazado 227773" d="M266,283.54l-8.22-4.73a5.3,5.3,0,0,0-4.84,0l-8,4.64c-1.35.78-1.37,2,0,2.82l8.2,4.77a5.33,5.33,0,0,0,4.87,0l8-4.67C267.35,285.58,267.36,284.31,266,283.54Z" fill="#fff7ff"/>
        <path id="Trazado_227774" data-name="Trazado 227774" d="M281.28,292.33,273,287.54a5.36,5.36,0,0,0-4.87,0l-8,4.68c-1.35.79-1.36,2.07,0,2.85l8.3,4.83a5.36,5.36,0,0,0,4.9,0l8-4.71A1.526,1.526,0,0,0,281.28,292.33Z" fill="#fff7ff"/>
        <path id="Trazado_227775" data-name="Trazado 227775" d="M296.72,301.23l-8.42-4.85a5.38,5.38,0,0,0-4.91,0l-8,4.72c-1.35.8-1.36,2.09,0,2.88l8.4,4.89a5.35,5.35,0,0,0,4.94,0l8-4.76C298.1,303.31,298.09,302,296.72,301.23Z" fill="#fff7ff"/>
        <path id="Trazado_227776" data-name="Trazado 227776" d="M312.34,310.23l-8.52-4.91a5.41,5.41,0,0,0-4.94,0l-8,4.77c-1.36.8-1.35,2.11,0,2.91l8.49,4.94a5.41,5.41,0,0,0,5,0l8.05-4.8C313.75,312.34,313.73,311,312.34,310.23Z" fill="#fff7ff"/>
        <path id="Trazado_227777" data-name="Trazado 227777" d="M328.15,319.34l-8.62-5a5.41,5.41,0,0,0-5,0l-8.06,4.81c-1.36.81-1.34,2.13.05,2.94l8.6,5a5.41,5.41,0,0,0,5,0l8.08-4.84C329.59,321.47,329.56,320.15,328.15,319.34Z" fill="#fff7ff"/>
        <path id="Trazado_227778" data-name="Trazado 227778" d="M344.16,328.57l-8.73-5a5.46,5.46,0,0,0-5,0l-8.08,4.85c-1.37.82-1.34,2.15.07,3l8.71,5.07a5.46,5.46,0,0,0,5.05,0l8.1-4.88C345.63,330.72,345.58,329.39,344.16,328.57Z" fill="#fff7ff"/>
        <path id="Trazado_227779" data-name="Trazado 227779" d="M360.36,337.9l-8.83-5.09a5.48,5.48,0,0,0-5.06,0l-8.1,4.9c-1.38.82-1.34,2.17.09,3l8.81,5.13a5.51,5.51,0,0,0,5.09,0l8.13-4.94C361.86,340.08,361.8,338.73,360.36,337.9Z" fill="#fff7ff"/>
        <path id="Trazado_227780" data-name="Trazado 227780" d="M363.63,355.37a5.53,5.53,0,0,0,5.14,0l8.14-5c1.38-.84,1.31-2.2-.14-3l-8.95-5.16a5.5,5.5,0,0,0-5.1,0l-8.12,4.93c-1.38.84-1.33,2.2.11,3Z" fill="#fff7ff"/>
        <path id="Trazado_227781" data-name="Trazado 227781" d="M393.37,356.93l-9.05-5.22a5.53,5.53,0,0,0-5.14,0l-8.15,5c-1.38.85-1.32,2.22.14,3.07l9,5.26a5.58,5.58,0,0,0,5.18,0l8.17-5C394.93,359.15,394.85,357.78,393.37,356.93Z" fill="#fff7ff"/>
        <path id="Trazado_227782" data-name="Trazado 227782" d="M419.75,372.12,400.46,361a3.53,3.53,0,0,0-3.3,0l-10,6.15c-.88.54-.84,1.43.1,2l19.25,11.2a3.51,3.51,0,0,0,3.33,0l10-6.22C420.77,373.57,420.71,372.68,419.75,372.12Z" fill="#fff7ff"/>
        <path id="Trazado_227783" data-name="Trazado 227783" d="M81.06,264.19q.81-10.1,1.55-20.22c.48-6.51,1.13-13.05,1.1-19.58,0-5.45-.1-18.26-7.84-18.86-4.78-.38-6.65,6.81-7.71,10.24-4.43,14.46-2.37,30.29-1.85,45.15a23.37,23.37,0,0,0,.13,3.55l7.19,32.36a20.16,20.16,0,0,0,10.92-3Z" fill="#00c4aa"/>
        <g id="Grupo_124023" data-name="Grupo 124023" opacity="0.15">
          <path id="Trazado_227784" data-name="Trazado 227784" d="M72.35,416.09c16.07-9.28,42.05-9.29,58,0s15.87,24.32-.2,33.6-42,9.28-58,0-15.89-24.33.19-33.61" fill="gray"/>
        </g>
        <path id="Trazado_227785" data-name="Trazado 227785" d="M128.77,431.49c-3.66,1.08-7.05,3.09-10.78,4-3.27,1.07-6.59,1.86-9.91,2.72a17.29,17.29,0,0,0-6,2.56c-.8.59-.66,1.83-.58,2.7.13,1.46,2.07,2.17,3.23,2.56a10.76,10.76,0,0,0,5,.53,16,16,0,0,0,6-2.7c1.76-1.1,3.55-2.15,5.41-3.07s3.71-1.51,5.55-2.35a4.9,4.9,0,0,0,3.26-4,6.7,6.7,0,0,0,0-1.55,2.19,2.19,0,0,0-.63-1.31.53.53,0,0,0-.28-.16.67.67,0,0,0-.24,0Z" fill="#fff"/>
        <path id="Trazado_227786" data-name="Trazado 227786" d="M124.63,428.57a14.788,14.788,0,0,0-1.76,0c-1.43.1-2.84.34-4.27.48a22.762,22.762,0,0,1-4.52-.13c-.48,0-1-.08-1.42-.09a11.29,11.29,0,0,0-9.54,5.68h0c-1.57.66-.93,2.81-1.06,4.12a16.34,16.34,0,0,0-.47,2.84,2.4,2.4,0,0,0,1.21,1.7,9.92,9.92,0,0,0,8.13,1.44,26.63,26.63,0,0,0,5.78-2.93,58.746,58.746,0,0,1,7.25-3.68,19.43,19.43,0,0,0,3.87-1.72c1.52-1,2.71-2.8,1.89-4.64C128.72,429.46,126.76,428.7,124.63,428.57Z" fill="#6698db"/>
        <path id="Trazado_227787" data-name="Trazado 227787" d="M122,431.35a17.533,17.533,0,0,0-2.77-1.8c-.34-.18-.69-.31-1-.46a23.821,23.821,0,0,1-4.13-.15c-.48,0-1-.08-1.42-.09a10.71,10.71,0,0,0-6.43,2.22,4.11,4.11,0,0,0,.6,1.18,11.76,11.76,0,0,0,4.48,3.8,3.16,3.16,0,0,0,1.19.36,3.91,3.91,0,0,0,2-.7,14.536,14.536,0,0,1,1.79-.72,20.13,20.13,0,0,1,4-.86c.76-.1,2-.19,2.53-.85S122.53,431.76,122,431.35Z" fill="#12428e"/>
        <path id="Trazado_227788" data-name="Trazado 227788" d="M100.82,417.8c-3.66,1.08-7,3.09-10.78,4-3.27,1.06-6.59,1.85-9.91,2.72a17.15,17.15,0,0,0-6,2.56c-.8.59-.66,1.83-.58,2.7.13,1.45,2.07,2.16,3.23,2.56a10.791,10.791,0,0,0,5,.52,15.72,15.72,0,0,0,6-2.7c1.76-1.09,3.55-2.14,5.4-3.07s3.72-1.51,5.55-2.35,3.09-2,3.26-4a6.189,6.189,0,0,0,0-1.55,2.29,2.29,0,0,0-.64-1.31.52.52,0,0,0-.27-.15.661.661,0,0,0-.24,0Z" fill="#fff"/>
        <path id="Trazado_227789" data-name="Trazado 227789" d="M96.68,414.88a12.939,12.939,0,0,0-1.76,0c-1.43.1-2.85.34-4.27.48a24.492,24.492,0,0,1-4.53-.13,13.36,13.36,0,0,0-1.42-.09,11.28,11.28,0,0,0-9.54,5.68h0c-1.57.66-.93,2.8-1.07,4.11a16.471,16.471,0,0,0-.46,2.84,2.35,2.35,0,0,0,1.2,1.7,9.92,9.92,0,0,0,8.14,1.45A27.322,27.322,0,0,0,88.72,428,58.1,58.1,0,0,1,96,424.31a19.893,19.893,0,0,0,3.86-1.71c1.53-1,2.71-2.81,1.9-4.65C100.76,415.76,98.8,415,96.68,414.88Z" fill="#6698db"/>
        <path id="Trazado_227790" data-name="Trazado 227790" d="M94.06,417.66a16.912,16.912,0,0,0-2.77-1.81c-.34-.17-.69-.3-1-.45a26.1,26.1,0,0,1-4.14-.15,13.344,13.344,0,0,0-1.42-.09,10.53,10.53,0,0,0-6.42,2.22,3.82,3.82,0,0,0,.6,1.17,11.76,11.76,0,0,0,4.48,3.8,3.32,3.32,0,0,0,1.18.37,4,4,0,0,0,2-.7,15.452,15.452,0,0,1,1.78-.73,20.361,20.361,0,0,1,4-.85c.76-.1,2-.2,2.53-.85S94.58,418.07,94.06,417.66Z" fill="#1b3b8b"/>
        <path id="Trazado_227791" data-name="Trazado 227791" d="M70.48,298.17l5.29,122.22c0,1.8,3.82,3.28,5.85,3.12,4.56-.37,6-2,6.34-4.05l9.81-75.84,1.44-45.95Z" fill="#12263f"/>
        <path id="Trazado_227792" data-name="Trazado 227792" d="M89.33,330.34s1.46,26.94.86,38.71c-.48,9.47-4,39.34-6.35,50.5-.9,4.26-6.81,2.62-6.83,2.62h0l.11.08a8.459,8.459,0,0,0,4.49,1.26c4.56-.37,6-2,6.34-4.05l9.75-75.39Z" fill="#071022"/>
        <path id="Trazado_227793" data-name="Trazado 227793" d="M81.62,294.06s1.94,30.26,10.06,45.14l11.63,96.12c.16,1.14,3.39,2.46,7.39,1.94,2.55-.33,4-1.57,4-3.2l1.76-91.15-.28-49.7Z" fill="#12263f"/>
        <path id="Trazado_227794" data-name="Trazado 227794" d="M116.17,293.22v-.7c-.81-12.2-1-24.36-1.43-36.57a129.162,129.162,0,0,0-2.7-23.36c-.89-4.09-5-20.72-6.44-22-2-1.72-6.9-3.58-9.29-4.56a41.249,41.249,0,0,0-8-2.49c-4.7-.88-11.17-.79-14.6,3a23.84,23.84,0,0,0-4.8,9.07c-2.52,8.29-2.37,17.49-1.08,26a244.875,244.875,0,0,1,2.5,27.18c.36,8.7.69,17.56-.36,26.23-.47,3.83.74,6.09,4.31,7.71,12.68,5.75,26.43,8,40,3.72a3.21,3.21,0,0,0,2.47-2c.47-1.58,0-3.62-.12-5.23C116.44,297.26,116.31,295.24,116.17,293.22Z" fill="#472ea6"/>
        <path id="Trazado_227795" data-name="Trazado 227795" d="M116.17,293.22v-.7c-.81-12.2-1-24.36-1.43-36.57a129.162,129.162,0,0,0-2.7-23.36c-.54-2.49-2.28-9.6-3.88-15.09.61,5.07.35,10.34.35,15.31,0,8.85-.16,17.69-.41,26.54-.23,8.22-.54,17.11-4.83,24.4-3.81,6.46-10.5,10.11-17.82,11.12a42.63,42.63,0,0,1-15.34-1,10.4,10.4,0,0,1-.12,1.24c-.47,3.83.74,6.09,4.31,7.71,12.68,5.74,26.43,8,40,3.72a3.21,3.21,0,0,0,2.47-2c.47-1.58,0-3.62-.12-5.23C116.44,297.26,116.31,295.24,116.17,293.22Z" fill="#ccc" opacity="0.4"/>
        <path id="Trazado_227796" data-name="Trazado 227796" d="M146.07,286a7.48,7.48,0,0,0,7-.29,17.162,17.162,0,0,1,2.88-1.43c.6-.21,1.66-.42,2.18.06,1.33,1.25-1.1,2.6-1.89,3.1-1.33.85.64,1.59,1.32,1.83a21.928,21.928,0,0,0,3.31.82c.84.14,2,.11,2.39,1.09a1,1,0,0,1-.47,1.22,4.08,4.08,0,0,1,.87,1.12,1.45,1.45,0,0,1,0,1.37,2,2,0,0,1-1.64.65,2.09,2.09,0,0,1,.25,1.46c-.18.72-1.3.77-2.06.77a.6.6,0,0,1-.39.55,4.77,4.77,0,0,1-1.69.13,15.7,15.7,0,0,1-6.13-1.42,37.321,37.321,0,0,1-8-4.48s-.17-.11-.17-.13l1.14-7Z" fill="#ffcaa9"/>
        <path id="Trazado_227797" data-name="Trazado 227797" d="M119,264.24c-2.14-2-3.23-4.17-3.41-8.22-.42-9.45-.55-18.95-1.83-28.34-.74-5.4-2.47-18.1-10.22-17.69-4.79.26-5.72,7.62-6.32,11.16-1.65,9.79-.44,19.76,1.23,29.46,1.53,8.88,1.62,18,9.48,23.69a195,195,0,0,0,36,20.11q3.27-4.8,6.85-9.35-9.9-6-19.62-12.33c-2.8-1.83-5.55-3.72-8.31-5.6a33.147,33.147,0,0,1-3.85-2.89Z" fill="#00c4aa"/>
        <path id="Trazado_227798" data-name="Trazado 227798" d="M108.65,168.69s5.44,22.47.35,26.4a33.54,33.54,0,0,1-12,5.36l-.21,5.83s-8.94.54-15.22-3.19A21.28,21.28,0,0,0,80,190.78S80,154.93,108.65,168.69Z" fill="#ffcaa9"/>
        <path id="Trazado_227799" data-name="Trazado 227799" d="M108.94,170l-.29-1.26C80,154.93,80,190.78,80,190.78a19.52,19.52,0,0,1,1.93,8.36,27.391,27.391,0,0,0,5.94-.21h.07c3.08-.42,6.16-1.52,8.12-4.07a14.46,14.46,0,0,0,2.29-4.47,2.25,2.25,0,0,0-.09-2A8.5,8.5,0,0,0,96.85,187a5.08,5.08,0,0,1-1.57-2.51,3.55,3.55,0,0,1,1.52-3.82c1.48-.94,2.8-.23,4.23.38a3.6,3.6,0,0,0,2.89.2,2.32,2.32,0,0,0,1.15-2.35,38.712,38.712,0,0,1-.16-4.57C105.17,171.77,107,170.81,108.94,170Z" fill="#fab793"/>
        <path id="Trazado_227800" data-name="Trazado 227800" d="M103.53,182h-.16c-.93,0-1.56-2-2.3-2.49a4.72,4.72,0,0,0-2.93-.86c-4.86.15-5.53,9-.37,9.57a.84.84,0,0,1,.54.18.74.74,0,0,1,.15.49c.09,4-3.08,6.68-6.74,7.65-3.82,1-8.51.47-11.19-2.65a40.08,40.08,0,0,1-6.19-9.75c-1.64-3.64-3.2-7.26-3.45-11.31a20,20,0,0,1,4-12.68,25.22,25.22,0,0,1,5.82-5.66c2.15-1.54,5-2.62,6.56-4.81.92-1.3,1.37-2.89,2.47-4.07a6.45,6.45,0,0,1,3.82-1.89,11.12,11.12,0,0,1,6.9,1.45c.93.53,1.81.81,2.67,0s1.22-1.66,2.15-2.22a4.89,4.89,0,0,1,3.42-.53c5,1,7.56,6.77,7.36,11.37a2.5,2.5,0,0,0,0,.77c.26.93,1.39.61,2,1.1,1,.83.82,2.92.49,4a9.6,9.6,0,0,1-2.41,3.78,21.54,21.54,0,0,1-7.19,4.87c-2.26.95-4.24,2.25-4.48,4.91C104.32,175,106.5,181.52,103.53,182Z" fill="#12263f"/>
        <path id="Trazado_227801" data-name="Trazado 227801" d="M118.55,159.72c.33-1.09.52-3.18-.49-4h0a14,14,0,0,1-9.11,9.16c-3.2,1.11-9.74.86-9.54,5.77.06,1.33,1.51,3.84-.61,4.26-.74.15-1.38-.47-2.12-.49-2.49-.09-3.66,3.43-4.22,5.3-.71,2.37-1.49,4.7-3.68,6.1a8.22,8.22,0,0,1-7.56.46,15.39,15.39,0,0,1-6.87-6.2,34.67,34.67,0,0,1-3.3-5.86,36.13,36.13,0,0,0,3.32,10,40.079,40.079,0,0,0,6.19,9.75c2.68,3.12,7.37,3.67,11.19,2.65,3.66-1,6.83-3.6,6.74-7.65a.74.74,0,0,0-.15-.49.84.84,0,0,0-.54-.18c-5.16-.56-4.49-9.42.37-9.57a4.72,4.72,0,0,1,2.93.86c.74.52,1.37,2.46,2.3,2.49h.16c3-.51.79-7,.94-8.75.24-2.67,2.22-4,4.48-4.91a21.54,21.54,0,0,0,7.19-4.87A9.6,9.6,0,0,0,118.55,159.72Z" fill="#071022"/>
        <path id="Trazado_227802" data-name="Trazado 227802" d="M80.48,203.37l1.34-1.57s5.08,4.16,15.05,2.61l.44,2.05S86.49,207.67,80.48,203.37Z" fill="#00c4aa"/>
        <path id="Trazado_227803" data-name="Trazado 227803" d="M106.25,315.74a.47.47,0,0,0-.41-.24,56.517,56.517,0,0,1-10.8-.29c-1.34-.14-2.74-.25-4.05-.51-.15,0-.59-.2-.7,0a.47.47,0,0,0,0,.27v1.56a1,1,0,0,0,.33.8,3.569,3.569,0,0,0,1.15.24,76.6,76.6,0,0,0,10.69,1.14c1,0,1.88,0,2.83-.05l.88-.06a.56.56,0,0,0,.54-.54A4.14,4.14,0,0,0,106.25,315.74Z" fill="#071022"/>
        <path id="Trazado_227804" data-name="Trazado 227804" d="M77.93,311.63A49.7,49.7,0,0,1,71,309.86l.13,3.14c.9.3,1.81.59,2.72.86s1.82.48,2.75.66l.87.16a.57.57,0,0,0,.66-.39,4.08,4.08,0,0,0,.15-2.32.47.47,0,0,0-.35-.34Z" fill="#071022"/>
        <path id="Trazado_227805" data-name="Trazado 227805" d="M44,169.85,32.45,163.2a.435.435,0,0,0-.7.41,1.52,1.52,0,0,0,.7,1.2L44,171.46a.433.433,0,0,0,.7-.39,1.52,1.52,0,0,0-.7-1.22" fill="#c2deff"/>
        <path id="Trazado_227806" data-name="Trazado 227806" d="M48.78,176.28l-16.34-9.44c-.39-.22-.7-.05-.7.4a1.56,1.56,0,0,0,.69,1.21l16.35,9.44a.435.435,0,0,0,.7-.41,1.52,1.52,0,0,0-.7-1.2" fill="#c2deff"/>
        <path id="Trazado_227807" data-name="Trazado 227807" d="M59.46,182.44l-7-4c-.39-.22-.71-.05-.71.4a1.6,1.6,0,0,0,.7,1.22l7,4a.438.438,0,0,0,.71-.4,1.52,1.52,0,0,0-.7-1.21" fill="#c2deff"/>
        <path id="Trazado_227808" data-name="Trazado 227808" d="M38.26,173.84l-5.83-3.36a.433.433,0,0,0-.7.4,1.54,1.54,0,0,0,.69,1.2l5.83,3.37a.433.433,0,0,0,.7-.4,1.56,1.56,0,0,0-.69-1.21" fill="#c2deff"/>
        <path id="Trazado_227809" data-name="Trazado 227809" d="M52.94,182.32,41.31,175.6a.44.44,0,0,0-.71.4,1.54,1.54,0,0,0,.7,1.21l11.63,6.71c.39.23.7.05.7-.4a1.54,1.54,0,0,0-.69-1.2" fill="#c2deff"/>
        <path id="Trazado_227810" data-name="Trazado 227810" d="M42.35,179.85l-9.93-5.74a.435.435,0,0,0-.7.41,1.54,1.54,0,0,0,.69,1.2l9.94,5.74a.433.433,0,0,0,.7-.4,1.52,1.52,0,0,0-.7-1.21" fill="#c2deff"/>
        <path id="Trazado_227811" data-name="Trazado 227811" d="M48.76,183.55l-3.27-1.89c-.38-.23-.7,0-.7.41a1.52,1.52,0,0,0,.7,1.2l3.27,1.89a.433.433,0,0,0,.7-.4,1.52,1.52,0,0,0-.7-1.21" fill="#c2deff"/>
        <path id="Trazado_227812" data-name="Trazado 227812" d="M55.64,176.59l-9.2-5.31a.431.431,0,0,0-.7.4,1.49,1.49,0,0,0,.69,1.21l9.2,5.31c.39.23.71.05.71-.39a1.54,1.54,0,0,0-.7-1.22" fill="#c2deff"/>
        <path id="Trazado_227813" data-name="Trazado 227813" d="M49.11,166.29,32.94,157c-.64-.37-1.17-.07-1.17.68a2.54,2.54,0,0,0,1.16,2L49.1,169c.65.38,1.18.08,1.18-.66a2.57,2.57,0,0,0-1.17-2" fill="#12428e"/>
        <path id="Trazado_227814" data-name="Trazado 227814" d="M59.2,172.12l-6.05-3.5c-.65-.38-1.18-.08-1.18.67a2.57,2.57,0,0,0,1.17,2l6.06,3.5c.65.37,1.17.07,1.18-.67a2.58,2.58,0,0,0-1.18-2" fill="#12428e"/>
        <path id="Trazado_227815" data-name="Trazado 227815" d="M34.93,141.12a2,2,0,0,1-.92-1.6V122.45c0-.59.42-.82.93-.53L56.5,134.37a2,2,0,0,1,.93,1.6v17.06c0,.59-.42.83-.93.53l-12.81-7.39A1.74,1.74,0,0,0,42,146l-3.73,2v-2.17a5.42,5.42,0,0,0-2.46-4.25l-.84-.48m21.62-8.52L35,120.16c-1.36-.78-2.47-.15-2.47,1.4l-.05,17.07a5.44,5.44,0,0,0,2.45,4.25l.85.49a2,2,0,0,1,.92,1.6v2.34a3.19,3.19,0,0,0,.9,2.09,2.51,2.51,0,0,0,.56.45,1,1,0,0,0,1,.11l3.85-2.1a.68.68,0,0,1,.65.07l12.8,7.4c1.36.78,2.47.15,2.47-1.41V136.85a5.47,5.47,0,0,0-2.45-4.25" fill="#f9aac2"/>
        <path id="Trazado_227816" data-name="Trazado 227816" d="M39.16,131.8c-1.11-.64-2-.12-2,1.16a4.43,4.43,0,0,0,2,3.48c1.11.65,2,.12,2-1.15a4.48,4.48,0,0,0-2-3.49" fill="#f9aac2"/>
        <path id="Trazado_227817" data-name="Trazado 227817" d="M45.74,135.6c-1.11-.64-2-.12-2,1.16a4.42,4.42,0,0,0,2,3.48c1.11.65,2,.13,2-1.15a4.45,4.45,0,0,0-2-3.49" fill="#f9aac2"/>
        <path id="Trazado_227818" data-name="Trazado 227818" d="M52.32,139.4c-1.11-.64-2-.12-2,1.16a4.42,4.42,0,0,0,2,3.48c1.11.65,2,.13,2-1.15a4.46,4.46,0,0,0-2-3.49" fill="#f9aac2"/>
      </g>
    </g>
  </g>
</svg>
